G75*
G70*
%OFA0B0*%
%FSLAX24Y24*%
%IPPOS*%
%LPD*%
%AMOC8*
5,1,8,0,0,1.08239X$1,22.5*
%
%ADD10C,0.0000*%
%ADD11R,0.0720X0.0240*%
%ADD12C,0.0660*%
%ADD13R,0.0472X0.0217*%
%ADD14R,0.0866X0.0236*%
%ADD15R,0.0591X0.0394*%
%ADD16R,0.0472X0.0472*%
%ADD17C,0.0120*%
%ADD18C,0.0070*%
%ADD19C,0.0080*%
D10*
X000141Y000101D02*
X000141Y019687D01*
X018350Y019687D01*
X018350Y000101D01*
X000141Y000101D01*
D11*
X006743Y002449D03*
X006743Y002949D03*
X006743Y003449D03*
X006743Y003949D03*
X006743Y004449D03*
X006743Y004949D03*
X006743Y005449D03*
X006743Y005949D03*
X008783Y005949D03*
X008783Y005449D03*
X008783Y004949D03*
X008783Y004449D03*
X008783Y003949D03*
X008783Y003449D03*
X008783Y002949D03*
X008783Y002449D03*
X008783Y002449D03*
X013830Y002449D03*
X013830Y002949D03*
X013830Y003449D03*
X013830Y003949D03*
X013830Y004449D03*
X013830Y004949D03*
X013830Y005449D03*
X013830Y005949D03*
X015870Y005949D03*
X015870Y005449D03*
X015870Y004949D03*
X015870Y004449D03*
X015870Y003949D03*
X015870Y003449D03*
X015870Y002949D03*
X015870Y002449D03*
X015870Y002449D03*
X015870Y010717D03*
X015870Y010717D03*
X015870Y011217D03*
X015870Y011717D03*
X015870Y012217D03*
X015870Y012717D03*
X015870Y013217D03*
X015870Y013717D03*
X015870Y014217D03*
X013830Y014217D03*
X013830Y013717D03*
X013830Y013217D03*
X013830Y012717D03*
X013830Y012217D03*
X013830Y011717D03*
X013830Y011217D03*
X013830Y010717D03*
X008783Y010717D03*
X008783Y010717D03*
X008783Y011217D03*
X008783Y011717D03*
X008783Y012217D03*
X008783Y012717D03*
X008783Y013217D03*
X008783Y013717D03*
X008783Y014217D03*
X006743Y014217D03*
X006743Y013717D03*
X006743Y013217D03*
X006743Y012717D03*
X006743Y012217D03*
X006743Y011717D03*
X006743Y011217D03*
X006743Y010717D03*
D12*
X004763Y010967D03*
X004763Y011967D03*
X004763Y012967D03*
X004763Y013967D03*
X004763Y014967D03*
X004763Y015967D03*
X003641Y016002D03*
X002641Y016002D03*
X001641Y016002D03*
X000641Y016002D03*
X000677Y017136D03*
X000677Y018136D03*
X000677Y019136D03*
X003677Y019136D03*
X003677Y018136D03*
X003677Y017136D03*
X004810Y017136D03*
X004810Y018136D03*
X004810Y019136D03*
X007810Y019136D03*
X007810Y018136D03*
X007810Y017136D03*
X008944Y017136D03*
X008944Y018136D03*
X008944Y019136D03*
X011944Y019136D03*
X011944Y018136D03*
X011944Y017136D03*
X013078Y017136D03*
X013078Y018136D03*
X013078Y019136D03*
X011850Y015967D03*
X011850Y014967D03*
X011850Y013967D03*
X011850Y012967D03*
X011850Y011967D03*
X011850Y010967D03*
X011850Y009967D03*
X011850Y008967D03*
X010763Y008967D03*
X010763Y009967D03*
X010763Y010967D03*
X010763Y011967D03*
X010763Y012967D03*
X010763Y013967D03*
X010763Y014967D03*
X010763Y015967D03*
X016078Y017136D03*
X016078Y018136D03*
X016078Y019136D03*
X017850Y015967D03*
X017850Y014967D03*
X017850Y013967D03*
X017850Y012967D03*
X017850Y011967D03*
X017850Y010967D03*
X017850Y009967D03*
X017850Y008967D03*
X017850Y007699D03*
X017850Y006699D03*
X017850Y005699D03*
X017850Y004699D03*
X017850Y003699D03*
X017850Y002699D03*
X017850Y001699D03*
X017850Y000699D03*
X011850Y000699D03*
X011850Y001699D03*
X011850Y002699D03*
X011850Y003699D03*
X011850Y004699D03*
X011850Y005699D03*
X011850Y006699D03*
X011850Y007699D03*
X010763Y007699D03*
X010763Y006699D03*
X010763Y005699D03*
X010763Y004699D03*
X010763Y003699D03*
X010763Y002699D03*
X010763Y001699D03*
X010763Y000699D03*
X004763Y000699D03*
X004763Y001699D03*
X004763Y002699D03*
X004763Y003699D03*
X004763Y004699D03*
X004763Y005699D03*
X004763Y006699D03*
X004763Y007699D03*
X003641Y007735D03*
X002641Y007735D03*
X002641Y008869D03*
X003641Y008869D03*
X004763Y008967D03*
X004763Y009967D03*
X003641Y011869D03*
X002641Y011869D03*
X001641Y011869D03*
X000641Y011869D03*
X000641Y013002D03*
X001641Y013002D03*
X002641Y013002D03*
X003641Y013002D03*
X001641Y008869D03*
X000641Y008869D03*
X000641Y007735D03*
X001641Y007735D03*
X001641Y004735D03*
X000641Y004735D03*
X000641Y003601D03*
X001641Y003601D03*
X002641Y003601D03*
X003641Y003601D03*
X003641Y004735D03*
X002641Y004735D03*
X002641Y000601D03*
X003641Y000601D03*
X001641Y000601D03*
X000641Y000601D03*
D13*
X001665Y017762D03*
X001665Y018136D03*
X001665Y018510D03*
X002688Y018510D03*
X002688Y018136D03*
X002688Y017762D03*
X005799Y017762D03*
X005799Y018136D03*
X005799Y018510D03*
X006822Y018510D03*
X006822Y018136D03*
X006822Y017762D03*
X009932Y017762D03*
X009932Y018136D03*
X009932Y018510D03*
X010956Y018510D03*
X010956Y018136D03*
X010956Y017762D03*
X014066Y017762D03*
X014066Y018136D03*
X014066Y018510D03*
X015090Y018510D03*
X015090Y018136D03*
X015090Y017762D03*
D14*
X016661Y014217D03*
X016661Y013717D03*
X016661Y013217D03*
X016661Y012717D03*
X016661Y012217D03*
X016661Y011717D03*
X016661Y011217D03*
X016661Y010717D03*
X013039Y010717D03*
X013039Y011217D03*
X013039Y011717D03*
X013039Y012217D03*
X013039Y012717D03*
X013039Y013217D03*
X013039Y013717D03*
X013039Y014217D03*
X009574Y014217D03*
X009574Y013717D03*
X009574Y013217D03*
X009574Y012717D03*
X009574Y012217D03*
X009574Y011717D03*
X009574Y011217D03*
X009574Y010717D03*
X005952Y010717D03*
X005952Y011217D03*
X005952Y011717D03*
X005952Y012217D03*
X005952Y012717D03*
X005952Y013217D03*
X005952Y013717D03*
X005952Y014217D03*
X003165Y014272D03*
X003165Y014772D03*
X003165Y015272D03*
X003165Y013772D03*
X001117Y013772D03*
X001117Y014272D03*
X001117Y014772D03*
X001117Y015272D03*
X001117Y011139D03*
X001117Y010639D03*
X001117Y010139D03*
X001117Y009639D03*
X003165Y009639D03*
X003165Y010139D03*
X003165Y010639D03*
X003165Y011139D03*
X003165Y007005D03*
X003165Y006505D03*
X003165Y006005D03*
X003165Y005505D03*
X001117Y005505D03*
X001117Y006005D03*
X001117Y006505D03*
X001117Y007005D03*
X001117Y002871D03*
X001117Y002371D03*
X001117Y001871D03*
X001117Y001371D03*
X003165Y001371D03*
X003165Y001871D03*
X003165Y002371D03*
X003165Y002871D03*
X005952Y002949D03*
X005952Y002449D03*
X005952Y003449D03*
X005952Y003949D03*
X005952Y004449D03*
X005952Y004949D03*
X005952Y005449D03*
X005952Y005949D03*
X009574Y005949D03*
X009574Y005449D03*
X009574Y004949D03*
X009574Y004449D03*
X009574Y003949D03*
X009574Y003449D03*
X009574Y002949D03*
X009574Y002449D03*
X013039Y002449D03*
X013039Y002949D03*
X013039Y003449D03*
X013039Y003949D03*
X013039Y004449D03*
X013039Y004949D03*
X013039Y005449D03*
X013039Y005949D03*
X016661Y005949D03*
X016661Y005449D03*
X016661Y004949D03*
X016661Y004449D03*
X016661Y003949D03*
X016661Y003449D03*
X016661Y002949D03*
X016661Y002449D03*
D15*
X015220Y001449D03*
X014480Y001449D03*
X014345Y000699D03*
X013605Y000699D03*
X008133Y001449D03*
X007393Y001449D03*
X007258Y000699D03*
X006518Y000699D03*
X007393Y006949D03*
X007258Y007699D03*
X006518Y007699D03*
X006518Y008967D03*
X007258Y008967D03*
X007393Y009717D03*
X008133Y009717D03*
X008133Y006949D03*
X013605Y007699D03*
X014345Y007699D03*
X014480Y006949D03*
X015220Y006949D03*
X014345Y008967D03*
X013605Y008967D03*
X014480Y009717D03*
X015220Y009717D03*
X015220Y015217D03*
X014480Y015217D03*
X014345Y015967D03*
X013605Y015967D03*
X008133Y015217D03*
X007393Y015217D03*
X007258Y015967D03*
X006518Y015967D03*
D16*
X006513Y015217D03*
X008225Y015967D03*
X009013Y015217D03*
X009052Y015967D03*
X013600Y015217D03*
X015311Y015967D03*
X016138Y015967D03*
X016100Y015217D03*
X016100Y009717D03*
X016138Y008967D03*
X015311Y008967D03*
X015311Y007699D03*
X016138Y007699D03*
X016100Y006949D03*
X013600Y006949D03*
X013600Y009717D03*
X009052Y008967D03*
X009013Y009717D03*
X008225Y008967D03*
X008225Y007699D03*
X009013Y006949D03*
X009052Y007699D03*
X006513Y006949D03*
X006513Y009717D03*
X006513Y001449D03*
X008225Y000699D03*
X009013Y001449D03*
X009052Y000699D03*
X013600Y001449D03*
X015311Y000699D03*
X016138Y000699D03*
X016100Y001449D03*
D17*
X016700Y000699D02*
X017850Y000699D01*
X017850Y001699D02*
X017300Y001699D01*
X017300Y002774D01*
X017150Y002924D01*
X016850Y002924D01*
X016700Y002949D01*
X016661Y002949D01*
X016661Y002449D02*
X016700Y002449D01*
X016700Y000699D01*
X017850Y002699D02*
X017250Y003424D01*
X016850Y003424D01*
X016700Y003449D01*
X016661Y003449D01*
X016661Y003949D02*
X016700Y003949D01*
X016850Y003924D01*
X017750Y003924D01*
X017850Y003699D01*
X017750Y004474D02*
X017850Y004699D01*
X017750Y004474D02*
X016850Y004474D01*
X016700Y004449D01*
X016661Y004449D01*
X016661Y004949D02*
X016700Y004949D01*
X016725Y004974D01*
X017250Y004974D01*
X017850Y005699D01*
X017300Y005624D02*
X017300Y006699D01*
X017850Y006699D01*
X017850Y007699D02*
X016700Y007699D01*
X016700Y005949D01*
X016661Y005949D01*
X016661Y005449D02*
X016700Y005449D01*
X016850Y005474D01*
X017150Y005474D01*
X017300Y005624D01*
X017850Y008967D02*
X016700Y008967D01*
X016700Y010717D01*
X016661Y010717D01*
X016661Y011217D02*
X016700Y011217D01*
X016850Y011192D01*
X017150Y011192D01*
X017300Y011042D01*
X017300Y009967D01*
X017850Y009967D01*
X017850Y010967D02*
X017250Y011692D01*
X016850Y011692D01*
X016700Y011717D01*
X016661Y011717D01*
X016661Y012217D02*
X016700Y012217D01*
X016850Y012192D01*
X017750Y012192D01*
X017850Y011967D01*
X017750Y012742D02*
X017850Y012967D01*
X017750Y012742D02*
X016850Y012742D01*
X016700Y012717D01*
X016661Y012717D01*
X016661Y013217D02*
X016700Y013217D01*
X016725Y013242D01*
X017250Y013242D01*
X017850Y013967D01*
X017300Y013892D02*
X017300Y014967D01*
X017850Y014967D01*
X017850Y015967D02*
X016700Y015967D01*
X016700Y014217D01*
X016661Y014217D01*
X016661Y013717D02*
X016700Y013717D01*
X016850Y013742D01*
X017150Y013742D01*
X017300Y013892D01*
X016078Y017136D02*
X015090Y017136D01*
X015088Y017206D01*
X015088Y017756D01*
X015090Y017762D01*
X015098Y018136D02*
X015090Y018136D01*
X015098Y018136D02*
X016078Y018136D01*
X016078Y019136D02*
X015090Y019136D01*
X015088Y019066D01*
X015088Y018516D01*
X015090Y018510D01*
X014068Y018516D02*
X014066Y018510D01*
X014068Y018516D02*
X014068Y019066D01*
X014066Y019136D01*
X013078Y019136D01*
X013078Y018136D02*
X014058Y018136D01*
X014066Y018136D01*
X014066Y017762D02*
X014068Y017756D01*
X014068Y017206D01*
X014066Y017136D01*
X014008Y017136D01*
X013078Y017136D01*
X011944Y017136D02*
X010956Y017136D01*
X010954Y017206D01*
X010954Y017756D01*
X010956Y017762D01*
X010964Y018136D02*
X010956Y018136D01*
X010964Y018136D02*
X011944Y018136D01*
X011944Y019136D02*
X010956Y019136D01*
X010954Y019066D01*
X010954Y018516D01*
X010956Y018510D01*
X009934Y018516D02*
X009932Y018510D01*
X009934Y018516D02*
X009934Y019066D01*
X009932Y019136D01*
X008944Y019136D01*
X008944Y018136D02*
X009924Y018136D01*
X009932Y018136D01*
X009932Y017762D02*
X009934Y017756D01*
X009934Y017206D01*
X009932Y017136D01*
X009874Y017136D01*
X008944Y017136D01*
X007810Y017136D02*
X006822Y017136D01*
X006820Y017206D01*
X006820Y017756D01*
X006822Y017762D01*
X006830Y018136D02*
X006822Y018136D01*
X006830Y018136D02*
X007810Y018136D01*
X007810Y019136D02*
X006822Y019136D01*
X006820Y019066D01*
X006820Y018516D01*
X006822Y018510D01*
X005800Y018516D02*
X005799Y018510D01*
X005800Y018516D02*
X005800Y019066D01*
X005799Y019136D01*
X004810Y019136D01*
X004810Y018136D02*
X005790Y018136D01*
X005799Y018136D01*
X005799Y017762D02*
X005800Y017756D01*
X005800Y017206D01*
X005799Y017136D01*
X005740Y017136D01*
X004810Y017136D01*
X004763Y015967D02*
X005913Y015967D01*
X005913Y014217D01*
X005952Y014217D01*
X005952Y013717D02*
X005913Y013717D01*
X005763Y013742D01*
X005463Y013742D01*
X005313Y013892D01*
X005313Y014967D01*
X004763Y014967D01*
X004763Y013967D02*
X005238Y013242D01*
X005763Y013242D01*
X005913Y013217D01*
X005952Y013217D01*
X005952Y012717D02*
X005913Y012717D01*
X005763Y012742D01*
X004863Y012742D01*
X004763Y012967D01*
X004863Y012192D02*
X004763Y011967D01*
X004863Y012192D02*
X005763Y012192D01*
X005913Y012217D01*
X005952Y012217D01*
X005952Y011717D02*
X005913Y011717D01*
X005763Y011692D01*
X005238Y011692D01*
X004763Y010967D01*
X005313Y011042D02*
X005313Y009967D01*
X004763Y009967D01*
X004763Y008967D02*
X005913Y008967D01*
X005913Y010717D01*
X005952Y010717D01*
X005952Y011217D02*
X005913Y011217D01*
X005763Y011192D01*
X005463Y011192D01*
X005313Y011042D01*
X004763Y007699D02*
X005913Y007699D01*
X005913Y005949D01*
X005952Y005949D01*
X005952Y005449D02*
X005913Y005449D01*
X005763Y005474D01*
X005463Y005474D01*
X005313Y005624D01*
X005313Y006699D01*
X004763Y006699D01*
X004763Y005699D02*
X005238Y004974D01*
X005763Y004974D01*
X005913Y004949D01*
X005952Y004949D01*
X005952Y004449D02*
X005913Y004449D01*
X005763Y004474D01*
X004863Y004474D01*
X004763Y004699D01*
X004863Y003924D02*
X004763Y003699D01*
X004863Y003924D02*
X005763Y003924D01*
X005913Y003949D01*
X005952Y003949D01*
X005952Y003449D02*
X005913Y003449D01*
X005763Y003424D01*
X005238Y003424D01*
X004763Y002699D01*
X005313Y002774D02*
X005313Y001699D01*
X004763Y001699D01*
X004763Y000699D02*
X005913Y000699D01*
X005913Y002449D01*
X005952Y002449D01*
X005952Y002949D02*
X005913Y002949D01*
X005763Y002924D01*
X005463Y002924D01*
X005313Y002774D01*
X009574Y002949D02*
X009613Y002949D01*
X009763Y002924D01*
X010063Y002924D01*
X010213Y002774D01*
X010213Y001699D01*
X010763Y001699D01*
X010763Y000699D02*
X009613Y000699D01*
X009613Y002449D01*
X009574Y002449D01*
X009763Y003424D02*
X010163Y003424D01*
X010763Y002699D01*
X010763Y003699D02*
X010663Y003924D01*
X009763Y003924D01*
X009613Y003949D01*
X009574Y003949D01*
X009574Y003449D02*
X009613Y003449D01*
X009763Y003424D01*
X009613Y004449D02*
X009574Y004449D01*
X009613Y004449D02*
X009763Y004474D01*
X010663Y004474D01*
X010763Y004699D01*
X010163Y004974D02*
X010763Y005699D01*
X010213Y005624D02*
X010213Y006699D01*
X010763Y006699D01*
X010763Y007699D02*
X009613Y007699D01*
X009613Y005949D01*
X009574Y005949D01*
X009574Y005449D02*
X009613Y005449D01*
X009763Y005474D01*
X010063Y005474D01*
X010213Y005624D01*
X010163Y004974D02*
X009638Y004974D01*
X009613Y004949D01*
X009574Y004949D01*
X011850Y004699D02*
X011950Y004474D01*
X012850Y004474D01*
X013000Y004449D01*
X013039Y004449D01*
X013039Y003949D02*
X013000Y003949D01*
X012850Y003924D01*
X011950Y003924D01*
X011850Y003699D01*
X012325Y003424D02*
X011850Y002699D01*
X012400Y002774D02*
X012400Y001699D01*
X011850Y001699D01*
X011850Y000699D02*
X013000Y000699D01*
X013000Y002449D01*
X013039Y002449D01*
X013039Y002949D02*
X013000Y002949D01*
X012850Y002924D01*
X012550Y002924D01*
X012400Y002774D01*
X012325Y003424D02*
X012850Y003424D01*
X013000Y003449D01*
X013039Y003449D01*
X013000Y004949D02*
X013039Y004949D01*
X013000Y004949D02*
X012850Y004974D01*
X012325Y004974D01*
X011850Y005699D01*
X012400Y005624D02*
X012550Y005474D01*
X012850Y005474D01*
X013000Y005449D01*
X013039Y005449D01*
X013039Y005949D02*
X013000Y005949D01*
X013000Y007699D01*
X011850Y007699D01*
X011850Y006699D02*
X012400Y006699D01*
X012400Y005624D01*
X011850Y008967D02*
X013000Y008967D01*
X013000Y010717D01*
X013039Y010717D01*
X013039Y011217D02*
X013000Y011217D01*
X012850Y011192D01*
X012550Y011192D01*
X012400Y011042D01*
X012400Y009967D01*
X011850Y009967D01*
X011850Y010967D02*
X012325Y011692D01*
X012850Y011692D01*
X013000Y011717D01*
X013039Y011717D01*
X013039Y012217D02*
X013000Y012217D01*
X012850Y012192D01*
X011950Y012192D01*
X011850Y011967D01*
X011950Y012742D02*
X011850Y012967D01*
X011950Y012742D02*
X012850Y012742D01*
X013000Y012717D01*
X013039Y012717D01*
X013039Y013217D02*
X013000Y013217D01*
X012850Y013242D01*
X012325Y013242D01*
X011850Y013967D01*
X012400Y013892D02*
X012550Y013742D01*
X012850Y013742D01*
X013000Y013717D01*
X013039Y013717D01*
X013039Y014217D02*
X013000Y014217D01*
X013000Y015967D01*
X011850Y015967D01*
X011850Y014967D02*
X012400Y014967D01*
X012400Y013892D01*
X010763Y013967D02*
X010163Y013242D01*
X009638Y013242D01*
X009613Y013217D01*
X009574Y013217D01*
X009574Y012717D02*
X009613Y012717D01*
X009763Y012742D01*
X010663Y012742D01*
X010763Y012967D01*
X010663Y012192D02*
X010763Y011967D01*
X010663Y012192D02*
X009763Y012192D01*
X009613Y012217D01*
X009574Y012217D01*
X009574Y011717D02*
X009613Y011717D01*
X009763Y011692D01*
X010163Y011692D01*
X010763Y010967D01*
X010213Y011042D02*
X010213Y009967D01*
X010763Y009967D01*
X010763Y008967D02*
X009613Y008967D01*
X009613Y010717D01*
X009574Y010717D01*
X009574Y011217D02*
X009613Y011217D01*
X009763Y011192D01*
X010063Y011192D01*
X010213Y011042D01*
X010063Y013742D02*
X009763Y013742D01*
X009613Y013717D01*
X009574Y013717D01*
X009574Y014217D02*
X009613Y014217D01*
X009613Y015967D01*
X010763Y015967D01*
X010763Y014967D02*
X010213Y014967D01*
X010213Y013892D01*
X010063Y013742D01*
X003677Y017136D02*
X002688Y017136D01*
X002687Y017206D01*
X002687Y017756D01*
X002688Y017762D01*
X002697Y018136D02*
X002688Y018136D01*
X002697Y018136D02*
X003677Y018136D01*
X003677Y019136D02*
X002688Y019136D01*
X002687Y019066D01*
X002687Y018516D01*
X002688Y018510D01*
X001667Y018516D02*
X001665Y018510D01*
X001667Y018516D02*
X001667Y019066D01*
X001665Y019136D01*
X000677Y019136D01*
X000677Y018136D02*
X001657Y018136D01*
X001665Y018136D01*
X001665Y017762D02*
X001667Y017756D01*
X001667Y017206D01*
X001665Y017136D01*
X001607Y017136D01*
X000677Y017136D01*
D18*
X000641Y016002D02*
X000277Y015638D01*
X000277Y013772D01*
X001117Y013772D01*
X001156Y013517D02*
X000641Y013002D01*
X001156Y013517D02*
X001646Y013517D01*
X002661Y014532D01*
X003711Y014532D01*
X003711Y013772D01*
X003165Y013772D01*
X003156Y013517D02*
X002641Y013002D01*
X003156Y013517D02*
X003711Y013517D01*
X003851Y013657D01*
X003851Y014772D01*
X003165Y014772D01*
X003165Y014272D02*
X002681Y014272D01*
X001926Y013517D01*
X001926Y013287D01*
X001641Y013002D01*
X001641Y011869D02*
X001173Y011400D01*
X000653Y011400D01*
X000424Y011401D01*
X000424Y010135D01*
X000889Y010140D01*
X001086Y010140D01*
X001117Y010139D01*
X001117Y010639D02*
X001125Y010652D01*
X001725Y010652D01*
X002101Y011029D01*
X002101Y011329D01*
X002641Y011869D01*
X002631Y011409D02*
X002491Y011269D01*
X002491Y010639D01*
X002241Y010389D01*
X000571Y010389D01*
X000571Y011139D01*
X001117Y011139D01*
X000641Y011869D02*
X000277Y011504D01*
X000277Y009639D01*
X001117Y009639D01*
X001156Y009384D02*
X000641Y008869D01*
X001156Y009384D02*
X001646Y009384D01*
X002661Y010399D01*
X003711Y010399D01*
X003711Y009639D01*
X003165Y009639D01*
X003156Y009384D02*
X002641Y008869D01*
X003156Y009384D02*
X003711Y009384D01*
X003851Y009524D01*
X003851Y010639D01*
X003165Y010639D01*
X003165Y010139D02*
X002681Y010139D01*
X001926Y009384D01*
X001926Y009154D01*
X001641Y008869D01*
X001641Y007735D02*
X001173Y007266D01*
X000653Y007266D01*
X000424Y007267D01*
X000424Y006001D01*
X000889Y006006D01*
X001086Y006006D01*
X001117Y006005D01*
X001117Y006505D02*
X001125Y006518D01*
X001725Y006518D01*
X002101Y006895D01*
X002101Y007195D01*
X002641Y007735D01*
X002631Y007275D02*
X002491Y007135D01*
X002491Y006505D01*
X002241Y006255D01*
X000571Y006255D01*
X000571Y007005D01*
X001117Y007005D01*
X000641Y007735D02*
X000277Y007370D01*
X000277Y005505D01*
X001117Y005505D01*
X001156Y005250D02*
X000641Y004735D01*
X001156Y005250D02*
X001646Y005250D01*
X002661Y006265D01*
X003711Y006265D01*
X003711Y005505D01*
X003165Y005505D01*
X003156Y005250D02*
X002641Y004735D01*
X003156Y005250D02*
X003711Y005250D01*
X003851Y005390D01*
X003851Y006505D01*
X003165Y006505D01*
X003165Y006005D02*
X002681Y006005D01*
X001926Y005250D01*
X001926Y005020D01*
X001641Y004735D01*
X001641Y003601D02*
X001173Y003132D01*
X000653Y003132D01*
X000424Y003134D01*
X000424Y001867D01*
X000889Y001872D01*
X001086Y001872D01*
X001117Y001871D01*
X001117Y002371D02*
X001125Y002384D01*
X001725Y002384D01*
X002101Y002761D01*
X002101Y003061D01*
X002641Y003601D01*
X002631Y003141D02*
X002491Y003001D01*
X002491Y002371D01*
X002241Y002121D01*
X000571Y002121D01*
X000571Y002871D01*
X001117Y002871D01*
X000641Y003601D02*
X000277Y003236D01*
X000277Y001371D01*
X001117Y001371D01*
X001156Y001116D02*
X000641Y000601D01*
X001156Y001116D02*
X001646Y001116D01*
X002661Y002131D01*
X003711Y002131D01*
X003711Y001371D01*
X003165Y001371D01*
X003156Y001116D02*
X002641Y000601D01*
X003156Y001116D02*
X003711Y001116D01*
X003851Y001256D01*
X003851Y002371D01*
X003165Y002371D01*
X003165Y001871D02*
X002681Y001871D01*
X001926Y001116D01*
X001926Y000886D01*
X001641Y000601D01*
X003641Y000601D02*
X003991Y000951D01*
X003991Y002871D01*
X003165Y002871D01*
X003091Y003141D02*
X002631Y003141D01*
X003091Y003141D02*
X003551Y003601D01*
X003641Y003601D01*
X003641Y004735D02*
X003991Y005085D01*
X003991Y007005D01*
X003165Y007005D01*
X003091Y007275D02*
X002631Y007275D01*
X003091Y007275D02*
X003551Y007735D01*
X003641Y007735D01*
X003641Y008869D02*
X003991Y009219D01*
X003991Y011139D01*
X003165Y011139D01*
X003091Y011409D02*
X002631Y011409D01*
X003091Y011409D02*
X003551Y011869D01*
X003641Y011869D01*
X003641Y013002D02*
X003991Y013352D01*
X003991Y015272D01*
X003165Y015272D01*
X003091Y015542D02*
X002631Y015542D01*
X002491Y015402D01*
X002491Y014772D01*
X002241Y014522D01*
X000571Y014522D01*
X000571Y015272D01*
X001117Y015272D01*
X001173Y015534D02*
X001641Y016002D01*
X001173Y015534D02*
X000653Y015534D01*
X000424Y015535D01*
X000424Y014269D01*
X000889Y014274D01*
X001086Y014274D01*
X001117Y014272D01*
X001117Y014772D02*
X001125Y014786D01*
X001725Y014786D01*
X002101Y015162D01*
X002101Y015462D01*
X002641Y016002D01*
X003091Y015542D02*
X003551Y016002D01*
X003641Y016002D01*
D19*
X006518Y015967D02*
X006518Y015217D01*
X006513Y015217D01*
X006643Y015217D01*
X006513Y015217D02*
X007393Y015217D01*
X008133Y015217D02*
X009013Y015217D01*
X009052Y015217D01*
X009052Y015967D01*
X008225Y015967D02*
X007258Y015967D01*
X007393Y009717D02*
X006513Y009717D01*
X006518Y009717D01*
X006518Y008967D01*
X006643Y008967D01*
X007258Y008967D02*
X008225Y008967D01*
X008133Y009717D02*
X009013Y009717D01*
X009052Y009717D01*
X009052Y008967D01*
X009052Y007699D02*
X009052Y006949D01*
X009013Y006949D01*
X008133Y006949D01*
X008225Y007699D02*
X007258Y007699D01*
X007393Y006949D02*
X006513Y006949D01*
X006518Y006949D01*
X006518Y007699D01*
X006513Y006949D02*
X006643Y006949D01*
X006518Y001449D02*
X006513Y001449D01*
X007393Y001449D01*
X008133Y001449D02*
X009013Y001449D01*
X009052Y001449D01*
X009052Y000699D01*
X008225Y000699D02*
X007258Y000699D01*
X006643Y000699D02*
X006518Y000699D01*
X006518Y001449D01*
X013600Y001449D02*
X013605Y001449D01*
X013605Y000699D01*
X013730Y000699D01*
X014345Y000699D02*
X015311Y000699D01*
X015220Y001449D02*
X016100Y001449D01*
X016138Y001449D01*
X016138Y000699D01*
X014480Y001449D02*
X013600Y001449D01*
X013600Y006949D02*
X013605Y006949D01*
X013605Y007699D01*
X013600Y006949D02*
X013730Y006949D01*
X013600Y006949D02*
X014480Y006949D01*
X014345Y007699D02*
X015311Y007699D01*
X015220Y006949D02*
X016100Y006949D01*
X016138Y006949D01*
X016138Y007699D01*
X016138Y008967D02*
X016138Y009717D01*
X016100Y009717D01*
X015220Y009717D01*
X014480Y009717D02*
X013600Y009717D01*
X013605Y009717D01*
X013605Y008967D01*
X013730Y008967D01*
X014345Y008967D02*
X015311Y008967D01*
X015220Y015217D02*
X016100Y015217D01*
X016138Y015217D01*
X016138Y015967D01*
X015311Y015967D02*
X014345Y015967D01*
X013605Y015967D02*
X013605Y015217D01*
X013600Y015217D01*
X013730Y015217D01*
X013600Y015217D02*
X014480Y015217D01*
M02*
