G75*
G70*
%OFA0B0*%
%FSLAX24Y24*%
%IPPOS*%
%LPD*%
%AMOC8*
5,1,8,0,0,1.08239X$1,22.5*
%
%ADD10C,0.0000*%
%ADD11C,0.0120*%
%ADD12C,0.0060*%
%ADD13R,0.1000X0.1000*%
%ADD14C,0.0040*%
%ADD15C,0.0080*%
%ADD16C,0.0256*%
%ADD17C,0.0050*%
D10*
X000141Y000101D02*
X000141Y019687D01*
X018350Y019687D01*
X018350Y000101D01*
X000141Y000101D01*
D11*
X002927Y016986D02*
X003227Y016986D01*
X003377Y017136D01*
X003227Y017686D02*
X002877Y017686D01*
X003227Y017686D02*
X003427Y017886D01*
X003127Y018886D02*
X002877Y018886D01*
X003127Y018886D02*
X003377Y019136D01*
X005160Y019136D02*
X005260Y019236D01*
X005560Y019236D01*
X005610Y018486D02*
X005210Y018486D01*
X005110Y018386D01*
X005360Y017336D02*
X005160Y017136D01*
X005360Y017336D02*
X005610Y017336D01*
X007010Y017686D02*
X007360Y017686D01*
X007560Y017886D01*
X007510Y017136D02*
X007360Y016986D01*
X007060Y016986D01*
X007010Y018886D02*
X007260Y018886D01*
X007510Y019136D01*
X009294Y019136D02*
X009394Y019236D01*
X009694Y019236D01*
X009744Y018486D02*
X009344Y018486D01*
X009244Y018386D01*
X009494Y017336D02*
X009294Y017136D01*
X009494Y017336D02*
X009744Y017336D01*
X011144Y017686D02*
X011494Y017686D01*
X011694Y017886D01*
X011644Y017136D02*
X011494Y016986D01*
X011194Y016986D01*
X011144Y018886D02*
X011394Y018886D01*
X011644Y019136D01*
X013428Y019136D02*
X013528Y019236D01*
X013828Y019236D01*
X013878Y018486D02*
X013478Y018486D01*
X013378Y018386D01*
X013628Y017336D02*
X013428Y017136D01*
X013628Y017336D02*
X013878Y017336D01*
X015278Y017686D02*
X015628Y017686D01*
X015828Y017886D01*
X015778Y017136D02*
X015628Y016986D01*
X015328Y016986D01*
X015278Y018886D02*
X015528Y018886D01*
X015778Y019136D01*
X001477Y018486D02*
X001077Y018486D01*
X000977Y018386D01*
X001027Y019136D02*
X001127Y019236D01*
X001427Y019236D01*
X001477Y017336D02*
X001227Y017336D01*
X001027Y017136D01*
D12*
X001577Y017086D02*
X001577Y016886D01*
X002277Y016886D01*
X002777Y017186D02*
X002777Y017486D01*
X002277Y017786D02*
X001577Y017786D01*
X001577Y017586D01*
X002077Y018436D02*
X002777Y018436D01*
X002777Y018636D01*
X002777Y019136D02*
X002777Y019336D01*
X002077Y019336D01*
X001627Y019036D02*
X001627Y018736D01*
X001830Y014593D02*
X001830Y014152D01*
X001537Y014152D01*
X001997Y014152D02*
X002144Y014299D01*
X002071Y014299D02*
X002291Y014299D01*
X002291Y014152D02*
X002291Y014593D01*
X002071Y014593D01*
X001997Y014519D01*
X001997Y014373D01*
X002071Y014299D01*
X002458Y014299D02*
X002458Y014226D01*
X002531Y014152D01*
X002678Y014152D01*
X002751Y014226D01*
X002678Y014373D02*
X002531Y014373D01*
X002458Y014299D01*
X002458Y014519D02*
X002531Y014593D01*
X002678Y014593D01*
X002751Y014519D01*
X002751Y014446D01*
X002678Y014373D01*
X005710Y016886D02*
X005710Y017086D01*
X005710Y016886D02*
X006410Y016886D01*
X006910Y017186D02*
X006910Y017486D01*
X006410Y017786D02*
X005710Y017786D01*
X005710Y017586D01*
X006210Y018436D02*
X006910Y018436D01*
X006910Y018636D01*
X006910Y019136D02*
X006910Y019336D01*
X006210Y019336D01*
X005760Y019036D02*
X005760Y018736D01*
X009894Y018736D02*
X009894Y019036D01*
X010344Y019336D02*
X011044Y019336D01*
X011044Y019136D01*
X011044Y018636D02*
X011044Y018436D01*
X010344Y018436D01*
X010544Y017786D02*
X009844Y017786D01*
X009844Y017586D01*
X009844Y017086D02*
X009844Y016886D01*
X010544Y016886D01*
X011044Y017186D02*
X011044Y017486D01*
X013978Y017586D02*
X013978Y017786D01*
X014678Y017786D01*
X015178Y017486D02*
X015178Y017186D01*
X014678Y016886D02*
X013978Y016886D01*
X013978Y017086D01*
X014478Y018436D02*
X015178Y018436D01*
X015178Y018636D01*
X015178Y019136D02*
X015178Y019336D01*
X014478Y019336D01*
X014028Y019036D02*
X014028Y018736D01*
X014089Y013457D02*
X015611Y013457D01*
X015150Y013107D02*
X015152Y013133D01*
X015158Y013159D01*
X015167Y013183D01*
X015180Y013206D01*
X015196Y013227D01*
X015215Y013245D01*
X015236Y013261D01*
X015260Y013273D01*
X015284Y013281D01*
X015310Y013286D01*
X015337Y013287D01*
X015363Y013284D01*
X015388Y013277D01*
X015412Y013267D01*
X015435Y013253D01*
X015455Y013237D01*
X015472Y013217D01*
X015487Y013195D01*
X015498Y013171D01*
X015506Y013146D01*
X015510Y013120D01*
X015510Y013094D01*
X015506Y013068D01*
X015498Y013043D01*
X015487Y013019D01*
X015472Y012997D01*
X015455Y012977D01*
X015435Y012961D01*
X015412Y012947D01*
X015388Y012937D01*
X015363Y012930D01*
X015337Y012927D01*
X015310Y012928D01*
X015284Y012933D01*
X015260Y012941D01*
X015236Y012953D01*
X015215Y012969D01*
X015196Y012987D01*
X015180Y013008D01*
X015167Y013031D01*
X015158Y013055D01*
X015152Y013081D01*
X015150Y013107D01*
X015611Y011477D02*
X014089Y011477D01*
X008524Y011477D02*
X007002Y011477D01*
X008063Y013107D02*
X008065Y013133D01*
X008071Y013159D01*
X008080Y013183D01*
X008093Y013206D01*
X008109Y013227D01*
X008128Y013245D01*
X008149Y013261D01*
X008173Y013273D01*
X008197Y013281D01*
X008223Y013286D01*
X008250Y013287D01*
X008276Y013284D01*
X008301Y013277D01*
X008325Y013267D01*
X008348Y013253D01*
X008368Y013237D01*
X008385Y013217D01*
X008400Y013195D01*
X008411Y013171D01*
X008419Y013146D01*
X008423Y013120D01*
X008423Y013094D01*
X008419Y013068D01*
X008411Y013043D01*
X008400Y013019D01*
X008385Y012997D01*
X008368Y012977D01*
X008348Y012961D01*
X008325Y012947D01*
X008301Y012937D01*
X008276Y012930D01*
X008250Y012927D01*
X008223Y012928D01*
X008197Y012933D01*
X008173Y012941D01*
X008149Y012953D01*
X008128Y012969D01*
X008109Y012987D01*
X008093Y013008D01*
X008080Y013031D01*
X008071Y013055D01*
X008065Y013081D01*
X008063Y013107D01*
X008524Y013457D02*
X007002Y013457D01*
X002751Y010385D02*
X002751Y010312D01*
X002678Y010239D01*
X002531Y010239D01*
X002458Y010165D01*
X002458Y010092D01*
X002531Y010019D01*
X002678Y010019D01*
X002751Y010092D01*
X002751Y010385D02*
X002678Y010459D01*
X002531Y010459D01*
X002458Y010385D01*
X002291Y010459D02*
X002071Y010459D01*
X001997Y010385D01*
X001997Y010239D01*
X002071Y010165D01*
X002291Y010165D01*
X002291Y010019D02*
X002291Y010459D01*
X002144Y010165D02*
X001997Y010019D01*
X001830Y010019D02*
X001537Y010019D01*
X001830Y010019D02*
X001830Y010459D01*
X001830Y006325D02*
X001830Y005885D01*
X001537Y005885D01*
X001997Y005885D02*
X002144Y006031D01*
X002071Y006031D02*
X002291Y006031D01*
X002291Y005885D02*
X002291Y006325D01*
X002071Y006325D01*
X001997Y006252D01*
X001997Y006105D01*
X002071Y006031D01*
X002458Y006031D02*
X002458Y005958D01*
X002531Y005885D01*
X002678Y005885D01*
X002751Y005958D01*
X002678Y006105D02*
X002531Y006105D01*
X002458Y006031D01*
X002458Y006252D02*
X002531Y006325D01*
X002678Y006325D01*
X002751Y006252D01*
X002751Y006178D01*
X002678Y006105D01*
X002678Y002191D02*
X002531Y002191D01*
X002458Y002118D01*
X002531Y001971D02*
X002458Y001898D01*
X002458Y001824D01*
X002531Y001751D01*
X002678Y001751D01*
X002751Y001824D01*
X002678Y001971D02*
X002531Y001971D01*
X002678Y001971D02*
X002751Y002044D01*
X002751Y002118D01*
X002678Y002191D01*
X002291Y002191D02*
X002071Y002191D01*
X001997Y002118D01*
X001997Y001971D01*
X002071Y001898D01*
X002291Y001898D01*
X002144Y001898D02*
X001997Y001751D01*
X001830Y001751D02*
X001537Y001751D01*
X001830Y001751D02*
X001830Y002191D01*
X002291Y002191D02*
X002291Y001751D01*
X007002Y003209D02*
X008524Y003209D01*
X008063Y004839D02*
X008065Y004865D01*
X008071Y004891D01*
X008080Y004915D01*
X008093Y004938D01*
X008109Y004959D01*
X008128Y004977D01*
X008149Y004993D01*
X008173Y005005D01*
X008197Y005013D01*
X008223Y005018D01*
X008250Y005019D01*
X008276Y005016D01*
X008301Y005009D01*
X008325Y004999D01*
X008348Y004985D01*
X008368Y004969D01*
X008385Y004949D01*
X008400Y004927D01*
X008411Y004903D01*
X008419Y004878D01*
X008423Y004852D01*
X008423Y004826D01*
X008419Y004800D01*
X008411Y004775D01*
X008400Y004751D01*
X008385Y004729D01*
X008368Y004709D01*
X008348Y004693D01*
X008325Y004679D01*
X008301Y004669D01*
X008276Y004662D01*
X008250Y004659D01*
X008223Y004660D01*
X008197Y004665D01*
X008173Y004673D01*
X008149Y004685D01*
X008128Y004701D01*
X008109Y004719D01*
X008093Y004740D01*
X008080Y004763D01*
X008071Y004787D01*
X008065Y004813D01*
X008063Y004839D01*
X008524Y005189D02*
X007002Y005189D01*
X014089Y005189D02*
X015611Y005189D01*
X015150Y004839D02*
X015152Y004865D01*
X015158Y004891D01*
X015167Y004915D01*
X015180Y004938D01*
X015196Y004959D01*
X015215Y004977D01*
X015236Y004993D01*
X015260Y005005D01*
X015284Y005013D01*
X015310Y005018D01*
X015337Y005019D01*
X015363Y005016D01*
X015388Y005009D01*
X015412Y004999D01*
X015435Y004985D01*
X015455Y004969D01*
X015472Y004949D01*
X015487Y004927D01*
X015498Y004903D01*
X015506Y004878D01*
X015510Y004852D01*
X015510Y004826D01*
X015506Y004800D01*
X015498Y004775D01*
X015487Y004751D01*
X015472Y004729D01*
X015455Y004709D01*
X015435Y004693D01*
X015412Y004679D01*
X015388Y004669D01*
X015363Y004662D01*
X015337Y004659D01*
X015310Y004660D01*
X015284Y004665D01*
X015260Y004673D01*
X015236Y004685D01*
X015215Y004701D01*
X015196Y004719D01*
X015180Y004740D01*
X015167Y004763D01*
X015158Y004787D01*
X015152Y004813D01*
X015150Y004839D01*
X015611Y003209D02*
X014089Y003209D01*
D13*
X010763Y007699D03*
X017850Y007699D03*
X017850Y015967D03*
X010763Y015967D03*
X003641Y013002D03*
X003641Y008869D03*
X003641Y004735D03*
X003641Y000601D03*
D14*
X005470Y000980D02*
X005538Y000911D01*
X005743Y000911D01*
X005743Y001048D02*
X005538Y001048D01*
X005470Y000980D01*
X005538Y001048D02*
X005470Y001116D01*
X005470Y001185D01*
X005743Y001185D01*
X005675Y001326D02*
X005538Y001326D01*
X005470Y001394D01*
X005470Y001531D01*
X005538Y001599D01*
X005675Y001599D01*
X005743Y001531D01*
X005743Y001394D01*
X005675Y001326D01*
X005743Y001740D02*
X005743Y001945D01*
X005675Y002014D01*
X005538Y002014D01*
X005470Y001945D01*
X005470Y001740D01*
X005675Y002152D02*
X005743Y002152D01*
X005743Y002221D01*
X005675Y002221D01*
X005675Y002152D01*
X005675Y002361D02*
X005606Y002430D01*
X005606Y002567D01*
X005538Y002635D01*
X005470Y002567D01*
X005470Y002361D01*
X005675Y002361D02*
X005743Y002430D01*
X005743Y002635D01*
X005675Y002776D02*
X005538Y002776D01*
X005470Y002844D01*
X005470Y003049D01*
X005333Y003049D02*
X005743Y003049D01*
X005743Y002844D01*
X005675Y002776D01*
X005743Y003190D02*
X005538Y003190D01*
X005470Y003259D01*
X005470Y003395D01*
X005606Y003395D02*
X005606Y003190D01*
X005743Y003190D02*
X005743Y003395D01*
X005675Y003464D01*
X005606Y003395D01*
X005743Y003604D02*
X005743Y003878D01*
X005333Y003878D01*
X005538Y004019D02*
X005743Y004019D01*
X005743Y004156D02*
X005538Y004156D01*
X005470Y004087D01*
X005538Y004019D01*
X005538Y004156D02*
X005470Y004224D01*
X005470Y004292D01*
X005743Y004292D01*
X005675Y004433D02*
X005538Y004433D01*
X005470Y004502D01*
X005470Y004638D01*
X005538Y004707D01*
X005675Y004707D01*
X005743Y004638D01*
X005743Y004502D01*
X005675Y004433D01*
X005675Y004847D02*
X005538Y004847D01*
X005470Y004916D01*
X005470Y005053D01*
X005538Y005121D01*
X005675Y005121D01*
X005743Y005053D01*
X005743Y004916D01*
X005675Y004847D01*
X005743Y005262D02*
X005606Y005399D01*
X005606Y005330D02*
X005606Y005535D01*
X005743Y005535D02*
X005333Y005535D01*
X005333Y005330D01*
X005401Y005262D01*
X005538Y005262D01*
X005606Y005330D01*
X005743Y005675D02*
X005743Y005812D01*
X005743Y005743D02*
X005333Y005743D01*
X005333Y005812D01*
X005333Y006019D02*
X005743Y006019D01*
X005743Y005951D02*
X005743Y006088D01*
X005743Y006229D02*
X005743Y006434D01*
X005675Y006502D01*
X005606Y006434D01*
X005606Y006229D01*
X005538Y006229D02*
X005743Y006229D01*
X005538Y006229D02*
X005470Y006297D01*
X005470Y006434D01*
X005538Y006643D02*
X005743Y006643D01*
X005743Y006780D02*
X005538Y006780D01*
X005470Y006711D01*
X005538Y006643D01*
X005538Y006780D02*
X005470Y006848D01*
X005470Y006916D01*
X005743Y006916D01*
X005675Y007057D02*
X005743Y007126D01*
X005743Y007262D01*
X005675Y007331D01*
X005538Y007262D02*
X005538Y007126D01*
X005606Y007057D01*
X005675Y007057D01*
X005538Y007262D02*
X005470Y007331D01*
X005401Y007331D01*
X005333Y007262D01*
X005333Y007126D01*
X005401Y007057D01*
X005333Y006088D02*
X005333Y006019D01*
X005636Y009081D02*
X005842Y009081D01*
X005842Y009217D02*
X005636Y009217D01*
X005568Y009149D01*
X005636Y009081D01*
X005636Y009217D02*
X005568Y009286D01*
X005568Y009354D01*
X005842Y009354D01*
X005773Y009495D02*
X005636Y009495D01*
X005568Y009563D01*
X005568Y009700D01*
X005636Y009769D01*
X005773Y009769D01*
X005842Y009700D01*
X005842Y009563D01*
X005773Y009495D01*
X005842Y009909D02*
X005842Y010114D01*
X005773Y010183D01*
X005636Y010183D01*
X005568Y010114D01*
X005568Y009909D01*
X005773Y010322D02*
X005842Y010322D01*
X005842Y010390D01*
X005773Y010390D01*
X005773Y010322D01*
X005773Y010531D02*
X005705Y010599D01*
X005705Y010736D01*
X005636Y010804D01*
X005568Y010736D01*
X005568Y010531D01*
X005773Y010531D02*
X005842Y010599D01*
X005842Y010804D01*
X005773Y010945D02*
X005636Y010945D01*
X005568Y011014D01*
X005568Y011219D01*
X005431Y011219D02*
X005842Y011219D01*
X005842Y011014D01*
X005773Y010945D01*
X005705Y011359D02*
X005705Y011565D01*
X005773Y011633D01*
X005842Y011565D01*
X005842Y011359D01*
X005636Y011359D01*
X005568Y011428D01*
X005568Y011565D01*
X005842Y011774D02*
X005842Y012047D01*
X005431Y012047D01*
X005636Y012188D02*
X005842Y012188D01*
X005842Y012325D02*
X005636Y012325D01*
X005568Y012256D01*
X005636Y012188D01*
X005636Y012325D02*
X005568Y012393D01*
X005568Y012462D01*
X005842Y012462D01*
X005773Y012602D02*
X005636Y012602D01*
X005568Y012671D01*
X005568Y012808D01*
X005636Y012876D01*
X005773Y012876D01*
X005842Y012808D01*
X005842Y012671D01*
X005773Y012602D01*
X005773Y013017D02*
X005636Y013017D01*
X005568Y013085D01*
X005568Y013222D01*
X005636Y013290D01*
X005773Y013290D01*
X005842Y013222D01*
X005842Y013085D01*
X005773Y013017D01*
X005842Y013431D02*
X005705Y013568D01*
X005705Y013499D02*
X005705Y013705D01*
X005842Y013705D02*
X005431Y013705D01*
X005431Y013499D01*
X005500Y013431D01*
X005636Y013431D01*
X005705Y013499D01*
X005842Y013844D02*
X005842Y013981D01*
X005842Y013912D02*
X005431Y013912D01*
X005431Y013981D01*
X005431Y014189D02*
X005842Y014189D01*
X005842Y014257D02*
X005842Y014120D01*
X005842Y014398D02*
X005636Y014398D01*
X005568Y014466D01*
X005568Y014603D01*
X005705Y014603D02*
X005705Y014398D01*
X005842Y014398D02*
X005842Y014603D01*
X005773Y014671D01*
X005705Y014603D01*
X005636Y014812D02*
X005842Y014812D01*
X005842Y014949D02*
X005636Y014949D01*
X005568Y014881D01*
X005636Y014812D01*
X005636Y014949D02*
X005568Y015017D01*
X005568Y015086D01*
X005842Y015086D01*
X005773Y015227D02*
X005842Y015295D01*
X005842Y015432D01*
X005773Y015500D01*
X005636Y015432D02*
X005636Y015295D01*
X005705Y015227D01*
X005773Y015227D01*
X005636Y015432D02*
X005568Y015500D01*
X005500Y015500D01*
X005431Y015432D01*
X005431Y015295D01*
X005500Y015227D01*
X005431Y014257D02*
X005431Y014189D01*
X012518Y014189D02*
X012928Y014189D01*
X012928Y014257D02*
X012928Y014120D01*
X012928Y013981D02*
X012928Y013844D01*
X012928Y013912D02*
X012518Y013912D01*
X012518Y013981D01*
X012518Y014189D02*
X012518Y014257D01*
X012723Y014398D02*
X012655Y014466D01*
X012655Y014603D01*
X012791Y014603D02*
X012791Y014398D01*
X012723Y014398D02*
X012928Y014398D01*
X012928Y014603D01*
X012860Y014671D01*
X012791Y014603D01*
X012723Y014812D02*
X012928Y014812D01*
X012928Y014949D02*
X012723Y014949D01*
X012655Y014881D01*
X012723Y014812D01*
X012723Y014949D02*
X012655Y015017D01*
X012655Y015086D01*
X012928Y015086D01*
X012860Y015227D02*
X012928Y015295D01*
X012928Y015432D01*
X012860Y015500D01*
X012723Y015432D02*
X012723Y015295D01*
X012791Y015227D01*
X012860Y015227D01*
X012723Y015432D02*
X012655Y015500D01*
X012586Y015500D01*
X012518Y015432D01*
X012518Y015295D01*
X012586Y015227D01*
X012518Y013705D02*
X012518Y013499D01*
X012586Y013431D01*
X012723Y013431D01*
X012791Y013499D01*
X012791Y013705D01*
X012791Y013568D02*
X012928Y013431D01*
X012860Y013290D02*
X012928Y013222D01*
X012928Y013085D01*
X012860Y013017D01*
X012723Y013017D01*
X012655Y013085D01*
X012655Y013222D01*
X012723Y013290D01*
X012860Y013290D01*
X012860Y012876D02*
X012723Y012876D01*
X012655Y012808D01*
X012655Y012671D01*
X012723Y012602D01*
X012860Y012602D01*
X012928Y012671D01*
X012928Y012808D01*
X012860Y012876D01*
X012928Y012462D02*
X012655Y012462D01*
X012655Y012393D01*
X012723Y012325D01*
X012655Y012256D01*
X012723Y012188D01*
X012928Y012188D01*
X012928Y012325D02*
X012723Y012325D01*
X012518Y012047D02*
X012928Y012047D01*
X012928Y011774D01*
X012860Y011633D02*
X012791Y011565D01*
X012791Y011359D01*
X012723Y011359D02*
X012928Y011359D01*
X012928Y011565D01*
X012860Y011633D01*
X012655Y011565D02*
X012655Y011428D01*
X012723Y011359D01*
X012655Y011219D02*
X012655Y011014D01*
X012723Y010945D01*
X012860Y010945D01*
X012928Y011014D01*
X012928Y011219D01*
X012518Y011219D01*
X012723Y010804D02*
X012655Y010736D01*
X012655Y010531D01*
X012791Y010599D02*
X012791Y010736D01*
X012723Y010804D01*
X012791Y010599D02*
X012860Y010531D01*
X012928Y010599D01*
X012928Y010804D01*
X012928Y010390D02*
X012860Y010390D01*
X012860Y010322D01*
X012928Y010322D01*
X012928Y010390D01*
X012860Y010183D02*
X012928Y010114D01*
X012928Y009909D01*
X012860Y009769D02*
X012928Y009700D01*
X012928Y009563D01*
X012860Y009495D01*
X012723Y009495D01*
X012655Y009563D01*
X012655Y009700D01*
X012723Y009769D01*
X012860Y009769D01*
X012655Y009909D02*
X012655Y010114D01*
X012723Y010183D01*
X012860Y010183D01*
X012928Y009354D02*
X012655Y009354D01*
X012655Y009286D01*
X012723Y009217D01*
X012655Y009149D01*
X012723Y009081D01*
X012928Y009081D01*
X012928Y009217D02*
X012723Y009217D01*
X012625Y007328D02*
X012420Y007328D01*
X012420Y007191D02*
X012625Y007191D01*
X012693Y007260D01*
X012625Y007328D01*
X012625Y007191D02*
X012693Y007123D01*
X012693Y007055D01*
X012420Y007055D01*
X012488Y006914D02*
X012625Y006914D01*
X012693Y006845D01*
X012693Y006709D01*
X012625Y006640D01*
X012488Y006640D01*
X012420Y006709D01*
X012420Y006845D01*
X012488Y006914D01*
X012420Y006499D02*
X012420Y006294D01*
X012488Y006226D01*
X012625Y006226D01*
X012693Y006294D01*
X012693Y006499D01*
X012488Y006087D02*
X012420Y006087D01*
X012420Y006019D01*
X012488Y006019D01*
X012488Y006087D01*
X012488Y005878D02*
X012557Y005810D01*
X012557Y005673D01*
X012625Y005604D01*
X012693Y005673D01*
X012693Y005878D01*
X012488Y005878D02*
X012420Y005810D01*
X012420Y005604D01*
X012488Y005464D02*
X012625Y005464D01*
X012693Y005395D01*
X012693Y005190D01*
X012830Y005190D02*
X012420Y005190D01*
X012420Y005395D01*
X012488Y005464D01*
X012420Y005049D02*
X012420Y004844D01*
X012488Y004776D01*
X012557Y004844D01*
X012557Y005049D01*
X012625Y005049D02*
X012420Y005049D01*
X012625Y005049D02*
X012693Y004981D01*
X012693Y004844D01*
X012420Y004635D02*
X012420Y004361D01*
X012830Y004361D01*
X012625Y004221D02*
X012420Y004221D01*
X012420Y004084D02*
X012625Y004084D01*
X012693Y004152D01*
X012625Y004221D01*
X012625Y004084D02*
X012693Y004015D01*
X012693Y003947D01*
X012420Y003947D01*
X012488Y003806D02*
X012625Y003806D01*
X012693Y003738D01*
X012693Y003601D01*
X012625Y003533D01*
X012488Y003533D01*
X012420Y003601D01*
X012420Y003738D01*
X012488Y003806D01*
X012488Y003392D02*
X012625Y003392D01*
X012693Y003324D01*
X012693Y003187D01*
X012625Y003118D01*
X012488Y003118D01*
X012420Y003187D01*
X012420Y003324D01*
X012488Y003392D01*
X012420Y002978D02*
X012557Y002841D01*
X012557Y002909D02*
X012557Y002704D01*
X012420Y002704D02*
X012830Y002704D01*
X012830Y002909D01*
X012762Y002978D01*
X012625Y002978D01*
X012557Y002909D01*
X012420Y002565D02*
X012420Y002428D01*
X012420Y002496D02*
X012830Y002496D01*
X012830Y002428D01*
X012830Y002220D02*
X012420Y002220D01*
X012420Y002152D02*
X012420Y002288D01*
X012420Y002011D02*
X012420Y001806D01*
X012488Y001737D01*
X012557Y001806D01*
X012557Y002011D01*
X012625Y002011D02*
X012420Y002011D01*
X012625Y002011D02*
X012693Y001942D01*
X012693Y001806D01*
X012625Y001596D02*
X012420Y001596D01*
X012420Y001460D02*
X012625Y001460D01*
X012693Y001528D01*
X012625Y001596D01*
X012625Y001460D02*
X012693Y001391D01*
X012693Y001323D01*
X012420Y001323D01*
X012488Y001182D02*
X012420Y001114D01*
X012420Y000977D01*
X012488Y000909D01*
X012625Y000977D02*
X012625Y001114D01*
X012557Y001182D01*
X012488Y001182D01*
X012625Y000977D02*
X012693Y000909D01*
X012762Y000909D01*
X012830Y000977D01*
X012830Y001114D01*
X012762Y001182D01*
X012830Y002152D02*
X012830Y002220D01*
X012928Y013705D02*
X012518Y013705D01*
D15*
X002988Y013971D02*
X002988Y015074D01*
X001295Y015074D01*
X001295Y013971D01*
X002988Y013971D01*
X002988Y010940D02*
X001295Y010940D01*
X001295Y009837D01*
X002988Y009837D01*
X002988Y010940D01*
X002988Y006806D02*
X001295Y006806D01*
X001295Y005703D01*
X002988Y005703D01*
X002988Y006806D01*
X002988Y002672D02*
X001295Y002672D01*
X001295Y001570D01*
X002988Y001570D01*
X002988Y002672D01*
D16*
X002781Y002377D03*
X002781Y006511D03*
X002781Y010644D03*
X002781Y014778D03*
D17*
X008434Y015809D02*
X008434Y016124D01*
X008592Y015967D01*
X008434Y015809D01*
X008592Y015809D02*
X008592Y015967D01*
X008592Y016124D01*
X008559Y009124D02*
X008717Y008967D01*
X008559Y008809D01*
X008559Y009124D01*
X008717Y009124D02*
X008717Y008967D01*
X008717Y008809D01*
X008592Y007857D02*
X008592Y007699D01*
X008434Y007857D01*
X008434Y007542D01*
X008592Y007699D01*
X008592Y007542D01*
X008559Y000857D02*
X008717Y000699D01*
X008559Y000542D01*
X008559Y000857D01*
X008717Y000857D02*
X008717Y000699D01*
X008717Y000542D01*
X015646Y000542D02*
X015646Y000857D01*
X015804Y000699D01*
X015646Y000542D01*
X015804Y000542D02*
X015804Y000699D01*
X015804Y000857D01*
X015679Y007542D02*
X015679Y007699D01*
X015521Y007857D01*
X015521Y007542D01*
X015679Y007699D01*
X015679Y007857D01*
X015646Y008809D02*
X015646Y009124D01*
X015804Y008967D01*
X015646Y008809D01*
X015804Y008809D02*
X015804Y008967D01*
X015804Y009124D01*
X015679Y015809D02*
X015679Y015967D01*
X015521Y016124D01*
X015521Y015809D01*
X015679Y015967D01*
X015679Y016124D01*
M02*
