%
M48
M72
T01C0.0315
T02C0.0394
%
T01
X6513Y1449
X9013Y1449
X13600Y1449
X16100Y1449
X16100Y6949
X13600Y6949
X13600Y9717
X16100Y9717
X16100Y15217
X13600Y15217
X9013Y15217
X6513Y15217
X6513Y9717
X9013Y9717
X9013Y6949
X6513Y6949
T02
X641Y601
X1641Y601
X2641Y601
X3641Y601
X4763Y699
X4763Y1699
X4763Y2699
X4763Y3699
X4763Y4699
X4763Y5699
X4763Y6699
X4763Y7699
X3641Y7735
X2641Y7735
X2641Y8869
X3641Y8869
X4763Y8967
X4763Y9967
X4763Y10967
X4763Y11967
X4763Y12967
X4763Y13967
X4763Y14967
X4763Y15967
X3641Y16002
X2641Y16002
X1641Y16002
X641Y16002
X677Y17136
X677Y18136
X677Y19136
X3677Y19136
X3677Y18136
X3677Y17136
X4810Y17136
X4810Y18136
X4810Y19136
X7810Y19136
X7810Y18136
X7810Y17136
X8944Y17136
X8944Y18136
X8944Y19136
X11944Y19136
X11944Y18136
X11944Y17136
X13078Y17136
X13078Y18136
X13078Y19136
X11850Y15967
X11850Y14967
X11850Y13967
X11850Y12967
X11850Y11967
X11850Y10967
X11850Y9967
X11850Y8967
X10763Y8967
X10763Y9967
X10763Y10967
X10763Y11967
X10763Y12967
X10763Y13967
X10763Y14967
X10763Y15967
X16078Y17136
X16078Y18136
X16078Y19136
X17850Y15967
X17850Y14967
X17850Y13967
X17850Y12967
X17850Y11967
X17850Y10967
X17850Y9967
X17850Y8967
X17850Y7699
X17850Y6699
X17850Y5699
X17850Y4699
X17850Y3699
X17850Y2699
X17850Y1699
X17850Y699
X11850Y699
X11850Y1699
X11850Y2699
X11850Y3699
X11850Y4699
X11850Y5699
X11850Y6699
X11850Y7699
X10763Y7699
X10763Y6699
X10763Y5699
X10763Y4699
X10763Y3699
X10763Y2699
X10763Y1699
X10763Y699
X3641Y3601
X2641Y3601
X2641Y4735
X3641Y4735
X1641Y4735
X641Y4735
X641Y3601
X1641Y3601
X1641Y7735
X641Y7735
X641Y8869
X1641Y8869
X1641Y11869
X641Y11869
X641Y13002
X1641Y13002
X2641Y13002
X3641Y13002
X3641Y11869
X2641Y11869
M30
