G75*
G70*
%OFA0B0*%
%FSLAX24Y24*%
%IPPOS*%
%LPD*%
%AMOC8*
5,1,8,0,0,1.08239X$1,22.5*
%
%ADD10C,0.0000*%
%ADD11C,0.0660*%
%ADD12R,0.0551X0.0394*%
%ADD13R,0.0472X0.0138*%
%ADD14R,0.0701X0.0165*%
%ADD15R,0.0591X0.0394*%
%ADD16R,0.0472X0.0472*%
%ADD17C,0.0120*%
%ADD18C,0.0070*%
%ADD19C,0.0100*%
%ADD20C,0.0080*%
D10*
X000141Y000101D02*
X000141Y019687D01*
X018350Y019687D01*
X018350Y000101D01*
X000141Y000101D01*
D11*
X000641Y000601D03*
X001641Y000601D03*
X002641Y000601D03*
X003641Y000601D03*
X004763Y000699D03*
X004763Y001699D03*
X004763Y002699D03*
X004763Y003699D03*
X004763Y004699D03*
X004763Y005699D03*
X004763Y006699D03*
X004763Y007699D03*
X003641Y007735D03*
X002641Y007735D03*
X002641Y008869D03*
X003641Y008869D03*
X004763Y008967D03*
X004763Y009967D03*
X004763Y010967D03*
X004763Y011967D03*
X004763Y012967D03*
X004763Y013967D03*
X004763Y014967D03*
X004763Y015967D03*
X003641Y016002D03*
X002641Y016002D03*
X001641Y016002D03*
X000641Y016002D03*
X000677Y017136D03*
X000677Y018136D03*
X000677Y019136D03*
X003677Y019136D03*
X003677Y018136D03*
X003677Y017136D03*
X004810Y017136D03*
X004810Y018136D03*
X004810Y019136D03*
X007810Y019136D03*
X007810Y018136D03*
X007810Y017136D03*
X008944Y017136D03*
X008944Y018136D03*
X008944Y019136D03*
X011944Y019136D03*
X011944Y018136D03*
X011944Y017136D03*
X013078Y017136D03*
X013078Y018136D03*
X013078Y019136D03*
X011850Y015967D03*
X011850Y014967D03*
X011850Y013967D03*
X011850Y012967D03*
X011850Y011967D03*
X011850Y010967D03*
X011850Y009967D03*
X011850Y008967D03*
X010763Y008967D03*
X010763Y009967D03*
X010763Y010967D03*
X010763Y011967D03*
X010763Y012967D03*
X010763Y013967D03*
X010763Y014967D03*
X010763Y015967D03*
X016078Y017136D03*
X016078Y018136D03*
X016078Y019136D03*
X017850Y015967D03*
X017850Y014967D03*
X017850Y013967D03*
X017850Y012967D03*
X017850Y011967D03*
X017850Y010967D03*
X017850Y009967D03*
X017850Y008967D03*
X017850Y007699D03*
X017850Y006699D03*
X017850Y005699D03*
X017850Y004699D03*
X017850Y003699D03*
X017850Y002699D03*
X017850Y001699D03*
X017850Y000699D03*
X011850Y000699D03*
X011850Y001699D03*
X011850Y002699D03*
X011850Y003699D03*
X011850Y004699D03*
X011850Y005699D03*
X011850Y006699D03*
X011850Y007699D03*
X010763Y007699D03*
X010763Y006699D03*
X010763Y005699D03*
X010763Y004699D03*
X010763Y003699D03*
X010763Y002699D03*
X010763Y001699D03*
X010763Y000699D03*
X003641Y003601D03*
X002641Y003601D03*
X002641Y004735D03*
X003641Y004735D03*
X001641Y004735D03*
X000641Y004735D03*
X000641Y003601D03*
X001641Y003601D03*
X001641Y007735D03*
X000641Y007735D03*
X000641Y008869D03*
X001641Y008869D03*
X001641Y011869D03*
X000641Y011869D03*
X000641Y013002D03*
X001641Y013002D03*
X002641Y013002D03*
X003641Y013002D03*
X003641Y011869D03*
X002641Y011869D03*
D12*
X002610Y016962D03*
X002610Y017710D03*
X001743Y017336D03*
X001743Y018512D03*
X001743Y019260D03*
X002610Y018886D03*
X005877Y018512D03*
X005877Y019260D03*
X006743Y018886D03*
X006743Y017710D03*
X006743Y016962D03*
X005877Y017336D03*
X010011Y017336D03*
X010877Y016962D03*
X010877Y017710D03*
X010011Y018512D03*
X010011Y019260D03*
X010877Y018886D03*
X014145Y018512D03*
X014145Y019260D03*
X015011Y018886D03*
X015011Y017710D03*
X015011Y016962D03*
X014145Y017336D03*
D13*
X003293Y014906D03*
X003293Y014650D03*
X003293Y014394D03*
X003293Y014139D03*
X000990Y014139D03*
X000990Y014394D03*
X000990Y014650D03*
X000990Y014906D03*
X000990Y010772D03*
X000990Y010516D03*
X000990Y010261D03*
X000990Y010005D03*
X003293Y010005D03*
X003293Y010261D03*
X003293Y010516D03*
X003293Y010772D03*
X003293Y006639D03*
X003293Y006383D03*
X003293Y006127D03*
X003293Y005871D03*
X000990Y005871D03*
X000990Y006127D03*
X000990Y006383D03*
X000990Y006639D03*
X000990Y002505D03*
X000990Y002249D03*
X000990Y001993D03*
X000990Y001737D03*
X003293Y001737D03*
X003293Y001993D03*
X003293Y002249D03*
X003293Y002505D03*
D14*
X006594Y003304D03*
X006594Y003559D03*
X006594Y003815D03*
X006594Y004071D03*
X006594Y004327D03*
X006594Y004583D03*
X006594Y004839D03*
X006594Y005095D03*
X008932Y005095D03*
X008932Y004839D03*
X008932Y004583D03*
X008932Y004327D03*
X008932Y004071D03*
X008932Y003815D03*
X008932Y003559D03*
X008932Y003304D03*
X013680Y003304D03*
X013680Y003559D03*
X013680Y003815D03*
X013680Y004071D03*
X013680Y004327D03*
X013680Y004583D03*
X013680Y004839D03*
X013680Y005095D03*
X016019Y005095D03*
X016019Y004839D03*
X016019Y004583D03*
X016019Y004327D03*
X016019Y004071D03*
X016019Y003815D03*
X016019Y003559D03*
X016019Y003304D03*
X016019Y011571D03*
X016019Y011827D03*
X016019Y012083D03*
X016019Y012339D03*
X016019Y012595D03*
X016019Y012851D03*
X016019Y013107D03*
X016019Y013363D03*
X013680Y013363D03*
X013680Y013107D03*
X013680Y012851D03*
X013680Y012595D03*
X013680Y012339D03*
X013680Y012083D03*
X013680Y011827D03*
X013680Y011571D03*
X008932Y011571D03*
X008932Y011827D03*
X008932Y012083D03*
X008932Y012339D03*
X008932Y012595D03*
X008932Y012851D03*
X008932Y013107D03*
X008932Y013363D03*
X006594Y013363D03*
X006594Y013107D03*
X006594Y012851D03*
X006594Y012595D03*
X006594Y012339D03*
X006594Y012083D03*
X006594Y011827D03*
X006594Y011571D03*
D15*
X007393Y009717D03*
X008133Y009717D03*
X007383Y008967D03*
X006643Y008967D03*
X006643Y007699D03*
X007383Y007699D03*
X007393Y006949D03*
X008133Y006949D03*
X008133Y001449D03*
X007393Y001449D03*
X007383Y000699D03*
X006643Y000699D03*
X013730Y000699D03*
X014470Y000699D03*
X014480Y001449D03*
X015220Y001449D03*
X015220Y006949D03*
X014480Y006949D03*
X014470Y007699D03*
X013730Y007699D03*
X013730Y008967D03*
X014470Y008967D03*
X014480Y009717D03*
X015220Y009717D03*
X015220Y015217D03*
X014480Y015217D03*
X014470Y015967D03*
X013730Y015967D03*
X008133Y015217D03*
X007393Y015217D03*
X007383Y015967D03*
X006643Y015967D03*
D16*
X006513Y015217D03*
X008100Y015967D03*
X008927Y015967D03*
X009013Y015217D03*
X013600Y015217D03*
X015186Y015967D03*
X016013Y015967D03*
X016100Y015217D03*
X016100Y009717D03*
X016138Y008967D03*
X015311Y008967D03*
X015186Y007699D03*
X016013Y007699D03*
X016100Y006949D03*
X013600Y006949D03*
X013600Y009717D03*
X009052Y008967D03*
X009013Y009717D03*
X008225Y008967D03*
X008100Y007699D03*
X008927Y007699D03*
X009013Y006949D03*
X006513Y006949D03*
X006513Y009717D03*
X006513Y001449D03*
X008225Y000699D03*
X009013Y001449D03*
X009052Y000699D03*
X013600Y001449D03*
X015311Y000699D03*
X016138Y000699D03*
X016100Y001449D03*
D17*
X015908Y016966D02*
X015018Y016966D01*
X015011Y016962D01*
X015011Y017710D02*
X015018Y017716D01*
X015658Y017716D01*
X016078Y018136D01*
X015828Y018886D02*
X016078Y019136D01*
X015828Y018886D02*
X015018Y018886D01*
X015011Y018886D01*
X014145Y018512D02*
X014138Y018506D01*
X013448Y018506D01*
X013078Y018136D01*
X013278Y017336D02*
X013078Y017136D01*
X013278Y017336D02*
X014138Y017336D01*
X014145Y017336D01*
X013078Y019136D02*
X013198Y019256D01*
X014138Y019256D01*
X014145Y019260D01*
X016078Y017136D02*
X015908Y016966D01*
X011944Y017136D02*
X011774Y016966D01*
X010884Y016966D01*
X010877Y016962D01*
X010877Y017710D02*
X010884Y017716D01*
X011524Y017716D01*
X011944Y018136D01*
X011694Y018886D02*
X011944Y019136D01*
X011694Y018886D02*
X010884Y018886D01*
X010877Y018886D01*
X010011Y018512D02*
X010004Y018506D01*
X009314Y018506D01*
X008944Y018136D01*
X009144Y017336D02*
X008944Y017136D01*
X009144Y017336D02*
X010004Y017336D01*
X010011Y017336D01*
X008944Y019136D02*
X009064Y019256D01*
X010004Y019256D01*
X010011Y019260D01*
X007810Y019136D02*
X007560Y018886D01*
X006750Y018886D01*
X006743Y018886D01*
X005877Y018512D02*
X005870Y018506D01*
X005180Y018506D01*
X004810Y018136D01*
X005010Y017336D02*
X004810Y017136D01*
X005010Y017336D02*
X005870Y017336D01*
X005877Y017336D01*
X006743Y016962D02*
X006750Y016966D01*
X007640Y016966D01*
X007810Y017136D01*
X007390Y017716D02*
X007810Y018136D01*
X007390Y017716D02*
X006750Y017716D01*
X006743Y017710D01*
X005870Y019256D02*
X005877Y019260D01*
X005870Y019256D02*
X004930Y019256D01*
X004810Y019136D01*
X003677Y019136D02*
X003427Y018886D01*
X002617Y018886D01*
X002610Y018886D01*
X001743Y018512D02*
X001737Y018506D01*
X001047Y018506D01*
X000677Y018136D01*
X000877Y017336D02*
X000677Y017136D01*
X000877Y017336D02*
X001737Y017336D01*
X001743Y017336D01*
X002610Y016962D02*
X002617Y016966D01*
X003507Y016966D01*
X003677Y017136D01*
X003257Y017716D02*
X003677Y018136D01*
X003257Y017716D02*
X002617Y017716D01*
X002610Y017710D01*
X001737Y019256D02*
X001743Y019260D01*
X001737Y019256D02*
X000797Y019256D01*
X000677Y019136D01*
D18*
X000641Y016002D02*
X000291Y015652D01*
X000281Y015652D01*
X000281Y014139D01*
X000990Y014139D01*
X000990Y014394D02*
X000491Y014394D01*
X000491Y014392D01*
X000421Y014392D01*
X000421Y015302D01*
X000631Y015512D01*
X001151Y015512D01*
X001641Y016002D01*
X001941Y015302D02*
X002641Y016002D01*
X001941Y015302D02*
X000771Y015302D01*
X000561Y015092D01*
X000561Y014650D01*
X000990Y014650D01*
X000990Y014906D02*
X002545Y014906D01*
X003641Y016002D01*
X003293Y014906D02*
X003991Y014906D01*
X003991Y013342D01*
X003911Y013272D01*
X003641Y013002D01*
X003711Y013692D02*
X003331Y013692D01*
X002641Y013002D01*
X002471Y013832D02*
X001641Y013002D01*
X000641Y013002D02*
X001777Y014139D01*
X003293Y014139D01*
X003293Y014394D02*
X003709Y014394D01*
X003711Y014392D01*
X003711Y013972D01*
X003571Y013832D01*
X002471Y013832D01*
X003293Y014650D02*
X003851Y014650D01*
X003851Y013832D01*
X003711Y013692D01*
X003641Y011869D02*
X002545Y010772D01*
X000990Y010772D01*
X000990Y010516D02*
X000561Y010516D01*
X000561Y010959D01*
X000771Y011169D01*
X001941Y011169D01*
X002641Y011869D01*
X003293Y010772D02*
X003991Y010772D01*
X003991Y009209D01*
X003911Y009139D01*
X003641Y008869D01*
X003711Y009559D02*
X003331Y009559D01*
X002641Y008869D01*
X002471Y009699D02*
X001641Y008869D01*
X000641Y008869D02*
X001777Y010005D01*
X003293Y010005D01*
X003293Y010261D02*
X003709Y010261D01*
X003711Y010259D01*
X003711Y009839D01*
X003571Y009699D01*
X002471Y009699D01*
X003293Y010516D02*
X003851Y010516D01*
X003851Y009699D01*
X003711Y009559D01*
X003641Y007735D02*
X002545Y006639D01*
X000990Y006639D01*
X000990Y006383D02*
X000561Y006383D01*
X000561Y006825D01*
X000771Y007035D01*
X001941Y007035D01*
X002641Y007735D01*
X001641Y007735D02*
X001151Y007245D01*
X000631Y007245D01*
X000421Y007035D01*
X000421Y006125D01*
X000491Y006125D01*
X000491Y006127D01*
X000990Y006127D01*
X000990Y005871D02*
X000281Y005871D01*
X000281Y007385D01*
X000291Y007385D01*
X000641Y007735D01*
X001777Y005871D02*
X000641Y004735D01*
X001641Y004735D02*
X002471Y005565D01*
X003571Y005565D01*
X003711Y005705D01*
X003711Y006125D01*
X003709Y006127D01*
X003293Y006127D01*
X003293Y005871D02*
X001777Y005871D01*
X002641Y004735D02*
X003331Y005425D01*
X003711Y005425D01*
X003851Y005565D01*
X003851Y006383D01*
X003293Y006383D01*
X003293Y006639D02*
X003991Y006639D01*
X003991Y005075D01*
X003911Y005005D01*
X003641Y004735D01*
X003641Y003601D02*
X002545Y002505D01*
X000990Y002505D01*
X000990Y002249D02*
X000561Y002249D01*
X000561Y002691D01*
X000771Y002901D01*
X001941Y002901D01*
X002641Y003601D01*
X001641Y003601D02*
X001151Y003111D01*
X000631Y003111D01*
X000421Y002901D01*
X000421Y001991D01*
X000491Y001991D01*
X000491Y001993D01*
X000990Y001993D01*
X000990Y001737D02*
X000281Y001737D01*
X000281Y003251D01*
X000291Y003251D01*
X000641Y003601D01*
X001777Y001737D02*
X000641Y000601D01*
X001641Y000601D02*
X002471Y001431D01*
X003571Y001431D01*
X003711Y001571D01*
X003711Y001991D01*
X003709Y001993D01*
X003293Y001993D01*
X003293Y002249D02*
X003851Y002249D01*
X003851Y001431D01*
X003711Y001291D01*
X003331Y001291D01*
X002641Y000601D01*
X003641Y000601D02*
X003911Y000871D01*
X003991Y000941D01*
X003991Y002505D01*
X003293Y002505D01*
X003293Y001737D02*
X001777Y001737D01*
X000990Y010005D02*
X000281Y010005D01*
X000281Y011519D01*
X000291Y011519D01*
X000641Y011869D01*
X000631Y011379D02*
X001151Y011379D01*
X001641Y011869D01*
X000631Y011379D02*
X000421Y011169D01*
X000421Y010259D01*
X000491Y010259D01*
X000491Y010261D01*
X000990Y010261D01*
D19*
X004763Y009967D02*
X005263Y010467D01*
X005263Y010917D01*
X006173Y011827D01*
X006593Y011827D01*
X006594Y011827D01*
X006578Y012067D02*
X005863Y012067D01*
X005833Y012027D01*
X004773Y010967D01*
X004763Y010967D01*
X004763Y011967D02*
X005138Y012342D01*
X006588Y012342D01*
X006594Y012339D01*
X006588Y012592D02*
X006594Y012595D01*
X006588Y012592D02*
X005138Y012592D01*
X004763Y012967D01*
X004763Y013967D02*
X004773Y013967D01*
X005833Y012907D01*
X005863Y012867D01*
X006578Y012867D01*
X006594Y012851D01*
X006593Y013107D02*
X006594Y013107D01*
X006593Y013107D02*
X006173Y013107D01*
X005263Y014017D01*
X005263Y014467D01*
X004763Y014967D01*
X004763Y015967D02*
X006588Y014142D01*
X006588Y013367D01*
X006594Y013363D01*
X006594Y012083D02*
X006578Y012067D01*
X006594Y011571D02*
X006588Y011567D01*
X006588Y010792D01*
X004763Y008967D01*
X004763Y007699D02*
X006588Y005874D01*
X006588Y005099D01*
X006594Y005095D01*
X006593Y004839D02*
X006594Y004839D01*
X006593Y004839D02*
X006173Y004839D01*
X005263Y005749D01*
X005263Y006199D01*
X004763Y006699D01*
X004763Y005699D02*
X004773Y005699D01*
X005833Y004639D01*
X005863Y004599D01*
X006578Y004599D01*
X006594Y004583D01*
X006594Y004327D02*
X006588Y004324D01*
X005138Y004324D01*
X004763Y004699D01*
X005138Y004074D02*
X004763Y003699D01*
X005138Y004074D02*
X006588Y004074D01*
X006594Y004071D01*
X006594Y003815D02*
X006578Y003799D01*
X005863Y003799D01*
X005833Y003759D01*
X004773Y002699D01*
X004763Y002699D01*
X005263Y002649D02*
X005263Y002199D01*
X004763Y001699D01*
X004763Y000699D02*
X006588Y002524D01*
X006588Y003299D01*
X006594Y003304D01*
X006593Y003559D02*
X006594Y003559D01*
X006593Y003559D02*
X006173Y003559D01*
X005263Y002649D01*
X008938Y002524D02*
X010763Y000699D01*
X010763Y001699D02*
X010263Y002199D01*
X010263Y002649D01*
X009353Y003559D01*
X008933Y003559D01*
X008932Y003559D01*
X008932Y003304D02*
X008938Y003299D01*
X008938Y002524D01*
X009693Y003759D02*
X009663Y003799D01*
X008949Y003799D01*
X008932Y003815D01*
X008932Y004071D02*
X008938Y004074D01*
X010388Y004074D01*
X010763Y003699D01*
X010388Y004324D02*
X010763Y004699D01*
X010388Y004324D02*
X008938Y004324D01*
X008932Y004327D01*
X008932Y004583D02*
X008949Y004599D01*
X009663Y004599D01*
X009693Y004639D01*
X010753Y005699D01*
X010763Y005699D01*
X010263Y005749D02*
X010263Y006199D01*
X010763Y006699D01*
X010263Y005749D02*
X009353Y004839D01*
X008933Y004839D01*
X008932Y004839D01*
X008932Y005095D02*
X008938Y005099D01*
X008938Y005874D01*
X010763Y007699D01*
X011850Y007699D02*
X013675Y005874D01*
X013675Y005099D01*
X013680Y005095D01*
X013680Y004839D02*
X013680Y004839D01*
X013260Y004839D01*
X012350Y005749D01*
X012350Y006199D01*
X011850Y006699D01*
X011850Y005699D02*
X011860Y005699D01*
X012920Y004639D01*
X012950Y004599D01*
X013664Y004599D01*
X013680Y004583D01*
X013680Y004327D02*
X013675Y004324D01*
X012225Y004324D01*
X011850Y004699D01*
X012225Y004074D02*
X011850Y003699D01*
X012225Y004074D02*
X013675Y004074D01*
X013680Y004071D01*
X013680Y003815D02*
X013664Y003799D01*
X012950Y003799D01*
X012920Y003759D01*
X011860Y002699D01*
X011850Y002699D01*
X012350Y002649D02*
X012350Y002199D01*
X011850Y001699D01*
X011850Y000699D02*
X013675Y002524D01*
X013675Y003299D01*
X013680Y003304D01*
X013680Y003559D02*
X013680Y003559D01*
X013260Y003559D01*
X012350Y002649D01*
X010763Y002699D02*
X010753Y002699D01*
X009693Y003759D01*
X010763Y008967D02*
X008938Y010792D01*
X008938Y011567D01*
X008932Y011571D01*
X008932Y011827D02*
X008933Y011827D01*
X009353Y011827D01*
X010263Y010917D01*
X010263Y010467D01*
X010763Y009967D01*
X010753Y010967D02*
X010763Y010967D01*
X010753Y010967D02*
X009693Y012027D01*
X009663Y012067D01*
X008949Y012067D01*
X008932Y012083D01*
X008932Y012339D02*
X008938Y012342D01*
X010388Y012342D01*
X010763Y011967D01*
X010388Y012592D02*
X010763Y012967D01*
X010388Y012592D02*
X008938Y012592D01*
X008932Y012595D01*
X008932Y012851D02*
X008949Y012867D01*
X009663Y012867D01*
X009693Y012907D01*
X010753Y013967D01*
X010763Y013967D01*
X010263Y014017D02*
X010263Y014467D01*
X010763Y014967D01*
X010763Y015967D02*
X008938Y014142D01*
X008938Y013367D01*
X008932Y013363D01*
X008932Y013107D02*
X008933Y013107D01*
X009353Y013107D01*
X010263Y014017D01*
X011850Y013967D02*
X011860Y013967D01*
X012920Y012907D01*
X012950Y012867D01*
X013664Y012867D01*
X013680Y012851D01*
X013680Y012595D02*
X013675Y012592D01*
X012225Y012592D01*
X011850Y012967D01*
X012225Y012342D02*
X011850Y011967D01*
X012225Y012342D02*
X013675Y012342D01*
X013680Y012339D01*
X013680Y012083D02*
X013664Y012067D01*
X012950Y012067D01*
X012920Y012027D01*
X011860Y010967D01*
X011850Y010967D01*
X012350Y010917D02*
X012350Y010467D01*
X011850Y009967D01*
X011850Y008967D02*
X013675Y010792D01*
X013675Y011567D01*
X013680Y011571D01*
X013680Y011827D02*
X013680Y011827D01*
X013260Y011827D01*
X012350Y010917D01*
X013260Y013107D02*
X012350Y014017D01*
X012350Y014467D01*
X011850Y014967D01*
X011850Y015967D02*
X013675Y014142D01*
X013675Y013367D01*
X013680Y013363D01*
X013680Y013107D02*
X013680Y013107D01*
X013260Y013107D01*
X016019Y013107D02*
X016020Y013107D01*
X016440Y013107D01*
X017350Y014017D01*
X017350Y014467D01*
X017850Y014967D01*
X017850Y015967D02*
X016025Y014142D01*
X016025Y013367D01*
X016019Y013363D01*
X016035Y012867D02*
X016750Y012867D01*
X016780Y012907D01*
X017840Y013967D01*
X017850Y013967D01*
X017850Y012967D02*
X017475Y012592D01*
X016025Y012592D01*
X016019Y012595D01*
X016025Y012342D02*
X016019Y012339D01*
X016025Y012342D02*
X017475Y012342D01*
X017850Y011967D01*
X017840Y010967D02*
X017850Y010967D01*
X017840Y010967D02*
X016780Y012027D01*
X016750Y012067D01*
X016035Y012067D01*
X016019Y012083D01*
X016019Y011827D02*
X016020Y011827D01*
X016440Y011827D01*
X017350Y010917D01*
X017350Y010467D01*
X017850Y009967D01*
X017850Y008967D02*
X016025Y010792D01*
X016025Y011567D01*
X016019Y011571D01*
X016019Y012851D02*
X016035Y012867D01*
X017850Y007699D02*
X016025Y005874D01*
X016025Y005099D01*
X016019Y005095D01*
X016019Y004839D02*
X016020Y004839D01*
X016440Y004839D01*
X017350Y005749D01*
X017350Y006199D01*
X017850Y006699D01*
X017840Y005699D02*
X017850Y005699D01*
X017840Y005699D02*
X016780Y004639D01*
X016750Y004599D01*
X016035Y004599D01*
X016019Y004583D01*
X016019Y004327D02*
X016025Y004324D01*
X017475Y004324D01*
X017850Y004699D01*
X017475Y004074D02*
X017850Y003699D01*
X017475Y004074D02*
X016025Y004074D01*
X016019Y004071D01*
X016019Y003815D02*
X016035Y003799D01*
X016750Y003799D01*
X016780Y003759D01*
X017840Y002699D01*
X017850Y002699D01*
X017350Y002649D02*
X017350Y002199D01*
X017850Y001699D01*
X017850Y000699D02*
X016025Y002524D01*
X016025Y003299D01*
X016019Y003304D01*
X016019Y003559D02*
X016020Y003559D01*
X016440Y003559D01*
X017350Y002649D01*
D20*
X016138Y001449D02*
X016100Y001449D01*
X015220Y001449D01*
X014480Y001449D02*
X013600Y001449D01*
X013600Y000699D01*
X013730Y000699D01*
X014470Y000699D02*
X015311Y000699D01*
X016138Y000699D02*
X016138Y001449D01*
X016100Y006949D02*
X015220Y006949D01*
X015186Y007699D02*
X014470Y007699D01*
X014480Y006949D02*
X013600Y006949D01*
X013605Y006949D01*
X013605Y007699D01*
X013730Y007699D01*
X013730Y008967D02*
X013600Y008967D01*
X013600Y009717D01*
X014480Y009717D01*
X015220Y009717D02*
X016100Y009717D01*
X016138Y009717D01*
X016138Y008967D01*
X015311Y008967D02*
X014470Y008967D01*
X016013Y007699D02*
X016013Y006949D01*
X016100Y006949D01*
X009052Y008967D02*
X009052Y009717D01*
X009013Y009717D01*
X008133Y009717D01*
X007393Y009717D02*
X006513Y009717D01*
X006513Y008967D01*
X006643Y008967D01*
X007383Y008967D02*
X008225Y008967D01*
X008100Y007699D02*
X007383Y007699D01*
X007393Y006949D02*
X006513Y006949D01*
X006518Y006949D01*
X006518Y007699D01*
X006643Y007699D01*
X008133Y006949D02*
X009013Y006949D01*
X008927Y006949D01*
X008927Y007699D01*
X009013Y001449D02*
X008133Y001449D01*
X007393Y001449D02*
X006513Y001449D01*
X006513Y000699D01*
X006643Y000699D01*
X007383Y000699D02*
X008225Y000699D01*
X009013Y001449D02*
X009052Y001449D01*
X009052Y000699D01*
X009013Y015217D02*
X008133Y015217D01*
X007393Y015217D02*
X006513Y015217D01*
X006518Y015217D01*
X006518Y015967D01*
X006643Y015967D01*
X007383Y015967D02*
X008100Y015967D01*
X008927Y015967D02*
X008927Y015217D01*
X009013Y015217D01*
X013600Y015217D02*
X014480Y015217D01*
X015220Y015217D02*
X016100Y015217D01*
X016013Y015217D01*
X016013Y015967D01*
X015186Y015967D02*
X014470Y015967D01*
X013730Y015967D02*
X013605Y015967D01*
X013605Y015217D01*
X013600Y015217D01*
M02*
