G75*
G70*
%OFA0B0*%
%FSLAX24Y24*%
%IPPOS*%
%LPD*%
%AMOC8*
5,1,8,0,0,1.08239X$1,22.5*
%
%ADD10C,0.0000*%
%ADD11R,0.0098X1.6535*%
%ADD12R,1.8209X0.0098*%
%ADD13R,0.4035X0.0098*%
%ADD14R,0.0098X0.3051*%
%ADD15R,0.0700X0.0280*%
%ADD16C,0.0700*%
%ADD17R,0.0512X0.0257*%
%ADD18R,0.0906X0.0276*%
%ADD19R,0.0631X0.0434*%
%ADD20R,0.0512X0.0512*%
D10*
X000141Y000101D02*
X000141Y019687D01*
X018350Y019687D01*
X018350Y000101D01*
X000141Y000101D01*
D11*
X004226Y008369D03*
X011312Y008369D03*
D12*
X009245Y008319D03*
X009245Y016587D03*
D13*
X002159Y012453D03*
X002159Y004185D03*
D14*
X004226Y018162D03*
X008360Y018162D03*
X012493Y018162D03*
X016627Y018162D03*
D15*
X015860Y014217D03*
X015860Y013717D03*
X015860Y013217D03*
X015860Y012717D03*
X015860Y012217D03*
X015860Y011717D03*
X015860Y011217D03*
X015860Y010717D03*
X013840Y010717D03*
X013840Y011217D03*
X013840Y011717D03*
X013840Y012217D03*
X013840Y012717D03*
X013840Y013217D03*
X013840Y013717D03*
X013840Y014217D03*
X008773Y014217D03*
X008773Y013717D03*
X008773Y013217D03*
X008773Y012717D03*
X008773Y012217D03*
X008773Y011717D03*
X008773Y011217D03*
X008773Y010717D03*
X006753Y010717D03*
X006753Y011217D03*
X006753Y011717D03*
X006753Y012217D03*
X006753Y012717D03*
X006753Y013217D03*
X006753Y013717D03*
X006753Y014217D03*
X006753Y005949D03*
X006753Y005449D03*
X006753Y004949D03*
X006753Y004449D03*
X006753Y003949D03*
X006753Y003449D03*
X006753Y002949D03*
X006753Y002449D03*
X008773Y002449D03*
X008773Y002949D03*
X008773Y003449D03*
X008773Y003949D03*
X008773Y004449D03*
X008773Y004949D03*
X008773Y005449D03*
X008773Y005949D03*
X013840Y005949D03*
X013840Y005449D03*
X013840Y004949D03*
X013840Y004449D03*
X013840Y003949D03*
X013840Y003449D03*
X013840Y002949D03*
X013840Y002449D03*
X015860Y002449D03*
X015860Y002949D03*
X015860Y003449D03*
X015860Y003949D03*
X015860Y004449D03*
X015860Y004949D03*
X015860Y005449D03*
X015860Y005949D03*
D16*
X017850Y005699D03*
X017850Y004699D03*
X017850Y003699D03*
X017850Y002699D03*
X017850Y001699D03*
X017850Y000699D03*
X017850Y006699D03*
X017850Y007699D03*
X017850Y008967D03*
X017850Y009967D03*
X017850Y010967D03*
X017850Y011967D03*
X017850Y012967D03*
X017850Y013967D03*
X017850Y014967D03*
X017850Y015967D03*
X016078Y017136D03*
X016078Y018136D03*
X016078Y019136D03*
X013078Y019136D03*
X013078Y018136D03*
X013078Y017136D03*
X011944Y017136D03*
X011944Y018136D03*
X011944Y019136D03*
X008944Y019136D03*
X008944Y018136D03*
X008944Y017136D03*
X007810Y017136D03*
X007810Y018136D03*
X007810Y019136D03*
X004810Y019136D03*
X004810Y018136D03*
X004810Y017136D03*
X004763Y015967D03*
X004763Y014967D03*
X004763Y013967D03*
X004763Y012967D03*
X004763Y011967D03*
X004763Y010967D03*
X004763Y009967D03*
X004763Y008967D03*
X003641Y008869D03*
X002641Y008869D03*
X002641Y007735D03*
X003641Y007735D03*
X004763Y007699D03*
X004763Y006699D03*
X004763Y005699D03*
X004763Y004699D03*
X004763Y003699D03*
X004763Y002699D03*
X004763Y001699D03*
X004763Y000699D03*
X003641Y000601D03*
X002641Y000601D03*
X001641Y000601D03*
X000641Y000601D03*
X000641Y003601D03*
X001641Y003601D03*
X001641Y004735D03*
X000641Y004735D03*
X002641Y004735D03*
X003641Y004735D03*
X003641Y003601D03*
X002641Y003601D03*
X001641Y007735D03*
X000641Y007735D03*
X000641Y008869D03*
X001641Y008869D03*
X001641Y011869D03*
X000641Y011869D03*
X000641Y013002D03*
X001641Y013002D03*
X002641Y013002D03*
X003641Y013002D03*
X003641Y011869D03*
X002641Y011869D03*
X002641Y016002D03*
X003641Y016002D03*
X003677Y017136D03*
X003677Y018136D03*
X003677Y019136D03*
X000677Y019136D03*
X000677Y018136D03*
X000677Y017136D03*
X000641Y016002D03*
X001641Y016002D03*
X010763Y015967D03*
X010763Y014967D03*
X010763Y013967D03*
X010763Y012967D03*
X010763Y011967D03*
X010763Y010967D03*
X010763Y009967D03*
X010763Y008967D03*
X011850Y008967D03*
X011850Y009967D03*
X011850Y010967D03*
X011850Y011967D03*
X011850Y012967D03*
X011850Y013967D03*
X011850Y014967D03*
X011850Y015967D03*
X011850Y007699D03*
X011850Y006699D03*
X011850Y005699D03*
X011850Y004699D03*
X011850Y003699D03*
X011850Y002699D03*
X011850Y001699D03*
X011850Y000699D03*
X010763Y000699D03*
X010763Y001699D03*
X010763Y002699D03*
X010763Y003699D03*
X010763Y004699D03*
X010763Y005699D03*
X010763Y006699D03*
X010763Y007699D03*
D17*
X010956Y017762D03*
X010956Y018136D03*
X010956Y018510D03*
X009932Y018510D03*
X009932Y018136D03*
X009932Y017762D03*
X006822Y017762D03*
X006822Y018136D03*
X006822Y018510D03*
X005799Y018510D03*
X005799Y018136D03*
X005799Y017762D03*
X002688Y017762D03*
X002688Y018136D03*
X002688Y018510D03*
X001665Y018510D03*
X001665Y018136D03*
X001665Y017762D03*
X014066Y017762D03*
X014066Y018136D03*
X014066Y018510D03*
X015090Y018510D03*
X015090Y018136D03*
X015090Y017762D03*
D18*
X016661Y014217D03*
X016661Y013717D03*
X016661Y013217D03*
X016661Y012717D03*
X016661Y012217D03*
X016661Y011717D03*
X016661Y011217D03*
X016661Y010717D03*
X013039Y010717D03*
X013039Y011217D03*
X013039Y011717D03*
X013039Y012217D03*
X013039Y012717D03*
X013039Y013217D03*
X013039Y013717D03*
X013039Y014217D03*
X009574Y014217D03*
X009574Y013717D03*
X009574Y013217D03*
X009574Y012717D03*
X009574Y012217D03*
X009574Y011717D03*
X009574Y011217D03*
X009574Y010717D03*
X005952Y010717D03*
X005952Y011217D03*
X005952Y011717D03*
X005952Y012217D03*
X005952Y012717D03*
X005952Y013217D03*
X005952Y013717D03*
X005952Y014217D03*
X003165Y014272D03*
X003165Y014772D03*
X003165Y015272D03*
X003165Y013772D03*
X001117Y013772D03*
X001117Y014272D03*
X001117Y014772D03*
X001117Y015272D03*
X001117Y011139D03*
X001117Y010639D03*
X001117Y010139D03*
X001117Y009639D03*
X003165Y009639D03*
X003165Y010139D03*
X003165Y010639D03*
X003165Y011139D03*
X003165Y007005D03*
X003165Y006505D03*
X003165Y006005D03*
X003165Y005505D03*
X001117Y005505D03*
X001117Y006005D03*
X001117Y006505D03*
X001117Y007005D03*
X001117Y002871D03*
X001117Y002371D03*
X001117Y001871D03*
X001117Y001371D03*
X003165Y001371D03*
X003165Y001871D03*
X003165Y002371D03*
X003165Y002871D03*
X005952Y002949D03*
X005952Y002449D03*
X005952Y003449D03*
X005952Y003949D03*
X005952Y004449D03*
X005952Y004949D03*
X005952Y005449D03*
X005952Y005949D03*
X009574Y005949D03*
X009574Y005449D03*
X009574Y004949D03*
X009574Y004449D03*
X009574Y003949D03*
X009574Y003449D03*
X009574Y002949D03*
X009574Y002449D03*
X013039Y002449D03*
X013039Y002949D03*
X013039Y003449D03*
X013039Y003949D03*
X013039Y004449D03*
X013039Y004949D03*
X013039Y005449D03*
X013039Y005949D03*
X016661Y005949D03*
X016661Y005449D03*
X016661Y004949D03*
X016661Y004449D03*
X016661Y003949D03*
X016661Y003449D03*
X016661Y002949D03*
X016661Y002449D03*
D19*
X015220Y001449D03*
X014480Y001449D03*
X014345Y000699D03*
X013605Y000699D03*
X008133Y001449D03*
X007393Y001449D03*
X007258Y000699D03*
X006518Y000699D03*
X007393Y006949D03*
X007258Y007699D03*
X006518Y007699D03*
X006518Y008967D03*
X007258Y008967D03*
X007393Y009717D03*
X008133Y009717D03*
X008133Y006949D03*
X013605Y007699D03*
X014345Y007699D03*
X014480Y006949D03*
X015220Y006949D03*
X014345Y008967D03*
X013605Y008967D03*
X014480Y009717D03*
X015220Y009717D03*
X015220Y015217D03*
X014480Y015217D03*
X014345Y015967D03*
X013605Y015967D03*
X008133Y015217D03*
X007393Y015217D03*
X007258Y015967D03*
X006518Y015967D03*
D20*
X006513Y015217D03*
X008225Y015967D03*
X009013Y015217D03*
X009052Y015967D03*
X013600Y015217D03*
X015311Y015967D03*
X016138Y015967D03*
X016100Y015217D03*
X016100Y009717D03*
X016138Y008967D03*
X015311Y008967D03*
X015311Y007699D03*
X016138Y007699D03*
X016100Y006949D03*
X013600Y006949D03*
X013600Y009717D03*
X009052Y008967D03*
X009013Y009717D03*
X008225Y008967D03*
X008225Y007699D03*
X009013Y006949D03*
X009052Y007699D03*
X006513Y006949D03*
X006513Y009717D03*
X006513Y001449D03*
X008225Y000699D03*
X009013Y001449D03*
X009052Y000699D03*
X013600Y001449D03*
X015311Y000699D03*
X016138Y000699D03*
X016100Y001449D03*
M02*
