G75*
G70*
%OFA0B0*%
%FSLAX24Y24*%
%IPPOS*%
%LPD*%
%AMOC8*
5,1,8,0,0,1.08239X$1,22.5*
%
%ADD10C,0.0000*%
%ADD11R,0.0472X0.0217*%
%ADD12R,0.0866X0.0236*%
%ADD13R,0.0591X0.0394*%
%ADD14R,0.0472X0.0472*%
D10*
X000141Y000101D02*
X000141Y019687D01*
X018350Y019687D01*
X018350Y000101D01*
X000141Y000101D01*
D11*
X001665Y017762D03*
X001665Y018136D03*
X001665Y018510D03*
X002688Y018510D03*
X002688Y018136D03*
X002688Y017762D03*
X005799Y017762D03*
X005799Y018136D03*
X005799Y018510D03*
X006822Y018510D03*
X006822Y018136D03*
X006822Y017762D03*
X009932Y017762D03*
X009932Y018136D03*
X009932Y018510D03*
X010956Y018510D03*
X010956Y018136D03*
X010956Y017762D03*
X014066Y017762D03*
X014066Y018136D03*
X014066Y018510D03*
X015090Y018510D03*
X015090Y018136D03*
X015090Y017762D03*
D12*
X016661Y014217D03*
X016661Y013717D03*
X016661Y013217D03*
X016661Y012717D03*
X016661Y012217D03*
X016661Y011717D03*
X016661Y011217D03*
X016661Y010717D03*
X013039Y010717D03*
X013039Y011217D03*
X013039Y011717D03*
X013039Y012217D03*
X013039Y012717D03*
X013039Y013217D03*
X013039Y013717D03*
X013039Y014217D03*
X009574Y014217D03*
X009574Y013717D03*
X009574Y013217D03*
X009574Y012717D03*
X009574Y012217D03*
X009574Y011717D03*
X009574Y011217D03*
X009574Y010717D03*
X005952Y010717D03*
X005952Y011217D03*
X005952Y011717D03*
X005952Y012217D03*
X005952Y012717D03*
X005952Y013217D03*
X005952Y013717D03*
X005952Y014217D03*
X003165Y014272D03*
X003165Y014772D03*
X003165Y015272D03*
X003165Y013772D03*
X001117Y013772D03*
X001117Y014272D03*
X001117Y014772D03*
X001117Y015272D03*
X001117Y011139D03*
X001117Y010639D03*
X001117Y010139D03*
X001117Y009639D03*
X003165Y009639D03*
X003165Y010139D03*
X003165Y010639D03*
X003165Y011139D03*
X003165Y007005D03*
X003165Y006505D03*
X003165Y006005D03*
X003165Y005505D03*
X001117Y005505D03*
X001117Y006005D03*
X001117Y006505D03*
X001117Y007005D03*
X001117Y002871D03*
X001117Y002371D03*
X001117Y001871D03*
X001117Y001371D03*
X003165Y001371D03*
X003165Y001871D03*
X003165Y002371D03*
X003165Y002871D03*
X005952Y002949D03*
X005952Y002449D03*
X005952Y003449D03*
X005952Y003949D03*
X005952Y004449D03*
X005952Y004949D03*
X005952Y005449D03*
X005952Y005949D03*
X009574Y005949D03*
X009574Y005449D03*
X009574Y004949D03*
X009574Y004449D03*
X009574Y003949D03*
X009574Y003449D03*
X009574Y002949D03*
X009574Y002449D03*
X013039Y002449D03*
X013039Y002949D03*
X013039Y003449D03*
X013039Y003949D03*
X013039Y004449D03*
X013039Y004949D03*
X013039Y005449D03*
X013039Y005949D03*
X016661Y005949D03*
X016661Y005449D03*
X016661Y004949D03*
X016661Y004449D03*
X016661Y003949D03*
X016661Y003449D03*
X016661Y002949D03*
X016661Y002449D03*
D13*
X015220Y001449D03*
X014480Y001449D03*
X014345Y000699D03*
X013605Y000699D03*
X008133Y001449D03*
X007393Y001449D03*
X007258Y000699D03*
X006518Y000699D03*
X007393Y006949D03*
X007258Y007699D03*
X006518Y007699D03*
X006518Y008967D03*
X007258Y008967D03*
X007393Y009717D03*
X008133Y009717D03*
X008133Y006949D03*
X013605Y007699D03*
X014345Y007699D03*
X014480Y006949D03*
X015220Y006949D03*
X014345Y008967D03*
X013605Y008967D03*
X014480Y009717D03*
X015220Y009717D03*
X015220Y015217D03*
X014480Y015217D03*
X014345Y015967D03*
X013605Y015967D03*
X008133Y015217D03*
X007393Y015217D03*
X007258Y015967D03*
X006518Y015967D03*
D14*
X008225Y015967D03*
X009052Y015967D03*
X015311Y015967D03*
X016138Y015967D03*
X016138Y008967D03*
X015311Y008967D03*
X015311Y007699D03*
X016138Y007699D03*
X016138Y000699D03*
X015311Y000699D03*
X009052Y000699D03*
X008225Y000699D03*
X008225Y007699D03*
X009052Y007699D03*
X009052Y008967D03*
X008225Y008967D03*
M02*
