G75*
G70*
%OFA0B0*%
%FSLAX24Y24*%
%IPPOS*%
%LPD*%
%AMOC8*
5,1,8,0,0,1.08239X$1,22.5*
%
%ADD10C,0.0000*%
%ADD11R,0.1000X0.1000*%
%ADD12C,0.0070*%
%ADD13C,0.0060*%
%ADD14C,0.0160*%
%ADD15C,0.0100*%
%ADD16C,0.0040*%
%ADD17C,0.0080*%
%ADD18C,0.0050*%
D10*
X000141Y000101D02*
X000141Y019687D01*
X018350Y019687D01*
X018350Y000101D01*
X000141Y000101D01*
D11*
X000641Y000601D03*
X000641Y004735D03*
X000641Y008869D03*
X000641Y013002D03*
X003677Y017136D03*
X007810Y017136D03*
X011944Y017136D03*
X016078Y017136D03*
X017850Y008967D03*
X010763Y008967D03*
X010763Y000699D03*
X017850Y000699D03*
D12*
X014940Y019021D02*
X014653Y019021D01*
X014653Y019452D01*
X014479Y019380D02*
X014479Y019236D01*
X014407Y019165D01*
X014192Y019165D01*
X014336Y019165D02*
X014479Y019021D01*
X014479Y019380D02*
X014407Y019452D01*
X014192Y019452D01*
X014192Y019021D01*
X014019Y019093D02*
X013947Y019021D01*
X013804Y019021D01*
X013732Y019093D01*
X013804Y019236D02*
X013947Y019236D01*
X014019Y019165D01*
X014019Y019093D01*
X013804Y019236D02*
X013732Y019308D01*
X013732Y019380D01*
X013804Y019452D01*
X013947Y019452D01*
X014019Y019380D01*
X010806Y019021D02*
X010519Y019021D01*
X010519Y019452D01*
X010345Y019380D02*
X010345Y019236D01*
X010274Y019165D01*
X010058Y019165D01*
X010058Y019021D02*
X010058Y019452D01*
X010274Y019452D01*
X010345Y019380D01*
X010202Y019165D02*
X010345Y019021D01*
X009885Y019093D02*
X009813Y019021D01*
X009670Y019021D01*
X009598Y019093D01*
X009670Y019236D02*
X009598Y019308D01*
X009598Y019380D01*
X009670Y019452D01*
X009813Y019452D01*
X009885Y019380D01*
X009813Y019236D02*
X009885Y019165D01*
X009885Y019093D01*
X009813Y019236D02*
X009670Y019236D01*
X006672Y019021D02*
X006385Y019021D01*
X006385Y019452D01*
X006211Y019380D02*
X006211Y019236D01*
X006140Y019165D01*
X005925Y019165D01*
X006068Y019165D02*
X006211Y019021D01*
X005925Y019021D02*
X005925Y019452D01*
X006140Y019452D01*
X006211Y019380D01*
X005751Y019380D02*
X005679Y019452D01*
X005536Y019452D01*
X005464Y019380D01*
X005464Y019308D01*
X005536Y019236D01*
X005679Y019236D01*
X005751Y019165D01*
X005751Y019093D01*
X005679Y019021D01*
X005536Y019021D01*
X005464Y019093D01*
X002538Y019021D02*
X002251Y019021D01*
X002251Y019452D01*
X002078Y019380D02*
X002078Y019236D01*
X002006Y019165D01*
X001791Y019165D01*
X001934Y019165D02*
X002078Y019021D01*
X002078Y019380D02*
X002006Y019452D01*
X001791Y019452D01*
X001791Y019021D01*
X001617Y019093D02*
X001546Y019021D01*
X001402Y019021D01*
X001330Y019093D01*
X001402Y019236D02*
X001546Y019236D01*
X001617Y019165D01*
X001617Y019093D01*
X001402Y019236D02*
X001330Y019308D01*
X001330Y019380D01*
X001402Y019452D01*
X001546Y019452D01*
X001617Y019380D01*
D13*
X002361Y015116D02*
X002361Y014822D01*
X001921Y014822D01*
X001994Y014655D02*
X002141Y014655D01*
X002214Y014582D01*
X002214Y014362D01*
X002214Y014508D02*
X002361Y014655D01*
X002361Y014362D02*
X001921Y014362D01*
X001921Y014582D01*
X001994Y014655D01*
X001994Y014195D02*
X001921Y014121D01*
X001921Y013975D01*
X001994Y013901D01*
X002068Y013901D01*
X002141Y013975D01*
X002141Y014121D01*
X002214Y014195D01*
X002288Y014195D01*
X002361Y014121D01*
X002361Y013975D01*
X002288Y013901D01*
X002361Y010982D02*
X002361Y010688D01*
X001921Y010688D01*
X001994Y010521D02*
X002141Y010521D01*
X002214Y010448D01*
X002214Y010228D01*
X002214Y010374D02*
X002361Y010521D01*
X002361Y010228D02*
X001921Y010228D01*
X001921Y010448D01*
X001994Y010521D01*
X001994Y010061D02*
X001921Y009988D01*
X001921Y009841D01*
X001994Y009767D01*
X002068Y009767D01*
X002141Y009841D01*
X002141Y009988D01*
X002214Y010061D01*
X002288Y010061D01*
X002361Y009988D01*
X002361Y009841D01*
X002288Y009767D01*
X002361Y006848D02*
X002361Y006554D01*
X001921Y006554D01*
X001994Y006387D02*
X002141Y006387D01*
X002214Y006314D01*
X002214Y006094D01*
X002214Y006241D02*
X002361Y006387D01*
X002361Y006094D02*
X001921Y006094D01*
X001921Y006314D01*
X001994Y006387D01*
X001994Y005927D02*
X001921Y005854D01*
X001921Y005707D01*
X001994Y005634D01*
X002068Y005634D01*
X002141Y005707D01*
X002141Y005854D01*
X002214Y005927D01*
X002288Y005927D01*
X002361Y005854D01*
X002361Y005707D01*
X002288Y005634D01*
X002361Y002714D02*
X002361Y002420D01*
X001921Y002420D01*
X001994Y002254D02*
X002141Y002254D01*
X002214Y002180D01*
X002214Y001960D01*
X002214Y002107D02*
X002361Y002254D01*
X002361Y001960D02*
X001921Y001960D01*
X001921Y002180D01*
X001994Y002254D01*
X001994Y001793D02*
X001921Y001720D01*
X001921Y001573D01*
X001994Y001500D01*
X002068Y001500D01*
X002141Y001573D01*
X002141Y001720D01*
X002214Y001793D01*
X002288Y001793D01*
X002361Y001720D01*
X002361Y001573D01*
X002288Y001500D01*
D14*
X007263Y002199D02*
X007265Y002243D01*
X007271Y002286D01*
X007280Y002328D01*
X007293Y002370D01*
X007310Y002410D01*
X007330Y002449D01*
X007353Y002486D01*
X007380Y002520D01*
X007409Y002553D01*
X007442Y002582D01*
X007476Y002609D01*
X007513Y002632D01*
X007552Y002652D01*
X007592Y002669D01*
X007634Y002682D01*
X007676Y002691D01*
X007719Y002697D01*
X007763Y002699D01*
X007807Y002697D01*
X007850Y002691D01*
X007892Y002682D01*
X007934Y002669D01*
X007974Y002652D01*
X008013Y002632D01*
X008050Y002609D01*
X008084Y002582D01*
X008117Y002553D01*
X008146Y002520D01*
X008173Y002486D01*
X008196Y002449D01*
X008216Y002410D01*
X008233Y002370D01*
X008246Y002328D01*
X008255Y002286D01*
X008261Y002243D01*
X008263Y002199D01*
X014350Y002199D02*
X014352Y002243D01*
X014358Y002286D01*
X014367Y002328D01*
X014380Y002370D01*
X014397Y002410D01*
X014417Y002449D01*
X014440Y002486D01*
X014467Y002520D01*
X014496Y002553D01*
X014529Y002582D01*
X014563Y002609D01*
X014600Y002632D01*
X014639Y002652D01*
X014679Y002669D01*
X014721Y002682D01*
X014763Y002691D01*
X014806Y002697D01*
X014850Y002699D01*
X014894Y002697D01*
X014937Y002691D01*
X014979Y002682D01*
X015021Y002669D01*
X015061Y002652D01*
X015100Y002632D01*
X015137Y002609D01*
X015171Y002582D01*
X015204Y002553D01*
X015233Y002520D01*
X015260Y002486D01*
X015283Y002449D01*
X015303Y002410D01*
X015320Y002370D01*
X015333Y002328D01*
X015342Y002286D01*
X015348Y002243D01*
X015350Y002199D01*
X015350Y010467D02*
X015348Y010511D01*
X015342Y010554D01*
X015333Y010596D01*
X015320Y010638D01*
X015303Y010678D01*
X015283Y010717D01*
X015260Y010754D01*
X015233Y010788D01*
X015204Y010821D01*
X015171Y010850D01*
X015137Y010877D01*
X015100Y010900D01*
X015061Y010920D01*
X015021Y010937D01*
X014979Y010950D01*
X014937Y010959D01*
X014894Y010965D01*
X014850Y010967D01*
X014806Y010965D01*
X014763Y010959D01*
X014721Y010950D01*
X014679Y010937D01*
X014639Y010920D01*
X014600Y010900D01*
X014563Y010877D01*
X014529Y010850D01*
X014496Y010821D01*
X014467Y010788D01*
X014440Y010754D01*
X014417Y010717D01*
X014397Y010678D01*
X014380Y010638D01*
X014367Y010596D01*
X014358Y010554D01*
X014352Y010511D01*
X014350Y010467D01*
X008263Y010467D02*
X008261Y010511D01*
X008255Y010554D01*
X008246Y010596D01*
X008233Y010638D01*
X008216Y010678D01*
X008196Y010717D01*
X008173Y010754D01*
X008146Y010788D01*
X008117Y010821D01*
X008084Y010850D01*
X008050Y010877D01*
X008013Y010900D01*
X007974Y010920D01*
X007934Y010937D01*
X007892Y010950D01*
X007850Y010959D01*
X007807Y010965D01*
X007763Y010967D01*
X007719Y010965D01*
X007676Y010959D01*
X007634Y010950D01*
X007592Y010937D01*
X007552Y010920D01*
X007513Y010900D01*
X007476Y010877D01*
X007442Y010850D01*
X007409Y010821D01*
X007380Y010788D01*
X007353Y010754D01*
X007330Y010717D01*
X007310Y010678D01*
X007293Y010638D01*
X007280Y010596D01*
X007271Y010554D01*
X007265Y010511D01*
X007263Y010467D01*
D15*
X006263Y010342D02*
X006263Y014592D01*
X009263Y014592D01*
X009263Y010342D01*
X006263Y010342D01*
X006263Y006324D02*
X009263Y006324D01*
X009263Y002074D01*
X006263Y002074D01*
X006263Y006324D01*
X013350Y006324D02*
X013350Y002074D01*
X016350Y002074D01*
X016350Y006324D01*
X013350Y006324D01*
X013350Y010342D02*
X013350Y014592D01*
X016350Y014592D01*
X016350Y010342D01*
X013350Y010342D01*
D16*
X014294Y011175D02*
X014294Y011312D01*
X014363Y011380D01*
X014500Y011312D02*
X014500Y011175D01*
X014431Y011107D01*
X014363Y011107D01*
X014294Y011175D01*
X014500Y011312D02*
X014568Y011380D01*
X014636Y011380D01*
X014705Y011312D01*
X014705Y011175D01*
X014636Y011107D01*
X014864Y011272D02*
X015275Y011272D01*
X015275Y011545D01*
X015206Y011686D02*
X015138Y011755D01*
X015138Y011960D01*
X015070Y011960D02*
X015275Y011960D01*
X015275Y011755D01*
X015206Y011686D01*
X015001Y011755D02*
X015001Y011891D01*
X015070Y011960D01*
X015001Y012101D02*
X015001Y012306D01*
X015070Y012374D01*
X015206Y012374D01*
X015275Y012306D01*
X015275Y012101D01*
X014864Y012101D01*
X014705Y012004D02*
X014636Y011936D01*
X014568Y012004D01*
X014568Y012209D01*
X014500Y012209D02*
X014705Y012209D01*
X014705Y012004D01*
X014705Y011795D02*
X014500Y011795D01*
X014431Y011726D01*
X014500Y011658D01*
X014705Y011658D01*
X014705Y011521D02*
X014431Y011521D01*
X014431Y011590D01*
X014500Y011658D01*
X014431Y012004D02*
X014431Y012141D01*
X014500Y012209D01*
X014705Y012350D02*
X014705Y012487D01*
X014705Y012418D02*
X014294Y012418D01*
X014294Y012350D01*
X014294Y012626D02*
X014294Y012695D01*
X014705Y012695D01*
X014705Y012763D02*
X014705Y012626D01*
X014705Y012902D02*
X014294Y012902D01*
X014294Y013108D01*
X014363Y013176D01*
X014500Y013176D01*
X014568Y013108D01*
X014568Y012902D01*
X014568Y013039D02*
X014705Y013176D01*
X014636Y013317D02*
X014500Y013317D01*
X014431Y013385D01*
X014431Y013522D01*
X014500Y013590D01*
X014636Y013590D01*
X014705Y013522D01*
X014705Y013385D01*
X014636Y013317D01*
X015001Y013410D02*
X015001Y013205D01*
X015070Y013136D01*
X015206Y013136D01*
X015275Y013205D01*
X015275Y013410D01*
X015206Y013551D02*
X015070Y013551D01*
X015001Y013619D01*
X015001Y013756D01*
X015070Y013824D01*
X015206Y013824D01*
X015275Y013756D01*
X015275Y013619D01*
X015206Y013551D01*
X015275Y013965D02*
X015001Y013965D01*
X015001Y014033D01*
X015070Y014102D01*
X015001Y014170D01*
X015070Y014239D01*
X015275Y014239D01*
X015275Y014102D02*
X015070Y014102D01*
X014705Y014145D02*
X014431Y014145D01*
X014431Y014214D01*
X014500Y014282D01*
X014431Y014351D01*
X014500Y014419D01*
X014705Y014419D01*
X014705Y014282D02*
X014500Y014282D01*
X014500Y014005D02*
X014431Y013936D01*
X014431Y013799D01*
X014500Y013731D01*
X014636Y013731D01*
X014705Y013799D01*
X014705Y013936D01*
X014636Y014005D01*
X014500Y014005D01*
X015206Y012998D02*
X015275Y012998D01*
X015275Y012929D01*
X015206Y012929D01*
X015206Y012998D01*
X015206Y012788D02*
X015138Y012720D01*
X015138Y012583D01*
X015070Y012515D01*
X015001Y012583D01*
X015001Y012788D01*
X015206Y012788D02*
X015275Y012720D01*
X015275Y012515D01*
X014705Y006151D02*
X014500Y006151D01*
X014431Y006083D01*
X014500Y006014D01*
X014705Y006014D01*
X014705Y005878D02*
X014431Y005878D01*
X014431Y005946D01*
X014500Y006014D01*
X014500Y005737D02*
X014431Y005668D01*
X014431Y005532D01*
X014500Y005463D01*
X014636Y005463D01*
X014705Y005532D01*
X014705Y005668D01*
X014636Y005737D01*
X014500Y005737D01*
X014500Y005323D02*
X014431Y005254D01*
X014431Y005117D01*
X014500Y005049D01*
X014636Y005049D01*
X014705Y005117D01*
X014705Y005254D01*
X014636Y005323D01*
X014500Y005323D01*
X014500Y004908D02*
X014363Y004908D01*
X014294Y004840D01*
X014294Y004635D01*
X014705Y004635D01*
X014568Y004635D02*
X014568Y004840D01*
X014500Y004908D01*
X014568Y004771D02*
X014705Y004908D01*
X015001Y004937D02*
X015070Y004869D01*
X015206Y004869D01*
X015275Y004937D01*
X015275Y005142D01*
X015206Y005283D02*
X015070Y005283D01*
X015001Y005351D01*
X015001Y005488D01*
X015070Y005557D01*
X015206Y005557D01*
X015275Y005488D01*
X015275Y005351D01*
X015206Y005283D01*
X015001Y005142D02*
X015001Y004937D01*
X015206Y004730D02*
X015275Y004730D01*
X015275Y004662D01*
X015206Y004662D01*
X015206Y004730D01*
X015206Y004521D02*
X015138Y004452D01*
X015138Y004316D01*
X015070Y004247D01*
X015001Y004316D01*
X015001Y004521D01*
X015206Y004521D02*
X015275Y004452D01*
X015275Y004247D01*
X015206Y004106D02*
X015070Y004106D01*
X015001Y004038D01*
X015001Y003833D01*
X014864Y003833D02*
X015275Y003833D01*
X015275Y004038D01*
X015206Y004106D01*
X015138Y003692D02*
X015138Y003487D01*
X015206Y003419D01*
X015275Y003487D01*
X015275Y003692D01*
X015070Y003692D01*
X015001Y003624D01*
X015001Y003487D01*
X015275Y003278D02*
X015275Y003004D01*
X014864Y003004D01*
X014705Y003044D02*
X014705Y002908D01*
X014636Y002839D01*
X014500Y002908D02*
X014500Y003044D01*
X014568Y003113D01*
X014636Y003113D01*
X014705Y003044D01*
X014705Y003254D02*
X014431Y003254D01*
X014431Y003322D01*
X014500Y003390D01*
X014431Y003459D01*
X014500Y003527D01*
X014705Y003527D01*
X014705Y003390D02*
X014500Y003390D01*
X014636Y003668D02*
X014568Y003736D01*
X014568Y003941D01*
X014500Y003941D02*
X014705Y003941D01*
X014705Y003736D01*
X014636Y003668D01*
X014431Y003736D02*
X014431Y003873D01*
X014500Y003941D01*
X014705Y004082D02*
X014705Y004219D01*
X014705Y004151D02*
X014294Y004151D01*
X014294Y004082D01*
X014294Y004358D02*
X014294Y004427D01*
X014705Y004427D01*
X014705Y004495D02*
X014705Y004358D01*
X015001Y005697D02*
X015001Y005766D01*
X015070Y005834D01*
X015001Y005903D01*
X015070Y005971D01*
X015275Y005971D01*
X015275Y005834D02*
X015070Y005834D01*
X015001Y005697D02*
X015275Y005697D01*
X014363Y003113D02*
X014294Y003044D01*
X014294Y002908D01*
X014363Y002839D01*
X014431Y002839D01*
X014500Y002908D01*
X008188Y003004D02*
X008188Y003278D01*
X008120Y003419D02*
X008051Y003487D01*
X008051Y003692D01*
X007983Y003692D02*
X008188Y003692D01*
X008188Y003487D01*
X008120Y003419D01*
X007915Y003487D02*
X007915Y003624D01*
X007983Y003692D01*
X007915Y003833D02*
X007915Y004038D01*
X007983Y004106D01*
X008120Y004106D01*
X008188Y004038D01*
X008188Y003833D01*
X007778Y003833D01*
X007618Y003736D02*
X007550Y003668D01*
X007481Y003736D01*
X007481Y003941D01*
X007413Y003941D02*
X007618Y003941D01*
X007618Y003736D01*
X007618Y003527D02*
X007413Y003527D01*
X007345Y003459D01*
X007413Y003390D01*
X007618Y003390D01*
X007618Y003254D02*
X007345Y003254D01*
X007345Y003322D01*
X007413Y003390D01*
X007345Y003736D02*
X007345Y003873D01*
X007413Y003941D01*
X007208Y004082D02*
X007208Y004151D01*
X007618Y004151D01*
X007618Y004219D02*
X007618Y004082D01*
X007915Y004316D02*
X007915Y004521D01*
X008051Y004452D02*
X008051Y004316D01*
X007983Y004247D01*
X007915Y004316D01*
X008051Y004452D02*
X008120Y004521D01*
X008188Y004452D01*
X008188Y004247D01*
X008188Y004662D02*
X008120Y004662D01*
X008120Y004730D01*
X008188Y004730D01*
X008188Y004662D01*
X008120Y004869D02*
X008188Y004937D01*
X008188Y005142D01*
X008120Y005283D02*
X008188Y005351D01*
X008188Y005488D01*
X008120Y005557D01*
X007983Y005557D01*
X007915Y005488D01*
X007915Y005351D01*
X007983Y005283D01*
X008120Y005283D01*
X007915Y005142D02*
X007915Y004937D01*
X007983Y004869D01*
X008120Y004869D01*
X007618Y004908D02*
X007481Y004771D01*
X007481Y004840D02*
X007481Y004635D01*
X007618Y004635D02*
X007208Y004635D01*
X007208Y004840D01*
X007276Y004908D01*
X007413Y004908D01*
X007481Y004840D01*
X007413Y005049D02*
X007345Y005117D01*
X007345Y005254D01*
X007413Y005323D01*
X007550Y005323D01*
X007618Y005254D01*
X007618Y005117D01*
X007550Y005049D01*
X007413Y005049D01*
X007413Y005463D02*
X007345Y005532D01*
X007345Y005668D01*
X007413Y005737D01*
X007550Y005737D01*
X007618Y005668D01*
X007618Y005532D01*
X007550Y005463D01*
X007413Y005463D01*
X007345Y005878D02*
X007345Y005946D01*
X007413Y006014D01*
X007345Y006083D01*
X007413Y006151D01*
X007618Y006151D01*
X007618Y006014D02*
X007413Y006014D01*
X007345Y005878D02*
X007618Y005878D01*
X007915Y005903D02*
X007983Y005971D01*
X008188Y005971D01*
X008188Y005834D02*
X007983Y005834D01*
X007915Y005903D01*
X007983Y005834D02*
X007915Y005766D01*
X007915Y005697D01*
X008188Y005697D01*
X007618Y004495D02*
X007618Y004358D01*
X007618Y004427D02*
X007208Y004427D01*
X007208Y004358D01*
X007276Y003113D02*
X007208Y003044D01*
X007208Y002908D01*
X007276Y002839D01*
X007345Y002839D01*
X007413Y002908D01*
X007413Y003044D01*
X007481Y003113D01*
X007550Y003113D01*
X007618Y003044D01*
X007618Y002908D01*
X007550Y002839D01*
X007778Y003004D02*
X008188Y003004D01*
X007550Y011107D02*
X007618Y011175D01*
X007618Y011312D01*
X007550Y011380D01*
X007481Y011380D01*
X007413Y011312D01*
X007413Y011175D01*
X007345Y011107D01*
X007276Y011107D01*
X007208Y011175D01*
X007208Y011312D01*
X007276Y011380D01*
X007345Y011521D02*
X007345Y011590D01*
X007413Y011658D01*
X007345Y011726D01*
X007413Y011795D01*
X007618Y011795D01*
X007618Y011658D02*
X007413Y011658D01*
X007345Y011521D02*
X007618Y011521D01*
X007915Y011755D02*
X007915Y011891D01*
X007983Y011960D01*
X008188Y011960D01*
X008188Y011755D01*
X008120Y011686D01*
X008051Y011755D01*
X008051Y011960D01*
X007915Y012101D02*
X007915Y012306D01*
X007983Y012374D01*
X008120Y012374D01*
X008188Y012306D01*
X008188Y012101D01*
X007778Y012101D01*
X007618Y012004D02*
X007550Y011936D01*
X007481Y012004D01*
X007481Y012209D01*
X007413Y012209D02*
X007618Y012209D01*
X007618Y012004D01*
X007413Y012209D02*
X007345Y012141D01*
X007345Y012004D01*
X007208Y012350D02*
X007208Y012418D01*
X007618Y012418D01*
X007618Y012350D02*
X007618Y012487D01*
X007618Y012626D02*
X007618Y012763D01*
X007618Y012695D02*
X007208Y012695D01*
X007208Y012626D01*
X007208Y012902D02*
X007208Y013108D01*
X007276Y013176D01*
X007413Y013176D01*
X007481Y013108D01*
X007481Y012902D01*
X007481Y013039D02*
X007618Y013176D01*
X007550Y013317D02*
X007618Y013385D01*
X007618Y013522D01*
X007550Y013590D01*
X007413Y013590D01*
X007345Y013522D01*
X007345Y013385D01*
X007413Y013317D01*
X007550Y013317D01*
X007915Y013410D02*
X007915Y013205D01*
X007983Y013136D01*
X008120Y013136D01*
X008188Y013205D01*
X008188Y013410D01*
X008120Y013551D02*
X008188Y013619D01*
X008188Y013756D01*
X008120Y013824D01*
X007983Y013824D01*
X007915Y013756D01*
X007915Y013619D01*
X007983Y013551D01*
X008120Y013551D01*
X008188Y013965D02*
X007915Y013965D01*
X007915Y014033D01*
X007983Y014102D01*
X007915Y014170D01*
X007983Y014239D01*
X008188Y014239D01*
X008188Y014102D02*
X007983Y014102D01*
X007618Y014145D02*
X007345Y014145D01*
X007345Y014214D01*
X007413Y014282D01*
X007345Y014351D01*
X007413Y014419D01*
X007618Y014419D01*
X007618Y014282D02*
X007413Y014282D01*
X007413Y014005D02*
X007345Y013936D01*
X007345Y013799D01*
X007413Y013731D01*
X007550Y013731D01*
X007618Y013799D01*
X007618Y013936D01*
X007550Y014005D01*
X007413Y014005D01*
X007618Y012902D02*
X007208Y012902D01*
X007915Y012788D02*
X007915Y012583D01*
X007983Y012515D01*
X008051Y012583D01*
X008051Y012720D01*
X008120Y012788D01*
X008188Y012720D01*
X008188Y012515D01*
X008188Y012929D02*
X008120Y012929D01*
X008120Y012998D01*
X008188Y012998D01*
X008188Y012929D01*
X008188Y011545D02*
X008188Y011272D01*
X007778Y011272D01*
D17*
X009023Y010424D02*
X009023Y014510D01*
X010051Y017506D02*
X010169Y017506D01*
X010051Y017506D02*
X010051Y017624D01*
X010482Y017677D02*
X010484Y017695D01*
X010490Y017713D01*
X010499Y017729D01*
X010511Y017742D01*
X010526Y017753D01*
X010543Y017761D01*
X010561Y017765D01*
X010579Y017765D01*
X010597Y017761D01*
X010614Y017753D01*
X010629Y017742D01*
X010641Y017729D01*
X010650Y017713D01*
X010656Y017695D01*
X010658Y017677D01*
X010656Y017659D01*
X010650Y017641D01*
X010641Y017625D01*
X010629Y017612D01*
X010614Y017601D01*
X010597Y017593D01*
X010579Y017589D01*
X010561Y017589D01*
X010543Y017593D01*
X010526Y017601D01*
X010511Y017612D01*
X010499Y017625D01*
X010490Y017641D01*
X010484Y017659D01*
X010482Y017677D01*
X010720Y017506D02*
X010838Y017506D01*
X010838Y017624D01*
X010838Y018648D02*
X010838Y018766D01*
X010720Y018766D01*
X010169Y018766D02*
X010051Y018766D01*
X010051Y018648D01*
X006704Y018648D02*
X006704Y018766D01*
X006586Y018766D01*
X006035Y018766D02*
X005917Y018766D01*
X005917Y018648D01*
X005917Y017624D02*
X005917Y017506D01*
X006035Y017506D01*
X006348Y017677D02*
X006350Y017695D01*
X006356Y017713D01*
X006365Y017729D01*
X006377Y017742D01*
X006392Y017753D01*
X006409Y017761D01*
X006427Y017765D01*
X006445Y017765D01*
X006463Y017761D01*
X006480Y017753D01*
X006495Y017742D01*
X006507Y017729D01*
X006516Y017713D01*
X006522Y017695D01*
X006524Y017677D01*
X006522Y017659D01*
X006516Y017641D01*
X006507Y017625D01*
X006495Y017612D01*
X006480Y017601D01*
X006463Y017593D01*
X006445Y017589D01*
X006427Y017589D01*
X006409Y017593D01*
X006392Y017601D01*
X006377Y017612D01*
X006365Y017625D01*
X006356Y017641D01*
X006350Y017659D01*
X006348Y017677D01*
X006586Y017506D02*
X006704Y017506D01*
X006704Y017624D01*
X002570Y017624D02*
X002570Y017506D01*
X002452Y017506D01*
X002214Y017677D02*
X002216Y017695D01*
X002222Y017713D01*
X002231Y017729D01*
X002243Y017742D01*
X002258Y017753D01*
X002275Y017761D01*
X002293Y017765D01*
X002311Y017765D01*
X002329Y017761D01*
X002346Y017753D01*
X002361Y017742D01*
X002373Y017729D01*
X002382Y017713D01*
X002388Y017695D01*
X002390Y017677D01*
X002388Y017659D01*
X002382Y017641D01*
X002373Y017625D01*
X002361Y017612D01*
X002346Y017601D01*
X002329Y017593D01*
X002311Y017589D01*
X002293Y017589D01*
X002275Y017593D01*
X002258Y017601D01*
X002243Y017612D01*
X002231Y017625D01*
X002222Y017641D01*
X002216Y017659D01*
X002214Y017677D01*
X001901Y017506D02*
X001783Y017506D01*
X001783Y017624D01*
X001783Y018648D02*
X001783Y018766D01*
X001901Y018766D01*
X002452Y018766D02*
X002570Y018766D01*
X002570Y018648D01*
X014184Y018648D02*
X014184Y018766D01*
X014303Y018766D01*
X014854Y018766D02*
X014972Y018766D01*
X014972Y018648D01*
X014616Y017677D02*
X014618Y017695D01*
X014624Y017713D01*
X014633Y017729D01*
X014645Y017742D01*
X014660Y017753D01*
X014677Y017761D01*
X014695Y017765D01*
X014713Y017765D01*
X014731Y017761D01*
X014748Y017753D01*
X014763Y017742D01*
X014775Y017729D01*
X014784Y017713D01*
X014790Y017695D01*
X014792Y017677D01*
X014790Y017659D01*
X014784Y017641D01*
X014775Y017625D01*
X014763Y017612D01*
X014748Y017601D01*
X014731Y017593D01*
X014713Y017589D01*
X014695Y017589D01*
X014677Y017593D01*
X014660Y017601D01*
X014645Y017612D01*
X014633Y017625D01*
X014624Y017641D01*
X014618Y017659D01*
X014616Y017677D01*
X014854Y017506D02*
X014972Y017506D01*
X014972Y017624D01*
X014303Y017506D02*
X014184Y017506D01*
X014184Y017624D01*
X016110Y014510D02*
X016110Y010424D01*
X016110Y006243D02*
X016110Y002156D01*
X009023Y002156D02*
X009023Y006243D01*
D18*
X008717Y007542D02*
X008717Y007699D01*
X008559Y007542D01*
X008559Y007857D01*
X008717Y007699D01*
X008717Y007857D01*
X008717Y008809D02*
X008717Y008967D01*
X008559Y008809D01*
X008559Y009124D01*
X008717Y008967D01*
X008717Y009124D01*
X002889Y009444D02*
X001393Y009444D01*
X002391Y009629D02*
X002393Y009649D01*
X002399Y009667D01*
X002408Y009685D01*
X002420Y009700D01*
X002435Y009712D01*
X002453Y009721D01*
X002471Y009727D01*
X002491Y009729D01*
X002511Y009727D01*
X002529Y009721D01*
X002547Y009712D01*
X002562Y009700D01*
X002574Y009685D01*
X002583Y009667D01*
X002589Y009649D01*
X002591Y009629D01*
X002589Y009609D01*
X002583Y009591D01*
X002574Y009573D01*
X002562Y009558D01*
X002547Y009546D01*
X002529Y009537D01*
X002511Y009531D01*
X002491Y009529D01*
X002471Y009531D01*
X002453Y009537D01*
X002435Y009546D01*
X002420Y009558D01*
X002408Y009573D01*
X002399Y009591D01*
X002393Y009609D01*
X002391Y009629D01*
X002889Y011333D02*
X001393Y011333D01*
X001393Y013577D02*
X002889Y013577D01*
X002391Y013762D02*
X002393Y013782D01*
X002399Y013800D01*
X002408Y013818D01*
X002420Y013833D01*
X002435Y013845D01*
X002453Y013854D01*
X002471Y013860D01*
X002491Y013862D01*
X002511Y013860D01*
X002529Y013854D01*
X002547Y013845D01*
X002562Y013833D01*
X002574Y013818D01*
X002583Y013800D01*
X002589Y013782D01*
X002591Y013762D01*
X002589Y013742D01*
X002583Y013724D01*
X002574Y013706D01*
X002562Y013691D01*
X002547Y013679D01*
X002529Y013670D01*
X002511Y013664D01*
X002491Y013662D01*
X002471Y013664D01*
X002453Y013670D01*
X002435Y013679D01*
X002420Y013691D01*
X002408Y013706D01*
X002399Y013724D01*
X002393Y013742D01*
X002391Y013762D01*
X002889Y015467D02*
X001393Y015467D01*
X008559Y015809D02*
X008717Y015967D01*
X008559Y016124D01*
X008559Y015809D01*
X008717Y015809D02*
X008717Y015967D01*
X008717Y016124D01*
X015646Y016124D02*
X015646Y015809D01*
X015804Y015967D01*
X015646Y016124D01*
X015804Y016124D02*
X015804Y015967D01*
X015804Y015809D01*
X015804Y009124D02*
X015804Y008967D01*
X015646Y008809D01*
X015646Y009124D01*
X015804Y008967D01*
X015804Y008809D01*
X015804Y007857D02*
X015804Y007699D01*
X015646Y007542D01*
X015646Y007857D01*
X015804Y007699D01*
X015804Y007542D01*
X015804Y000857D02*
X015804Y000699D01*
X015646Y000542D01*
X015646Y000857D01*
X015804Y000699D01*
X015804Y000542D01*
X008717Y000542D02*
X008717Y000699D01*
X008559Y000542D01*
X008559Y000857D01*
X008717Y000699D01*
X008717Y000857D01*
X002889Y001176D02*
X001393Y001176D01*
X002391Y001361D02*
X002393Y001381D01*
X002399Y001399D01*
X002408Y001417D01*
X002420Y001432D01*
X002435Y001444D01*
X002453Y001453D01*
X002471Y001459D01*
X002491Y001461D01*
X002511Y001459D01*
X002529Y001453D01*
X002547Y001444D01*
X002562Y001432D01*
X002574Y001417D01*
X002583Y001399D01*
X002589Y001381D01*
X002591Y001361D01*
X002589Y001341D01*
X002583Y001323D01*
X002574Y001305D01*
X002562Y001290D01*
X002547Y001278D01*
X002529Y001269D01*
X002511Y001263D01*
X002491Y001261D01*
X002471Y001263D01*
X002453Y001269D01*
X002435Y001278D01*
X002420Y001290D01*
X002408Y001305D01*
X002399Y001323D01*
X002393Y001341D01*
X002391Y001361D01*
X002889Y003066D02*
X001393Y003066D01*
X001393Y005310D02*
X002889Y005310D01*
X002391Y005495D02*
X002393Y005515D01*
X002399Y005533D01*
X002408Y005551D01*
X002420Y005566D01*
X002435Y005578D01*
X002453Y005587D01*
X002471Y005593D01*
X002491Y005595D01*
X002511Y005593D01*
X002529Y005587D01*
X002547Y005578D01*
X002562Y005566D01*
X002574Y005551D01*
X002583Y005533D01*
X002589Y005515D01*
X002591Y005495D01*
X002589Y005475D01*
X002583Y005457D01*
X002574Y005439D01*
X002562Y005424D01*
X002547Y005412D01*
X002529Y005403D01*
X002511Y005397D01*
X002491Y005395D01*
X002471Y005397D01*
X002453Y005403D01*
X002435Y005412D01*
X002420Y005424D01*
X002408Y005439D01*
X002399Y005457D01*
X002393Y005475D01*
X002391Y005495D01*
X002889Y007200D02*
X001393Y007200D01*
M02*
