%
M48
M72
T01C0.0157
T02C0.0197
T03C0.0236
T04C0.0276
T05C0.0315
T06C0.0354
T07C0.0394
T08C0.0433
T09C0.0472
T10C0.0512
T11C0.0551
T12C0.0591
T13C0.0630
T14C0.0669
T15C0.0709
T16C0.0748
T17C0.0787
T18C0.0827
T19C0.0866
T20C0.0906
T21C0.1181
T22C0.2500
%
T01
X4855Y525
X4855Y4659
X4855Y8792
X4855Y12926
T02
X5643Y12926
X5643Y8792
X5643Y4659
X5643Y525
T03
X6430Y525
X6430Y4659
X6430Y8792
X6430Y12926
T04
X7218Y12926
X7218Y8792
X7218Y4659
X7218Y525
T05
X8005Y525
X8005Y4659
X8005Y8792
X8005Y12926
T06
X8792Y12926
X8792Y8792
X8792Y4659
X8792Y525
T07
X9580Y525
X9580Y4659
X9580Y8792
X9580Y12926
T08
X10485Y13044
X10485Y8911
X10485Y4777
X10485Y643
T09
X11470Y643
X11470Y4777
X11470Y8911
X11470Y13044
T10
X12454Y13044
X12454Y8911
X12454Y4777
X12454Y643
T11
X13438Y643
X13438Y4777
X13438Y8911
X13438Y13044
T12
X14422Y13044
X14422Y8911
X14422Y4777
X14422Y643
T13
X15407Y682
X15407Y4816
X15407Y8950
X15407Y13084
T14
X16548Y13202
X16548Y9068
X16548Y4934
X16548Y800
T15
X17769Y800
X17769Y4934
X17769Y9068
X17769Y13202
T16
X18989Y13202
X18989Y9068
X18989Y4934
X18989Y800
T17
X5052Y3281
X5052Y7414
X5052Y11548
X5052Y15682
T18
X8005Y15682
X8005Y11548
X8005Y7414
X8005Y3281
T19
X10958Y3281
X10958Y7414
X10958Y11548
X10958Y15682
T20
X13911Y15682
X13911Y11548
X13911Y7414
X13911Y3281
T21
X17060Y3163
X17060Y7296
X17060Y11430
X17060Y15564
T22
X2100Y2100
X2100Y6233
X2100Y10367
X2100Y14501
M30
