G75*
G70*
%OFA0B0*%
%FSLAX24Y24*%
%IPPOS*%
%LPD*%
%AMOC8*
5,1,8,0,0,1.08239X$1,22.5*
%
%ADD10C,0.0000*%
%ADD11C,0.0060*%
D10*
X000131Y000131D02*
X000131Y003970D01*
X019816Y003970D01*
X019816Y000131D01*
X000131Y000131D01*
X000850Y002100D02*
X000852Y002170D01*
X000858Y002240D01*
X000868Y002309D01*
X000881Y002378D01*
X000899Y002446D01*
X000920Y002513D01*
X000945Y002578D01*
X000974Y002642D01*
X001006Y002705D01*
X001042Y002765D01*
X001081Y002823D01*
X001123Y002879D01*
X001168Y002933D01*
X001216Y002984D01*
X001267Y003032D01*
X001321Y003077D01*
X001377Y003119D01*
X001435Y003158D01*
X001495Y003194D01*
X001558Y003226D01*
X001622Y003255D01*
X001687Y003280D01*
X001754Y003301D01*
X001822Y003319D01*
X001891Y003332D01*
X001960Y003342D01*
X002030Y003348D01*
X002100Y003350D01*
X002170Y003348D01*
X002240Y003342D01*
X002309Y003332D01*
X002378Y003319D01*
X002446Y003301D01*
X002513Y003280D01*
X002578Y003255D01*
X002642Y003226D01*
X002705Y003194D01*
X002765Y003158D01*
X002823Y003119D01*
X002879Y003077D01*
X002933Y003032D01*
X002984Y002984D01*
X003032Y002933D01*
X003077Y002879D01*
X003119Y002823D01*
X003158Y002765D01*
X003194Y002705D01*
X003226Y002642D01*
X003255Y002578D01*
X003280Y002513D01*
X003301Y002446D01*
X003319Y002378D01*
X003332Y002309D01*
X003342Y002240D01*
X003348Y002170D01*
X003350Y002100D01*
X003348Y002030D01*
X003342Y001960D01*
X003332Y001891D01*
X003319Y001822D01*
X003301Y001754D01*
X003280Y001687D01*
X003255Y001622D01*
X003226Y001558D01*
X003194Y001495D01*
X003158Y001435D01*
X003119Y001377D01*
X003077Y001321D01*
X003032Y001267D01*
X002984Y001216D01*
X002933Y001168D01*
X002879Y001123D01*
X002823Y001081D01*
X002765Y001042D01*
X002705Y001006D01*
X002642Y000974D01*
X002578Y000945D01*
X002513Y000920D01*
X002446Y000899D01*
X002378Y000881D01*
X002309Y000868D01*
X002240Y000858D01*
X002170Y000852D01*
X002100Y000850D01*
X002030Y000852D01*
X001960Y000858D01*
X001891Y000868D01*
X001822Y000881D01*
X001754Y000899D01*
X001687Y000920D01*
X001622Y000945D01*
X001558Y000974D01*
X001495Y001006D01*
X001435Y001042D01*
X001377Y001081D01*
X001321Y001123D01*
X001267Y001168D01*
X001216Y001216D01*
X001168Y001267D01*
X001123Y001321D01*
X001081Y001377D01*
X001042Y001435D01*
X001006Y001495D01*
X000974Y001558D01*
X000945Y001622D01*
X000920Y001687D01*
X000899Y001754D01*
X000881Y001822D01*
X000868Y001891D01*
X000858Y001960D01*
X000852Y002030D01*
X000850Y002100D01*
D11*
X003583Y002123D02*
X003583Y002300D01*
X003671Y002389D01*
X003760Y002389D01*
X003848Y002300D01*
X003937Y002389D01*
X004025Y002389D01*
X004114Y002300D01*
X004114Y002123D01*
X004025Y002035D01*
X003671Y002035D02*
X003583Y002123D01*
X003848Y002212D02*
X003848Y002300D01*
X004609Y002266D02*
X004875Y002000D01*
X004875Y002354D01*
X005140Y002266D02*
X004609Y002266D01*
X005397Y002354D02*
X005397Y002000D01*
X005662Y002000D01*
X005574Y002177D01*
X005574Y002266D01*
X005662Y002354D01*
X005839Y002354D01*
X005928Y002266D01*
X005928Y002089D01*
X005839Y002000D01*
X006273Y002177D02*
X006450Y002000D01*
X006450Y002266D01*
X006538Y002354D01*
X006627Y002354D01*
X006715Y002266D01*
X006715Y002089D01*
X006627Y002000D01*
X006450Y002000D01*
X006972Y002000D02*
X006972Y002354D01*
X007060Y002354D01*
X007414Y002000D01*
X007503Y002000D01*
X007759Y002089D02*
X007759Y002266D01*
X007848Y002354D01*
X007936Y002354D01*
X008025Y002266D01*
X008025Y002089D01*
X007936Y002000D01*
X007848Y002000D01*
X007759Y002089D01*
X008025Y002089D02*
X008113Y002000D01*
X008202Y002000D01*
X008290Y002089D01*
X008290Y002266D01*
X008202Y002354D01*
X008113Y002354D01*
X008025Y002266D01*
X008546Y002266D02*
X008546Y002089D01*
X008635Y002000D01*
X008723Y002000D01*
X008812Y002089D01*
X008812Y002354D01*
X008989Y002354D02*
X008635Y002354D01*
X008546Y002266D01*
X008989Y002354D02*
X009077Y002266D01*
X009077Y002089D01*
X008989Y002000D01*
X009334Y002089D02*
X009334Y002266D01*
X009422Y002354D01*
X009776Y002000D01*
X009865Y002089D01*
X009865Y002266D01*
X009776Y002354D01*
X009422Y002354D01*
X010200Y002177D02*
X010731Y002177D01*
X010377Y002000D02*
X010200Y002177D01*
X010731Y002000D02*
X010731Y002354D01*
X011184Y002305D02*
X011184Y002128D01*
X011273Y002040D01*
X011361Y002394D02*
X011715Y002040D01*
X011715Y002394D01*
X011361Y002394D02*
X011273Y002394D01*
X011184Y002305D01*
X012168Y002266D02*
X012257Y002354D01*
X012345Y002354D01*
X012434Y002266D01*
X012522Y002354D01*
X012611Y002354D01*
X012699Y002266D01*
X012699Y002089D01*
X012611Y002000D01*
X012257Y002000D02*
X012168Y002089D01*
X012168Y002266D01*
X012434Y002266D02*
X012434Y002177D01*
X013192Y002266D02*
X013458Y002000D01*
X013458Y002354D01*
X013723Y002266D02*
X013192Y002266D01*
X014137Y002394D02*
X014137Y002040D01*
X014402Y002040D01*
X014314Y002217D01*
X014314Y002305D01*
X014402Y002394D01*
X014579Y002394D01*
X014668Y002305D01*
X014668Y002128D01*
X014579Y002040D01*
X015170Y002217D02*
X015347Y002040D01*
X015347Y002305D01*
X015436Y002394D01*
X015524Y002394D01*
X015613Y002305D01*
X015613Y002128D01*
X015524Y002040D01*
X015347Y002040D01*
X015524Y001856D02*
X015613Y001856D01*
X015613Y001768D01*
X015524Y001768D01*
X015524Y001856D01*
X014668Y001856D02*
X014668Y001768D01*
X014579Y001768D01*
X014579Y001856D01*
X014668Y001856D01*
X013723Y001817D02*
X013723Y001728D01*
X013635Y001728D01*
X013635Y001817D01*
X013723Y001817D01*
X012699Y001817D02*
X012699Y001728D01*
X012611Y001728D01*
X012611Y001817D01*
X012699Y001817D01*
X011715Y001856D02*
X011715Y001768D01*
X011627Y001768D01*
X011627Y001856D01*
X011715Y001856D01*
X010731Y001817D02*
X010731Y001728D01*
X010642Y001728D01*
X010642Y001817D01*
X010731Y001817D01*
X009865Y001817D02*
X009865Y001728D01*
X009776Y001728D01*
X009776Y001817D01*
X009865Y001817D01*
X009776Y002000D02*
X009422Y002000D01*
X009334Y002089D01*
X009077Y001817D02*
X009077Y001728D01*
X008989Y001728D01*
X008989Y001817D01*
X009077Y001817D01*
X008290Y001817D02*
X008290Y001728D01*
X008202Y001728D01*
X008202Y001817D01*
X008290Y001817D01*
X007503Y001817D02*
X007503Y001728D01*
X007414Y001728D01*
X007414Y001817D01*
X007503Y001817D01*
X006715Y001817D02*
X006715Y001728D01*
X006627Y001728D01*
X006627Y001817D01*
X006715Y001817D01*
X005928Y001817D02*
X005928Y001728D01*
X005839Y001728D01*
X005839Y001817D01*
X005928Y001817D01*
X005140Y001817D02*
X005140Y001728D01*
X005052Y001728D01*
X005052Y001817D01*
X005140Y001817D01*
X004114Y001851D02*
X004114Y001763D01*
X004025Y001763D01*
X004025Y001851D01*
X004114Y001851D01*
X004025Y001573D02*
X003937Y001573D01*
X003848Y001485D01*
X003848Y001219D01*
X004025Y001219D01*
X004114Y001308D01*
X004114Y001485D01*
X004025Y001573D01*
X003671Y001396D02*
X003583Y001573D01*
X003671Y001396D02*
X003848Y001219D01*
X004609Y001273D02*
X004698Y001185D01*
X005052Y001185D01*
X004698Y001539D01*
X005052Y001539D01*
X005140Y001450D01*
X005140Y001273D01*
X005052Y001185D01*
X005397Y001273D02*
X005485Y001185D01*
X005839Y001185D01*
X005485Y001539D01*
X005839Y001539D01*
X005928Y001450D01*
X005928Y001273D01*
X005839Y001185D01*
X006184Y001273D02*
X006273Y001185D01*
X006627Y001185D01*
X006273Y001539D01*
X006627Y001539D01*
X006715Y001450D01*
X006715Y001273D01*
X006627Y001185D01*
X006972Y001273D02*
X007060Y001185D01*
X007414Y001185D01*
X007060Y001539D01*
X007414Y001539D01*
X007503Y001450D01*
X007503Y001273D01*
X007414Y001185D01*
X007759Y001273D02*
X007848Y001185D01*
X008202Y001185D01*
X007848Y001539D01*
X008202Y001539D01*
X008290Y001450D01*
X008290Y001273D01*
X008202Y001185D01*
X008546Y001273D02*
X008635Y001185D01*
X008989Y001185D01*
X008635Y001539D01*
X008989Y001539D01*
X009077Y001450D01*
X009077Y001273D01*
X008989Y001185D01*
X009334Y001362D02*
X009511Y001185D01*
X009865Y001185D02*
X009865Y001539D01*
X009865Y001362D02*
X009334Y001362D01*
X008635Y001539D02*
X008546Y001450D01*
X008546Y001273D01*
X007848Y001539D02*
X007759Y001450D01*
X007759Y001273D01*
X007060Y001539D02*
X006972Y001450D01*
X006972Y001273D01*
X006273Y001539D02*
X006184Y001450D01*
X006184Y001273D01*
X005397Y001273D02*
X005397Y001450D01*
X005485Y001539D01*
X004698Y001539D02*
X004609Y001450D01*
X004609Y001273D01*
X006273Y002177D02*
X006184Y002354D01*
X004114Y002667D02*
X004025Y002578D01*
X003848Y002578D02*
X003760Y002755D01*
X003760Y002844D01*
X003848Y002932D01*
X004025Y002932D01*
X004114Y002844D01*
X004114Y002667D01*
X003848Y002578D02*
X003583Y002578D01*
X003583Y002932D01*
X005691Y003015D02*
X006045Y003369D01*
X006045Y003458D01*
X005957Y003546D01*
X005780Y003546D01*
X005691Y003458D01*
X006507Y003458D02*
X006595Y003546D01*
X006772Y003546D01*
X006861Y003458D01*
X006507Y003104D01*
X006595Y003015D01*
X006772Y003015D01*
X006861Y003104D01*
X006861Y003458D01*
X006507Y003458D02*
X006507Y003104D01*
X006324Y003104D02*
X006324Y003015D01*
X006235Y003015D01*
X006235Y003104D01*
X006324Y003104D01*
X006045Y003015D02*
X005691Y003015D01*
X008644Y003015D02*
X008998Y003369D01*
X008998Y003458D01*
X008910Y003546D01*
X008733Y003546D01*
X008644Y003458D01*
X009460Y003369D02*
X009637Y003546D01*
X009637Y003015D01*
X009460Y003015D02*
X009814Y003015D01*
X009276Y003015D02*
X009188Y003015D01*
X009188Y003104D01*
X009276Y003104D01*
X009276Y003015D01*
X008998Y003015D02*
X008644Y003015D01*
X011597Y003015D02*
X011951Y003369D01*
X011951Y003458D01*
X011862Y003546D01*
X011685Y003546D01*
X011597Y003458D01*
X012412Y003458D02*
X012501Y003546D01*
X012678Y003546D01*
X012766Y003458D01*
X012766Y003369D01*
X012412Y003015D01*
X012766Y003015D01*
X012229Y003015D02*
X012229Y003104D01*
X012141Y003104D01*
X012141Y003015D01*
X012229Y003015D01*
X011951Y003015D02*
X011597Y003015D01*
X014550Y003015D02*
X014904Y003369D01*
X014904Y003458D01*
X014815Y003546D01*
X014638Y003546D01*
X014550Y003458D01*
X015365Y003458D02*
X015454Y003546D01*
X015631Y003546D01*
X015719Y003458D01*
X015719Y003369D01*
X015631Y003281D01*
X015719Y003192D01*
X015719Y003104D01*
X015631Y003015D01*
X015454Y003015D01*
X015365Y003104D01*
X015182Y003104D02*
X015182Y003015D01*
X015093Y003015D01*
X015093Y003104D01*
X015182Y003104D01*
X014904Y003015D02*
X014550Y003015D01*
X015542Y003281D02*
X015631Y003281D01*
X017798Y003359D02*
X017886Y003448D01*
X018063Y003448D01*
X018152Y003359D01*
X018152Y003271D01*
X018063Y003182D01*
X018152Y003094D01*
X018152Y003005D01*
X018063Y002917D01*
X017886Y002917D01*
X017798Y003005D01*
X018341Y003005D02*
X018341Y002917D01*
X018430Y002917D01*
X018430Y003005D01*
X018341Y003005D01*
X018613Y003005D02*
X018702Y002917D01*
X018879Y002917D01*
X018967Y003005D01*
X018967Y003359D01*
X018613Y003005D01*
X018613Y003359D01*
X018702Y003448D01*
X018879Y003448D01*
X018967Y003359D01*
X018063Y003182D02*
X017975Y003182D01*
X018753Y002472D02*
X018665Y002384D01*
X018665Y002207D01*
X018753Y002118D01*
X018842Y002118D01*
X018930Y002207D01*
X018930Y002472D01*
X019107Y002472D02*
X018753Y002472D01*
X019107Y002472D02*
X019196Y002384D01*
X019196Y002207D01*
X019107Y002118D01*
X019107Y001935D02*
X019196Y001935D01*
X019196Y001846D01*
X019107Y001846D01*
X019107Y001935D01*
X017975Y001896D02*
X017975Y001807D01*
X017887Y001807D01*
X017887Y001896D01*
X017975Y001896D01*
X017887Y002079D02*
X017798Y002079D01*
X017710Y002167D01*
X017710Y002344D01*
X017798Y002433D01*
X017887Y002433D01*
X017975Y002344D01*
X017975Y002167D01*
X017887Y002079D01*
X017710Y002167D02*
X017621Y002079D01*
X017533Y002079D01*
X017444Y002167D01*
X017444Y002344D01*
X017533Y002433D01*
X017621Y002433D01*
X017710Y002344D01*
X016794Y002118D02*
X016705Y002118D01*
X016351Y002472D01*
X016263Y002472D01*
X016263Y002118D01*
X016705Y001935D02*
X016794Y001935D01*
X016794Y001846D01*
X016705Y001846D01*
X016705Y001935D01*
X016794Y001657D02*
X016794Y001303D01*
X016440Y001303D02*
X016263Y001480D01*
X016794Y001480D01*
X017444Y001440D02*
X017975Y001440D01*
X017621Y001263D02*
X017444Y001440D01*
X017975Y001263D02*
X017975Y001617D01*
X018665Y001480D02*
X019196Y001480D01*
X018842Y001303D02*
X018665Y001480D01*
X019196Y001303D02*
X019196Y001657D01*
X015613Y001578D02*
X015613Y001224D01*
X015259Y001224D02*
X015082Y001401D01*
X015613Y001401D01*
X014668Y001401D02*
X014137Y001401D01*
X014314Y001224D01*
X014668Y001224D02*
X014668Y001578D01*
X013723Y001539D02*
X013723Y001185D01*
X013369Y001185D02*
X013192Y001362D01*
X013723Y001362D01*
X012699Y001362D02*
X012168Y001362D01*
X012345Y001185D01*
X012699Y001185D02*
X012699Y001539D01*
X011715Y001578D02*
X011715Y001224D01*
X011361Y001224D02*
X011184Y001401D01*
X011715Y001401D01*
X010731Y001362D02*
X010200Y001362D01*
X010377Y001185D01*
X010731Y001185D02*
X010731Y001539D01*
X015082Y002394D02*
X015170Y002217D01*
M02*
