G75*
G70*
%OFA0B0*%
%FSLAX24Y24*%
%IPPOS*%
%LPD*%
%AMOC8*
5,1,8,0,0,1.08239X$1,22.5*
%
%ADD10C,0.0000*%
D10*
X000131Y000131D02*
X000131Y003970D01*
X019816Y003970D01*
X019816Y000131D01*
X000131Y000131D01*
X000850Y002100D02*
X000852Y002170D01*
X000858Y002240D01*
X000868Y002309D01*
X000881Y002378D01*
X000899Y002446D01*
X000920Y002513D01*
X000945Y002578D01*
X000974Y002642D01*
X001006Y002705D01*
X001042Y002765D01*
X001081Y002823D01*
X001123Y002879D01*
X001168Y002933D01*
X001216Y002984D01*
X001267Y003032D01*
X001321Y003077D01*
X001377Y003119D01*
X001435Y003158D01*
X001495Y003194D01*
X001558Y003226D01*
X001622Y003255D01*
X001687Y003280D01*
X001754Y003301D01*
X001822Y003319D01*
X001891Y003332D01*
X001960Y003342D01*
X002030Y003348D01*
X002100Y003350D01*
X002170Y003348D01*
X002240Y003342D01*
X002309Y003332D01*
X002378Y003319D01*
X002446Y003301D01*
X002513Y003280D01*
X002578Y003255D01*
X002642Y003226D01*
X002705Y003194D01*
X002765Y003158D01*
X002823Y003119D01*
X002879Y003077D01*
X002933Y003032D01*
X002984Y002984D01*
X003032Y002933D01*
X003077Y002879D01*
X003119Y002823D01*
X003158Y002765D01*
X003194Y002705D01*
X003226Y002642D01*
X003255Y002578D01*
X003280Y002513D01*
X003301Y002446D01*
X003319Y002378D01*
X003332Y002309D01*
X003342Y002240D01*
X003348Y002170D01*
X003350Y002100D01*
X003348Y002030D01*
X003342Y001960D01*
X003332Y001891D01*
X003319Y001822D01*
X003301Y001754D01*
X003280Y001687D01*
X003255Y001622D01*
X003226Y001558D01*
X003194Y001495D01*
X003158Y001435D01*
X003119Y001377D01*
X003077Y001321D01*
X003032Y001267D01*
X002984Y001216D01*
X002933Y001168D01*
X002879Y001123D01*
X002823Y001081D01*
X002765Y001042D01*
X002705Y001006D01*
X002642Y000974D01*
X002578Y000945D01*
X002513Y000920D01*
X002446Y000899D01*
X002378Y000881D01*
X002309Y000868D01*
X002240Y000858D01*
X002170Y000852D01*
X002100Y000850D01*
X002030Y000852D01*
X001960Y000858D01*
X001891Y000868D01*
X001822Y000881D01*
X001754Y000899D01*
X001687Y000920D01*
X001622Y000945D01*
X001558Y000974D01*
X001495Y001006D01*
X001435Y001042D01*
X001377Y001081D01*
X001321Y001123D01*
X001267Y001168D01*
X001216Y001216D01*
X001168Y001267D01*
X001123Y001321D01*
X001081Y001377D01*
X001042Y001435D01*
X001006Y001495D01*
X000974Y001558D01*
X000945Y001622D01*
X000920Y001687D01*
X000899Y001754D01*
X000881Y001822D01*
X000868Y001891D01*
X000858Y001960D01*
X000852Y002030D01*
X000850Y002100D01*
M02*
