%
M48
M72
T01C0.0157
T02C0.0197
T03C0.0236
T04C0.0276
T05C0.0315
T06C0.0354
T07C0.0394
T08C0.0433
T09C0.0472
T10C0.0512
T11C0.0551
T12C0.0591
T13C0.0630
T14C0.0669
T15C0.0709
T16C0.0748
T17C0.0787
T18C0.0827
T19C0.0866
T20C0.0906
T21C0.1181
T22C0.2500
%
T01
X4855Y525
T02
X5643Y525
T03
X6430Y525
T04
X7218Y525
T05
X8005Y525
T06
X8792Y525
T07
X9580Y525
T08
X10485Y643
T09
X11470Y643
T10
X12454Y643
T11
X13438Y643
T12
X14422Y643
T13
X15407Y682
T14
X16548Y800
T15
X17769Y800
T16
X18989Y800
T17
X5052Y3281
T18
X8005Y3281
T19
X10958Y3281
T20
X13911Y3281
T21
X17060Y3163
T22
X2100Y2100
M30
