G75*
G70*
%OFA0B0*%
%FSLAX24Y24*%
%IPPOS*%
%LPD*%
%AMOC8*
5,1,8,0,0,1.08239X$1,22.5*
%
%ADD10C,0.0000*%
%ADD11C,0.2540*%
%ADD12R,1.9685X0.0098*%
D10*
X000131Y000131D02*
X000131Y019718D01*
X019816Y019718D01*
X019816Y000131D01*
X000131Y000131D01*
X000850Y002100D02*
X000852Y002170D01*
X000858Y002240D01*
X000868Y002309D01*
X000881Y002378D01*
X000899Y002446D01*
X000920Y002513D01*
X000945Y002578D01*
X000974Y002642D01*
X001006Y002705D01*
X001042Y002765D01*
X001081Y002823D01*
X001123Y002879D01*
X001168Y002933D01*
X001216Y002984D01*
X001267Y003032D01*
X001321Y003077D01*
X001377Y003119D01*
X001435Y003158D01*
X001495Y003194D01*
X001558Y003226D01*
X001622Y003255D01*
X001687Y003280D01*
X001754Y003301D01*
X001822Y003319D01*
X001891Y003332D01*
X001960Y003342D01*
X002030Y003348D01*
X002100Y003350D01*
X002170Y003348D01*
X002240Y003342D01*
X002309Y003332D01*
X002378Y003319D01*
X002446Y003301D01*
X002513Y003280D01*
X002578Y003255D01*
X002642Y003226D01*
X002705Y003194D01*
X002765Y003158D01*
X002823Y003119D01*
X002879Y003077D01*
X002933Y003032D01*
X002984Y002984D01*
X003032Y002933D01*
X003077Y002879D01*
X003119Y002823D01*
X003158Y002765D01*
X003194Y002705D01*
X003226Y002642D01*
X003255Y002578D01*
X003280Y002513D01*
X003301Y002446D01*
X003319Y002378D01*
X003332Y002309D01*
X003342Y002240D01*
X003348Y002170D01*
X003350Y002100D01*
X003348Y002030D01*
X003342Y001960D01*
X003332Y001891D01*
X003319Y001822D01*
X003301Y001754D01*
X003280Y001687D01*
X003255Y001622D01*
X003226Y001558D01*
X003194Y001495D01*
X003158Y001435D01*
X003119Y001377D01*
X003077Y001321D01*
X003032Y001267D01*
X002984Y001216D01*
X002933Y001168D01*
X002879Y001123D01*
X002823Y001081D01*
X002765Y001042D01*
X002705Y001006D01*
X002642Y000974D01*
X002578Y000945D01*
X002513Y000920D01*
X002446Y000899D01*
X002378Y000881D01*
X002309Y000868D01*
X002240Y000858D01*
X002170Y000852D01*
X002100Y000850D01*
X002030Y000852D01*
X001960Y000858D01*
X001891Y000868D01*
X001822Y000881D01*
X001754Y000899D01*
X001687Y000920D01*
X001622Y000945D01*
X001558Y000974D01*
X001495Y001006D01*
X001435Y001042D01*
X001377Y001081D01*
X001321Y001123D01*
X001267Y001168D01*
X001216Y001216D01*
X001168Y001267D01*
X001123Y001321D01*
X001081Y001377D01*
X001042Y001435D01*
X001006Y001495D01*
X000974Y001558D01*
X000945Y001622D01*
X000920Y001687D01*
X000899Y001754D01*
X000881Y001822D01*
X000868Y001891D01*
X000858Y001960D01*
X000852Y002030D01*
X000850Y002100D01*
X000850Y006037D02*
X000852Y006107D01*
X000858Y006177D01*
X000868Y006246D01*
X000881Y006315D01*
X000899Y006383D01*
X000920Y006450D01*
X000945Y006515D01*
X000974Y006579D01*
X001006Y006642D01*
X001042Y006702D01*
X001081Y006760D01*
X001123Y006816D01*
X001168Y006870D01*
X001216Y006921D01*
X001267Y006969D01*
X001321Y007014D01*
X001377Y007056D01*
X001435Y007095D01*
X001495Y007131D01*
X001558Y007163D01*
X001622Y007192D01*
X001687Y007217D01*
X001754Y007238D01*
X001822Y007256D01*
X001891Y007269D01*
X001960Y007279D01*
X002030Y007285D01*
X002100Y007287D01*
X002170Y007285D01*
X002240Y007279D01*
X002309Y007269D01*
X002378Y007256D01*
X002446Y007238D01*
X002513Y007217D01*
X002578Y007192D01*
X002642Y007163D01*
X002705Y007131D01*
X002765Y007095D01*
X002823Y007056D01*
X002879Y007014D01*
X002933Y006969D01*
X002984Y006921D01*
X003032Y006870D01*
X003077Y006816D01*
X003119Y006760D01*
X003158Y006702D01*
X003194Y006642D01*
X003226Y006579D01*
X003255Y006515D01*
X003280Y006450D01*
X003301Y006383D01*
X003319Y006315D01*
X003332Y006246D01*
X003342Y006177D01*
X003348Y006107D01*
X003350Y006037D01*
X003348Y005967D01*
X003342Y005897D01*
X003332Y005828D01*
X003319Y005759D01*
X003301Y005691D01*
X003280Y005624D01*
X003255Y005559D01*
X003226Y005495D01*
X003194Y005432D01*
X003158Y005372D01*
X003119Y005314D01*
X003077Y005258D01*
X003032Y005204D01*
X002984Y005153D01*
X002933Y005105D01*
X002879Y005060D01*
X002823Y005018D01*
X002765Y004979D01*
X002705Y004943D01*
X002642Y004911D01*
X002578Y004882D01*
X002513Y004857D01*
X002446Y004836D01*
X002378Y004818D01*
X002309Y004805D01*
X002240Y004795D01*
X002170Y004789D01*
X002100Y004787D01*
X002030Y004789D01*
X001960Y004795D01*
X001891Y004805D01*
X001822Y004818D01*
X001754Y004836D01*
X001687Y004857D01*
X001622Y004882D01*
X001558Y004911D01*
X001495Y004943D01*
X001435Y004979D01*
X001377Y005018D01*
X001321Y005060D01*
X001267Y005105D01*
X001216Y005153D01*
X001168Y005204D01*
X001123Y005258D01*
X001081Y005314D01*
X001042Y005372D01*
X001006Y005432D01*
X000974Y005495D01*
X000945Y005559D01*
X000920Y005624D01*
X000899Y005691D01*
X000881Y005759D01*
X000868Y005828D01*
X000858Y005897D01*
X000852Y005967D01*
X000850Y006037D01*
X000850Y009974D02*
X000852Y010044D01*
X000858Y010114D01*
X000868Y010183D01*
X000881Y010252D01*
X000899Y010320D01*
X000920Y010387D01*
X000945Y010452D01*
X000974Y010516D01*
X001006Y010579D01*
X001042Y010639D01*
X001081Y010697D01*
X001123Y010753D01*
X001168Y010807D01*
X001216Y010858D01*
X001267Y010906D01*
X001321Y010951D01*
X001377Y010993D01*
X001435Y011032D01*
X001495Y011068D01*
X001558Y011100D01*
X001622Y011129D01*
X001687Y011154D01*
X001754Y011175D01*
X001822Y011193D01*
X001891Y011206D01*
X001960Y011216D01*
X002030Y011222D01*
X002100Y011224D01*
X002170Y011222D01*
X002240Y011216D01*
X002309Y011206D01*
X002378Y011193D01*
X002446Y011175D01*
X002513Y011154D01*
X002578Y011129D01*
X002642Y011100D01*
X002705Y011068D01*
X002765Y011032D01*
X002823Y010993D01*
X002879Y010951D01*
X002933Y010906D01*
X002984Y010858D01*
X003032Y010807D01*
X003077Y010753D01*
X003119Y010697D01*
X003158Y010639D01*
X003194Y010579D01*
X003226Y010516D01*
X003255Y010452D01*
X003280Y010387D01*
X003301Y010320D01*
X003319Y010252D01*
X003332Y010183D01*
X003342Y010114D01*
X003348Y010044D01*
X003350Y009974D01*
X003348Y009904D01*
X003342Y009834D01*
X003332Y009765D01*
X003319Y009696D01*
X003301Y009628D01*
X003280Y009561D01*
X003255Y009496D01*
X003226Y009432D01*
X003194Y009369D01*
X003158Y009309D01*
X003119Y009251D01*
X003077Y009195D01*
X003032Y009141D01*
X002984Y009090D01*
X002933Y009042D01*
X002879Y008997D01*
X002823Y008955D01*
X002765Y008916D01*
X002705Y008880D01*
X002642Y008848D01*
X002578Y008819D01*
X002513Y008794D01*
X002446Y008773D01*
X002378Y008755D01*
X002309Y008742D01*
X002240Y008732D01*
X002170Y008726D01*
X002100Y008724D01*
X002030Y008726D01*
X001960Y008732D01*
X001891Y008742D01*
X001822Y008755D01*
X001754Y008773D01*
X001687Y008794D01*
X001622Y008819D01*
X001558Y008848D01*
X001495Y008880D01*
X001435Y008916D01*
X001377Y008955D01*
X001321Y008997D01*
X001267Y009042D01*
X001216Y009090D01*
X001168Y009141D01*
X001123Y009195D01*
X001081Y009251D01*
X001042Y009309D01*
X001006Y009369D01*
X000974Y009432D01*
X000945Y009496D01*
X000920Y009561D01*
X000899Y009628D01*
X000881Y009696D01*
X000868Y009765D01*
X000858Y009834D01*
X000852Y009904D01*
X000850Y009974D01*
X000850Y013911D02*
X000852Y013981D01*
X000858Y014051D01*
X000868Y014120D01*
X000881Y014189D01*
X000899Y014257D01*
X000920Y014324D01*
X000945Y014389D01*
X000974Y014453D01*
X001006Y014516D01*
X001042Y014576D01*
X001081Y014634D01*
X001123Y014690D01*
X001168Y014744D01*
X001216Y014795D01*
X001267Y014843D01*
X001321Y014888D01*
X001377Y014930D01*
X001435Y014969D01*
X001495Y015005D01*
X001558Y015037D01*
X001622Y015066D01*
X001687Y015091D01*
X001754Y015112D01*
X001822Y015130D01*
X001891Y015143D01*
X001960Y015153D01*
X002030Y015159D01*
X002100Y015161D01*
X002170Y015159D01*
X002240Y015153D01*
X002309Y015143D01*
X002378Y015130D01*
X002446Y015112D01*
X002513Y015091D01*
X002578Y015066D01*
X002642Y015037D01*
X002705Y015005D01*
X002765Y014969D01*
X002823Y014930D01*
X002879Y014888D01*
X002933Y014843D01*
X002984Y014795D01*
X003032Y014744D01*
X003077Y014690D01*
X003119Y014634D01*
X003158Y014576D01*
X003194Y014516D01*
X003226Y014453D01*
X003255Y014389D01*
X003280Y014324D01*
X003301Y014257D01*
X003319Y014189D01*
X003332Y014120D01*
X003342Y014051D01*
X003348Y013981D01*
X003350Y013911D01*
X003348Y013841D01*
X003342Y013771D01*
X003332Y013702D01*
X003319Y013633D01*
X003301Y013565D01*
X003280Y013498D01*
X003255Y013433D01*
X003226Y013369D01*
X003194Y013306D01*
X003158Y013246D01*
X003119Y013188D01*
X003077Y013132D01*
X003032Y013078D01*
X002984Y013027D01*
X002933Y012979D01*
X002879Y012934D01*
X002823Y012892D01*
X002765Y012853D01*
X002705Y012817D01*
X002642Y012785D01*
X002578Y012756D01*
X002513Y012731D01*
X002446Y012710D01*
X002378Y012692D01*
X002309Y012679D01*
X002240Y012669D01*
X002170Y012663D01*
X002100Y012661D01*
X002030Y012663D01*
X001960Y012669D01*
X001891Y012679D01*
X001822Y012692D01*
X001754Y012710D01*
X001687Y012731D01*
X001622Y012756D01*
X001558Y012785D01*
X001495Y012817D01*
X001435Y012853D01*
X001377Y012892D01*
X001321Y012934D01*
X001267Y012979D01*
X001216Y013027D01*
X001168Y013078D01*
X001123Y013132D01*
X001081Y013188D01*
X001042Y013246D01*
X001006Y013306D01*
X000974Y013369D01*
X000945Y013433D01*
X000920Y013498D01*
X000899Y013565D01*
X000881Y013633D01*
X000868Y013702D01*
X000858Y013771D01*
X000852Y013841D01*
X000850Y013911D01*
X000850Y017848D02*
X000852Y017918D01*
X000858Y017988D01*
X000868Y018057D01*
X000881Y018126D01*
X000899Y018194D01*
X000920Y018261D01*
X000945Y018326D01*
X000974Y018390D01*
X001006Y018453D01*
X001042Y018513D01*
X001081Y018571D01*
X001123Y018627D01*
X001168Y018681D01*
X001216Y018732D01*
X001267Y018780D01*
X001321Y018825D01*
X001377Y018867D01*
X001435Y018906D01*
X001495Y018942D01*
X001558Y018974D01*
X001622Y019003D01*
X001687Y019028D01*
X001754Y019049D01*
X001822Y019067D01*
X001891Y019080D01*
X001960Y019090D01*
X002030Y019096D01*
X002100Y019098D01*
X002170Y019096D01*
X002240Y019090D01*
X002309Y019080D01*
X002378Y019067D01*
X002446Y019049D01*
X002513Y019028D01*
X002578Y019003D01*
X002642Y018974D01*
X002705Y018942D01*
X002765Y018906D01*
X002823Y018867D01*
X002879Y018825D01*
X002933Y018780D01*
X002984Y018732D01*
X003032Y018681D01*
X003077Y018627D01*
X003119Y018571D01*
X003158Y018513D01*
X003194Y018453D01*
X003226Y018390D01*
X003255Y018326D01*
X003280Y018261D01*
X003301Y018194D01*
X003319Y018126D01*
X003332Y018057D01*
X003342Y017988D01*
X003348Y017918D01*
X003350Y017848D01*
X003348Y017778D01*
X003342Y017708D01*
X003332Y017639D01*
X003319Y017570D01*
X003301Y017502D01*
X003280Y017435D01*
X003255Y017370D01*
X003226Y017306D01*
X003194Y017243D01*
X003158Y017183D01*
X003119Y017125D01*
X003077Y017069D01*
X003032Y017015D01*
X002984Y016964D01*
X002933Y016916D01*
X002879Y016871D01*
X002823Y016829D01*
X002765Y016790D01*
X002705Y016754D01*
X002642Y016722D01*
X002578Y016693D01*
X002513Y016668D01*
X002446Y016647D01*
X002378Y016629D01*
X002309Y016616D01*
X002240Y016606D01*
X002170Y016600D01*
X002100Y016598D01*
X002030Y016600D01*
X001960Y016606D01*
X001891Y016616D01*
X001822Y016629D01*
X001754Y016647D01*
X001687Y016668D01*
X001622Y016693D01*
X001558Y016722D01*
X001495Y016754D01*
X001435Y016790D01*
X001377Y016829D01*
X001321Y016871D01*
X001267Y016916D01*
X001216Y016964D01*
X001168Y017015D01*
X001123Y017069D01*
X001081Y017125D01*
X001042Y017183D01*
X001006Y017243D01*
X000974Y017306D01*
X000945Y017370D01*
X000920Y017435D01*
X000899Y017502D01*
X000881Y017570D01*
X000868Y017639D01*
X000858Y017708D01*
X000852Y017778D01*
X000850Y017848D01*
D11*
X002100Y017848D03*
X002100Y013911D03*
X002100Y009974D03*
X002100Y006037D03*
X002100Y002100D03*
D12*
X009974Y004019D03*
X009974Y007956D03*
X009974Y011893D03*
X009974Y015830D03*
M02*
