G75*
G70*
%OFA0B0*%
%FSLAX24Y24*%
%IPPOS*%
%LPD*%
%AMOC8*
5,1,8,0,0,1.08239X$1,22.5*
%
%ADD10C,0.0000*%
%ADD11R,0.0551X0.0551*%
%ADD12R,0.0591X0.0591*%
%ADD13R,0.0866X0.0866*%
%ADD14R,0.0886X0.0886*%
%ADD15R,0.0945X0.0945*%
%ADD16R,0.1142X0.1142*%
%ADD17R,0.1181X0.1181*%
%ADD18R,0.1227X0.1227*%
%ADD19R,0.1266X0.1266*%
%ADD20R,0.1339X0.1339*%
%ADD21R,0.1581X0.1581*%
%ADD22C,0.0060*%
D10*
X000131Y000131D02*
X000131Y016470D01*
X019816Y016470D01*
X019816Y000131D01*
X000131Y000131D01*
X000850Y002100D02*
X000852Y002170D01*
X000858Y002240D01*
X000868Y002309D01*
X000881Y002378D01*
X000899Y002446D01*
X000920Y002513D01*
X000945Y002578D01*
X000974Y002642D01*
X001006Y002705D01*
X001042Y002765D01*
X001081Y002823D01*
X001123Y002879D01*
X001168Y002933D01*
X001216Y002984D01*
X001267Y003032D01*
X001321Y003077D01*
X001377Y003119D01*
X001435Y003158D01*
X001495Y003194D01*
X001558Y003226D01*
X001622Y003255D01*
X001687Y003280D01*
X001754Y003301D01*
X001822Y003319D01*
X001891Y003332D01*
X001960Y003342D01*
X002030Y003348D01*
X002100Y003350D01*
X002170Y003348D01*
X002240Y003342D01*
X002309Y003332D01*
X002378Y003319D01*
X002446Y003301D01*
X002513Y003280D01*
X002578Y003255D01*
X002642Y003226D01*
X002705Y003194D01*
X002765Y003158D01*
X002823Y003119D01*
X002879Y003077D01*
X002933Y003032D01*
X002984Y002984D01*
X003032Y002933D01*
X003077Y002879D01*
X003119Y002823D01*
X003158Y002765D01*
X003194Y002705D01*
X003226Y002642D01*
X003255Y002578D01*
X003280Y002513D01*
X003301Y002446D01*
X003319Y002378D01*
X003332Y002309D01*
X003342Y002240D01*
X003348Y002170D01*
X003350Y002100D01*
X003348Y002030D01*
X003342Y001960D01*
X003332Y001891D01*
X003319Y001822D01*
X003301Y001754D01*
X003280Y001687D01*
X003255Y001622D01*
X003226Y001558D01*
X003194Y001495D01*
X003158Y001435D01*
X003119Y001377D01*
X003077Y001321D01*
X003032Y001267D01*
X002984Y001216D01*
X002933Y001168D01*
X002879Y001123D01*
X002823Y001081D01*
X002765Y001042D01*
X002705Y001006D01*
X002642Y000974D01*
X002578Y000945D01*
X002513Y000920D01*
X002446Y000899D01*
X002378Y000881D01*
X002309Y000868D01*
X002240Y000858D01*
X002170Y000852D01*
X002100Y000850D01*
X002030Y000852D01*
X001960Y000858D01*
X001891Y000868D01*
X001822Y000881D01*
X001754Y000899D01*
X001687Y000920D01*
X001622Y000945D01*
X001558Y000974D01*
X001495Y001006D01*
X001435Y001042D01*
X001377Y001081D01*
X001321Y001123D01*
X001267Y001168D01*
X001216Y001216D01*
X001168Y001267D01*
X001123Y001321D01*
X001081Y001377D01*
X001042Y001435D01*
X001006Y001495D01*
X000974Y001558D01*
X000945Y001622D01*
X000920Y001687D01*
X000899Y001754D01*
X000881Y001822D01*
X000868Y001891D01*
X000858Y001960D01*
X000852Y002030D01*
X000850Y002100D01*
X000850Y006233D02*
X000852Y006303D01*
X000858Y006373D01*
X000868Y006442D01*
X000881Y006511D01*
X000899Y006579D01*
X000920Y006646D01*
X000945Y006711D01*
X000974Y006775D01*
X001006Y006838D01*
X001042Y006898D01*
X001081Y006956D01*
X001123Y007012D01*
X001168Y007066D01*
X001216Y007117D01*
X001267Y007165D01*
X001321Y007210D01*
X001377Y007252D01*
X001435Y007291D01*
X001495Y007327D01*
X001558Y007359D01*
X001622Y007388D01*
X001687Y007413D01*
X001754Y007434D01*
X001822Y007452D01*
X001891Y007465D01*
X001960Y007475D01*
X002030Y007481D01*
X002100Y007483D01*
X002170Y007481D01*
X002240Y007475D01*
X002309Y007465D01*
X002378Y007452D01*
X002446Y007434D01*
X002513Y007413D01*
X002578Y007388D01*
X002642Y007359D01*
X002705Y007327D01*
X002765Y007291D01*
X002823Y007252D01*
X002879Y007210D01*
X002933Y007165D01*
X002984Y007117D01*
X003032Y007066D01*
X003077Y007012D01*
X003119Y006956D01*
X003158Y006898D01*
X003194Y006838D01*
X003226Y006775D01*
X003255Y006711D01*
X003280Y006646D01*
X003301Y006579D01*
X003319Y006511D01*
X003332Y006442D01*
X003342Y006373D01*
X003348Y006303D01*
X003350Y006233D01*
X003348Y006163D01*
X003342Y006093D01*
X003332Y006024D01*
X003319Y005955D01*
X003301Y005887D01*
X003280Y005820D01*
X003255Y005755D01*
X003226Y005691D01*
X003194Y005628D01*
X003158Y005568D01*
X003119Y005510D01*
X003077Y005454D01*
X003032Y005400D01*
X002984Y005349D01*
X002933Y005301D01*
X002879Y005256D01*
X002823Y005214D01*
X002765Y005175D01*
X002705Y005139D01*
X002642Y005107D01*
X002578Y005078D01*
X002513Y005053D01*
X002446Y005032D01*
X002378Y005014D01*
X002309Y005001D01*
X002240Y004991D01*
X002170Y004985D01*
X002100Y004983D01*
X002030Y004985D01*
X001960Y004991D01*
X001891Y005001D01*
X001822Y005014D01*
X001754Y005032D01*
X001687Y005053D01*
X001622Y005078D01*
X001558Y005107D01*
X001495Y005139D01*
X001435Y005175D01*
X001377Y005214D01*
X001321Y005256D01*
X001267Y005301D01*
X001216Y005349D01*
X001168Y005400D01*
X001123Y005454D01*
X001081Y005510D01*
X001042Y005568D01*
X001006Y005628D01*
X000974Y005691D01*
X000945Y005755D01*
X000920Y005820D01*
X000899Y005887D01*
X000881Y005955D01*
X000868Y006024D01*
X000858Y006093D01*
X000852Y006163D01*
X000850Y006233D01*
X000850Y010367D02*
X000852Y010437D01*
X000858Y010507D01*
X000868Y010576D01*
X000881Y010645D01*
X000899Y010713D01*
X000920Y010780D01*
X000945Y010845D01*
X000974Y010909D01*
X001006Y010972D01*
X001042Y011032D01*
X001081Y011090D01*
X001123Y011146D01*
X001168Y011200D01*
X001216Y011251D01*
X001267Y011299D01*
X001321Y011344D01*
X001377Y011386D01*
X001435Y011425D01*
X001495Y011461D01*
X001558Y011493D01*
X001622Y011522D01*
X001687Y011547D01*
X001754Y011568D01*
X001822Y011586D01*
X001891Y011599D01*
X001960Y011609D01*
X002030Y011615D01*
X002100Y011617D01*
X002170Y011615D01*
X002240Y011609D01*
X002309Y011599D01*
X002378Y011586D01*
X002446Y011568D01*
X002513Y011547D01*
X002578Y011522D01*
X002642Y011493D01*
X002705Y011461D01*
X002765Y011425D01*
X002823Y011386D01*
X002879Y011344D01*
X002933Y011299D01*
X002984Y011251D01*
X003032Y011200D01*
X003077Y011146D01*
X003119Y011090D01*
X003158Y011032D01*
X003194Y010972D01*
X003226Y010909D01*
X003255Y010845D01*
X003280Y010780D01*
X003301Y010713D01*
X003319Y010645D01*
X003332Y010576D01*
X003342Y010507D01*
X003348Y010437D01*
X003350Y010367D01*
X003348Y010297D01*
X003342Y010227D01*
X003332Y010158D01*
X003319Y010089D01*
X003301Y010021D01*
X003280Y009954D01*
X003255Y009889D01*
X003226Y009825D01*
X003194Y009762D01*
X003158Y009702D01*
X003119Y009644D01*
X003077Y009588D01*
X003032Y009534D01*
X002984Y009483D01*
X002933Y009435D01*
X002879Y009390D01*
X002823Y009348D01*
X002765Y009309D01*
X002705Y009273D01*
X002642Y009241D01*
X002578Y009212D01*
X002513Y009187D01*
X002446Y009166D01*
X002378Y009148D01*
X002309Y009135D01*
X002240Y009125D01*
X002170Y009119D01*
X002100Y009117D01*
X002030Y009119D01*
X001960Y009125D01*
X001891Y009135D01*
X001822Y009148D01*
X001754Y009166D01*
X001687Y009187D01*
X001622Y009212D01*
X001558Y009241D01*
X001495Y009273D01*
X001435Y009309D01*
X001377Y009348D01*
X001321Y009390D01*
X001267Y009435D01*
X001216Y009483D01*
X001168Y009534D01*
X001123Y009588D01*
X001081Y009644D01*
X001042Y009702D01*
X001006Y009762D01*
X000974Y009825D01*
X000945Y009889D01*
X000920Y009954D01*
X000899Y010021D01*
X000881Y010089D01*
X000868Y010158D01*
X000858Y010227D01*
X000852Y010297D01*
X000850Y010367D01*
X000850Y014501D02*
X000852Y014571D01*
X000858Y014641D01*
X000868Y014710D01*
X000881Y014779D01*
X000899Y014847D01*
X000920Y014914D01*
X000945Y014979D01*
X000974Y015043D01*
X001006Y015106D01*
X001042Y015166D01*
X001081Y015224D01*
X001123Y015280D01*
X001168Y015334D01*
X001216Y015385D01*
X001267Y015433D01*
X001321Y015478D01*
X001377Y015520D01*
X001435Y015559D01*
X001495Y015595D01*
X001558Y015627D01*
X001622Y015656D01*
X001687Y015681D01*
X001754Y015702D01*
X001822Y015720D01*
X001891Y015733D01*
X001960Y015743D01*
X002030Y015749D01*
X002100Y015751D01*
X002170Y015749D01*
X002240Y015743D01*
X002309Y015733D01*
X002378Y015720D01*
X002446Y015702D01*
X002513Y015681D01*
X002578Y015656D01*
X002642Y015627D01*
X002705Y015595D01*
X002765Y015559D01*
X002823Y015520D01*
X002879Y015478D01*
X002933Y015433D01*
X002984Y015385D01*
X003032Y015334D01*
X003077Y015280D01*
X003119Y015224D01*
X003158Y015166D01*
X003194Y015106D01*
X003226Y015043D01*
X003255Y014979D01*
X003280Y014914D01*
X003301Y014847D01*
X003319Y014779D01*
X003332Y014710D01*
X003342Y014641D01*
X003348Y014571D01*
X003350Y014501D01*
X003348Y014431D01*
X003342Y014361D01*
X003332Y014292D01*
X003319Y014223D01*
X003301Y014155D01*
X003280Y014088D01*
X003255Y014023D01*
X003226Y013959D01*
X003194Y013896D01*
X003158Y013836D01*
X003119Y013778D01*
X003077Y013722D01*
X003032Y013668D01*
X002984Y013617D01*
X002933Y013569D01*
X002879Y013524D01*
X002823Y013482D01*
X002765Y013443D01*
X002705Y013407D01*
X002642Y013375D01*
X002578Y013346D01*
X002513Y013321D01*
X002446Y013300D01*
X002378Y013282D01*
X002309Y013269D01*
X002240Y013259D01*
X002170Y013253D01*
X002100Y013251D01*
X002030Y013253D01*
X001960Y013259D01*
X001891Y013269D01*
X001822Y013282D01*
X001754Y013300D01*
X001687Y013321D01*
X001622Y013346D01*
X001558Y013375D01*
X001495Y013407D01*
X001435Y013443D01*
X001377Y013482D01*
X001321Y013524D01*
X001267Y013569D01*
X001216Y013617D01*
X001168Y013668D01*
X001123Y013722D01*
X001081Y013778D01*
X001042Y013836D01*
X001006Y013896D01*
X000974Y013959D01*
X000945Y014023D01*
X000920Y014088D01*
X000899Y014155D01*
X000881Y014223D01*
X000868Y014292D01*
X000858Y014361D01*
X000852Y014431D01*
X000850Y014501D01*
D11*
X004855Y012926D03*
X005643Y012926D03*
X006430Y012926D03*
X007218Y012926D03*
X008005Y012926D03*
X008792Y012926D03*
X008792Y008792D03*
X008005Y008792D03*
X007218Y008792D03*
X006430Y008792D03*
X005643Y008792D03*
X004855Y008792D03*
X004855Y004659D03*
X005643Y004659D03*
X006430Y004659D03*
X007218Y004659D03*
X008005Y004659D03*
X008792Y004659D03*
X008792Y000525D03*
X008005Y000525D03*
X007218Y000525D03*
X006430Y000525D03*
X005643Y000525D03*
X004855Y000525D03*
D12*
X009580Y000525D03*
X009580Y004659D03*
X009580Y008792D03*
X009580Y012926D03*
D13*
X010485Y013044D03*
X011470Y013044D03*
X012454Y013044D03*
X013438Y013044D03*
X013438Y008911D03*
X012454Y008911D03*
X011470Y008911D03*
X010485Y008911D03*
X010485Y004777D03*
X011470Y004777D03*
X012454Y004777D03*
X013438Y004777D03*
X013438Y000643D03*
X012454Y000643D03*
X011470Y000643D03*
X010485Y000643D03*
D14*
X014422Y000643D03*
X014422Y004777D03*
X014422Y008911D03*
X014422Y013044D03*
D15*
X015407Y013084D03*
X015407Y008950D03*
X015407Y004816D03*
X015407Y000682D03*
D16*
X016548Y000800D03*
X017769Y000800D03*
X018989Y000800D03*
X018989Y004934D03*
X017769Y004934D03*
X016548Y004934D03*
X016548Y009068D03*
X017769Y009068D03*
X018989Y009068D03*
X018989Y013202D03*
X017769Y013202D03*
X016548Y013202D03*
D17*
X005052Y011548D03*
X005052Y007414D03*
X005052Y003281D03*
X005052Y015682D03*
D18*
X008005Y015682D03*
X008005Y011548D03*
X008005Y007414D03*
X008005Y003281D03*
D19*
X010958Y003281D03*
X010958Y007414D03*
X010958Y011548D03*
X010958Y015682D03*
D20*
X013911Y015682D03*
X013911Y011548D03*
X013911Y007414D03*
X013911Y003281D03*
D21*
X017060Y003163D03*
X017060Y007296D03*
X017060Y011430D03*
X017060Y015564D03*
D22*
X019686Y015586D02*
X002966Y015586D01*
X002947Y015605D02*
X002632Y015787D01*
X002281Y015881D01*
X001918Y015881D01*
X001567Y015787D01*
X001252Y015605D01*
X000995Y015348D01*
X000814Y015034D01*
X000720Y014683D01*
X000720Y014319D01*
X000814Y013968D01*
X000995Y013654D01*
X001252Y013397D01*
X001567Y013215D01*
X001918Y013121D01*
X002281Y013121D01*
X002632Y013215D01*
X002947Y013397D01*
X003204Y013654D01*
X003385Y013968D01*
X003479Y014319D01*
X003479Y014683D01*
X003385Y015034D01*
X003204Y015348D01*
X002947Y015605D01*
X002878Y015645D02*
X019686Y015645D01*
X019686Y015704D02*
X002777Y015704D01*
X002675Y015762D02*
X019686Y015762D01*
X019686Y015821D02*
X002507Y015821D01*
X002288Y015879D02*
X019686Y015879D01*
X019686Y015938D02*
X000261Y015938D01*
X000261Y015996D02*
X019686Y015996D01*
X019686Y016055D02*
X000261Y016055D01*
X000261Y016113D02*
X019686Y016113D01*
X019686Y016172D02*
X000261Y016172D01*
X000261Y016230D02*
X019686Y016230D01*
X019686Y016289D02*
X000261Y016289D01*
X000261Y016340D02*
X019686Y016340D01*
X019686Y012533D01*
X000261Y012533D01*
X000261Y016340D01*
X000261Y015879D02*
X001911Y015879D01*
X001692Y015821D02*
X000261Y015821D01*
X000261Y015762D02*
X001524Y015762D01*
X001422Y015704D02*
X000261Y015704D01*
X000261Y015645D02*
X001321Y015645D01*
X001233Y015586D02*
X000261Y015586D01*
X000261Y015528D02*
X001175Y015528D01*
X001116Y015469D02*
X000261Y015469D01*
X000261Y015411D02*
X001058Y015411D01*
X000999Y015352D02*
X000261Y015352D01*
X000261Y015294D02*
X000964Y015294D01*
X000930Y015235D02*
X000261Y015235D01*
X000261Y015177D02*
X000896Y015177D01*
X000862Y015118D02*
X000261Y015118D01*
X000261Y015060D02*
X000829Y015060D01*
X000805Y015001D02*
X000261Y015001D01*
X000261Y014942D02*
X000789Y014942D01*
X000773Y014884D02*
X000261Y014884D01*
X000261Y014825D02*
X000758Y014825D01*
X000742Y014767D02*
X000261Y014767D01*
X000261Y014708D02*
X000726Y014708D01*
X000720Y014650D02*
X000261Y014650D01*
X000261Y014591D02*
X000720Y014591D01*
X000720Y014533D02*
X000261Y014533D01*
X000261Y014474D02*
X000720Y014474D01*
X000720Y014416D02*
X000261Y014416D01*
X000261Y014357D02*
X000720Y014357D01*
X000725Y014299D02*
X000261Y014299D01*
X000261Y014240D02*
X000741Y014240D01*
X000756Y014181D02*
X000261Y014181D01*
X000261Y014123D02*
X000772Y014123D01*
X000788Y014064D02*
X000261Y014064D01*
X000261Y014006D02*
X000804Y014006D01*
X000826Y013947D02*
X000261Y013947D01*
X000261Y013889D02*
X000860Y013889D01*
X000893Y013830D02*
X000261Y013830D01*
X000261Y013772D02*
X000927Y013772D01*
X000961Y013713D02*
X000261Y013713D01*
X000261Y013655D02*
X000995Y013655D01*
X001053Y013596D02*
X000261Y013596D01*
X000261Y013537D02*
X001112Y013537D01*
X001170Y013479D02*
X000261Y013479D01*
X000261Y013420D02*
X001229Y013420D01*
X001313Y013362D02*
X000261Y013362D01*
X000261Y013303D02*
X001414Y013303D01*
X001516Y013245D02*
X000261Y013245D01*
X000261Y013186D02*
X001675Y013186D01*
X001893Y013128D02*
X000261Y013128D01*
X000261Y013069D02*
X019686Y013069D01*
X019686Y013011D02*
X000261Y013011D01*
X000261Y012952D02*
X019686Y012952D01*
X019686Y012893D02*
X000261Y012893D01*
X000261Y012835D02*
X019686Y012835D01*
X019686Y012776D02*
X000261Y012776D01*
X000261Y012718D02*
X019686Y012718D01*
X019686Y012659D02*
X000261Y012659D01*
X000261Y012601D02*
X019686Y012601D01*
X019686Y012542D02*
X000261Y012542D01*
X000261Y012207D02*
X019686Y012207D01*
X019686Y008399D01*
X000261Y008399D01*
X000261Y012207D01*
X000261Y012191D02*
X019686Y012191D01*
X019686Y012132D02*
X000261Y012132D01*
X000261Y012074D02*
X019686Y012074D01*
X019686Y012015D02*
X000261Y012015D01*
X000261Y011957D02*
X019686Y011957D01*
X019686Y011898D02*
X000261Y011898D01*
X000261Y011840D02*
X019686Y011840D01*
X019686Y011781D02*
X000261Y011781D01*
X000261Y011723D02*
X001826Y011723D01*
X001918Y011747D02*
X001567Y011653D01*
X001252Y011471D01*
X000995Y011215D01*
X000814Y010900D01*
X000720Y010549D01*
X000720Y010186D01*
X000814Y009835D01*
X000995Y009520D01*
X001252Y009263D01*
X001567Y009081D01*
X001918Y008987D01*
X002281Y008987D01*
X002632Y009081D01*
X002947Y009263D01*
X003204Y009520D01*
X003385Y009835D01*
X003479Y010186D01*
X003479Y010549D01*
X003385Y010900D01*
X003204Y011215D01*
X002947Y011471D01*
X002632Y011653D01*
X002281Y011747D01*
X001918Y011747D01*
X001608Y011664D02*
X000261Y011664D01*
X000261Y011606D02*
X001484Y011606D01*
X001383Y011547D02*
X000261Y011547D01*
X000261Y011488D02*
X001281Y011488D01*
X001211Y011430D02*
X000261Y011430D01*
X000261Y011371D02*
X001152Y011371D01*
X001093Y011313D02*
X000261Y011313D01*
X000261Y011254D02*
X001035Y011254D01*
X000984Y011196D02*
X000261Y011196D01*
X000261Y011137D02*
X000951Y011137D01*
X000917Y011079D02*
X000261Y011079D01*
X000261Y011020D02*
X000883Y011020D01*
X000849Y010962D02*
X000261Y010962D01*
X000261Y010903D02*
X000815Y010903D01*
X000799Y010844D02*
X000261Y010844D01*
X000261Y010786D02*
X000783Y010786D01*
X000767Y010727D02*
X000261Y010727D01*
X000261Y010669D02*
X000752Y010669D01*
X000736Y010610D02*
X000261Y010610D01*
X000261Y010552D02*
X000720Y010552D01*
X000720Y010493D02*
X000261Y010493D01*
X000261Y010435D02*
X000720Y010435D01*
X000720Y010376D02*
X000261Y010376D01*
X000261Y010318D02*
X000720Y010318D01*
X000720Y010259D02*
X000261Y010259D01*
X000261Y010200D02*
X000720Y010200D01*
X000731Y010142D02*
X000261Y010142D01*
X000261Y010083D02*
X000747Y010083D01*
X000763Y010025D02*
X000261Y010025D01*
X000261Y009966D02*
X000778Y009966D01*
X000794Y009908D02*
X000261Y009908D01*
X000261Y009849D02*
X000810Y009849D01*
X000839Y009791D02*
X000261Y009791D01*
X000261Y009732D02*
X000873Y009732D01*
X000906Y009674D02*
X000261Y009674D01*
X000261Y009615D02*
X000940Y009615D01*
X000974Y009556D02*
X000261Y009556D01*
X000261Y009498D02*
X001017Y009498D01*
X001076Y009439D02*
X000261Y009439D01*
X000261Y009381D02*
X001134Y009381D01*
X001193Y009322D02*
X000261Y009322D01*
X000261Y009264D02*
X001251Y009264D01*
X001352Y009205D02*
X000261Y009205D01*
X000261Y009147D02*
X001454Y009147D01*
X001555Y009088D02*
X000261Y009088D01*
X000261Y009030D02*
X001760Y009030D01*
X002439Y009030D02*
X019686Y009030D01*
X019686Y009088D02*
X002644Y009088D01*
X002745Y009147D02*
X019686Y009147D01*
X019686Y009205D02*
X002847Y009205D01*
X002948Y009264D02*
X019686Y009264D01*
X019686Y009322D02*
X003006Y009322D01*
X003065Y009381D02*
X019686Y009381D01*
X019686Y009439D02*
X003123Y009439D01*
X003182Y009498D02*
X019686Y009498D01*
X019686Y009556D02*
X003225Y009556D01*
X003259Y009615D02*
X019686Y009615D01*
X019686Y009674D02*
X003292Y009674D01*
X003326Y009732D02*
X019686Y009732D01*
X019686Y009791D02*
X003360Y009791D01*
X003389Y009849D02*
X019686Y009849D01*
X019686Y009908D02*
X003405Y009908D01*
X003421Y009966D02*
X019686Y009966D01*
X019686Y010025D02*
X003436Y010025D01*
X003452Y010083D02*
X019686Y010083D01*
X019686Y010142D02*
X003468Y010142D01*
X003479Y010200D02*
X019686Y010200D01*
X019686Y010259D02*
X003479Y010259D01*
X003479Y010318D02*
X019686Y010318D01*
X019686Y010376D02*
X003479Y010376D01*
X003479Y010435D02*
X019686Y010435D01*
X019686Y010493D02*
X003479Y010493D01*
X003479Y010552D02*
X019686Y010552D01*
X019686Y010610D02*
X003463Y010610D01*
X003447Y010669D02*
X019686Y010669D01*
X019686Y010727D02*
X003432Y010727D01*
X003416Y010786D02*
X019686Y010786D01*
X019686Y010844D02*
X003400Y010844D01*
X003384Y010903D02*
X019686Y010903D01*
X019686Y010962D02*
X003350Y010962D01*
X003316Y011020D02*
X019686Y011020D01*
X019686Y011079D02*
X003282Y011079D01*
X003248Y011137D02*
X019686Y011137D01*
X019686Y011196D02*
X003215Y011196D01*
X003164Y011254D02*
X019686Y011254D01*
X019686Y011313D02*
X003106Y011313D01*
X003047Y011371D02*
X019686Y011371D01*
X019686Y011430D02*
X002988Y011430D01*
X002918Y011488D02*
X019686Y011488D01*
X019686Y011547D02*
X002816Y011547D01*
X002715Y011606D02*
X019686Y011606D01*
X019686Y011664D02*
X002591Y011664D01*
X002373Y011723D02*
X019686Y011723D01*
X019686Y013128D02*
X002306Y013128D01*
X002524Y013186D02*
X019686Y013186D01*
X019686Y013245D02*
X002683Y013245D01*
X002785Y013303D02*
X019686Y013303D01*
X019686Y013362D02*
X002886Y013362D01*
X002970Y013420D02*
X019686Y013420D01*
X019686Y013479D02*
X003029Y013479D01*
X003087Y013537D02*
X019686Y013537D01*
X019686Y013596D02*
X003146Y013596D01*
X003204Y013655D02*
X019686Y013655D01*
X019686Y013713D02*
X003238Y013713D01*
X003272Y013772D02*
X019686Y013772D01*
X019686Y013830D02*
X003306Y013830D01*
X003339Y013889D02*
X019686Y013889D01*
X019686Y013947D02*
X003373Y013947D01*
X003395Y014006D02*
X019686Y014006D01*
X019686Y014064D02*
X003411Y014064D01*
X003427Y014123D02*
X019686Y014123D01*
X019686Y014181D02*
X003442Y014181D01*
X003458Y014240D02*
X019686Y014240D01*
X019686Y014299D02*
X003474Y014299D01*
X003479Y014357D02*
X019686Y014357D01*
X019686Y014416D02*
X003479Y014416D01*
X003479Y014474D02*
X019686Y014474D01*
X019686Y014533D02*
X003479Y014533D01*
X003479Y014591D02*
X019686Y014591D01*
X019686Y014650D02*
X003479Y014650D01*
X003473Y014708D02*
X019686Y014708D01*
X019686Y014767D02*
X003457Y014767D01*
X003441Y014825D02*
X019686Y014825D01*
X019686Y014884D02*
X003426Y014884D01*
X003410Y014942D02*
X019686Y014942D01*
X019686Y015001D02*
X003394Y015001D01*
X003371Y015060D02*
X019686Y015060D01*
X019686Y015118D02*
X003337Y015118D01*
X003303Y015177D02*
X019686Y015177D01*
X019686Y015235D02*
X003269Y015235D01*
X003235Y015294D02*
X019686Y015294D01*
X019686Y015352D02*
X003200Y015352D01*
X003141Y015411D02*
X019686Y015411D01*
X019686Y015469D02*
X003083Y015469D01*
X003024Y015528D02*
X019686Y015528D01*
X019686Y008971D02*
X000261Y008971D01*
X000261Y008913D02*
X019686Y008913D01*
X019686Y008854D02*
X000261Y008854D01*
X000261Y008795D02*
X019686Y008795D01*
X019686Y008737D02*
X000261Y008737D01*
X000261Y008678D02*
X019686Y008678D01*
X019686Y008620D02*
X000261Y008620D01*
X000261Y008561D02*
X019686Y008561D01*
X019686Y008503D02*
X000261Y008503D01*
X000261Y008444D02*
X019686Y008444D01*
X019686Y008073D02*
X000261Y008073D01*
X000261Y004265D01*
X019686Y004265D01*
X019686Y008073D01*
X019686Y008034D02*
X000261Y008034D01*
X000261Y007976D02*
X019686Y007976D01*
X019686Y007917D02*
X000261Y007917D01*
X000261Y007859D02*
X019686Y007859D01*
X019686Y007800D02*
X000261Y007800D01*
X000261Y007742D02*
X019686Y007742D01*
X019686Y007683D02*
X000261Y007683D01*
X000261Y007625D02*
X019686Y007625D01*
X019686Y007566D02*
X002458Y007566D01*
X002632Y007519D02*
X002281Y007613D01*
X001918Y007613D01*
X001567Y007519D01*
X001252Y007338D01*
X000995Y007081D01*
X000814Y006766D01*
X000720Y006415D01*
X000720Y006052D01*
X000814Y005701D01*
X000995Y005386D01*
X001252Y005129D01*
X001567Y004947D01*
X001918Y004853D01*
X002281Y004853D01*
X002632Y004947D01*
X002947Y005129D01*
X003204Y005386D01*
X003385Y005701D01*
X003479Y006052D01*
X003479Y006415D01*
X003385Y006766D01*
X003204Y007081D01*
X002947Y007338D01*
X002632Y007519D01*
X002653Y007507D02*
X019686Y007507D01*
X019686Y007449D02*
X002754Y007449D01*
X002855Y007390D02*
X019686Y007390D01*
X019686Y007332D02*
X002953Y007332D01*
X003011Y007273D02*
X019686Y007273D01*
X019686Y007215D02*
X003070Y007215D01*
X003128Y007156D02*
X019686Y007156D01*
X019686Y007098D02*
X003187Y007098D01*
X003228Y007039D02*
X019686Y007039D01*
X019686Y006981D02*
X003262Y006981D01*
X003295Y006922D02*
X019686Y006922D01*
X019686Y006864D02*
X003329Y006864D01*
X003363Y006805D02*
X019686Y006805D01*
X019686Y006746D02*
X003391Y006746D01*
X003406Y006688D02*
X019686Y006688D01*
X019686Y006629D02*
X003422Y006629D01*
X003438Y006571D02*
X019686Y006571D01*
X019686Y006512D02*
X003453Y006512D01*
X003469Y006454D02*
X019686Y006454D01*
X019686Y006395D02*
X003479Y006395D01*
X003479Y006337D02*
X019686Y006337D01*
X019686Y006278D02*
X003479Y006278D01*
X003479Y006220D02*
X019686Y006220D01*
X019686Y006161D02*
X003479Y006161D01*
X003479Y006102D02*
X019686Y006102D01*
X019686Y006044D02*
X003477Y006044D01*
X003462Y005985D02*
X019686Y005985D01*
X019686Y005927D02*
X003446Y005927D01*
X003430Y005868D02*
X019686Y005868D01*
X019686Y005810D02*
X003415Y005810D01*
X003399Y005751D02*
X019686Y005751D01*
X019686Y005693D02*
X003381Y005693D01*
X003347Y005634D02*
X019686Y005634D01*
X019686Y005576D02*
X003313Y005576D01*
X003279Y005517D02*
X019686Y005517D01*
X019686Y005458D02*
X003246Y005458D01*
X003212Y005400D02*
X019686Y005400D01*
X019686Y005341D02*
X003159Y005341D01*
X003101Y005283D02*
X019686Y005283D01*
X019686Y005224D02*
X003042Y005224D01*
X002984Y005166D02*
X019686Y005166D01*
X019686Y005107D02*
X002909Y005107D01*
X002807Y005049D02*
X019686Y005049D01*
X019686Y004990D02*
X002706Y004990D01*
X002573Y004932D02*
X019686Y004932D01*
X019686Y004873D02*
X002354Y004873D01*
X001844Y004873D02*
X000261Y004873D01*
X000261Y004814D02*
X019686Y004814D01*
X019686Y004756D02*
X000261Y004756D01*
X000261Y004697D02*
X019686Y004697D01*
X019686Y004639D02*
X000261Y004639D01*
X000261Y004580D02*
X019686Y004580D01*
X019686Y004522D02*
X000261Y004522D01*
X000261Y004463D02*
X019686Y004463D01*
X019686Y004405D02*
X000261Y004405D01*
X000261Y004346D02*
X019686Y004346D01*
X019686Y004288D02*
X000261Y004288D01*
X000261Y003940D02*
X019686Y003940D01*
X019686Y000261D01*
X000261Y000261D01*
X000261Y003940D01*
X000261Y003936D02*
X019686Y003936D01*
X019686Y003878D02*
X000261Y003878D01*
X000261Y003819D02*
X019686Y003819D01*
X019686Y003761D02*
X000261Y003761D01*
X000261Y003702D02*
X019686Y003702D01*
X019686Y003644D02*
X000261Y003644D01*
X000261Y003585D02*
X019686Y003585D01*
X019686Y003527D02*
X000261Y003527D01*
X000261Y003468D02*
X001875Y003468D01*
X001918Y003479D02*
X001567Y003385D01*
X001252Y003204D01*
X000995Y002947D01*
X000814Y002632D01*
X000720Y002281D01*
X000720Y001918D01*
X000814Y001567D01*
X000995Y001252D01*
X001252Y000995D01*
X001567Y000814D01*
X001918Y000720D01*
X002281Y000720D01*
X002632Y000814D01*
X002947Y000995D01*
X003204Y001252D01*
X003385Y001567D01*
X003479Y001918D01*
X003479Y002281D01*
X003385Y002632D01*
X003204Y002947D01*
X002947Y003204D01*
X002632Y003385D01*
X002281Y003479D01*
X001918Y003479D01*
X001656Y003409D02*
X000261Y003409D01*
X000261Y003351D02*
X001507Y003351D01*
X001406Y003292D02*
X000261Y003292D01*
X000261Y003234D02*
X001304Y003234D01*
X001224Y003175D02*
X000261Y003175D01*
X000261Y003117D02*
X001165Y003117D01*
X001107Y003058D02*
X000261Y003058D01*
X000261Y003000D02*
X001048Y003000D01*
X000992Y002941D02*
X000261Y002941D01*
X000261Y002883D02*
X000958Y002883D01*
X000924Y002824D02*
X000261Y002824D01*
X000261Y002765D02*
X000891Y002765D01*
X000857Y002707D02*
X000261Y002707D01*
X000261Y002648D02*
X000823Y002648D01*
X000802Y002590D02*
X000261Y002590D01*
X000261Y002531D02*
X000787Y002531D01*
X000771Y002473D02*
X000261Y002473D01*
X000261Y002414D02*
X000755Y002414D01*
X000739Y002356D02*
X000261Y002356D01*
X000261Y002297D02*
X000724Y002297D01*
X000720Y002239D02*
X000261Y002239D01*
X000261Y002180D02*
X000720Y002180D01*
X000720Y002121D02*
X000261Y002121D01*
X000261Y002063D02*
X000720Y002063D01*
X000720Y002004D02*
X000261Y002004D01*
X000261Y001946D02*
X000720Y001946D01*
X000728Y001887D02*
X000261Y001887D01*
X000261Y001829D02*
X000743Y001829D01*
X000759Y001770D02*
X000261Y001770D01*
X000261Y001712D02*
X000775Y001712D01*
X000790Y001653D02*
X000261Y001653D01*
X000261Y001595D02*
X000806Y001595D01*
X000831Y001536D02*
X000261Y001536D01*
X000261Y001478D02*
X000865Y001478D01*
X000899Y001419D02*
X000261Y001419D01*
X000261Y001360D02*
X000933Y001360D01*
X000966Y001302D02*
X000261Y001302D01*
X000261Y001243D02*
X001004Y001243D01*
X001063Y001185D02*
X000261Y001185D01*
X000261Y001126D02*
X001121Y001126D01*
X001180Y001068D02*
X000261Y001068D01*
X000261Y001009D02*
X001238Y001009D01*
X001329Y000951D02*
X000261Y000951D01*
X000261Y000892D02*
X001431Y000892D01*
X001532Y000834D02*
X000261Y000834D01*
X000261Y000775D02*
X001711Y000775D01*
X002488Y000775D02*
X019686Y000775D01*
X019686Y000716D02*
X000261Y000716D01*
X000261Y000658D02*
X019686Y000658D01*
X019686Y000599D02*
X000261Y000599D01*
X000261Y000541D02*
X019686Y000541D01*
X019686Y000482D02*
X000261Y000482D01*
X000261Y000424D02*
X019686Y000424D01*
X019686Y000365D02*
X000261Y000365D01*
X000261Y000307D02*
X019686Y000307D01*
X019686Y000834D02*
X002667Y000834D01*
X002768Y000892D02*
X019686Y000892D01*
X019686Y000951D02*
X002870Y000951D01*
X002961Y001009D02*
X019686Y001009D01*
X019686Y001068D02*
X003019Y001068D01*
X003078Y001126D02*
X019686Y001126D01*
X019686Y001185D02*
X003136Y001185D01*
X003195Y001243D02*
X019686Y001243D01*
X019686Y001302D02*
X003232Y001302D01*
X003266Y001360D02*
X019686Y001360D01*
X019686Y001419D02*
X003300Y001419D01*
X003334Y001478D02*
X019686Y001478D01*
X019686Y001536D02*
X003368Y001536D01*
X003393Y001595D02*
X019686Y001595D01*
X019686Y001653D02*
X003409Y001653D01*
X003424Y001712D02*
X019686Y001712D01*
X019686Y001770D02*
X003440Y001770D01*
X003456Y001829D02*
X019686Y001829D01*
X019686Y001887D02*
X003471Y001887D01*
X003479Y001946D02*
X019686Y001946D01*
X019686Y002004D02*
X003479Y002004D01*
X003479Y002063D02*
X019686Y002063D01*
X019686Y002121D02*
X003479Y002121D01*
X003479Y002180D02*
X019686Y002180D01*
X019686Y002239D02*
X003479Y002239D01*
X003475Y002297D02*
X019686Y002297D01*
X019686Y002356D02*
X003460Y002356D01*
X003444Y002414D02*
X019686Y002414D01*
X019686Y002473D02*
X003428Y002473D01*
X003412Y002531D02*
X019686Y002531D01*
X019686Y002590D02*
X003397Y002590D01*
X003376Y002648D02*
X019686Y002648D01*
X019686Y002707D02*
X003342Y002707D01*
X003309Y002765D02*
X019686Y002765D01*
X019686Y002824D02*
X003275Y002824D01*
X003241Y002883D02*
X019686Y002883D01*
X019686Y002941D02*
X003207Y002941D01*
X003151Y003000D02*
X019686Y003000D01*
X019686Y003058D02*
X003092Y003058D01*
X003034Y003117D02*
X019686Y003117D01*
X019686Y003175D02*
X002975Y003175D01*
X002895Y003234D02*
X019686Y003234D01*
X019686Y003292D02*
X002793Y003292D01*
X002692Y003351D02*
X019686Y003351D01*
X019686Y003409D02*
X002543Y003409D01*
X002324Y003468D02*
X019686Y003468D01*
X001626Y004932D02*
X000261Y004932D01*
X000261Y004990D02*
X001493Y004990D01*
X001391Y005049D02*
X000261Y005049D01*
X000261Y005107D02*
X001290Y005107D01*
X001216Y005166D02*
X000261Y005166D01*
X000261Y005224D02*
X001157Y005224D01*
X001098Y005283D02*
X000261Y005283D01*
X000261Y005341D02*
X001040Y005341D01*
X000987Y005400D02*
X000261Y005400D01*
X000261Y005458D02*
X000953Y005458D01*
X000920Y005517D02*
X000261Y005517D01*
X000261Y005576D02*
X000886Y005576D01*
X000852Y005634D02*
X000261Y005634D01*
X000261Y005693D02*
X000818Y005693D01*
X000800Y005751D02*
X000261Y005751D01*
X000261Y005810D02*
X000784Y005810D01*
X000769Y005868D02*
X000261Y005868D01*
X000261Y005927D02*
X000753Y005927D01*
X000737Y005985D02*
X000261Y005985D01*
X000261Y006044D02*
X000722Y006044D01*
X000720Y006102D02*
X000261Y006102D01*
X000261Y006161D02*
X000720Y006161D01*
X000720Y006220D02*
X000261Y006220D01*
X000261Y006278D02*
X000720Y006278D01*
X000720Y006337D02*
X000261Y006337D01*
X000261Y006395D02*
X000720Y006395D01*
X000730Y006454D02*
X000261Y006454D01*
X000261Y006512D02*
X000746Y006512D01*
X000761Y006571D02*
X000261Y006571D01*
X000261Y006629D02*
X000777Y006629D01*
X000793Y006688D02*
X000261Y006688D01*
X000261Y006746D02*
X000808Y006746D01*
X000836Y006805D02*
X000261Y006805D01*
X000261Y006864D02*
X000870Y006864D01*
X000904Y006922D02*
X000261Y006922D01*
X000261Y006981D02*
X000937Y006981D01*
X000971Y007039D02*
X000261Y007039D01*
X000261Y007098D02*
X001012Y007098D01*
X001071Y007156D02*
X000261Y007156D01*
X000261Y007215D02*
X001129Y007215D01*
X001188Y007273D02*
X000261Y007273D01*
X000261Y007332D02*
X001246Y007332D01*
X001344Y007390D02*
X000261Y007390D01*
X000261Y007449D02*
X001445Y007449D01*
X001546Y007507D02*
X000261Y007507D01*
X000261Y007566D02*
X001741Y007566D01*
M02*
