G75*
G70*
%OFA0B0*%
%FSLAX24Y24*%
%IPPOS*%
%LPD*%
%AMOC8*
5,1,8,0,0,1.08239X$1,22.5*
%
%ADD10C,0.0000*%
%ADD11C,0.0080*%
%ADD12C,0.0160*%
%ADD13C,0.0560*%
D10*
X000131Y000131D02*
X000131Y019718D01*
X019816Y019718D01*
X019816Y000131D01*
X000131Y000131D01*
X000850Y002100D02*
X000852Y002170D01*
X000858Y002240D01*
X000868Y002309D01*
X000881Y002378D01*
X000899Y002446D01*
X000920Y002513D01*
X000945Y002578D01*
X000974Y002642D01*
X001006Y002705D01*
X001042Y002765D01*
X001081Y002823D01*
X001123Y002879D01*
X001168Y002933D01*
X001216Y002984D01*
X001267Y003032D01*
X001321Y003077D01*
X001377Y003119D01*
X001435Y003158D01*
X001495Y003194D01*
X001558Y003226D01*
X001622Y003255D01*
X001687Y003280D01*
X001754Y003301D01*
X001822Y003319D01*
X001891Y003332D01*
X001960Y003342D01*
X002030Y003348D01*
X002100Y003350D01*
X002170Y003348D01*
X002240Y003342D01*
X002309Y003332D01*
X002378Y003319D01*
X002446Y003301D01*
X002513Y003280D01*
X002578Y003255D01*
X002642Y003226D01*
X002705Y003194D01*
X002765Y003158D01*
X002823Y003119D01*
X002879Y003077D01*
X002933Y003032D01*
X002984Y002984D01*
X003032Y002933D01*
X003077Y002879D01*
X003119Y002823D01*
X003158Y002765D01*
X003194Y002705D01*
X003226Y002642D01*
X003255Y002578D01*
X003280Y002513D01*
X003301Y002446D01*
X003319Y002378D01*
X003332Y002309D01*
X003342Y002240D01*
X003348Y002170D01*
X003350Y002100D01*
X003348Y002030D01*
X003342Y001960D01*
X003332Y001891D01*
X003319Y001822D01*
X003301Y001754D01*
X003280Y001687D01*
X003255Y001622D01*
X003226Y001558D01*
X003194Y001495D01*
X003158Y001435D01*
X003119Y001377D01*
X003077Y001321D01*
X003032Y001267D01*
X002984Y001216D01*
X002933Y001168D01*
X002879Y001123D01*
X002823Y001081D01*
X002765Y001042D01*
X002705Y001006D01*
X002642Y000974D01*
X002578Y000945D01*
X002513Y000920D01*
X002446Y000899D01*
X002378Y000881D01*
X002309Y000868D01*
X002240Y000858D01*
X002170Y000852D01*
X002100Y000850D01*
X002030Y000852D01*
X001960Y000858D01*
X001891Y000868D01*
X001822Y000881D01*
X001754Y000899D01*
X001687Y000920D01*
X001622Y000945D01*
X001558Y000974D01*
X001495Y001006D01*
X001435Y001042D01*
X001377Y001081D01*
X001321Y001123D01*
X001267Y001168D01*
X001216Y001216D01*
X001168Y001267D01*
X001123Y001321D01*
X001081Y001377D01*
X001042Y001435D01*
X001006Y001495D01*
X000974Y001558D01*
X000945Y001622D01*
X000920Y001687D01*
X000899Y001754D01*
X000881Y001822D01*
X000868Y001891D01*
X000858Y001960D01*
X000852Y002030D01*
X000850Y002100D01*
X000850Y006037D02*
X000852Y006107D01*
X000858Y006177D01*
X000868Y006246D01*
X000881Y006315D01*
X000899Y006383D01*
X000920Y006450D01*
X000945Y006515D01*
X000974Y006579D01*
X001006Y006642D01*
X001042Y006702D01*
X001081Y006760D01*
X001123Y006816D01*
X001168Y006870D01*
X001216Y006921D01*
X001267Y006969D01*
X001321Y007014D01*
X001377Y007056D01*
X001435Y007095D01*
X001495Y007131D01*
X001558Y007163D01*
X001622Y007192D01*
X001687Y007217D01*
X001754Y007238D01*
X001822Y007256D01*
X001891Y007269D01*
X001960Y007279D01*
X002030Y007285D01*
X002100Y007287D01*
X002170Y007285D01*
X002240Y007279D01*
X002309Y007269D01*
X002378Y007256D01*
X002446Y007238D01*
X002513Y007217D01*
X002578Y007192D01*
X002642Y007163D01*
X002705Y007131D01*
X002765Y007095D01*
X002823Y007056D01*
X002879Y007014D01*
X002933Y006969D01*
X002984Y006921D01*
X003032Y006870D01*
X003077Y006816D01*
X003119Y006760D01*
X003158Y006702D01*
X003194Y006642D01*
X003226Y006579D01*
X003255Y006515D01*
X003280Y006450D01*
X003301Y006383D01*
X003319Y006315D01*
X003332Y006246D01*
X003342Y006177D01*
X003348Y006107D01*
X003350Y006037D01*
X003348Y005967D01*
X003342Y005897D01*
X003332Y005828D01*
X003319Y005759D01*
X003301Y005691D01*
X003280Y005624D01*
X003255Y005559D01*
X003226Y005495D01*
X003194Y005432D01*
X003158Y005372D01*
X003119Y005314D01*
X003077Y005258D01*
X003032Y005204D01*
X002984Y005153D01*
X002933Y005105D01*
X002879Y005060D01*
X002823Y005018D01*
X002765Y004979D01*
X002705Y004943D01*
X002642Y004911D01*
X002578Y004882D01*
X002513Y004857D01*
X002446Y004836D01*
X002378Y004818D01*
X002309Y004805D01*
X002240Y004795D01*
X002170Y004789D01*
X002100Y004787D01*
X002030Y004789D01*
X001960Y004795D01*
X001891Y004805D01*
X001822Y004818D01*
X001754Y004836D01*
X001687Y004857D01*
X001622Y004882D01*
X001558Y004911D01*
X001495Y004943D01*
X001435Y004979D01*
X001377Y005018D01*
X001321Y005060D01*
X001267Y005105D01*
X001216Y005153D01*
X001168Y005204D01*
X001123Y005258D01*
X001081Y005314D01*
X001042Y005372D01*
X001006Y005432D01*
X000974Y005495D01*
X000945Y005559D01*
X000920Y005624D01*
X000899Y005691D01*
X000881Y005759D01*
X000868Y005828D01*
X000858Y005897D01*
X000852Y005967D01*
X000850Y006037D01*
X000850Y009974D02*
X000852Y010044D01*
X000858Y010114D01*
X000868Y010183D01*
X000881Y010252D01*
X000899Y010320D01*
X000920Y010387D01*
X000945Y010452D01*
X000974Y010516D01*
X001006Y010579D01*
X001042Y010639D01*
X001081Y010697D01*
X001123Y010753D01*
X001168Y010807D01*
X001216Y010858D01*
X001267Y010906D01*
X001321Y010951D01*
X001377Y010993D01*
X001435Y011032D01*
X001495Y011068D01*
X001558Y011100D01*
X001622Y011129D01*
X001687Y011154D01*
X001754Y011175D01*
X001822Y011193D01*
X001891Y011206D01*
X001960Y011216D01*
X002030Y011222D01*
X002100Y011224D01*
X002170Y011222D01*
X002240Y011216D01*
X002309Y011206D01*
X002378Y011193D01*
X002446Y011175D01*
X002513Y011154D01*
X002578Y011129D01*
X002642Y011100D01*
X002705Y011068D01*
X002765Y011032D01*
X002823Y010993D01*
X002879Y010951D01*
X002933Y010906D01*
X002984Y010858D01*
X003032Y010807D01*
X003077Y010753D01*
X003119Y010697D01*
X003158Y010639D01*
X003194Y010579D01*
X003226Y010516D01*
X003255Y010452D01*
X003280Y010387D01*
X003301Y010320D01*
X003319Y010252D01*
X003332Y010183D01*
X003342Y010114D01*
X003348Y010044D01*
X003350Y009974D01*
X003348Y009904D01*
X003342Y009834D01*
X003332Y009765D01*
X003319Y009696D01*
X003301Y009628D01*
X003280Y009561D01*
X003255Y009496D01*
X003226Y009432D01*
X003194Y009369D01*
X003158Y009309D01*
X003119Y009251D01*
X003077Y009195D01*
X003032Y009141D01*
X002984Y009090D01*
X002933Y009042D01*
X002879Y008997D01*
X002823Y008955D01*
X002765Y008916D01*
X002705Y008880D01*
X002642Y008848D01*
X002578Y008819D01*
X002513Y008794D01*
X002446Y008773D01*
X002378Y008755D01*
X002309Y008742D01*
X002240Y008732D01*
X002170Y008726D01*
X002100Y008724D01*
X002030Y008726D01*
X001960Y008732D01*
X001891Y008742D01*
X001822Y008755D01*
X001754Y008773D01*
X001687Y008794D01*
X001622Y008819D01*
X001558Y008848D01*
X001495Y008880D01*
X001435Y008916D01*
X001377Y008955D01*
X001321Y008997D01*
X001267Y009042D01*
X001216Y009090D01*
X001168Y009141D01*
X001123Y009195D01*
X001081Y009251D01*
X001042Y009309D01*
X001006Y009369D01*
X000974Y009432D01*
X000945Y009496D01*
X000920Y009561D01*
X000899Y009628D01*
X000881Y009696D01*
X000868Y009765D01*
X000858Y009834D01*
X000852Y009904D01*
X000850Y009974D01*
X000850Y013911D02*
X000852Y013981D01*
X000858Y014051D01*
X000868Y014120D01*
X000881Y014189D01*
X000899Y014257D01*
X000920Y014324D01*
X000945Y014389D01*
X000974Y014453D01*
X001006Y014516D01*
X001042Y014576D01*
X001081Y014634D01*
X001123Y014690D01*
X001168Y014744D01*
X001216Y014795D01*
X001267Y014843D01*
X001321Y014888D01*
X001377Y014930D01*
X001435Y014969D01*
X001495Y015005D01*
X001558Y015037D01*
X001622Y015066D01*
X001687Y015091D01*
X001754Y015112D01*
X001822Y015130D01*
X001891Y015143D01*
X001960Y015153D01*
X002030Y015159D01*
X002100Y015161D01*
X002170Y015159D01*
X002240Y015153D01*
X002309Y015143D01*
X002378Y015130D01*
X002446Y015112D01*
X002513Y015091D01*
X002578Y015066D01*
X002642Y015037D01*
X002705Y015005D01*
X002765Y014969D01*
X002823Y014930D01*
X002879Y014888D01*
X002933Y014843D01*
X002984Y014795D01*
X003032Y014744D01*
X003077Y014690D01*
X003119Y014634D01*
X003158Y014576D01*
X003194Y014516D01*
X003226Y014453D01*
X003255Y014389D01*
X003280Y014324D01*
X003301Y014257D01*
X003319Y014189D01*
X003332Y014120D01*
X003342Y014051D01*
X003348Y013981D01*
X003350Y013911D01*
X003348Y013841D01*
X003342Y013771D01*
X003332Y013702D01*
X003319Y013633D01*
X003301Y013565D01*
X003280Y013498D01*
X003255Y013433D01*
X003226Y013369D01*
X003194Y013306D01*
X003158Y013246D01*
X003119Y013188D01*
X003077Y013132D01*
X003032Y013078D01*
X002984Y013027D01*
X002933Y012979D01*
X002879Y012934D01*
X002823Y012892D01*
X002765Y012853D01*
X002705Y012817D01*
X002642Y012785D01*
X002578Y012756D01*
X002513Y012731D01*
X002446Y012710D01*
X002378Y012692D01*
X002309Y012679D01*
X002240Y012669D01*
X002170Y012663D01*
X002100Y012661D01*
X002030Y012663D01*
X001960Y012669D01*
X001891Y012679D01*
X001822Y012692D01*
X001754Y012710D01*
X001687Y012731D01*
X001622Y012756D01*
X001558Y012785D01*
X001495Y012817D01*
X001435Y012853D01*
X001377Y012892D01*
X001321Y012934D01*
X001267Y012979D01*
X001216Y013027D01*
X001168Y013078D01*
X001123Y013132D01*
X001081Y013188D01*
X001042Y013246D01*
X001006Y013306D01*
X000974Y013369D01*
X000945Y013433D01*
X000920Y013498D01*
X000899Y013565D01*
X000881Y013633D01*
X000868Y013702D01*
X000858Y013771D01*
X000852Y013841D01*
X000850Y013911D01*
X000850Y017848D02*
X000852Y017918D01*
X000858Y017988D01*
X000868Y018057D01*
X000881Y018126D01*
X000899Y018194D01*
X000920Y018261D01*
X000945Y018326D01*
X000974Y018390D01*
X001006Y018453D01*
X001042Y018513D01*
X001081Y018571D01*
X001123Y018627D01*
X001168Y018681D01*
X001216Y018732D01*
X001267Y018780D01*
X001321Y018825D01*
X001377Y018867D01*
X001435Y018906D01*
X001495Y018942D01*
X001558Y018974D01*
X001622Y019003D01*
X001687Y019028D01*
X001754Y019049D01*
X001822Y019067D01*
X001891Y019080D01*
X001960Y019090D01*
X002030Y019096D01*
X002100Y019098D01*
X002170Y019096D01*
X002240Y019090D01*
X002309Y019080D01*
X002378Y019067D01*
X002446Y019049D01*
X002513Y019028D01*
X002578Y019003D01*
X002642Y018974D01*
X002705Y018942D01*
X002765Y018906D01*
X002823Y018867D01*
X002879Y018825D01*
X002933Y018780D01*
X002984Y018732D01*
X003032Y018681D01*
X003077Y018627D01*
X003119Y018571D01*
X003158Y018513D01*
X003194Y018453D01*
X003226Y018390D01*
X003255Y018326D01*
X003280Y018261D01*
X003301Y018194D01*
X003319Y018126D01*
X003332Y018057D01*
X003342Y017988D01*
X003348Y017918D01*
X003350Y017848D01*
X003348Y017778D01*
X003342Y017708D01*
X003332Y017639D01*
X003319Y017570D01*
X003301Y017502D01*
X003280Y017435D01*
X003255Y017370D01*
X003226Y017306D01*
X003194Y017243D01*
X003158Y017183D01*
X003119Y017125D01*
X003077Y017069D01*
X003032Y017015D01*
X002984Y016964D01*
X002933Y016916D01*
X002879Y016871D01*
X002823Y016829D01*
X002765Y016790D01*
X002705Y016754D01*
X002642Y016722D01*
X002578Y016693D01*
X002513Y016668D01*
X002446Y016647D01*
X002378Y016629D01*
X002309Y016616D01*
X002240Y016606D01*
X002170Y016600D01*
X002100Y016598D01*
X002030Y016600D01*
X001960Y016606D01*
X001891Y016616D01*
X001822Y016629D01*
X001754Y016647D01*
X001687Y016668D01*
X001622Y016693D01*
X001558Y016722D01*
X001495Y016754D01*
X001435Y016790D01*
X001377Y016829D01*
X001321Y016871D01*
X001267Y016916D01*
X001216Y016964D01*
X001168Y017015D01*
X001123Y017069D01*
X001081Y017125D01*
X001042Y017183D01*
X001006Y017243D01*
X000974Y017306D01*
X000945Y017370D01*
X000920Y017435D01*
X000899Y017502D01*
X000881Y017570D01*
X000868Y017639D01*
X000858Y017708D01*
X000852Y017778D01*
X000850Y017848D01*
D11*
X000271Y017869D02*
X000271Y017789D01*
X004091Y017789D01*
X004091Y017812D01*
X004148Y017869D01*
X000271Y017869D01*
X000271Y017949D01*
X004228Y017949D01*
X004298Y018019D01*
X004675Y018019D01*
X004745Y017949D01*
X005012Y017949D01*
X005012Y017958D01*
X005073Y018019D01*
X005160Y018019D01*
X005222Y017958D01*
X005222Y017949D01*
X005302Y017949D01*
X005302Y017958D01*
X005364Y018019D01*
X005450Y018019D01*
X005512Y017958D01*
X005512Y017949D01*
X005592Y017949D01*
X005592Y017958D01*
X005654Y018019D01*
X005741Y018019D01*
X005802Y017958D01*
X005802Y017949D01*
X006069Y017949D01*
X006139Y018019D01*
X006661Y018019D01*
X006723Y017958D01*
X006723Y017949D01*
X006853Y017949D01*
X006853Y017958D01*
X006915Y018019D01*
X007292Y018019D01*
X007353Y017958D01*
X007353Y017949D01*
X007467Y017949D01*
X007467Y017958D01*
X007529Y018019D01*
X007906Y018019D01*
X007967Y017958D01*
X007967Y017949D01*
X008081Y017949D01*
X008081Y017958D01*
X008142Y018019D01*
X008229Y018019D01*
X008291Y017958D01*
X008291Y017949D01*
X008653Y017949D01*
X008723Y018019D01*
X008810Y018019D01*
X008871Y017958D01*
X008871Y017949D01*
X009138Y017949D01*
X009208Y018019D01*
X009585Y018019D01*
X009655Y017949D01*
X010059Y017949D01*
X010129Y018019D01*
X010506Y018019D01*
X010576Y017949D01*
X010843Y017949D01*
X010843Y017958D01*
X010905Y018019D01*
X010992Y018019D01*
X011053Y017958D01*
X011053Y017949D01*
X011133Y017949D01*
X011133Y017958D01*
X011195Y018019D01*
X011282Y018019D01*
X011343Y017958D01*
X011343Y017949D01*
X011424Y017949D01*
X011424Y017958D01*
X011485Y018019D01*
X011572Y018019D01*
X011634Y017958D01*
X011634Y017949D01*
X011764Y017949D01*
X011764Y017958D01*
X011825Y018019D01*
X012493Y018019D01*
X012554Y017958D01*
X012554Y017949D01*
X012821Y017949D01*
X012891Y018019D01*
X013414Y018019D01*
X013475Y017958D01*
X013475Y017949D01*
X013605Y017949D01*
X013605Y017958D01*
X013667Y018019D01*
X014189Y018019D01*
X014259Y017949D01*
X014526Y017949D01*
X014526Y017958D01*
X014588Y018019D01*
X015110Y018019D01*
X015180Y017949D01*
X015447Y017949D01*
X015447Y017958D01*
X015508Y018019D01*
X015740Y018019D01*
X015802Y017958D01*
X015802Y017949D01*
X016044Y017949D01*
X016114Y018019D01*
X016636Y018019D01*
X016698Y017958D01*
X016698Y017949D01*
X016965Y017949D01*
X017035Y018019D01*
X017412Y018019D01*
X017482Y017949D01*
X017749Y017949D01*
X017749Y017958D01*
X017810Y018019D01*
X017897Y018019D01*
X017959Y017958D01*
X017959Y017949D01*
X018039Y017949D01*
X018039Y017958D01*
X018100Y018019D01*
X018187Y018019D01*
X018249Y017958D01*
X018249Y017949D01*
X018329Y017949D01*
X018329Y017958D01*
X018391Y018019D01*
X018478Y018019D01*
X018539Y017958D01*
X018539Y017949D01*
X019676Y017949D01*
X019676Y018029D01*
X000271Y018029D01*
X000271Y017949D01*
X000271Y018029D02*
X000271Y018109D01*
X019676Y018109D01*
X019676Y018189D01*
X000271Y018189D01*
X000271Y018109D01*
X000271Y018189D02*
X000271Y018269D01*
X019676Y018269D01*
X019676Y018349D01*
X000271Y018349D01*
X000271Y018269D01*
X000271Y018349D02*
X000271Y018429D01*
X019676Y018429D01*
X019676Y018509D01*
X000271Y018509D01*
X000271Y018429D01*
X000271Y018509D02*
X000271Y018589D01*
X019676Y018589D01*
X019676Y018669D01*
X000271Y018669D01*
X000271Y018589D01*
X000271Y018669D02*
X000271Y018749D01*
X019676Y018749D01*
X019676Y018829D01*
X000271Y018829D01*
X000271Y018749D01*
X000271Y018829D02*
X000271Y018909D01*
X019676Y018909D01*
X019676Y018989D01*
X000271Y018989D01*
X000271Y018909D01*
X000271Y018989D02*
X000271Y019069D01*
X019676Y019069D01*
X019676Y019089D01*
X000271Y019089D01*
X000271Y019069D01*
X000232Y019637D02*
X000232Y015980D01*
X000271Y015949D02*
X019676Y015949D01*
X019676Y016029D01*
X000271Y016029D01*
X000271Y015949D01*
X000271Y016029D02*
X000271Y016109D01*
X019676Y016109D01*
X019676Y016189D01*
X000271Y016189D01*
X000271Y016109D01*
X000271Y016189D02*
X000271Y016269D01*
X019676Y016269D01*
X019676Y016349D01*
X000271Y016349D01*
X000271Y016269D01*
X000271Y016349D02*
X000271Y016429D01*
X019676Y016429D01*
X019676Y016509D01*
X000271Y016509D01*
X000271Y016429D01*
X000271Y016509D02*
X000271Y016589D01*
X019676Y016589D01*
X019676Y016669D01*
X000271Y016669D01*
X000271Y016589D01*
X000271Y016669D02*
X000271Y016749D01*
X019676Y016749D01*
X019676Y016829D01*
X000271Y016829D01*
X000271Y016749D01*
X000271Y016829D02*
X000271Y016909D01*
X019676Y016909D01*
X019676Y016989D01*
X013805Y016989D01*
X013754Y016938D01*
X013667Y016938D01*
X013616Y016989D01*
X011963Y016989D01*
X011912Y016938D01*
X011825Y016938D01*
X011775Y016989D01*
X008715Y016989D01*
X008665Y016938D01*
X008142Y016938D01*
X008092Y016989D01*
X007811Y016989D01*
X007761Y016938D01*
X007529Y016938D01*
X007478Y016989D01*
X007198Y016989D01*
X007147Y016938D01*
X006915Y016938D01*
X006864Y016989D01*
X004726Y016989D01*
X004675Y016938D01*
X004298Y016938D01*
X004247Y016989D01*
X000271Y016989D01*
X000271Y016909D01*
X000271Y016989D02*
X000271Y017069D01*
X004167Y017069D01*
X004091Y017145D01*
X004091Y017149D01*
X000271Y017149D01*
X000271Y017069D01*
X000271Y017149D02*
X000271Y017229D01*
X004091Y017229D01*
X004091Y017309D01*
X000271Y017309D01*
X000271Y017229D01*
X000271Y017309D02*
X000271Y017389D01*
X004103Y017389D01*
X004183Y017469D01*
X000271Y017469D01*
X000271Y017389D01*
X000271Y017469D02*
X000271Y017549D01*
X004263Y017549D01*
X004298Y017584D01*
X004588Y017584D01*
X004633Y017629D01*
X000271Y017629D01*
X000271Y017549D01*
X000271Y017629D02*
X000271Y017709D01*
X004107Y017709D01*
X004091Y017725D01*
X004091Y017789D01*
X004107Y017709D02*
X004153Y017664D01*
X004239Y017664D01*
X004285Y017709D01*
X004671Y017709D01*
X004671Y017725D01*
X004608Y017789D01*
X004365Y017789D01*
X004285Y017709D01*
X004365Y017789D02*
X004385Y017809D01*
X004588Y017809D01*
X004608Y017789D01*
X004671Y017709D02*
X004671Y017667D01*
X004633Y017629D01*
X004770Y017469D02*
X005012Y017469D01*
X005012Y017549D01*
X004850Y017549D01*
X004770Y017469D01*
X004690Y017389D01*
X005012Y017389D01*
X005012Y017469D01*
X005012Y017389D02*
X005012Y017309D01*
X004320Y017309D01*
X004301Y017290D01*
X004301Y017232D01*
X004304Y017229D01*
X004669Y017229D01*
X004733Y017293D01*
X004820Y017293D01*
X004881Y017232D01*
X004881Y017229D01*
X005073Y017229D01*
X005012Y017290D01*
X005012Y017309D01*
X005073Y017229D02*
X005073Y017229D01*
X005305Y017229D01*
X005306Y017229D01*
X005508Y017229D01*
X005428Y017309D01*
X005386Y017309D01*
X005407Y017330D02*
X005306Y017229D01*
X005407Y017330D02*
X005428Y017309D01*
X005509Y017229D02*
X005508Y017229D01*
X005509Y017229D02*
X005596Y017229D01*
X006139Y017229D01*
X006078Y017290D01*
X006078Y017309D01*
X005676Y017309D01*
X005596Y017229D01*
X005596Y017229D01*
X005676Y017309D02*
X005756Y017389D01*
X006090Y017389D01*
X006139Y017439D01*
X006429Y017439D01*
X006460Y017469D01*
X005802Y017469D01*
X005802Y017435D01*
X005756Y017389D01*
X005802Y017469D02*
X005802Y017549D01*
X006109Y017549D01*
X006029Y017629D01*
X005802Y017629D01*
X005802Y017549D01*
X005802Y017629D02*
X005802Y017709D01*
X005949Y017709D01*
X005933Y017725D01*
X005933Y017789D01*
X005802Y017789D01*
X005802Y017709D01*
X005802Y017789D02*
X005802Y017869D01*
X005989Y017869D01*
X006069Y017949D01*
X005989Y017869D02*
X005933Y017812D01*
X005933Y017789D01*
X005949Y017709D02*
X006029Y017629D01*
X006109Y017549D02*
X006139Y017519D01*
X006510Y017519D01*
X006460Y017469D01*
X006597Y017309D02*
X006517Y017229D01*
X006998Y017229D01*
X006998Y017309D01*
X006597Y017309D01*
X006677Y017389D01*
X006998Y017389D01*
X006998Y017469D01*
X006723Y017469D01*
X006723Y017435D01*
X006677Y017389D01*
X006723Y017469D02*
X006723Y017549D01*
X006998Y017549D01*
X006998Y017629D01*
X006723Y017629D01*
X006723Y017549D01*
X006723Y017629D02*
X006723Y017709D01*
X006998Y017709D01*
X006998Y017789D01*
X006723Y017789D01*
X006723Y017709D01*
X006723Y017789D02*
X006723Y017869D01*
X006855Y017869D01*
X006853Y017871D01*
X006853Y017949D01*
X006855Y017869D02*
X006915Y017809D01*
X006998Y017809D01*
X006998Y017789D01*
X006998Y017709D02*
X006998Y017629D01*
X006998Y017549D02*
X006998Y017469D01*
X006998Y017389D02*
X006998Y017309D01*
X006998Y017229D02*
X006998Y017149D01*
X004881Y017149D01*
X004881Y017145D01*
X004806Y017069D01*
X006853Y017069D01*
X006853Y017087D01*
X006915Y017148D01*
X006998Y017148D01*
X006998Y017149D01*
X006853Y017069D02*
X006853Y017000D01*
X006864Y016989D01*
X007198Y016989D02*
X007208Y017000D01*
X007208Y017069D01*
X007467Y017069D01*
X007467Y017087D01*
X007529Y017148D01*
X007612Y017148D01*
X007612Y017149D01*
X007208Y017149D01*
X007208Y017069D01*
X007208Y017149D02*
X007208Y017229D01*
X007612Y017229D01*
X007612Y017309D01*
X007208Y017309D01*
X007208Y017229D01*
X007208Y017309D02*
X007208Y017389D01*
X007612Y017389D01*
X007612Y017469D01*
X007208Y017469D01*
X007208Y017389D01*
X007208Y017469D02*
X007208Y017549D01*
X007612Y017549D01*
X007612Y017629D01*
X007208Y017629D01*
X007208Y017549D01*
X007208Y017629D02*
X007208Y017709D01*
X007612Y017709D01*
X007612Y017789D01*
X007208Y017789D01*
X007208Y017709D01*
X007208Y017789D02*
X007208Y017809D01*
X007292Y017809D01*
X007352Y017869D01*
X007469Y017869D01*
X007467Y017871D01*
X007467Y017949D01*
X007469Y017869D02*
X007529Y017809D01*
X007612Y017809D01*
X007612Y017789D01*
X007612Y017709D02*
X007612Y017629D01*
X007612Y017549D02*
X007612Y017469D01*
X007612Y017389D02*
X007612Y017309D01*
X007612Y017229D02*
X007612Y017149D01*
X007467Y017069D02*
X007467Y017000D01*
X007478Y016989D01*
X007811Y016989D02*
X007822Y017000D01*
X007822Y017069D01*
X008081Y017069D01*
X008081Y017149D01*
X007822Y017149D01*
X007822Y017069D01*
X007822Y017149D02*
X007822Y017229D01*
X008081Y017229D01*
X008081Y017309D01*
X007822Y017309D01*
X007822Y017229D01*
X007822Y017309D02*
X007822Y017389D01*
X008081Y017389D01*
X008081Y017469D01*
X007822Y017469D01*
X007822Y017389D01*
X007822Y017469D02*
X007822Y017549D01*
X008081Y017549D01*
X008081Y017629D01*
X007822Y017629D01*
X007822Y017549D01*
X007822Y017629D02*
X007822Y017709D01*
X008081Y017709D01*
X008081Y017789D01*
X007822Y017789D01*
X007822Y017709D01*
X007822Y017789D02*
X007822Y017809D01*
X007906Y017809D01*
X007966Y017869D01*
X008081Y017869D01*
X008081Y017949D01*
X008081Y017869D02*
X008081Y017789D01*
X008081Y017709D02*
X008081Y017629D01*
X008081Y017549D02*
X008081Y017469D01*
X008081Y017389D02*
X008081Y017309D01*
X008081Y017229D02*
X008081Y017149D01*
X008081Y017069D02*
X008081Y017000D01*
X008092Y016989D01*
X008291Y017148D02*
X008291Y017149D01*
X008579Y017149D01*
X008659Y017229D01*
X008291Y017229D01*
X008291Y017149D01*
X008291Y017148D02*
X008578Y017148D01*
X008579Y017149D01*
X008659Y017229D02*
X008661Y017232D01*
X008661Y017309D01*
X008291Y017309D01*
X008291Y017229D01*
X008291Y017309D02*
X008291Y017389D01*
X008661Y017389D01*
X008661Y017435D01*
X008628Y017469D01*
X008291Y017469D01*
X008291Y017389D01*
X008291Y017469D02*
X008291Y017519D01*
X008578Y017519D01*
X008628Y017469D01*
X008661Y017389D02*
X008661Y017309D01*
X008871Y017309D02*
X008871Y017229D01*
X009208Y017229D01*
X009128Y017309D01*
X008871Y017309D01*
X008871Y017389D01*
X009048Y017389D01*
X009002Y017435D01*
X009002Y017469D01*
X008871Y017469D01*
X008871Y017389D01*
X008871Y017469D02*
X008871Y017522D01*
X008844Y017549D01*
X009002Y017549D01*
X009002Y017629D01*
X008764Y017629D01*
X008844Y017549D01*
X008764Y017629D02*
X008726Y017667D01*
X008697Y017696D01*
X008710Y017709D01*
X009002Y017709D01*
X009002Y017789D01*
X008790Y017789D01*
X008710Y017709D01*
X008790Y017789D02*
X008870Y017869D01*
X009058Y017869D01*
X009138Y017949D01*
X009058Y017869D02*
X009002Y017812D01*
X009002Y017789D01*
X009002Y017709D02*
X009002Y017629D01*
X009002Y017549D02*
X009002Y017469D01*
X009048Y017389D02*
X009128Y017309D01*
X009208Y017229D02*
X009208Y017229D01*
X009585Y017229D01*
X009586Y017229D01*
X010129Y017229D01*
X010129Y017229D01*
X010506Y017229D01*
X010507Y017229D01*
X010904Y017229D01*
X010843Y017290D01*
X010843Y017309D01*
X010587Y017309D01*
X010507Y017229D01*
X010587Y017309D02*
X010667Y017389D01*
X010843Y017389D01*
X010843Y017469D01*
X010713Y017469D01*
X010713Y017435D01*
X010667Y017389D01*
X010713Y017469D02*
X010713Y017549D01*
X010843Y017549D01*
X010843Y017629D01*
X010713Y017629D01*
X010713Y017549D01*
X010713Y017629D02*
X010713Y017709D01*
X010843Y017709D01*
X010843Y017789D01*
X010713Y017789D01*
X010713Y017709D01*
X010713Y017789D02*
X010713Y017812D01*
X010656Y017869D01*
X010843Y017869D01*
X010843Y017949D01*
X010843Y017869D02*
X010843Y017789D01*
X010843Y017709D02*
X010843Y017629D01*
X010843Y017549D02*
X010843Y017469D01*
X010843Y017389D02*
X010843Y017309D01*
X010904Y017229D02*
X010905Y017229D01*
X011137Y017229D01*
X011340Y017229D01*
X011340Y017229D01*
X011427Y017229D01*
X011764Y017229D01*
X011764Y017309D01*
X011507Y017309D01*
X011427Y017229D01*
X011427Y017229D01*
X011340Y017229D02*
X011260Y017309D01*
X011217Y017309D01*
X011238Y017330D02*
X011137Y017229D01*
X011137Y017229D01*
X011238Y017330D02*
X011260Y017309D01*
X011383Y017482D02*
X011343Y017522D01*
X011343Y017549D01*
X011424Y017549D01*
X011424Y017629D01*
X011343Y017629D01*
X011343Y017549D01*
X011383Y017482D02*
X011424Y017522D01*
X011424Y017549D01*
X011424Y017629D02*
X011424Y017709D01*
X011343Y017709D01*
X011343Y017629D01*
X011343Y017709D02*
X011343Y017789D01*
X011424Y017789D01*
X011424Y017869D01*
X011343Y017869D01*
X011343Y017789D01*
X011343Y017869D02*
X011343Y017949D01*
X011424Y017949D02*
X011424Y017869D01*
X011424Y017789D02*
X011424Y017709D01*
X011634Y017709D02*
X011634Y017629D01*
X011764Y017629D01*
X011764Y017709D01*
X011634Y017709D01*
X011634Y017789D01*
X011764Y017789D01*
X011764Y017869D01*
X011634Y017869D01*
X011634Y017789D01*
X011634Y017869D02*
X011634Y017949D01*
X011764Y017949D02*
X011764Y017869D01*
X011764Y017789D02*
X011764Y017709D01*
X011764Y017629D02*
X011764Y017549D01*
X011634Y017549D01*
X011634Y017469D01*
X011764Y017469D01*
X011764Y017549D01*
X011764Y017469D02*
X011764Y017389D01*
X011587Y017389D01*
X011507Y017309D01*
X011587Y017389D02*
X011634Y017435D01*
X011634Y017469D01*
X011634Y017549D02*
X011634Y017629D01*
X011764Y017389D02*
X011764Y017309D01*
X011764Y017229D02*
X011764Y017149D01*
X008871Y017149D01*
X008871Y017145D01*
X008810Y017084D01*
X008795Y017069D01*
X011764Y017069D01*
X011764Y017149D01*
X011764Y017069D02*
X011764Y017000D01*
X011775Y016989D01*
X011963Y016989D02*
X011974Y017000D01*
X011974Y017069D01*
X013605Y017069D01*
X013605Y017149D01*
X011974Y017149D01*
X011974Y017069D01*
X011974Y017149D02*
X011974Y017229D01*
X012891Y017229D01*
X012830Y017290D01*
X012830Y017309D01*
X011974Y017309D01*
X011974Y017229D01*
X011974Y017309D02*
X011974Y017389D01*
X012842Y017389D01*
X012891Y017439D01*
X013181Y017439D01*
X013212Y017469D01*
X011974Y017469D01*
X011974Y017389D01*
X011974Y017469D02*
X011974Y017549D01*
X012861Y017549D01*
X012781Y017629D01*
X011974Y017629D01*
X011974Y017549D01*
X011974Y017629D02*
X011974Y017709D01*
X012701Y017709D01*
X012685Y017725D01*
X012685Y017789D01*
X011974Y017789D01*
X011974Y017709D01*
X011974Y017789D02*
X011974Y017809D01*
X012493Y017809D01*
X012553Y017869D01*
X012741Y017869D01*
X012821Y017949D01*
X012741Y017869D02*
X012685Y017812D01*
X012685Y017789D01*
X012701Y017709D02*
X012781Y017629D01*
X012861Y017549D02*
X012891Y017519D01*
X013262Y017519D01*
X013212Y017469D01*
X013349Y017309D02*
X013605Y017309D01*
X013605Y017389D01*
X013429Y017389D01*
X013349Y017309D01*
X013269Y017229D01*
X013605Y017229D01*
X013605Y017309D01*
X013605Y017229D02*
X013605Y017149D01*
X013605Y017069D02*
X013605Y017000D01*
X013616Y016989D01*
X013805Y016989D02*
X013815Y017000D01*
X013815Y017069D01*
X019676Y017069D01*
X019676Y017149D01*
X013815Y017149D01*
X013815Y017069D01*
X013815Y017149D02*
X013815Y017229D01*
X014189Y017229D01*
X014190Y017229D01*
X014732Y017229D01*
X014652Y017309D01*
X014270Y017309D01*
X014190Y017229D01*
X014270Y017309D02*
X014350Y017389D01*
X014572Y017389D01*
X014526Y017435D01*
X014526Y017469D01*
X014396Y017469D01*
X014396Y017435D01*
X014350Y017389D01*
X014396Y017469D02*
X014396Y017549D01*
X014553Y017549D01*
X014633Y017629D01*
X014396Y017629D01*
X014396Y017549D01*
X014396Y017629D02*
X014396Y017709D01*
X014713Y017709D01*
X014733Y017729D01*
X015023Y017729D01*
X015063Y017769D01*
X015043Y017789D01*
X014396Y017789D01*
X014396Y017709D01*
X014396Y017789D02*
X014396Y017812D01*
X014339Y017869D01*
X014528Y017869D01*
X014526Y017871D01*
X014526Y017949D01*
X014528Y017869D02*
X014588Y017809D01*
X015023Y017809D01*
X015043Y017789D01*
X015180Y017949D02*
X015260Y017869D01*
X015447Y017869D01*
X015447Y017949D01*
X015447Y017869D02*
X015447Y017789D01*
X015317Y017789D01*
X015317Y017725D01*
X015300Y017709D01*
X015463Y017709D01*
X015447Y017725D01*
X015447Y017789D01*
X015463Y017709D02*
X015508Y017664D01*
X015740Y017664D01*
X015786Y017709D01*
X015907Y017709D01*
X015907Y017789D01*
X015802Y017789D01*
X015802Y017725D01*
X015786Y017709D01*
X015802Y017789D02*
X015802Y017869D01*
X015964Y017869D01*
X016044Y017949D01*
X015964Y017869D02*
X015907Y017812D01*
X015907Y017789D01*
X015907Y017709D02*
X015907Y017629D01*
X015220Y017629D01*
X015140Y017549D01*
X015907Y017549D01*
X015907Y017629D01*
X015907Y017549D02*
X015907Y017469D01*
X014789Y017469D01*
X014820Y017439D01*
X015255Y017439D01*
X015305Y017389D01*
X015953Y017389D01*
X015907Y017435D01*
X015907Y017469D01*
X015953Y017389D02*
X016033Y017309D01*
X015317Y017309D01*
X015317Y017290D01*
X015256Y017229D01*
X016113Y017229D01*
X016033Y017309D01*
X016114Y017229D02*
X016113Y017229D01*
X016114Y017229D02*
X016636Y017229D01*
X016637Y017229D01*
X017034Y017229D01*
X016954Y017309D01*
X016698Y017309D01*
X016698Y017290D01*
X016637Y017229D01*
X016698Y017309D02*
X016698Y017377D01*
X016686Y017389D01*
X016874Y017389D01*
X016828Y017435D01*
X016828Y017469D01*
X016170Y017469D01*
X016201Y017439D01*
X016636Y017439D01*
X016686Y017389D01*
X016828Y017469D02*
X016828Y017549D01*
X016117Y017549D01*
X016117Y017522D01*
X016170Y017469D01*
X016117Y017549D02*
X016117Y017629D01*
X016828Y017629D01*
X016828Y017709D01*
X016117Y017709D01*
X016117Y017629D01*
X016117Y017709D02*
X016117Y017725D01*
X016181Y017789D01*
X016828Y017789D01*
X016828Y017812D01*
X016885Y017869D01*
X016696Y017869D01*
X016636Y017809D01*
X016201Y017809D01*
X016181Y017789D01*
X015802Y017869D02*
X015802Y017949D01*
X015317Y017812D02*
X015317Y017789D01*
X015317Y017812D02*
X015260Y017869D01*
X015300Y017709D02*
X015220Y017629D01*
X015140Y017549D02*
X015110Y017519D01*
X014820Y017519D01*
X014780Y017479D01*
X014789Y017469D01*
X014652Y017309D02*
X014572Y017389D01*
X014526Y017469D02*
X014526Y017522D01*
X014553Y017549D01*
X014633Y017629D02*
X014713Y017709D01*
X014339Y017869D02*
X014259Y017949D01*
X014102Y017809D02*
X013815Y017809D01*
X013815Y017789D01*
X014122Y017789D01*
X014102Y017809D01*
X014122Y017789D02*
X014186Y017725D01*
X014186Y017709D01*
X013815Y017709D01*
X013815Y017629D01*
X014186Y017629D01*
X014186Y017709D01*
X014186Y017629D02*
X014186Y017549D01*
X013815Y017549D01*
X013815Y017469D01*
X014133Y017469D01*
X014186Y017522D01*
X014186Y017549D01*
X014133Y017469D02*
X014102Y017439D01*
X013815Y017439D01*
X013815Y017469D01*
X013815Y017549D02*
X013815Y017629D01*
X013815Y017709D02*
X013815Y017789D01*
X013605Y017789D02*
X013605Y017869D01*
X013475Y017869D01*
X013475Y017789D01*
X013605Y017789D01*
X013605Y017709D01*
X013475Y017709D01*
X013475Y017629D01*
X013605Y017629D01*
X013605Y017709D01*
X013605Y017629D02*
X013605Y017549D01*
X013475Y017549D01*
X013475Y017469D01*
X013605Y017469D01*
X013605Y017549D01*
X013605Y017469D02*
X013605Y017389D01*
X013475Y017435D02*
X013429Y017389D01*
X013475Y017435D02*
X013475Y017469D01*
X013475Y017549D02*
X013475Y017629D01*
X013475Y017709D02*
X013475Y017789D01*
X013475Y017869D02*
X013475Y017949D01*
X013605Y017949D02*
X013605Y017869D01*
X013265Y017809D02*
X013265Y017789D01*
X012958Y017789D01*
X012938Y017769D01*
X012978Y017729D01*
X013265Y017729D01*
X013265Y017789D01*
X013265Y017809D02*
X012978Y017809D01*
X012958Y017789D01*
X012554Y017871D02*
X012553Y017869D01*
X012554Y017871D02*
X012554Y017949D01*
X012842Y017389D02*
X012830Y017377D01*
X012830Y017309D01*
X012891Y017229D02*
X012891Y017229D01*
X013268Y017229D01*
X013269Y017229D01*
X014732Y017229D02*
X014733Y017229D01*
X015255Y017229D01*
X015256Y017229D01*
X015317Y017309D02*
X015317Y017377D01*
X015305Y017389D01*
X016696Y017869D02*
X016698Y017871D01*
X016698Y017949D01*
X016885Y017869D02*
X016965Y017949D01*
X017122Y017809D02*
X017102Y017789D01*
X017345Y017789D01*
X017325Y017809D01*
X017122Y017809D01*
X017102Y017789D02*
X017038Y017725D01*
X017038Y017709D01*
X017408Y017709D01*
X017408Y017725D01*
X017345Y017789D01*
X017408Y017709D02*
X017408Y017629D01*
X017038Y017629D01*
X017038Y017549D01*
X017408Y017549D01*
X017408Y017629D01*
X017408Y017549D02*
X017408Y017522D01*
X017355Y017469D01*
X017091Y017469D01*
X017122Y017439D01*
X017325Y017439D01*
X017355Y017469D01*
X017492Y017309D02*
X017412Y017229D01*
X017810Y017229D01*
X017749Y017290D01*
X017749Y017309D01*
X017492Y017309D01*
X017572Y017389D01*
X017749Y017389D01*
X017749Y017469D01*
X017618Y017469D01*
X017618Y017435D01*
X017572Y017389D01*
X017618Y017469D02*
X017618Y017549D01*
X017749Y017549D01*
X017749Y017629D01*
X017618Y017629D01*
X017618Y017549D01*
X017618Y017629D02*
X017618Y017709D01*
X017749Y017709D01*
X017749Y017789D01*
X017618Y017789D01*
X017618Y017709D01*
X017618Y017789D02*
X017618Y017812D01*
X017562Y017869D01*
X017749Y017869D01*
X017749Y017949D01*
X017749Y017869D02*
X017749Y017789D01*
X017749Y017709D02*
X017749Y017629D01*
X017749Y017549D02*
X017749Y017469D01*
X017749Y017389D02*
X017749Y017309D01*
X017810Y017229D02*
X017810Y017229D01*
X018042Y017229D01*
X018043Y017229D01*
X018245Y017229D01*
X018165Y017309D01*
X018123Y017309D01*
X018144Y017330D02*
X018043Y017229D01*
X018144Y017330D02*
X018165Y017309D01*
X018246Y017229D02*
X018245Y017229D01*
X018246Y017229D02*
X018333Y017229D01*
X019676Y017229D01*
X019676Y017309D01*
X018413Y017309D01*
X018394Y017290D01*
X018333Y017229D01*
X018333Y017229D01*
X018394Y017290D02*
X018394Y017290D01*
X018413Y017309D02*
X018478Y017374D01*
X018478Y017374D01*
X018493Y017389D01*
X019676Y017389D01*
X019676Y017469D01*
X018539Y017469D01*
X018539Y017435D01*
X018493Y017389D01*
X018539Y017469D02*
X018539Y017549D01*
X019676Y017549D01*
X019676Y017629D01*
X018539Y017629D01*
X018539Y017549D01*
X018539Y017629D02*
X018539Y017709D01*
X019676Y017709D01*
X019676Y017789D01*
X018539Y017789D01*
X018539Y017709D01*
X018539Y017789D02*
X018539Y017869D01*
X019676Y017869D01*
X019676Y017949D01*
X019676Y017869D02*
X019676Y017789D01*
X019676Y017709D02*
X019676Y017629D01*
X019676Y017549D02*
X019676Y017469D01*
X019676Y017389D02*
X019676Y017309D01*
X019676Y017229D02*
X019676Y017149D01*
X019676Y017069D02*
X019676Y016989D01*
X019676Y016909D02*
X019676Y016829D01*
X019676Y016749D02*
X019676Y016669D01*
X019676Y016589D02*
X019676Y016509D01*
X019676Y016429D02*
X019676Y016349D01*
X019676Y016269D02*
X019676Y016189D01*
X019676Y016109D02*
X019676Y016029D01*
X019637Y016000D02*
X019637Y015980D01*
X019676Y015152D02*
X000271Y015152D01*
X000271Y015132D01*
X019676Y015132D01*
X019676Y015152D01*
X019676Y015132D02*
X019676Y015052D01*
X000271Y015052D01*
X000271Y014972D01*
X019676Y014972D01*
X019676Y015052D01*
X019676Y014972D02*
X019676Y014892D01*
X000271Y014892D01*
X000271Y014812D01*
X019676Y014812D01*
X019676Y014892D01*
X019676Y014812D02*
X019676Y014732D01*
X000271Y014732D01*
X000271Y014652D01*
X019676Y014652D01*
X019676Y014732D01*
X019676Y014652D02*
X019676Y014572D01*
X000271Y014572D01*
X000271Y014492D01*
X019676Y014492D01*
X019676Y014572D01*
X019676Y014492D02*
X019676Y014412D01*
X000271Y014412D01*
X000271Y014332D01*
X019676Y014332D01*
X019676Y014412D01*
X019676Y014332D02*
X019676Y014252D01*
X000271Y014252D01*
X000271Y014172D01*
X019676Y014172D01*
X019676Y014252D01*
X019676Y014172D02*
X019676Y014092D01*
X000271Y014092D01*
X000271Y014012D01*
X004228Y014012D01*
X004298Y014082D01*
X004675Y014082D01*
X004745Y014012D01*
X005012Y014012D01*
X005012Y014021D01*
X005073Y014082D01*
X005160Y014082D01*
X005222Y014021D01*
X005222Y014012D01*
X005302Y014012D01*
X005302Y014021D01*
X005364Y014082D01*
X005450Y014082D01*
X005512Y014021D01*
X005512Y014012D01*
X005592Y014012D01*
X005592Y014021D01*
X005654Y014082D01*
X005741Y014082D01*
X005802Y014021D01*
X005802Y014012D01*
X006069Y014012D01*
X006139Y014082D01*
X006661Y014082D01*
X006723Y014021D01*
X006723Y014012D01*
X006853Y014012D01*
X006853Y014021D01*
X006915Y014082D01*
X007292Y014082D01*
X007353Y014021D01*
X007353Y014012D01*
X007467Y014012D01*
X007467Y014021D01*
X007529Y014082D01*
X007906Y014082D01*
X007967Y014021D01*
X007967Y014012D01*
X008081Y014012D01*
X008081Y014021D01*
X008142Y014082D01*
X008229Y014082D01*
X008291Y014021D01*
X008291Y014012D01*
X008653Y014012D01*
X008723Y014082D01*
X008810Y014082D01*
X008871Y014021D01*
X008871Y014012D01*
X009138Y014012D01*
X009208Y014082D01*
X009585Y014082D01*
X009655Y014012D01*
X010059Y014012D01*
X010129Y014082D01*
X010506Y014082D01*
X010576Y014012D01*
X010843Y014012D01*
X010843Y014021D01*
X010905Y014082D01*
X010992Y014082D01*
X011053Y014021D01*
X011053Y014012D01*
X011133Y014012D01*
X011133Y014021D01*
X011195Y014082D01*
X011282Y014082D01*
X011343Y014021D01*
X011343Y014012D01*
X011424Y014012D01*
X011424Y014021D01*
X011485Y014082D01*
X011572Y014082D01*
X011634Y014021D01*
X011634Y014012D01*
X011764Y014012D01*
X011764Y014021D01*
X011825Y014082D01*
X012493Y014082D01*
X012554Y014021D01*
X012554Y014012D01*
X012821Y014012D01*
X012891Y014082D01*
X013414Y014082D01*
X013475Y014021D01*
X013475Y014012D01*
X013605Y014012D01*
X013605Y014021D01*
X013667Y014082D01*
X014189Y014082D01*
X014259Y014012D01*
X014526Y014012D01*
X014526Y014021D01*
X014588Y014082D01*
X015110Y014082D01*
X015180Y014012D01*
X015447Y014012D01*
X015447Y014021D01*
X015508Y014082D01*
X015740Y014082D01*
X015802Y014021D01*
X015802Y014012D01*
X016044Y014012D01*
X016114Y014082D01*
X016636Y014082D01*
X016698Y014021D01*
X016698Y014012D01*
X016965Y014012D01*
X017035Y014082D01*
X017412Y014082D01*
X017482Y014012D01*
X017749Y014012D01*
X017749Y014021D01*
X017810Y014082D01*
X017897Y014082D01*
X017959Y014021D01*
X017959Y014012D01*
X018039Y014012D01*
X018039Y014021D01*
X018100Y014082D01*
X018187Y014082D01*
X018249Y014021D01*
X018249Y014012D01*
X018329Y014012D01*
X018329Y014021D01*
X018391Y014082D01*
X018478Y014082D01*
X018539Y014021D01*
X018539Y014012D01*
X019676Y014012D01*
X019676Y014092D01*
X019676Y014012D02*
X019676Y013932D01*
X018539Y013932D01*
X018539Y013852D01*
X019676Y013852D01*
X019676Y013932D01*
X019676Y013852D02*
X019676Y013772D01*
X018539Y013772D01*
X018539Y013692D01*
X019676Y013692D01*
X019676Y013772D01*
X019676Y013692D02*
X019676Y013612D01*
X018539Y013612D01*
X018539Y013532D01*
X019676Y013532D01*
X019676Y013612D01*
X019676Y013532D02*
X019676Y013452D01*
X018493Y013452D01*
X018478Y013437D01*
X018478Y013437D01*
X018413Y013372D01*
X019676Y013372D01*
X019676Y013452D01*
X019676Y013372D02*
X019676Y013292D01*
X018333Y013292D01*
X018333Y013292D01*
X018394Y013353D01*
X018394Y013353D01*
X018413Y013372D01*
X018493Y013452D02*
X018539Y013498D01*
X018539Y013532D01*
X018539Y013612D02*
X018539Y013692D01*
X018539Y013772D02*
X018539Y013852D01*
X018539Y013932D02*
X018539Y014012D01*
X018329Y014012D02*
X018329Y013932D01*
X018249Y013932D01*
X018249Y013852D01*
X018329Y013852D01*
X018329Y013932D01*
X018329Y013852D02*
X018329Y013772D01*
X018249Y013772D01*
X018249Y013692D01*
X018329Y013692D01*
X018329Y013772D01*
X018329Y013692D02*
X018329Y013612D01*
X018249Y013612D01*
X018249Y013585D01*
X018289Y013545D01*
X018329Y013585D01*
X018329Y013612D01*
X018249Y013612D02*
X018249Y013692D01*
X018249Y013772D02*
X018249Y013852D01*
X018249Y013932D02*
X018249Y014012D01*
X018039Y014012D02*
X018039Y013932D01*
X017959Y013932D01*
X017959Y013852D01*
X018039Y013852D01*
X018039Y013932D01*
X018039Y013852D02*
X018039Y013772D01*
X017959Y013772D01*
X017959Y013692D01*
X018039Y013692D01*
X018039Y013772D01*
X018039Y013692D02*
X018039Y013612D01*
X017959Y013612D01*
X017959Y013532D01*
X017986Y013532D01*
X018039Y013585D01*
X018039Y013612D01*
X017959Y013612D02*
X017959Y013692D01*
X017959Y013772D02*
X017959Y013852D01*
X017959Y013932D02*
X017959Y014012D01*
X017749Y014012D02*
X017749Y013932D01*
X017562Y013932D01*
X017618Y013875D01*
X017618Y013852D01*
X017749Y013852D01*
X017749Y013932D01*
X017749Y013852D02*
X017749Y013772D01*
X017618Y013772D01*
X017618Y013692D01*
X017749Y013692D01*
X017749Y013772D01*
X017749Y013692D02*
X017749Y013612D01*
X017618Y013612D01*
X017618Y013532D01*
X017749Y013532D01*
X017749Y013612D01*
X017749Y013532D02*
X017749Y013452D01*
X017572Y013452D01*
X017492Y013372D01*
X017749Y013372D01*
X017749Y013452D01*
X017749Y013372D02*
X017749Y013353D01*
X017810Y013292D01*
X017412Y013292D01*
X017412Y013292D01*
X017492Y013372D01*
X017572Y013452D02*
X017618Y013498D01*
X017618Y013532D01*
X017618Y013612D02*
X017618Y013692D01*
X017618Y013772D02*
X017618Y013852D01*
X017562Y013932D02*
X017482Y014012D01*
X017325Y013872D02*
X017122Y013872D01*
X017102Y013852D01*
X017345Y013852D01*
X017325Y013872D01*
X017345Y013852D02*
X017408Y013788D01*
X017408Y013772D01*
X017038Y013772D01*
X017038Y013692D01*
X017408Y013692D01*
X017408Y013772D01*
X017408Y013692D02*
X017408Y013612D01*
X017038Y013612D01*
X017038Y013585D01*
X017091Y013532D01*
X017355Y013532D01*
X017408Y013585D01*
X017408Y013612D01*
X017355Y013532D02*
X017325Y013502D01*
X017122Y013502D01*
X017091Y013532D01*
X017038Y013612D02*
X017038Y013692D01*
X017038Y013772D02*
X017038Y013788D01*
X017102Y013852D01*
X016965Y014012D02*
X016885Y013932D01*
X016696Y013932D01*
X016636Y013872D01*
X016201Y013872D01*
X016181Y013852D01*
X016828Y013852D01*
X016828Y013875D01*
X016885Y013932D01*
X016828Y013852D02*
X016828Y013772D01*
X016117Y013772D01*
X016117Y013692D01*
X016828Y013692D01*
X016828Y013772D01*
X016828Y013692D02*
X016828Y013612D01*
X016117Y013612D01*
X016117Y013585D01*
X016170Y013532D01*
X016828Y013532D01*
X016828Y013612D01*
X016828Y013532D02*
X016828Y013498D01*
X016874Y013452D01*
X016686Y013452D01*
X016698Y013440D01*
X016698Y013372D01*
X016954Y013372D01*
X016874Y013452D01*
X016954Y013372D02*
X017034Y013292D01*
X016637Y013292D01*
X016636Y013292D01*
X016114Y013292D01*
X016113Y013292D01*
X015256Y013292D01*
X015255Y013292D01*
X014733Y013292D01*
X014732Y013292D01*
X014190Y013292D01*
X014189Y013292D01*
X013815Y013292D01*
X013815Y013212D01*
X019676Y013212D01*
X019676Y013292D01*
X019676Y013212D02*
X019676Y013132D01*
X013815Y013132D01*
X013815Y013063D01*
X013805Y013052D01*
X019676Y013052D01*
X019676Y013132D01*
X019676Y013052D02*
X019676Y012972D01*
X000271Y012972D01*
X000271Y012892D01*
X019676Y012892D01*
X019676Y012972D01*
X019676Y012892D02*
X019676Y012812D01*
X000271Y012812D01*
X000271Y012732D01*
X019676Y012732D01*
X019676Y012812D01*
X019676Y012732D02*
X019676Y012652D01*
X000271Y012652D01*
X000271Y012572D01*
X019676Y012572D01*
X019676Y012652D01*
X019676Y012572D02*
X019676Y012492D01*
X000271Y012492D01*
X000271Y012412D01*
X019676Y012412D01*
X019676Y012492D01*
X019676Y012412D02*
X019676Y012332D01*
X000271Y012332D01*
X000271Y012252D01*
X019676Y012252D01*
X019676Y012332D01*
X019676Y012252D02*
X019676Y012172D01*
X000271Y012172D01*
X000271Y012092D01*
X019676Y012092D01*
X019676Y012172D01*
X019676Y012092D02*
X019676Y012012D01*
X000271Y012012D01*
X000271Y012092D01*
X000232Y012043D02*
X000232Y015700D01*
X000271Y015132D02*
X000271Y015052D01*
X000271Y014972D02*
X000271Y014892D01*
X000271Y014812D02*
X000271Y014732D01*
X000271Y014652D02*
X000271Y014572D01*
X000271Y014492D02*
X000271Y014412D01*
X000271Y014332D02*
X000271Y014252D01*
X000271Y014172D02*
X000271Y014092D01*
X000271Y014012D02*
X000271Y013932D01*
X004148Y013932D01*
X004228Y014012D01*
X004148Y013932D02*
X004091Y013875D01*
X004091Y013852D01*
X000271Y013852D01*
X000271Y013772D01*
X004107Y013772D01*
X004091Y013788D01*
X004091Y013852D01*
X004107Y013772D02*
X004153Y013727D01*
X004239Y013727D01*
X004285Y013772D01*
X004671Y013772D01*
X004671Y013788D01*
X004608Y013852D01*
X004365Y013852D01*
X004285Y013772D01*
X004365Y013852D02*
X004385Y013872D01*
X004588Y013872D01*
X004608Y013852D01*
X004671Y013772D02*
X004671Y013730D01*
X004633Y013692D01*
X000271Y013692D01*
X000271Y013612D01*
X004263Y013612D01*
X004298Y013647D01*
X004588Y013647D01*
X004633Y013692D01*
X004770Y013532D02*
X005012Y013532D01*
X005012Y013612D01*
X004850Y013612D01*
X004770Y013532D01*
X004690Y013452D01*
X005012Y013452D01*
X005012Y013532D01*
X005012Y013452D02*
X005012Y013372D01*
X004320Y013372D01*
X004301Y013353D01*
X004301Y013295D01*
X004304Y013292D01*
X004669Y013292D01*
X004733Y013356D01*
X004820Y013356D01*
X004881Y013295D01*
X004881Y013292D01*
X005073Y013292D01*
X005012Y013353D01*
X005012Y013372D01*
X005073Y013292D02*
X005073Y013292D01*
X005305Y013292D01*
X005306Y013292D01*
X005508Y013292D01*
X005428Y013372D01*
X005386Y013372D01*
X005407Y013393D02*
X005306Y013292D01*
X005407Y013393D02*
X005428Y013372D01*
X005509Y013292D02*
X005508Y013292D01*
X005509Y013292D02*
X005596Y013292D01*
X006139Y013292D01*
X006078Y013353D01*
X006078Y013372D01*
X005676Y013372D01*
X005596Y013292D01*
X005596Y013292D01*
X005676Y013372D02*
X005756Y013452D01*
X006090Y013452D01*
X006139Y013502D01*
X006429Y013502D01*
X006460Y013532D01*
X005802Y013532D01*
X005802Y013498D01*
X005756Y013452D01*
X005802Y013532D02*
X005802Y013612D01*
X006109Y013612D01*
X006029Y013692D01*
X005802Y013692D01*
X005802Y013612D01*
X005802Y013692D02*
X005802Y013772D01*
X005949Y013772D01*
X005933Y013788D01*
X005933Y013852D01*
X005802Y013852D01*
X005802Y013772D01*
X005802Y013852D02*
X005802Y013932D01*
X005989Y013932D01*
X006069Y014012D01*
X005989Y013932D02*
X005933Y013875D01*
X005933Y013852D01*
X005949Y013772D02*
X006029Y013692D01*
X006109Y013612D02*
X006139Y013582D01*
X006510Y013582D01*
X006460Y013532D01*
X006597Y013372D02*
X006998Y013372D01*
X006998Y013452D01*
X006677Y013452D01*
X006597Y013372D01*
X006517Y013292D01*
X006998Y013292D01*
X006998Y013372D01*
X006998Y013292D02*
X006998Y013212D01*
X004881Y013212D01*
X004881Y013208D01*
X004806Y013132D01*
X006853Y013132D01*
X006853Y013150D01*
X006915Y013211D01*
X006998Y013211D01*
X006998Y013212D01*
X006853Y013132D02*
X006853Y013063D01*
X006864Y013052D01*
X004726Y013052D01*
X004675Y013001D01*
X004298Y013001D01*
X004247Y013052D01*
X000271Y013052D01*
X000271Y012972D01*
X000271Y012892D02*
X000271Y012812D01*
X000271Y012732D02*
X000271Y012652D01*
X000271Y012572D02*
X000271Y012492D01*
X000271Y012412D02*
X000271Y012332D01*
X000271Y012252D02*
X000271Y012172D01*
X000232Y011763D02*
X000232Y008106D01*
X000271Y008075D02*
X019676Y008075D01*
X019676Y008155D01*
X000271Y008155D01*
X000271Y008075D01*
X000271Y008155D02*
X000271Y008235D01*
X019676Y008235D01*
X019676Y008315D01*
X000271Y008315D01*
X000271Y008235D01*
X000271Y008315D02*
X000271Y008395D01*
X019676Y008395D01*
X019676Y008475D01*
X000271Y008475D01*
X000271Y008395D01*
X000271Y008475D02*
X000271Y008555D01*
X019676Y008555D01*
X019676Y008635D01*
X000271Y008635D01*
X000271Y008555D01*
X000271Y008635D02*
X000271Y008715D01*
X019676Y008715D01*
X019676Y008795D01*
X000271Y008795D01*
X000271Y008715D01*
X000271Y008795D02*
X000271Y008875D01*
X019676Y008875D01*
X019676Y008955D01*
X000271Y008955D01*
X000271Y008875D01*
X000271Y008955D02*
X000271Y009035D01*
X019676Y009035D01*
X019676Y009115D01*
X013805Y009115D01*
X013754Y009064D01*
X013667Y009064D01*
X013616Y009115D01*
X011963Y009115D01*
X011912Y009064D01*
X011825Y009064D01*
X011775Y009115D01*
X008715Y009115D01*
X008665Y009064D01*
X008142Y009064D01*
X008092Y009115D01*
X007811Y009115D01*
X007761Y009064D01*
X007529Y009064D01*
X007478Y009115D01*
X007198Y009115D01*
X007147Y009064D01*
X006915Y009064D01*
X006864Y009115D01*
X004726Y009115D01*
X004675Y009064D01*
X004298Y009064D01*
X004247Y009115D01*
X000271Y009115D01*
X000271Y009035D01*
X000271Y009115D02*
X000271Y009195D01*
X004167Y009195D01*
X004091Y009271D01*
X004091Y009275D01*
X000271Y009275D01*
X000271Y009195D01*
X000271Y009275D02*
X000271Y009355D01*
X004091Y009355D01*
X004091Y009435D01*
X000271Y009435D01*
X000271Y009355D01*
X000271Y009435D02*
X000271Y009515D01*
X004103Y009515D01*
X004183Y009595D01*
X000271Y009595D01*
X000271Y009515D01*
X000271Y009595D02*
X000271Y009675D01*
X004263Y009675D01*
X004298Y009710D01*
X004588Y009710D01*
X004633Y009755D01*
X000271Y009755D01*
X000271Y009675D01*
X000271Y009755D02*
X000271Y009835D01*
X004107Y009835D01*
X004091Y009851D01*
X004091Y009915D01*
X000271Y009915D01*
X000271Y009835D01*
X000271Y009915D02*
X000271Y009995D01*
X004148Y009995D01*
X004228Y010075D01*
X000271Y010075D01*
X000271Y009995D01*
X000271Y010075D02*
X000271Y010155D01*
X019676Y010155D01*
X019676Y010235D01*
X000271Y010235D01*
X000271Y010155D01*
X000271Y010235D02*
X000271Y010315D01*
X019676Y010315D01*
X019676Y010395D01*
X000271Y010395D01*
X000271Y010315D01*
X000271Y010395D02*
X000271Y010475D01*
X019676Y010475D01*
X019676Y010555D01*
X000271Y010555D01*
X000271Y010475D01*
X000271Y010555D02*
X000271Y010635D01*
X019676Y010635D01*
X019676Y010715D01*
X000271Y010715D01*
X000271Y010635D01*
X000271Y010715D02*
X000271Y010795D01*
X019676Y010795D01*
X019676Y010875D01*
X000271Y010875D01*
X000271Y010795D01*
X000271Y010875D02*
X000271Y010955D01*
X019676Y010955D01*
X019676Y011035D01*
X000271Y011035D01*
X000271Y010955D01*
X000271Y011035D02*
X000271Y011115D01*
X019676Y011115D01*
X019676Y011195D01*
X000271Y011195D01*
X000271Y011115D01*
X000271Y011195D02*
X000271Y011215D01*
X019676Y011215D01*
X019676Y011195D01*
X019676Y011115D02*
X019676Y011035D01*
X019676Y010955D02*
X019676Y010875D01*
X019676Y010795D02*
X019676Y010715D01*
X019676Y010635D02*
X019676Y010555D01*
X019676Y010475D02*
X019676Y010395D01*
X019676Y010315D02*
X019676Y010235D01*
X019676Y010155D02*
X019676Y010075D01*
X018539Y010075D01*
X018539Y009995D01*
X019676Y009995D01*
X019676Y010075D01*
X019676Y009995D02*
X019676Y009915D01*
X018539Y009915D01*
X018539Y009835D01*
X019676Y009835D01*
X019676Y009915D01*
X019676Y009835D02*
X019676Y009755D01*
X018539Y009755D01*
X018539Y009675D01*
X019676Y009675D01*
X019676Y009755D01*
X019676Y009675D02*
X019676Y009595D01*
X018539Y009595D01*
X018539Y009561D01*
X018493Y009515D01*
X019676Y009515D01*
X019676Y009595D01*
X019676Y009515D02*
X019676Y009435D01*
X018413Y009435D01*
X018394Y009416D01*
X018333Y009355D01*
X019676Y009355D01*
X019676Y009435D01*
X019676Y009355D02*
X019676Y009275D01*
X013815Y009275D01*
X013815Y009195D01*
X019676Y009195D01*
X019676Y009275D01*
X019676Y009195D02*
X019676Y009115D01*
X019676Y009035D02*
X019676Y008955D01*
X019676Y008875D02*
X019676Y008795D01*
X019676Y008715D02*
X019676Y008635D01*
X019676Y008555D02*
X019676Y008475D01*
X019676Y008395D02*
X019676Y008315D01*
X019676Y008235D02*
X019676Y008155D01*
X019637Y008126D02*
X019637Y008106D01*
X019676Y007278D02*
X000271Y007278D01*
X000271Y007258D01*
X019676Y007258D01*
X019676Y007278D01*
X019676Y007258D02*
X019676Y007178D01*
X000271Y007178D01*
X000271Y007098D01*
X019676Y007098D01*
X019676Y007178D01*
X019676Y007098D02*
X019676Y007018D01*
X000271Y007018D01*
X000271Y006938D01*
X019676Y006938D01*
X019676Y007018D01*
X019676Y006938D02*
X019676Y006858D01*
X000271Y006858D01*
X000271Y006778D01*
X019676Y006778D01*
X019676Y006858D01*
X019676Y006778D02*
X019676Y006698D01*
X000271Y006698D01*
X000271Y006618D01*
X019676Y006618D01*
X019676Y006698D01*
X019676Y006618D02*
X019676Y006538D01*
X000271Y006538D01*
X000271Y006458D01*
X019676Y006458D01*
X019676Y006538D01*
X019676Y006458D02*
X019676Y006378D01*
X000271Y006378D01*
X000271Y006298D01*
X019676Y006298D01*
X019676Y006378D01*
X019676Y006298D02*
X019676Y006218D01*
X000271Y006218D01*
X000271Y006138D01*
X004228Y006138D01*
X004298Y006208D01*
X004675Y006208D01*
X004745Y006138D01*
X005012Y006138D01*
X005012Y006147D01*
X005073Y006208D01*
X005160Y006208D01*
X005222Y006147D01*
X005222Y006138D01*
X005302Y006138D01*
X005302Y006147D01*
X005364Y006208D01*
X005450Y006208D01*
X005512Y006147D01*
X005512Y006138D01*
X005592Y006138D01*
X005592Y006147D01*
X005654Y006208D01*
X005741Y006208D01*
X005802Y006147D01*
X005802Y006138D01*
X006069Y006138D01*
X006139Y006208D01*
X006661Y006208D01*
X006723Y006147D01*
X006723Y006138D01*
X006853Y006138D01*
X006853Y006147D01*
X006915Y006208D01*
X007292Y006208D01*
X007353Y006147D01*
X007353Y006138D01*
X007467Y006138D01*
X007467Y006147D01*
X007529Y006208D01*
X007906Y006208D01*
X007967Y006147D01*
X007967Y006138D01*
X008081Y006138D01*
X008081Y006147D01*
X008142Y006208D01*
X008229Y006208D01*
X008291Y006147D01*
X008291Y006138D01*
X008653Y006138D01*
X008723Y006208D01*
X008810Y006208D01*
X008871Y006147D01*
X008871Y006138D01*
X009138Y006138D01*
X009208Y006208D01*
X009585Y006208D01*
X009655Y006138D01*
X010059Y006138D01*
X010129Y006208D01*
X010506Y006208D01*
X010576Y006138D01*
X010843Y006138D01*
X010843Y006147D01*
X010905Y006208D01*
X010992Y006208D01*
X011053Y006147D01*
X011053Y006138D01*
X011133Y006138D01*
X011133Y006147D01*
X011195Y006208D01*
X011282Y006208D01*
X011343Y006147D01*
X011343Y006138D01*
X011424Y006138D01*
X011424Y006147D01*
X011485Y006208D01*
X011572Y006208D01*
X011634Y006147D01*
X011634Y006138D01*
X011764Y006138D01*
X011764Y006147D01*
X011825Y006208D01*
X012493Y006208D01*
X012554Y006147D01*
X012554Y006138D01*
X012821Y006138D01*
X012891Y006208D01*
X013414Y006208D01*
X013475Y006147D01*
X013475Y006138D01*
X013605Y006138D01*
X013605Y006147D01*
X013667Y006208D01*
X014189Y006208D01*
X014259Y006138D01*
X014526Y006138D01*
X014526Y006147D01*
X014588Y006208D01*
X015110Y006208D01*
X015180Y006138D01*
X015447Y006138D01*
X015447Y006147D01*
X015508Y006208D01*
X015740Y006208D01*
X015802Y006147D01*
X015802Y006138D01*
X016044Y006138D01*
X016114Y006208D01*
X016636Y006208D01*
X016698Y006147D01*
X016698Y006138D01*
X016965Y006138D01*
X017035Y006208D01*
X017412Y006208D01*
X017482Y006138D01*
X017749Y006138D01*
X017749Y006147D01*
X017810Y006208D01*
X017897Y006208D01*
X017959Y006147D01*
X017959Y006138D01*
X018039Y006138D01*
X018039Y006147D01*
X018100Y006208D01*
X018187Y006208D01*
X018249Y006147D01*
X018249Y006138D01*
X018329Y006138D01*
X018329Y006147D01*
X018391Y006208D01*
X018478Y006208D01*
X018539Y006147D01*
X018539Y006138D01*
X019676Y006138D01*
X019676Y006218D01*
X019676Y006138D02*
X019676Y006058D01*
X018539Y006058D01*
X018539Y005978D01*
X019676Y005978D01*
X019676Y006058D01*
X019676Y005978D02*
X019676Y005898D01*
X018539Y005898D01*
X018539Y005818D01*
X019676Y005818D01*
X019676Y005898D01*
X019676Y005818D02*
X019676Y005738D01*
X018539Y005738D01*
X018539Y005658D01*
X019676Y005658D01*
X019676Y005738D01*
X019676Y005658D02*
X019676Y005578D01*
X018493Y005578D01*
X018478Y005563D01*
X018478Y005563D01*
X018413Y005498D01*
X019676Y005498D01*
X019676Y005578D01*
X019676Y005498D02*
X019676Y005418D01*
X018333Y005418D01*
X018333Y005418D01*
X018394Y005479D01*
X018394Y005479D01*
X018413Y005498D01*
X018493Y005578D02*
X018539Y005624D01*
X018539Y005658D01*
X018539Y005738D02*
X018539Y005818D01*
X018539Y005898D02*
X018539Y005978D01*
X018539Y006058D02*
X018539Y006138D01*
X018329Y006138D02*
X018329Y006058D01*
X018249Y006058D01*
X018249Y005978D01*
X018329Y005978D01*
X018329Y006058D01*
X018329Y005978D02*
X018329Y005898D01*
X018249Y005898D01*
X018249Y005818D01*
X018329Y005818D01*
X018329Y005898D01*
X018329Y005818D02*
X018329Y005738D01*
X018249Y005738D01*
X018249Y005711D01*
X018289Y005671D01*
X018329Y005711D01*
X018329Y005738D01*
X018249Y005738D02*
X018249Y005818D01*
X018249Y005898D02*
X018249Y005978D01*
X018249Y006058D02*
X018249Y006138D01*
X018039Y006138D02*
X018039Y006058D01*
X017959Y006058D01*
X017959Y005978D01*
X018039Y005978D01*
X018039Y006058D01*
X018039Y005978D02*
X018039Y005898D01*
X017959Y005898D01*
X017959Y005818D01*
X018039Y005818D01*
X018039Y005898D01*
X018039Y005818D02*
X018039Y005738D01*
X017959Y005738D01*
X017959Y005658D01*
X017986Y005658D01*
X018039Y005711D01*
X018039Y005738D01*
X017959Y005738D02*
X017959Y005818D01*
X017959Y005898D02*
X017959Y005978D01*
X017959Y006058D02*
X017959Y006138D01*
X017749Y006138D02*
X017749Y006058D01*
X017562Y006058D01*
X017618Y006001D01*
X017618Y005978D01*
X017749Y005978D01*
X017749Y006058D01*
X017749Y005978D02*
X017749Y005898D01*
X017618Y005898D01*
X017618Y005818D01*
X017749Y005818D01*
X017749Y005898D01*
X017749Y005818D02*
X017749Y005738D01*
X017618Y005738D01*
X017618Y005658D01*
X017749Y005658D01*
X017749Y005738D01*
X017749Y005658D02*
X017749Y005578D01*
X017572Y005578D01*
X017492Y005498D01*
X017749Y005498D01*
X017749Y005578D01*
X017749Y005498D02*
X017749Y005479D01*
X017810Y005418D01*
X017412Y005418D01*
X017412Y005418D01*
X017492Y005498D01*
X017572Y005578D02*
X017618Y005624D01*
X017618Y005658D01*
X017618Y005738D02*
X017618Y005818D01*
X017618Y005898D02*
X017618Y005978D01*
X017562Y006058D02*
X017482Y006138D01*
X017325Y005998D02*
X017122Y005998D01*
X017102Y005978D01*
X017345Y005978D01*
X017325Y005998D01*
X017345Y005978D02*
X017408Y005914D01*
X017408Y005898D01*
X017038Y005898D01*
X017038Y005818D01*
X017408Y005818D01*
X017408Y005898D01*
X017408Y005818D02*
X017408Y005738D01*
X017038Y005738D01*
X017038Y005711D01*
X017091Y005658D01*
X017355Y005658D01*
X017408Y005711D01*
X017408Y005738D01*
X017355Y005658D02*
X017325Y005628D01*
X017122Y005628D01*
X017091Y005658D01*
X017038Y005738D02*
X017038Y005818D01*
X017038Y005898D02*
X017038Y005914D01*
X017102Y005978D01*
X016965Y006138D02*
X016885Y006058D01*
X016696Y006058D01*
X016636Y005998D01*
X016201Y005998D01*
X016181Y005978D01*
X016828Y005978D01*
X016828Y006001D01*
X016885Y006058D01*
X016828Y005978D02*
X016828Y005898D01*
X016117Y005898D01*
X016117Y005818D01*
X016828Y005818D01*
X016828Y005898D01*
X016828Y005818D02*
X016828Y005738D01*
X016117Y005738D01*
X016117Y005711D01*
X016170Y005658D01*
X016828Y005658D01*
X016828Y005738D01*
X016828Y005658D02*
X016828Y005624D01*
X016874Y005578D01*
X016686Y005578D01*
X016698Y005566D01*
X016698Y005498D01*
X016954Y005498D01*
X016874Y005578D01*
X016954Y005498D02*
X017034Y005418D01*
X016637Y005418D01*
X016636Y005418D01*
X016114Y005418D01*
X016113Y005418D01*
X015256Y005418D01*
X015255Y005418D01*
X014733Y005418D01*
X014732Y005418D01*
X014190Y005418D01*
X014189Y005418D01*
X013815Y005418D01*
X013815Y005338D01*
X019676Y005338D01*
X019676Y005418D01*
X019676Y005338D02*
X019676Y005258D01*
X013815Y005258D01*
X013815Y005189D01*
X013805Y005178D01*
X019676Y005178D01*
X019676Y005258D01*
X019676Y005178D02*
X019676Y005098D01*
X000271Y005098D01*
X000271Y005018D01*
X019676Y005018D01*
X019676Y005098D01*
X019676Y005018D02*
X019676Y004938D01*
X000271Y004938D01*
X000271Y004858D01*
X019676Y004858D01*
X019676Y004938D01*
X019676Y004858D02*
X019676Y004778D01*
X000271Y004778D01*
X000271Y004698D01*
X019676Y004698D01*
X019676Y004778D01*
X019676Y004698D02*
X019676Y004618D01*
X000271Y004618D01*
X000271Y004538D01*
X019676Y004538D01*
X019676Y004618D01*
X019676Y004538D02*
X019676Y004458D01*
X000271Y004458D01*
X000271Y004378D01*
X019676Y004378D01*
X019676Y004458D01*
X019676Y004378D02*
X019676Y004298D01*
X000271Y004298D01*
X000271Y004218D01*
X019676Y004218D01*
X019676Y004298D01*
X019676Y004218D02*
X019676Y004138D01*
X000271Y004138D01*
X000271Y004218D01*
X000232Y004169D02*
X000232Y007826D01*
X000271Y007258D02*
X000271Y007178D01*
X000271Y007098D02*
X000271Y007018D01*
X000271Y006938D02*
X000271Y006858D01*
X000271Y006778D02*
X000271Y006698D01*
X000271Y006618D02*
X000271Y006538D01*
X000271Y006458D02*
X000271Y006378D01*
X000271Y006298D02*
X000271Y006218D01*
X000271Y006138D02*
X000271Y006058D01*
X004148Y006058D01*
X004228Y006138D01*
X004148Y006058D02*
X004091Y006001D01*
X004091Y005978D01*
X000271Y005978D01*
X000271Y005898D01*
X004107Y005898D01*
X004091Y005914D01*
X004091Y005978D01*
X004107Y005898D02*
X004153Y005853D01*
X004239Y005853D01*
X004285Y005898D01*
X004671Y005898D01*
X004671Y005914D01*
X004608Y005978D01*
X004365Y005978D01*
X004285Y005898D01*
X004365Y005978D02*
X004385Y005998D01*
X004588Y005998D01*
X004608Y005978D01*
X004671Y005898D02*
X004671Y005856D01*
X004633Y005818D01*
X000271Y005818D01*
X000271Y005738D01*
X004263Y005738D01*
X004298Y005773D01*
X004588Y005773D01*
X004633Y005818D01*
X004770Y005658D02*
X005012Y005658D01*
X005012Y005738D01*
X004850Y005738D01*
X004770Y005658D01*
X004690Y005578D01*
X005012Y005578D01*
X005012Y005658D01*
X005012Y005578D02*
X005012Y005498D01*
X004320Y005498D01*
X004301Y005479D01*
X004301Y005421D01*
X004304Y005418D01*
X004669Y005418D01*
X004733Y005482D01*
X004820Y005482D01*
X004881Y005421D01*
X004881Y005418D01*
X005073Y005418D01*
X005012Y005479D01*
X005012Y005498D01*
X005073Y005418D02*
X005073Y005418D01*
X005305Y005418D01*
X005306Y005418D01*
X005508Y005418D01*
X005428Y005498D01*
X005386Y005498D01*
X005407Y005519D02*
X005306Y005418D01*
X005407Y005519D02*
X005428Y005498D01*
X005509Y005418D02*
X005508Y005418D01*
X005509Y005418D02*
X005596Y005418D01*
X006139Y005418D01*
X006078Y005479D01*
X006078Y005498D01*
X005676Y005498D01*
X005596Y005418D01*
X005596Y005418D01*
X005676Y005498D02*
X005756Y005578D01*
X006090Y005578D01*
X006139Y005628D01*
X006429Y005628D01*
X006460Y005658D01*
X005802Y005658D01*
X005802Y005624D01*
X005756Y005578D01*
X005802Y005658D02*
X005802Y005738D01*
X006109Y005738D01*
X006029Y005818D01*
X005802Y005818D01*
X005802Y005738D01*
X005802Y005818D02*
X005802Y005898D01*
X005949Y005898D01*
X005933Y005914D01*
X005933Y005978D01*
X005802Y005978D01*
X005802Y005898D01*
X005802Y005978D02*
X005802Y006058D01*
X005989Y006058D01*
X006069Y006138D01*
X005989Y006058D02*
X005933Y006001D01*
X005933Y005978D01*
X005949Y005898D02*
X006029Y005818D01*
X006109Y005738D02*
X006139Y005708D01*
X006510Y005708D01*
X006460Y005658D01*
X006597Y005498D02*
X006517Y005418D01*
X006998Y005418D01*
X006998Y005498D01*
X006597Y005498D01*
X006677Y005578D01*
X006998Y005578D01*
X006998Y005658D01*
X006723Y005658D01*
X006723Y005624D01*
X006677Y005578D01*
X006723Y005658D02*
X006723Y005738D01*
X006998Y005738D01*
X006998Y005818D01*
X006723Y005818D01*
X006723Y005738D01*
X006723Y005818D02*
X006723Y005898D01*
X006998Y005898D01*
X006998Y005978D01*
X006723Y005978D01*
X006723Y005898D01*
X006723Y005978D02*
X006723Y006058D01*
X006855Y006058D01*
X006853Y006060D01*
X006853Y006138D01*
X006855Y006058D02*
X006915Y005998D01*
X006998Y005998D01*
X006998Y005978D01*
X006998Y005898D02*
X006998Y005818D01*
X006998Y005738D02*
X006998Y005658D01*
X006998Y005578D02*
X006998Y005498D01*
X006998Y005418D02*
X006998Y005338D01*
X004881Y005338D01*
X004881Y005334D01*
X004806Y005258D01*
X006853Y005258D01*
X006853Y005276D01*
X006915Y005337D01*
X006998Y005337D01*
X006998Y005338D01*
X006853Y005258D02*
X006853Y005189D01*
X006864Y005178D01*
X004726Y005178D01*
X004675Y005127D01*
X004298Y005127D01*
X004247Y005178D01*
X000271Y005178D01*
X000271Y005098D01*
X000271Y005018D02*
X000271Y004938D01*
X000271Y004858D02*
X000271Y004778D01*
X000271Y004698D02*
X000271Y004618D01*
X000271Y004538D02*
X000271Y004458D01*
X000271Y004378D02*
X000271Y004298D01*
X000232Y003889D02*
X000232Y000232D01*
X000271Y000201D02*
X019676Y000201D01*
X019676Y000281D01*
X000271Y000281D01*
X000271Y000201D01*
X000271Y000281D02*
X000271Y000361D01*
X019676Y000361D01*
X019676Y000441D01*
X000271Y000441D01*
X000271Y000361D01*
X000271Y000441D02*
X000271Y000521D01*
X019676Y000521D01*
X019676Y000601D01*
X000271Y000601D01*
X000271Y000521D01*
X000271Y000601D02*
X000271Y000681D01*
X019676Y000681D01*
X019676Y000761D01*
X000271Y000761D01*
X000271Y000681D01*
X000271Y000761D02*
X000271Y000841D01*
X019676Y000841D01*
X019676Y000921D01*
X000271Y000921D01*
X000271Y000841D01*
X000271Y000921D02*
X000271Y001001D01*
X019676Y001001D01*
X019676Y001081D01*
X000271Y001081D01*
X000271Y001001D01*
X000271Y001081D02*
X000271Y001161D01*
X019676Y001161D01*
X019676Y001241D01*
X013805Y001241D01*
X013754Y001190D01*
X013667Y001190D01*
X013616Y001241D01*
X011963Y001241D01*
X011912Y001190D01*
X011825Y001190D01*
X011775Y001241D01*
X008715Y001241D01*
X008665Y001190D01*
X008142Y001190D01*
X008092Y001241D01*
X007811Y001241D01*
X007761Y001190D01*
X007529Y001190D01*
X007478Y001241D01*
X007198Y001241D01*
X007147Y001190D01*
X006915Y001190D01*
X006864Y001241D01*
X004726Y001241D01*
X004675Y001190D01*
X004298Y001190D01*
X004247Y001241D01*
X000271Y001241D01*
X000271Y001161D01*
X000271Y001241D02*
X000271Y001321D01*
X004167Y001321D01*
X004091Y001397D01*
X004091Y001401D01*
X000271Y001401D01*
X000271Y001321D01*
X000271Y001401D02*
X000271Y001481D01*
X004091Y001481D01*
X004091Y001561D01*
X000271Y001561D01*
X000271Y001481D01*
X000271Y001561D02*
X000271Y001641D01*
X004103Y001641D01*
X004183Y001721D01*
X000271Y001721D01*
X000271Y001641D01*
X000271Y001721D02*
X000271Y001801D01*
X004263Y001801D01*
X004298Y001836D01*
X004588Y001836D01*
X004633Y001881D01*
X000271Y001881D01*
X000271Y001801D01*
X000271Y001881D02*
X000271Y001961D01*
X004107Y001961D01*
X004091Y001977D01*
X004091Y002041D01*
X000271Y002041D01*
X000271Y001961D01*
X000271Y002041D02*
X000271Y002121D01*
X004148Y002121D01*
X004228Y002201D01*
X000271Y002201D01*
X000271Y002121D01*
X000271Y002201D02*
X000271Y002281D01*
X019676Y002281D01*
X019676Y002361D01*
X000271Y002361D01*
X000271Y002281D01*
X000271Y002361D02*
X000271Y002441D01*
X019676Y002441D01*
X019676Y002521D01*
X000271Y002521D01*
X000271Y002441D01*
X000271Y002521D02*
X000271Y002601D01*
X019676Y002601D01*
X019676Y002681D01*
X000271Y002681D01*
X000271Y002601D01*
X000271Y002681D02*
X000271Y002761D01*
X019676Y002761D01*
X019676Y002841D01*
X000271Y002841D01*
X000271Y002761D01*
X000271Y002841D02*
X000271Y002921D01*
X019676Y002921D01*
X019676Y003001D01*
X000271Y003001D01*
X000271Y002921D01*
X000271Y003001D02*
X000271Y003081D01*
X019676Y003081D01*
X019676Y003161D01*
X000271Y003161D01*
X000271Y003081D01*
X000271Y003161D02*
X000271Y003241D01*
X019676Y003241D01*
X019676Y003321D01*
X000271Y003321D01*
X000271Y003241D01*
X000271Y003321D02*
X000271Y003341D01*
X019676Y003341D01*
X019676Y003321D01*
X019676Y003241D02*
X019676Y003161D01*
X019676Y003081D02*
X019676Y003001D01*
X019676Y002921D02*
X019676Y002841D01*
X019676Y002761D02*
X019676Y002681D01*
X019676Y002601D02*
X019676Y002521D01*
X019676Y002441D02*
X019676Y002361D01*
X019676Y002281D02*
X019676Y002201D01*
X018539Y002201D01*
X018539Y002121D01*
X019676Y002121D01*
X019676Y002201D01*
X019676Y002121D02*
X019676Y002041D01*
X018539Y002041D01*
X018539Y001961D01*
X019676Y001961D01*
X019676Y002041D01*
X019676Y001961D02*
X019676Y001881D01*
X018539Y001881D01*
X018539Y001801D01*
X019676Y001801D01*
X019676Y001881D01*
X019676Y001801D02*
X019676Y001721D01*
X018539Y001721D01*
X018539Y001687D01*
X018493Y001641D01*
X019676Y001641D01*
X019676Y001721D01*
X019676Y001641D02*
X019676Y001561D01*
X018413Y001561D01*
X018394Y001542D01*
X018333Y001481D01*
X019676Y001481D01*
X019676Y001561D01*
X019676Y001481D02*
X019676Y001401D01*
X013815Y001401D01*
X013815Y001321D01*
X019676Y001321D01*
X019676Y001401D01*
X019676Y001321D02*
X019676Y001241D01*
X019676Y001161D02*
X019676Y001081D01*
X019676Y001001D02*
X019676Y000921D01*
X019676Y000841D02*
X019676Y000761D01*
X019676Y000681D02*
X019676Y000601D01*
X019676Y000521D02*
X019676Y000441D01*
X019676Y000361D02*
X019676Y000281D01*
X019637Y000252D02*
X019637Y000232D01*
X018394Y001542D02*
X018394Y001542D01*
X018413Y001561D02*
X018478Y001626D01*
X018478Y001626D01*
X018493Y001641D01*
X018539Y001721D02*
X018539Y001801D01*
X018539Y001881D02*
X018539Y001961D01*
X018539Y002041D02*
X018539Y002121D01*
X018539Y002201D02*
X018539Y002210D01*
X018478Y002271D01*
X018391Y002271D01*
X018329Y002210D01*
X018329Y002201D01*
X018249Y002201D01*
X018249Y002121D01*
X018329Y002121D01*
X018329Y002201D01*
X018329Y002121D02*
X018329Y002041D01*
X018249Y002041D01*
X018249Y001961D01*
X018329Y001961D01*
X018329Y002041D01*
X018329Y001961D02*
X018329Y001881D01*
X018249Y001881D01*
X018249Y001801D01*
X018329Y001801D01*
X018329Y001881D01*
X018329Y001801D02*
X018329Y001774D01*
X018289Y001734D01*
X018249Y001774D01*
X018249Y001801D01*
X018249Y001881D02*
X018249Y001961D01*
X018249Y002041D02*
X018249Y002121D01*
X018249Y002201D02*
X018249Y002210D01*
X018187Y002271D01*
X018100Y002271D01*
X018039Y002210D01*
X018039Y002201D01*
X017959Y002201D01*
X017959Y002121D01*
X018039Y002121D01*
X018039Y002201D01*
X018039Y002121D02*
X018039Y002041D01*
X017959Y002041D01*
X017959Y001961D01*
X018039Y001961D01*
X018039Y002041D01*
X018039Y001961D02*
X018039Y001881D01*
X017959Y001881D01*
X017959Y001801D01*
X018039Y001801D01*
X018039Y001881D01*
X018039Y001801D02*
X018039Y001774D01*
X017986Y001721D01*
X017959Y001721D01*
X017959Y001694D01*
X017986Y001721D01*
X017959Y001721D02*
X017959Y001801D01*
X017959Y001881D02*
X017959Y001961D01*
X017959Y002041D02*
X017959Y002121D01*
X017959Y002201D02*
X017959Y002210D01*
X017897Y002271D01*
X017810Y002271D01*
X017749Y002210D01*
X017749Y002201D01*
X017482Y002201D01*
X017562Y002121D01*
X017749Y002121D01*
X017749Y002201D01*
X017749Y002121D02*
X017749Y002041D01*
X017618Y002041D01*
X017618Y001961D01*
X017749Y001961D01*
X017749Y002041D01*
X017749Y001961D02*
X017749Y001881D01*
X017618Y001881D01*
X017618Y001801D01*
X017749Y001801D01*
X017749Y001881D01*
X017749Y001801D02*
X017749Y001721D01*
X017618Y001721D01*
X017618Y001687D01*
X017572Y001641D01*
X017749Y001641D01*
X017749Y001721D01*
X017749Y001641D02*
X017749Y001561D01*
X017492Y001561D01*
X017412Y001481D01*
X017810Y001481D01*
X017749Y001542D01*
X017749Y001561D01*
X017810Y001481D02*
X017810Y001481D01*
X018042Y001481D01*
X018043Y001481D01*
X018245Y001481D01*
X018165Y001561D01*
X018123Y001561D01*
X018144Y001582D02*
X018043Y001481D01*
X018144Y001582D02*
X018165Y001561D01*
X018246Y001481D02*
X018245Y001481D01*
X018246Y001481D02*
X018333Y001481D01*
X018333Y001481D01*
X017618Y001721D02*
X017618Y001801D01*
X017618Y001881D02*
X017618Y001961D01*
X017618Y002041D02*
X017618Y002064D01*
X017562Y002121D01*
X017482Y002201D02*
X017412Y002271D01*
X017035Y002271D01*
X016965Y002201D01*
X016698Y002201D01*
X016698Y002123D01*
X016696Y002121D01*
X016885Y002121D01*
X016965Y002201D01*
X016885Y002121D02*
X016828Y002064D01*
X016828Y002041D01*
X016181Y002041D01*
X016117Y001977D01*
X016117Y001961D01*
X016828Y001961D01*
X016828Y002041D01*
X016828Y001961D02*
X016828Y001881D01*
X016117Y001881D01*
X016117Y001801D01*
X016828Y001801D01*
X016828Y001881D01*
X016828Y001801D02*
X016828Y001721D01*
X016170Y001721D01*
X016201Y001691D01*
X016636Y001691D01*
X016686Y001641D01*
X016874Y001641D01*
X016828Y001687D01*
X016828Y001721D01*
X016874Y001641D02*
X016954Y001561D01*
X016698Y001561D01*
X016698Y001542D01*
X016637Y001481D01*
X017034Y001481D01*
X016954Y001561D01*
X017035Y001481D02*
X017034Y001481D01*
X017035Y001481D02*
X017412Y001481D01*
X017412Y001481D01*
X017492Y001561D02*
X017572Y001641D01*
X017408Y001774D02*
X017408Y001801D01*
X017038Y001801D01*
X017038Y001774D01*
X017091Y001721D01*
X017355Y001721D01*
X017408Y001774D01*
X017408Y001801D02*
X017408Y001881D01*
X017038Y001881D01*
X017038Y001801D01*
X017038Y001881D02*
X017038Y001961D01*
X017408Y001961D01*
X017408Y001977D01*
X017345Y002041D01*
X017102Y002041D01*
X017038Y001977D01*
X017038Y001961D01*
X017102Y002041D02*
X017122Y002061D01*
X017325Y002061D01*
X017345Y002041D01*
X017408Y001961D02*
X017408Y001881D01*
X017355Y001721D02*
X017325Y001691D01*
X017122Y001691D01*
X017091Y001721D01*
X016698Y001629D02*
X016698Y001561D01*
X016698Y001629D02*
X016686Y001641D01*
X016637Y001481D02*
X016636Y001481D01*
X016114Y001481D01*
X016113Y001481D01*
X015256Y001481D01*
X015255Y001481D01*
X014733Y001481D01*
X014732Y001481D01*
X014190Y001481D01*
X014189Y001481D01*
X013815Y001481D01*
X013815Y001401D01*
X013815Y001321D02*
X013815Y001252D01*
X013805Y001241D01*
X013616Y001241D02*
X013605Y001252D01*
X013605Y001321D01*
X011974Y001321D01*
X011974Y001252D01*
X011963Y001241D01*
X011974Y001321D02*
X011974Y001401D01*
X013605Y001401D01*
X013605Y001481D01*
X013269Y001481D01*
X013268Y001481D01*
X012891Y001481D01*
X011974Y001481D01*
X011974Y001401D01*
X011974Y001481D02*
X011974Y001561D01*
X012830Y001561D01*
X012830Y001629D01*
X012842Y001641D01*
X011974Y001641D01*
X011974Y001561D01*
X011974Y001641D02*
X011974Y001721D01*
X013212Y001721D01*
X013262Y001771D01*
X012891Y001771D01*
X012861Y001801D01*
X011974Y001801D01*
X011974Y001721D01*
X011974Y001801D02*
X011974Y001881D01*
X012781Y001881D01*
X012701Y001961D01*
X011974Y001961D01*
X011974Y001881D01*
X011974Y001961D02*
X011974Y002041D01*
X012685Y002041D01*
X012685Y002064D01*
X012741Y002121D01*
X012553Y002121D01*
X012493Y002061D01*
X011974Y002061D01*
X011974Y002041D01*
X011764Y002041D02*
X011764Y001961D01*
X011634Y001961D01*
X011634Y001881D01*
X011764Y001881D01*
X011764Y001961D01*
X011764Y001881D02*
X011764Y001801D01*
X011634Y001801D01*
X011634Y001721D01*
X011764Y001721D01*
X011764Y001801D01*
X011764Y001721D02*
X011764Y001641D01*
X011587Y001641D01*
X011507Y001561D01*
X011764Y001561D01*
X011764Y001641D01*
X011764Y001561D02*
X011764Y001481D01*
X011427Y001481D01*
X011340Y001481D01*
X011340Y001481D01*
X011137Y001481D01*
X011137Y001481D01*
X011238Y001582D01*
X011260Y001561D01*
X011217Y001561D01*
X011260Y001561D02*
X011340Y001481D01*
X011427Y001481D02*
X011427Y001481D01*
X011507Y001561D01*
X011587Y001641D02*
X011634Y001687D01*
X011634Y001721D01*
X011634Y001801D02*
X011634Y001881D01*
X011634Y001961D02*
X011634Y002041D01*
X011764Y002041D01*
X011764Y002121D01*
X011634Y002121D01*
X011634Y002041D01*
X011634Y002121D02*
X011634Y002201D01*
X011764Y002201D01*
X011764Y002210D01*
X011825Y002271D01*
X012493Y002271D01*
X012554Y002210D01*
X012554Y002201D01*
X012821Y002201D01*
X012891Y002271D01*
X013414Y002271D01*
X013475Y002210D01*
X013475Y002201D01*
X013605Y002201D01*
X013605Y002210D01*
X013667Y002271D01*
X014189Y002271D01*
X014259Y002201D01*
X014526Y002201D01*
X014526Y002210D01*
X014588Y002271D01*
X015110Y002271D01*
X015180Y002201D01*
X015447Y002201D01*
X015447Y002210D01*
X015508Y002271D01*
X015740Y002271D01*
X015802Y002210D01*
X015802Y002201D01*
X016044Y002201D01*
X016114Y002271D01*
X016636Y002271D01*
X016698Y002210D01*
X016698Y002201D01*
X016696Y002121D02*
X016636Y002061D01*
X016201Y002061D01*
X016181Y002041D01*
X016117Y001961D02*
X016117Y001881D01*
X016117Y001801D02*
X016117Y001774D01*
X016170Y001721D01*
X016033Y001561D02*
X015317Y001561D01*
X015317Y001542D01*
X015256Y001481D01*
X015317Y001561D02*
X015317Y001629D01*
X015305Y001641D01*
X015953Y001641D01*
X015907Y001687D01*
X015907Y001721D01*
X014789Y001721D01*
X014820Y001691D01*
X015255Y001691D01*
X015305Y001641D01*
X015140Y001801D02*
X015907Y001801D01*
X015907Y001881D01*
X015220Y001881D01*
X015140Y001801D01*
X015110Y001771D01*
X014820Y001771D01*
X014780Y001731D01*
X014789Y001721D01*
X014652Y001561D02*
X014270Y001561D01*
X014190Y001481D01*
X014270Y001561D02*
X014350Y001641D01*
X014572Y001641D01*
X014526Y001687D01*
X014526Y001721D01*
X014396Y001721D01*
X014396Y001687D01*
X014350Y001641D01*
X014396Y001721D02*
X014396Y001801D01*
X014553Y001801D01*
X014633Y001881D01*
X014396Y001881D01*
X014396Y001801D01*
X014396Y001881D02*
X014396Y001961D01*
X014713Y001961D01*
X014733Y001981D01*
X015023Y001981D01*
X015063Y002021D01*
X015043Y002041D01*
X014396Y002041D01*
X014396Y001961D01*
X014396Y002041D02*
X014396Y002064D01*
X014339Y002121D01*
X014528Y002121D01*
X014526Y002123D01*
X014526Y002201D01*
X014528Y002121D02*
X014588Y002061D01*
X015023Y002061D01*
X015043Y002041D01*
X015180Y002201D02*
X015260Y002121D01*
X015447Y002121D01*
X015447Y002201D01*
X015447Y002121D02*
X015447Y002041D01*
X015317Y002041D01*
X015317Y001977D01*
X015300Y001961D01*
X015463Y001961D01*
X015447Y001977D01*
X015447Y002041D01*
X015463Y001961D02*
X015508Y001916D01*
X015740Y001916D01*
X015786Y001961D01*
X015907Y001961D01*
X015907Y002041D01*
X015802Y002041D01*
X015802Y001977D01*
X015786Y001961D01*
X015802Y002041D02*
X015802Y002121D01*
X015964Y002121D01*
X016044Y002201D01*
X015964Y002121D02*
X015907Y002064D01*
X015907Y002041D01*
X015907Y001961D02*
X015907Y001881D01*
X015907Y001801D02*
X015907Y001721D01*
X015953Y001641D02*
X016033Y001561D01*
X016113Y001481D01*
X015802Y002121D02*
X015802Y002201D01*
X015317Y002064D02*
X015317Y002041D01*
X015317Y002064D02*
X015260Y002121D01*
X015300Y001961D02*
X015220Y001881D01*
X014713Y001961D02*
X014633Y001881D01*
X014553Y001801D02*
X014526Y001774D01*
X014526Y001721D01*
X014572Y001641D02*
X014652Y001561D01*
X014732Y001481D01*
X014186Y001774D02*
X014186Y001801D01*
X013815Y001801D01*
X013815Y001721D01*
X014133Y001721D01*
X014186Y001774D01*
X014186Y001801D02*
X014186Y001881D01*
X013815Y001881D01*
X013815Y001801D01*
X013815Y001721D02*
X013815Y001691D01*
X014102Y001691D01*
X014133Y001721D01*
X014186Y001881D02*
X014186Y001961D01*
X013815Y001961D01*
X013815Y001881D01*
X013815Y001961D02*
X013815Y002041D01*
X014122Y002041D01*
X014102Y002061D01*
X013815Y002061D01*
X013815Y002041D01*
X013605Y002041D02*
X013605Y001961D01*
X013475Y001961D01*
X013475Y001881D01*
X013605Y001881D01*
X013605Y001961D01*
X013605Y001881D02*
X013605Y001801D01*
X013475Y001801D01*
X013475Y001721D01*
X013605Y001721D01*
X013605Y001801D01*
X013605Y001721D02*
X013605Y001641D01*
X013429Y001641D01*
X013349Y001561D01*
X013605Y001561D01*
X013605Y001641D01*
X013605Y001561D02*
X013605Y001481D01*
X013605Y001401D02*
X013605Y001321D01*
X013349Y001561D02*
X013269Y001481D01*
X013429Y001641D02*
X013475Y001687D01*
X013475Y001721D01*
X013475Y001801D02*
X013475Y001881D01*
X013475Y001961D02*
X013475Y002041D01*
X013605Y002041D01*
X013605Y002121D01*
X013475Y002121D01*
X013475Y002041D01*
X013475Y002121D02*
X013475Y002201D01*
X013605Y002201D02*
X013605Y002121D01*
X013265Y002061D02*
X013265Y002041D01*
X012958Y002041D01*
X012938Y002021D01*
X012978Y001981D01*
X013265Y001981D01*
X013265Y002041D01*
X013265Y002061D02*
X012978Y002061D01*
X012958Y002041D01*
X012821Y002201D02*
X012741Y002121D01*
X012685Y002041D02*
X012685Y001977D01*
X012701Y001961D01*
X012781Y001881D02*
X012861Y001801D01*
X012891Y001691D02*
X013181Y001691D01*
X013212Y001721D01*
X012891Y001691D02*
X012842Y001641D01*
X012830Y001561D02*
X012830Y001542D01*
X012891Y001481D01*
X012891Y001481D01*
X012553Y002121D02*
X012554Y002123D01*
X012554Y002201D01*
X011764Y002201D02*
X011764Y002121D01*
X011634Y002201D02*
X011634Y002210D01*
X011572Y002271D01*
X011485Y002271D01*
X011424Y002210D01*
X011424Y002201D01*
X011343Y002201D01*
X011343Y002121D01*
X011424Y002121D01*
X011424Y002201D01*
X011424Y002121D02*
X011424Y002041D01*
X011343Y002041D01*
X011343Y001961D01*
X011424Y001961D01*
X011424Y002041D01*
X011424Y001961D02*
X011424Y001881D01*
X011343Y001881D01*
X011343Y001801D01*
X011424Y001801D01*
X011424Y001881D01*
X011424Y001801D02*
X011424Y001774D01*
X011383Y001734D01*
X011343Y001774D01*
X011343Y001801D01*
X011343Y001881D02*
X011343Y001961D01*
X011343Y002041D02*
X011343Y002121D01*
X011343Y002201D02*
X011343Y002210D01*
X011282Y002271D01*
X011195Y002271D01*
X011133Y002210D01*
X011133Y002201D01*
X011053Y002201D01*
X011053Y002121D01*
X011133Y002121D01*
X011133Y002201D01*
X011053Y002210D02*
X011053Y002201D01*
X011053Y002210D02*
X010992Y002271D01*
X010905Y002271D01*
X010843Y002210D01*
X010843Y002201D01*
X010576Y002201D01*
X010656Y002121D01*
X010843Y002121D01*
X010843Y002201D01*
X010843Y002121D02*
X010843Y002041D01*
X010713Y002041D01*
X010713Y001961D01*
X010843Y001961D01*
X010843Y002041D01*
X010843Y001961D02*
X010843Y001881D01*
X010713Y001881D01*
X010713Y001801D01*
X010843Y001801D01*
X010843Y001881D01*
X010843Y001801D02*
X010843Y001721D01*
X010713Y001721D01*
X010713Y001687D01*
X010667Y001641D01*
X010843Y001641D01*
X010843Y001721D01*
X010843Y001641D02*
X010843Y001561D01*
X010587Y001561D01*
X010507Y001481D01*
X010904Y001481D01*
X010843Y001542D01*
X010843Y001561D01*
X010904Y001481D02*
X010905Y001481D01*
X011137Y001481D01*
X011053Y001694D02*
X011080Y001721D01*
X011053Y001721D01*
X011053Y001694D01*
X011053Y001721D02*
X011053Y001801D01*
X011133Y001801D01*
X011133Y001881D01*
X011053Y001881D01*
X011053Y001801D01*
X011053Y001881D02*
X011053Y001961D01*
X011133Y001961D01*
X011133Y002041D01*
X011053Y002041D01*
X011053Y001961D01*
X011053Y002041D02*
X011053Y002121D01*
X011133Y002121D02*
X011133Y002041D01*
X011133Y001961D02*
X011133Y001881D01*
X011133Y001801D02*
X011133Y001774D01*
X011080Y001721D01*
X010713Y001721D02*
X010713Y001801D01*
X010713Y001881D02*
X010713Y001961D01*
X010713Y002041D02*
X010713Y002064D01*
X010656Y002121D01*
X010576Y002201D02*
X010506Y002271D01*
X010129Y002271D01*
X010059Y002201D01*
X009655Y002201D01*
X009735Y002121D01*
X009979Y002121D01*
X010059Y002201D01*
X009979Y002121D02*
X009922Y002064D01*
X009922Y002041D01*
X009792Y002041D01*
X009792Y001961D01*
X009922Y001961D01*
X009922Y002041D01*
X009922Y001961D02*
X009922Y001881D01*
X009792Y001881D01*
X009792Y001801D01*
X009922Y001801D01*
X009922Y001881D01*
X009922Y001801D02*
X009922Y001721D01*
X009792Y001721D01*
X009792Y001687D01*
X009746Y001641D01*
X009969Y001641D01*
X009922Y001687D01*
X009922Y001721D01*
X009969Y001641D02*
X010049Y001561D01*
X009666Y001561D01*
X009586Y001481D01*
X010129Y001481D01*
X010129Y001481D01*
X010506Y001481D01*
X010507Y001481D01*
X010587Y001561D02*
X010667Y001641D01*
X010503Y001774D02*
X010503Y001801D01*
X010132Y001801D01*
X010132Y001774D01*
X010186Y001721D01*
X010450Y001721D01*
X010503Y001774D01*
X010503Y001801D02*
X010503Y001881D01*
X010132Y001881D01*
X010132Y001801D01*
X010132Y001881D02*
X010132Y001961D01*
X010503Y001961D01*
X010503Y001977D01*
X010439Y002041D01*
X010196Y002041D01*
X010132Y001977D01*
X010132Y001961D01*
X010196Y002041D02*
X010216Y002061D01*
X010419Y002061D01*
X010439Y002041D01*
X010503Y001961D02*
X010503Y001881D01*
X010450Y001721D02*
X010419Y001691D01*
X010216Y001691D01*
X010186Y001721D01*
X010049Y001561D02*
X010129Y001481D01*
X009792Y001721D02*
X009792Y001801D01*
X009792Y001881D02*
X009792Y001961D01*
X009792Y002041D02*
X009792Y002064D01*
X009735Y002121D01*
X009655Y002201D02*
X009585Y002271D01*
X009208Y002271D01*
X009138Y002201D01*
X008871Y002201D01*
X008871Y002123D01*
X008870Y002121D01*
X009058Y002121D01*
X009138Y002201D01*
X009058Y002121D02*
X009002Y002064D01*
X009002Y002041D01*
X008790Y002041D01*
X008710Y001961D01*
X009002Y001961D01*
X009002Y002041D01*
X009002Y001961D02*
X009002Y001881D01*
X008764Y001881D01*
X008844Y001801D01*
X009002Y001801D01*
X009002Y001881D01*
X009002Y001801D02*
X009002Y001721D01*
X008871Y001721D01*
X008871Y001641D01*
X009048Y001641D01*
X009002Y001687D01*
X009002Y001721D01*
X009048Y001641D02*
X009128Y001561D01*
X008871Y001561D01*
X008871Y001481D01*
X009208Y001481D01*
X009128Y001561D01*
X009208Y001481D02*
X009208Y001481D01*
X009585Y001481D01*
X009586Y001481D01*
X009666Y001561D02*
X009746Y001641D01*
X009582Y001774D02*
X009582Y001801D01*
X009212Y001801D01*
X009212Y001774D01*
X009265Y001721D01*
X009529Y001721D01*
X009582Y001774D01*
X009582Y001801D02*
X009582Y001881D01*
X009212Y001881D01*
X009212Y001801D01*
X009212Y001881D02*
X009212Y001961D01*
X009582Y001961D01*
X009582Y001977D01*
X009519Y002041D01*
X009275Y002041D01*
X009212Y001977D01*
X009212Y001961D01*
X009275Y002041D02*
X009295Y002061D01*
X009499Y002061D01*
X009519Y002041D01*
X009582Y001961D02*
X009582Y001881D01*
X009529Y001721D02*
X009499Y001691D01*
X009295Y001691D01*
X009265Y001721D01*
X008871Y001721D02*
X008871Y001774D01*
X008844Y001801D01*
X008764Y001881D02*
X008726Y001919D01*
X008697Y001948D01*
X008710Y001961D01*
X008790Y002041D02*
X008870Y002121D01*
X008871Y002201D02*
X008871Y002210D01*
X008810Y002271D01*
X008723Y002271D01*
X008653Y002201D01*
X008291Y002201D01*
X008291Y002121D01*
X008573Y002121D01*
X008653Y002201D01*
X008573Y002121D02*
X008493Y002041D01*
X008291Y002041D01*
X008291Y001981D01*
X008433Y001981D01*
X008493Y002041D01*
X008291Y002041D02*
X008291Y002121D01*
X008291Y002201D02*
X008291Y002210D01*
X008229Y002271D01*
X008142Y002271D01*
X008081Y002210D01*
X008081Y002201D01*
X007967Y002201D01*
X007967Y002123D01*
X007966Y002121D01*
X008081Y002121D01*
X008081Y002201D01*
X008081Y002121D02*
X008081Y002041D01*
X007822Y002041D01*
X007822Y001961D01*
X008081Y001961D01*
X008081Y002041D01*
X008081Y001961D02*
X008081Y001881D01*
X007822Y001881D01*
X007822Y001801D01*
X008081Y001801D01*
X008081Y001881D01*
X008081Y001801D02*
X008081Y001721D01*
X007822Y001721D01*
X007822Y001641D01*
X008081Y001641D01*
X008081Y001721D01*
X008081Y001641D02*
X008081Y001561D01*
X007822Y001561D01*
X007822Y001481D01*
X008081Y001481D01*
X008081Y001561D01*
X008081Y001481D02*
X008081Y001401D01*
X007822Y001401D01*
X007822Y001321D01*
X008081Y001321D01*
X008081Y001401D01*
X008081Y001321D02*
X008081Y001252D01*
X008092Y001241D01*
X008291Y001400D02*
X008291Y001401D01*
X008579Y001401D01*
X008659Y001481D01*
X008291Y001481D01*
X008291Y001401D01*
X008291Y001400D02*
X008578Y001400D01*
X008579Y001401D01*
X008659Y001481D02*
X008661Y001484D01*
X008661Y001561D01*
X008291Y001561D01*
X008291Y001481D01*
X008291Y001561D02*
X008291Y001641D01*
X008661Y001641D01*
X008661Y001687D01*
X008628Y001721D01*
X008291Y001721D01*
X008291Y001641D01*
X008291Y001721D02*
X008291Y001771D01*
X008578Y001771D01*
X008628Y001721D01*
X008661Y001641D02*
X008661Y001561D01*
X008871Y001561D02*
X008871Y001641D01*
X008871Y001481D02*
X008871Y001401D01*
X011764Y001401D01*
X011764Y001481D01*
X011764Y001401D02*
X011764Y001321D01*
X008795Y001321D01*
X008726Y001252D01*
X008726Y001252D01*
X008715Y001241D01*
X008795Y001321D02*
X008810Y001335D01*
X008810Y001335D01*
X008871Y001397D01*
X008871Y001401D01*
X007822Y001401D02*
X007822Y001481D01*
X007822Y001561D02*
X007822Y001641D01*
X007822Y001721D02*
X007822Y001801D01*
X007822Y001881D02*
X007822Y001961D01*
X007822Y002041D02*
X007822Y002061D01*
X007906Y002061D01*
X007966Y002121D01*
X007967Y002201D02*
X007967Y002210D01*
X007906Y002271D01*
X007529Y002271D01*
X007467Y002210D01*
X007467Y002201D01*
X007353Y002201D01*
X007353Y002123D01*
X007352Y002121D01*
X007469Y002121D01*
X007467Y002123D01*
X007467Y002201D01*
X007469Y002121D02*
X007529Y002061D01*
X007612Y002061D01*
X007612Y002041D01*
X007208Y002041D01*
X007208Y001961D01*
X007612Y001961D01*
X007612Y002041D01*
X007612Y001961D02*
X007612Y001881D01*
X007208Y001881D01*
X007208Y001801D01*
X007612Y001801D01*
X007612Y001881D01*
X007612Y001801D02*
X007612Y001721D01*
X007208Y001721D01*
X007208Y001641D01*
X007612Y001641D01*
X007612Y001721D01*
X007612Y001641D02*
X007612Y001561D01*
X007208Y001561D01*
X007208Y001481D01*
X007612Y001481D01*
X007612Y001561D01*
X007612Y001481D02*
X007612Y001401D01*
X007208Y001401D01*
X007208Y001321D01*
X007467Y001321D01*
X007467Y001339D01*
X007529Y001400D01*
X007612Y001400D01*
X007612Y001401D01*
X007467Y001321D02*
X007467Y001252D01*
X007478Y001241D01*
X007208Y001252D02*
X007198Y001241D01*
X007208Y001252D02*
X007208Y001321D01*
X007208Y001401D02*
X007208Y001481D01*
X007208Y001561D02*
X007208Y001641D01*
X007208Y001721D02*
X007208Y001801D01*
X007208Y001881D02*
X007208Y001961D01*
X007208Y002041D02*
X007208Y002061D01*
X007292Y002061D01*
X007352Y002121D01*
X007353Y002201D02*
X007353Y002210D01*
X007292Y002271D01*
X006915Y002271D01*
X006853Y002210D01*
X006853Y002201D01*
X006723Y002201D01*
X006723Y002121D01*
X006855Y002121D01*
X006853Y002123D01*
X006853Y002201D01*
X006855Y002121D02*
X006915Y002061D01*
X006998Y002061D01*
X006998Y002041D01*
X006723Y002041D01*
X006723Y001961D01*
X006998Y001961D01*
X006998Y002041D01*
X006998Y001961D02*
X006998Y001881D01*
X006723Y001881D01*
X006723Y001801D01*
X006998Y001801D01*
X006998Y001881D01*
X006998Y001801D02*
X006998Y001721D01*
X006723Y001721D01*
X006723Y001687D01*
X006677Y001641D01*
X006998Y001641D01*
X006998Y001721D01*
X006998Y001641D02*
X006998Y001561D01*
X006597Y001561D01*
X006517Y001481D01*
X006998Y001481D01*
X006998Y001561D01*
X006998Y001481D02*
X006998Y001401D01*
X004881Y001401D01*
X004881Y001397D01*
X004806Y001321D01*
X006853Y001321D01*
X006853Y001339D01*
X006915Y001400D01*
X006998Y001400D01*
X006998Y001401D01*
X006853Y001321D02*
X006853Y001252D01*
X006864Y001241D01*
X006597Y001561D02*
X006677Y001641D01*
X006723Y001721D02*
X006723Y001801D01*
X006723Y001881D02*
X006723Y001961D01*
X006723Y002041D02*
X006723Y002121D01*
X006723Y002201D02*
X006723Y002210D01*
X006661Y002271D01*
X006139Y002271D01*
X006069Y002201D01*
X005802Y002201D01*
X005802Y002121D01*
X005989Y002121D01*
X006069Y002201D01*
X005989Y002121D02*
X005933Y002064D01*
X005933Y002041D01*
X005802Y002041D01*
X005802Y001961D01*
X005949Y001961D01*
X005933Y001977D01*
X005933Y002041D01*
X005949Y001961D02*
X006029Y001881D01*
X005802Y001881D01*
X005802Y001801D01*
X006109Y001801D01*
X006029Y001881D01*
X006109Y001801D02*
X006139Y001771D01*
X006510Y001771D01*
X006460Y001721D01*
X005802Y001721D01*
X005802Y001687D01*
X005756Y001641D01*
X006090Y001641D01*
X006139Y001691D01*
X006429Y001691D01*
X006460Y001721D01*
X006517Y001481D02*
X006516Y001481D01*
X006139Y001481D01*
X005596Y001481D01*
X005596Y001481D01*
X005676Y001561D01*
X006078Y001561D01*
X006078Y001629D01*
X006090Y001641D01*
X006078Y001561D02*
X006078Y001542D01*
X006139Y001481D01*
X006139Y001481D01*
X005802Y001721D02*
X005802Y001801D01*
X005802Y001881D02*
X005802Y001961D01*
X005802Y002041D02*
X005802Y002121D01*
X005802Y002201D02*
X005802Y002210D01*
X005741Y002271D01*
X005654Y002271D01*
X005592Y002210D01*
X005592Y002201D01*
X005512Y002201D01*
X005512Y002121D01*
X005592Y002121D01*
X005592Y002201D01*
X005592Y002121D02*
X005592Y002041D01*
X005512Y002041D01*
X005512Y001961D01*
X005592Y001961D01*
X005592Y002041D01*
X005592Y001961D02*
X005592Y001881D01*
X005512Y001881D01*
X005512Y001801D01*
X005592Y001801D01*
X005592Y001881D01*
X005592Y001801D02*
X005592Y001774D01*
X005552Y001734D01*
X005512Y001774D01*
X005512Y001801D01*
X005512Y001881D02*
X005512Y001961D01*
X005512Y002041D02*
X005512Y002121D01*
X005512Y002201D02*
X005512Y002210D01*
X005450Y002271D01*
X005364Y002271D01*
X005302Y002210D01*
X005302Y002201D01*
X005222Y002201D01*
X005222Y002121D01*
X005302Y002121D01*
X005302Y002201D01*
X005302Y002121D02*
X005302Y002041D01*
X005222Y002041D01*
X005222Y001961D01*
X005302Y001961D01*
X005302Y002041D01*
X005302Y001961D02*
X005302Y001881D01*
X005222Y001881D01*
X005222Y001801D01*
X005302Y001801D01*
X005302Y001881D01*
X005302Y001801D02*
X005302Y001774D01*
X005249Y001721D01*
X005222Y001721D01*
X005222Y001694D01*
X005249Y001721D01*
X005222Y001721D02*
X005222Y001801D01*
X005222Y001881D02*
X005222Y001961D01*
X005222Y002041D02*
X005222Y002121D01*
X005222Y002201D02*
X005222Y002210D01*
X005160Y002271D01*
X005073Y002271D01*
X005012Y002210D01*
X005012Y002201D01*
X004745Y002201D01*
X004825Y002121D01*
X005012Y002121D01*
X005012Y002201D01*
X005012Y002121D02*
X005012Y002041D01*
X004881Y002041D01*
X004881Y001961D01*
X005012Y001961D01*
X005012Y002041D01*
X005012Y001961D02*
X005012Y001881D01*
X004881Y001881D01*
X004881Y001832D01*
X004850Y001801D01*
X005012Y001801D01*
X005012Y001881D01*
X005012Y001801D02*
X005012Y001721D01*
X004770Y001721D01*
X004690Y001641D01*
X005012Y001641D01*
X005012Y001721D01*
X005012Y001641D02*
X005012Y001561D01*
X004320Y001561D01*
X004301Y001542D01*
X004301Y001484D01*
X004304Y001481D01*
X004669Y001481D01*
X004733Y001545D01*
X004820Y001545D01*
X004881Y001484D01*
X004881Y001481D01*
X005073Y001481D01*
X005012Y001542D01*
X005012Y001561D01*
X005073Y001481D02*
X005073Y001481D01*
X005305Y001481D01*
X005306Y001481D01*
X005508Y001481D01*
X005428Y001561D01*
X005386Y001561D01*
X005407Y001582D02*
X005306Y001481D01*
X005407Y001582D02*
X005428Y001561D01*
X005509Y001481D02*
X005508Y001481D01*
X005509Y001481D02*
X005596Y001481D01*
X005676Y001561D02*
X005756Y001641D01*
X006186Y002021D02*
X006226Y001981D01*
X006513Y001981D01*
X006513Y002041D01*
X006206Y002041D01*
X006186Y002021D01*
X006206Y002041D02*
X006226Y002061D01*
X006513Y002061D01*
X006513Y002041D01*
X007822Y001321D02*
X007822Y001252D01*
X007811Y001241D01*
X004881Y001401D02*
X004881Y001481D01*
X004806Y001321D02*
X004726Y001241D01*
X004588Y001400D02*
X004589Y001401D01*
X004384Y001401D01*
X004385Y001400D01*
X004588Y001400D01*
X004589Y001401D02*
X004669Y001481D01*
X004675Y001626D02*
X004385Y001626D01*
X004320Y001561D01*
X004304Y001481D02*
X004384Y001401D01*
X004247Y001241D02*
X004167Y001321D01*
X004091Y001401D02*
X004091Y001481D01*
X004091Y001561D02*
X004091Y001629D01*
X004103Y001641D01*
X004183Y001721D02*
X004263Y001801D01*
X004239Y001916D02*
X004153Y001916D01*
X004107Y001961D01*
X004091Y002041D02*
X004091Y002064D01*
X004148Y002121D01*
X004228Y002201D02*
X004298Y002271D01*
X004675Y002271D01*
X004745Y002201D01*
X004825Y002121D02*
X004881Y002064D01*
X004881Y002041D01*
X004881Y001961D02*
X004881Y001881D01*
X004850Y001801D02*
X004770Y001721D01*
X004690Y001641D02*
X004675Y001626D01*
X004633Y001881D02*
X004671Y001919D01*
X004671Y001961D01*
X004285Y001961D01*
X004239Y001916D01*
X004285Y001961D02*
X004365Y002041D01*
X004608Y002041D01*
X004588Y002061D01*
X004385Y002061D01*
X004365Y002041D01*
X004608Y002041D02*
X004671Y001977D01*
X004671Y001961D01*
X006915Y005127D02*
X007147Y005127D01*
X007198Y005178D01*
X007478Y005178D01*
X007467Y005189D01*
X007467Y005258D01*
X007208Y005258D01*
X007208Y005189D01*
X007198Y005178D01*
X007208Y005258D02*
X007208Y005338D01*
X007612Y005338D01*
X007612Y005418D01*
X007208Y005418D01*
X007208Y005338D01*
X007208Y005418D02*
X007208Y005498D01*
X007612Y005498D01*
X007612Y005578D01*
X007208Y005578D01*
X007208Y005498D01*
X007208Y005578D02*
X007208Y005658D01*
X007612Y005658D01*
X007612Y005738D01*
X007208Y005738D01*
X007208Y005658D01*
X007208Y005738D02*
X007208Y005818D01*
X007612Y005818D01*
X007612Y005898D01*
X007208Y005898D01*
X007208Y005818D01*
X007208Y005898D02*
X007208Y005978D01*
X007612Y005978D01*
X007612Y005998D01*
X007529Y005998D01*
X007469Y006058D01*
X007352Y006058D01*
X007292Y005998D01*
X007208Y005998D01*
X007208Y005978D01*
X007352Y006058D02*
X007353Y006060D01*
X007353Y006138D01*
X007467Y006138D02*
X007467Y006060D01*
X007469Y006058D01*
X007612Y005978D02*
X007612Y005898D01*
X007612Y005818D02*
X007612Y005738D01*
X007612Y005658D02*
X007612Y005578D01*
X007612Y005498D02*
X007612Y005418D01*
X007612Y005338D02*
X007612Y005337D01*
X007529Y005337D01*
X007467Y005276D01*
X007467Y005258D01*
X007478Y005178D02*
X007529Y005127D01*
X007761Y005127D01*
X007811Y005178D01*
X008092Y005178D01*
X008081Y005189D01*
X008081Y005258D01*
X007822Y005258D01*
X007822Y005189D01*
X007811Y005178D01*
X007822Y005258D02*
X007822Y005338D01*
X008081Y005338D01*
X008081Y005418D01*
X007822Y005418D01*
X007822Y005338D01*
X007822Y005418D02*
X007822Y005498D01*
X008081Y005498D01*
X008081Y005578D01*
X007822Y005578D01*
X007822Y005498D01*
X007822Y005578D02*
X007822Y005658D01*
X008081Y005658D01*
X008081Y005738D01*
X007822Y005738D01*
X007822Y005658D01*
X007822Y005738D02*
X007822Y005818D01*
X008081Y005818D01*
X008081Y005898D01*
X007822Y005898D01*
X007822Y005818D01*
X007822Y005898D02*
X007822Y005978D01*
X008081Y005978D01*
X008081Y006058D01*
X007966Y006058D01*
X007906Y005998D01*
X007822Y005998D01*
X007822Y005978D01*
X007966Y006058D02*
X007967Y006060D01*
X007967Y006138D01*
X008081Y006138D02*
X008081Y006058D01*
X008081Y005978D02*
X008081Y005898D01*
X008081Y005818D02*
X008081Y005738D01*
X008081Y005658D02*
X008081Y005578D01*
X008081Y005498D02*
X008081Y005418D01*
X008081Y005338D02*
X008081Y005258D01*
X008092Y005178D02*
X008142Y005127D01*
X008665Y005127D01*
X008715Y005178D01*
X011775Y005178D01*
X011764Y005189D01*
X011764Y005258D01*
X008795Y005258D01*
X008726Y005189D01*
X008726Y005189D01*
X008715Y005178D01*
X008795Y005258D02*
X008810Y005272D01*
X008810Y005272D01*
X008871Y005334D01*
X008871Y005338D01*
X011764Y005338D01*
X011764Y005418D01*
X011427Y005418D01*
X011340Y005418D01*
X011340Y005418D01*
X011137Y005418D01*
X011137Y005418D01*
X011238Y005519D01*
X011260Y005498D01*
X011217Y005498D01*
X011260Y005498D02*
X011340Y005418D01*
X011427Y005418D02*
X011427Y005418D01*
X011507Y005498D01*
X011764Y005498D01*
X011764Y005578D01*
X011587Y005578D01*
X011507Y005498D01*
X011587Y005578D02*
X011634Y005624D01*
X011634Y005658D01*
X011764Y005658D01*
X011764Y005738D01*
X011634Y005738D01*
X011634Y005658D01*
X011634Y005738D02*
X011634Y005818D01*
X011764Y005818D01*
X011764Y005898D01*
X011634Y005898D01*
X011634Y005818D01*
X011634Y005898D02*
X011634Y005978D01*
X011764Y005978D01*
X011764Y006058D01*
X011634Y006058D01*
X011634Y005978D01*
X011634Y006058D02*
X011634Y006138D01*
X011764Y006138D02*
X011764Y006058D01*
X011764Y005978D02*
X011764Y005898D01*
X011764Y005818D02*
X011764Y005738D01*
X011764Y005658D02*
X011764Y005578D01*
X011764Y005498D02*
X011764Y005418D01*
X011764Y005338D02*
X011764Y005258D01*
X011775Y005178D02*
X011825Y005127D01*
X011912Y005127D01*
X011963Y005178D01*
X013616Y005178D01*
X013605Y005189D01*
X013605Y005258D01*
X011974Y005258D01*
X011974Y005189D01*
X011963Y005178D01*
X011974Y005258D02*
X011974Y005338D01*
X013605Y005338D01*
X013605Y005418D01*
X013269Y005418D01*
X013268Y005418D01*
X012891Y005418D01*
X011974Y005418D01*
X011974Y005338D01*
X011974Y005418D02*
X011974Y005498D01*
X012830Y005498D01*
X012830Y005566D01*
X012842Y005578D01*
X011974Y005578D01*
X011974Y005498D01*
X011974Y005578D02*
X011974Y005658D01*
X013212Y005658D01*
X013262Y005708D01*
X012891Y005708D01*
X012861Y005738D01*
X011974Y005738D01*
X011974Y005658D01*
X011974Y005738D02*
X011974Y005818D01*
X012781Y005818D01*
X012701Y005898D01*
X011974Y005898D01*
X011974Y005818D01*
X011974Y005898D02*
X011974Y005978D01*
X012685Y005978D01*
X012685Y006001D01*
X012741Y006058D01*
X012553Y006058D01*
X012493Y005998D01*
X011974Y005998D01*
X011974Y005978D01*
X011424Y005978D02*
X011424Y005898D01*
X011343Y005898D01*
X011343Y005818D01*
X011424Y005818D01*
X011424Y005898D01*
X011424Y005818D02*
X011424Y005738D01*
X011343Y005738D01*
X011343Y005711D01*
X011383Y005671D01*
X011424Y005711D01*
X011424Y005738D01*
X011343Y005738D02*
X011343Y005818D01*
X011343Y005898D02*
X011343Y005978D01*
X011424Y005978D01*
X011424Y006058D01*
X011343Y006058D01*
X011343Y005978D01*
X011343Y006058D02*
X011343Y006138D01*
X011424Y006138D02*
X011424Y006058D01*
X011133Y006058D02*
X011053Y006058D01*
X011053Y005978D01*
X011133Y005978D01*
X011133Y006058D01*
X011133Y006138D01*
X011053Y006138D02*
X011053Y006058D01*
X011053Y005978D02*
X011053Y005898D01*
X011133Y005898D01*
X011133Y005978D01*
X011133Y005898D02*
X011133Y005818D01*
X011053Y005818D01*
X011053Y005738D01*
X011133Y005738D01*
X011133Y005818D01*
X011053Y005818D02*
X011053Y005898D01*
X011053Y005738D02*
X011053Y005658D01*
X011080Y005658D01*
X011133Y005711D01*
X011133Y005738D01*
X011080Y005658D02*
X011053Y005631D01*
X011053Y005658D01*
X010843Y005658D02*
X010713Y005658D01*
X010713Y005624D01*
X010667Y005578D01*
X010843Y005578D01*
X010843Y005658D01*
X010843Y005738D01*
X010713Y005738D01*
X010713Y005658D01*
X010713Y005738D02*
X010713Y005818D01*
X010843Y005818D01*
X010843Y005898D01*
X010713Y005898D01*
X010713Y005818D01*
X010713Y005898D02*
X010713Y005978D01*
X010843Y005978D01*
X010843Y006058D01*
X010656Y006058D01*
X010713Y006001D01*
X010713Y005978D01*
X010656Y006058D02*
X010576Y006138D01*
X010419Y005998D02*
X010216Y005998D01*
X010196Y005978D01*
X010439Y005978D01*
X010419Y005998D01*
X010439Y005978D02*
X010503Y005914D01*
X010503Y005898D01*
X010132Y005898D01*
X010132Y005818D01*
X010503Y005818D01*
X010503Y005898D01*
X010503Y005818D02*
X010503Y005738D01*
X010132Y005738D01*
X010132Y005711D01*
X010186Y005658D01*
X010450Y005658D01*
X010503Y005711D01*
X010503Y005738D01*
X010450Y005658D02*
X010419Y005628D01*
X010216Y005628D01*
X010186Y005658D01*
X010132Y005738D02*
X010132Y005818D01*
X010132Y005898D02*
X010132Y005914D01*
X010196Y005978D01*
X010059Y006138D02*
X009979Y006058D01*
X009735Y006058D01*
X009792Y006001D01*
X009792Y005978D01*
X009922Y005978D01*
X009922Y006001D01*
X009979Y006058D01*
X009922Y005978D02*
X009922Y005898D01*
X009792Y005898D01*
X009792Y005818D01*
X009922Y005818D01*
X009922Y005898D01*
X009922Y005818D02*
X009922Y005738D01*
X009792Y005738D01*
X009792Y005658D01*
X009922Y005658D01*
X009922Y005738D01*
X009922Y005658D02*
X009922Y005624D01*
X009969Y005578D01*
X009746Y005578D01*
X009666Y005498D01*
X010049Y005498D01*
X009969Y005578D01*
X010049Y005498D02*
X010129Y005418D01*
X010129Y005418D01*
X010506Y005418D01*
X010507Y005418D01*
X010904Y005418D01*
X010843Y005479D01*
X010843Y005498D01*
X010587Y005498D01*
X010507Y005418D01*
X010587Y005498D02*
X010667Y005578D01*
X010843Y005578D02*
X010843Y005498D01*
X010904Y005418D02*
X010905Y005418D01*
X011137Y005418D01*
X010843Y005738D02*
X010843Y005818D01*
X010843Y005898D02*
X010843Y005978D01*
X010843Y006058D02*
X010843Y006138D01*
X010129Y005418D02*
X009586Y005418D01*
X009585Y005418D01*
X009208Y005418D01*
X008871Y005418D01*
X008871Y005338D01*
X008871Y005418D02*
X008871Y005498D01*
X009128Y005498D01*
X009048Y005578D01*
X008871Y005578D01*
X008871Y005498D01*
X008871Y005578D02*
X008871Y005658D01*
X009002Y005658D01*
X009002Y005738D01*
X008844Y005738D01*
X008871Y005711D01*
X008871Y005658D01*
X008844Y005738D02*
X008764Y005818D01*
X009002Y005818D01*
X009002Y005898D01*
X008710Y005898D01*
X008697Y005885D01*
X008726Y005856D01*
X008764Y005818D01*
X008710Y005898D02*
X008790Y005978D01*
X009002Y005978D01*
X009002Y006001D01*
X009058Y006058D01*
X008870Y006058D01*
X008790Y005978D01*
X008870Y006058D02*
X008871Y006060D01*
X008871Y006138D01*
X009058Y006058D02*
X009138Y006138D01*
X009002Y005978D02*
X009002Y005898D01*
X009002Y005818D02*
X009002Y005738D01*
X009002Y005658D02*
X009002Y005624D01*
X009048Y005578D01*
X009128Y005498D02*
X009208Y005418D01*
X009208Y005418D01*
X009295Y005628D02*
X009265Y005658D01*
X009529Y005658D01*
X009582Y005711D01*
X009582Y005738D01*
X009212Y005738D01*
X009212Y005711D01*
X009265Y005658D01*
X009295Y005628D02*
X009499Y005628D01*
X009529Y005658D01*
X009582Y005738D02*
X009582Y005818D01*
X009212Y005818D01*
X009212Y005738D01*
X009212Y005818D02*
X009212Y005898D01*
X009582Y005898D01*
X009582Y005914D01*
X009519Y005978D01*
X009275Y005978D01*
X009212Y005914D01*
X009212Y005898D01*
X009275Y005978D02*
X009295Y005998D01*
X009499Y005998D01*
X009519Y005978D01*
X009582Y005898D02*
X009582Y005818D01*
X009735Y006058D02*
X009655Y006138D01*
X009792Y005978D02*
X009792Y005898D01*
X009792Y005818D02*
X009792Y005738D01*
X009792Y005658D02*
X009792Y005624D01*
X009746Y005578D01*
X009666Y005498D02*
X009586Y005418D01*
X008661Y005421D02*
X008661Y005498D01*
X008291Y005498D01*
X008291Y005418D01*
X008659Y005418D01*
X008661Y005421D01*
X008659Y005418D02*
X008579Y005338D01*
X008291Y005338D01*
X008291Y005337D01*
X008578Y005337D01*
X008579Y005338D01*
X008661Y005498D02*
X008661Y005578D01*
X008291Y005578D01*
X008291Y005498D01*
X008291Y005418D02*
X008291Y005338D01*
X008291Y005578D02*
X008291Y005658D01*
X008628Y005658D01*
X008578Y005708D01*
X008291Y005708D01*
X008291Y005658D01*
X008291Y005918D02*
X008433Y005918D01*
X008493Y005978D01*
X008291Y005978D01*
X008291Y005918D01*
X008291Y005978D02*
X008291Y006058D01*
X008573Y006058D01*
X008653Y006138D01*
X008573Y006058D02*
X008493Y005978D01*
X008291Y006058D02*
X008291Y006138D01*
X008628Y005658D02*
X008661Y005624D01*
X008661Y005578D01*
X006915Y005127D02*
X006864Y005178D01*
X006517Y005418D02*
X006516Y005418D01*
X006139Y005418D01*
X006139Y005418D01*
X006078Y005498D02*
X006078Y005566D01*
X006090Y005578D01*
X006226Y005918D02*
X006513Y005918D01*
X006513Y005978D01*
X006206Y005978D01*
X006186Y005958D01*
X006226Y005918D01*
X006206Y005978D02*
X006226Y005998D01*
X006513Y005998D01*
X006513Y005978D01*
X006723Y006058D02*
X006723Y006138D01*
X005802Y006138D02*
X005802Y006058D01*
X005592Y006058D02*
X005512Y006058D01*
X005512Y005978D01*
X005592Y005978D01*
X005592Y006058D01*
X005592Y006138D01*
X005512Y006138D02*
X005512Y006058D01*
X005512Y005978D02*
X005512Y005898D01*
X005592Y005898D01*
X005592Y005978D01*
X005592Y005898D02*
X005592Y005818D01*
X005512Y005818D01*
X005512Y005738D01*
X005592Y005738D01*
X005592Y005818D01*
X005592Y005738D02*
X005592Y005711D01*
X005552Y005671D01*
X005512Y005711D01*
X005512Y005738D01*
X005512Y005818D02*
X005512Y005898D01*
X005302Y005898D02*
X005302Y005978D01*
X005222Y005978D01*
X005222Y005898D01*
X005302Y005898D01*
X005302Y005818D01*
X005222Y005818D01*
X005222Y005738D01*
X005302Y005738D01*
X005302Y005818D01*
X005302Y005738D02*
X005302Y005711D01*
X005249Y005658D01*
X005222Y005658D01*
X005222Y005631D01*
X005249Y005658D01*
X005222Y005658D02*
X005222Y005738D01*
X005222Y005818D02*
X005222Y005898D01*
X005222Y005978D02*
X005222Y006058D01*
X005302Y006058D01*
X005302Y006138D01*
X005302Y006058D02*
X005302Y005978D01*
X005222Y006058D02*
X005222Y006138D01*
X005012Y006138D02*
X005012Y006058D01*
X004825Y006058D01*
X004881Y006001D01*
X004881Y005978D01*
X005012Y005978D01*
X005012Y006058D01*
X005012Y005978D02*
X005012Y005898D01*
X004881Y005898D01*
X004881Y005818D01*
X005012Y005818D01*
X005012Y005898D01*
X005012Y005818D02*
X005012Y005738D01*
X004881Y005769D02*
X004850Y005738D01*
X004881Y005769D02*
X004881Y005818D01*
X004881Y005898D02*
X004881Y005978D01*
X004825Y006058D02*
X004745Y006138D01*
X004690Y005578D02*
X004675Y005563D01*
X004385Y005563D01*
X004320Y005498D01*
X004304Y005418D02*
X004384Y005338D01*
X004589Y005338D01*
X004669Y005418D01*
X004589Y005338D02*
X004588Y005337D01*
X004385Y005337D01*
X004384Y005338D01*
X004247Y005178D02*
X004167Y005258D01*
X000271Y005258D01*
X000271Y005178D01*
X000271Y005258D02*
X000271Y005338D01*
X004091Y005338D01*
X004091Y005418D01*
X000271Y005418D01*
X000271Y005338D01*
X000271Y005418D02*
X000271Y005498D01*
X004091Y005498D01*
X004091Y005566D01*
X004103Y005578D01*
X000271Y005578D01*
X000271Y005498D01*
X000271Y005578D02*
X000271Y005658D01*
X004183Y005658D01*
X004263Y005738D01*
X004183Y005658D02*
X004103Y005578D01*
X004091Y005498D02*
X004091Y005418D01*
X004091Y005338D02*
X004091Y005334D01*
X004167Y005258D01*
X004726Y005178D02*
X004806Y005258D01*
X004881Y005338D02*
X004881Y005418D01*
X004726Y009115D02*
X004806Y009195D01*
X006853Y009195D01*
X006853Y009213D01*
X006915Y009274D01*
X006998Y009274D01*
X006998Y009275D01*
X004881Y009275D01*
X004881Y009271D01*
X004806Y009195D01*
X004881Y009275D02*
X004881Y009355D01*
X005073Y009355D01*
X005012Y009416D01*
X005012Y009435D01*
X004320Y009435D01*
X004301Y009416D01*
X004301Y009358D01*
X004304Y009355D01*
X004669Y009355D01*
X004733Y009419D01*
X004820Y009419D01*
X004881Y009358D01*
X004881Y009355D01*
X005012Y009435D02*
X005012Y009515D01*
X004690Y009515D01*
X004675Y009500D01*
X004385Y009500D01*
X004320Y009435D01*
X004304Y009355D02*
X004384Y009275D01*
X004589Y009275D01*
X004669Y009355D01*
X004589Y009275D02*
X004588Y009274D01*
X004385Y009274D01*
X004384Y009275D01*
X004247Y009115D02*
X004167Y009195D01*
X004091Y009275D02*
X004091Y009355D01*
X004091Y009435D02*
X004091Y009503D01*
X004103Y009515D01*
X004183Y009595D02*
X004263Y009675D01*
X004239Y009790D02*
X004153Y009790D01*
X004107Y009835D01*
X004091Y009915D02*
X004091Y009938D01*
X004148Y009995D01*
X004228Y010075D02*
X004298Y010145D01*
X004675Y010145D01*
X004745Y010075D01*
X005012Y010075D01*
X005012Y010084D01*
X005073Y010145D01*
X005160Y010145D01*
X005222Y010084D01*
X005222Y010075D01*
X005302Y010075D01*
X005302Y010084D01*
X005364Y010145D01*
X005450Y010145D01*
X005512Y010084D01*
X005512Y010075D01*
X005592Y010075D01*
X005592Y010084D01*
X005654Y010145D01*
X005741Y010145D01*
X005802Y010084D01*
X005802Y010075D01*
X006069Y010075D01*
X006139Y010145D01*
X006661Y010145D01*
X006723Y010084D01*
X006723Y010075D01*
X006853Y010075D01*
X006853Y010084D01*
X006915Y010145D01*
X007292Y010145D01*
X007353Y010084D01*
X007353Y010075D01*
X007467Y010075D01*
X007467Y010084D01*
X007529Y010145D01*
X007906Y010145D01*
X007967Y010084D01*
X007967Y010075D01*
X008081Y010075D01*
X008081Y010084D01*
X008142Y010145D01*
X008229Y010145D01*
X008291Y010084D01*
X008291Y010075D01*
X008653Y010075D01*
X008723Y010145D01*
X008810Y010145D01*
X008871Y010084D01*
X008871Y010075D01*
X009138Y010075D01*
X009208Y010145D01*
X009585Y010145D01*
X009655Y010075D01*
X010059Y010075D01*
X010129Y010145D01*
X010506Y010145D01*
X010576Y010075D01*
X010843Y010075D01*
X010843Y010084D01*
X010905Y010145D01*
X010992Y010145D01*
X011053Y010084D01*
X011053Y010075D01*
X011133Y010075D01*
X011133Y010084D01*
X011195Y010145D01*
X011282Y010145D01*
X011343Y010084D01*
X011343Y010075D01*
X011424Y010075D01*
X011424Y010084D01*
X011485Y010145D01*
X011572Y010145D01*
X011634Y010084D01*
X011634Y010075D01*
X011764Y010075D01*
X011764Y010084D01*
X011825Y010145D01*
X012493Y010145D01*
X012554Y010084D01*
X012554Y010075D01*
X012821Y010075D01*
X012891Y010145D01*
X013414Y010145D01*
X013475Y010084D01*
X013475Y010075D01*
X013605Y010075D01*
X013605Y010084D01*
X013667Y010145D01*
X014189Y010145D01*
X014259Y010075D01*
X014526Y010075D01*
X014526Y010084D01*
X014588Y010145D01*
X015110Y010145D01*
X015180Y010075D01*
X015447Y010075D01*
X015447Y010084D01*
X015508Y010145D01*
X015740Y010145D01*
X015802Y010084D01*
X015802Y010075D01*
X016044Y010075D01*
X016114Y010145D01*
X016636Y010145D01*
X016698Y010084D01*
X016698Y010075D01*
X016965Y010075D01*
X017035Y010145D01*
X017412Y010145D01*
X017482Y010075D01*
X017749Y010075D01*
X017749Y010084D01*
X017810Y010145D01*
X017897Y010145D01*
X017959Y010084D01*
X017959Y010075D01*
X018039Y010075D01*
X018039Y010084D01*
X018100Y010145D01*
X018187Y010145D01*
X018249Y010084D01*
X018249Y010075D01*
X018329Y010075D01*
X018329Y010084D01*
X018391Y010145D01*
X018478Y010145D01*
X018539Y010084D01*
X018539Y010075D01*
X018539Y009995D02*
X018539Y009915D01*
X018539Y009835D02*
X018539Y009755D01*
X018539Y009675D02*
X018539Y009595D01*
X018493Y009515D02*
X018478Y009500D01*
X018478Y009500D01*
X018413Y009435D01*
X018394Y009416D02*
X018394Y009416D01*
X018333Y009355D02*
X018333Y009355D01*
X018246Y009355D01*
X018245Y009355D01*
X018043Y009355D01*
X018042Y009355D01*
X017810Y009355D01*
X017412Y009355D01*
X017412Y009355D01*
X017492Y009435D01*
X017749Y009435D01*
X017749Y009515D01*
X017572Y009515D01*
X017492Y009435D01*
X017572Y009515D02*
X017618Y009561D01*
X017618Y009595D01*
X017749Y009595D01*
X017749Y009675D01*
X017618Y009675D01*
X017618Y009595D01*
X017618Y009675D02*
X017618Y009755D01*
X017749Y009755D01*
X017749Y009835D01*
X017618Y009835D01*
X017618Y009755D01*
X017618Y009835D02*
X017618Y009915D01*
X017749Y009915D01*
X017749Y009995D01*
X017562Y009995D01*
X017618Y009938D01*
X017618Y009915D01*
X017562Y009995D02*
X017482Y010075D01*
X017345Y009915D02*
X017325Y009935D01*
X017122Y009935D01*
X017102Y009915D01*
X017345Y009915D01*
X017408Y009851D01*
X017408Y009835D01*
X017038Y009835D01*
X017038Y009755D01*
X017408Y009755D01*
X017408Y009835D01*
X017408Y009755D02*
X017408Y009675D01*
X017038Y009675D01*
X017038Y009648D01*
X017091Y009595D01*
X017355Y009595D01*
X017408Y009648D01*
X017408Y009675D01*
X017355Y009595D02*
X017325Y009565D01*
X017122Y009565D01*
X017091Y009595D01*
X017038Y009675D02*
X017038Y009755D01*
X017038Y009835D02*
X017038Y009851D01*
X017102Y009915D01*
X016965Y010075D02*
X016885Y009995D01*
X016696Y009995D01*
X016636Y009935D01*
X016201Y009935D01*
X016181Y009915D01*
X016828Y009915D01*
X016828Y009938D01*
X016885Y009995D01*
X016828Y009915D02*
X016828Y009835D01*
X016117Y009835D01*
X016117Y009755D01*
X016828Y009755D01*
X016828Y009835D01*
X016828Y009755D02*
X016828Y009675D01*
X016117Y009675D01*
X016117Y009648D01*
X016170Y009595D01*
X016828Y009595D01*
X016828Y009675D01*
X016828Y009595D02*
X016828Y009561D01*
X016874Y009515D01*
X016686Y009515D01*
X016698Y009503D01*
X016698Y009435D01*
X016954Y009435D01*
X016874Y009515D01*
X016954Y009435D02*
X017034Y009355D01*
X016637Y009355D01*
X016636Y009355D01*
X016114Y009355D01*
X016113Y009355D01*
X015256Y009355D01*
X015255Y009355D01*
X014733Y009355D01*
X014732Y009355D01*
X014190Y009355D01*
X014189Y009355D01*
X013815Y009355D01*
X013815Y009275D01*
X013815Y009195D02*
X013815Y009126D01*
X013805Y009115D01*
X013616Y009115D02*
X013605Y009126D01*
X013605Y009195D01*
X011974Y009195D01*
X011974Y009126D01*
X011963Y009115D01*
X011974Y009195D02*
X011974Y009275D01*
X013605Y009275D01*
X013605Y009355D01*
X013269Y009355D01*
X013268Y009355D01*
X012891Y009355D01*
X011974Y009355D01*
X011974Y009275D01*
X011974Y009355D02*
X011974Y009435D01*
X012830Y009435D01*
X012830Y009503D01*
X012842Y009515D01*
X011974Y009515D01*
X011974Y009435D01*
X011974Y009515D02*
X011974Y009595D01*
X013212Y009595D01*
X013262Y009645D01*
X012891Y009645D01*
X012861Y009675D01*
X011974Y009675D01*
X011974Y009595D01*
X011974Y009675D02*
X011974Y009755D01*
X012781Y009755D01*
X012701Y009835D01*
X011974Y009835D01*
X011974Y009755D01*
X011974Y009835D02*
X011974Y009915D01*
X012685Y009915D01*
X012685Y009938D01*
X012741Y009995D01*
X012553Y009995D01*
X012493Y009935D01*
X011974Y009935D01*
X011974Y009915D01*
X011764Y009915D02*
X011764Y009995D01*
X011634Y009995D01*
X011634Y009915D01*
X011764Y009915D01*
X011764Y009835D01*
X011634Y009835D01*
X011634Y009755D01*
X011764Y009755D01*
X011764Y009835D01*
X011764Y009755D02*
X011764Y009675D01*
X011634Y009675D01*
X011634Y009595D01*
X011764Y009595D01*
X011764Y009675D01*
X011764Y009595D02*
X011764Y009515D01*
X011587Y009515D01*
X011507Y009435D01*
X011764Y009435D01*
X011764Y009515D01*
X011764Y009435D02*
X011764Y009355D01*
X011427Y009355D01*
X011340Y009355D01*
X011340Y009355D01*
X011137Y009355D01*
X011137Y009355D01*
X011238Y009456D01*
X011260Y009435D01*
X011217Y009435D01*
X011260Y009435D02*
X011340Y009355D01*
X011427Y009355D02*
X011427Y009355D01*
X011507Y009435D01*
X011587Y009515D02*
X011634Y009561D01*
X011634Y009595D01*
X011634Y009675D02*
X011634Y009755D01*
X011634Y009835D02*
X011634Y009915D01*
X011634Y009995D02*
X011634Y010075D01*
X011764Y010075D02*
X011764Y009995D01*
X011424Y009995D02*
X011424Y009915D01*
X011343Y009915D01*
X011343Y009835D01*
X011424Y009835D01*
X011424Y009915D01*
X011424Y009835D02*
X011424Y009755D01*
X011343Y009755D01*
X011343Y009675D01*
X011424Y009675D01*
X011424Y009755D01*
X011424Y009675D02*
X011424Y009648D01*
X011383Y009608D01*
X011343Y009648D01*
X011343Y009675D01*
X011343Y009755D02*
X011343Y009835D01*
X011343Y009915D02*
X011343Y009995D01*
X011424Y009995D01*
X011424Y010075D01*
X011343Y010075D02*
X011343Y009995D01*
X011133Y009995D02*
X011133Y009915D01*
X011053Y009915D01*
X011053Y009835D01*
X011133Y009835D01*
X011133Y009915D01*
X011053Y009915D02*
X011053Y009995D01*
X011133Y009995D01*
X011133Y010075D01*
X011053Y010075D02*
X011053Y009995D01*
X011053Y009835D02*
X011053Y009755D01*
X011133Y009755D01*
X011133Y009835D01*
X011133Y009755D02*
X011133Y009675D01*
X011053Y009675D01*
X011053Y009595D01*
X011080Y009595D01*
X011133Y009648D01*
X011133Y009675D01*
X011053Y009675D02*
X011053Y009755D01*
X011053Y009595D02*
X011053Y009568D01*
X011080Y009595D01*
X010843Y009595D02*
X010843Y009515D01*
X010667Y009515D01*
X010587Y009435D01*
X010843Y009435D01*
X010843Y009515D01*
X010843Y009435D02*
X010843Y009416D01*
X010904Y009355D01*
X010507Y009355D01*
X010506Y009355D01*
X010129Y009355D01*
X010129Y009355D01*
X009586Y009355D01*
X009585Y009355D01*
X009208Y009355D01*
X008871Y009355D01*
X008871Y009275D01*
X011764Y009275D01*
X011764Y009355D01*
X011764Y009275D02*
X011764Y009195D01*
X008795Y009195D01*
X008726Y009126D01*
X008715Y009115D01*
X008726Y009126D02*
X008726Y009126D01*
X008795Y009195D02*
X008810Y009209D01*
X008810Y009209D01*
X008871Y009271D01*
X008871Y009275D01*
X008871Y009355D02*
X008871Y009435D01*
X009128Y009435D01*
X009048Y009515D01*
X008871Y009515D01*
X008871Y009435D01*
X008871Y009515D02*
X008871Y009595D01*
X009002Y009595D01*
X009002Y009675D01*
X008844Y009675D01*
X008871Y009648D01*
X008871Y009595D01*
X008844Y009675D02*
X008764Y009755D01*
X009002Y009755D01*
X009002Y009835D01*
X008710Y009835D01*
X008697Y009822D01*
X008726Y009793D01*
X008764Y009755D01*
X008710Y009835D02*
X008790Y009915D01*
X009002Y009915D01*
X009002Y009938D01*
X009058Y009995D01*
X008870Y009995D01*
X008790Y009915D01*
X008870Y009995D02*
X008871Y009997D01*
X008871Y010075D01*
X009058Y009995D02*
X009138Y010075D01*
X009002Y009915D02*
X009002Y009835D01*
X009002Y009755D02*
X009002Y009675D01*
X009002Y009595D02*
X009002Y009561D01*
X009048Y009515D01*
X009128Y009435D02*
X009208Y009355D01*
X009208Y009355D01*
X009295Y009565D02*
X009265Y009595D01*
X009529Y009595D01*
X009582Y009648D01*
X009582Y009675D01*
X009212Y009675D01*
X009212Y009648D01*
X009265Y009595D01*
X009295Y009565D02*
X009499Y009565D01*
X009529Y009595D01*
X009582Y009675D02*
X009582Y009755D01*
X009212Y009755D01*
X009212Y009675D01*
X009212Y009755D02*
X009212Y009835D01*
X009582Y009835D01*
X009582Y009851D01*
X009519Y009915D01*
X009275Y009915D01*
X009212Y009851D01*
X009212Y009835D01*
X009275Y009915D02*
X009295Y009935D01*
X009499Y009935D01*
X009519Y009915D01*
X009582Y009835D02*
X009582Y009755D01*
X009792Y009938D02*
X009735Y009995D01*
X009979Y009995D01*
X010059Y010075D01*
X009979Y009995D02*
X009922Y009938D01*
X009922Y009915D01*
X009792Y009915D01*
X009792Y009835D01*
X009922Y009835D01*
X009922Y009915D01*
X009922Y009835D02*
X009922Y009755D01*
X009792Y009755D01*
X009792Y009675D01*
X009922Y009675D01*
X009922Y009755D01*
X009922Y009675D02*
X009922Y009595D01*
X009792Y009595D01*
X009792Y009561D01*
X009746Y009515D01*
X009969Y009515D01*
X009922Y009561D01*
X009922Y009595D01*
X009969Y009515D02*
X010049Y009435D01*
X009666Y009435D01*
X009586Y009355D01*
X009666Y009435D02*
X009746Y009515D01*
X009792Y009595D02*
X009792Y009675D01*
X009792Y009755D02*
X009792Y009835D01*
X009792Y009915D02*
X009792Y009938D01*
X009735Y009995D02*
X009655Y010075D01*
X010132Y009851D02*
X010132Y009835D01*
X010503Y009835D01*
X010503Y009851D01*
X010439Y009915D01*
X010196Y009915D01*
X010132Y009851D01*
X010132Y009835D02*
X010132Y009755D01*
X010503Y009755D01*
X010503Y009835D01*
X010503Y009755D02*
X010503Y009675D01*
X010132Y009675D01*
X010132Y009648D01*
X010186Y009595D01*
X010450Y009595D01*
X010503Y009648D01*
X010503Y009675D01*
X010450Y009595D02*
X010419Y009565D01*
X010216Y009565D01*
X010186Y009595D01*
X010132Y009675D02*
X010132Y009755D01*
X010196Y009915D02*
X010216Y009935D01*
X010419Y009935D01*
X010439Y009915D01*
X010576Y010075D02*
X010656Y009995D01*
X010843Y009995D01*
X010843Y010075D01*
X010843Y009995D02*
X010843Y009915D01*
X010713Y009915D01*
X010713Y009835D01*
X010843Y009835D01*
X010843Y009915D01*
X010843Y009835D02*
X010843Y009755D01*
X010713Y009755D01*
X010713Y009675D01*
X010843Y009675D01*
X010843Y009755D01*
X010843Y009675D02*
X010843Y009595D01*
X010713Y009595D01*
X010713Y009561D01*
X010667Y009515D01*
X010713Y009595D02*
X010713Y009675D01*
X010713Y009755D02*
X010713Y009835D01*
X010713Y009915D02*
X010713Y009938D01*
X010656Y009995D01*
X010587Y009435D02*
X010507Y009355D01*
X010129Y009355D02*
X010049Y009435D01*
X010904Y009355D02*
X010905Y009355D01*
X011137Y009355D01*
X011764Y009195D02*
X011764Y009126D01*
X011775Y009115D01*
X012685Y009851D02*
X012685Y009915D01*
X012685Y009851D02*
X012701Y009835D01*
X012781Y009755D02*
X012861Y009675D01*
X012891Y009565D02*
X013181Y009565D01*
X013212Y009595D01*
X013349Y009435D02*
X013605Y009435D01*
X013605Y009515D01*
X013429Y009515D01*
X013349Y009435D01*
X013269Y009355D01*
X013429Y009515D02*
X013475Y009561D01*
X013475Y009595D01*
X013605Y009595D01*
X013605Y009675D01*
X013475Y009675D01*
X013475Y009595D01*
X013475Y009675D02*
X013475Y009755D01*
X013605Y009755D01*
X013605Y009835D01*
X013475Y009835D01*
X013475Y009755D01*
X013475Y009835D02*
X013475Y009915D01*
X013605Y009915D01*
X013605Y009995D01*
X013475Y009995D01*
X013475Y009915D01*
X013475Y009995D02*
X013475Y010075D01*
X013605Y010075D02*
X013605Y009995D01*
X013605Y009915D02*
X013605Y009835D01*
X013605Y009755D02*
X013605Y009675D01*
X013605Y009595D02*
X013605Y009515D01*
X013605Y009435D02*
X013605Y009355D01*
X013605Y009275D02*
X013605Y009195D01*
X013815Y009565D02*
X014102Y009565D01*
X014133Y009595D01*
X013815Y009595D01*
X013815Y009565D01*
X013815Y009595D02*
X013815Y009675D01*
X014186Y009675D01*
X014186Y009755D01*
X013815Y009755D01*
X013815Y009675D01*
X013815Y009755D02*
X013815Y009835D01*
X014186Y009835D01*
X014186Y009851D01*
X014122Y009915D01*
X013815Y009915D01*
X013815Y009835D01*
X013815Y009915D02*
X013815Y009935D01*
X014102Y009935D01*
X014122Y009915D01*
X014186Y009835D02*
X014186Y009755D01*
X014186Y009675D02*
X014186Y009648D01*
X014133Y009595D01*
X014270Y009435D02*
X014652Y009435D01*
X014572Y009515D01*
X014350Y009515D01*
X014270Y009435D01*
X014190Y009355D01*
X014350Y009515D02*
X014396Y009561D01*
X014396Y009595D01*
X014526Y009595D01*
X014526Y009648D01*
X014553Y009675D01*
X014396Y009675D01*
X014396Y009595D01*
X014396Y009675D02*
X014396Y009755D01*
X014633Y009755D01*
X014713Y009835D01*
X014396Y009835D01*
X014396Y009755D01*
X014396Y009835D02*
X014396Y009915D01*
X015043Y009915D01*
X015023Y009935D01*
X014588Y009935D01*
X014528Y009995D01*
X014339Y009995D01*
X014396Y009938D01*
X014396Y009915D01*
X014339Y009995D02*
X014259Y010075D01*
X014526Y010075D02*
X014526Y009997D01*
X014528Y009995D01*
X014713Y009835D02*
X014733Y009855D01*
X015023Y009855D01*
X015063Y009895D01*
X015043Y009915D01*
X015180Y010075D02*
X015260Y009995D01*
X015447Y009995D01*
X015447Y010075D01*
X015447Y009995D02*
X015447Y009915D01*
X015317Y009915D01*
X015317Y009851D01*
X015300Y009835D01*
X015463Y009835D01*
X015447Y009851D01*
X015447Y009915D01*
X015463Y009835D02*
X015508Y009790D01*
X015740Y009790D01*
X015786Y009835D01*
X015907Y009835D01*
X015907Y009915D01*
X015802Y009915D01*
X015802Y009851D01*
X015786Y009835D01*
X015802Y009915D02*
X015802Y009995D01*
X015964Y009995D01*
X016044Y010075D01*
X015964Y009995D02*
X015907Y009938D01*
X015907Y009915D01*
X015907Y009835D02*
X015907Y009755D01*
X015220Y009755D01*
X015140Y009675D01*
X015907Y009675D01*
X015907Y009755D01*
X015907Y009675D02*
X015907Y009595D01*
X014789Y009595D01*
X014820Y009565D01*
X015255Y009565D01*
X015305Y009515D01*
X015953Y009515D01*
X015907Y009561D01*
X015907Y009595D01*
X015953Y009515D02*
X016033Y009435D01*
X015317Y009435D01*
X015317Y009416D01*
X015256Y009355D01*
X015317Y009435D02*
X015317Y009503D01*
X015305Y009515D01*
X015140Y009675D02*
X015110Y009645D01*
X014820Y009645D01*
X014780Y009605D01*
X014789Y009595D01*
X014652Y009435D02*
X014732Y009355D01*
X014572Y009515D02*
X014526Y009561D01*
X014526Y009595D01*
X014553Y009675D02*
X014633Y009755D01*
X015220Y009755D02*
X015300Y009835D01*
X015317Y009915D02*
X015317Y009938D01*
X015260Y009995D01*
X015802Y009995D02*
X015802Y010075D01*
X016117Y009851D02*
X016117Y009835D01*
X016117Y009851D02*
X016181Y009915D01*
X016117Y009755D02*
X016117Y009675D01*
X016170Y009595D02*
X016201Y009565D01*
X016636Y009565D01*
X016686Y009515D01*
X016698Y009435D02*
X016698Y009416D01*
X016637Y009355D01*
X017034Y009355D02*
X017035Y009355D01*
X017412Y009355D01*
X017749Y009416D02*
X017749Y009435D01*
X017749Y009416D02*
X017810Y009355D01*
X017810Y009355D01*
X017749Y009515D02*
X017749Y009595D01*
X017749Y009675D02*
X017749Y009755D01*
X017749Y009835D02*
X017749Y009915D01*
X017749Y009995D02*
X017749Y010075D01*
X017959Y010075D02*
X017959Y009995D01*
X018039Y009995D01*
X018039Y010075D01*
X018039Y009995D02*
X018039Y009915D01*
X017959Y009915D01*
X017959Y009835D01*
X018039Y009835D01*
X018039Y009915D01*
X018039Y009835D02*
X018039Y009755D01*
X017959Y009755D01*
X017959Y009675D01*
X018039Y009675D01*
X018039Y009755D01*
X018039Y009675D02*
X018039Y009648D01*
X017986Y009595D01*
X017959Y009595D01*
X017959Y009568D01*
X017986Y009595D01*
X017959Y009595D02*
X017959Y009675D01*
X017959Y009755D02*
X017959Y009835D01*
X017959Y009915D02*
X017959Y009995D01*
X018249Y009995D02*
X018249Y009915D01*
X018329Y009915D01*
X018329Y009995D01*
X018249Y009995D01*
X018249Y010075D01*
X018329Y010075D02*
X018329Y009995D01*
X018329Y009915D02*
X018329Y009835D01*
X018249Y009835D01*
X018249Y009755D01*
X018329Y009755D01*
X018329Y009835D01*
X018329Y009755D02*
X018329Y009675D01*
X018249Y009675D01*
X018249Y009648D01*
X018289Y009608D01*
X018329Y009648D01*
X018329Y009675D01*
X018249Y009675D02*
X018249Y009755D01*
X018249Y009835D02*
X018249Y009915D01*
X018144Y009456D02*
X018043Y009355D01*
X018123Y009435D02*
X018165Y009435D01*
X018144Y009456D01*
X018165Y009435D02*
X018245Y009355D01*
X016698Y009997D02*
X016696Y009995D01*
X016698Y009997D02*
X016698Y010075D01*
X016033Y009435D02*
X016113Y009355D01*
X013265Y009855D02*
X013265Y009915D01*
X012958Y009915D01*
X012938Y009895D01*
X012978Y009855D01*
X013265Y009855D01*
X013265Y009915D02*
X013265Y009935D01*
X012978Y009935D01*
X012958Y009915D01*
X012821Y010075D02*
X012741Y009995D01*
X012554Y009997D02*
X012553Y009995D01*
X012554Y009997D02*
X012554Y010075D01*
X012891Y009565D02*
X012842Y009515D01*
X012830Y009435D02*
X012830Y009416D01*
X012891Y009355D01*
X012891Y009355D01*
X012821Y006138D02*
X012741Y006058D01*
X012685Y005978D02*
X012685Y005914D01*
X012701Y005898D01*
X012781Y005818D02*
X012861Y005738D01*
X012891Y005628D02*
X013181Y005628D01*
X013212Y005658D01*
X013349Y005498D02*
X013605Y005498D01*
X013605Y005578D01*
X013429Y005578D01*
X013349Y005498D01*
X013269Y005418D01*
X013429Y005578D02*
X013475Y005624D01*
X013475Y005658D01*
X013605Y005658D01*
X013605Y005738D01*
X013475Y005738D01*
X013475Y005658D01*
X013475Y005738D02*
X013475Y005818D01*
X013605Y005818D01*
X013605Y005898D01*
X013475Y005898D01*
X013475Y005818D01*
X013475Y005898D02*
X013475Y005978D01*
X013605Y005978D01*
X013605Y006058D01*
X013475Y006058D01*
X013475Y005978D01*
X013475Y006058D02*
X013475Y006138D01*
X013605Y006138D02*
X013605Y006058D01*
X013605Y005978D02*
X013605Y005898D01*
X013605Y005818D02*
X013605Y005738D01*
X013605Y005658D02*
X013605Y005578D01*
X013605Y005498D02*
X013605Y005418D01*
X013605Y005338D02*
X013605Y005258D01*
X013616Y005178D02*
X013667Y005127D01*
X013754Y005127D01*
X013805Y005178D01*
X013815Y005258D02*
X013815Y005338D01*
X013815Y005628D02*
X014102Y005628D01*
X014133Y005658D01*
X013815Y005658D01*
X013815Y005628D01*
X013815Y005658D02*
X013815Y005738D01*
X014186Y005738D01*
X014186Y005818D01*
X013815Y005818D01*
X013815Y005738D01*
X013815Y005818D02*
X013815Y005898D01*
X014186Y005898D01*
X014186Y005914D01*
X014122Y005978D01*
X013815Y005978D01*
X013815Y005898D01*
X013815Y005978D02*
X013815Y005998D01*
X014102Y005998D01*
X014122Y005978D01*
X014186Y005898D02*
X014186Y005818D01*
X014186Y005738D02*
X014186Y005711D01*
X014133Y005658D01*
X014270Y005498D02*
X014652Y005498D01*
X014572Y005578D01*
X014350Y005578D01*
X014270Y005498D01*
X014190Y005418D01*
X014350Y005578D02*
X014396Y005624D01*
X014396Y005658D01*
X014526Y005658D01*
X014526Y005711D01*
X014553Y005738D01*
X014396Y005738D01*
X014396Y005658D01*
X014396Y005738D02*
X014396Y005818D01*
X014633Y005818D01*
X014713Y005898D01*
X014396Y005898D01*
X014396Y005818D01*
X014396Y005898D02*
X014396Y005978D01*
X015043Y005978D01*
X015023Y005998D01*
X014588Y005998D01*
X014528Y006058D01*
X014339Y006058D01*
X014396Y006001D01*
X014396Y005978D01*
X014339Y006058D02*
X014259Y006138D01*
X014526Y006138D02*
X014526Y006060D01*
X014528Y006058D01*
X014713Y005898D02*
X014733Y005918D01*
X015023Y005918D01*
X015063Y005958D01*
X015043Y005978D01*
X015180Y006138D02*
X015260Y006058D01*
X015447Y006058D01*
X015447Y006138D01*
X015447Y006058D02*
X015447Y005978D01*
X015317Y005978D01*
X015317Y005914D01*
X015300Y005898D01*
X015463Y005898D01*
X015447Y005914D01*
X015447Y005978D01*
X015463Y005898D02*
X015508Y005853D01*
X015740Y005853D01*
X015786Y005898D01*
X015907Y005898D01*
X015907Y005978D01*
X015802Y005978D01*
X015802Y005914D01*
X015786Y005898D01*
X015802Y005978D02*
X015802Y006058D01*
X015964Y006058D01*
X016044Y006138D01*
X015964Y006058D02*
X015907Y006001D01*
X015907Y005978D01*
X015907Y005898D02*
X015907Y005818D01*
X015220Y005818D01*
X015140Y005738D01*
X015907Y005738D01*
X015907Y005818D01*
X015907Y005738D02*
X015907Y005658D01*
X014789Y005658D01*
X014820Y005628D01*
X015255Y005628D01*
X015305Y005578D01*
X015953Y005578D01*
X015907Y005624D01*
X015907Y005658D01*
X015953Y005578D02*
X016033Y005498D01*
X015317Y005498D01*
X015317Y005479D01*
X015256Y005418D01*
X015317Y005498D02*
X015317Y005566D01*
X015305Y005578D01*
X015140Y005738D02*
X015110Y005708D01*
X014820Y005708D01*
X014780Y005668D01*
X014789Y005658D01*
X014652Y005498D02*
X014732Y005418D01*
X014572Y005578D02*
X014526Y005624D01*
X014526Y005658D01*
X014553Y005738D02*
X014633Y005818D01*
X015220Y005818D02*
X015300Y005898D01*
X015317Y005978D02*
X015317Y006001D01*
X015260Y006058D01*
X015802Y006058D02*
X015802Y006138D01*
X016117Y005914D02*
X016117Y005898D01*
X016117Y005914D02*
X016181Y005978D01*
X016117Y005818D02*
X016117Y005738D01*
X016170Y005658D02*
X016201Y005628D01*
X016636Y005628D01*
X016686Y005578D01*
X016698Y005498D02*
X016698Y005479D01*
X016637Y005418D01*
X017034Y005418D02*
X017035Y005418D01*
X017412Y005418D01*
X017810Y005418D02*
X017810Y005418D01*
X018042Y005418D01*
X018043Y005418D01*
X018245Y005418D01*
X018165Y005498D01*
X018123Y005498D01*
X018144Y005519D02*
X018043Y005418D01*
X018144Y005519D02*
X018165Y005498D01*
X018246Y005418D02*
X018245Y005418D01*
X018246Y005418D02*
X018333Y005418D01*
X017986Y005658D02*
X017959Y005631D01*
X017959Y005658D01*
X016698Y006060D02*
X016696Y006058D01*
X016698Y006060D02*
X016698Y006138D01*
X016033Y005498D02*
X016113Y005418D01*
X013265Y005918D02*
X013265Y005978D01*
X012958Y005978D01*
X012938Y005958D01*
X012978Y005918D01*
X013265Y005918D01*
X013265Y005978D02*
X013265Y005998D01*
X012978Y005998D01*
X012958Y005978D01*
X012891Y005628D02*
X012842Y005578D01*
X012830Y005498D02*
X012830Y005479D01*
X012891Y005418D01*
X012891Y005418D01*
X012553Y006058D02*
X012554Y006060D01*
X012554Y006138D01*
X014259Y002201D02*
X014339Y002121D01*
X014186Y001977D02*
X014122Y002041D01*
X014186Y001977D02*
X014186Y001961D01*
X011764Y001321D02*
X011764Y001252D01*
X011775Y001241D01*
X008092Y009115D02*
X008081Y009126D01*
X008081Y009195D01*
X007822Y009195D01*
X007822Y009126D01*
X007811Y009115D01*
X007822Y009195D02*
X007822Y009275D01*
X008081Y009275D01*
X008081Y009355D01*
X007822Y009355D01*
X007822Y009275D01*
X007822Y009355D02*
X007822Y009435D01*
X008081Y009435D01*
X008081Y009515D01*
X007822Y009515D01*
X007822Y009435D01*
X007822Y009515D02*
X007822Y009595D01*
X008081Y009595D01*
X008081Y009675D01*
X007822Y009675D01*
X007822Y009595D01*
X007822Y009675D02*
X007822Y009755D01*
X008081Y009755D01*
X008081Y009835D01*
X007822Y009835D01*
X007822Y009755D01*
X007822Y009835D02*
X007822Y009915D01*
X008081Y009915D01*
X008081Y009995D01*
X007966Y009995D01*
X007906Y009935D01*
X007822Y009935D01*
X007822Y009915D01*
X007966Y009995D02*
X007967Y009997D01*
X007967Y010075D01*
X008081Y010075D02*
X008081Y009995D01*
X008081Y009915D02*
X008081Y009835D01*
X008081Y009755D02*
X008081Y009675D01*
X008081Y009595D02*
X008081Y009515D01*
X008081Y009435D02*
X008081Y009355D01*
X008081Y009275D02*
X008081Y009195D01*
X008291Y009275D02*
X008291Y009274D01*
X008578Y009274D01*
X008579Y009275D01*
X008291Y009275D01*
X008291Y009355D01*
X008659Y009355D01*
X008661Y009358D01*
X008661Y009435D01*
X008291Y009435D01*
X008291Y009355D01*
X008291Y009435D02*
X008291Y009515D01*
X008661Y009515D01*
X008661Y009561D01*
X008628Y009595D01*
X008291Y009595D01*
X008291Y009515D01*
X008291Y009595D02*
X008291Y009645D01*
X008578Y009645D01*
X008628Y009595D01*
X008661Y009515D02*
X008661Y009435D01*
X008659Y009355D02*
X008579Y009275D01*
X008433Y009855D02*
X008291Y009855D01*
X008291Y009915D01*
X008493Y009915D01*
X008573Y009995D01*
X008291Y009995D01*
X008291Y009915D01*
X008291Y009995D02*
X008291Y010075D01*
X008493Y009915D02*
X008433Y009855D01*
X008573Y009995D02*
X008653Y010075D01*
X007612Y009935D02*
X007612Y009915D01*
X007208Y009915D01*
X007208Y009835D01*
X007612Y009835D01*
X007612Y009915D01*
X007612Y009935D02*
X007529Y009935D01*
X007469Y009995D01*
X007352Y009995D01*
X007292Y009935D01*
X007208Y009935D01*
X007208Y009915D01*
X007208Y009835D02*
X007208Y009755D01*
X007612Y009755D01*
X007612Y009835D01*
X007612Y009755D02*
X007612Y009675D01*
X007208Y009675D01*
X007208Y009595D01*
X007612Y009595D01*
X007612Y009675D01*
X007612Y009595D02*
X007612Y009515D01*
X007208Y009515D01*
X007208Y009435D01*
X007612Y009435D01*
X007612Y009515D01*
X007612Y009435D02*
X007612Y009355D01*
X007208Y009355D01*
X007208Y009275D01*
X007612Y009275D01*
X007612Y009355D01*
X007612Y009275D02*
X007612Y009274D01*
X007529Y009274D01*
X007467Y009213D01*
X007467Y009195D01*
X007208Y009195D01*
X007208Y009126D01*
X007198Y009115D01*
X007208Y009195D02*
X007208Y009275D01*
X007208Y009355D02*
X007208Y009435D01*
X007208Y009515D02*
X007208Y009595D01*
X007208Y009675D02*
X007208Y009755D01*
X006998Y009755D02*
X006998Y009675D01*
X006723Y009675D01*
X006723Y009595D01*
X006998Y009595D01*
X006998Y009675D01*
X006998Y009595D02*
X006998Y009515D01*
X006677Y009515D01*
X006597Y009435D01*
X006998Y009435D01*
X006998Y009515D01*
X006998Y009435D02*
X006998Y009355D01*
X006517Y009355D01*
X006516Y009355D01*
X006139Y009355D01*
X005596Y009355D01*
X005596Y009355D01*
X005676Y009435D01*
X006078Y009435D01*
X006078Y009503D01*
X006090Y009515D01*
X005756Y009515D01*
X005676Y009435D01*
X005756Y009515D02*
X005802Y009561D01*
X005802Y009595D01*
X006460Y009595D01*
X006510Y009645D01*
X006139Y009645D01*
X006109Y009675D01*
X005802Y009675D01*
X005802Y009595D01*
X005802Y009675D02*
X005802Y009755D01*
X006029Y009755D01*
X005949Y009835D01*
X005802Y009835D01*
X005802Y009755D01*
X005802Y009835D02*
X005802Y009915D01*
X005933Y009915D01*
X005933Y009938D01*
X005989Y009995D01*
X005802Y009995D01*
X005802Y009915D01*
X005802Y009995D02*
X005802Y010075D01*
X005989Y009995D02*
X006069Y010075D01*
X005933Y009915D02*
X005933Y009851D01*
X005949Y009835D01*
X006029Y009755D02*
X006109Y009675D01*
X006139Y009565D02*
X006429Y009565D01*
X006460Y009595D01*
X006597Y009435D02*
X006517Y009355D01*
X006677Y009515D02*
X006723Y009561D01*
X006723Y009595D01*
X006723Y009675D02*
X006723Y009755D01*
X006998Y009755D01*
X006998Y009835D01*
X006723Y009835D01*
X006723Y009755D01*
X006723Y009835D02*
X006723Y009915D01*
X006998Y009915D01*
X006998Y009935D01*
X006915Y009935D01*
X006855Y009995D01*
X006723Y009995D01*
X006723Y009915D01*
X006723Y009995D02*
X006723Y010075D01*
X006853Y010075D02*
X006853Y009997D01*
X006855Y009995D01*
X006998Y009915D02*
X006998Y009835D01*
X007352Y009995D02*
X007353Y009997D01*
X007353Y010075D01*
X007467Y010075D02*
X007467Y009997D01*
X007469Y009995D01*
X006998Y009355D02*
X006998Y009275D01*
X006853Y009195D02*
X006853Y009126D01*
X006864Y009115D01*
X007467Y009126D02*
X007467Y009195D01*
X007467Y009126D02*
X007478Y009115D01*
X006513Y009855D02*
X006513Y009915D01*
X006206Y009915D01*
X006186Y009895D01*
X006226Y009855D01*
X006513Y009855D01*
X006513Y009915D02*
X006513Y009935D01*
X006226Y009935D01*
X006206Y009915D01*
X006139Y009565D02*
X006090Y009515D01*
X006078Y009435D02*
X006078Y009416D01*
X006139Y009355D01*
X006139Y009355D01*
X005596Y009355D02*
X005509Y009355D01*
X005508Y009355D01*
X005306Y009355D01*
X005305Y009355D01*
X005073Y009355D01*
X005073Y009355D01*
X005012Y009515D02*
X005012Y009595D01*
X004770Y009595D01*
X004690Y009515D01*
X004770Y009595D02*
X004850Y009675D01*
X005012Y009675D01*
X005012Y009755D01*
X004881Y009755D01*
X004881Y009706D01*
X004850Y009675D01*
X004881Y009755D02*
X004881Y009835D01*
X005012Y009835D01*
X005012Y009915D01*
X004881Y009915D01*
X004881Y009835D01*
X004881Y009915D02*
X004881Y009938D01*
X004825Y009995D01*
X005012Y009995D01*
X005012Y010075D01*
X005012Y009995D02*
X005012Y009915D01*
X005012Y009835D02*
X005012Y009755D01*
X005012Y009675D02*
X005012Y009595D01*
X005222Y009595D02*
X005249Y009595D01*
X005302Y009648D01*
X005302Y009675D01*
X005222Y009675D01*
X005222Y009595D01*
X005222Y009568D01*
X005249Y009595D01*
X005222Y009675D02*
X005222Y009755D01*
X005302Y009755D01*
X005302Y009835D01*
X005222Y009835D01*
X005222Y009755D01*
X005302Y009755D02*
X005302Y009675D01*
X005302Y009835D02*
X005302Y009915D01*
X005222Y009915D01*
X005222Y009835D01*
X005222Y009915D02*
X005222Y009995D01*
X005302Y009995D01*
X005302Y010075D01*
X005302Y009995D02*
X005302Y009915D01*
X005222Y009995D02*
X005222Y010075D01*
X005512Y010075D02*
X005512Y009995D01*
X005592Y009995D01*
X005592Y010075D01*
X005592Y009995D02*
X005592Y009915D01*
X005512Y009915D01*
X005512Y009835D01*
X005592Y009835D01*
X005592Y009915D01*
X005592Y009835D02*
X005592Y009755D01*
X005512Y009755D01*
X005512Y009675D01*
X005592Y009675D01*
X005592Y009755D01*
X005592Y009675D02*
X005592Y009648D01*
X005552Y009608D01*
X005512Y009648D01*
X005512Y009675D01*
X005512Y009755D02*
X005512Y009835D01*
X005512Y009915D02*
X005512Y009995D01*
X005407Y009456D02*
X005306Y009355D01*
X005386Y009435D02*
X005428Y009435D01*
X005407Y009456D01*
X005428Y009435D02*
X005508Y009355D01*
X004825Y009995D02*
X004745Y010075D01*
X004608Y009915D02*
X004588Y009935D01*
X004385Y009935D01*
X004365Y009915D01*
X004608Y009915D01*
X004671Y009851D01*
X004671Y009835D01*
X004285Y009835D01*
X004239Y009790D01*
X004285Y009835D02*
X004365Y009915D01*
X004633Y009755D02*
X004671Y009793D01*
X004671Y009835D01*
X004726Y013052D02*
X004806Y013132D01*
X004881Y013212D02*
X004881Y013292D01*
X004669Y013292D02*
X004589Y013212D01*
X004384Y013212D01*
X004385Y013211D01*
X004588Y013211D01*
X004589Y013212D01*
X004384Y013212D02*
X004304Y013292D01*
X004320Y013372D02*
X004385Y013437D01*
X004675Y013437D01*
X004690Y013452D01*
X004850Y013612D02*
X004881Y013643D01*
X004881Y013692D01*
X005012Y013692D01*
X005012Y013772D01*
X004881Y013772D01*
X004881Y013692D01*
X004881Y013772D02*
X004881Y013852D01*
X005012Y013852D01*
X005012Y013932D01*
X004825Y013932D01*
X004881Y013875D01*
X004881Y013852D01*
X004825Y013932D02*
X004745Y014012D01*
X005012Y014012D02*
X005012Y013932D01*
X005012Y013852D02*
X005012Y013772D01*
X005012Y013692D02*
X005012Y013612D01*
X005222Y013612D02*
X005302Y013612D01*
X005302Y013692D01*
X005222Y013692D01*
X005222Y013612D01*
X005222Y013532D01*
X005249Y013532D01*
X005302Y013585D01*
X005302Y013612D01*
X005302Y013692D02*
X005302Y013772D01*
X005222Y013772D01*
X005222Y013692D01*
X005222Y013772D02*
X005222Y013852D01*
X005302Y013852D01*
X005302Y013932D01*
X005222Y013932D01*
X005222Y013852D01*
X005302Y013852D02*
X005302Y013772D01*
X005302Y013932D02*
X005302Y014012D01*
X005222Y014012D02*
X005222Y013932D01*
X005512Y013932D02*
X005512Y013852D01*
X005592Y013852D01*
X005592Y013932D01*
X005512Y013932D01*
X005512Y014012D01*
X005592Y014012D02*
X005592Y013932D01*
X005592Y013852D02*
X005592Y013772D01*
X005512Y013772D01*
X005512Y013692D01*
X005592Y013692D01*
X005592Y013772D01*
X005592Y013692D02*
X005592Y013612D01*
X005512Y013612D01*
X005512Y013585D01*
X005552Y013545D01*
X005592Y013585D01*
X005592Y013612D01*
X005512Y013612D02*
X005512Y013692D01*
X005512Y013772D02*
X005512Y013852D01*
X005249Y013532D02*
X005222Y013505D01*
X005222Y013532D01*
X005802Y013932D02*
X005802Y014012D01*
X006186Y013832D02*
X006226Y013792D01*
X006513Y013792D01*
X006513Y013852D01*
X006206Y013852D01*
X006186Y013832D01*
X006206Y013852D02*
X006226Y013872D01*
X006513Y013872D01*
X006513Y013852D01*
X006723Y013852D02*
X006723Y013932D01*
X006855Y013932D01*
X006853Y013934D01*
X006853Y014012D01*
X006855Y013932D02*
X006915Y013872D01*
X006998Y013872D01*
X006998Y013852D01*
X006723Y013852D01*
X006723Y013772D01*
X006998Y013772D01*
X006998Y013852D01*
X006998Y013772D02*
X006998Y013692D01*
X006723Y013692D01*
X006723Y013612D01*
X006998Y013612D01*
X006998Y013692D01*
X006998Y013612D02*
X006998Y013532D01*
X006723Y013532D01*
X006723Y013498D01*
X006677Y013452D01*
X006723Y013532D02*
X006723Y013612D01*
X006723Y013692D02*
X006723Y013772D01*
X006723Y013932D02*
X006723Y014012D01*
X006998Y013532D02*
X006998Y013452D01*
X007208Y013452D02*
X007208Y013532D01*
X007612Y013532D01*
X007612Y013612D01*
X007208Y013612D01*
X007208Y013532D01*
X007208Y013452D02*
X007612Y013452D01*
X007612Y013532D01*
X007612Y013452D02*
X007612Y013372D01*
X007208Y013372D01*
X007208Y013292D01*
X007612Y013292D01*
X007612Y013372D01*
X007612Y013292D02*
X007612Y013212D01*
X007208Y013212D01*
X007208Y013132D01*
X007467Y013132D01*
X007467Y013150D01*
X007529Y013211D01*
X007612Y013211D01*
X007612Y013212D01*
X007467Y013132D02*
X007467Y013063D01*
X007478Y013052D01*
X007198Y013052D01*
X007147Y013001D01*
X006915Y013001D01*
X006864Y013052D01*
X007198Y013052D02*
X007208Y013063D01*
X007208Y013132D01*
X007208Y013212D02*
X007208Y013292D01*
X007208Y013372D02*
X007208Y013452D01*
X007208Y013612D02*
X007208Y013692D01*
X007612Y013692D01*
X007612Y013772D01*
X007208Y013772D01*
X007208Y013692D01*
X007208Y013772D02*
X007208Y013852D01*
X007612Y013852D01*
X007612Y013872D01*
X007529Y013872D01*
X007469Y013932D01*
X007352Y013932D01*
X007292Y013872D01*
X007208Y013872D01*
X007208Y013852D01*
X007352Y013932D02*
X007353Y013934D01*
X007353Y014012D01*
X007467Y014012D02*
X007467Y013934D01*
X007469Y013932D01*
X007612Y013852D02*
X007612Y013772D01*
X007612Y013692D02*
X007612Y013612D01*
X007822Y013612D02*
X008081Y013612D01*
X008081Y013692D01*
X007822Y013692D01*
X007822Y013612D01*
X007822Y013532D01*
X008081Y013532D01*
X008081Y013612D01*
X008081Y013532D02*
X008081Y013452D01*
X007822Y013452D01*
X007822Y013372D01*
X008081Y013372D01*
X008081Y013452D01*
X008081Y013372D02*
X008081Y013292D01*
X007822Y013292D01*
X007822Y013212D01*
X008081Y013212D01*
X008081Y013292D01*
X008081Y013212D02*
X008081Y013132D01*
X007822Y013132D01*
X007822Y013063D01*
X007811Y013052D01*
X008092Y013052D01*
X008081Y013063D01*
X008081Y013132D01*
X008092Y013052D02*
X008142Y013001D01*
X008665Y013001D01*
X008715Y013052D01*
X011775Y013052D01*
X011764Y013063D01*
X011764Y013132D01*
X008795Y013132D01*
X008726Y013063D01*
X008715Y013052D01*
X008726Y013063D02*
X008726Y013063D01*
X008795Y013132D02*
X008810Y013146D01*
X008810Y013146D01*
X008871Y013208D01*
X008871Y013212D01*
X011764Y013212D01*
X011764Y013292D01*
X011427Y013292D01*
X011340Y013292D01*
X011340Y013292D01*
X011137Y013292D01*
X011137Y013292D01*
X011238Y013393D01*
X011260Y013372D01*
X011217Y013372D01*
X011260Y013372D02*
X011340Y013292D01*
X011427Y013292D02*
X011427Y013292D01*
X011507Y013372D01*
X011764Y013372D01*
X011764Y013452D01*
X011587Y013452D01*
X011507Y013372D01*
X011587Y013452D02*
X011634Y013498D01*
X011634Y013532D01*
X011764Y013532D01*
X011764Y013612D01*
X011634Y013612D01*
X011634Y013532D01*
X011634Y013612D02*
X011634Y013692D01*
X011764Y013692D01*
X011764Y013772D01*
X011634Y013772D01*
X011634Y013692D01*
X011634Y013772D02*
X011634Y013852D01*
X011764Y013852D01*
X011764Y013932D01*
X011634Y013932D01*
X011634Y013852D01*
X011634Y013932D02*
X011634Y014012D01*
X011764Y014012D02*
X011764Y013932D01*
X011764Y013852D02*
X011764Y013772D01*
X011764Y013692D02*
X011764Y013612D01*
X011764Y013532D02*
X011764Y013452D01*
X011764Y013372D02*
X011764Y013292D01*
X011764Y013212D02*
X011764Y013132D01*
X011775Y013052D02*
X011825Y013001D01*
X011912Y013001D01*
X011963Y013052D01*
X013616Y013052D01*
X013605Y013063D01*
X013605Y013132D01*
X011974Y013132D01*
X011974Y013063D01*
X011963Y013052D01*
X011974Y013132D02*
X011974Y013212D01*
X013605Y013212D01*
X013605Y013292D01*
X013269Y013292D01*
X013268Y013292D01*
X012891Y013292D01*
X011974Y013292D01*
X011974Y013212D01*
X011974Y013292D02*
X011974Y013372D01*
X012830Y013372D01*
X012830Y013440D01*
X012842Y013452D01*
X011974Y013452D01*
X011974Y013372D01*
X011974Y013452D02*
X011974Y013532D01*
X013212Y013532D01*
X013262Y013582D01*
X012891Y013582D01*
X012861Y013612D01*
X011974Y013612D01*
X011974Y013532D01*
X011974Y013612D02*
X011974Y013692D01*
X012781Y013692D01*
X012701Y013772D01*
X011974Y013772D01*
X011974Y013692D01*
X011974Y013772D02*
X011974Y013852D01*
X012685Y013852D01*
X012685Y013875D01*
X012741Y013932D01*
X012553Y013932D01*
X012493Y013872D01*
X011974Y013872D01*
X011974Y013852D01*
X011424Y013852D02*
X011343Y013852D01*
X011343Y013772D01*
X011424Y013772D01*
X011424Y013852D01*
X011424Y013932D01*
X011343Y013932D01*
X011343Y013852D01*
X011343Y013772D02*
X011343Y013692D01*
X011424Y013692D01*
X011424Y013772D01*
X011424Y013692D02*
X011424Y013612D01*
X011343Y013612D01*
X011343Y013585D01*
X011383Y013545D01*
X011424Y013585D01*
X011424Y013612D01*
X011343Y013612D02*
X011343Y013692D01*
X011133Y013692D02*
X011133Y013772D01*
X011053Y013772D01*
X011053Y013692D01*
X011133Y013692D01*
X011133Y013612D01*
X011053Y013612D01*
X011053Y013532D01*
X011080Y013532D01*
X011133Y013585D01*
X011133Y013612D01*
X011053Y013612D02*
X011053Y013692D01*
X011053Y013772D02*
X011053Y013852D01*
X011133Y013852D01*
X011133Y013932D01*
X011053Y013932D01*
X011053Y013852D01*
X011053Y013932D02*
X011053Y014012D01*
X011133Y014012D02*
X011133Y013932D01*
X011133Y013852D02*
X011133Y013772D01*
X011080Y013532D02*
X011053Y013505D01*
X011053Y013532D01*
X010843Y013532D02*
X010843Y013452D01*
X010667Y013452D01*
X010587Y013372D01*
X010843Y013372D01*
X010843Y013452D01*
X010843Y013372D02*
X010843Y013353D01*
X010904Y013292D01*
X010507Y013292D01*
X010506Y013292D01*
X010129Y013292D01*
X010129Y013292D01*
X009586Y013292D01*
X009585Y013292D01*
X009208Y013292D01*
X008871Y013292D01*
X008871Y013212D01*
X008871Y013292D02*
X008871Y013372D01*
X009128Y013372D01*
X009048Y013452D01*
X008871Y013452D01*
X008871Y013372D01*
X008871Y013452D02*
X008871Y013532D01*
X009002Y013532D01*
X009002Y013612D01*
X008844Y013612D01*
X008871Y013585D01*
X008871Y013532D01*
X008844Y013612D02*
X008764Y013692D01*
X009002Y013692D01*
X009002Y013772D01*
X008710Y013772D01*
X008697Y013759D01*
X008726Y013730D01*
X008764Y013692D01*
X008710Y013772D02*
X008790Y013852D01*
X009002Y013852D01*
X009002Y013875D01*
X009058Y013932D01*
X008870Y013932D01*
X008790Y013852D01*
X008870Y013932D02*
X008871Y013934D01*
X008871Y014012D01*
X009058Y013932D02*
X009138Y014012D01*
X009002Y013852D02*
X009002Y013772D01*
X009002Y013692D02*
X009002Y013612D01*
X009002Y013532D02*
X009002Y013498D01*
X009048Y013452D01*
X009128Y013372D02*
X009208Y013292D01*
X009208Y013292D01*
X009295Y013502D02*
X009265Y013532D01*
X009529Y013532D01*
X009582Y013585D01*
X009582Y013612D01*
X009212Y013612D01*
X009212Y013585D01*
X009265Y013532D01*
X009295Y013502D02*
X009499Y013502D01*
X009529Y013532D01*
X009582Y013612D02*
X009582Y013692D01*
X009212Y013692D01*
X009212Y013612D01*
X009212Y013692D02*
X009212Y013772D01*
X009582Y013772D01*
X009582Y013788D01*
X009519Y013852D01*
X009275Y013852D01*
X009212Y013788D01*
X009212Y013772D01*
X009275Y013852D02*
X009295Y013872D01*
X009499Y013872D01*
X009519Y013852D01*
X009582Y013772D02*
X009582Y013692D01*
X009792Y013498D02*
X009746Y013452D01*
X009969Y013452D01*
X009922Y013498D01*
X009922Y013532D01*
X009792Y013532D01*
X009792Y013498D01*
X009792Y013532D02*
X009792Y013612D01*
X009922Y013612D01*
X009922Y013692D01*
X009792Y013692D01*
X009792Y013612D01*
X009792Y013692D02*
X009792Y013772D01*
X009922Y013772D01*
X009922Y013852D01*
X009792Y013852D01*
X009792Y013772D01*
X009792Y013852D02*
X009792Y013875D01*
X009735Y013932D01*
X009979Y013932D01*
X010059Y014012D01*
X009979Y013932D02*
X009922Y013875D01*
X009922Y013852D01*
X009922Y013772D02*
X009922Y013692D01*
X009922Y013612D02*
X009922Y013532D01*
X009969Y013452D02*
X010049Y013372D01*
X009666Y013372D01*
X009586Y013292D01*
X009666Y013372D02*
X009746Y013452D01*
X010049Y013372D02*
X010129Y013292D01*
X010216Y013502D02*
X010186Y013532D01*
X010450Y013532D01*
X010503Y013585D01*
X010503Y013612D01*
X010132Y013612D01*
X010132Y013585D01*
X010186Y013532D01*
X010216Y013502D02*
X010419Y013502D01*
X010450Y013532D01*
X010503Y013612D02*
X010503Y013692D01*
X010132Y013692D01*
X010132Y013612D01*
X010132Y013692D02*
X010132Y013772D01*
X010503Y013772D01*
X010503Y013788D01*
X010439Y013852D01*
X010196Y013852D01*
X010132Y013788D01*
X010132Y013772D01*
X010196Y013852D02*
X010216Y013872D01*
X010419Y013872D01*
X010439Y013852D01*
X010503Y013772D02*
X010503Y013692D01*
X010713Y013692D02*
X010713Y013772D01*
X010843Y013772D01*
X010843Y013852D01*
X010713Y013852D01*
X010713Y013772D01*
X010713Y013692D02*
X010843Y013692D01*
X010843Y013772D01*
X010843Y013692D02*
X010843Y013612D01*
X010713Y013612D01*
X010713Y013532D01*
X010843Y013532D01*
X010843Y013612D01*
X010713Y013612D02*
X010713Y013692D01*
X010713Y013532D02*
X010713Y013498D01*
X010667Y013452D01*
X010587Y013372D02*
X010507Y013292D01*
X010904Y013292D02*
X010905Y013292D01*
X011137Y013292D01*
X010843Y013852D02*
X010843Y013932D01*
X010656Y013932D01*
X010713Y013875D01*
X010713Y013852D01*
X010656Y013932D02*
X010576Y014012D01*
X010843Y014012D02*
X010843Y013932D01*
X011343Y013932D02*
X011343Y014012D01*
X011424Y014012D02*
X011424Y013932D01*
X012553Y013932D02*
X012554Y013934D01*
X012554Y014012D01*
X012741Y013932D02*
X012821Y014012D01*
X012685Y013852D02*
X012685Y013788D01*
X012701Y013772D01*
X012781Y013692D02*
X012861Y013612D01*
X012891Y013502D02*
X013181Y013502D01*
X013212Y013532D01*
X013349Y013372D02*
X013605Y013372D01*
X013605Y013452D01*
X013429Y013452D01*
X013349Y013372D01*
X013269Y013292D01*
X013429Y013452D02*
X013475Y013498D01*
X013475Y013532D01*
X013605Y013532D01*
X013605Y013612D01*
X013475Y013612D01*
X013475Y013532D01*
X013475Y013612D02*
X013475Y013692D01*
X013605Y013692D01*
X013605Y013772D01*
X013475Y013772D01*
X013475Y013692D01*
X013475Y013772D02*
X013475Y013852D01*
X013605Y013852D01*
X013605Y013932D01*
X013475Y013932D01*
X013475Y013852D01*
X013475Y013932D02*
X013475Y014012D01*
X013605Y014012D02*
X013605Y013932D01*
X013605Y013852D02*
X013605Y013772D01*
X013605Y013692D02*
X013605Y013612D01*
X013605Y013532D02*
X013605Y013452D01*
X013605Y013372D02*
X013605Y013292D01*
X013605Y013212D02*
X013605Y013132D01*
X013616Y013052D02*
X013667Y013001D01*
X013754Y013001D01*
X013805Y013052D01*
X013815Y013132D02*
X013815Y013212D01*
X013815Y013502D02*
X014102Y013502D01*
X014133Y013532D01*
X013815Y013532D01*
X013815Y013502D01*
X013815Y013532D02*
X013815Y013612D01*
X014186Y013612D01*
X014186Y013692D01*
X013815Y013692D01*
X013815Y013612D01*
X013815Y013692D02*
X013815Y013772D01*
X014186Y013772D01*
X014186Y013788D01*
X014122Y013852D01*
X013815Y013852D01*
X013815Y013772D01*
X013815Y013852D02*
X013815Y013872D01*
X014102Y013872D01*
X014122Y013852D01*
X014186Y013772D02*
X014186Y013692D01*
X014186Y013612D02*
X014186Y013585D01*
X014133Y013532D01*
X014270Y013372D02*
X014652Y013372D01*
X014572Y013452D01*
X014350Y013452D01*
X014270Y013372D01*
X014190Y013292D01*
X014350Y013452D02*
X014396Y013498D01*
X014396Y013532D01*
X014526Y013532D01*
X014526Y013585D01*
X014553Y013612D01*
X014396Y013612D01*
X014396Y013532D01*
X014396Y013612D02*
X014396Y013692D01*
X014633Y013692D01*
X014713Y013772D01*
X014396Y013772D01*
X014396Y013692D01*
X014396Y013772D02*
X014396Y013852D01*
X015043Y013852D01*
X015023Y013872D01*
X014588Y013872D01*
X014528Y013932D01*
X014339Y013932D01*
X014396Y013875D01*
X014396Y013852D01*
X014339Y013932D02*
X014259Y014012D01*
X014526Y014012D02*
X014526Y013934D01*
X014528Y013932D01*
X014713Y013772D02*
X014733Y013792D01*
X015023Y013792D01*
X015063Y013832D01*
X015043Y013852D01*
X015180Y014012D02*
X015260Y013932D01*
X015447Y013932D01*
X015447Y014012D01*
X015447Y013932D02*
X015447Y013852D01*
X015317Y013852D01*
X015317Y013788D01*
X015300Y013772D01*
X015463Y013772D01*
X015447Y013788D01*
X015447Y013852D01*
X015463Y013772D02*
X015508Y013727D01*
X015740Y013727D01*
X015786Y013772D01*
X015907Y013772D01*
X015907Y013852D01*
X015802Y013852D01*
X015802Y013788D01*
X015786Y013772D01*
X015802Y013852D02*
X015802Y013932D01*
X015964Y013932D01*
X016044Y014012D01*
X015964Y013932D02*
X015907Y013875D01*
X015907Y013852D01*
X015907Y013772D02*
X015907Y013692D01*
X015220Y013692D01*
X015140Y013612D01*
X015907Y013612D01*
X015907Y013692D01*
X015907Y013612D02*
X015907Y013532D01*
X014789Y013532D01*
X014820Y013502D01*
X015255Y013502D01*
X015305Y013452D01*
X015953Y013452D01*
X015907Y013498D01*
X015907Y013532D01*
X015953Y013452D02*
X016033Y013372D01*
X015317Y013372D01*
X015317Y013353D01*
X015256Y013292D01*
X015317Y013372D02*
X015317Y013440D01*
X015305Y013452D01*
X015140Y013612D02*
X015110Y013582D01*
X014820Y013582D01*
X014780Y013542D01*
X014789Y013532D01*
X014652Y013372D02*
X014732Y013292D01*
X014572Y013452D02*
X014526Y013498D01*
X014526Y013532D01*
X014553Y013612D02*
X014633Y013692D01*
X015220Y013692D02*
X015300Y013772D01*
X015317Y013852D02*
X015317Y013875D01*
X015260Y013932D01*
X015802Y013932D02*
X015802Y014012D01*
X016117Y013788D02*
X016117Y013772D01*
X016117Y013788D02*
X016181Y013852D01*
X016117Y013692D02*
X016117Y013612D01*
X016170Y013532D02*
X016201Y013502D01*
X016636Y013502D01*
X016686Y013452D01*
X016698Y013372D02*
X016698Y013353D01*
X016637Y013292D01*
X017034Y013292D02*
X017035Y013292D01*
X017412Y013292D01*
X017810Y013292D02*
X017810Y013292D01*
X018042Y013292D01*
X018043Y013292D01*
X018245Y013292D01*
X018165Y013372D01*
X018123Y013372D01*
X018144Y013393D02*
X018043Y013292D01*
X018144Y013393D02*
X018165Y013372D01*
X018246Y013292D02*
X018245Y013292D01*
X018246Y013292D02*
X018333Y013292D01*
X017986Y013532D02*
X017959Y013505D01*
X017959Y013532D01*
X016698Y013934D02*
X016696Y013932D01*
X016698Y013934D02*
X016698Y014012D01*
X016033Y013372D02*
X016113Y013292D01*
X013265Y013792D02*
X013265Y013852D01*
X012958Y013852D01*
X012938Y013832D01*
X012978Y013792D01*
X013265Y013792D01*
X013265Y013852D02*
X013265Y013872D01*
X012978Y013872D01*
X012958Y013852D01*
X012891Y013502D02*
X012842Y013452D01*
X012830Y013372D02*
X012830Y013353D01*
X012891Y013292D01*
X012891Y013292D01*
X009735Y013932D02*
X009655Y014012D01*
X008653Y014012D02*
X008573Y013932D01*
X008291Y013932D01*
X008291Y013852D01*
X008493Y013852D01*
X008573Y013932D01*
X008493Y013852D02*
X008433Y013792D01*
X008291Y013792D01*
X008291Y013852D01*
X008291Y013932D02*
X008291Y014012D01*
X008081Y014012D02*
X008081Y013932D01*
X007966Y013932D01*
X007906Y013872D01*
X007822Y013872D01*
X007822Y013852D01*
X008081Y013852D01*
X008081Y013932D01*
X008081Y013852D02*
X008081Y013772D01*
X007822Y013772D01*
X007822Y013692D01*
X007822Y013772D02*
X007822Y013852D01*
X007966Y013932D02*
X007967Y013934D01*
X007967Y014012D01*
X008081Y013772D02*
X008081Y013692D01*
X008291Y013582D02*
X008291Y013532D01*
X008628Y013532D01*
X008578Y013582D01*
X008291Y013582D01*
X008291Y013532D02*
X008291Y013452D01*
X008661Y013452D01*
X008661Y013498D01*
X008628Y013532D01*
X008661Y013452D02*
X008661Y013372D01*
X008291Y013372D01*
X008291Y013292D01*
X008659Y013292D01*
X008661Y013295D01*
X008661Y013372D01*
X008659Y013292D02*
X008579Y013212D01*
X008291Y013212D01*
X008291Y013211D01*
X008578Y013211D01*
X008579Y013212D01*
X008291Y013212D02*
X008291Y013292D01*
X008291Y013372D02*
X008291Y013452D01*
X007822Y013452D02*
X007822Y013532D01*
X007822Y013372D02*
X007822Y013292D01*
X007822Y013212D02*
X007822Y013132D01*
X007811Y013052D02*
X007761Y013001D01*
X007529Y013001D01*
X007478Y013052D01*
X006517Y013292D02*
X006516Y013292D01*
X006139Y013292D01*
X006139Y013292D01*
X006078Y013372D02*
X006078Y013440D01*
X006090Y013452D01*
X004263Y013612D02*
X004183Y013532D01*
X000271Y013532D01*
X000271Y013452D01*
X004103Y013452D01*
X004183Y013532D01*
X004103Y013452D02*
X004091Y013440D01*
X004091Y013372D01*
X000271Y013372D01*
X000271Y013292D01*
X004091Y013292D01*
X004091Y013372D01*
X004091Y013292D02*
X004091Y013212D01*
X000271Y013212D01*
X000271Y013132D01*
X004167Y013132D01*
X004091Y013208D01*
X004091Y013212D01*
X004167Y013132D02*
X004247Y013052D01*
X004247Y016989D02*
X004167Y017069D01*
X004091Y017149D02*
X004091Y017229D01*
X004091Y017309D02*
X004091Y017377D01*
X004103Y017389D01*
X004183Y017469D02*
X004263Y017549D01*
X004385Y017374D02*
X004320Y017309D01*
X004304Y017229D02*
X004384Y017149D01*
X004589Y017149D01*
X004669Y017229D01*
X004589Y017149D02*
X004588Y017148D01*
X004385Y017148D01*
X004384Y017149D01*
X004385Y017374D02*
X004675Y017374D01*
X004690Y017389D01*
X004850Y017549D02*
X004881Y017580D01*
X004881Y017629D01*
X005012Y017629D01*
X005012Y017709D01*
X004881Y017709D01*
X004881Y017629D01*
X004881Y017709D02*
X004881Y017789D01*
X005012Y017789D01*
X005012Y017869D01*
X004825Y017869D01*
X004881Y017812D01*
X004881Y017789D01*
X004825Y017869D02*
X004745Y017949D01*
X005012Y017949D02*
X005012Y017869D01*
X005012Y017789D02*
X005012Y017709D01*
X005012Y017629D02*
X005012Y017549D01*
X005222Y017549D02*
X005222Y017469D01*
X005249Y017469D01*
X005302Y017522D01*
X005302Y017549D01*
X005222Y017549D01*
X005222Y017629D01*
X005302Y017629D01*
X005302Y017709D01*
X005222Y017709D01*
X005222Y017629D01*
X005302Y017629D02*
X005302Y017549D01*
X005249Y017469D02*
X005222Y017442D01*
X005222Y017469D01*
X005512Y017522D02*
X005552Y017482D01*
X005592Y017522D01*
X005592Y017549D01*
X005512Y017549D01*
X005512Y017522D01*
X005512Y017549D02*
X005512Y017629D01*
X005592Y017629D01*
X005592Y017709D01*
X005512Y017709D01*
X005512Y017629D01*
X005512Y017709D02*
X005512Y017789D01*
X005592Y017789D01*
X005592Y017869D01*
X005512Y017869D01*
X005512Y017789D01*
X005512Y017869D02*
X005512Y017949D01*
X005592Y017949D02*
X005592Y017869D01*
X005592Y017789D02*
X005592Y017709D01*
X005592Y017629D02*
X005592Y017549D01*
X005302Y017709D02*
X005302Y017789D01*
X005222Y017789D01*
X005222Y017709D01*
X005222Y017789D02*
X005222Y017869D01*
X005302Y017869D01*
X005302Y017949D01*
X005302Y017869D02*
X005302Y017789D01*
X005222Y017869D02*
X005222Y017949D01*
X005802Y017949D02*
X005802Y017869D01*
X006186Y017769D02*
X006226Y017729D01*
X006513Y017729D01*
X006513Y017789D01*
X006206Y017789D01*
X006186Y017769D01*
X006206Y017789D02*
X006226Y017809D01*
X006513Y017809D01*
X006513Y017789D01*
X006723Y017869D02*
X006723Y017949D01*
X007353Y017949D02*
X007353Y017871D01*
X007352Y017869D01*
X007966Y017869D02*
X007967Y017871D01*
X007967Y017949D01*
X008291Y017949D02*
X008291Y017869D01*
X008573Y017869D01*
X008653Y017949D01*
X008573Y017869D02*
X008493Y017789D01*
X008291Y017789D01*
X008291Y017729D01*
X008433Y017729D01*
X008493Y017789D01*
X008291Y017789D02*
X008291Y017869D01*
X008870Y017869D02*
X008871Y017871D01*
X008871Y017949D01*
X009212Y017725D02*
X009212Y017709D01*
X009582Y017709D01*
X009582Y017725D01*
X009519Y017789D01*
X009275Y017789D01*
X009212Y017725D01*
X009212Y017709D02*
X009212Y017629D01*
X009582Y017629D01*
X009582Y017709D01*
X009582Y017629D02*
X009582Y017549D01*
X009212Y017549D01*
X009212Y017522D01*
X009265Y017469D01*
X009529Y017469D01*
X009582Y017522D01*
X009582Y017549D01*
X009529Y017469D02*
X009499Y017439D01*
X009295Y017439D01*
X009265Y017469D01*
X009212Y017549D02*
X009212Y017629D01*
X009275Y017789D02*
X009295Y017809D01*
X009499Y017809D01*
X009519Y017789D01*
X009655Y017949D02*
X009735Y017869D01*
X009979Y017869D01*
X010059Y017949D01*
X009979Y017869D02*
X009922Y017812D01*
X009922Y017789D01*
X009792Y017789D01*
X009792Y017709D01*
X009922Y017709D01*
X009922Y017789D01*
X009922Y017709D02*
X009922Y017629D01*
X009792Y017629D01*
X009792Y017549D01*
X009922Y017549D01*
X009922Y017629D01*
X009922Y017549D02*
X009922Y017469D01*
X009792Y017469D01*
X009792Y017435D01*
X009746Y017389D01*
X009969Y017389D01*
X009922Y017435D01*
X009922Y017469D01*
X009969Y017389D02*
X010049Y017309D01*
X009666Y017309D01*
X009586Y017229D01*
X009666Y017309D02*
X009746Y017389D01*
X009792Y017469D02*
X009792Y017549D01*
X009792Y017629D02*
X009792Y017709D01*
X009792Y017789D02*
X009792Y017812D01*
X009735Y017869D01*
X010132Y017725D02*
X010132Y017709D01*
X010503Y017709D01*
X010503Y017725D01*
X010439Y017789D01*
X010196Y017789D01*
X010132Y017725D01*
X010132Y017709D02*
X010132Y017629D01*
X010503Y017629D01*
X010503Y017709D01*
X010503Y017629D02*
X010503Y017549D01*
X010132Y017549D01*
X010132Y017522D01*
X010186Y017469D01*
X010450Y017469D01*
X010503Y017522D01*
X010503Y017549D01*
X010450Y017469D02*
X010419Y017439D01*
X010216Y017439D01*
X010186Y017469D01*
X010132Y017549D02*
X010132Y017629D01*
X010196Y017789D02*
X010216Y017809D01*
X010419Y017809D01*
X010439Y017789D01*
X010576Y017949D02*
X010656Y017869D01*
X011053Y017869D02*
X011053Y017789D01*
X011133Y017789D01*
X011133Y017869D01*
X011053Y017869D01*
X011053Y017949D01*
X011133Y017949D02*
X011133Y017869D01*
X011133Y017789D02*
X011133Y017709D01*
X011053Y017709D01*
X011053Y017629D01*
X011133Y017629D01*
X011133Y017709D01*
X011053Y017709D02*
X011053Y017789D01*
X011053Y017629D02*
X011053Y017549D01*
X011133Y017549D01*
X011133Y017629D01*
X011133Y017549D02*
X011133Y017522D01*
X011080Y017469D01*
X011053Y017469D01*
X011053Y017442D01*
X011080Y017469D01*
X011053Y017469D02*
X011053Y017549D01*
X010129Y017229D02*
X010049Y017309D01*
X008871Y017229D02*
X008871Y017149D01*
X008810Y017084D02*
X008810Y017084D01*
X008795Y017069D02*
X008726Y017000D01*
X008715Y016989D01*
X008726Y017000D02*
X008726Y017000D01*
X006517Y017229D02*
X006516Y017229D01*
X006139Y017229D01*
X006139Y017229D01*
X006078Y017309D02*
X006078Y017377D01*
X006090Y017389D01*
X004881Y017229D02*
X004881Y017149D01*
X004806Y017069D02*
X004726Y016989D01*
X004148Y017869D02*
X004228Y017949D01*
X000271Y017789D02*
X000271Y017709D01*
X000271Y013932D02*
X000271Y013852D01*
X000271Y013772D02*
X000271Y013692D01*
X000271Y013612D02*
X000271Y013532D01*
X000271Y013452D02*
X000271Y013372D01*
X000271Y013292D02*
X000271Y013212D01*
X000271Y013132D02*
X000271Y013052D01*
X000271Y006058D02*
X000271Y005978D01*
X000271Y005898D02*
X000271Y005818D01*
X000271Y005738D02*
X000271Y005658D01*
X016874Y017389D02*
X016954Y017309D01*
X017035Y017229D02*
X017034Y017229D01*
X017035Y017229D02*
X017412Y017229D01*
X017412Y017229D01*
X017091Y017469D02*
X017038Y017522D01*
X017038Y017549D01*
X017038Y017629D02*
X017038Y017709D01*
X016828Y017709D02*
X016828Y017789D01*
X016828Y017629D02*
X016828Y017549D01*
X017482Y017949D02*
X017562Y017869D01*
X017959Y017869D02*
X017959Y017789D01*
X018039Y017789D01*
X018039Y017869D01*
X017959Y017869D01*
X017959Y017949D01*
X018039Y017949D02*
X018039Y017869D01*
X018039Y017789D02*
X018039Y017709D01*
X017959Y017709D01*
X017959Y017629D01*
X018039Y017629D01*
X018039Y017709D01*
X018039Y017629D02*
X018039Y017549D01*
X017959Y017549D01*
X017959Y017469D01*
X017986Y017469D01*
X018039Y017522D01*
X018039Y017549D01*
X017959Y017549D02*
X017959Y017629D01*
X017959Y017709D02*
X017959Y017789D01*
X018249Y017789D02*
X018329Y017789D01*
X018329Y017869D01*
X018249Y017869D01*
X018249Y017789D01*
X018249Y017709D01*
X018329Y017709D01*
X018329Y017789D01*
X018329Y017709D02*
X018329Y017629D01*
X018249Y017629D01*
X018249Y017549D01*
X018329Y017549D01*
X018329Y017629D01*
X018329Y017549D02*
X018329Y017522D01*
X018289Y017482D01*
X018249Y017522D01*
X018249Y017549D01*
X018249Y017629D02*
X018249Y017709D01*
X018249Y017869D02*
X018249Y017949D01*
X018329Y017949D02*
X018329Y017869D01*
X018539Y017869D02*
X018539Y017949D01*
X017986Y017469D02*
X017959Y017442D01*
X017959Y017469D01*
X019676Y018029D02*
X019676Y018109D01*
X019676Y018189D02*
X019676Y018269D01*
X019676Y018349D02*
X019676Y018429D01*
X019676Y018509D02*
X019676Y018589D01*
X019676Y018669D02*
X019676Y018749D01*
X019676Y018829D02*
X019676Y018909D01*
X019676Y018989D02*
X019676Y019069D01*
X019637Y012063D02*
X019637Y012043D01*
X019637Y004189D02*
X019637Y004169D01*
D12*
X019738Y004146D02*
X000209Y004146D01*
X000229Y007808D01*
X019718Y007808D01*
X019738Y004146D01*
X019718Y003871D02*
X000229Y003871D01*
X000209Y000209D01*
X019738Y000209D01*
X019718Y003871D01*
X019738Y008083D02*
X000209Y008083D01*
X000229Y011745D01*
X019718Y011745D01*
X019738Y008083D01*
X019738Y012020D02*
X000209Y012020D01*
X000229Y015682D01*
X019718Y015682D01*
X019738Y012020D01*
X019738Y015957D02*
X000209Y015957D01*
X000229Y019619D01*
X019718Y019619D01*
X019738Y015957D01*
D13*
X019511Y015432D02*
X000431Y015432D01*
X000431Y011495D02*
X019511Y011495D01*
X019511Y007558D02*
X000431Y007558D01*
X000431Y003621D02*
X019511Y003621D01*
X019511Y019369D02*
X000431Y019369D01*
M02*
