%
M48
M72
T01C0.0157
T02C0.0197
T03C0.0236
T04C0.0276
T05C0.0315
T06C0.0354
T07C0.0394
T08C0.0433
T09C0.0472
T10C0.0512
T11C0.0551
T12C0.0591
T13C0.0630
T14C0.0669
T15C0.0709
T16C0.0748
T17C0.0787
T18C0.0827
T19C0.0866
T20C0.0906
T21C0.1181
T22C0.2500
%
T01
X4855Y525
X4855Y4462
X4855Y8399
X4855Y12336
X4855Y16273
T02
X5643Y16273
X5643Y12336
X5643Y8399
X5643Y4462
X5643Y525
T03
X6430Y525
X6430Y4462
X6430Y8399
X6430Y12336
X6430Y16273
T04
X7218Y16273
X7218Y12336
X7218Y8399
X7218Y4462
X7218Y525
T05
X8005Y525
X8005Y4462
X8005Y8399
X8005Y12336
X8005Y16273
T06
X8792Y16273
X8792Y12336
X8792Y8399
X8792Y4462
X8792Y525
T07
X9580Y525
X9580Y4462
X9580Y8399
X9580Y12336
X9580Y16273
T08
X10485Y16391
X10485Y12454
X10485Y8517
X10485Y4580
X10485Y643
T09
X11470Y643
X11470Y4580
X11470Y8517
X11470Y12454
X11470Y16391
T10
X12454Y16391
X12454Y12454
X12454Y8517
X12454Y4580
X12454Y643
T11
X13438Y643
X13438Y4580
X13438Y8517
X13438Y12454
X13438Y16391
T12
X14422Y16391
X14422Y12454
X14422Y8517
X14422Y4580
X14422Y643
T13
X15407Y682
X15407Y4619
X15407Y8556
X15407Y12493
X15407Y16430
T14
X16548Y16548
X16548Y12611
X16548Y8674
X16548Y4737
X16548Y800
T15
X17769Y800
X17769Y4737
X17769Y8674
X17769Y12611
X17769Y16548
T16
X18989Y16548
X18989Y12611
X18989Y8674
X18989Y4737
X18989Y800
T17
X5052Y3281
X5052Y7218
X5052Y11155
X5052Y15092
X5052Y19029
T18
X8005Y19029
X8005Y15092
X8005Y11155
X8005Y7218
X8005Y3281
T19
X10958Y3281
X10958Y7218
X10958Y11155
X10958Y15092
X10958Y19029
T20
X13911Y19029
X13911Y15092
X13911Y11155
X13911Y7218
X13911Y3281
T21
X17060Y3163
X17060Y7100
X17060Y11037
X17060Y14974
X17060Y18911
T22
X2100Y2100
X2100Y6037
X2100Y9974
X2100Y13911
X2100Y17848
M30
