G75*
G70*
%OFA0B0*%
%FSLAX24Y24*%
%IPPOS*%
%LPD*%
%AMOC8*
5,1,8,0,0,1.08239X$1,22.5*
%
%ADD10C,0.0000*%
%ADD11C,0.0004*%
%ADD12C,0.0660*%
%ADD13R,0.0080X0.1200*%
%ADD14C,0.0080*%
D10*
X001076Y001686D02*
X001078Y001735D01*
X001084Y001784D01*
X001094Y001832D01*
X001107Y001879D01*
X001125Y001925D01*
X001146Y001969D01*
X001170Y002012D01*
X001198Y002052D01*
X001229Y002091D01*
X001263Y002126D01*
X001300Y002159D01*
X001339Y002188D01*
X001381Y002214D01*
X001424Y002237D01*
X001470Y002256D01*
X001516Y002272D01*
X001564Y002284D01*
X001612Y002292D01*
X001661Y002296D01*
X001711Y002296D01*
X001760Y002292D01*
X001808Y002284D01*
X001856Y002272D01*
X001902Y002256D01*
X001948Y002237D01*
X001991Y002214D01*
X002033Y002188D01*
X002072Y002159D01*
X002109Y002126D01*
X002143Y002091D01*
X002174Y002052D01*
X002202Y002012D01*
X002226Y001969D01*
X002247Y001925D01*
X002265Y001879D01*
X002278Y001832D01*
X002288Y001784D01*
X002294Y001735D01*
X002296Y001686D01*
X002294Y001637D01*
X002288Y001588D01*
X002278Y001540D01*
X002265Y001493D01*
X002247Y001447D01*
X002226Y001403D01*
X002202Y001360D01*
X002174Y001320D01*
X002143Y001281D01*
X002109Y001246D01*
X002072Y001213D01*
X002033Y001184D01*
X001991Y001158D01*
X001948Y001135D01*
X001902Y001116D01*
X001856Y001100D01*
X001808Y001088D01*
X001760Y001080D01*
X001711Y001076D01*
X001661Y001076D01*
X001612Y001080D01*
X001564Y001088D01*
X001516Y001100D01*
X001470Y001116D01*
X001424Y001135D01*
X001381Y001158D01*
X001339Y001184D01*
X001300Y001213D01*
X001263Y001246D01*
X001229Y001281D01*
X001198Y001320D01*
X001170Y001360D01*
X001146Y001403D01*
X001125Y001447D01*
X001107Y001493D01*
X001094Y001540D01*
X001084Y001588D01*
X001078Y001637D01*
X001076Y001686D01*
X001076Y008379D02*
X001078Y008428D01*
X001084Y008477D01*
X001094Y008525D01*
X001107Y008572D01*
X001125Y008618D01*
X001146Y008662D01*
X001170Y008705D01*
X001198Y008745D01*
X001229Y008784D01*
X001263Y008819D01*
X001300Y008852D01*
X001339Y008881D01*
X001381Y008907D01*
X001424Y008930D01*
X001470Y008949D01*
X001516Y008965D01*
X001564Y008977D01*
X001612Y008985D01*
X001661Y008989D01*
X001711Y008989D01*
X001760Y008985D01*
X001808Y008977D01*
X001856Y008965D01*
X001902Y008949D01*
X001948Y008930D01*
X001991Y008907D01*
X002033Y008881D01*
X002072Y008852D01*
X002109Y008819D01*
X002143Y008784D01*
X002174Y008745D01*
X002202Y008705D01*
X002226Y008662D01*
X002247Y008618D01*
X002265Y008572D01*
X002278Y008525D01*
X002288Y008477D01*
X002294Y008428D01*
X002296Y008379D01*
X002294Y008330D01*
X002288Y008281D01*
X002278Y008233D01*
X002265Y008186D01*
X002247Y008140D01*
X002226Y008096D01*
X002202Y008053D01*
X002174Y008013D01*
X002143Y007974D01*
X002109Y007939D01*
X002072Y007906D01*
X002033Y007877D01*
X001991Y007851D01*
X001948Y007828D01*
X001902Y007809D01*
X001856Y007793D01*
X001808Y007781D01*
X001760Y007773D01*
X001711Y007769D01*
X001661Y007769D01*
X001612Y007773D01*
X001564Y007781D01*
X001516Y007793D01*
X001470Y007809D01*
X001424Y007828D01*
X001381Y007851D01*
X001339Y007877D01*
X001300Y007906D01*
X001263Y007939D01*
X001229Y007974D01*
X001198Y008013D01*
X001170Y008053D01*
X001146Y008096D01*
X001125Y008140D01*
X001107Y008186D01*
X001094Y008233D01*
X001084Y008281D01*
X001078Y008330D01*
X001076Y008379D01*
X001076Y011528D02*
X001078Y011577D01*
X001084Y011626D01*
X001094Y011674D01*
X001107Y011721D01*
X001125Y011767D01*
X001146Y011811D01*
X001170Y011854D01*
X001198Y011894D01*
X001229Y011933D01*
X001263Y011968D01*
X001300Y012001D01*
X001339Y012030D01*
X001381Y012056D01*
X001424Y012079D01*
X001470Y012098D01*
X001516Y012114D01*
X001564Y012126D01*
X001612Y012134D01*
X001661Y012138D01*
X001711Y012138D01*
X001760Y012134D01*
X001808Y012126D01*
X001856Y012114D01*
X001902Y012098D01*
X001948Y012079D01*
X001991Y012056D01*
X002033Y012030D01*
X002072Y012001D01*
X002109Y011968D01*
X002143Y011933D01*
X002174Y011894D01*
X002202Y011854D01*
X002226Y011811D01*
X002247Y011767D01*
X002265Y011721D01*
X002278Y011674D01*
X002288Y011626D01*
X002294Y011577D01*
X002296Y011528D01*
X002294Y011479D01*
X002288Y011430D01*
X002278Y011382D01*
X002265Y011335D01*
X002247Y011289D01*
X002226Y011245D01*
X002202Y011202D01*
X002174Y011162D01*
X002143Y011123D01*
X002109Y011088D01*
X002072Y011055D01*
X002033Y011026D01*
X001991Y011000D01*
X001948Y010977D01*
X001902Y010958D01*
X001856Y010942D01*
X001808Y010930D01*
X001760Y010922D01*
X001711Y010918D01*
X001661Y010918D01*
X001612Y010922D01*
X001564Y010930D01*
X001516Y010942D01*
X001470Y010958D01*
X001424Y010977D01*
X001381Y011000D01*
X001339Y011026D01*
X001300Y011055D01*
X001263Y011088D01*
X001229Y011123D01*
X001198Y011162D01*
X001170Y011202D01*
X001146Y011245D01*
X001125Y011289D01*
X001107Y011335D01*
X001094Y011382D01*
X001084Y011430D01*
X001078Y011479D01*
X001076Y011528D01*
X001076Y018221D02*
X001078Y018270D01*
X001084Y018319D01*
X001094Y018367D01*
X001107Y018414D01*
X001125Y018460D01*
X001146Y018504D01*
X001170Y018547D01*
X001198Y018587D01*
X001229Y018626D01*
X001263Y018661D01*
X001300Y018694D01*
X001339Y018723D01*
X001381Y018749D01*
X001424Y018772D01*
X001470Y018791D01*
X001516Y018807D01*
X001564Y018819D01*
X001612Y018827D01*
X001661Y018831D01*
X001711Y018831D01*
X001760Y018827D01*
X001808Y018819D01*
X001856Y018807D01*
X001902Y018791D01*
X001948Y018772D01*
X001991Y018749D01*
X002033Y018723D01*
X002072Y018694D01*
X002109Y018661D01*
X002143Y018626D01*
X002174Y018587D01*
X002202Y018547D01*
X002226Y018504D01*
X002247Y018460D01*
X002265Y018414D01*
X002278Y018367D01*
X002288Y018319D01*
X002294Y018270D01*
X002296Y018221D01*
X002294Y018172D01*
X002288Y018123D01*
X002278Y018075D01*
X002265Y018028D01*
X002247Y017982D01*
X002226Y017938D01*
X002202Y017895D01*
X002174Y017855D01*
X002143Y017816D01*
X002109Y017781D01*
X002072Y017748D01*
X002033Y017719D01*
X001991Y017693D01*
X001948Y017670D01*
X001902Y017651D01*
X001856Y017635D01*
X001808Y017623D01*
X001760Y017615D01*
X001711Y017611D01*
X001661Y017611D01*
X001612Y017615D01*
X001564Y017623D01*
X001516Y017635D01*
X001470Y017651D01*
X001424Y017670D01*
X001381Y017693D01*
X001339Y017719D01*
X001300Y017748D01*
X001263Y017781D01*
X001229Y017816D01*
X001198Y017855D01*
X001170Y017895D01*
X001146Y017938D01*
X001125Y017982D01*
X001107Y018028D01*
X001094Y018075D01*
X001084Y018123D01*
X001078Y018172D01*
X001076Y018221D01*
X017611Y018221D02*
X017613Y018270D01*
X017619Y018319D01*
X017629Y018367D01*
X017642Y018414D01*
X017660Y018460D01*
X017681Y018504D01*
X017705Y018547D01*
X017733Y018587D01*
X017764Y018626D01*
X017798Y018661D01*
X017835Y018694D01*
X017874Y018723D01*
X017916Y018749D01*
X017959Y018772D01*
X018005Y018791D01*
X018051Y018807D01*
X018099Y018819D01*
X018147Y018827D01*
X018196Y018831D01*
X018246Y018831D01*
X018295Y018827D01*
X018343Y018819D01*
X018391Y018807D01*
X018437Y018791D01*
X018483Y018772D01*
X018526Y018749D01*
X018568Y018723D01*
X018607Y018694D01*
X018644Y018661D01*
X018678Y018626D01*
X018709Y018587D01*
X018737Y018547D01*
X018761Y018504D01*
X018782Y018460D01*
X018800Y018414D01*
X018813Y018367D01*
X018823Y018319D01*
X018829Y018270D01*
X018831Y018221D01*
X018829Y018172D01*
X018823Y018123D01*
X018813Y018075D01*
X018800Y018028D01*
X018782Y017982D01*
X018761Y017938D01*
X018737Y017895D01*
X018709Y017855D01*
X018678Y017816D01*
X018644Y017781D01*
X018607Y017748D01*
X018568Y017719D01*
X018526Y017693D01*
X018483Y017670D01*
X018437Y017651D01*
X018391Y017635D01*
X018343Y017623D01*
X018295Y017615D01*
X018246Y017611D01*
X018196Y017611D01*
X018147Y017615D01*
X018099Y017623D01*
X018051Y017635D01*
X018005Y017651D01*
X017959Y017670D01*
X017916Y017693D01*
X017874Y017719D01*
X017835Y017748D01*
X017798Y017781D01*
X017764Y017816D01*
X017733Y017855D01*
X017705Y017895D01*
X017681Y017938D01*
X017660Y017982D01*
X017642Y018028D01*
X017629Y018075D01*
X017619Y018123D01*
X017613Y018172D01*
X017611Y018221D01*
X017611Y011528D02*
X017613Y011577D01*
X017619Y011626D01*
X017629Y011674D01*
X017642Y011721D01*
X017660Y011767D01*
X017681Y011811D01*
X017705Y011854D01*
X017733Y011894D01*
X017764Y011933D01*
X017798Y011968D01*
X017835Y012001D01*
X017874Y012030D01*
X017916Y012056D01*
X017959Y012079D01*
X018005Y012098D01*
X018051Y012114D01*
X018099Y012126D01*
X018147Y012134D01*
X018196Y012138D01*
X018246Y012138D01*
X018295Y012134D01*
X018343Y012126D01*
X018391Y012114D01*
X018437Y012098D01*
X018483Y012079D01*
X018526Y012056D01*
X018568Y012030D01*
X018607Y012001D01*
X018644Y011968D01*
X018678Y011933D01*
X018709Y011894D01*
X018737Y011854D01*
X018761Y011811D01*
X018782Y011767D01*
X018800Y011721D01*
X018813Y011674D01*
X018823Y011626D01*
X018829Y011577D01*
X018831Y011528D01*
X018829Y011479D01*
X018823Y011430D01*
X018813Y011382D01*
X018800Y011335D01*
X018782Y011289D01*
X018761Y011245D01*
X018737Y011202D01*
X018709Y011162D01*
X018678Y011123D01*
X018644Y011088D01*
X018607Y011055D01*
X018568Y011026D01*
X018526Y011000D01*
X018483Y010977D01*
X018437Y010958D01*
X018391Y010942D01*
X018343Y010930D01*
X018295Y010922D01*
X018246Y010918D01*
X018196Y010918D01*
X018147Y010922D01*
X018099Y010930D01*
X018051Y010942D01*
X018005Y010958D01*
X017959Y010977D01*
X017916Y011000D01*
X017874Y011026D01*
X017835Y011055D01*
X017798Y011088D01*
X017764Y011123D01*
X017733Y011162D01*
X017705Y011202D01*
X017681Y011245D01*
X017660Y011289D01*
X017642Y011335D01*
X017629Y011382D01*
X017619Y011430D01*
X017613Y011479D01*
X017611Y011528D01*
X017611Y008379D02*
X017613Y008428D01*
X017619Y008477D01*
X017629Y008525D01*
X017642Y008572D01*
X017660Y008618D01*
X017681Y008662D01*
X017705Y008705D01*
X017733Y008745D01*
X017764Y008784D01*
X017798Y008819D01*
X017835Y008852D01*
X017874Y008881D01*
X017916Y008907D01*
X017959Y008930D01*
X018005Y008949D01*
X018051Y008965D01*
X018099Y008977D01*
X018147Y008985D01*
X018196Y008989D01*
X018246Y008989D01*
X018295Y008985D01*
X018343Y008977D01*
X018391Y008965D01*
X018437Y008949D01*
X018483Y008930D01*
X018526Y008907D01*
X018568Y008881D01*
X018607Y008852D01*
X018644Y008819D01*
X018678Y008784D01*
X018709Y008745D01*
X018737Y008705D01*
X018761Y008662D01*
X018782Y008618D01*
X018800Y008572D01*
X018813Y008525D01*
X018823Y008477D01*
X018829Y008428D01*
X018831Y008379D01*
X018829Y008330D01*
X018823Y008281D01*
X018813Y008233D01*
X018800Y008186D01*
X018782Y008140D01*
X018761Y008096D01*
X018737Y008053D01*
X018709Y008013D01*
X018678Y007974D01*
X018644Y007939D01*
X018607Y007906D01*
X018568Y007877D01*
X018526Y007851D01*
X018483Y007828D01*
X018437Y007809D01*
X018391Y007793D01*
X018343Y007781D01*
X018295Y007773D01*
X018246Y007769D01*
X018196Y007769D01*
X018147Y007773D01*
X018099Y007781D01*
X018051Y007793D01*
X018005Y007809D01*
X017959Y007828D01*
X017916Y007851D01*
X017874Y007877D01*
X017835Y007906D01*
X017798Y007939D01*
X017764Y007974D01*
X017733Y008013D01*
X017705Y008053D01*
X017681Y008096D01*
X017660Y008140D01*
X017642Y008186D01*
X017629Y008233D01*
X017619Y008281D01*
X017613Y008330D01*
X017611Y008379D01*
X017611Y001686D02*
X017613Y001735D01*
X017619Y001784D01*
X017629Y001832D01*
X017642Y001879D01*
X017660Y001925D01*
X017681Y001969D01*
X017705Y002012D01*
X017733Y002052D01*
X017764Y002091D01*
X017798Y002126D01*
X017835Y002159D01*
X017874Y002188D01*
X017916Y002214D01*
X017959Y002237D01*
X018005Y002256D01*
X018051Y002272D01*
X018099Y002284D01*
X018147Y002292D01*
X018196Y002296D01*
X018246Y002296D01*
X018295Y002292D01*
X018343Y002284D01*
X018391Y002272D01*
X018437Y002256D01*
X018483Y002237D01*
X018526Y002214D01*
X018568Y002188D01*
X018607Y002159D01*
X018644Y002126D01*
X018678Y002091D01*
X018709Y002052D01*
X018737Y002012D01*
X018761Y001969D01*
X018782Y001925D01*
X018800Y001879D01*
X018813Y001832D01*
X018823Y001784D01*
X018829Y001735D01*
X018831Y001686D01*
X018829Y001637D01*
X018823Y001588D01*
X018813Y001540D01*
X018800Y001493D01*
X018782Y001447D01*
X018761Y001403D01*
X018737Y001360D01*
X018709Y001320D01*
X018678Y001281D01*
X018644Y001246D01*
X018607Y001213D01*
X018568Y001184D01*
X018526Y001158D01*
X018483Y001135D01*
X018437Y001116D01*
X018391Y001100D01*
X018343Y001088D01*
X018295Y001080D01*
X018246Y001076D01*
X018196Y001076D01*
X018147Y001080D01*
X018099Y001088D01*
X018051Y001100D01*
X018005Y001116D01*
X017959Y001135D01*
X017916Y001158D01*
X017874Y001184D01*
X017835Y001213D01*
X017798Y001246D01*
X017764Y001281D01*
X017733Y001320D01*
X017705Y001360D01*
X017681Y001403D01*
X017660Y001447D01*
X017642Y001493D01*
X017629Y001540D01*
X017619Y001588D01*
X017613Y001637D01*
X017611Y001686D01*
D11*
X017827Y000110D02*
X017921Y000112D01*
X018014Y000119D01*
X018107Y000130D01*
X018200Y000146D01*
X018291Y000166D01*
X018382Y000190D01*
X018471Y000218D01*
X018559Y000251D01*
X018645Y000288D01*
X018729Y000329D01*
X018812Y000374D01*
X018892Y000423D01*
X018969Y000475D01*
X019044Y000531D01*
X019116Y000591D01*
X019186Y000654D01*
X019252Y000720D01*
X019315Y000790D01*
X019375Y000862D01*
X019431Y000937D01*
X019483Y001014D01*
X019532Y001095D01*
X019577Y001177D01*
X019618Y001261D01*
X019655Y001347D01*
X019688Y001435D01*
X019716Y001524D01*
X019740Y001615D01*
X019760Y001706D01*
X019776Y001799D01*
X019787Y001892D01*
X019794Y001985D01*
X019796Y002079D01*
X019796Y007936D01*
X019794Y008030D01*
X019787Y008123D01*
X019776Y008216D01*
X019760Y008309D01*
X019740Y008400D01*
X019716Y008491D01*
X019688Y008580D01*
X019655Y008668D01*
X019618Y008754D01*
X019577Y008838D01*
X019532Y008920D01*
X019483Y009001D01*
X019431Y009078D01*
X019375Y009153D01*
X019315Y009225D01*
X019252Y009295D01*
X019186Y009361D01*
X019116Y009424D01*
X019044Y009484D01*
X018969Y009540D01*
X018892Y009592D01*
X018811Y009641D01*
X018729Y009686D01*
X018645Y009727D01*
X018559Y009764D01*
X018471Y009797D01*
X018382Y009825D01*
X018291Y009849D01*
X018200Y009869D01*
X018107Y009885D01*
X018014Y009896D01*
X017921Y009903D01*
X017827Y009905D01*
X017827Y009904D02*
X017827Y010003D01*
X017827Y010002D02*
X017921Y010004D01*
X018014Y010011D01*
X018107Y010022D01*
X018200Y010038D01*
X018291Y010058D01*
X018382Y010082D01*
X018471Y010110D01*
X018559Y010143D01*
X018645Y010180D01*
X018729Y010221D01*
X018812Y010266D01*
X018892Y010315D01*
X018969Y010367D01*
X019044Y010423D01*
X019116Y010483D01*
X019186Y010546D01*
X019252Y010612D01*
X019315Y010682D01*
X019375Y010754D01*
X019431Y010829D01*
X019483Y010906D01*
X019532Y010987D01*
X019577Y011069D01*
X019618Y011153D01*
X019655Y011239D01*
X019688Y011327D01*
X019716Y011416D01*
X019740Y011507D01*
X019760Y011598D01*
X019776Y011691D01*
X019787Y011784D01*
X019794Y011877D01*
X019796Y011971D01*
X019796Y017827D01*
X019794Y017921D01*
X019787Y018014D01*
X019776Y018107D01*
X019760Y018200D01*
X019740Y018291D01*
X019716Y018382D01*
X019688Y018471D01*
X019655Y018559D01*
X019618Y018645D01*
X019577Y018729D01*
X019532Y018811D01*
X019483Y018892D01*
X019431Y018969D01*
X019375Y019044D01*
X019315Y019116D01*
X019252Y019186D01*
X019186Y019252D01*
X019116Y019315D01*
X019044Y019375D01*
X018969Y019431D01*
X018892Y019483D01*
X018811Y019532D01*
X018729Y019577D01*
X018645Y019618D01*
X018559Y019655D01*
X018471Y019688D01*
X018382Y019716D01*
X018291Y019740D01*
X018200Y019760D01*
X018107Y019776D01*
X018014Y019787D01*
X017921Y019794D01*
X017827Y019796D01*
X002079Y019796D01*
X001985Y019794D01*
X001892Y019787D01*
X001799Y019776D01*
X001706Y019760D01*
X001615Y019740D01*
X001524Y019716D01*
X001435Y019688D01*
X001347Y019655D01*
X001261Y019618D01*
X001177Y019577D01*
X001094Y019532D01*
X001014Y019483D01*
X000937Y019431D01*
X000862Y019375D01*
X000790Y019315D01*
X000720Y019252D01*
X000654Y019186D01*
X000591Y019116D01*
X000531Y019044D01*
X000475Y018969D01*
X000423Y018892D01*
X000374Y018812D01*
X000329Y018729D01*
X000288Y018645D01*
X000251Y018559D01*
X000218Y018471D01*
X000190Y018382D01*
X000166Y018291D01*
X000146Y018200D01*
X000130Y018107D01*
X000119Y018014D01*
X000112Y017921D01*
X000110Y017827D01*
X000111Y017827D02*
X000111Y011971D01*
X000110Y011971D02*
X000112Y011877D01*
X000119Y011784D01*
X000130Y011691D01*
X000146Y011598D01*
X000166Y011507D01*
X000190Y011416D01*
X000218Y011327D01*
X000251Y011239D01*
X000288Y011153D01*
X000329Y011069D01*
X000374Y010987D01*
X000423Y010906D01*
X000475Y010829D01*
X000531Y010754D01*
X000591Y010682D01*
X000654Y010612D01*
X000720Y010546D01*
X000790Y010483D01*
X000862Y010423D01*
X000937Y010367D01*
X001014Y010315D01*
X001094Y010266D01*
X001177Y010221D01*
X001261Y010180D01*
X001347Y010143D01*
X001435Y010110D01*
X001524Y010082D01*
X001615Y010058D01*
X001706Y010038D01*
X001799Y010022D01*
X001892Y010011D01*
X001985Y010004D01*
X002079Y010002D01*
X002079Y010003D02*
X002079Y009904D01*
X002079Y009905D02*
X001985Y009903D01*
X001892Y009896D01*
X001799Y009885D01*
X001706Y009869D01*
X001615Y009849D01*
X001524Y009825D01*
X001435Y009797D01*
X001347Y009764D01*
X001261Y009727D01*
X001177Y009686D01*
X001094Y009641D01*
X001014Y009592D01*
X000937Y009540D01*
X000862Y009484D01*
X000790Y009424D01*
X000720Y009361D01*
X000654Y009295D01*
X000591Y009225D01*
X000531Y009153D01*
X000475Y009078D01*
X000423Y009001D01*
X000374Y008921D01*
X000329Y008838D01*
X000288Y008754D01*
X000251Y008668D01*
X000218Y008580D01*
X000190Y008491D01*
X000166Y008400D01*
X000146Y008309D01*
X000130Y008216D01*
X000119Y008123D01*
X000112Y008030D01*
X000110Y007936D01*
X000111Y007936D02*
X000111Y002079D01*
X000110Y002079D02*
X000112Y001985D01*
X000119Y001892D01*
X000130Y001799D01*
X000146Y001706D01*
X000166Y001615D01*
X000190Y001524D01*
X000218Y001435D01*
X000251Y001347D01*
X000288Y001261D01*
X000329Y001177D01*
X000374Y001095D01*
X000423Y001014D01*
X000475Y000937D01*
X000531Y000862D01*
X000591Y000790D01*
X000654Y000720D01*
X000720Y000654D01*
X000790Y000591D01*
X000862Y000531D01*
X000937Y000475D01*
X001014Y000423D01*
X001094Y000374D01*
X001177Y000329D01*
X001261Y000288D01*
X001347Y000251D01*
X001435Y000218D01*
X001524Y000190D01*
X001615Y000166D01*
X001706Y000146D01*
X001799Y000130D01*
X001892Y000119D01*
X001985Y000112D01*
X002079Y000110D01*
X002079Y000111D02*
X017827Y000111D01*
D12*
X017361Y004111D03*
X016361Y004111D03*
X015361Y004111D03*
X014361Y004111D03*
X013361Y004111D03*
X012361Y004111D03*
X011361Y004111D03*
X010361Y004111D03*
X009361Y004111D03*
X008361Y004111D03*
X007361Y004111D03*
X006361Y004111D03*
X005361Y004111D03*
X004361Y004111D03*
X003361Y004111D03*
X002361Y004111D03*
X002361Y006111D03*
X003361Y006111D03*
X004361Y006111D03*
X005361Y006111D03*
X006361Y006111D03*
X007361Y006111D03*
X008361Y006111D03*
X009361Y006111D03*
X010361Y006111D03*
X011361Y006111D03*
X012361Y006111D03*
X013361Y006111D03*
X014361Y006111D03*
X015361Y006111D03*
X016361Y006111D03*
X017361Y006111D03*
X017361Y014111D03*
X016361Y014111D03*
X015361Y014111D03*
X014361Y014111D03*
X013361Y014111D03*
X012361Y014111D03*
X011361Y014111D03*
X010361Y014111D03*
X009361Y014111D03*
X008361Y014111D03*
X007361Y014111D03*
X006361Y014111D03*
X005361Y014111D03*
X004361Y014111D03*
X003361Y014111D03*
X002361Y014111D03*
X002361Y016111D03*
X003361Y016111D03*
X004361Y016111D03*
X005361Y016111D03*
X006361Y016111D03*
X007361Y016111D03*
X008361Y016111D03*
X009361Y016111D03*
X010361Y016111D03*
X011361Y016111D03*
X012361Y016111D03*
X013361Y016111D03*
X014361Y016111D03*
X015361Y016111D03*
X016361Y016111D03*
X017361Y016111D03*
D13*
X012932Y018865D03*
X012735Y018865D03*
X012538Y018865D03*
X012341Y018865D03*
X012144Y018865D03*
X011947Y018865D03*
X011751Y018865D03*
X011554Y018865D03*
X011357Y018865D03*
X011160Y018865D03*
X010963Y018865D03*
X010766Y018865D03*
X010570Y018865D03*
X010373Y018865D03*
X010176Y018865D03*
X009979Y018865D03*
X009782Y018865D03*
X009585Y018865D03*
X009388Y018865D03*
X009192Y018865D03*
X008995Y018865D03*
X008798Y018865D03*
X008601Y018865D03*
X008404Y018865D03*
X008207Y018865D03*
X008010Y018865D03*
X007814Y018865D03*
X007617Y018865D03*
X007420Y018865D03*
X007223Y018865D03*
X007026Y018865D03*
X006829Y018865D03*
X006849Y010916D03*
X006605Y010916D03*
X006361Y010916D03*
X006117Y010916D03*
X007093Y010916D03*
X007337Y010916D03*
X007581Y010916D03*
X007825Y010916D03*
X008070Y010916D03*
X008314Y010916D03*
X008558Y010916D03*
X008802Y010916D03*
X009046Y010916D03*
X009290Y010916D03*
X009534Y010916D03*
X009778Y010916D03*
X010022Y010916D03*
X010266Y010916D03*
X010510Y010916D03*
X010755Y010916D03*
X010999Y010916D03*
X011243Y010916D03*
X011487Y010916D03*
X011731Y010916D03*
X011975Y010916D03*
X012219Y010916D03*
X012463Y010916D03*
X012707Y010916D03*
X012951Y010916D03*
X013196Y010916D03*
X013440Y010916D03*
X013684Y010916D03*
X013654Y009018D03*
X013398Y009018D03*
X013142Y009018D03*
X012886Y009018D03*
X012631Y009018D03*
X012375Y009018D03*
X012119Y009018D03*
X011863Y009018D03*
X011607Y009018D03*
X011351Y009018D03*
X011095Y009018D03*
X010839Y009018D03*
X010583Y009018D03*
X010327Y009018D03*
X010071Y009018D03*
X009816Y009018D03*
X009560Y009018D03*
X009304Y009018D03*
X009048Y009018D03*
X008792Y009018D03*
X008536Y009018D03*
X008280Y009018D03*
X008024Y009018D03*
X007768Y009018D03*
X007512Y009018D03*
X007257Y009018D03*
X007001Y009018D03*
X006745Y009018D03*
X006489Y009018D03*
X006233Y009018D03*
X005977Y009018D03*
X013910Y009018D03*
X013644Y000898D03*
X013408Y000898D03*
X013172Y000898D03*
X012936Y000898D03*
X012699Y000898D03*
X012463Y000898D03*
X012227Y000898D03*
X011991Y000898D03*
X011755Y000898D03*
X011518Y000898D03*
X011282Y000898D03*
X011046Y000898D03*
X010810Y000898D03*
X010573Y000898D03*
X010337Y000898D03*
X010101Y000898D03*
X009865Y000898D03*
X009629Y000898D03*
X009392Y000898D03*
X009156Y000898D03*
X008920Y000898D03*
X008684Y000898D03*
X008447Y000898D03*
X008211Y000898D03*
X007975Y000898D03*
X007739Y000898D03*
X007503Y000898D03*
X007266Y000898D03*
X007030Y000898D03*
X006794Y000898D03*
X006558Y000898D03*
X006321Y000898D03*
D14*
X006321Y001500D01*
X006191Y001631D01*
X004091Y001631D01*
X001861Y003861D01*
X001861Y004861D01*
X002361Y005361D01*
X002361Y006111D01*
X002511Y006261D01*
X002511Y006351D01*
X004191Y008031D01*
X005871Y008031D01*
X005977Y008137D01*
X005977Y009018D01*
X006233Y009018D02*
X006233Y007993D01*
X006111Y007871D01*
X004371Y007871D01*
X002861Y006361D01*
X002861Y005361D01*
X002361Y004861D01*
X002361Y004111D01*
X002351Y004101D01*
X002351Y003711D01*
X004271Y001791D01*
X006511Y001791D01*
X006558Y001744D01*
X006558Y000898D01*
X006794Y000898D02*
X006794Y001908D01*
X006751Y001951D01*
X004771Y001951D01*
X002861Y003861D01*
X002861Y004861D01*
X003361Y005361D01*
X003361Y006111D01*
X003551Y006301D01*
X003551Y006351D01*
X004911Y007711D01*
X006431Y007711D01*
X006489Y007769D01*
X006489Y009018D01*
X006745Y009018D02*
X006745Y007625D01*
X006671Y007551D01*
X005051Y007551D01*
X003861Y006361D01*
X003861Y005361D01*
X003361Y004861D01*
X003361Y004111D01*
X003391Y004081D01*
X003391Y003711D01*
X004991Y002111D01*
X006911Y002111D01*
X007030Y001992D01*
X007030Y000898D01*
X007266Y000898D02*
X007266Y002235D01*
X007231Y002271D01*
X005451Y002271D01*
X003861Y003861D01*
X003861Y004861D01*
X004361Y005361D01*
X004361Y006111D01*
X004511Y006261D01*
X004511Y006351D01*
X005551Y007391D01*
X006831Y007391D01*
X007001Y007561D01*
X007001Y009018D01*
X007257Y009018D02*
X007257Y007417D01*
X007071Y007231D01*
X005731Y007231D01*
X004861Y006361D01*
X004861Y005361D01*
X004361Y004861D01*
X004361Y004111D01*
X004351Y004101D01*
X004351Y003711D01*
X005631Y002431D01*
X007391Y002431D01*
X007503Y002319D01*
X007503Y000898D01*
X007739Y000898D02*
X007739Y002483D01*
X007631Y002591D01*
X006031Y002591D01*
X004861Y003761D01*
X004861Y004861D01*
X005361Y005361D01*
X005361Y006111D01*
X006321Y007071D01*
X007151Y007071D01*
X007512Y007432D01*
X007512Y009018D01*
X007768Y009018D02*
X007768Y007448D01*
X007231Y006911D01*
X006411Y006911D01*
X005861Y006361D01*
X005861Y005361D01*
X005361Y004861D01*
X005361Y004111D01*
X005361Y003581D01*
X006191Y002751D01*
X007871Y002751D01*
X007975Y002647D01*
X007975Y000898D01*
X008211Y000898D02*
X008211Y002810D01*
X008111Y002911D01*
X006271Y002911D01*
X005861Y003321D01*
X005861Y004861D01*
X006361Y005361D01*
X006361Y006111D01*
X007001Y006751D01*
X007311Y006751D01*
X008024Y007464D01*
X008024Y009018D01*
X008280Y009018D02*
X008280Y007400D01*
X007471Y006591D01*
X007091Y006591D01*
X006861Y006361D01*
X006861Y005361D01*
X006361Y004861D01*
X006361Y004111D01*
X006361Y003861D01*
X006351Y003851D01*
X006351Y003231D01*
X006511Y003071D01*
X008351Y003071D01*
X008447Y002974D01*
X008447Y000898D01*
X008684Y000898D02*
X008684Y003058D01*
X008511Y003231D01*
X006991Y003231D01*
X006861Y003361D01*
X006861Y004861D01*
X007361Y005361D01*
X007361Y006111D01*
X007471Y006221D01*
X007471Y006271D01*
X008536Y007336D01*
X008536Y009018D01*
X008792Y009018D02*
X008792Y007292D01*
X007861Y006361D01*
X007861Y005361D01*
X007361Y004861D01*
X007361Y004111D01*
X007361Y003861D01*
X007391Y003831D01*
X007391Y003631D01*
X007631Y003391D01*
X008591Y003391D01*
X008920Y003062D01*
X008920Y000898D01*
X009156Y000898D02*
X009156Y003066D01*
X008671Y003551D01*
X008171Y003551D01*
X007861Y003861D01*
X007861Y004861D01*
X008361Y005361D01*
X008361Y006111D01*
X008591Y006341D01*
X008591Y006431D01*
X009048Y006888D01*
X009048Y009018D01*
X009304Y009018D02*
X009304Y006804D01*
X008861Y006361D01*
X008861Y005361D01*
X008361Y004861D01*
X008361Y004111D01*
X008361Y003861D01*
X008511Y003711D01*
X008751Y003711D01*
X009392Y003069D01*
X009392Y000898D01*
X009629Y000898D02*
X009629Y003093D01*
X008861Y003861D01*
X008861Y004861D01*
X009361Y005361D01*
X009361Y006111D01*
X009560Y006310D01*
X009560Y009018D01*
X009816Y009018D02*
X009816Y008086D01*
X009861Y008041D01*
X009861Y005361D01*
X009361Y004861D01*
X009361Y004111D01*
X009361Y003861D01*
X009865Y003357D01*
X009865Y000898D01*
X010101Y000898D02*
X010101Y003621D01*
X009861Y003861D01*
X009861Y004861D01*
X010361Y005361D01*
X010361Y006111D01*
X010351Y006121D01*
X010351Y007871D01*
X010071Y008150D01*
X010071Y009018D01*
X010327Y009018D02*
X010327Y008294D01*
X010861Y007761D01*
X010861Y005361D01*
X010361Y004861D01*
X010361Y004111D01*
X010337Y004087D01*
X010337Y000898D01*
X010573Y000898D02*
X010573Y003573D01*
X010861Y003861D01*
X010861Y004861D01*
X011361Y005361D01*
X011361Y006111D01*
X011311Y006161D01*
X011311Y007551D01*
X010583Y008278D01*
X010583Y009018D01*
X010839Y009018D02*
X010839Y008263D01*
X011861Y007241D01*
X011861Y005361D01*
X011361Y004861D01*
X011361Y004111D01*
X011071Y003821D01*
X011071Y003791D01*
X010810Y003530D01*
X010810Y000898D01*
X011046Y000898D02*
X011046Y003286D01*
X011391Y003631D01*
X011631Y003631D01*
X011861Y003861D01*
X011861Y004861D01*
X012361Y005361D01*
X012361Y006111D01*
X012351Y006121D01*
X012351Y007071D01*
X011095Y008327D01*
X011095Y009018D01*
X011351Y009018D02*
X011351Y008391D01*
X012861Y006881D01*
X012861Y005361D01*
X012361Y004861D01*
X012361Y004111D01*
X012361Y003861D01*
X011971Y003471D01*
X011471Y003471D01*
X011282Y003282D01*
X011282Y000898D01*
X011518Y000898D02*
X011518Y003198D01*
X011631Y003311D01*
X012311Y003311D01*
X012861Y003861D01*
X012861Y004861D01*
X013361Y005361D01*
X013361Y006111D01*
X013361Y006701D01*
X011607Y008455D01*
X011607Y009018D01*
X011863Y009018D02*
X011863Y008439D01*
X013311Y006991D01*
X013711Y006991D01*
X013861Y006841D01*
X013861Y005361D01*
X013361Y004861D01*
X013361Y004111D01*
X013361Y003861D01*
X012651Y003151D01*
X011871Y003151D01*
X011755Y003035D01*
X011755Y000898D01*
X011991Y000898D02*
X011991Y002871D01*
X012111Y002991D01*
X012991Y002991D01*
X013861Y003861D01*
X013861Y004861D01*
X014361Y005361D01*
X014361Y006111D01*
X014351Y006121D01*
X014351Y006991D01*
X014191Y007151D01*
X013391Y007151D01*
X012119Y008423D01*
X012119Y009018D01*
X012375Y009018D02*
X012375Y008407D01*
X013471Y007311D01*
X014751Y007311D01*
X014861Y007201D01*
X014861Y005361D01*
X014361Y004861D01*
X014361Y004111D01*
X014361Y003861D01*
X013331Y002831D01*
X012351Y002831D01*
X012227Y002707D01*
X012227Y000898D01*
X012463Y000898D02*
X012463Y002543D01*
X012591Y002671D01*
X013671Y002671D01*
X014861Y003861D01*
X014861Y004861D01*
X015361Y005361D01*
X015361Y006111D01*
X015311Y006161D01*
X015311Y007391D01*
X015231Y007471D01*
X013551Y007471D01*
X012631Y008391D01*
X012631Y009018D01*
X012886Y009018D02*
X012886Y008375D01*
X013631Y007631D01*
X015311Y007631D01*
X015861Y007081D01*
X015861Y005361D01*
X015361Y004861D01*
X015361Y004111D01*
X015361Y003861D01*
X014011Y002511D01*
X012831Y002511D01*
X012699Y002379D01*
X012699Y000898D01*
X012936Y000898D02*
X012936Y002216D01*
X013071Y002351D01*
X014351Y002351D01*
X015861Y003861D01*
X015861Y004861D01*
X016361Y005361D01*
X016361Y006111D01*
X016351Y006121D01*
X016351Y006831D01*
X015391Y007791D01*
X013711Y007791D01*
X013142Y008359D01*
X013142Y009018D01*
X013398Y009018D02*
X013398Y008343D01*
X013791Y007951D01*
X015551Y007951D01*
X016861Y006641D01*
X016861Y005361D01*
X016361Y004861D01*
X016361Y004111D01*
X016361Y003861D01*
X014691Y002191D01*
X013311Y002191D01*
X013172Y002052D01*
X013172Y000898D01*
X013408Y000898D02*
X013408Y001888D01*
X013551Y002031D01*
X015031Y002031D01*
X016861Y003861D01*
X016861Y004861D01*
X017361Y005361D01*
X017361Y006111D01*
X017311Y006161D01*
X017311Y006511D01*
X015711Y008111D01*
X013871Y008111D01*
X013654Y008328D01*
X013654Y009018D01*
X013910Y009018D02*
X013910Y008392D01*
X014031Y008271D01*
X015951Y008271D01*
X017861Y006361D01*
X017861Y005361D01*
X017361Y004861D01*
X017361Y004111D01*
X017361Y003861D01*
X015371Y001871D01*
X013791Y001871D01*
X013644Y001724D01*
X013644Y000898D01*
X011361Y003861D02*
X011361Y004111D01*
X011243Y010916D02*
X011243Y011963D01*
X012351Y013071D01*
X012351Y014101D01*
X012361Y014111D01*
X012361Y014861D01*
X012861Y015361D01*
X012861Y016361D01*
X012631Y016591D01*
X012111Y016591D01*
X010963Y017739D01*
X010963Y018865D01*
X010766Y018865D02*
X010766Y017705D01*
X012361Y016111D01*
X012361Y015361D01*
X011861Y014861D01*
X011861Y012821D01*
X010999Y011959D01*
X010999Y010916D01*
X010755Y010916D02*
X010755Y011955D01*
X011391Y012591D01*
X011391Y014081D01*
X011361Y014111D01*
X011361Y014861D01*
X011861Y015361D01*
X011861Y016361D01*
X010570Y017652D01*
X010570Y018865D01*
X010373Y018865D02*
X010373Y017609D01*
X011391Y016591D01*
X011391Y016141D01*
X011361Y016111D01*
X011361Y015361D01*
X010861Y014861D01*
X010861Y012741D01*
X010510Y012390D01*
X010510Y010916D01*
X010266Y010916D02*
X010266Y014016D01*
X010361Y014111D01*
X010361Y014861D01*
X010861Y015361D01*
X010861Y016841D01*
X010176Y017526D01*
X010176Y018865D01*
X009979Y018865D02*
X009979Y017443D01*
X010351Y017071D01*
X010351Y016121D01*
X010361Y016111D01*
X010361Y015361D01*
X009861Y014861D01*
X009861Y012661D01*
X010022Y012499D01*
X010022Y010916D01*
X009778Y010916D02*
X009778Y012444D01*
X009391Y012831D01*
X009391Y014081D01*
X009361Y014111D01*
X009361Y014861D01*
X009861Y015361D01*
X009861Y017321D01*
X009782Y017400D01*
X009782Y018865D01*
X009585Y018865D02*
X009585Y017345D01*
X009391Y017151D01*
X009391Y016351D01*
X009361Y016321D01*
X009361Y016111D01*
X009361Y015361D01*
X008861Y014861D01*
X008861Y013041D01*
X009534Y012368D01*
X009534Y010916D01*
X009290Y010916D02*
X009290Y012292D01*
X008351Y013231D01*
X008351Y014101D01*
X008361Y014111D01*
X008361Y014861D01*
X008861Y015361D01*
X008861Y016861D01*
X009388Y017388D01*
X009388Y018865D01*
X009192Y018865D02*
X009192Y017432D01*
X008351Y016591D01*
X008351Y016121D01*
X008361Y016111D01*
X008361Y015361D01*
X007861Y014861D01*
X007861Y013861D01*
X007871Y013851D01*
X007871Y013391D01*
X009046Y012216D01*
X009046Y010916D01*
X008802Y010916D02*
X008802Y012220D01*
X007391Y013631D01*
X007391Y014081D01*
X007361Y014111D01*
X007361Y014861D01*
X007861Y015361D01*
X007861Y016361D01*
X008995Y017495D01*
X008995Y018865D01*
X008798Y018865D02*
X008798Y017548D01*
X007361Y016111D01*
X007361Y015361D01*
X006861Y014861D01*
X006861Y013861D01*
X008558Y012164D01*
X008558Y010916D01*
X008314Y010916D02*
X008314Y012158D01*
X006361Y014111D01*
X006361Y014861D01*
X006861Y015361D01*
X006861Y016361D01*
X007091Y016591D01*
X007551Y016591D01*
X008601Y017641D01*
X008601Y018865D01*
X008404Y018865D02*
X008404Y017684D01*
X007471Y016751D01*
X006991Y016751D01*
X006671Y016431D01*
X006671Y016421D01*
X006361Y016111D01*
X006361Y015361D01*
X005861Y014861D01*
X005861Y013861D01*
X006091Y013631D01*
X006591Y013631D01*
X008070Y012152D01*
X008070Y010916D01*
X007825Y010916D02*
X007825Y012156D01*
X006511Y013471D01*
X006001Y013471D01*
X005361Y014111D01*
X005361Y014861D01*
X005861Y015361D01*
X005861Y016361D01*
X006091Y016591D01*
X006591Y016591D01*
X006911Y016911D01*
X007391Y016911D01*
X008207Y017727D01*
X008207Y018865D01*
X008010Y018865D02*
X008010Y017770D01*
X007311Y017071D01*
X006831Y017071D01*
X006511Y016751D01*
X006001Y016751D01*
X005361Y016111D01*
X005361Y015361D01*
X004861Y014861D01*
X004861Y013861D01*
X005411Y013311D01*
X006431Y013311D01*
X007581Y012160D01*
X007581Y010916D01*
X007337Y010916D02*
X007337Y012164D01*
X006351Y013151D01*
X005321Y013151D01*
X004361Y014111D01*
X004361Y014861D01*
X004861Y015361D01*
X004861Y016361D01*
X005091Y016591D01*
X005551Y016591D01*
X005871Y016911D01*
X006431Y016911D01*
X006751Y017231D01*
X007231Y017231D01*
X007814Y017814D01*
X007814Y018865D01*
X007617Y018865D02*
X007617Y017857D01*
X007151Y017391D01*
X006671Y017391D01*
X006351Y017071D01*
X005791Y017071D01*
X005471Y016751D01*
X005001Y016751D01*
X004361Y016111D01*
X004361Y015361D01*
X003861Y014861D01*
X003861Y013861D01*
X004731Y012991D01*
X006271Y012991D01*
X007093Y012169D01*
X007093Y010916D01*
X006849Y010916D02*
X006849Y012173D01*
X006191Y012831D01*
X004641Y012831D01*
X003361Y014111D01*
X003361Y014861D01*
X003861Y015361D01*
X003861Y016361D01*
X004091Y016591D01*
X004511Y016591D01*
X004831Y016911D01*
X005391Y016911D01*
X005711Y017231D01*
X006271Y017231D01*
X006591Y017551D01*
X007071Y017551D01*
X007420Y017900D01*
X007420Y018865D01*
X007223Y018865D02*
X007223Y017943D01*
X006991Y017711D01*
X006511Y017711D01*
X006191Y017391D01*
X005631Y017391D01*
X005311Y017071D01*
X004751Y017071D01*
X004431Y016751D01*
X004001Y016751D01*
X003361Y016111D01*
X003361Y015361D01*
X002861Y014861D01*
X002861Y013861D01*
X004051Y012671D01*
X006111Y012671D01*
X006605Y012177D01*
X006605Y010916D01*
X006361Y010916D02*
X006361Y012181D01*
X006031Y012511D01*
X003961Y012511D01*
X002361Y014111D01*
X002361Y014861D01*
X002861Y015361D01*
X002861Y016361D01*
X003091Y016591D01*
X003551Y016591D01*
X003871Y016911D01*
X004351Y016911D01*
X004671Y017231D01*
X005231Y017231D01*
X005551Y017551D01*
X006111Y017551D01*
X006431Y017871D01*
X006911Y017871D01*
X007026Y017986D01*
X007026Y018865D01*
X006829Y018865D02*
X006829Y018109D01*
X006751Y018031D01*
X006351Y018031D01*
X006031Y017711D01*
X005471Y017711D01*
X005151Y017391D01*
X004591Y017391D01*
X004271Y017071D01*
X003791Y017071D01*
X003471Y016751D01*
X003001Y016751D01*
X002361Y016111D01*
X002361Y015361D01*
X001861Y014861D01*
X001861Y013861D01*
X003371Y012351D01*
X005951Y012351D01*
X006117Y012185D01*
X006117Y010916D01*
X011487Y010916D02*
X011487Y011967D01*
X012861Y013341D01*
X012861Y014861D01*
X013361Y015361D01*
X013361Y016111D01*
X013071Y016401D01*
X013071Y016431D01*
X012751Y016751D01*
X012191Y016751D01*
X011160Y017782D01*
X011160Y018865D01*
X011357Y018865D02*
X011357Y017825D01*
X012271Y016911D01*
X012911Y016911D01*
X013231Y016591D01*
X013631Y016591D01*
X013861Y016361D01*
X013861Y015361D01*
X013361Y014861D01*
X013361Y014111D01*
X013391Y014081D01*
X013391Y013631D01*
X011731Y011971D01*
X011731Y010916D01*
X011975Y010916D02*
X011975Y011975D01*
X013391Y013391D01*
X013631Y013391D01*
X013861Y013621D01*
X013861Y014861D01*
X014361Y015361D01*
X014361Y016111D01*
X013881Y016591D01*
X013871Y016591D01*
X013711Y016751D01*
X013311Y016751D01*
X012991Y017071D01*
X012351Y017071D01*
X011554Y017868D01*
X011554Y018865D01*
X011751Y018865D02*
X011751Y017911D01*
X012431Y017231D01*
X013071Y017231D01*
X013391Y016911D01*
X013791Y016911D01*
X014111Y016591D01*
X014631Y016591D01*
X014861Y016361D01*
X014861Y015361D01*
X014361Y014861D01*
X014361Y014111D01*
X014351Y014101D01*
X014351Y013391D01*
X014191Y013231D01*
X013471Y013231D01*
X012219Y011979D01*
X012219Y010916D01*
X012463Y010916D02*
X012463Y011983D01*
X013551Y013071D01*
X014671Y013071D01*
X014861Y013261D01*
X014861Y014861D01*
X015361Y015361D01*
X015361Y016111D01*
X014911Y016561D01*
X014911Y016591D01*
X014751Y016751D01*
X014191Y016751D01*
X013871Y017071D01*
X013471Y017071D01*
X013151Y017391D01*
X012511Y017391D01*
X011947Y017954D01*
X011947Y018865D01*
X012144Y018865D02*
X012144Y017997D01*
X012591Y017551D01*
X013231Y017551D01*
X013551Y017231D01*
X013951Y017231D01*
X014271Y016911D01*
X014911Y016911D01*
X015231Y016591D01*
X015631Y016591D01*
X015861Y016361D01*
X015861Y015361D01*
X015361Y014861D01*
X015361Y014111D01*
X015391Y014081D01*
X015391Y013231D01*
X015071Y012911D01*
X013631Y012911D01*
X012707Y011987D01*
X012707Y010916D01*
X012951Y010916D02*
X012951Y011991D01*
X013711Y012751D01*
X015151Y012751D01*
X015861Y013461D01*
X015861Y014861D01*
X016361Y015361D01*
X016361Y016111D01*
X015721Y016751D01*
X015311Y016751D01*
X014991Y017071D01*
X014351Y017071D01*
X014031Y017391D01*
X013631Y017391D01*
X013311Y017711D01*
X012671Y017711D01*
X012341Y018041D01*
X012341Y018865D01*
X012538Y018865D02*
X012538Y018084D01*
X012751Y017871D01*
X013391Y017871D01*
X013711Y017551D01*
X014111Y017551D01*
X014431Y017231D01*
X015071Y017231D01*
X015391Y016911D01*
X015791Y016911D01*
X016111Y016591D01*
X016631Y016591D01*
X016861Y016361D01*
X016861Y015361D01*
X016361Y014861D01*
X016361Y014111D01*
X016351Y014101D01*
X016351Y013631D01*
X015311Y012591D01*
X013791Y012591D01*
X013196Y011996D01*
X013196Y010916D01*
X013440Y010916D02*
X013440Y012000D01*
X013871Y012431D01*
X015431Y012431D01*
X016861Y013861D01*
X016861Y014861D01*
X017361Y015361D01*
X017361Y016111D01*
X016721Y016751D01*
X016191Y016751D01*
X015871Y017071D01*
X015471Y017071D01*
X015151Y017391D01*
X014511Y017391D01*
X014191Y017711D01*
X013791Y017711D01*
X013471Y018031D01*
X012831Y018031D01*
X012735Y018127D01*
X012735Y018865D01*
X012932Y018865D02*
X012932Y018250D01*
X012991Y018191D01*
X013551Y018191D01*
X013871Y017871D01*
X014271Y017871D01*
X014591Y017551D01*
X015231Y017551D01*
X015551Y017231D01*
X015951Y017231D01*
X016271Y016911D01*
X016831Y016911D01*
X017151Y016591D01*
X017631Y016591D01*
X017861Y016361D01*
X017861Y015361D01*
X017361Y014861D01*
X017361Y014111D01*
X015521Y012271D01*
X013951Y012271D01*
X013684Y012004D01*
X013684Y010916D01*
M02*
