G75*
G70*
%OFA0B0*%
%FSLAX24Y24*%
%IPPOS*%
%LPD*%
%AMOC8*
5,1,8,0,0,1.08239X$1,22.5*
%
%ADD10C,0.0040*%
%ADD11C,0.0000*%
%ADD12C,0.0004*%
%ADD13C,0.0030*%
%ADD14R,0.0010X0.4410*%
%ADD15R,0.0010X0.0540*%
%ADD16R,0.0010X0.3670*%
%ADD17R,0.0010X0.0500*%
%ADD18R,0.0010X0.0440*%
%ADD19R,0.0010X0.0310*%
%ADD20R,0.0010X0.0190*%
%ADD21R,0.0010X0.1370*%
%ADD22R,0.0010X0.0470*%
%ADD23R,0.0010X0.0380*%
%ADD24R,0.0010X0.0070*%
%ADD25R,0.0010X0.0100*%
%ADD26R,0.0010X0.0610*%
%ADD27R,0.0010X0.0420*%
%ADD28R,0.0010X0.0450*%
%ADD29R,0.0010X0.0350*%
%ADD30R,0.0010X0.0570*%
%ADD31R,0.0010X0.0430*%
%ADD32R,0.0010X0.0320*%
%ADD33R,0.0010X0.0410*%
%ADD34R,0.0010X0.0520*%
%ADD35R,0.0010X0.0390*%
%ADD36R,0.0010X0.0290*%
%ADD37R,0.0010X0.0090*%
%ADD38R,0.0010X0.0280*%
%ADD39R,0.0010X0.0480*%
%ADD40R,0.0010X0.0370*%
%ADD41R,0.0010X0.0260*%
%ADD42R,0.0010X0.0060*%
%ADD43R,0.0010X0.0250*%
%ADD44R,0.0010X0.0460*%
%ADD45R,0.0010X0.0340*%
%ADD46R,0.0010X0.0240*%
%ADD47R,0.0010X0.0330*%
%ADD48R,0.0010X0.0230*%
%ADD49R,0.0010X0.0220*%
%ADD50R,0.0010X0.0210*%
%ADD51R,0.0010X0.0080*%
%ADD52R,0.0010X0.0300*%
%ADD53R,0.0010X0.0200*%
%ADD54R,0.0010X0.0400*%
%ADD55R,0.0010X0.0180*%
%ADD56R,0.0010X0.0270*%
%ADD57R,0.0010X0.0170*%
%ADD58R,0.0010X0.0160*%
%ADD59R,0.0010X0.0050*%
%ADD60R,0.0010X0.0360*%
%ADD61R,0.0010X0.0150*%
%ADD62R,0.0010X0.0040*%
%ADD63R,0.0010X0.0130*%
%ADD64R,0.0010X0.0140*%
%ADD65R,0.0010X0.0120*%
%ADD66R,0.0010X0.0110*%
%ADD67R,0.0010X0.0010*%
%ADD68R,0.0010X0.0030*%
%ADD69R,0.0010X0.3630*%
%ADD70C,0.0050*%
%ADD71C,0.0223*%
%ADD72C,0.0352*%
%ADD73C,0.0059*%
D10*
X003255Y001961D02*
X003255Y002191D01*
X003409Y002191D02*
X003409Y001961D01*
X003332Y001884D01*
X003255Y001961D01*
X003409Y001961D02*
X003486Y001884D01*
X003562Y001884D01*
X003562Y002191D01*
X003716Y002114D02*
X003716Y001961D01*
X003793Y001884D01*
X003946Y001884D01*
X004023Y001961D01*
X004023Y002114D01*
X003946Y002191D01*
X003793Y002191D01*
X003716Y002114D01*
X004176Y002191D02*
X004406Y002191D01*
X004483Y002114D01*
X004483Y001961D01*
X004406Y001884D01*
X004176Y001884D01*
X004636Y002114D02*
X004636Y002191D01*
X004713Y002191D01*
X004713Y002114D01*
X004636Y002114D01*
X004867Y002114D02*
X004943Y002191D01*
X005174Y002191D01*
X005327Y002114D02*
X005327Y001961D01*
X005404Y001884D01*
X005634Y001884D01*
X005634Y001731D02*
X005634Y002191D01*
X005404Y002191D01*
X005327Y002114D01*
X005174Y001961D02*
X005097Y001884D01*
X004867Y001884D01*
X004943Y002037D02*
X005097Y002037D01*
X005174Y001961D01*
X004943Y002037D02*
X004867Y002114D01*
X005787Y002037D02*
X006018Y002037D01*
X006094Y002114D01*
X006018Y002191D01*
X005787Y002191D01*
X005787Y001961D01*
X005864Y001884D01*
X006018Y001884D01*
X006248Y002191D02*
X006555Y002191D01*
X006555Y001731D01*
X006708Y001961D02*
X006708Y002191D01*
X006862Y002191D02*
X006862Y001961D01*
X006785Y001884D01*
X006708Y001961D01*
X006862Y001961D02*
X006938Y001884D01*
X007015Y001884D01*
X007015Y002191D01*
X007168Y002114D02*
X007168Y001961D01*
X007245Y001884D01*
X007399Y001884D01*
X007475Y001961D01*
X007475Y002114D01*
X007399Y002191D01*
X007245Y002191D01*
X007168Y002114D01*
X007629Y002114D02*
X007629Y001961D01*
X007706Y001884D01*
X007859Y001884D01*
X007936Y001961D01*
X007936Y002114D01*
X007859Y002191D01*
X007706Y002191D01*
X007629Y002114D01*
X008089Y002191D02*
X008243Y002037D01*
X008166Y002037D02*
X008396Y002037D01*
X008396Y002191D02*
X008396Y001731D01*
X008166Y001731D01*
X008089Y001807D01*
X008089Y001961D01*
X008166Y002037D01*
X008549Y002191D02*
X008703Y002191D01*
X008626Y002191D02*
X008626Y001731D01*
X008703Y001731D01*
X008933Y001731D02*
X008933Y002191D01*
X009010Y002191D02*
X008856Y002191D01*
X009163Y002191D02*
X009163Y001961D01*
X009240Y001884D01*
X009393Y001884D01*
X009393Y002037D02*
X009163Y002037D01*
X009163Y002191D02*
X009393Y002191D01*
X009470Y002114D01*
X009393Y002037D01*
X009624Y001961D02*
X009624Y002191D01*
X009777Y002191D02*
X009777Y001961D01*
X009700Y001884D01*
X009624Y001961D01*
X009777Y001961D02*
X009854Y001884D01*
X009931Y001884D01*
X009931Y002191D01*
X010084Y002114D02*
X010161Y002191D01*
X010314Y002191D01*
X010391Y002114D01*
X010314Y001961D02*
X010161Y001961D01*
X010084Y002037D01*
X010084Y002114D01*
X010314Y001961D02*
X010391Y001884D01*
X010391Y001807D01*
X010314Y001731D01*
X010161Y001731D01*
X010084Y001807D01*
X009010Y001731D02*
X008933Y001731D01*
X013612Y001911D02*
X013612Y002141D01*
X013766Y002141D02*
X013766Y001911D01*
X013689Y001834D01*
X013612Y001911D01*
X013766Y001911D02*
X013843Y001834D01*
X013919Y001834D01*
X013919Y002141D01*
X014073Y002141D02*
X014073Y001911D01*
X014149Y001834D01*
X014226Y001911D01*
X014226Y002141D01*
X014380Y002141D02*
X014380Y001834D01*
X014303Y001834D01*
X014226Y001911D01*
X014533Y001911D02*
X014533Y002064D01*
X014610Y002141D01*
X014763Y002141D01*
X014840Y002064D01*
X014840Y001911D02*
X014687Y001834D01*
X014610Y001834D01*
X014533Y001911D01*
X014533Y001681D02*
X014840Y001681D01*
X014840Y001911D01*
X014993Y001987D02*
X014993Y002064D01*
X015070Y002141D01*
X015224Y002141D01*
X015300Y002064D01*
X015300Y001911D01*
X015070Y001911D01*
X014993Y001987D01*
X015147Y001757D02*
X014993Y001681D01*
X015147Y001757D02*
X015300Y001911D01*
X015454Y002064D02*
X015454Y002141D01*
X015531Y002141D01*
X015531Y002064D01*
X015454Y002064D01*
X015684Y002064D02*
X015761Y002141D01*
X015914Y002141D01*
X015991Y002064D01*
X015684Y001757D01*
X015684Y002064D01*
X015684Y001757D02*
X015761Y001681D01*
X015914Y001681D01*
X015991Y001757D01*
X015991Y002064D01*
X015979Y007631D02*
X015826Y007631D01*
X015749Y007708D01*
X015749Y007861D01*
X015826Y007938D01*
X015979Y007938D01*
X016056Y007861D01*
X016056Y007708D01*
X015979Y007631D01*
X016209Y007631D02*
X016209Y007938D01*
X016286Y007938D01*
X016363Y007861D01*
X016440Y007938D01*
X016516Y007861D01*
X016516Y007631D01*
X016363Y007631D02*
X016363Y007861D01*
X015596Y007938D02*
X015365Y007938D01*
X015289Y007861D01*
X015289Y007708D01*
X015365Y007631D01*
X015596Y007631D01*
X015135Y007631D02*
X015059Y007631D01*
X015059Y007708D01*
X015135Y007708D01*
X015135Y007631D01*
X014905Y007708D02*
X014828Y007784D01*
X014675Y007784D01*
X014598Y007861D01*
X014675Y007938D01*
X014905Y007938D01*
X014905Y007708D02*
X014828Y007631D01*
X014598Y007631D01*
X014445Y007708D02*
X014445Y007861D01*
X014368Y007938D01*
X014138Y007938D01*
X014138Y008091D02*
X014138Y007631D01*
X014368Y007631D01*
X014445Y007708D01*
X013984Y007784D02*
X013754Y007784D01*
X013677Y007708D01*
X013754Y007631D01*
X013984Y007631D01*
X013984Y007861D01*
X013908Y007938D01*
X013754Y007938D01*
X013524Y007631D02*
X013217Y007631D01*
X013217Y008091D01*
X013064Y007861D02*
X013064Y007631D01*
X012910Y007631D02*
X012910Y007861D01*
X012987Y007938D01*
X013064Y007861D01*
X012910Y007861D02*
X012833Y007938D01*
X012757Y007938D01*
X012757Y007631D01*
X012603Y007708D02*
X012603Y007861D01*
X012527Y007938D01*
X012373Y007938D01*
X012296Y007861D01*
X012296Y007708D01*
X012373Y007631D01*
X012527Y007631D01*
X012603Y007708D01*
X012143Y007708D02*
X012143Y007861D01*
X012066Y007938D01*
X011913Y007938D01*
X011836Y007861D01*
X011836Y007708D01*
X011913Y007631D01*
X012066Y007631D01*
X012143Y007708D01*
X011683Y007631D02*
X011529Y007784D01*
X011606Y007784D02*
X011376Y007784D01*
X011376Y007631D02*
X011376Y008091D01*
X011606Y008091D01*
X011683Y008014D01*
X011683Y007861D01*
X011606Y007784D01*
X011222Y007631D02*
X011069Y007631D01*
X011146Y007631D02*
X011146Y008091D01*
X011069Y008091D01*
X010839Y008091D02*
X010839Y007631D01*
X010915Y007631D02*
X010762Y007631D01*
X010608Y007631D02*
X010608Y007861D01*
X010532Y007938D01*
X010378Y007938D01*
X010378Y007784D02*
X010608Y007784D01*
X010608Y007631D02*
X010378Y007631D01*
X010302Y007708D01*
X010378Y007784D01*
X010148Y007861D02*
X010148Y007631D01*
X009995Y007631D02*
X009995Y007861D01*
X010071Y007938D01*
X010148Y007861D01*
X009995Y007861D02*
X009918Y007938D01*
X009841Y007938D01*
X009841Y007631D01*
X009688Y007708D02*
X009688Y007784D01*
X009611Y007861D01*
X009458Y007861D01*
X009381Y007938D01*
X009381Y008014D01*
X009458Y008091D01*
X009611Y008091D01*
X009688Y008014D01*
X009688Y007708D02*
X009611Y007631D01*
X009458Y007631D01*
X009381Y007708D01*
X010762Y008091D02*
X010839Y008091D01*
X010664Y011731D02*
X010511Y011731D01*
X010434Y011807D01*
X010281Y011884D02*
X010204Y011884D01*
X010127Y011961D01*
X010050Y011884D01*
X009974Y011961D01*
X009974Y012191D01*
X010127Y012191D02*
X010127Y011961D01*
X010281Y011884D02*
X010281Y012191D01*
X010434Y012114D02*
X010511Y012191D01*
X010664Y012191D01*
X010741Y012114D01*
X010664Y011961D02*
X010511Y011961D01*
X010434Y012037D01*
X010434Y012114D01*
X010664Y011961D02*
X010741Y011884D01*
X010741Y011807D01*
X010664Y011731D01*
X009820Y012114D02*
X009743Y012037D01*
X009513Y012037D01*
X009513Y011961D02*
X009513Y012191D01*
X009743Y012191D01*
X009820Y012114D01*
X009743Y011884D02*
X009590Y011884D01*
X009513Y011961D01*
X009360Y012191D02*
X009206Y012191D01*
X009283Y012191D02*
X009283Y011731D01*
X009360Y011731D01*
X009053Y011731D02*
X008976Y011731D01*
X008976Y012191D01*
X009053Y012191D02*
X008899Y012191D01*
X008746Y012191D02*
X008746Y011731D01*
X008516Y011731D01*
X008439Y011807D01*
X008439Y011961D01*
X008516Y012037D01*
X008746Y012037D01*
X008593Y012037D02*
X008439Y012191D01*
X008286Y012114D02*
X008209Y012191D01*
X008056Y012191D01*
X007979Y012114D01*
X007979Y011961D01*
X008056Y011884D01*
X008209Y011884D01*
X008286Y011961D01*
X008286Y012114D01*
X007825Y012114D02*
X007749Y012191D01*
X007595Y012191D01*
X007518Y012114D01*
X007518Y011961D01*
X007595Y011884D01*
X007749Y011884D01*
X007825Y011961D01*
X007825Y012114D01*
X007365Y012191D02*
X007365Y011884D01*
X007288Y011884D01*
X007212Y011961D01*
X007135Y011884D01*
X007058Y011961D01*
X007058Y012191D01*
X006905Y012191D02*
X006598Y012191D01*
X006444Y012114D02*
X006368Y012037D01*
X006137Y012037D01*
X006137Y011961D02*
X006137Y012191D01*
X006368Y012191D01*
X006444Y012114D01*
X006368Y011884D02*
X006214Y011884D01*
X006137Y011961D01*
X005984Y011884D02*
X005754Y011884D01*
X005677Y011961D01*
X005677Y012114D01*
X005754Y012191D01*
X005984Y012191D01*
X005984Y011731D01*
X005524Y011961D02*
X005447Y011884D01*
X005217Y011884D01*
X005293Y012037D02*
X005447Y012037D01*
X005524Y011961D01*
X005524Y012191D02*
X005293Y012191D01*
X005217Y012114D01*
X005293Y012037D01*
X005063Y012114D02*
X005063Y012191D01*
X004986Y012191D01*
X004986Y012114D01*
X005063Y012114D01*
X004833Y012114D02*
X004756Y012191D01*
X004526Y012191D01*
X004373Y012114D02*
X004296Y012191D01*
X004143Y012191D01*
X004066Y012114D01*
X004066Y011961D01*
X004143Y011884D01*
X004296Y011884D01*
X004373Y011961D01*
X004373Y012114D01*
X004526Y011884D02*
X004756Y011884D01*
X004833Y011961D01*
X004833Y012114D01*
X003912Y012191D02*
X003912Y011884D01*
X003836Y011884D01*
X003759Y011961D01*
X003682Y011884D01*
X003605Y011961D01*
X003605Y012191D01*
X003759Y012191D02*
X003759Y011961D01*
X006905Y011731D02*
X006905Y012191D01*
X007212Y012191D02*
X007212Y011961D01*
X005087Y008166D02*
X004933Y008166D01*
X004857Y008089D01*
X004857Y007783D01*
X005164Y008089D01*
X005164Y007783D01*
X005087Y007706D01*
X004933Y007706D01*
X004857Y007783D01*
X004703Y007783D02*
X004627Y007706D01*
X004473Y007706D01*
X004396Y007783D01*
X004396Y007936D01*
X004627Y007936D01*
X004703Y007859D01*
X004703Y007783D01*
X004550Y008089D02*
X004396Y007936D01*
X004243Y007783D02*
X004243Y007706D01*
X004166Y007706D01*
X004166Y007783D01*
X004243Y007783D01*
X004013Y007783D02*
X004013Y008089D01*
X003706Y007783D01*
X003783Y007706D01*
X003936Y007706D01*
X004013Y007783D01*
X004013Y008089D02*
X003936Y008166D01*
X003783Y008166D01*
X003706Y008089D01*
X003706Y007783D01*
X004550Y008089D02*
X004703Y008166D01*
X005087Y008166D02*
X005164Y008089D01*
X005317Y008013D02*
X005394Y008013D01*
X005471Y007936D01*
X005547Y008013D01*
X005624Y007936D01*
X005624Y007706D01*
X005777Y007706D02*
X005777Y008013D01*
X005854Y008013D01*
X005931Y007936D01*
X006008Y008013D01*
X006084Y007936D01*
X006084Y007706D01*
X005931Y007706D02*
X005931Y007936D01*
X005471Y007936D02*
X005471Y007706D01*
X005317Y007706D02*
X005317Y008013D01*
X014112Y011911D02*
X014112Y012141D01*
X014266Y012141D02*
X014266Y011911D01*
X014189Y011834D01*
X014112Y011911D01*
X014266Y011911D02*
X014343Y011834D01*
X014419Y011834D01*
X014419Y012141D01*
X014573Y012141D02*
X014573Y011911D01*
X014649Y011834D01*
X014726Y011911D01*
X014726Y012141D01*
X014880Y012141D02*
X014880Y011834D01*
X014803Y011834D01*
X014726Y011911D01*
X015033Y011834D02*
X015033Y011757D01*
X015110Y011681D01*
X015263Y011681D01*
X015340Y011757D01*
X015493Y011681D02*
X015647Y011757D01*
X015800Y011911D01*
X015570Y011911D01*
X015493Y011987D01*
X015493Y012064D01*
X015570Y012141D01*
X015724Y012141D01*
X015800Y012064D01*
X015800Y011911D01*
X015954Y012064D02*
X015954Y012141D01*
X016031Y012141D01*
X016031Y012064D01*
X015954Y012064D01*
X016184Y012064D02*
X016184Y011757D01*
X016491Y012064D01*
X016414Y012141D01*
X016261Y012141D01*
X016184Y012064D01*
X016184Y011757D02*
X016261Y011681D01*
X016414Y011681D01*
X016491Y011757D01*
X016491Y012064D01*
X015340Y012141D02*
X015033Y011834D01*
X015033Y012141D02*
X015340Y012141D01*
X015235Y017581D02*
X015159Y017581D01*
X015159Y017658D01*
X015235Y017658D01*
X015235Y017581D01*
X015389Y017658D02*
X015389Y017811D01*
X015465Y017888D01*
X015696Y017888D01*
X015849Y017811D02*
X015849Y017658D01*
X015926Y017581D01*
X016079Y017581D01*
X016156Y017658D01*
X016156Y017811D01*
X016079Y017888D01*
X015926Y017888D01*
X015849Y017811D01*
X015696Y017581D02*
X015465Y017581D01*
X015389Y017658D01*
X015005Y017658D02*
X014928Y017734D01*
X014775Y017734D01*
X014698Y017811D01*
X014775Y017888D01*
X015005Y017888D01*
X015005Y017658D02*
X014928Y017581D01*
X014698Y017581D01*
X014545Y017658D02*
X014545Y017811D01*
X014468Y017888D01*
X014238Y017888D01*
X014238Y018041D02*
X014238Y017581D01*
X014468Y017581D01*
X014545Y017658D01*
X014084Y017734D02*
X013854Y017734D01*
X013777Y017658D01*
X013854Y017581D01*
X014084Y017581D01*
X014084Y017811D01*
X014008Y017888D01*
X013854Y017888D01*
X013624Y017581D02*
X013317Y017581D01*
X013317Y018041D01*
X013087Y017888D02*
X013164Y017811D01*
X013164Y017581D01*
X013010Y017581D02*
X013010Y017811D01*
X013087Y017888D01*
X013010Y017811D02*
X012933Y017888D01*
X012857Y017888D01*
X012857Y017581D01*
X012703Y017658D02*
X012703Y017811D01*
X012627Y017888D01*
X012473Y017888D01*
X012396Y017811D01*
X012396Y017658D01*
X012473Y017581D01*
X012627Y017581D01*
X012703Y017658D01*
X012243Y017658D02*
X012243Y017811D01*
X012166Y017888D01*
X012013Y017888D01*
X011936Y017811D01*
X011936Y017658D01*
X012013Y017581D01*
X012166Y017581D01*
X012243Y017658D01*
X011783Y017581D02*
X011629Y017734D01*
X011706Y017734D02*
X011476Y017734D01*
X011476Y017581D02*
X011476Y018041D01*
X011706Y018041D01*
X011783Y017964D01*
X011783Y017811D01*
X011706Y017734D01*
X011322Y017581D02*
X011169Y017581D01*
X011246Y017581D02*
X011246Y018041D01*
X011169Y018041D01*
X010939Y018041D02*
X010939Y017581D01*
X011015Y017581D02*
X010862Y017581D01*
X010708Y017581D02*
X010708Y017811D01*
X010632Y017888D01*
X010478Y017888D01*
X010478Y017734D02*
X010708Y017734D01*
X010708Y017581D02*
X010478Y017581D01*
X010402Y017658D01*
X010478Y017734D01*
X010248Y017811D02*
X010248Y017581D01*
X010095Y017581D02*
X010095Y017811D01*
X010171Y017888D01*
X010248Y017811D01*
X010095Y017811D02*
X010018Y017888D01*
X009941Y017888D01*
X009941Y017581D01*
X009788Y017658D02*
X009711Y017581D01*
X009558Y017581D01*
X009481Y017658D01*
X009558Y017811D02*
X009481Y017888D01*
X009481Y017964D01*
X009558Y018041D01*
X009711Y018041D01*
X009788Y017964D01*
X009711Y017811D02*
X009788Y017734D01*
X009788Y017658D01*
X009711Y017811D02*
X009558Y017811D01*
X010862Y018041D02*
X010939Y018041D01*
X006009Y017861D02*
X006009Y017631D01*
X005856Y017631D02*
X005856Y017861D01*
X005933Y017938D01*
X006009Y017861D01*
X005856Y017861D02*
X005779Y017938D01*
X005702Y017938D01*
X005702Y017631D01*
X005549Y017631D02*
X005549Y017861D01*
X005472Y017938D01*
X005396Y017861D01*
X005396Y017631D01*
X005242Y017631D02*
X005242Y017938D01*
X005319Y017938D01*
X005396Y017861D01*
X005089Y017708D02*
X005012Y017631D01*
X004858Y017631D01*
X004782Y017708D01*
X005089Y018014D01*
X005089Y017708D01*
X004782Y017708D02*
X004782Y018014D01*
X004858Y018091D01*
X005012Y018091D01*
X005089Y018014D01*
X004628Y018091D02*
X004321Y018091D01*
X004321Y017861D01*
X004475Y017938D01*
X004552Y017938D01*
X004628Y017861D01*
X004628Y017708D01*
X004552Y017631D01*
X004398Y017631D01*
X004321Y017708D01*
X004168Y017708D02*
X004168Y017631D01*
X004091Y017631D01*
X004091Y017708D01*
X004168Y017708D01*
X003938Y017708D02*
X003861Y017631D01*
X003708Y017631D01*
X003631Y017708D01*
X003938Y018014D01*
X003938Y017708D01*
X003631Y017708D02*
X003631Y018014D01*
X003708Y018091D01*
X003861Y018091D01*
X003938Y018014D01*
X016309Y017888D02*
X016309Y017581D01*
X016463Y017581D02*
X016463Y017811D01*
X016540Y017888D01*
X016616Y017811D01*
X016616Y017581D01*
X016463Y017811D02*
X016386Y017888D01*
X016309Y017888D01*
D11*
X001056Y001686D02*
X001058Y001736D01*
X001064Y001786D01*
X001074Y001835D01*
X001088Y001883D01*
X001105Y001930D01*
X001126Y001975D01*
X001151Y002019D01*
X001179Y002060D01*
X001211Y002099D01*
X001245Y002136D01*
X001282Y002170D01*
X001322Y002200D01*
X001364Y002227D01*
X001408Y002251D01*
X001454Y002272D01*
X001501Y002288D01*
X001549Y002301D01*
X001599Y002310D01*
X001648Y002315D01*
X001699Y002316D01*
X001749Y002313D01*
X001798Y002306D01*
X001847Y002295D01*
X001895Y002280D01*
X001941Y002262D01*
X001986Y002240D01*
X002029Y002214D01*
X002070Y002185D01*
X002109Y002153D01*
X002145Y002118D01*
X002177Y002080D01*
X002207Y002040D01*
X002234Y001997D01*
X002257Y001953D01*
X002276Y001907D01*
X002292Y001859D01*
X002304Y001810D01*
X002312Y001761D01*
X002316Y001711D01*
X002316Y001661D01*
X002312Y001611D01*
X002304Y001562D01*
X002292Y001513D01*
X002276Y001465D01*
X002257Y001419D01*
X002234Y001375D01*
X002207Y001332D01*
X002177Y001292D01*
X002145Y001254D01*
X002109Y001219D01*
X002070Y001187D01*
X002029Y001158D01*
X001986Y001132D01*
X001941Y001110D01*
X001895Y001092D01*
X001847Y001077D01*
X001798Y001066D01*
X001749Y001059D01*
X001699Y001056D01*
X001648Y001057D01*
X001599Y001062D01*
X001549Y001071D01*
X001501Y001084D01*
X001454Y001100D01*
X001408Y001121D01*
X001364Y001145D01*
X001322Y001172D01*
X001282Y001202D01*
X001245Y001236D01*
X001211Y001273D01*
X001179Y001312D01*
X001151Y001353D01*
X001126Y001397D01*
X001105Y001442D01*
X001088Y001489D01*
X001074Y001537D01*
X001064Y001586D01*
X001058Y001636D01*
X001056Y001686D01*
X001056Y008379D02*
X001058Y008429D01*
X001064Y008479D01*
X001074Y008528D01*
X001088Y008576D01*
X001105Y008623D01*
X001126Y008668D01*
X001151Y008712D01*
X001179Y008753D01*
X001211Y008792D01*
X001245Y008829D01*
X001282Y008863D01*
X001322Y008893D01*
X001364Y008920D01*
X001408Y008944D01*
X001454Y008965D01*
X001501Y008981D01*
X001549Y008994D01*
X001599Y009003D01*
X001648Y009008D01*
X001699Y009009D01*
X001749Y009006D01*
X001798Y008999D01*
X001847Y008988D01*
X001895Y008973D01*
X001941Y008955D01*
X001986Y008933D01*
X002029Y008907D01*
X002070Y008878D01*
X002109Y008846D01*
X002145Y008811D01*
X002177Y008773D01*
X002207Y008733D01*
X002234Y008690D01*
X002257Y008646D01*
X002276Y008600D01*
X002292Y008552D01*
X002304Y008503D01*
X002312Y008454D01*
X002316Y008404D01*
X002316Y008354D01*
X002312Y008304D01*
X002304Y008255D01*
X002292Y008206D01*
X002276Y008158D01*
X002257Y008112D01*
X002234Y008068D01*
X002207Y008025D01*
X002177Y007985D01*
X002145Y007947D01*
X002109Y007912D01*
X002070Y007880D01*
X002029Y007851D01*
X001986Y007825D01*
X001941Y007803D01*
X001895Y007785D01*
X001847Y007770D01*
X001798Y007759D01*
X001749Y007752D01*
X001699Y007749D01*
X001648Y007750D01*
X001599Y007755D01*
X001549Y007764D01*
X001501Y007777D01*
X001454Y007793D01*
X001408Y007814D01*
X001364Y007838D01*
X001322Y007865D01*
X001282Y007895D01*
X001245Y007929D01*
X001211Y007966D01*
X001179Y008005D01*
X001151Y008046D01*
X001126Y008090D01*
X001105Y008135D01*
X001088Y008182D01*
X001074Y008230D01*
X001064Y008279D01*
X001058Y008329D01*
X001056Y008379D01*
X001056Y011528D02*
X001058Y011578D01*
X001064Y011628D01*
X001074Y011677D01*
X001088Y011725D01*
X001105Y011772D01*
X001126Y011817D01*
X001151Y011861D01*
X001179Y011902D01*
X001211Y011941D01*
X001245Y011978D01*
X001282Y012012D01*
X001322Y012042D01*
X001364Y012069D01*
X001408Y012093D01*
X001454Y012114D01*
X001501Y012130D01*
X001549Y012143D01*
X001599Y012152D01*
X001648Y012157D01*
X001699Y012158D01*
X001749Y012155D01*
X001798Y012148D01*
X001847Y012137D01*
X001895Y012122D01*
X001941Y012104D01*
X001986Y012082D01*
X002029Y012056D01*
X002070Y012027D01*
X002109Y011995D01*
X002145Y011960D01*
X002177Y011922D01*
X002207Y011882D01*
X002234Y011839D01*
X002257Y011795D01*
X002276Y011749D01*
X002292Y011701D01*
X002304Y011652D01*
X002312Y011603D01*
X002316Y011553D01*
X002316Y011503D01*
X002312Y011453D01*
X002304Y011404D01*
X002292Y011355D01*
X002276Y011307D01*
X002257Y011261D01*
X002234Y011217D01*
X002207Y011174D01*
X002177Y011134D01*
X002145Y011096D01*
X002109Y011061D01*
X002070Y011029D01*
X002029Y011000D01*
X001986Y010974D01*
X001941Y010952D01*
X001895Y010934D01*
X001847Y010919D01*
X001798Y010908D01*
X001749Y010901D01*
X001699Y010898D01*
X001648Y010899D01*
X001599Y010904D01*
X001549Y010913D01*
X001501Y010926D01*
X001454Y010942D01*
X001408Y010963D01*
X001364Y010987D01*
X001322Y011014D01*
X001282Y011044D01*
X001245Y011078D01*
X001211Y011115D01*
X001179Y011154D01*
X001151Y011195D01*
X001126Y011239D01*
X001105Y011284D01*
X001088Y011331D01*
X001074Y011379D01*
X001064Y011428D01*
X001058Y011478D01*
X001056Y011528D01*
X001056Y018221D02*
X001058Y018271D01*
X001064Y018321D01*
X001074Y018370D01*
X001088Y018418D01*
X001105Y018465D01*
X001126Y018510D01*
X001151Y018554D01*
X001179Y018595D01*
X001211Y018634D01*
X001245Y018671D01*
X001282Y018705D01*
X001322Y018735D01*
X001364Y018762D01*
X001408Y018786D01*
X001454Y018807D01*
X001501Y018823D01*
X001549Y018836D01*
X001599Y018845D01*
X001648Y018850D01*
X001699Y018851D01*
X001749Y018848D01*
X001798Y018841D01*
X001847Y018830D01*
X001895Y018815D01*
X001941Y018797D01*
X001986Y018775D01*
X002029Y018749D01*
X002070Y018720D01*
X002109Y018688D01*
X002145Y018653D01*
X002177Y018615D01*
X002207Y018575D01*
X002234Y018532D01*
X002257Y018488D01*
X002276Y018442D01*
X002292Y018394D01*
X002304Y018345D01*
X002312Y018296D01*
X002316Y018246D01*
X002316Y018196D01*
X002312Y018146D01*
X002304Y018097D01*
X002292Y018048D01*
X002276Y018000D01*
X002257Y017954D01*
X002234Y017910D01*
X002207Y017867D01*
X002177Y017827D01*
X002145Y017789D01*
X002109Y017754D01*
X002070Y017722D01*
X002029Y017693D01*
X001986Y017667D01*
X001941Y017645D01*
X001895Y017627D01*
X001847Y017612D01*
X001798Y017601D01*
X001749Y017594D01*
X001699Y017591D01*
X001648Y017592D01*
X001599Y017597D01*
X001549Y017606D01*
X001501Y017619D01*
X001454Y017635D01*
X001408Y017656D01*
X001364Y017680D01*
X001322Y017707D01*
X001282Y017737D01*
X001245Y017771D01*
X001211Y017808D01*
X001179Y017847D01*
X001151Y017888D01*
X001126Y017932D01*
X001105Y017977D01*
X001088Y018024D01*
X001074Y018072D01*
X001064Y018121D01*
X001058Y018171D01*
X001056Y018221D01*
X017591Y018221D02*
X017593Y018271D01*
X017599Y018321D01*
X017609Y018370D01*
X017623Y018418D01*
X017640Y018465D01*
X017661Y018510D01*
X017686Y018554D01*
X017714Y018595D01*
X017746Y018634D01*
X017780Y018671D01*
X017817Y018705D01*
X017857Y018735D01*
X017899Y018762D01*
X017943Y018786D01*
X017989Y018807D01*
X018036Y018823D01*
X018084Y018836D01*
X018134Y018845D01*
X018183Y018850D01*
X018234Y018851D01*
X018284Y018848D01*
X018333Y018841D01*
X018382Y018830D01*
X018430Y018815D01*
X018476Y018797D01*
X018521Y018775D01*
X018564Y018749D01*
X018605Y018720D01*
X018644Y018688D01*
X018680Y018653D01*
X018712Y018615D01*
X018742Y018575D01*
X018769Y018532D01*
X018792Y018488D01*
X018811Y018442D01*
X018827Y018394D01*
X018839Y018345D01*
X018847Y018296D01*
X018851Y018246D01*
X018851Y018196D01*
X018847Y018146D01*
X018839Y018097D01*
X018827Y018048D01*
X018811Y018000D01*
X018792Y017954D01*
X018769Y017910D01*
X018742Y017867D01*
X018712Y017827D01*
X018680Y017789D01*
X018644Y017754D01*
X018605Y017722D01*
X018564Y017693D01*
X018521Y017667D01*
X018476Y017645D01*
X018430Y017627D01*
X018382Y017612D01*
X018333Y017601D01*
X018284Y017594D01*
X018234Y017591D01*
X018183Y017592D01*
X018134Y017597D01*
X018084Y017606D01*
X018036Y017619D01*
X017989Y017635D01*
X017943Y017656D01*
X017899Y017680D01*
X017857Y017707D01*
X017817Y017737D01*
X017780Y017771D01*
X017746Y017808D01*
X017714Y017847D01*
X017686Y017888D01*
X017661Y017932D01*
X017640Y017977D01*
X017623Y018024D01*
X017609Y018072D01*
X017599Y018121D01*
X017593Y018171D01*
X017591Y018221D01*
X017591Y011528D02*
X017593Y011578D01*
X017599Y011628D01*
X017609Y011677D01*
X017623Y011725D01*
X017640Y011772D01*
X017661Y011817D01*
X017686Y011861D01*
X017714Y011902D01*
X017746Y011941D01*
X017780Y011978D01*
X017817Y012012D01*
X017857Y012042D01*
X017899Y012069D01*
X017943Y012093D01*
X017989Y012114D01*
X018036Y012130D01*
X018084Y012143D01*
X018134Y012152D01*
X018183Y012157D01*
X018234Y012158D01*
X018284Y012155D01*
X018333Y012148D01*
X018382Y012137D01*
X018430Y012122D01*
X018476Y012104D01*
X018521Y012082D01*
X018564Y012056D01*
X018605Y012027D01*
X018644Y011995D01*
X018680Y011960D01*
X018712Y011922D01*
X018742Y011882D01*
X018769Y011839D01*
X018792Y011795D01*
X018811Y011749D01*
X018827Y011701D01*
X018839Y011652D01*
X018847Y011603D01*
X018851Y011553D01*
X018851Y011503D01*
X018847Y011453D01*
X018839Y011404D01*
X018827Y011355D01*
X018811Y011307D01*
X018792Y011261D01*
X018769Y011217D01*
X018742Y011174D01*
X018712Y011134D01*
X018680Y011096D01*
X018644Y011061D01*
X018605Y011029D01*
X018564Y011000D01*
X018521Y010974D01*
X018476Y010952D01*
X018430Y010934D01*
X018382Y010919D01*
X018333Y010908D01*
X018284Y010901D01*
X018234Y010898D01*
X018183Y010899D01*
X018134Y010904D01*
X018084Y010913D01*
X018036Y010926D01*
X017989Y010942D01*
X017943Y010963D01*
X017899Y010987D01*
X017857Y011014D01*
X017817Y011044D01*
X017780Y011078D01*
X017746Y011115D01*
X017714Y011154D01*
X017686Y011195D01*
X017661Y011239D01*
X017640Y011284D01*
X017623Y011331D01*
X017609Y011379D01*
X017599Y011428D01*
X017593Y011478D01*
X017591Y011528D01*
X017591Y008379D02*
X017593Y008429D01*
X017599Y008479D01*
X017609Y008528D01*
X017623Y008576D01*
X017640Y008623D01*
X017661Y008668D01*
X017686Y008712D01*
X017714Y008753D01*
X017746Y008792D01*
X017780Y008829D01*
X017817Y008863D01*
X017857Y008893D01*
X017899Y008920D01*
X017943Y008944D01*
X017989Y008965D01*
X018036Y008981D01*
X018084Y008994D01*
X018134Y009003D01*
X018183Y009008D01*
X018234Y009009D01*
X018284Y009006D01*
X018333Y008999D01*
X018382Y008988D01*
X018430Y008973D01*
X018476Y008955D01*
X018521Y008933D01*
X018564Y008907D01*
X018605Y008878D01*
X018644Y008846D01*
X018680Y008811D01*
X018712Y008773D01*
X018742Y008733D01*
X018769Y008690D01*
X018792Y008646D01*
X018811Y008600D01*
X018827Y008552D01*
X018839Y008503D01*
X018847Y008454D01*
X018851Y008404D01*
X018851Y008354D01*
X018847Y008304D01*
X018839Y008255D01*
X018827Y008206D01*
X018811Y008158D01*
X018792Y008112D01*
X018769Y008068D01*
X018742Y008025D01*
X018712Y007985D01*
X018680Y007947D01*
X018644Y007912D01*
X018605Y007880D01*
X018564Y007851D01*
X018521Y007825D01*
X018476Y007803D01*
X018430Y007785D01*
X018382Y007770D01*
X018333Y007759D01*
X018284Y007752D01*
X018234Y007749D01*
X018183Y007750D01*
X018134Y007755D01*
X018084Y007764D01*
X018036Y007777D01*
X017989Y007793D01*
X017943Y007814D01*
X017899Y007838D01*
X017857Y007865D01*
X017817Y007895D01*
X017780Y007929D01*
X017746Y007966D01*
X017714Y008005D01*
X017686Y008046D01*
X017661Y008090D01*
X017640Y008135D01*
X017623Y008182D01*
X017609Y008230D01*
X017599Y008279D01*
X017593Y008329D01*
X017591Y008379D01*
X017591Y001686D02*
X017593Y001736D01*
X017599Y001786D01*
X017609Y001835D01*
X017623Y001883D01*
X017640Y001930D01*
X017661Y001975D01*
X017686Y002019D01*
X017714Y002060D01*
X017746Y002099D01*
X017780Y002136D01*
X017817Y002170D01*
X017857Y002200D01*
X017899Y002227D01*
X017943Y002251D01*
X017989Y002272D01*
X018036Y002288D01*
X018084Y002301D01*
X018134Y002310D01*
X018183Y002315D01*
X018234Y002316D01*
X018284Y002313D01*
X018333Y002306D01*
X018382Y002295D01*
X018430Y002280D01*
X018476Y002262D01*
X018521Y002240D01*
X018564Y002214D01*
X018605Y002185D01*
X018644Y002153D01*
X018680Y002118D01*
X018712Y002080D01*
X018742Y002040D01*
X018769Y001997D01*
X018792Y001953D01*
X018811Y001907D01*
X018827Y001859D01*
X018839Y001810D01*
X018847Y001761D01*
X018851Y001711D01*
X018851Y001661D01*
X018847Y001611D01*
X018839Y001562D01*
X018827Y001513D01*
X018811Y001465D01*
X018792Y001419D01*
X018769Y001375D01*
X018742Y001332D01*
X018712Y001292D01*
X018680Y001254D01*
X018644Y001219D01*
X018605Y001187D01*
X018564Y001158D01*
X018521Y001132D01*
X018476Y001110D01*
X018430Y001092D01*
X018382Y001077D01*
X018333Y001066D01*
X018284Y001059D01*
X018234Y001056D01*
X018183Y001057D01*
X018134Y001062D01*
X018084Y001071D01*
X018036Y001084D01*
X017989Y001100D01*
X017943Y001121D01*
X017899Y001145D01*
X017857Y001172D01*
X017817Y001202D01*
X017780Y001236D01*
X017746Y001273D01*
X017714Y001312D01*
X017686Y001353D01*
X017661Y001397D01*
X017640Y001442D01*
X017623Y001489D01*
X017609Y001537D01*
X017599Y001586D01*
X017593Y001636D01*
X017591Y001686D01*
D12*
X017827Y000110D02*
X017921Y000112D01*
X018014Y000119D01*
X018107Y000130D01*
X018200Y000146D01*
X018291Y000166D01*
X018382Y000190D01*
X018471Y000218D01*
X018559Y000251D01*
X018645Y000288D01*
X018729Y000329D01*
X018812Y000374D01*
X018892Y000423D01*
X018969Y000475D01*
X019044Y000531D01*
X019116Y000591D01*
X019186Y000654D01*
X019252Y000720D01*
X019315Y000790D01*
X019375Y000862D01*
X019431Y000937D01*
X019483Y001014D01*
X019532Y001095D01*
X019577Y001177D01*
X019618Y001261D01*
X019655Y001347D01*
X019688Y001435D01*
X019716Y001524D01*
X019740Y001615D01*
X019760Y001706D01*
X019776Y001799D01*
X019787Y001892D01*
X019794Y001985D01*
X019796Y002079D01*
X019796Y007936D01*
X019794Y008030D01*
X019787Y008123D01*
X019776Y008216D01*
X019760Y008309D01*
X019740Y008400D01*
X019716Y008491D01*
X019688Y008580D01*
X019655Y008668D01*
X019618Y008754D01*
X019577Y008838D01*
X019532Y008920D01*
X019483Y009001D01*
X019431Y009078D01*
X019375Y009153D01*
X019315Y009225D01*
X019252Y009295D01*
X019186Y009361D01*
X019116Y009424D01*
X019044Y009484D01*
X018969Y009540D01*
X018892Y009592D01*
X018811Y009641D01*
X018729Y009686D01*
X018645Y009727D01*
X018559Y009764D01*
X018471Y009797D01*
X018382Y009825D01*
X018291Y009849D01*
X018200Y009869D01*
X018107Y009885D01*
X018014Y009896D01*
X017921Y009903D01*
X017827Y009905D01*
X017827Y009904D02*
X017827Y010003D01*
X017827Y010002D02*
X017921Y010004D01*
X018014Y010011D01*
X018107Y010022D01*
X018200Y010038D01*
X018291Y010058D01*
X018382Y010082D01*
X018471Y010110D01*
X018559Y010143D01*
X018645Y010180D01*
X018729Y010221D01*
X018812Y010266D01*
X018892Y010315D01*
X018969Y010367D01*
X019044Y010423D01*
X019116Y010483D01*
X019186Y010546D01*
X019252Y010612D01*
X019315Y010682D01*
X019375Y010754D01*
X019431Y010829D01*
X019483Y010906D01*
X019532Y010987D01*
X019577Y011069D01*
X019618Y011153D01*
X019655Y011239D01*
X019688Y011327D01*
X019716Y011416D01*
X019740Y011507D01*
X019760Y011598D01*
X019776Y011691D01*
X019787Y011784D01*
X019794Y011877D01*
X019796Y011971D01*
X019796Y017827D01*
X019794Y017921D01*
X019787Y018014D01*
X019776Y018107D01*
X019760Y018200D01*
X019740Y018291D01*
X019716Y018382D01*
X019688Y018471D01*
X019655Y018559D01*
X019618Y018645D01*
X019577Y018729D01*
X019532Y018811D01*
X019483Y018892D01*
X019431Y018969D01*
X019375Y019044D01*
X019315Y019116D01*
X019252Y019186D01*
X019186Y019252D01*
X019116Y019315D01*
X019044Y019375D01*
X018969Y019431D01*
X018892Y019483D01*
X018811Y019532D01*
X018729Y019577D01*
X018645Y019618D01*
X018559Y019655D01*
X018471Y019688D01*
X018382Y019716D01*
X018291Y019740D01*
X018200Y019760D01*
X018107Y019776D01*
X018014Y019787D01*
X017921Y019794D01*
X017827Y019796D01*
X002079Y019796D01*
X001985Y019794D01*
X001892Y019787D01*
X001799Y019776D01*
X001706Y019760D01*
X001615Y019740D01*
X001524Y019716D01*
X001435Y019688D01*
X001347Y019655D01*
X001261Y019618D01*
X001177Y019577D01*
X001094Y019532D01*
X001014Y019483D01*
X000937Y019431D01*
X000862Y019375D01*
X000790Y019315D01*
X000720Y019252D01*
X000654Y019186D01*
X000591Y019116D01*
X000531Y019044D01*
X000475Y018969D01*
X000423Y018892D01*
X000374Y018812D01*
X000329Y018729D01*
X000288Y018645D01*
X000251Y018559D01*
X000218Y018471D01*
X000190Y018382D01*
X000166Y018291D01*
X000146Y018200D01*
X000130Y018107D01*
X000119Y018014D01*
X000112Y017921D01*
X000110Y017827D01*
X000111Y017827D02*
X000111Y011971D01*
X000110Y011971D02*
X000112Y011877D01*
X000119Y011784D01*
X000130Y011691D01*
X000146Y011598D01*
X000166Y011507D01*
X000190Y011416D01*
X000218Y011327D01*
X000251Y011239D01*
X000288Y011153D01*
X000329Y011069D01*
X000374Y010987D01*
X000423Y010906D01*
X000475Y010829D01*
X000531Y010754D01*
X000591Y010682D01*
X000654Y010612D01*
X000720Y010546D01*
X000790Y010483D01*
X000862Y010423D01*
X000937Y010367D01*
X001014Y010315D01*
X001094Y010266D01*
X001177Y010221D01*
X001261Y010180D01*
X001347Y010143D01*
X001435Y010110D01*
X001524Y010082D01*
X001615Y010058D01*
X001706Y010038D01*
X001799Y010022D01*
X001892Y010011D01*
X001985Y010004D01*
X002079Y010002D01*
X002079Y010003D02*
X002079Y009904D01*
X002079Y009905D02*
X001985Y009903D01*
X001892Y009896D01*
X001799Y009885D01*
X001706Y009869D01*
X001615Y009849D01*
X001524Y009825D01*
X001435Y009797D01*
X001347Y009764D01*
X001261Y009727D01*
X001177Y009686D01*
X001094Y009641D01*
X001014Y009592D01*
X000937Y009540D01*
X000862Y009484D01*
X000790Y009424D01*
X000720Y009361D01*
X000654Y009295D01*
X000591Y009225D01*
X000531Y009153D01*
X000475Y009078D01*
X000423Y009001D01*
X000374Y008921D01*
X000329Y008838D01*
X000288Y008754D01*
X000251Y008668D01*
X000218Y008580D01*
X000190Y008491D01*
X000166Y008400D01*
X000146Y008309D01*
X000130Y008216D01*
X000119Y008123D01*
X000112Y008030D01*
X000110Y007936D01*
X000111Y007936D02*
X000111Y002079D01*
X000110Y002079D02*
X000112Y001985D01*
X000119Y001892D01*
X000130Y001799D01*
X000146Y001706D01*
X000166Y001615D01*
X000190Y001524D01*
X000218Y001435D01*
X000251Y001347D01*
X000288Y001261D01*
X000329Y001177D01*
X000374Y001095D01*
X000423Y001014D01*
X000475Y000937D01*
X000531Y000862D01*
X000591Y000790D01*
X000654Y000720D01*
X000720Y000654D01*
X000790Y000591D01*
X000862Y000531D01*
X000937Y000475D01*
X001014Y000423D01*
X001094Y000374D01*
X001177Y000329D01*
X001261Y000288D01*
X001347Y000251D01*
X001435Y000218D01*
X001524Y000190D01*
X001615Y000166D01*
X001706Y000146D01*
X001799Y000130D01*
X001892Y000119D01*
X001985Y000112D01*
X002079Y000110D01*
X002079Y000111D02*
X017827Y000111D01*
D13*
X017347Y003126D02*
X017347Y003496D01*
X017224Y003496D02*
X017471Y003496D01*
X017471Y003249D02*
X017347Y003126D01*
X016471Y003187D02*
X016409Y003126D01*
X016286Y003126D01*
X016224Y003187D01*
X016224Y003249D01*
X016286Y003311D01*
X016224Y003372D01*
X016224Y003434D01*
X016286Y003496D01*
X016409Y003496D01*
X016471Y003434D01*
X016347Y003311D02*
X016286Y003311D01*
X015471Y003311D02*
X015471Y003126D01*
X015224Y003126D01*
X015286Y003249D02*
X015224Y003311D01*
X015224Y003434D01*
X015286Y003496D01*
X015409Y003496D01*
X015471Y003434D01*
X015471Y003311D02*
X015347Y003249D01*
X015286Y003249D01*
X014471Y003126D02*
X014224Y003126D01*
X014224Y003187D01*
X014471Y003434D01*
X014471Y003496D01*
X013471Y003434D02*
X013409Y003496D01*
X013286Y003496D01*
X013224Y003434D01*
X013224Y003187D01*
X013286Y003126D01*
X013409Y003126D01*
X013471Y003187D01*
X013471Y003249D01*
X013409Y003311D01*
X013224Y003311D01*
X012671Y003249D02*
X012547Y003126D01*
X012547Y003496D01*
X012424Y003496D02*
X012671Y003496D01*
X012303Y003496D02*
X012056Y003496D01*
X012179Y003496D02*
X012179Y003126D01*
X012303Y003249D01*
X011671Y003249D02*
X011547Y003126D01*
X011547Y003496D01*
X011424Y003496D02*
X011671Y003496D01*
X011303Y003434D02*
X011241Y003496D01*
X011117Y003496D01*
X011056Y003434D01*
X011056Y003372D01*
X011117Y003311D01*
X011179Y003311D01*
X011117Y003311D02*
X011056Y003249D01*
X011056Y003187D01*
X011117Y003126D01*
X011241Y003126D01*
X011303Y003187D01*
X010671Y003249D02*
X010547Y003126D01*
X010547Y003496D01*
X010424Y003496D02*
X010671Y003496D01*
X010303Y003434D02*
X010241Y003496D01*
X010117Y003496D01*
X010056Y003434D01*
X010056Y003311D01*
X010117Y003249D01*
X010179Y003249D01*
X010303Y003311D01*
X010303Y003126D01*
X010056Y003126D01*
X009671Y003249D02*
X009547Y003126D01*
X009547Y003496D01*
X009424Y003496D02*
X009671Y003496D01*
X009303Y003496D02*
X009303Y003434D01*
X009056Y003187D01*
X009056Y003126D01*
X009303Y003126D01*
X008671Y003249D02*
X008547Y003126D01*
X008547Y003496D01*
X008424Y003496D02*
X008671Y003496D01*
X008303Y003434D02*
X008241Y003496D01*
X008117Y003496D01*
X008056Y003434D01*
X008056Y003187D01*
X008117Y003126D01*
X008241Y003126D01*
X008303Y003187D01*
X008303Y003249D01*
X008241Y003311D01*
X008056Y003311D01*
X007671Y003187D02*
X007609Y003126D01*
X007486Y003126D01*
X007424Y003187D01*
X007424Y003249D01*
X007671Y003496D01*
X007424Y003496D01*
X007303Y003496D02*
X007056Y003496D01*
X007179Y003496D02*
X007179Y003126D01*
X007303Y003249D01*
X006671Y003187D02*
X006609Y003126D01*
X006486Y003126D01*
X006424Y003187D01*
X006424Y003249D01*
X006671Y003496D01*
X006424Y003496D01*
X006303Y003434D02*
X006241Y003496D01*
X006117Y003496D01*
X006056Y003434D01*
X006056Y003372D01*
X006117Y003311D01*
X006179Y003311D01*
X006117Y003311D02*
X006056Y003249D01*
X006056Y003187D01*
X006117Y003126D01*
X006241Y003126D01*
X006303Y003187D01*
X005671Y003187D02*
X005609Y003126D01*
X005486Y003126D01*
X005424Y003187D01*
X005424Y003249D01*
X005671Y003496D01*
X005424Y003496D01*
X005303Y003434D02*
X005241Y003496D01*
X005117Y003496D01*
X005056Y003434D01*
X005056Y003311D01*
X005117Y003249D01*
X005179Y003249D01*
X005303Y003311D01*
X005303Y003126D01*
X005056Y003126D01*
X004671Y003187D02*
X004609Y003126D01*
X004486Y003126D01*
X004424Y003187D01*
X004424Y003249D01*
X004671Y003496D01*
X004424Y003496D01*
X004303Y003496D02*
X004303Y003434D01*
X004056Y003187D01*
X004056Y003126D01*
X004303Y003126D01*
X003671Y003187D02*
X003609Y003126D01*
X003486Y003126D01*
X003424Y003187D01*
X003424Y003249D01*
X003671Y003496D01*
X003424Y003496D01*
X003303Y003434D02*
X003241Y003496D01*
X003117Y003496D01*
X003056Y003434D01*
X003056Y003187D01*
X003117Y003126D01*
X003241Y003126D01*
X003303Y003187D01*
X003303Y003249D01*
X003241Y003311D01*
X003056Y003311D01*
X002671Y003434D02*
X002609Y003496D01*
X002486Y003496D01*
X002424Y003434D01*
X002424Y003372D01*
X002486Y003311D01*
X002547Y003311D01*
X002486Y003311D02*
X002424Y003249D01*
X002424Y003187D01*
X002486Y003126D01*
X002609Y003126D01*
X002671Y003187D01*
X002303Y003249D02*
X002179Y003126D01*
X002179Y003496D01*
X002056Y003496D02*
X002303Y003496D01*
X002251Y004676D02*
X002498Y004923D01*
X002498Y004984D01*
X002436Y005046D01*
X002313Y005046D01*
X002251Y004984D01*
X002241Y005176D02*
X002117Y005176D01*
X002056Y005237D01*
X002056Y005299D01*
X002303Y005546D01*
X002056Y005546D01*
X002303Y005237D02*
X002241Y005176D01*
X002424Y005237D02*
X002424Y005299D01*
X002486Y005361D01*
X002424Y005422D01*
X002424Y005484D01*
X002486Y005546D01*
X002609Y005546D01*
X002671Y005484D01*
X002547Y005361D02*
X002486Y005361D01*
X002424Y005237D02*
X002486Y005176D01*
X002609Y005176D01*
X002671Y005237D01*
X003056Y005237D02*
X003303Y005484D01*
X003241Y005546D01*
X003117Y005546D01*
X003056Y005484D01*
X003056Y005237D01*
X003117Y005176D01*
X003241Y005176D01*
X003303Y005237D01*
X003303Y005484D01*
X003424Y005484D02*
X003486Y005546D01*
X003609Y005546D01*
X003671Y005484D01*
X003547Y005361D02*
X003486Y005361D01*
X003424Y005422D01*
X003424Y005484D01*
X003486Y005361D02*
X003424Y005299D01*
X003424Y005237D01*
X003486Y005176D01*
X003609Y005176D01*
X003671Y005237D01*
X003436Y005046D02*
X003251Y004861D01*
X003498Y004861D01*
X003436Y004676D02*
X003436Y005046D01*
X004056Y005237D02*
X004056Y005299D01*
X004117Y005361D01*
X004241Y005361D01*
X004303Y005299D01*
X004303Y005237D01*
X004241Y005176D01*
X004117Y005176D01*
X004056Y005237D01*
X004117Y005361D02*
X004056Y005422D01*
X004056Y005484D01*
X004117Y005546D01*
X004241Y005546D01*
X004303Y005484D01*
X004303Y005422D01*
X004241Y005361D01*
X004424Y005299D02*
X004424Y005237D01*
X004486Y005176D01*
X004609Y005176D01*
X004671Y005237D01*
X004424Y005299D02*
X004671Y005546D01*
X004424Y005546D01*
X004498Y005046D02*
X004374Y004984D01*
X004251Y004861D01*
X004436Y004861D01*
X004498Y004799D01*
X004498Y004738D01*
X004436Y004676D01*
X004313Y004676D01*
X004251Y004738D01*
X004251Y004861D01*
X005056Y005176D02*
X005179Y005237D01*
X005303Y005361D01*
X005117Y005361D01*
X005056Y005422D01*
X005056Y005484D01*
X005117Y005546D01*
X005241Y005546D01*
X005303Y005484D01*
X005303Y005361D01*
X005424Y005299D02*
X005424Y005237D01*
X005486Y005176D01*
X005609Y005176D01*
X005671Y005237D01*
X005424Y005299D02*
X005671Y005546D01*
X005424Y005546D01*
X005436Y005046D02*
X005313Y005046D01*
X005251Y004984D01*
X005251Y004923D01*
X005313Y004861D01*
X005436Y004861D01*
X005498Y004799D01*
X005498Y004738D01*
X005436Y004676D01*
X005313Y004676D01*
X005251Y004738D01*
X005251Y004799D01*
X005313Y004861D01*
X005436Y004861D02*
X005498Y004923D01*
X005498Y004984D01*
X005436Y005046D01*
X006051Y004923D02*
X006174Y005046D01*
X006174Y004676D01*
X006051Y004676D02*
X006298Y004676D01*
X006419Y004738D02*
X006666Y004984D01*
X006666Y004738D01*
X006604Y004676D01*
X006481Y004676D01*
X006419Y004738D01*
X006419Y004984D01*
X006481Y005046D01*
X006604Y005046D01*
X006666Y004984D01*
X006609Y005176D02*
X006486Y005176D01*
X006424Y005237D01*
X006424Y005299D01*
X006671Y005546D01*
X006424Y005546D01*
X006303Y005361D02*
X006056Y005361D01*
X006117Y005546D02*
X006117Y005176D01*
X006303Y005361D01*
X006609Y005176D02*
X006671Y005237D01*
X007056Y005237D02*
X007117Y005176D01*
X007241Y005176D01*
X007303Y005237D01*
X007424Y005237D02*
X007486Y005176D01*
X007609Y005176D01*
X007671Y005237D01*
X007604Y005046D02*
X007481Y005046D01*
X007419Y004984D01*
X007604Y005046D02*
X007666Y004984D01*
X007666Y004923D01*
X007419Y004676D01*
X007666Y004676D01*
X007298Y004676D02*
X007051Y004676D01*
X007174Y004676D02*
X007174Y005046D01*
X007051Y004923D01*
X007056Y005237D02*
X007056Y005299D01*
X007303Y005546D01*
X007056Y005546D01*
X007424Y005546D02*
X007671Y005546D01*
X007424Y005299D01*
X007424Y005237D01*
X008056Y005237D02*
X008303Y005484D01*
X008241Y005546D01*
X008117Y005546D01*
X008056Y005484D01*
X008056Y005237D01*
X008117Y005176D01*
X008241Y005176D01*
X008303Y005237D01*
X008303Y005484D01*
X008424Y005546D02*
X008671Y005546D01*
X008424Y005299D01*
X008424Y005237D01*
X008486Y005176D01*
X008609Y005176D01*
X008671Y005237D01*
X008604Y005046D02*
X008419Y004861D01*
X008666Y004861D01*
X008604Y004676D02*
X008604Y005046D01*
X008174Y005046D02*
X008174Y004676D01*
X008051Y004676D02*
X008298Y004676D01*
X008051Y004923D02*
X008174Y005046D01*
X009051Y004923D02*
X009174Y005046D01*
X009174Y004676D01*
X009051Y004676D02*
X009298Y004676D01*
X009419Y004738D02*
X009419Y004861D01*
X009604Y004861D01*
X009666Y004799D01*
X009666Y004738D01*
X009604Y004676D01*
X009481Y004676D01*
X009419Y004738D01*
X009419Y004861D02*
X009543Y004984D01*
X009666Y005046D01*
X009547Y005176D02*
X009547Y005546D01*
X009424Y005546D02*
X009671Y005546D01*
X009671Y005299D02*
X009547Y005176D01*
X009303Y005237D02*
X009303Y005299D01*
X009241Y005361D01*
X009117Y005361D01*
X009056Y005422D01*
X009056Y005484D01*
X009117Y005546D01*
X009241Y005546D01*
X009303Y005484D01*
X009303Y005422D01*
X009241Y005361D01*
X009117Y005361D02*
X009056Y005299D01*
X009056Y005237D01*
X009117Y005176D01*
X009241Y005176D01*
X009303Y005237D01*
X010056Y005176D02*
X010179Y005237D01*
X010303Y005361D01*
X010117Y005361D01*
X010056Y005422D01*
X010056Y005484D01*
X010117Y005546D01*
X010241Y005546D01*
X010303Y005484D01*
X010303Y005361D01*
X010424Y005546D02*
X010671Y005546D01*
X010547Y005546D02*
X010547Y005176D01*
X010671Y005299D01*
X010604Y005046D02*
X010481Y005046D01*
X010419Y004984D01*
X010419Y004923D01*
X010481Y004861D01*
X010604Y004861D01*
X010666Y004799D01*
X010666Y004738D01*
X010604Y004676D01*
X010481Y004676D01*
X010419Y004738D01*
X010419Y004799D01*
X010481Y004861D01*
X010604Y004861D02*
X010666Y004923D01*
X010666Y004984D01*
X010604Y005046D01*
X010174Y005046D02*
X010174Y004676D01*
X010051Y004676D02*
X010298Y004676D01*
X010051Y004923D02*
X010174Y005046D01*
X011051Y004984D02*
X011113Y005046D01*
X011236Y005046D01*
X011298Y004984D01*
X011298Y004923D01*
X011051Y004676D01*
X011298Y004676D01*
X011419Y004738D02*
X011666Y004984D01*
X011666Y004738D01*
X011604Y004676D01*
X011481Y004676D01*
X011419Y004738D01*
X011419Y004984D01*
X011481Y005046D01*
X011604Y005046D01*
X011666Y004984D01*
X011547Y005176D02*
X011547Y005546D01*
X011424Y005546D02*
X011671Y005546D01*
X011671Y005299D02*
X011547Y005176D01*
X011303Y005361D02*
X011056Y005361D01*
X011117Y005546D02*
X011117Y005176D01*
X011303Y005361D01*
X012056Y005299D02*
X012056Y005237D01*
X012117Y005176D01*
X012241Y005176D01*
X012303Y005237D01*
X012236Y005046D02*
X012113Y005046D01*
X012051Y004984D01*
X012236Y005046D02*
X012298Y004984D01*
X012298Y004923D01*
X012051Y004676D01*
X012298Y004676D01*
X012419Y004676D02*
X012666Y004923D01*
X012666Y004984D01*
X012604Y005046D01*
X012481Y005046D01*
X012419Y004984D01*
X012547Y005176D02*
X012547Y005546D01*
X012424Y005546D02*
X012671Y005546D01*
X012671Y005299D02*
X012547Y005176D01*
X012303Y005546D02*
X012056Y005299D01*
X012056Y005546D02*
X012303Y005546D01*
X013056Y005484D02*
X013056Y005237D01*
X013303Y005484D01*
X013241Y005546D01*
X013117Y005546D01*
X013056Y005484D01*
X013303Y005484D02*
X013303Y005237D01*
X013241Y005176D01*
X013117Y005176D01*
X013056Y005237D01*
X013113Y005046D02*
X013051Y004984D01*
X013113Y005046D02*
X013236Y005046D01*
X013298Y004984D01*
X013298Y004923D01*
X013051Y004676D01*
X013298Y004676D01*
X013419Y004861D02*
X013666Y004861D01*
X013604Y004676D02*
X013604Y005046D01*
X013419Y004861D01*
X013547Y005176D02*
X013547Y005546D01*
X013424Y005546D02*
X013671Y005546D01*
X013671Y005299D02*
X013547Y005176D01*
X014051Y004984D02*
X014113Y005046D01*
X014236Y005046D01*
X014298Y004984D01*
X014298Y004923D01*
X014051Y004676D01*
X014298Y004676D01*
X014419Y004738D02*
X014419Y004861D01*
X014604Y004861D01*
X014666Y004799D01*
X014666Y004738D01*
X014604Y004676D01*
X014481Y004676D01*
X014419Y004738D01*
X014419Y004861D02*
X014543Y004984D01*
X014666Y005046D01*
X014471Y005237D02*
X014471Y005299D01*
X014409Y005361D01*
X014286Y005361D01*
X014224Y005422D01*
X014224Y005484D01*
X014286Y005546D01*
X014409Y005546D01*
X014471Y005484D01*
X014471Y005422D01*
X014409Y005361D01*
X014286Y005361D02*
X014224Y005299D01*
X014224Y005237D01*
X014286Y005176D01*
X014409Y005176D01*
X014471Y005237D01*
X015051Y004984D02*
X015113Y005046D01*
X015236Y005046D01*
X015298Y004984D01*
X015298Y004923D01*
X015051Y004676D01*
X015298Y004676D01*
X015419Y004738D02*
X015419Y004799D01*
X015481Y004861D01*
X015604Y004861D01*
X015666Y004799D01*
X015666Y004738D01*
X015604Y004676D01*
X015481Y004676D01*
X015419Y004738D01*
X015481Y004861D02*
X015419Y004923D01*
X015419Y004984D01*
X015481Y005046D01*
X015604Y005046D01*
X015666Y004984D01*
X015666Y004923D01*
X015604Y004861D01*
X015347Y005237D02*
X015224Y005176D01*
X015347Y005237D02*
X015471Y005361D01*
X015286Y005361D01*
X015224Y005422D01*
X015224Y005484D01*
X015286Y005546D01*
X015409Y005546D01*
X015471Y005484D01*
X015471Y005361D01*
X016051Y004984D02*
X016113Y005046D01*
X016236Y005046D01*
X016298Y004984D01*
X016298Y004923D01*
X016236Y004861D01*
X016298Y004799D01*
X016298Y004738D01*
X016236Y004676D01*
X016113Y004676D01*
X016051Y004738D01*
X016174Y004861D02*
X016236Y004861D01*
X016419Y004738D02*
X016666Y004984D01*
X016666Y004738D01*
X016604Y004676D01*
X016481Y004676D01*
X016419Y004738D01*
X016419Y004984D01*
X016481Y005046D01*
X016604Y005046D01*
X016666Y004984D01*
X016471Y005361D02*
X016224Y005361D01*
X016286Y005546D02*
X016286Y005176D01*
X016471Y005361D01*
X017051Y004984D02*
X017113Y005046D01*
X017236Y005046D01*
X017298Y004984D01*
X017298Y004923D01*
X017236Y004861D01*
X017298Y004799D01*
X017298Y004738D01*
X017236Y004676D01*
X017113Y004676D01*
X017051Y004738D01*
X017174Y004861D02*
X017236Y004861D01*
X017419Y004984D02*
X017481Y005046D01*
X017604Y005046D01*
X017666Y004984D01*
X017666Y004923D01*
X017419Y004676D01*
X017666Y004676D01*
X017409Y005176D02*
X017286Y005176D01*
X017224Y005237D01*
X017224Y005299D01*
X017471Y005546D01*
X017224Y005546D01*
X017471Y005237D02*
X017409Y005176D01*
X017419Y006726D02*
X017666Y006726D01*
X017543Y006726D02*
X017543Y007096D01*
X017419Y006973D01*
X017298Y006973D02*
X017236Y006911D01*
X017298Y006849D01*
X017298Y006788D01*
X017236Y006726D01*
X017113Y006726D01*
X017051Y006788D01*
X017174Y006911D02*
X017236Y006911D01*
X017298Y006973D02*
X017298Y007034D01*
X017236Y007096D01*
X017113Y007096D01*
X017051Y007034D01*
X016666Y007034D02*
X016666Y006788D01*
X016604Y006726D01*
X016481Y006726D01*
X016419Y006788D01*
X016298Y006726D02*
X016051Y006726D01*
X016298Y006973D01*
X016298Y007034D01*
X016236Y007096D01*
X016113Y007096D01*
X016051Y007034D01*
X016419Y007034D02*
X016419Y006973D01*
X016481Y006911D01*
X016666Y006911D01*
X016666Y007034D02*
X016604Y007096D01*
X016481Y007096D01*
X016419Y007034D01*
X015666Y007034D02*
X015419Y006788D01*
X015419Y006726D01*
X015298Y006726D02*
X015051Y006726D01*
X015298Y006973D01*
X015298Y007034D01*
X015236Y007096D01*
X015113Y007096D01*
X015051Y007034D01*
X015419Y007096D02*
X015666Y007096D01*
X015666Y007034D01*
X014666Y007096D02*
X014419Y007096D01*
X014419Y006911D01*
X014543Y006973D01*
X014604Y006973D01*
X014666Y006911D01*
X014666Y006788D01*
X014604Y006726D01*
X014481Y006726D01*
X014419Y006788D01*
X014298Y006726D02*
X014051Y006726D01*
X014298Y006973D01*
X014298Y007034D01*
X014236Y007096D01*
X014113Y007096D01*
X014051Y007034D01*
X013666Y007034D02*
X013666Y006973D01*
X013604Y006911D01*
X013666Y006849D01*
X013666Y006788D01*
X013604Y006726D01*
X013481Y006726D01*
X013419Y006788D01*
X013298Y006726D02*
X013051Y006726D01*
X013298Y006973D01*
X013298Y007034D01*
X013236Y007096D01*
X013113Y007096D01*
X013051Y007034D01*
X013419Y007034D02*
X013481Y007096D01*
X013604Y007096D01*
X013666Y007034D01*
X013604Y006911D02*
X013543Y006911D01*
X012666Y006726D02*
X012419Y006726D01*
X012298Y006726D02*
X012051Y006726D01*
X012298Y006973D01*
X012298Y007034D01*
X012236Y007096D01*
X012113Y007096D01*
X012051Y007034D01*
X012419Y006973D02*
X012543Y007096D01*
X012543Y006726D01*
X011666Y006788D02*
X011604Y006726D01*
X011481Y006726D01*
X011419Y006788D01*
X011298Y006726D02*
X011051Y006726D01*
X011174Y006726D02*
X011174Y007096D01*
X011051Y006973D01*
X011419Y006973D02*
X011481Y006911D01*
X011666Y006911D01*
X011666Y006788D02*
X011666Y007034D01*
X011604Y007096D01*
X011481Y007096D01*
X011419Y007034D01*
X011419Y006973D01*
X010666Y007034D02*
X010419Y006788D01*
X010419Y006726D01*
X010298Y006726D02*
X010051Y006726D01*
X010174Y006726D02*
X010174Y007096D01*
X010051Y006973D01*
X010419Y007096D02*
X010666Y007096D01*
X010666Y007034D01*
X009666Y007096D02*
X009419Y007096D01*
X009419Y006911D01*
X009543Y006973D01*
X009604Y006973D01*
X009666Y006911D01*
X009666Y006788D01*
X009604Y006726D01*
X009481Y006726D01*
X009419Y006788D01*
X009298Y006726D02*
X009051Y006726D01*
X009174Y006726D02*
X009174Y007096D01*
X009051Y006973D01*
X008666Y006973D02*
X008604Y006911D01*
X008666Y006849D01*
X008666Y006788D01*
X008604Y006726D01*
X008481Y006726D01*
X008419Y006788D01*
X008298Y006726D02*
X008051Y006726D01*
X008174Y006726D02*
X008174Y007096D01*
X008051Y006973D01*
X008419Y007034D02*
X008481Y007096D01*
X008604Y007096D01*
X008666Y007034D01*
X008666Y006973D01*
X008604Y006911D02*
X008543Y006911D01*
X007666Y006726D02*
X007419Y006726D01*
X007298Y006726D02*
X007051Y006726D01*
X007174Y006726D02*
X007174Y007096D01*
X007051Y006973D01*
X007419Y006973D02*
X007543Y007096D01*
X007543Y006726D01*
X006498Y006788D02*
X006436Y006726D01*
X006313Y006726D01*
X006251Y006788D01*
X006313Y006911D02*
X006498Y006911D01*
X006498Y006788D02*
X006498Y007034D01*
X006436Y007096D01*
X006313Y007096D01*
X006251Y007034D01*
X006251Y006973D01*
X006313Y006911D01*
X005498Y007034D02*
X005251Y006788D01*
X005251Y006726D01*
X005251Y007096D02*
X005498Y007096D01*
X005498Y007034D01*
X004498Y007096D02*
X004251Y007096D01*
X004251Y006911D01*
X004374Y006973D01*
X004436Y006973D01*
X004498Y006911D01*
X004498Y006788D01*
X004436Y006726D01*
X004313Y006726D01*
X004251Y006788D01*
X003498Y006788D02*
X003436Y006726D01*
X003313Y006726D01*
X003251Y006788D01*
X003374Y006911D02*
X003436Y006911D01*
X003498Y006849D01*
X003498Y006788D01*
X003436Y006911D02*
X003498Y006973D01*
X003498Y007034D01*
X003436Y007096D01*
X003313Y007096D01*
X003251Y007034D01*
X002498Y006726D02*
X002251Y006726D01*
X002374Y006726D02*
X002374Y007096D01*
X002251Y006973D01*
X002251Y004676D02*
X002498Y004676D01*
X002486Y013126D02*
X002424Y013187D01*
X002424Y013249D01*
X002486Y013311D01*
X002424Y013372D01*
X002424Y013434D01*
X002486Y013496D01*
X002609Y013496D01*
X002671Y013434D01*
X002547Y013311D02*
X002486Y013311D01*
X002486Y013126D02*
X002609Y013126D01*
X002671Y013187D01*
X002303Y013249D02*
X002179Y013126D01*
X002179Y013496D01*
X002056Y013496D02*
X002303Y013496D01*
X003056Y013434D02*
X003056Y013187D01*
X003117Y013126D01*
X003241Y013126D01*
X003303Y013187D01*
X003303Y013249D01*
X003241Y013311D01*
X003056Y013311D01*
X003056Y013434D02*
X003117Y013496D01*
X003241Y013496D01*
X003303Y013434D01*
X003424Y013496D02*
X003671Y013496D01*
X003424Y013249D01*
X003424Y013187D01*
X003486Y013126D01*
X003609Y013126D01*
X003671Y013187D01*
X004056Y013187D02*
X004056Y013126D01*
X004303Y013126D01*
X004424Y013187D02*
X004486Y013126D01*
X004609Y013126D01*
X004671Y013187D01*
X004424Y013187D02*
X004424Y013249D01*
X004671Y013496D01*
X004424Y013496D01*
X004303Y013496D02*
X004303Y013434D01*
X004056Y013187D01*
X005056Y013126D02*
X005303Y013126D01*
X005303Y013311D01*
X005179Y013249D01*
X005117Y013249D01*
X005056Y013311D01*
X005056Y013434D01*
X005117Y013496D01*
X005241Y013496D01*
X005303Y013434D01*
X005424Y013496D02*
X005671Y013496D01*
X005424Y013249D01*
X005424Y013187D01*
X005486Y013126D01*
X005609Y013126D01*
X005671Y013187D01*
X006056Y013187D02*
X006117Y013126D01*
X006241Y013126D01*
X006303Y013187D01*
X006424Y013187D02*
X006486Y013126D01*
X006609Y013126D01*
X006671Y013187D01*
X006424Y013187D02*
X006424Y013249D01*
X006671Y013496D01*
X006424Y013496D01*
X006303Y013434D02*
X006241Y013496D01*
X006117Y013496D01*
X006056Y013434D01*
X006056Y013372D01*
X006117Y013311D01*
X006179Y013311D01*
X006117Y013311D02*
X006056Y013249D01*
X006056Y013187D01*
X007056Y013496D02*
X007303Y013496D01*
X007424Y013496D02*
X007671Y013496D01*
X007424Y013249D01*
X007424Y013187D01*
X007486Y013126D01*
X007609Y013126D01*
X007671Y013187D01*
X007303Y013249D02*
X007179Y013126D01*
X007179Y013496D01*
X008056Y013434D02*
X008056Y013187D01*
X008117Y013126D01*
X008241Y013126D01*
X008303Y013187D01*
X008303Y013249D01*
X008241Y013311D01*
X008056Y013311D01*
X008056Y013434D02*
X008117Y013496D01*
X008241Y013496D01*
X008303Y013434D01*
X008424Y013496D02*
X008671Y013496D01*
X008547Y013496D02*
X008547Y013126D01*
X008671Y013249D01*
X009056Y013187D02*
X009056Y013126D01*
X009303Y013126D01*
X009547Y013126D02*
X009547Y013496D01*
X009424Y013496D02*
X009671Y013496D01*
X009671Y013249D02*
X009547Y013126D01*
X009303Y013434D02*
X009303Y013496D01*
X009303Y013434D02*
X009056Y013187D01*
X010056Y013126D02*
X010303Y013126D01*
X010303Y013311D01*
X010179Y013249D01*
X010117Y013249D01*
X010056Y013311D01*
X010056Y013434D01*
X010117Y013496D01*
X010241Y013496D01*
X010303Y013434D01*
X010424Y013496D02*
X010671Y013496D01*
X010547Y013496D02*
X010547Y013126D01*
X010671Y013249D01*
X011056Y013249D02*
X011117Y013311D01*
X011056Y013372D01*
X011056Y013434D01*
X011117Y013496D01*
X011241Y013496D01*
X011303Y013434D01*
X011424Y013496D02*
X011671Y013496D01*
X011547Y013496D02*
X011547Y013126D01*
X011671Y013249D01*
X011303Y013187D02*
X011241Y013126D01*
X011117Y013126D01*
X011056Y013187D01*
X011056Y013249D01*
X011117Y013311D02*
X011179Y013311D01*
X012056Y013496D02*
X012303Y013496D01*
X012424Y013496D02*
X012671Y013496D01*
X012547Y013496D02*
X012547Y013126D01*
X012671Y013249D01*
X012303Y013249D02*
X012179Y013126D01*
X012179Y013496D01*
X013224Y013434D02*
X013224Y013187D01*
X013286Y013126D01*
X013409Y013126D01*
X013471Y013187D01*
X013471Y013249D01*
X013409Y013311D01*
X013224Y013311D01*
X013224Y013434D02*
X013286Y013496D01*
X013409Y013496D01*
X013471Y013434D01*
X014224Y013187D02*
X014224Y013126D01*
X014471Y013126D01*
X014224Y013187D02*
X014471Y013434D01*
X014471Y013496D01*
X015224Y013434D02*
X015224Y013311D01*
X015286Y013249D01*
X015347Y013249D01*
X015471Y013311D01*
X015471Y013126D01*
X015224Y013126D01*
X015224Y013434D02*
X015286Y013496D01*
X015409Y013496D01*
X015471Y013434D01*
X016224Y013434D02*
X016286Y013496D01*
X016409Y013496D01*
X016471Y013434D01*
X016347Y013311D02*
X016286Y013311D01*
X016224Y013372D01*
X016224Y013434D01*
X016286Y013311D02*
X016224Y013249D01*
X016224Y013187D01*
X016286Y013126D01*
X016409Y013126D01*
X016471Y013187D01*
X017224Y013496D02*
X017471Y013496D01*
X017347Y013496D02*
X017347Y013126D01*
X017471Y013249D01*
X017419Y014676D02*
X017666Y014923D01*
X017666Y014984D01*
X017604Y015046D01*
X017481Y015046D01*
X017419Y014984D01*
X017298Y014984D02*
X017298Y014923D01*
X017236Y014861D01*
X017298Y014799D01*
X017298Y014738D01*
X017236Y014676D01*
X017113Y014676D01*
X017051Y014738D01*
X017174Y014861D02*
X017236Y014861D01*
X017298Y014984D02*
X017236Y015046D01*
X017113Y015046D01*
X017051Y014984D01*
X017286Y015176D02*
X017409Y015176D01*
X017471Y015237D01*
X017286Y015176D02*
X017224Y015237D01*
X017224Y015299D01*
X017471Y015546D01*
X017224Y015546D01*
X016666Y014984D02*
X016419Y014738D01*
X016481Y014676D01*
X016604Y014676D01*
X016666Y014738D01*
X016666Y014984D01*
X016604Y015046D01*
X016481Y015046D01*
X016419Y014984D01*
X016419Y014738D01*
X016298Y014738D02*
X016236Y014676D01*
X016113Y014676D01*
X016051Y014738D01*
X016174Y014861D02*
X016236Y014861D01*
X016298Y014799D01*
X016298Y014738D01*
X016236Y014861D02*
X016298Y014923D01*
X016298Y014984D01*
X016236Y015046D01*
X016113Y015046D01*
X016051Y014984D01*
X016286Y015176D02*
X016471Y015361D01*
X016224Y015361D01*
X016286Y015546D02*
X016286Y015176D01*
X015666Y014984D02*
X015666Y014923D01*
X015604Y014861D01*
X015481Y014861D01*
X015419Y014923D01*
X015419Y014984D01*
X015481Y015046D01*
X015604Y015046D01*
X015666Y014984D01*
X015604Y014861D02*
X015666Y014799D01*
X015666Y014738D01*
X015604Y014676D01*
X015481Y014676D01*
X015419Y014738D01*
X015419Y014799D01*
X015481Y014861D01*
X015298Y014923D02*
X015298Y014984D01*
X015236Y015046D01*
X015113Y015046D01*
X015051Y014984D01*
X015298Y014923D02*
X015051Y014676D01*
X015298Y014676D01*
X015224Y015176D02*
X015347Y015237D01*
X015471Y015361D01*
X015286Y015361D01*
X015224Y015422D01*
X015224Y015484D01*
X015286Y015546D01*
X015409Y015546D01*
X015471Y015484D01*
X015471Y015361D01*
X014666Y015046D02*
X014543Y014984D01*
X014419Y014861D01*
X014604Y014861D01*
X014666Y014799D01*
X014666Y014738D01*
X014604Y014676D01*
X014481Y014676D01*
X014419Y014738D01*
X014419Y014861D01*
X014298Y014923D02*
X014298Y014984D01*
X014236Y015046D01*
X014113Y015046D01*
X014051Y014984D01*
X014298Y014923D02*
X014051Y014676D01*
X014298Y014676D01*
X014286Y015176D02*
X014224Y015237D01*
X014224Y015299D01*
X014286Y015361D01*
X014409Y015361D01*
X014471Y015299D01*
X014471Y015237D01*
X014409Y015176D01*
X014286Y015176D01*
X014286Y015361D02*
X014224Y015422D01*
X014224Y015484D01*
X014286Y015546D01*
X014409Y015546D01*
X014471Y015484D01*
X014471Y015422D01*
X014409Y015361D01*
X013671Y015299D02*
X013547Y015176D01*
X013547Y015546D01*
X013424Y015546D02*
X013671Y015546D01*
X013303Y015484D02*
X013303Y015237D01*
X013241Y015176D01*
X013117Y015176D01*
X013056Y015237D01*
X013303Y015484D01*
X013241Y015546D01*
X013117Y015546D01*
X013056Y015484D01*
X013056Y015237D01*
X013113Y015046D02*
X013051Y014984D01*
X013113Y015046D02*
X013236Y015046D01*
X013298Y014984D01*
X013298Y014923D01*
X013051Y014676D01*
X013298Y014676D01*
X013419Y014861D02*
X013666Y014861D01*
X013604Y014676D02*
X013604Y015046D01*
X013419Y014861D01*
X012666Y014923D02*
X012666Y014984D01*
X012604Y015046D01*
X012481Y015046D01*
X012419Y014984D01*
X012298Y014984D02*
X012298Y014923D01*
X012051Y014676D01*
X012298Y014676D01*
X012419Y014676D02*
X012666Y014923D01*
X012666Y014676D02*
X012419Y014676D01*
X012298Y014984D02*
X012236Y015046D01*
X012113Y015046D01*
X012051Y014984D01*
X012117Y015176D02*
X012241Y015176D01*
X012303Y015237D01*
X012117Y015176D02*
X012056Y015237D01*
X012056Y015299D01*
X012303Y015546D01*
X012056Y015546D01*
X012424Y015546D02*
X012671Y015546D01*
X012547Y015546D02*
X012547Y015176D01*
X012671Y015299D01*
X011671Y015299D02*
X011547Y015176D01*
X011547Y015546D01*
X011424Y015546D02*
X011671Y015546D01*
X011303Y015361D02*
X011056Y015361D01*
X011117Y015546D02*
X011117Y015176D01*
X011303Y015361D01*
X011236Y015046D02*
X011113Y015046D01*
X011051Y014984D01*
X011236Y015046D02*
X011298Y014984D01*
X011298Y014923D01*
X011051Y014676D01*
X011298Y014676D01*
X011419Y014738D02*
X011666Y014984D01*
X011666Y014738D01*
X011604Y014676D01*
X011481Y014676D01*
X011419Y014738D01*
X011419Y014984D01*
X011481Y015046D01*
X011604Y015046D01*
X011666Y014984D01*
X010666Y014984D02*
X010666Y014923D01*
X010604Y014861D01*
X010481Y014861D01*
X010419Y014923D01*
X010419Y014984D01*
X010481Y015046D01*
X010604Y015046D01*
X010666Y014984D01*
X010604Y014861D02*
X010666Y014799D01*
X010666Y014738D01*
X010604Y014676D01*
X010481Y014676D01*
X010419Y014738D01*
X010419Y014799D01*
X010481Y014861D01*
X010298Y014676D02*
X010051Y014676D01*
X010174Y014676D02*
X010174Y015046D01*
X010051Y014923D01*
X010056Y015176D02*
X010179Y015237D01*
X010303Y015361D01*
X010117Y015361D01*
X010056Y015422D01*
X010056Y015484D01*
X010117Y015546D01*
X010241Y015546D01*
X010303Y015484D01*
X010303Y015361D01*
X010424Y015546D02*
X010671Y015546D01*
X010547Y015546D02*
X010547Y015176D01*
X010671Y015299D01*
X009671Y015299D02*
X009547Y015176D01*
X009547Y015546D01*
X009424Y015546D02*
X009671Y015546D01*
X009303Y015484D02*
X009303Y015422D01*
X009241Y015361D01*
X009117Y015361D01*
X009056Y015422D01*
X009056Y015484D01*
X009117Y015546D01*
X009241Y015546D01*
X009303Y015484D01*
X009241Y015361D02*
X009303Y015299D01*
X009303Y015237D01*
X009241Y015176D01*
X009117Y015176D01*
X009056Y015237D01*
X009056Y015299D01*
X009117Y015361D01*
X009174Y015046D02*
X009174Y014676D01*
X009051Y014676D02*
X009298Y014676D01*
X009419Y014738D02*
X009481Y014676D01*
X009604Y014676D01*
X009666Y014738D01*
X009666Y014799D01*
X009604Y014861D01*
X009419Y014861D01*
X009419Y014738D01*
X009419Y014861D02*
X009543Y014984D01*
X009666Y015046D01*
X009174Y015046D02*
X009051Y014923D01*
X008666Y014861D02*
X008419Y014861D01*
X008604Y015046D01*
X008604Y014676D01*
X008298Y014676D02*
X008051Y014676D01*
X008174Y014676D02*
X008174Y015046D01*
X008051Y014923D01*
X008117Y015176D02*
X008056Y015237D01*
X008303Y015484D01*
X008241Y015546D01*
X008117Y015546D01*
X008056Y015484D01*
X008056Y015237D01*
X008117Y015176D02*
X008241Y015176D01*
X008303Y015237D01*
X008303Y015484D01*
X008424Y015546D02*
X008671Y015546D01*
X008424Y015299D01*
X008424Y015237D01*
X008486Y015176D01*
X008609Y015176D01*
X008671Y015237D01*
X007671Y015237D02*
X007609Y015176D01*
X007486Y015176D01*
X007424Y015237D01*
X007424Y015299D01*
X007671Y015546D01*
X007424Y015546D01*
X007303Y015546D02*
X007056Y015299D01*
X007056Y015237D01*
X007117Y015176D01*
X007241Y015176D01*
X007303Y015237D01*
X007174Y015046D02*
X007174Y014676D01*
X007051Y014676D02*
X007298Y014676D01*
X007419Y014676D02*
X007666Y014923D01*
X007666Y014984D01*
X007604Y015046D01*
X007481Y015046D01*
X007419Y014984D01*
X007174Y015046D02*
X007051Y014923D01*
X006666Y014984D02*
X006666Y014738D01*
X006604Y014676D01*
X006481Y014676D01*
X006419Y014738D01*
X006666Y014984D01*
X006604Y015046D01*
X006481Y015046D01*
X006419Y014984D01*
X006419Y014738D01*
X006298Y014676D02*
X006051Y014676D01*
X006174Y014676D02*
X006174Y015046D01*
X006051Y014923D01*
X006117Y015176D02*
X006303Y015361D01*
X006056Y015361D01*
X006117Y015546D02*
X006117Y015176D01*
X006424Y015237D02*
X006486Y015176D01*
X006609Y015176D01*
X006671Y015237D01*
X006424Y015237D02*
X006424Y015299D01*
X006671Y015546D01*
X006424Y015546D01*
X007056Y015546D02*
X007303Y015546D01*
X007419Y014676D02*
X007666Y014676D01*
X005671Y015237D02*
X005609Y015176D01*
X005486Y015176D01*
X005424Y015237D01*
X005424Y015299D01*
X005671Y015546D01*
X005424Y015546D01*
X005303Y015484D02*
X005241Y015546D01*
X005117Y015546D01*
X005056Y015484D01*
X005056Y015422D01*
X005117Y015361D01*
X005303Y015361D01*
X005303Y015484D01*
X005303Y015361D02*
X005179Y015237D01*
X005056Y015176D01*
X005251Y014984D02*
X005251Y014923D01*
X005313Y014861D01*
X005436Y014861D01*
X005498Y014799D01*
X005498Y014738D01*
X005436Y014676D01*
X005313Y014676D01*
X005251Y014738D01*
X005251Y014799D01*
X005313Y014861D01*
X005436Y014861D02*
X005498Y014923D01*
X005498Y014984D01*
X005436Y015046D01*
X005313Y015046D01*
X005251Y014984D01*
X004671Y015237D02*
X004609Y015176D01*
X004486Y015176D01*
X004424Y015237D01*
X004424Y015299D01*
X004671Y015546D01*
X004424Y015546D01*
X004303Y015484D02*
X004303Y015422D01*
X004241Y015361D01*
X004117Y015361D01*
X004056Y015422D01*
X004056Y015484D01*
X004117Y015546D01*
X004241Y015546D01*
X004303Y015484D01*
X004241Y015361D02*
X004303Y015299D01*
X004303Y015237D01*
X004241Y015176D01*
X004117Y015176D01*
X004056Y015237D01*
X004056Y015299D01*
X004117Y015361D01*
X004374Y014984D02*
X004251Y014861D01*
X004436Y014861D01*
X004498Y014799D01*
X004498Y014738D01*
X004436Y014676D01*
X004313Y014676D01*
X004251Y014738D01*
X004251Y014861D01*
X004374Y014984D02*
X004498Y015046D01*
X003671Y015237D02*
X003609Y015176D01*
X003486Y015176D01*
X003424Y015237D01*
X003424Y015299D01*
X003486Y015361D01*
X003424Y015422D01*
X003424Y015484D01*
X003486Y015546D01*
X003609Y015546D01*
X003671Y015484D01*
X003547Y015361D02*
X003486Y015361D01*
X003303Y015484D02*
X003303Y015237D01*
X003241Y015176D01*
X003117Y015176D01*
X003056Y015237D01*
X003303Y015484D01*
X003241Y015546D01*
X003117Y015546D01*
X003056Y015484D01*
X003056Y015237D01*
X002671Y015237D02*
X002609Y015176D01*
X002486Y015176D01*
X002424Y015237D01*
X002424Y015299D01*
X002486Y015361D01*
X002424Y015422D01*
X002424Y015484D01*
X002486Y015546D01*
X002609Y015546D01*
X002671Y015484D01*
X002547Y015361D02*
X002486Y015361D01*
X002303Y015237D02*
X002241Y015176D01*
X002117Y015176D01*
X002056Y015237D01*
X002056Y015299D01*
X002303Y015546D01*
X002056Y015546D01*
X002313Y015046D02*
X002251Y014984D01*
X002313Y015046D02*
X002436Y015046D01*
X002498Y014984D01*
X002498Y014923D01*
X002251Y014676D01*
X002498Y014676D01*
X003251Y014861D02*
X003498Y014861D01*
X003436Y014676D02*
X003436Y015046D01*
X003251Y014861D01*
X003313Y016726D02*
X003251Y016788D01*
X003313Y016726D02*
X003436Y016726D01*
X003498Y016788D01*
X003498Y016849D01*
X003436Y016911D01*
X003374Y016911D01*
X003436Y016911D02*
X003498Y016973D01*
X003498Y017034D01*
X003436Y017096D01*
X003313Y017096D01*
X003251Y017034D01*
X002498Y016726D02*
X002251Y016726D01*
X002374Y016726D02*
X002374Y017096D01*
X002251Y016973D01*
X004251Y016911D02*
X004374Y016973D01*
X004436Y016973D01*
X004498Y016911D01*
X004498Y016788D01*
X004436Y016726D01*
X004313Y016726D01*
X004251Y016788D01*
X004251Y016911D02*
X004251Y017096D01*
X004498Y017096D01*
X005251Y017096D02*
X005498Y017096D01*
X005498Y017034D01*
X005251Y016788D01*
X005251Y016726D01*
X006251Y016788D02*
X006313Y016726D01*
X006436Y016726D01*
X006498Y016788D01*
X006498Y017034D01*
X006436Y017096D01*
X006313Y017096D01*
X006251Y017034D01*
X006251Y016973D01*
X006313Y016911D01*
X006498Y016911D01*
X007051Y016973D02*
X007174Y017096D01*
X007174Y016726D01*
X007051Y016726D02*
X007298Y016726D01*
X007419Y016726D02*
X007666Y016726D01*
X007543Y016726D02*
X007543Y017096D01*
X007419Y016973D01*
X008051Y016973D02*
X008174Y017096D01*
X008174Y016726D01*
X008051Y016726D02*
X008298Y016726D01*
X008419Y016788D02*
X008481Y016726D01*
X008604Y016726D01*
X008666Y016788D01*
X008666Y016849D01*
X008604Y016911D01*
X008543Y016911D01*
X008604Y016911D02*
X008666Y016973D01*
X008666Y017034D01*
X008604Y017096D01*
X008481Y017096D01*
X008419Y017034D01*
X009051Y016973D02*
X009174Y017096D01*
X009174Y016726D01*
X009051Y016726D02*
X009298Y016726D01*
X009419Y016788D02*
X009481Y016726D01*
X009604Y016726D01*
X009666Y016788D01*
X009666Y016911D01*
X009604Y016973D01*
X009543Y016973D01*
X009419Y016911D01*
X009419Y017096D01*
X009666Y017096D01*
X010051Y016973D02*
X010174Y017096D01*
X010174Y016726D01*
X010051Y016726D02*
X010298Y016726D01*
X010419Y016726D02*
X010419Y016788D01*
X010666Y017034D01*
X010666Y017096D01*
X010419Y017096D01*
X011051Y016973D02*
X011174Y017096D01*
X011174Y016726D01*
X011051Y016726D02*
X011298Y016726D01*
X011419Y016788D02*
X011481Y016726D01*
X011604Y016726D01*
X011666Y016788D01*
X011666Y017034D01*
X011604Y017096D01*
X011481Y017096D01*
X011419Y017034D01*
X011419Y016973D01*
X011481Y016911D01*
X011666Y016911D01*
X012051Y017034D02*
X012113Y017096D01*
X012236Y017096D01*
X012298Y017034D01*
X012298Y016973D01*
X012051Y016726D01*
X012298Y016726D01*
X012419Y016726D02*
X012666Y016726D01*
X012543Y016726D02*
X012543Y017096D01*
X012419Y016973D01*
X013051Y017034D02*
X013113Y017096D01*
X013236Y017096D01*
X013298Y017034D01*
X013298Y016973D01*
X013051Y016726D01*
X013298Y016726D01*
X013419Y016788D02*
X013481Y016726D01*
X013604Y016726D01*
X013666Y016788D01*
X013666Y016849D01*
X013604Y016911D01*
X013543Y016911D01*
X013604Y016911D02*
X013666Y016973D01*
X013666Y017034D01*
X013604Y017096D01*
X013481Y017096D01*
X013419Y017034D01*
X014051Y017034D02*
X014113Y017096D01*
X014236Y017096D01*
X014298Y017034D01*
X014298Y016973D01*
X014051Y016726D01*
X014298Y016726D01*
X014419Y016788D02*
X014481Y016726D01*
X014604Y016726D01*
X014666Y016788D01*
X014666Y016911D01*
X014604Y016973D01*
X014543Y016973D01*
X014419Y016911D01*
X014419Y017096D01*
X014666Y017096D01*
X015051Y017034D02*
X015113Y017096D01*
X015236Y017096D01*
X015298Y017034D01*
X015298Y016973D01*
X015051Y016726D01*
X015298Y016726D01*
X015419Y016726D02*
X015419Y016788D01*
X015666Y017034D01*
X015666Y017096D01*
X015419Y017096D01*
X016051Y017034D02*
X016113Y017096D01*
X016236Y017096D01*
X016298Y017034D01*
X016298Y016973D01*
X016051Y016726D01*
X016298Y016726D01*
X016419Y016788D02*
X016481Y016726D01*
X016604Y016726D01*
X016666Y016788D01*
X016666Y017034D01*
X016604Y017096D01*
X016481Y017096D01*
X016419Y017034D01*
X016419Y016973D01*
X016481Y016911D01*
X016666Y016911D01*
X017051Y016788D02*
X017113Y016726D01*
X017236Y016726D01*
X017298Y016788D01*
X017298Y016849D01*
X017236Y016911D01*
X017174Y016911D01*
X017236Y016911D02*
X017298Y016973D01*
X017298Y017034D01*
X017236Y017096D01*
X017113Y017096D01*
X017051Y017034D01*
X017419Y016973D02*
X017543Y017096D01*
X017543Y016726D01*
X017666Y016726D02*
X017419Y016726D01*
X017419Y014676D02*
X017666Y014676D01*
X012666Y004676D02*
X012419Y004676D01*
D14*
X018081Y005131D03*
X018091Y005131D03*
X018101Y005131D03*
X018111Y005131D03*
X018121Y005131D03*
X018131Y005131D03*
X018141Y005131D03*
X018151Y005131D03*
X018161Y005131D03*
X018171Y005131D03*
X018181Y005131D03*
X018191Y005131D03*
X018201Y005131D03*
X018211Y005131D03*
X018221Y005131D03*
X018231Y005131D03*
X018241Y005131D03*
X018251Y005131D03*
X018261Y005131D03*
X018271Y005131D03*
X018281Y005131D03*
X018291Y005131D03*
X018301Y005131D03*
X018311Y005131D03*
X018321Y005131D03*
X018331Y005131D03*
X018341Y005131D03*
X018351Y005131D03*
X019281Y005131D03*
X019291Y005131D03*
X019301Y005131D03*
X019311Y005131D03*
X019321Y005131D03*
X019331Y005131D03*
X019341Y005131D03*
X019351Y005131D03*
X019361Y005131D03*
X019371Y005131D03*
X019381Y005131D03*
X019391Y005131D03*
X019401Y005131D03*
X019411Y005131D03*
X019421Y005131D03*
X019431Y005131D03*
X019441Y005131D03*
X019451Y005131D03*
X019461Y005131D03*
X019471Y005131D03*
X019481Y005131D03*
X019491Y005131D03*
X019501Y005131D03*
X019511Y005131D03*
X019481Y014841D03*
X019471Y014841D03*
X019461Y014841D03*
X019451Y014841D03*
X019441Y014841D03*
X019431Y014841D03*
X019421Y014841D03*
X019411Y014841D03*
X019401Y014841D03*
X019391Y014841D03*
X019381Y014841D03*
X019371Y014841D03*
X019361Y014841D03*
X019351Y014841D03*
X019341Y014841D03*
X019331Y014841D03*
X019321Y014841D03*
X019311Y014841D03*
X019301Y014841D03*
X019291Y014841D03*
X019281Y014841D03*
X019271Y014841D03*
X019261Y014841D03*
X019251Y014841D03*
X018321Y014841D03*
X018311Y014841D03*
X018301Y014841D03*
X018291Y014841D03*
X018281Y014841D03*
X018271Y014841D03*
X018261Y014841D03*
X018251Y014841D03*
X018241Y014841D03*
X018231Y014841D03*
X018221Y014841D03*
X018211Y014841D03*
X018201Y014841D03*
X018191Y014841D03*
X018181Y014841D03*
X018171Y014841D03*
X018161Y014841D03*
X018151Y014841D03*
X018141Y014841D03*
X018131Y014841D03*
X018121Y014841D03*
X018111Y014841D03*
X018101Y014841D03*
X018091Y014841D03*
X018081Y014841D03*
X018071Y014841D03*
X018061Y014841D03*
X018051Y014841D03*
X001701Y014911D03*
X001691Y014911D03*
X001681Y014911D03*
X001671Y014911D03*
X001661Y014911D03*
X001651Y014911D03*
X001641Y014911D03*
X001631Y014911D03*
X001621Y014911D03*
X001611Y014911D03*
X001601Y014911D03*
X001591Y014911D03*
X001581Y014911D03*
X001571Y014911D03*
X001561Y014911D03*
X001551Y014911D03*
X001541Y014911D03*
X001531Y014911D03*
X001521Y014911D03*
X001511Y014911D03*
X001501Y014911D03*
X001491Y014911D03*
X001481Y014911D03*
X001471Y014911D03*
X001461Y014911D03*
X001451Y014911D03*
X001441Y014911D03*
X001431Y014911D03*
X000501Y014911D03*
X000491Y014911D03*
X000481Y014911D03*
X000471Y014911D03*
X000461Y014911D03*
X000451Y014911D03*
X000441Y014911D03*
X000431Y014911D03*
X000421Y014911D03*
X000411Y014911D03*
X000401Y014911D03*
X000391Y014911D03*
X000381Y014911D03*
X000371Y014911D03*
X000361Y014911D03*
X000351Y014911D03*
X000341Y014911D03*
X000331Y014911D03*
X000321Y014911D03*
X000311Y014911D03*
X000301Y014911D03*
X000291Y014911D03*
X000281Y014911D03*
X000271Y014911D03*
X000311Y005071D03*
X000321Y005071D03*
X000331Y005071D03*
X000341Y005071D03*
X000351Y005071D03*
X000361Y005071D03*
X000371Y005071D03*
X000381Y005071D03*
X000391Y005071D03*
X000401Y005071D03*
X000411Y005071D03*
X000421Y005071D03*
X000431Y005071D03*
X000441Y005071D03*
X000451Y005071D03*
X000461Y005071D03*
X000471Y005071D03*
X000481Y005071D03*
X000491Y005071D03*
X000501Y005071D03*
X000511Y005071D03*
X000521Y005071D03*
X000531Y005071D03*
X000541Y005071D03*
X001471Y005071D03*
X001481Y005071D03*
X001491Y005071D03*
X001501Y005071D03*
X001511Y005071D03*
X001521Y005071D03*
X001531Y005071D03*
X001541Y005071D03*
X001551Y005071D03*
X001561Y005071D03*
X001571Y005071D03*
X001581Y005071D03*
X001591Y005071D03*
X001601Y005071D03*
X001611Y005071D03*
X001621Y005071D03*
X001631Y005071D03*
X001641Y005071D03*
X001651Y005071D03*
X001661Y005071D03*
X001671Y005071D03*
X001681Y005071D03*
X001691Y005071D03*
X001701Y005071D03*
X001711Y005071D03*
X001721Y005071D03*
X001731Y005071D03*
X001741Y005071D03*
D15*
X000591Y003836D03*
X000551Y007006D03*
X001461Y007006D03*
X000551Y013676D03*
X000511Y016846D03*
X001421Y016846D03*
X018331Y012906D03*
X019241Y012906D03*
X019201Y016076D03*
X019231Y006366D03*
X019271Y003196D03*
X018361Y003196D03*
D16*
X018361Y005501D03*
X019271Y005501D03*
X019241Y015211D03*
X018331Y015211D03*
X001421Y014541D03*
X000511Y014541D03*
X000551Y004701D03*
X001461Y004701D03*
D17*
X000611Y003816D03*
X000561Y007026D03*
X001451Y007026D03*
X000571Y013656D03*
X000521Y016866D03*
X001411Y016866D03*
X018341Y012886D03*
X019231Y012886D03*
X019181Y016096D03*
X019211Y006386D03*
X019261Y003176D03*
X018371Y003176D03*
D18*
X019261Y003926D03*
X018661Y004586D03*
X018651Y004586D03*
X018641Y004586D03*
X018631Y004586D03*
X018621Y004586D03*
X018611Y004586D03*
X018601Y004586D03*
X018591Y004586D03*
X018581Y004586D03*
X018571Y004586D03*
X018561Y004586D03*
X018551Y004586D03*
X018541Y004586D03*
X018531Y004586D03*
X018521Y004586D03*
X018511Y004586D03*
X018501Y004586D03*
X018491Y004586D03*
X018481Y004586D03*
X018471Y004586D03*
X019161Y006426D03*
X019231Y013636D03*
X018631Y014296D03*
X018621Y014296D03*
X018611Y014296D03*
X018601Y014296D03*
X018591Y014296D03*
X018581Y014296D03*
X018571Y014296D03*
X018561Y014296D03*
X018551Y014296D03*
X018541Y014296D03*
X018531Y014296D03*
X018521Y014296D03*
X018511Y014296D03*
X018501Y014296D03*
X018491Y014296D03*
X018481Y014296D03*
X018471Y014296D03*
X018461Y014296D03*
X018451Y014296D03*
X018441Y014296D03*
X019131Y016136D03*
X001311Y015456D03*
X001301Y015456D03*
X001291Y015456D03*
X001281Y015456D03*
X001271Y015456D03*
X001261Y015456D03*
X001251Y015456D03*
X001241Y015456D03*
X001231Y015456D03*
X001221Y015456D03*
X001211Y015456D03*
X001201Y015456D03*
X001191Y015456D03*
X001181Y015456D03*
X001171Y015456D03*
X001161Y015456D03*
X001151Y015456D03*
X001141Y015456D03*
X001131Y015456D03*
X001121Y015456D03*
X000521Y016116D03*
X000621Y013616D03*
X000561Y006276D03*
X001161Y005616D03*
X001171Y005616D03*
X001181Y005616D03*
X001191Y005616D03*
X001201Y005616D03*
X001211Y005616D03*
X001221Y005616D03*
X001231Y005616D03*
X001241Y005616D03*
X001251Y005616D03*
X001261Y005616D03*
X001271Y005616D03*
X001281Y005616D03*
X001291Y005616D03*
X001301Y005616D03*
X001311Y005616D03*
X001321Y005616D03*
X001331Y005616D03*
X001341Y005616D03*
X001351Y005616D03*
X000661Y003776D03*
D19*
X000901Y004271D03*
X000911Y004271D03*
X000921Y004271D03*
X001091Y004271D03*
X001101Y004271D03*
X001111Y004271D03*
X000561Y005331D03*
X000601Y006251D03*
X000861Y006641D03*
X001151Y006631D03*
X001411Y006251D03*
X001331Y007121D03*
X000681Y007121D03*
X000961Y003021D03*
X000921Y012861D03*
X000881Y014111D03*
X000871Y014111D03*
X000861Y014111D03*
X001051Y014111D03*
X001061Y014111D03*
X001071Y014111D03*
X000521Y015171D03*
X000561Y016091D03*
X000821Y016481D03*
X001111Y016471D03*
X001371Y016091D03*
X001291Y016961D03*
X000641Y016961D03*
X018381Y013661D03*
X018641Y013281D03*
X018931Y013271D03*
X019191Y013661D03*
X019111Y012791D03*
X018461Y012791D03*
X019231Y014581D03*
X018891Y015641D03*
X018881Y015641D03*
X018871Y015641D03*
X018701Y015641D03*
X018691Y015641D03*
X018681Y015641D03*
X018831Y016891D03*
X018861Y007181D03*
X018901Y005931D03*
X018911Y005931D03*
X018921Y005931D03*
X018731Y005931D03*
X018721Y005931D03*
X018711Y005931D03*
X019261Y004871D03*
X019221Y003951D03*
X018961Y003561D03*
X018671Y003571D03*
X018411Y003951D03*
X018491Y003081D03*
X019141Y003081D03*
D20*
X018891Y003021D03*
X018881Y003021D03*
X018871Y003021D03*
X018861Y003021D03*
X018851Y003021D03*
X018841Y003021D03*
X018831Y003021D03*
X018821Y003021D03*
X018811Y003021D03*
X018801Y003021D03*
X018791Y003021D03*
X018781Y003021D03*
X018771Y003021D03*
X018761Y003021D03*
X018751Y003021D03*
X018741Y003021D03*
X018521Y004011D03*
X018511Y004011D03*
X019121Y004011D03*
X019261Y005511D03*
X019041Y005881D03*
X018591Y005881D03*
X018471Y006301D03*
X018841Y006441D03*
X018851Y006441D03*
X018631Y006781D03*
X018661Y007241D03*
X018671Y007241D03*
X018711Y012731D03*
X018721Y012731D03*
X018731Y012731D03*
X018741Y012731D03*
X018751Y012731D03*
X018761Y012731D03*
X018771Y012731D03*
X018781Y012731D03*
X018791Y012731D03*
X018801Y012731D03*
X018811Y012731D03*
X018821Y012731D03*
X018831Y012731D03*
X018841Y012731D03*
X018851Y012731D03*
X018861Y012731D03*
X019091Y013721D03*
X018491Y013721D03*
X018481Y013721D03*
X019231Y015221D03*
X019011Y015591D03*
X018561Y015591D03*
X018441Y016011D03*
X018811Y016151D03*
X018821Y016151D03*
X018601Y016491D03*
X018631Y016951D03*
X018641Y016951D03*
X001271Y016031D03*
X001261Y016031D03*
X000661Y016031D03*
X000891Y017021D03*
X000901Y017021D03*
X000911Y017021D03*
X000921Y017021D03*
X000931Y017021D03*
X000941Y017021D03*
X000951Y017021D03*
X000961Y017021D03*
X000971Y017021D03*
X000981Y017021D03*
X000991Y017021D03*
X001001Y017021D03*
X001011Y017021D03*
X001021Y017021D03*
X001031Y017021D03*
X001041Y017021D03*
X000521Y014531D03*
X000741Y014161D03*
X001191Y014161D03*
X001311Y013741D03*
X000941Y013601D03*
X000931Y013601D03*
X001151Y013261D03*
X001121Y012801D03*
X001111Y012801D03*
X001081Y007181D03*
X001071Y007181D03*
X001061Y007181D03*
X001051Y007181D03*
X001041Y007181D03*
X001031Y007181D03*
X001021Y007181D03*
X001011Y007181D03*
X001001Y007181D03*
X000991Y007181D03*
X000981Y007181D03*
X000971Y007181D03*
X000961Y007181D03*
X000951Y007181D03*
X000941Y007181D03*
X000931Y007181D03*
X000701Y006191D03*
X001301Y006191D03*
X001311Y006191D03*
X000561Y004691D03*
X000781Y004321D03*
X001231Y004321D03*
X001351Y003901D03*
X000981Y003761D03*
X000971Y003761D03*
X001191Y003421D03*
X001161Y002961D03*
X001151Y002961D03*
D21*
X000561Y003551D03*
X000521Y013391D03*
X019231Y016361D03*
X019261Y006651D03*
D22*
X019011Y005301D03*
X019001Y005301D03*
X018991Y005301D03*
X018981Y005301D03*
X018971Y005301D03*
X018961Y005301D03*
X018951Y005301D03*
X018941Y005301D03*
X018931Y005301D03*
X018921Y005301D03*
X018681Y005301D03*
X018671Y005301D03*
X018661Y005301D03*
X018651Y005301D03*
X018641Y005301D03*
X018631Y005301D03*
X018621Y005301D03*
X018611Y005301D03*
X018601Y005301D03*
X018591Y005301D03*
X018381Y003161D03*
X019251Y003161D03*
X019221Y012871D03*
X018351Y012871D03*
X018561Y015011D03*
X018571Y015011D03*
X018581Y015011D03*
X018591Y015011D03*
X018601Y015011D03*
X018611Y015011D03*
X018621Y015011D03*
X018631Y015011D03*
X018641Y015011D03*
X018651Y015011D03*
X018891Y015011D03*
X018901Y015011D03*
X018911Y015011D03*
X018921Y015011D03*
X018931Y015011D03*
X018941Y015011D03*
X018951Y015011D03*
X018961Y015011D03*
X018971Y015011D03*
X018981Y015011D03*
X001401Y016881D03*
X000531Y016881D03*
X000771Y014741D03*
X000781Y014741D03*
X000791Y014741D03*
X000801Y014741D03*
X000811Y014741D03*
X000821Y014741D03*
X000831Y014741D03*
X000841Y014741D03*
X000851Y014741D03*
X000861Y014741D03*
X001101Y014741D03*
X001111Y014741D03*
X001121Y014741D03*
X001131Y014741D03*
X001141Y014741D03*
X001151Y014741D03*
X001161Y014741D03*
X001171Y014741D03*
X001181Y014741D03*
X001191Y014741D03*
X001441Y007041D03*
X000571Y007041D03*
X000811Y004901D03*
X000821Y004901D03*
X000831Y004901D03*
X000841Y004901D03*
X000851Y004901D03*
X000861Y004901D03*
X000871Y004901D03*
X000881Y004901D03*
X000891Y004901D03*
X000901Y004901D03*
X001141Y004901D03*
X001151Y004901D03*
X001161Y004901D03*
X001171Y004901D03*
X001181Y004901D03*
X001191Y004901D03*
X001201Y004901D03*
X001211Y004901D03*
X001221Y004901D03*
X001231Y004901D03*
D23*
X000731Y003746D03*
X000861Y003056D03*
X000571Y006276D03*
X000921Y006636D03*
X000931Y006636D03*
X001081Y006636D03*
X001091Y006636D03*
X001441Y006276D03*
X001391Y007086D03*
X000621Y007086D03*
X000821Y012896D03*
X000691Y013586D03*
X000531Y016116D03*
X000881Y016476D03*
X000891Y016476D03*
X001041Y016476D03*
X001051Y016476D03*
X001401Y016116D03*
X001351Y016926D03*
X000581Y016926D03*
X018351Y013636D03*
X018701Y013276D03*
X018711Y013276D03*
X018861Y013276D03*
X018871Y013276D03*
X019221Y013636D03*
X019171Y012826D03*
X018401Y012826D03*
X019061Y016166D03*
X018931Y016856D03*
X018961Y007146D03*
X019091Y006456D03*
X019251Y003926D03*
X018901Y003566D03*
X018891Y003566D03*
X018741Y003566D03*
X018731Y003566D03*
X018381Y003926D03*
X018431Y003116D03*
X019201Y003116D03*
D24*
X018381Y004241D03*
X019051Y004401D03*
X019051Y004771D03*
X019061Y004771D03*
X019071Y004771D03*
X019081Y004771D03*
X019091Y004771D03*
X019101Y004771D03*
X019111Y004771D03*
X019121Y004771D03*
X019131Y004771D03*
X019201Y004761D03*
X019211Y004761D03*
X019221Y004761D03*
X019231Y004761D03*
X019241Y004761D03*
X019251Y004761D03*
X018721Y006781D03*
X018711Y006781D03*
X018351Y013951D03*
X019021Y014111D03*
X019021Y014481D03*
X019031Y014481D03*
X019041Y014481D03*
X019051Y014481D03*
X019061Y014481D03*
X019071Y014481D03*
X019081Y014481D03*
X019091Y014481D03*
X019101Y014481D03*
X019171Y014471D03*
X019181Y014471D03*
X019191Y014471D03*
X019201Y014471D03*
X019211Y014471D03*
X019221Y014471D03*
X018691Y016491D03*
X018681Y016491D03*
X001401Y015801D03*
X000731Y015641D03*
X000731Y015271D03*
X000721Y015271D03*
X000711Y015271D03*
X000701Y015271D03*
X000691Y015271D03*
X000681Y015271D03*
X000671Y015271D03*
X000661Y015271D03*
X000651Y015271D03*
X000581Y015281D03*
X000571Y015281D03*
X000561Y015281D03*
X000551Y015281D03*
X000541Y015281D03*
X000531Y015281D03*
X001061Y013261D03*
X001071Y013261D03*
X001441Y005961D03*
X000771Y005801D03*
X000771Y005431D03*
X000761Y005431D03*
X000751Y005431D03*
X000741Y005431D03*
X000731Y005431D03*
X000721Y005431D03*
X000711Y005431D03*
X000701Y005431D03*
X000691Y005431D03*
X000621Y005441D03*
X000611Y005441D03*
X000601Y005441D03*
X000591Y005441D03*
X000581Y005441D03*
X000571Y005441D03*
X001101Y003421D03*
X001111Y003421D03*
D25*
X001131Y003816D03*
X001141Y003826D03*
X001151Y003826D03*
X001171Y003836D03*
X001201Y003846D03*
X001211Y003846D03*
X001241Y004726D03*
X001251Y004726D03*
X001261Y004726D03*
X001271Y004726D03*
X001281Y004726D03*
X001291Y004726D03*
X001301Y004726D03*
X001311Y004726D03*
X001321Y004726D03*
X001331Y004726D03*
X001341Y004726D03*
X001351Y004726D03*
X001361Y004726D03*
X001241Y005066D03*
X000601Y004726D03*
X000591Y004726D03*
X000581Y004726D03*
X000571Y004726D03*
X000931Y006136D03*
X000941Y006136D03*
X000951Y006136D03*
X000961Y006136D03*
X000971Y006136D03*
X000981Y006136D03*
X000991Y006136D03*
X001001Y006136D03*
X001011Y006136D03*
X001021Y006136D03*
X001031Y006136D03*
X001041Y006136D03*
X001051Y006136D03*
X001061Y006136D03*
X001071Y006136D03*
X001081Y006136D03*
X001091Y013656D03*
X001101Y013666D03*
X001111Y013666D03*
X001131Y013676D03*
X001161Y013686D03*
X001171Y013686D03*
X001201Y014566D03*
X001211Y014566D03*
X001221Y014566D03*
X001231Y014566D03*
X001241Y014566D03*
X001251Y014566D03*
X001261Y014566D03*
X001271Y014566D03*
X001281Y014566D03*
X001291Y014566D03*
X001301Y014566D03*
X001311Y014566D03*
X001321Y014566D03*
X001201Y014906D03*
X000561Y014566D03*
X000551Y014566D03*
X000541Y014566D03*
X000531Y014566D03*
X000891Y015976D03*
X000901Y015976D03*
X000911Y015976D03*
X000921Y015976D03*
X000931Y015976D03*
X000941Y015976D03*
X000951Y015976D03*
X000961Y015976D03*
X000971Y015976D03*
X000981Y015976D03*
X000991Y015976D03*
X001001Y015976D03*
X001011Y015976D03*
X001021Y015976D03*
X001031Y015976D03*
X001041Y015976D03*
X018431Y015186D03*
X018441Y015186D03*
X018451Y015186D03*
X018461Y015186D03*
X018471Y015186D03*
X018481Y015186D03*
X018491Y015186D03*
X018501Y015186D03*
X018511Y015186D03*
X018521Y015186D03*
X018531Y015186D03*
X018541Y015186D03*
X018551Y015186D03*
X018551Y014846D03*
X019191Y015186D03*
X019201Y015186D03*
X019211Y015186D03*
X019221Y015186D03*
X018651Y016086D03*
X018641Y016086D03*
X018661Y016096D03*
X018621Y016076D03*
X018591Y016066D03*
X018581Y016066D03*
X018711Y013776D03*
X018721Y013776D03*
X018731Y013776D03*
X018741Y013776D03*
X018751Y013776D03*
X018761Y013776D03*
X018771Y013776D03*
X018781Y013776D03*
X018791Y013776D03*
X018801Y013776D03*
X018811Y013776D03*
X018821Y013776D03*
X018831Y013776D03*
X018841Y013776D03*
X018851Y013776D03*
X018861Y013776D03*
X018691Y006386D03*
X018681Y006376D03*
X018671Y006376D03*
X018651Y006366D03*
X018621Y006356D03*
X018611Y006356D03*
X018581Y005476D03*
X018571Y005476D03*
X018561Y005476D03*
X018551Y005476D03*
X018541Y005476D03*
X018531Y005476D03*
X018521Y005476D03*
X018511Y005476D03*
X018501Y005476D03*
X018491Y005476D03*
X018481Y005476D03*
X018471Y005476D03*
X018461Y005476D03*
X018581Y005136D03*
X019221Y005476D03*
X019231Y005476D03*
X019241Y005476D03*
X019251Y005476D03*
X018891Y004066D03*
X018881Y004066D03*
X018871Y004066D03*
X018861Y004066D03*
X018851Y004066D03*
X018841Y004066D03*
X018831Y004066D03*
X018821Y004066D03*
X018811Y004066D03*
X018801Y004066D03*
X018791Y004066D03*
X018781Y004066D03*
X018771Y004066D03*
X018761Y004066D03*
X018751Y004066D03*
X018741Y004066D03*
D26*
X019251Y006341D03*
X019221Y016051D03*
X000531Y013701D03*
X000571Y003861D03*
D27*
X000681Y003766D03*
X000681Y003076D03*
X000691Y003076D03*
X000701Y003076D03*
X000671Y003076D03*
X000661Y003076D03*
X000651Y003076D03*
X000641Y003076D03*
X000631Y003076D03*
X000621Y003076D03*
X000611Y003076D03*
X000601Y003076D03*
X000591Y003076D03*
X000581Y003076D03*
X000571Y003076D03*
X000801Y003076D03*
X000811Y003076D03*
X001441Y004016D03*
X001431Y005616D03*
X001421Y005616D03*
X001411Y005616D03*
X001401Y005616D03*
X001391Y005616D03*
X000771Y012916D03*
X000761Y012916D03*
X000661Y012916D03*
X000651Y012916D03*
X000641Y012916D03*
X000631Y012916D03*
X000621Y012916D03*
X000611Y012916D03*
X000601Y012916D03*
X000591Y012916D03*
X000581Y012916D03*
X000571Y012916D03*
X000561Y012916D03*
X000551Y012916D03*
X000541Y012916D03*
X000531Y012916D03*
X000641Y013606D03*
X001401Y013856D03*
X001391Y015456D03*
X001381Y015456D03*
X001371Y015456D03*
X001361Y015456D03*
X001351Y015456D03*
X018351Y015896D03*
X019111Y016146D03*
X019111Y016836D03*
X019121Y016836D03*
X019131Y016836D03*
X019141Y016836D03*
X019151Y016836D03*
X019161Y016836D03*
X019171Y016836D03*
X019181Y016836D03*
X019191Y016836D03*
X019201Y016836D03*
X019211Y016836D03*
X019221Y016836D03*
X019101Y016836D03*
X019091Y016836D03*
X018991Y016836D03*
X018981Y016836D03*
X018401Y014296D03*
X018391Y014296D03*
X018381Y014296D03*
X018371Y014296D03*
X018361Y014296D03*
X019011Y007126D03*
X019021Y007126D03*
X019121Y007126D03*
X019131Y007126D03*
X019141Y007126D03*
X019151Y007126D03*
X019161Y007126D03*
X019171Y007126D03*
X019181Y007126D03*
X019191Y007126D03*
X019201Y007126D03*
X019211Y007126D03*
X019221Y007126D03*
X019231Y007126D03*
X019241Y007126D03*
X019251Y007126D03*
X019141Y006436D03*
X018381Y006186D03*
X018391Y004586D03*
X018401Y004586D03*
X018411Y004586D03*
X018421Y004586D03*
X018431Y004586D03*
D28*
X018671Y004581D03*
X018931Y004581D03*
X018941Y004581D03*
X018951Y004581D03*
X018961Y004581D03*
X018971Y004581D03*
X018981Y004581D03*
X018991Y004581D03*
X019001Y004581D03*
X019011Y004581D03*
X019021Y004581D03*
X019031Y004581D03*
X019041Y004581D03*
X019031Y005311D03*
X019171Y006421D03*
X019241Y003151D03*
X018391Y003151D03*
X018361Y012861D03*
X019211Y012861D03*
X019011Y014291D03*
X019001Y014291D03*
X018991Y014291D03*
X018981Y014291D03*
X018971Y014291D03*
X018961Y014291D03*
X018951Y014291D03*
X018941Y014291D03*
X018931Y014291D03*
X018921Y014291D03*
X018911Y014291D03*
X018901Y014291D03*
X018641Y014291D03*
X019001Y015021D03*
X019141Y016131D03*
X001431Y007051D03*
X000581Y007051D03*
X000781Y005621D03*
X000791Y005621D03*
X000801Y005621D03*
X000811Y005621D03*
X000821Y005621D03*
X000831Y005621D03*
X000841Y005621D03*
X000851Y005621D03*
X000861Y005621D03*
X000871Y005621D03*
X000881Y005621D03*
X000891Y005621D03*
X001151Y005621D03*
X000791Y004891D03*
X000651Y003781D03*
X000611Y013621D03*
X000751Y014731D03*
X000751Y015461D03*
X000761Y015461D03*
X000771Y015461D03*
X000781Y015461D03*
X000791Y015461D03*
X000801Y015461D03*
X000811Y015461D03*
X000821Y015461D03*
X000831Y015461D03*
X000841Y015461D03*
X000851Y015461D03*
X000741Y015461D03*
X001111Y015461D03*
X001391Y016891D03*
X000541Y016891D03*
D29*
X000601Y016941D03*
X000851Y016481D03*
X001081Y016471D03*
X001391Y016111D03*
X000541Y016111D03*
X001331Y016941D03*
X000751Y013571D03*
X000741Y013571D03*
X000861Y012881D03*
X000641Y007101D03*
X000891Y006641D03*
X001121Y006631D03*
X001431Y006271D03*
X001371Y007101D03*
X000581Y006271D03*
X000781Y003731D03*
X000791Y003731D03*
X000901Y003041D03*
X018391Y003931D03*
X018701Y003571D03*
X018931Y003561D03*
X019241Y003931D03*
X019181Y003101D03*
X018451Y003101D03*
X019031Y006471D03*
X019041Y006471D03*
X018921Y007161D03*
X019151Y012811D03*
X018901Y013271D03*
X018671Y013281D03*
X018361Y013641D03*
X018421Y012811D03*
X019211Y013641D03*
X019011Y016181D03*
X019001Y016181D03*
X018891Y016871D03*
D30*
X019211Y016061D03*
X019241Y006351D03*
X000581Y003851D03*
X000541Y013691D03*
D31*
X000631Y013611D03*
X000671Y012921D03*
X000681Y012921D03*
X000691Y012921D03*
X000701Y012921D03*
X000711Y012921D03*
X000721Y012921D03*
X000731Y012921D03*
X000741Y012921D03*
X000751Y012921D03*
X001321Y015451D03*
X001331Y015451D03*
X001341Y015451D03*
X001401Y015451D03*
X001381Y016901D03*
X000551Y016901D03*
X000591Y007061D03*
X001421Y007061D03*
X001441Y005611D03*
X001381Y005611D03*
X001371Y005611D03*
X001361Y005611D03*
X000671Y003771D03*
X000711Y003081D03*
X000721Y003081D03*
X000731Y003081D03*
X000741Y003081D03*
X000751Y003081D03*
X000761Y003081D03*
X000771Y003081D03*
X000781Y003081D03*
X000791Y003081D03*
X018401Y003141D03*
X019231Y003141D03*
X018461Y004591D03*
X018451Y004591D03*
X018441Y004591D03*
X018381Y004591D03*
X019151Y006431D03*
X019111Y007121D03*
X019101Y007121D03*
X019091Y007121D03*
X019081Y007121D03*
X019071Y007121D03*
X019061Y007121D03*
X019051Y007121D03*
X019041Y007121D03*
X019031Y007121D03*
X019201Y012851D03*
X018371Y012851D03*
X018351Y014301D03*
X018411Y014301D03*
X018421Y014301D03*
X018431Y014301D03*
X019121Y016141D03*
X019081Y016831D03*
X019071Y016831D03*
X019061Y016831D03*
X019051Y016831D03*
X019041Y016831D03*
X019031Y016831D03*
X019021Y016831D03*
X019011Y016831D03*
X019001Y016831D03*
D32*
X018851Y016886D03*
X018841Y016886D03*
X018961Y016186D03*
X018971Y016186D03*
X018861Y015646D03*
X018851Y015646D03*
X018841Y015646D03*
X018831Y015646D03*
X018821Y015646D03*
X018811Y015646D03*
X018801Y015646D03*
X018791Y015646D03*
X018781Y015646D03*
X018771Y015646D03*
X018761Y015646D03*
X018751Y015646D03*
X018741Y015646D03*
X018731Y015646D03*
X018721Y015646D03*
X018711Y015646D03*
X019201Y013656D03*
X018651Y013276D03*
X018451Y012796D03*
X019121Y012796D03*
X018881Y007176D03*
X018871Y007176D03*
X018991Y006476D03*
X019001Y006476D03*
X018891Y005936D03*
X018881Y005936D03*
X018871Y005936D03*
X018861Y005936D03*
X018851Y005936D03*
X018841Y005936D03*
X018831Y005936D03*
X018821Y005936D03*
X018811Y005936D03*
X018801Y005936D03*
X018791Y005936D03*
X018781Y005936D03*
X018771Y005936D03*
X018761Y005936D03*
X018751Y005936D03*
X018741Y005936D03*
X019231Y003946D03*
X018681Y003566D03*
X018481Y003086D03*
X019151Y003086D03*
X001341Y007116D03*
X001141Y006636D03*
X000671Y007116D03*
X000591Y006256D03*
X000931Y004266D03*
X000941Y004266D03*
X000951Y004266D03*
X000961Y004266D03*
X000971Y004266D03*
X000981Y004266D03*
X000991Y004266D03*
X001001Y004266D03*
X001011Y004266D03*
X001021Y004266D03*
X001031Y004266D03*
X001041Y004266D03*
X001051Y004266D03*
X001061Y004266D03*
X001071Y004266D03*
X001081Y004266D03*
X000831Y003726D03*
X000821Y003726D03*
X000941Y003026D03*
X000951Y003026D03*
X000911Y012866D03*
X000901Y012866D03*
X000791Y013566D03*
X000781Y013566D03*
X000891Y014106D03*
X000901Y014106D03*
X000911Y014106D03*
X000921Y014106D03*
X000931Y014106D03*
X000941Y014106D03*
X000951Y014106D03*
X000961Y014106D03*
X000971Y014106D03*
X000981Y014106D03*
X000991Y014106D03*
X001001Y014106D03*
X001011Y014106D03*
X001021Y014106D03*
X001031Y014106D03*
X001041Y014106D03*
X000551Y016096D03*
X001101Y016476D03*
X001301Y016956D03*
X000631Y016956D03*
D33*
X000561Y016911D03*
X001371Y016911D03*
X000651Y013601D03*
X000781Y012911D03*
X000791Y012911D03*
X000601Y007071D03*
X001411Y007071D03*
X000691Y003761D03*
X000821Y003071D03*
X000831Y003071D03*
X018411Y003131D03*
X019221Y003131D03*
X019131Y006441D03*
X019001Y007131D03*
X018991Y007131D03*
X019191Y012841D03*
X018381Y012841D03*
X019101Y016151D03*
X018971Y016841D03*
X018961Y016841D03*
D34*
X019191Y016086D03*
X019221Y006376D03*
X000601Y003826D03*
X000561Y013666D03*
D35*
X000681Y013591D03*
X000811Y012901D03*
X001031Y016471D03*
X001361Y016921D03*
X000571Y016921D03*
X000611Y007081D03*
X001071Y006631D03*
X001401Y007081D03*
X000721Y003751D03*
X000851Y003061D03*
X018421Y003121D03*
X018751Y003571D03*
X019211Y003121D03*
X019101Y006451D03*
X018971Y007141D03*
X019181Y012831D03*
X018721Y013281D03*
X018391Y012831D03*
X019071Y016161D03*
X018941Y016851D03*
D36*
X018801Y016901D03*
X018931Y016181D03*
X018941Y016181D03*
X018931Y015631D03*
X018921Y015631D03*
X018651Y015631D03*
X018641Y015631D03*
X018391Y013671D03*
X018631Y013281D03*
X018491Y012781D03*
X018481Y012781D03*
X019081Y012781D03*
X019091Y012781D03*
X019181Y013671D03*
X018831Y007191D03*
X018961Y006471D03*
X018971Y006471D03*
X018961Y005921D03*
X018951Y005921D03*
X018681Y005921D03*
X018671Y005921D03*
X018421Y003961D03*
X018661Y003571D03*
X018521Y003071D03*
X018511Y003071D03*
X019111Y003071D03*
X019121Y003071D03*
X019211Y003961D03*
X001401Y006241D03*
X001161Y006631D03*
X001301Y007131D03*
X001311Y007131D03*
X000711Y007131D03*
X000701Y007131D03*
X000611Y006241D03*
X000861Y004281D03*
X000871Y004281D03*
X001141Y004281D03*
X001151Y004281D03*
X000861Y003731D03*
X000851Y003731D03*
X000991Y003011D03*
X000951Y012851D03*
X000821Y013571D03*
X000811Y013571D03*
X000821Y014121D03*
X000831Y014121D03*
X001101Y014121D03*
X001111Y014121D03*
X001361Y016081D03*
X001121Y016471D03*
X001261Y016971D03*
X001271Y016971D03*
X000671Y016971D03*
X000661Y016971D03*
X000571Y016081D03*
D37*
X000581Y014561D03*
X000591Y014561D03*
X000601Y014561D03*
X000611Y014561D03*
X000621Y014561D03*
X000631Y014561D03*
X000571Y014561D03*
X000721Y014551D03*
X000731Y014551D03*
X000741Y014551D03*
X001141Y013681D03*
X001151Y013681D03*
X001121Y013671D03*
X001081Y013261D03*
X000671Y004721D03*
X000661Y004721D03*
X000651Y004721D03*
X000641Y004721D03*
X000631Y004721D03*
X000621Y004721D03*
X000611Y004721D03*
X000761Y004711D03*
X000771Y004711D03*
X000781Y004711D03*
X001181Y003841D03*
X001191Y003841D03*
X001161Y003831D03*
X001121Y003421D03*
X018631Y006361D03*
X018641Y006361D03*
X018661Y006371D03*
X018701Y006781D03*
X019041Y005491D03*
X019051Y005491D03*
X019061Y005491D03*
X019151Y005481D03*
X019161Y005481D03*
X019171Y005481D03*
X019181Y005481D03*
X019191Y005481D03*
X019201Y005481D03*
X019211Y005481D03*
X019181Y015191D03*
X019171Y015191D03*
X019161Y015191D03*
X019151Y015191D03*
X019141Y015191D03*
X019131Y015191D03*
X019121Y015191D03*
X019031Y015201D03*
X019021Y015201D03*
X019011Y015201D03*
X018611Y016071D03*
X018601Y016071D03*
X018631Y016081D03*
X018671Y016491D03*
D38*
X018921Y016176D03*
X018941Y015626D03*
X018631Y015626D03*
X018781Y016906D03*
X018791Y016906D03*
X019171Y013676D03*
X018951Y013276D03*
X018621Y013276D03*
X018401Y013676D03*
X018501Y012776D03*
X019071Y012776D03*
X018821Y007196D03*
X018811Y007196D03*
X018951Y006466D03*
X018971Y005916D03*
X018661Y005916D03*
X018431Y003966D03*
X018651Y003566D03*
X018981Y003566D03*
X019201Y003966D03*
X019101Y003066D03*
X018531Y003066D03*
X001391Y006236D03*
X001171Y006636D03*
X000841Y006636D03*
X000621Y006236D03*
X000721Y007136D03*
X001291Y007136D03*
X001161Y004286D03*
X000851Y004286D03*
X000871Y003736D03*
X001001Y003006D03*
X001011Y003006D03*
X000971Y012846D03*
X000961Y012846D03*
X000831Y013576D03*
X000811Y014126D03*
X001121Y014126D03*
X001351Y016076D03*
X001131Y016476D03*
X000801Y016476D03*
X000581Y016076D03*
X000681Y016976D03*
X001251Y016976D03*
D39*
X000581Y013646D03*
X000591Y013636D03*
X000621Y003806D03*
X000631Y003796D03*
X019191Y006406D03*
X019201Y006396D03*
X019171Y016106D03*
X019161Y016116D03*
D40*
X019051Y016171D03*
X019041Y016171D03*
X018921Y016861D03*
X018911Y016861D03*
X018691Y013281D03*
X018881Y013271D03*
X019161Y012821D03*
X018411Y012821D03*
X018941Y007151D03*
X018951Y007151D03*
X019071Y006461D03*
X019081Y006461D03*
X018911Y003561D03*
X018721Y003571D03*
X018441Y003111D03*
X019191Y003111D03*
X001381Y007091D03*
X001101Y006631D03*
X000911Y006641D03*
X000631Y007091D03*
X000741Y003741D03*
X000751Y003741D03*
X000871Y003051D03*
X000881Y003051D03*
X000841Y012891D03*
X000831Y012891D03*
X000711Y013581D03*
X000701Y013581D03*
X000871Y016481D03*
X001061Y016471D03*
X001341Y016931D03*
X000591Y016931D03*
D41*
X000701Y016986D03*
X000711Y016986D03*
X001221Y016986D03*
X001231Y016986D03*
X001141Y016476D03*
X000791Y016476D03*
X000591Y016066D03*
X000781Y014136D03*
X000791Y014136D03*
X001141Y014136D03*
X000851Y013576D03*
X000841Y013576D03*
X000991Y012836D03*
X001001Y012836D03*
X000751Y007146D03*
X000741Y007146D03*
X000831Y006636D03*
X001181Y006636D03*
X001261Y007146D03*
X001271Y007146D03*
X000631Y006226D03*
X000821Y004296D03*
X000831Y004296D03*
X001181Y004296D03*
X000891Y003736D03*
X000881Y003736D03*
X001031Y002996D03*
X001041Y002996D03*
X018551Y003056D03*
X018561Y003056D03*
X019071Y003056D03*
X019081Y003056D03*
X018991Y003566D03*
X018641Y003566D03*
X019191Y003976D03*
X019001Y005906D03*
X018991Y005906D03*
X018641Y005906D03*
X018931Y006466D03*
X018941Y006466D03*
X018791Y007206D03*
X018781Y007206D03*
X018531Y012766D03*
X018521Y012766D03*
X018611Y013276D03*
X018961Y013276D03*
X019161Y013686D03*
X019051Y012766D03*
X019041Y012766D03*
X018971Y015616D03*
X018961Y015616D03*
X018611Y015616D03*
X018901Y016176D03*
X018911Y016176D03*
X018761Y016916D03*
X018751Y016916D03*
D42*
X019111Y014476D03*
X019121Y014476D03*
X019131Y014476D03*
X019141Y014476D03*
X019151Y014476D03*
X019161Y014476D03*
X019141Y004766D03*
X019151Y004766D03*
X019161Y004766D03*
X019171Y004766D03*
X019181Y004766D03*
X019191Y004766D03*
X000681Y005436D03*
X000671Y005436D03*
X000661Y005436D03*
X000651Y005436D03*
X000641Y005436D03*
X000631Y005436D03*
X000641Y015276D03*
X000631Y015276D03*
X000621Y015276D03*
X000611Y015276D03*
X000601Y015276D03*
X000591Y015276D03*
D43*
X000601Y016061D03*
X001331Y016061D03*
X001211Y016991D03*
X001201Y016991D03*
X000731Y016991D03*
X000721Y016991D03*
X000771Y014141D03*
X001151Y014141D03*
X001351Y013771D03*
X000861Y013581D03*
X001011Y012831D03*
X001241Y007151D03*
X001251Y007151D03*
X000771Y007151D03*
X000761Y007151D03*
X000641Y006221D03*
X001371Y006221D03*
X001191Y004301D03*
X000811Y004301D03*
X001391Y003931D03*
X000901Y003741D03*
X001051Y002991D03*
X018451Y003981D03*
X019181Y003981D03*
X019061Y003051D03*
X019051Y003051D03*
X018581Y003051D03*
X018571Y003051D03*
X018631Y005901D03*
X019011Y005901D03*
X018921Y006461D03*
X018431Y006271D03*
X018771Y007211D03*
X018551Y012761D03*
X018541Y012761D03*
X019021Y012761D03*
X019031Y012761D03*
X019151Y013691D03*
X018421Y013691D03*
X018601Y015611D03*
X018981Y015611D03*
X018891Y016171D03*
X018401Y015981D03*
X018741Y016921D03*
D44*
X019151Y016126D03*
X018991Y015016D03*
X018661Y015016D03*
X018661Y014296D03*
X018671Y014296D03*
X018681Y014296D03*
X018691Y014296D03*
X018701Y014296D03*
X018711Y014296D03*
X018721Y014296D03*
X018731Y014296D03*
X018741Y014296D03*
X018751Y014296D03*
X018761Y014296D03*
X018771Y014296D03*
X018781Y014296D03*
X018791Y014296D03*
X018801Y014296D03*
X018811Y014296D03*
X018821Y014296D03*
X018831Y014296D03*
X018841Y014296D03*
X018851Y014296D03*
X018861Y014296D03*
X018871Y014296D03*
X018881Y014296D03*
X018891Y014296D03*
X018651Y014296D03*
X019181Y006416D03*
X019021Y005306D03*
X018691Y005306D03*
X018691Y004586D03*
X018701Y004586D03*
X018711Y004586D03*
X018721Y004586D03*
X018731Y004586D03*
X018741Y004586D03*
X018751Y004586D03*
X018761Y004586D03*
X018771Y004586D03*
X018781Y004586D03*
X018791Y004586D03*
X018801Y004586D03*
X018811Y004586D03*
X018821Y004586D03*
X018831Y004586D03*
X018841Y004586D03*
X018851Y004586D03*
X018861Y004586D03*
X018871Y004586D03*
X018881Y004586D03*
X018891Y004586D03*
X018901Y004586D03*
X018911Y004586D03*
X018921Y004586D03*
X018681Y004586D03*
X001131Y004896D03*
X000801Y004896D03*
X000901Y005616D03*
X000911Y005616D03*
X000921Y005616D03*
X000931Y005616D03*
X000941Y005616D03*
X000951Y005616D03*
X000961Y005616D03*
X000971Y005616D03*
X000981Y005616D03*
X000991Y005616D03*
X001001Y005616D03*
X001011Y005616D03*
X001021Y005616D03*
X001031Y005616D03*
X001041Y005616D03*
X001051Y005616D03*
X001061Y005616D03*
X001071Y005616D03*
X001081Y005616D03*
X001091Y005616D03*
X001101Y005616D03*
X001111Y005616D03*
X001121Y005616D03*
X001131Y005616D03*
X001141Y005616D03*
X000641Y003786D03*
X000601Y013626D03*
X000761Y014736D03*
X001091Y014736D03*
X001091Y015456D03*
X001101Y015456D03*
X001081Y015456D03*
X001071Y015456D03*
X001061Y015456D03*
X001051Y015456D03*
X001041Y015456D03*
X001031Y015456D03*
X001021Y015456D03*
X001011Y015456D03*
X001001Y015456D03*
X000991Y015456D03*
X000981Y015456D03*
X000971Y015456D03*
X000961Y015456D03*
X000951Y015456D03*
X000941Y015456D03*
X000931Y015456D03*
X000921Y015456D03*
X000911Y015456D03*
X000901Y015456D03*
X000891Y015456D03*
X000881Y015456D03*
X000871Y015456D03*
X000861Y015456D03*
D45*
X000841Y016476D03*
X001091Y016476D03*
X001321Y016946D03*
X000611Y016946D03*
X000761Y013566D03*
X000771Y013566D03*
X000871Y012876D03*
X000881Y012876D03*
X000651Y007106D03*
X000881Y006636D03*
X001131Y006636D03*
X001361Y007106D03*
X000811Y003726D03*
X000801Y003726D03*
X000911Y003036D03*
X000921Y003036D03*
X018461Y003096D03*
X018691Y003566D03*
X018941Y003566D03*
X019171Y003096D03*
X019021Y006476D03*
X019011Y006476D03*
X018911Y007166D03*
X018901Y007166D03*
X019141Y012806D03*
X018911Y013276D03*
X018661Y013276D03*
X018431Y012806D03*
X018981Y016186D03*
X018991Y016186D03*
X018881Y016876D03*
X018871Y016876D03*
D46*
X018731Y016926D03*
X018721Y016926D03*
X018551Y016486D03*
X018541Y016486D03*
X018531Y016486D03*
X018521Y016486D03*
X018511Y016486D03*
X018501Y016486D03*
X018491Y016486D03*
X018881Y016166D03*
X018591Y015606D03*
X018431Y013696D03*
X019141Y013696D03*
X019011Y012756D03*
X019001Y012756D03*
X018571Y012756D03*
X018561Y012756D03*
X018751Y007216D03*
X018761Y007216D03*
X018581Y006776D03*
X018571Y006776D03*
X018561Y006776D03*
X018551Y006776D03*
X018541Y006776D03*
X018531Y006776D03*
X018521Y006776D03*
X018911Y006456D03*
X018621Y005896D03*
X018461Y003986D03*
X019171Y003986D03*
X019041Y003046D03*
X019031Y003046D03*
X018601Y003046D03*
X018591Y003046D03*
X001301Y003426D03*
X001291Y003426D03*
X001281Y003426D03*
X001271Y003426D03*
X001261Y003426D03*
X001251Y003426D03*
X001241Y003426D03*
X000911Y003746D03*
X001201Y004306D03*
X001071Y002986D03*
X001061Y002986D03*
X001361Y006216D03*
X000651Y006216D03*
X000781Y007156D03*
X000791Y007156D03*
X001221Y007156D03*
X001231Y007156D03*
X001031Y012826D03*
X001021Y012826D03*
X001201Y013266D03*
X001211Y013266D03*
X001221Y013266D03*
X001231Y013266D03*
X001241Y013266D03*
X001251Y013266D03*
X001261Y013266D03*
X000871Y013586D03*
X001161Y014146D03*
X001321Y016056D03*
X000611Y016056D03*
X000741Y016996D03*
X000751Y016996D03*
X001181Y016996D03*
X001191Y016996D03*
D47*
X001311Y016951D03*
X000831Y016481D03*
X001381Y016101D03*
X000621Y016951D03*
X001381Y013811D03*
X000891Y012871D03*
X000661Y007111D03*
X000871Y006641D03*
X001351Y007111D03*
X001421Y006261D03*
X001421Y003971D03*
X000931Y003031D03*
X018401Y003941D03*
X018951Y003561D03*
X019161Y003091D03*
X018471Y003091D03*
X018401Y006231D03*
X018891Y007171D03*
X019131Y012801D03*
X018921Y013271D03*
X018371Y013651D03*
X018441Y012801D03*
X018371Y015941D03*
X018861Y016881D03*
D48*
X018711Y016931D03*
X018701Y016931D03*
X018571Y016491D03*
X018561Y016491D03*
X018481Y016491D03*
X018471Y016491D03*
X018461Y016491D03*
X018451Y016491D03*
X018441Y016491D03*
X018431Y016491D03*
X018421Y016491D03*
X018411Y016491D03*
X018401Y016491D03*
X018351Y016491D03*
X018411Y015991D03*
X018581Y015601D03*
X018991Y015601D03*
X018871Y016171D03*
X019131Y013701D03*
X018971Y013271D03*
X018601Y013281D03*
X018441Y013701D03*
X018581Y012751D03*
X018591Y012751D03*
X018981Y012751D03*
X018991Y012751D03*
X018741Y007221D03*
X018731Y007221D03*
X018601Y006781D03*
X018591Y006781D03*
X018511Y006781D03*
X018501Y006781D03*
X018491Y006781D03*
X018481Y006781D03*
X018471Y006781D03*
X018461Y006781D03*
X018451Y006781D03*
X018441Y006781D03*
X018431Y006781D03*
X018381Y006781D03*
X018901Y006461D03*
X018441Y006281D03*
X018611Y005891D03*
X019021Y005891D03*
X019161Y003991D03*
X019001Y003561D03*
X018631Y003571D03*
X018621Y003041D03*
X018611Y003041D03*
X019011Y003041D03*
X019021Y003041D03*
X018471Y003991D03*
X001441Y003421D03*
X001391Y003421D03*
X001381Y003421D03*
X001371Y003421D03*
X001361Y003421D03*
X001351Y003421D03*
X001341Y003421D03*
X001331Y003421D03*
X001321Y003421D03*
X001311Y003421D03*
X001231Y003421D03*
X001221Y003421D03*
X000921Y003741D03*
X001381Y003921D03*
X001211Y004311D03*
X000801Y004311D03*
X001081Y002981D03*
X001091Y002981D03*
X001351Y006211D03*
X001191Y006631D03*
X000821Y006641D03*
X000661Y006211D03*
X000801Y007161D03*
X000811Y007161D03*
X001201Y007161D03*
X001211Y007161D03*
X001051Y012821D03*
X001041Y012821D03*
X001181Y013261D03*
X001191Y013261D03*
X001271Y013261D03*
X001281Y013261D03*
X001291Y013261D03*
X001301Y013261D03*
X001311Y013261D03*
X001321Y013261D03*
X001331Y013261D03*
X001341Y013261D03*
X001351Y013261D03*
X001401Y013261D03*
X001341Y013761D03*
X001171Y014151D03*
X000761Y014151D03*
X000881Y013581D03*
X000621Y016051D03*
X000781Y016481D03*
X001151Y016471D03*
X001311Y016051D03*
X001171Y017001D03*
X001161Y017001D03*
X000771Y017001D03*
X000761Y017001D03*
D49*
X000781Y017006D03*
X000791Y017006D03*
X000801Y017006D03*
X001131Y017006D03*
X001141Y017006D03*
X001151Y017006D03*
X001301Y016046D03*
X000631Y016046D03*
X000751Y014156D03*
X000891Y013586D03*
X001331Y013756D03*
X001361Y013266D03*
X001371Y013266D03*
X001381Y013266D03*
X001391Y013266D03*
X001071Y012816D03*
X001061Y012816D03*
X001171Y007166D03*
X001181Y007166D03*
X001191Y007166D03*
X000841Y007166D03*
X000831Y007166D03*
X000821Y007166D03*
X000671Y006206D03*
X001341Y006206D03*
X000791Y004316D03*
X000931Y003746D03*
X001371Y003916D03*
X001401Y003426D03*
X001411Y003426D03*
X001421Y003426D03*
X001431Y003426D03*
X001111Y002976D03*
X001101Y002976D03*
X018481Y003996D03*
X019151Y003996D03*
X019001Y003036D03*
X018991Y003036D03*
X018981Y003036D03*
X018651Y003036D03*
X018641Y003036D03*
X018631Y003036D03*
X019031Y005886D03*
X018891Y006456D03*
X018451Y006286D03*
X018421Y006776D03*
X018411Y006776D03*
X018401Y006776D03*
X018391Y006776D03*
X018711Y007226D03*
X018721Y007226D03*
X018621Y012746D03*
X018611Y012746D03*
X018601Y012746D03*
X018951Y012746D03*
X018961Y012746D03*
X018971Y012746D03*
X019121Y013706D03*
X018451Y013706D03*
X019001Y015596D03*
X018861Y016166D03*
X018421Y015996D03*
X018391Y016486D03*
X018381Y016486D03*
X018371Y016486D03*
X018361Y016486D03*
X018681Y016936D03*
X018691Y016936D03*
D50*
X018671Y016941D03*
X018591Y016491D03*
X018581Y016491D03*
X018841Y016161D03*
X018851Y016161D03*
X018571Y015591D03*
X018461Y013711D03*
X018981Y013271D03*
X019111Y013711D03*
X018941Y012741D03*
X018931Y012741D03*
X018921Y012741D03*
X018651Y012741D03*
X018641Y012741D03*
X018631Y012741D03*
X018701Y007231D03*
X018621Y006781D03*
X018611Y006781D03*
X018871Y006451D03*
X018881Y006451D03*
X018601Y005881D03*
X018491Y004001D03*
X019011Y003561D03*
X018971Y003031D03*
X018961Y003031D03*
X018951Y003031D03*
X018681Y003031D03*
X018671Y003031D03*
X018661Y003031D03*
X019141Y004001D03*
X001221Y004321D03*
X000951Y003751D03*
X000941Y003751D03*
X001201Y003421D03*
X001211Y003421D03*
X001121Y002971D03*
X001331Y006201D03*
X000811Y006641D03*
X000681Y006201D03*
X000851Y007171D03*
X000861Y007171D03*
X000871Y007171D03*
X001141Y007171D03*
X001151Y007171D03*
X001161Y007171D03*
X001081Y012811D03*
X001161Y013261D03*
X001171Y013261D03*
X000911Y013591D03*
X000901Y013591D03*
X001181Y014161D03*
X001291Y016041D03*
X000641Y016041D03*
X000771Y016481D03*
X000811Y017011D03*
X000821Y017011D03*
X000831Y017011D03*
X001101Y017011D03*
X001111Y017011D03*
X001121Y017011D03*
D51*
X000711Y014556D03*
X000701Y014556D03*
X000691Y014556D03*
X000681Y014556D03*
X000671Y014556D03*
X000661Y014556D03*
X000651Y014556D03*
X000641Y014556D03*
X000681Y004716D03*
X000691Y004716D03*
X000701Y004716D03*
X000711Y004716D03*
X000721Y004716D03*
X000731Y004716D03*
X000741Y004716D03*
X000751Y004716D03*
X019071Y005486D03*
X019081Y005486D03*
X019091Y005486D03*
X019101Y005486D03*
X019111Y005486D03*
X019121Y005486D03*
X019131Y005486D03*
X019141Y005486D03*
X019111Y015196D03*
X019101Y015196D03*
X019091Y015196D03*
X019081Y015196D03*
X019071Y015196D03*
X019061Y015196D03*
X019051Y015196D03*
X019041Y015196D03*
D52*
X018911Y015636D03*
X018901Y015636D03*
X018671Y015636D03*
X018661Y015636D03*
X018381Y015956D03*
X018951Y016186D03*
X018821Y016896D03*
X018811Y016896D03*
X018941Y013276D03*
X019101Y012786D03*
X018471Y012786D03*
X018841Y007186D03*
X018851Y007186D03*
X018981Y006476D03*
X018941Y005926D03*
X018931Y005926D03*
X018701Y005926D03*
X018691Y005926D03*
X018411Y006246D03*
X018971Y003566D03*
X019131Y003076D03*
X018501Y003076D03*
X001411Y003956D03*
X001131Y004276D03*
X001121Y004276D03*
X000891Y004276D03*
X000881Y004276D03*
X000841Y003726D03*
X000971Y003016D03*
X000981Y003016D03*
X000851Y006636D03*
X000691Y007126D03*
X001321Y007126D03*
X000941Y012856D03*
X000931Y012856D03*
X000801Y013566D03*
X000841Y014116D03*
X000851Y014116D03*
X001081Y014116D03*
X001091Y014116D03*
X001371Y013796D03*
X000811Y016476D03*
X000651Y016966D03*
X001281Y016966D03*
D53*
X001091Y017016D03*
X001081Y017016D03*
X001071Y017016D03*
X001061Y017016D03*
X001051Y017016D03*
X000881Y017016D03*
X000871Y017016D03*
X000861Y017016D03*
X000851Y017016D03*
X000841Y017016D03*
X001161Y016476D03*
X001281Y016036D03*
X000651Y016036D03*
X001321Y013746D03*
X000921Y013596D03*
X001091Y012806D03*
X001101Y012806D03*
X001121Y007176D03*
X001131Y007176D03*
X001111Y007176D03*
X001101Y007176D03*
X001091Y007176D03*
X000921Y007176D03*
X000911Y007176D03*
X000901Y007176D03*
X000891Y007176D03*
X000881Y007176D03*
X001201Y006636D03*
X001321Y006196D03*
X000691Y006196D03*
X001361Y003906D03*
X000961Y003756D03*
X001131Y002966D03*
X001141Y002966D03*
X018501Y004006D03*
X018621Y003566D03*
X018691Y003026D03*
X018701Y003026D03*
X018711Y003026D03*
X018721Y003026D03*
X018731Y003026D03*
X018901Y003026D03*
X018911Y003026D03*
X018921Y003026D03*
X018931Y003026D03*
X018941Y003026D03*
X019131Y004006D03*
X018461Y006296D03*
X018861Y006446D03*
X018691Y007236D03*
X018681Y007236D03*
X018661Y012736D03*
X018671Y012736D03*
X018681Y012736D03*
X018691Y012736D03*
X018701Y012736D03*
X018871Y012736D03*
X018881Y012736D03*
X018891Y012736D03*
X018901Y012736D03*
X018911Y012736D03*
X018591Y013276D03*
X018471Y013716D03*
X019101Y013716D03*
X018431Y016006D03*
X018831Y016156D03*
X018661Y016946D03*
X018651Y016946D03*
D54*
X018951Y016846D03*
X019081Y016156D03*
X019091Y016156D03*
X018851Y013276D03*
X018841Y013276D03*
X018831Y013276D03*
X018821Y013276D03*
X018811Y013276D03*
X018801Y013276D03*
X018791Y013276D03*
X018781Y013276D03*
X018771Y013276D03*
X018761Y013276D03*
X018751Y013276D03*
X018741Y013276D03*
X018731Y013276D03*
X018981Y007136D03*
X019111Y006446D03*
X019121Y006446D03*
X018881Y003566D03*
X018871Y003566D03*
X018861Y003566D03*
X018851Y003566D03*
X018841Y003566D03*
X018831Y003566D03*
X018821Y003566D03*
X018811Y003566D03*
X018801Y003566D03*
X018791Y003566D03*
X018781Y003566D03*
X018771Y003566D03*
X018761Y003566D03*
X001061Y006636D03*
X001051Y006636D03*
X001041Y006636D03*
X001031Y006636D03*
X001021Y006636D03*
X001011Y006636D03*
X001001Y006636D03*
X000991Y006636D03*
X000981Y006636D03*
X000971Y006636D03*
X000961Y006636D03*
X000951Y006636D03*
X000941Y006636D03*
X000711Y003756D03*
X000701Y003756D03*
X000841Y003066D03*
X000801Y012906D03*
X000671Y013596D03*
X000661Y013596D03*
X000901Y016476D03*
X000911Y016476D03*
X000921Y016476D03*
X000931Y016476D03*
X000941Y016476D03*
X000951Y016476D03*
X000961Y016476D03*
X000971Y016476D03*
X000981Y016476D03*
X000991Y016476D03*
X001001Y016476D03*
X001011Y016476D03*
X001021Y016476D03*
D55*
X001251Y016026D03*
X000681Y016026D03*
X000671Y016026D03*
X000871Y014876D03*
X001301Y013736D03*
X000951Y013606D03*
X001141Y013266D03*
X001141Y012796D03*
X001151Y012796D03*
X001161Y012796D03*
X001131Y012796D03*
X001221Y012796D03*
X001231Y012796D03*
X001241Y012796D03*
X001251Y012796D03*
X001261Y012796D03*
X001271Y012796D03*
X001281Y012796D03*
X001291Y012796D03*
X001301Y012796D03*
X001311Y012796D03*
X001321Y012796D03*
X001331Y012796D03*
X001341Y012796D03*
X001351Y012796D03*
X001361Y012796D03*
X001371Y012796D03*
X001381Y012796D03*
X001391Y012796D03*
X001401Y012796D03*
X001291Y006186D03*
X000721Y006186D03*
X000711Y006186D03*
X000911Y005036D03*
X001341Y003896D03*
X000991Y003766D03*
X001181Y003426D03*
X001181Y002956D03*
X001191Y002956D03*
X001201Y002956D03*
X001171Y002956D03*
X001261Y002956D03*
X001271Y002956D03*
X001281Y002956D03*
X001291Y002956D03*
X001301Y002956D03*
X001311Y002956D03*
X001321Y002956D03*
X001331Y002956D03*
X001341Y002956D03*
X001351Y002956D03*
X001361Y002956D03*
X001371Y002956D03*
X001381Y002956D03*
X001391Y002956D03*
X001401Y002956D03*
X001411Y002956D03*
X001421Y002956D03*
X001431Y002956D03*
X001441Y002956D03*
X018481Y006306D03*
X018831Y006436D03*
X018641Y006776D03*
X018641Y007246D03*
X018651Y007246D03*
X018631Y007246D03*
X018621Y007246D03*
X018561Y007246D03*
X018551Y007246D03*
X018541Y007246D03*
X018531Y007246D03*
X018521Y007246D03*
X018511Y007246D03*
X018501Y007246D03*
X018491Y007246D03*
X018481Y007246D03*
X018471Y007246D03*
X018461Y007246D03*
X018451Y007246D03*
X018441Y007246D03*
X018431Y007246D03*
X018421Y007246D03*
X018411Y007246D03*
X018401Y007246D03*
X018391Y007246D03*
X018381Y007246D03*
X018911Y005166D03*
X019101Y004016D03*
X019111Y004016D03*
X018531Y004016D03*
X018501Y013726D03*
X019071Y013726D03*
X019081Y013726D03*
X018881Y014876D03*
X018451Y016016D03*
X018801Y016146D03*
X018611Y016486D03*
X018611Y016956D03*
X018621Y016956D03*
X018601Y016956D03*
X018591Y016956D03*
X018531Y016956D03*
X018521Y016956D03*
X018511Y016956D03*
X018501Y016956D03*
X018491Y016956D03*
X018481Y016956D03*
X018471Y016956D03*
X018461Y016956D03*
X018451Y016956D03*
X018441Y016956D03*
X018431Y016956D03*
X018421Y016956D03*
X018411Y016956D03*
X018401Y016956D03*
X018391Y016956D03*
X018381Y016956D03*
X018371Y016956D03*
X018361Y016956D03*
X018351Y016956D03*
D56*
X018771Y016911D03*
X018391Y015971D03*
X018621Y015621D03*
X018951Y015621D03*
X018411Y013681D03*
X018511Y012771D03*
X019061Y012771D03*
X018801Y007201D03*
X018421Y006261D03*
X018651Y005911D03*
X018981Y005911D03*
X018441Y003971D03*
X018541Y003061D03*
X019091Y003061D03*
X001401Y003941D03*
X001171Y004291D03*
X000841Y004291D03*
X001021Y003001D03*
X001381Y006231D03*
X001281Y007141D03*
X000731Y007141D03*
X000981Y012841D03*
X001361Y013781D03*
X001131Y014131D03*
X000801Y014131D03*
X001341Y016071D03*
X001241Y016981D03*
X000691Y016981D03*
D57*
X000761Y016481D03*
X001171Y016471D03*
X001231Y016021D03*
X001241Y016021D03*
X000711Y016011D03*
X000701Y016011D03*
X000691Y016021D03*
X001291Y013731D03*
X001281Y013721D03*
X000971Y013611D03*
X000961Y013611D03*
X001131Y013261D03*
X001171Y012791D03*
X001181Y012791D03*
X001191Y012791D03*
X001201Y012791D03*
X001211Y012791D03*
X001211Y006631D03*
X000801Y006641D03*
X000731Y006181D03*
X000741Y006171D03*
X000751Y006171D03*
X001271Y006181D03*
X001281Y006181D03*
X001331Y003891D03*
X001321Y003881D03*
X001011Y003771D03*
X001001Y003771D03*
X001171Y003421D03*
X001211Y002951D03*
X001221Y002951D03*
X001231Y002951D03*
X001241Y002951D03*
X001251Y002951D03*
X018491Y006311D03*
X018501Y006321D03*
X018811Y006431D03*
X018821Y006431D03*
X018651Y006781D03*
X018611Y007251D03*
X018601Y007251D03*
X018591Y007251D03*
X018581Y007251D03*
X018571Y007251D03*
X018551Y004021D03*
X018541Y004021D03*
X019071Y004031D03*
X019081Y004031D03*
X019091Y004021D03*
X019021Y003561D03*
X018611Y003571D03*
X018991Y013271D03*
X018581Y013281D03*
X018521Y013731D03*
X018511Y013731D03*
X019041Y013741D03*
X019051Y013741D03*
X019061Y013731D03*
X018461Y016021D03*
X018471Y016031D03*
X018781Y016141D03*
X018791Y016141D03*
X018621Y016491D03*
X018581Y016961D03*
X018571Y016961D03*
X018561Y016961D03*
X018551Y016961D03*
X018541Y016961D03*
D58*
X018771Y016136D03*
X018491Y016036D03*
X018481Y016036D03*
X018531Y013736D03*
X019031Y013746D03*
X018801Y006426D03*
X018521Y006326D03*
X018511Y006326D03*
X018561Y004026D03*
X019061Y004036D03*
X001311Y003876D03*
X001301Y003876D03*
X001021Y003776D03*
X000761Y006166D03*
X001261Y006176D03*
X000981Y013616D03*
X001261Y013716D03*
X001271Y013716D03*
X001221Y016016D03*
X000721Y016006D03*
D59*
X000721Y014171D03*
X001211Y014171D03*
X001051Y013261D03*
X001251Y004331D03*
X000761Y004331D03*
X001091Y003421D03*
X018571Y005871D03*
X019061Y005871D03*
X018731Y006781D03*
X018541Y015581D03*
X019031Y015581D03*
X018701Y016491D03*
D60*
X018901Y016866D03*
X019021Y016176D03*
X019031Y016176D03*
X018361Y015926D03*
X018681Y013276D03*
X018891Y013276D03*
X018931Y007156D03*
X019051Y006466D03*
X019061Y006466D03*
X018391Y006216D03*
X018711Y003566D03*
X018921Y003566D03*
X001431Y003986D03*
X000771Y003736D03*
X000761Y003736D03*
X000891Y003046D03*
X000901Y006636D03*
X001111Y006636D03*
X000851Y012886D03*
X000731Y013576D03*
X000721Y013576D03*
X001391Y013826D03*
X001071Y016476D03*
X000861Y016476D03*
D61*
X000741Y016001D03*
X000731Y016001D03*
X001201Y016011D03*
X001211Y016011D03*
X001201Y014171D03*
X001251Y013711D03*
X001001Y013621D03*
X000991Y013621D03*
X001121Y013261D03*
X000731Y014171D03*
X001241Y006171D03*
X001251Y006171D03*
X000781Y006161D03*
X000771Y006161D03*
X000771Y004331D03*
X001241Y004331D03*
X001291Y003871D03*
X001041Y003781D03*
X001031Y003781D03*
X001161Y003421D03*
X018501Y016041D03*
X018751Y016131D03*
X018761Y016131D03*
X018631Y016491D03*
X018551Y015581D03*
X019021Y015581D03*
X019011Y013751D03*
X019021Y013751D03*
X018551Y013741D03*
X018541Y013741D03*
X018661Y006781D03*
X018781Y006421D03*
X018791Y006421D03*
X018531Y006331D03*
X018581Y005871D03*
X019051Y005871D03*
X019041Y004041D03*
X019051Y004041D03*
X018581Y004031D03*
X018571Y004031D03*
D62*
X018591Y003566D03*
X019041Y003566D03*
X018701Y005116D03*
X018561Y013276D03*
X019011Y013276D03*
X018671Y014826D03*
X001231Y006636D03*
X000781Y006636D03*
X001121Y005086D03*
X001081Y014926D03*
X001191Y016476D03*
X000741Y016476D03*
D63*
X000751Y016481D03*
X000781Y015991D03*
X000791Y015991D03*
X001161Y016001D03*
X001171Y016001D03*
X000741Y014841D03*
X000981Y014571D03*
X000991Y014571D03*
X001001Y014571D03*
X001011Y014571D03*
X001021Y014571D03*
X001031Y014571D03*
X001041Y014571D03*
X001051Y014571D03*
X001061Y014571D03*
X001221Y013701D03*
X001231Y013701D03*
X001031Y013631D03*
X001101Y013261D03*
X001111Y013261D03*
X000791Y006641D03*
X000821Y006151D03*
X000831Y006151D03*
X001201Y006161D03*
X001211Y006161D03*
X000781Y005001D03*
X001021Y004731D03*
X001031Y004731D03*
X001041Y004731D03*
X001051Y004731D03*
X001061Y004731D03*
X001071Y004731D03*
X001081Y004731D03*
X001091Y004731D03*
X001101Y004731D03*
X001261Y003861D03*
X001271Y003861D03*
X001071Y003791D03*
X001141Y003421D03*
X001151Y003421D03*
X018611Y004041D03*
X018621Y004041D03*
X018991Y004051D03*
X019001Y004051D03*
X019031Y003561D03*
X019041Y005201D03*
X018801Y005471D03*
X018791Y005471D03*
X018781Y005471D03*
X018771Y005471D03*
X018761Y005471D03*
X018751Y005471D03*
X018741Y005471D03*
X018731Y005471D03*
X018721Y005471D03*
X018561Y006341D03*
X018551Y006341D03*
X018751Y006411D03*
X018681Y006781D03*
X018671Y006781D03*
X019001Y013271D03*
X018971Y013761D03*
X018961Y013761D03*
X018591Y013751D03*
X018581Y013751D03*
X019011Y014911D03*
X018771Y015181D03*
X018761Y015181D03*
X018751Y015181D03*
X018741Y015181D03*
X018731Y015181D03*
X018721Y015181D03*
X018711Y015181D03*
X018701Y015181D03*
X018691Y015181D03*
X018531Y016051D03*
X018521Y016051D03*
X018721Y016121D03*
X018651Y016491D03*
X018641Y016491D03*
D64*
X018731Y016126D03*
X018741Y016126D03*
X018511Y016046D03*
X018351Y015176D03*
X018351Y014806D03*
X018781Y015176D03*
X018791Y015176D03*
X018801Y015176D03*
X018811Y015176D03*
X018821Y015176D03*
X018831Y015176D03*
X018841Y015176D03*
X018851Y015176D03*
X018861Y015176D03*
X018871Y015176D03*
X018881Y015176D03*
X018981Y013756D03*
X018991Y013756D03*
X019001Y013756D03*
X018571Y013746D03*
X018561Y013746D03*
X018761Y006416D03*
X018771Y006416D03*
X018541Y006336D03*
X018381Y005466D03*
X018381Y005096D03*
X018811Y005466D03*
X018821Y005466D03*
X018831Y005466D03*
X018841Y005466D03*
X018851Y005466D03*
X018861Y005466D03*
X018871Y005466D03*
X018881Y005466D03*
X018891Y005466D03*
X018901Y005466D03*
X018911Y005466D03*
X019011Y004046D03*
X019021Y004046D03*
X019031Y004046D03*
X018601Y004036D03*
X018591Y004036D03*
X001441Y004736D03*
X001441Y005106D03*
X001011Y004736D03*
X001001Y004736D03*
X000991Y004736D03*
X000981Y004736D03*
X000971Y004736D03*
X000961Y004736D03*
X000951Y004736D03*
X000941Y004736D03*
X000931Y004736D03*
X000921Y004736D03*
X000911Y004736D03*
X001281Y003866D03*
X001061Y003786D03*
X001051Y003786D03*
X000811Y006156D03*
X000801Y006156D03*
X000791Y006156D03*
X001221Y006166D03*
X001231Y006166D03*
X001021Y013626D03*
X001011Y013626D03*
X001241Y013706D03*
X001401Y014576D03*
X001401Y014946D03*
X000971Y014576D03*
X000961Y014576D03*
X000951Y014576D03*
X000941Y014576D03*
X000931Y014576D03*
X000921Y014576D03*
X000911Y014576D03*
X000901Y014576D03*
X000891Y014576D03*
X000881Y014576D03*
X000871Y014576D03*
X000771Y015996D03*
X000761Y015996D03*
X000751Y015996D03*
X001181Y016006D03*
X001191Y016006D03*
D65*
X001151Y015996D03*
X001141Y015996D03*
X001131Y015996D03*
X001121Y015986D03*
X001111Y015986D03*
X001101Y015986D03*
X000831Y015986D03*
X000821Y015986D03*
X000811Y015986D03*
X000801Y015986D03*
X001181Y016476D03*
X001391Y014576D03*
X001081Y014566D03*
X001071Y014566D03*
X001201Y013696D03*
X001211Y013696D03*
X001061Y013646D03*
X001051Y013636D03*
X001041Y013636D03*
X001221Y006636D03*
X001191Y006156D03*
X001181Y006156D03*
X001171Y006156D03*
X001161Y006146D03*
X001151Y006146D03*
X001141Y006146D03*
X000871Y006146D03*
X000861Y006146D03*
X000851Y006146D03*
X000841Y006146D03*
X001111Y004726D03*
X001121Y004726D03*
X001431Y004736D03*
X001251Y003856D03*
X001241Y003856D03*
X001101Y003806D03*
X001091Y003796D03*
X001081Y003796D03*
X018391Y005466D03*
X018701Y005476D03*
X018711Y005476D03*
X018581Y006346D03*
X018571Y006346D03*
X018721Y006396D03*
X018731Y006406D03*
X018741Y006406D03*
X018681Y004056D03*
X018671Y004056D03*
X018661Y004056D03*
X018651Y004046D03*
X018641Y004046D03*
X018631Y004046D03*
X018951Y004056D03*
X018961Y004056D03*
X018971Y004056D03*
X018981Y004056D03*
X018601Y003566D03*
X018571Y013276D03*
X018601Y013756D03*
X018611Y013756D03*
X018621Y013756D03*
X018631Y013766D03*
X018641Y013766D03*
X018651Y013766D03*
X018921Y013766D03*
X018931Y013766D03*
X018941Y013766D03*
X018951Y013766D03*
X018681Y015186D03*
X018671Y015186D03*
X018361Y015176D03*
X018541Y016056D03*
X018551Y016056D03*
X018691Y016106D03*
X018701Y016116D03*
X018711Y016116D03*
D66*
X018681Y016101D03*
X018671Y016101D03*
X018571Y016061D03*
X018561Y016061D03*
X018661Y016491D03*
X018421Y015181D03*
X018411Y015181D03*
X018401Y015181D03*
X018391Y015181D03*
X018381Y015181D03*
X018371Y015181D03*
X018661Y013771D03*
X018671Y013771D03*
X018681Y013771D03*
X018691Y013771D03*
X018701Y013771D03*
X018871Y013771D03*
X018881Y013771D03*
X018891Y013771D03*
X018901Y013771D03*
X018911Y013771D03*
X018691Y006781D03*
X018701Y006391D03*
X018711Y006391D03*
X018601Y006351D03*
X018591Y006351D03*
X018451Y005471D03*
X018441Y005471D03*
X018431Y005471D03*
X018421Y005471D03*
X018411Y005471D03*
X018401Y005471D03*
X018691Y004061D03*
X018701Y004061D03*
X018711Y004061D03*
X018721Y004061D03*
X018731Y004061D03*
X018901Y004061D03*
X018911Y004061D03*
X018921Y004061D03*
X018931Y004061D03*
X018941Y004061D03*
X001421Y004731D03*
X001411Y004731D03*
X001401Y004731D03*
X001391Y004731D03*
X001381Y004731D03*
X001371Y004731D03*
X001231Y003851D03*
X001221Y003851D03*
X001121Y003811D03*
X001111Y003811D03*
X001131Y003421D03*
X001131Y006141D03*
X001121Y006141D03*
X001111Y006141D03*
X001101Y006141D03*
X001091Y006141D03*
X000921Y006141D03*
X000911Y006141D03*
X000901Y006141D03*
X000891Y006141D03*
X000881Y006141D03*
X001091Y013261D03*
X001081Y013651D03*
X001071Y013651D03*
X001181Y013691D03*
X001191Y013691D03*
X001331Y014571D03*
X001341Y014571D03*
X001351Y014571D03*
X001361Y014571D03*
X001371Y014571D03*
X001381Y014571D03*
X001091Y015981D03*
X001081Y015981D03*
X001071Y015981D03*
X001061Y015981D03*
X001051Y015981D03*
X000881Y015981D03*
X000871Y015981D03*
X000861Y015981D03*
X000851Y015981D03*
X000841Y015981D03*
D67*
X001031Y013261D03*
X001071Y003421D03*
X018751Y006781D03*
X018721Y016491D03*
D68*
X018711Y016491D03*
X018741Y006781D03*
X001081Y003421D03*
X001041Y013261D03*
D69*
X001411Y014521D03*
X001451Y004681D03*
X018371Y005521D03*
X018341Y015231D03*
D70*
X013841Y011625D02*
X009904Y011625D01*
X009904Y011782D01*
X009904Y011625D02*
X005967Y011625D01*
X005967Y010207D01*
X013841Y010207D01*
X013841Y011625D01*
X014087Y009727D02*
X005820Y009727D01*
X005820Y008310D01*
X009953Y008310D01*
X009953Y008152D01*
X009953Y008310D02*
X014087Y008310D01*
X014087Y009727D01*
X013802Y001607D02*
X009983Y001607D01*
X009983Y001764D01*
X009983Y001607D02*
X006164Y001607D01*
X006164Y000190D01*
X013802Y000190D01*
X013802Y001607D01*
X009883Y017964D02*
X009883Y018161D01*
X013129Y018156D01*
X013129Y019573D01*
X006672Y019573D01*
X006672Y018156D01*
X009883Y018161D01*
D71*
X006672Y018156D03*
X005820Y008310D03*
X013802Y001607D03*
D72*
X013841Y011625D03*
D73*
X006457Y018759D02*
X006457Y018903D01*
X006266Y018922D01*
X006246Y018986D01*
X006215Y019046D01*
X006336Y019194D01*
X006234Y019296D01*
X006086Y019175D01*
X006026Y019206D01*
X005962Y019226D01*
X005943Y019417D01*
X005799Y019417D01*
X005780Y019226D01*
X005715Y019206D01*
X005656Y019175D01*
X005507Y019296D01*
X005406Y019194D01*
X005527Y019046D01*
X005496Y018986D01*
X005475Y018922D01*
X005285Y018903D01*
X005285Y018759D01*
X005475Y018740D01*
X005496Y018675D01*
X005527Y018616D01*
X005406Y018467D01*
X005507Y018366D01*
X005656Y018487D01*
X005715Y018456D01*
X005800Y018660D01*
X005762Y018682D01*
X005731Y018711D01*
X005706Y018747D01*
X005691Y018788D01*
X005686Y018831D01*
X005692Y018875D01*
X005707Y018916D01*
X005732Y018953D01*
X005765Y018982D01*
X005804Y019003D01*
X005847Y019014D01*
X005891Y019014D01*
X005934Y019004D01*
X005973Y018984D01*
X006007Y018956D01*
X006033Y018920D01*
X006049Y018879D01*
X006055Y018835D01*
X006051Y018791D01*
X006036Y018749D01*
X006012Y018712D01*
X005980Y018682D01*
X005941Y018660D01*
X006026Y018456D01*
X006086Y018487D01*
X006234Y018366D01*
X006336Y018467D01*
X006215Y018616D01*
X006246Y018675D01*
X006266Y018740D01*
X006457Y018759D01*
X006457Y018773D02*
X006045Y018773D01*
X006055Y018830D02*
X006457Y018830D01*
X006457Y018888D02*
X006045Y018888D01*
X006014Y018946D02*
X006259Y018946D01*
X006237Y019003D02*
X005936Y019003D01*
X005805Y019003D02*
X005504Y019003D01*
X005515Y019061D02*
X006227Y019061D01*
X006274Y019118D02*
X005468Y019118D01*
X005421Y019176D02*
X005655Y019176D01*
X005657Y019176D02*
X006085Y019176D01*
X006087Y019176D02*
X006321Y019176D01*
X006297Y019234D02*
X006158Y019234D01*
X006228Y019291D02*
X006240Y019291D01*
X005956Y019291D02*
X005786Y019291D01*
X005780Y019234D02*
X005961Y019234D01*
X005950Y019349D02*
X005792Y019349D01*
X005798Y019406D02*
X005944Y019406D01*
X005584Y019234D02*
X005445Y019234D01*
X005502Y019291D02*
X005514Y019291D01*
X005483Y018946D02*
X005727Y018946D01*
X005697Y018888D02*
X005285Y018888D01*
X005285Y018830D02*
X005686Y018830D01*
X005697Y018773D02*
X005285Y018773D01*
X005483Y018715D02*
X005728Y018715D01*
X005799Y018658D02*
X005505Y018658D01*
X005514Y018600D02*
X005775Y018600D01*
X005751Y018542D02*
X005467Y018542D01*
X005420Y018485D02*
X005654Y018485D01*
X005659Y018485D02*
X005727Y018485D01*
X005583Y018427D02*
X005446Y018427D01*
X005503Y018370D02*
X005512Y018370D01*
X005966Y018600D02*
X006228Y018600D01*
X006237Y018658D02*
X005943Y018658D01*
X006014Y018715D02*
X006259Y018715D01*
X006275Y018542D02*
X005990Y018542D01*
X006014Y018485D02*
X006083Y018485D01*
X006088Y018485D02*
X006322Y018485D01*
X006296Y018427D02*
X006159Y018427D01*
X006229Y018370D02*
X006239Y018370D01*
X005143Y009577D02*
X004999Y009577D01*
X004980Y009386D01*
X004915Y009366D01*
X004856Y009335D01*
X004707Y009456D01*
X004606Y009354D01*
X004727Y009206D01*
X004696Y009146D01*
X004675Y009082D01*
X004485Y009063D01*
X004485Y008919D01*
X004675Y008900D01*
X004696Y008835D01*
X004727Y008776D01*
X004606Y008627D01*
X004707Y008526D01*
X004856Y008647D01*
X004915Y008616D01*
X005000Y008820D01*
X004962Y008842D01*
X004931Y008871D01*
X004906Y008907D01*
X004891Y008948D01*
X004886Y008991D01*
X004892Y009035D01*
X004907Y009076D01*
X004932Y009113D01*
X004965Y009142D01*
X005004Y009163D01*
X005047Y009174D01*
X005091Y009174D01*
X005134Y009164D01*
X005173Y009144D01*
X005207Y009116D01*
X005233Y009080D01*
X005249Y009039D01*
X005657Y009039D01*
X005657Y009063D02*
X005466Y009082D01*
X005446Y009146D01*
X005415Y009206D01*
X005536Y009354D01*
X005434Y009456D01*
X005286Y009335D01*
X005226Y009366D01*
X005162Y009386D01*
X005143Y009577D01*
X005145Y009557D02*
X004997Y009557D01*
X004991Y009499D02*
X005151Y009499D01*
X005157Y009442D02*
X004985Y009442D01*
X004972Y009384D02*
X005169Y009384D01*
X005346Y009384D02*
X005506Y009384D01*
X005514Y009327D02*
X004628Y009327D01*
X004635Y009384D02*
X004796Y009384D01*
X004725Y009442D02*
X004693Y009442D01*
X004675Y009269D02*
X005467Y009269D01*
X005420Y009211D02*
X004722Y009211D01*
X004700Y009154D02*
X004987Y009154D01*
X004921Y009096D02*
X004680Y009096D01*
X004485Y009039D02*
X004893Y009039D01*
X004887Y008981D02*
X004485Y008981D01*
X004485Y008923D02*
X004900Y008923D01*
X004936Y008866D02*
X004686Y008866D01*
X004710Y008808D02*
X004995Y008808D01*
X004971Y008751D02*
X004706Y008751D01*
X004659Y008693D02*
X004947Y008693D01*
X004924Y008635D02*
X004877Y008635D01*
X004842Y008635D02*
X004612Y008635D01*
X004655Y008578D02*
X004771Y008578D01*
X005170Y008751D02*
X005436Y008751D01*
X005415Y008776D02*
X005536Y008627D01*
X005434Y008526D01*
X005286Y008647D01*
X005226Y008616D01*
X005141Y008820D01*
X005180Y008842D01*
X005212Y008872D01*
X005236Y008909D01*
X005251Y008951D01*
X005255Y008995D01*
X005249Y009039D01*
X005254Y008981D02*
X005657Y008981D01*
X005657Y008923D02*
X005241Y008923D01*
X005205Y008866D02*
X005456Y008866D01*
X005446Y008835D02*
X005466Y008900D01*
X005657Y008919D01*
X005657Y009063D01*
X005462Y009096D02*
X005221Y009096D01*
X005154Y009154D02*
X005442Y009154D01*
X005446Y008835D02*
X005415Y008776D01*
X005432Y008808D02*
X005146Y008808D01*
X005194Y008693D02*
X005483Y008693D01*
X005530Y008635D02*
X005300Y008635D01*
X005264Y008635D02*
X005218Y008635D01*
X005370Y008578D02*
X005487Y008578D01*
X005449Y009442D02*
X005417Y009442D01*
M02*
