%
M48
M72
T01C0.0394
T02C0.1220
%
T01
X2361Y4111
X3361Y4111
X4361Y4111
X5361Y4111
X6361Y4111
X7361Y4111
X8361Y4111
X9361Y4111
X10361Y4111
X11361Y4111
X12361Y4111
X13361Y4111
X14361Y4111
X15361Y4111
X16361Y4111
X17361Y4111
X17361Y6111
X16361Y6111
X15361Y6111
X14361Y6111
X13361Y6111
X12361Y6111
X11361Y6111
X10361Y6111
X9361Y6111
X8361Y6111
X7361Y6111
X6361Y6111
X5361Y6111
X4361Y6111
X3361Y6111
X2361Y6111
X2361Y14111
X3361Y14111
X4361Y14111
X5361Y14111
X6361Y14111
X7361Y14111
X8361Y14111
X9361Y14111
X10361Y14111
X11361Y14111
X12361Y14111
X13361Y14111
X14361Y14111
X15361Y14111
X16361Y14111
X17361Y14111
X17361Y16111
X16361Y16111
X15361Y16111
X14361Y16111
X13361Y16111
X12361Y16111
X11361Y16111
X10361Y16111
X9361Y16111
X8361Y16111
X7361Y16111
X6361Y16111
X5361Y16111
X4361Y16111
X3361Y16111
X2361Y16111
T02
X1686Y1686
X1686Y8379
X1686Y11528
X1686Y18221
X18221Y18221
X18221Y11528
X18221Y8379
X18221Y1686
M30
