G75*
G70*
%OFA0B0*%
%FSLAX24Y24*%
%IPPOS*%
%LPD*%
%AMOC8*
5,1,8,0,0,1.08239X$1,22.5*
%
%ADD10C,0.0040*%
%ADD11C,0.0000*%
%ADD12C,0.0004*%
%ADD13C,0.0030*%
%ADD14R,0.0010X0.0130*%
%ADD15R,0.0010X0.0220*%
%ADD16R,0.0010X0.0210*%
%ADD17R,0.0010X0.0340*%
%ADD18R,0.0010X0.0250*%
%ADD19R,0.0010X0.0450*%
%ADD20R,0.0010X0.0430*%
%ADD21R,0.0010X0.0390*%
%ADD22R,0.0010X0.0270*%
%ADD23R,0.0010X0.0290*%
%ADD24R,0.0010X0.0420*%
%ADD25R,0.0010X0.0330*%
%ADD26R,0.0010X0.0440*%
%ADD27R,0.0010X0.0350*%
%ADD28R,0.0010X0.0460*%
%ADD29R,0.0010X0.0380*%
%ADD30R,0.0010X0.0480*%
%ADD31R,0.0010X0.0410*%
%ADD32R,0.0010X0.0490*%
%ADD33R,0.0010X0.0510*%
%ADD34R,0.0010X0.0520*%
%ADD35R,0.0010X0.0280*%
%ADD36R,0.0010X0.0470*%
%ADD37R,0.0010X0.0530*%
%ADD38R,0.0010X0.0540*%
%ADD39R,0.0010X0.0550*%
%ADD40R,0.0010X0.0560*%
%ADD41R,0.0010X0.0080*%
%ADD42R,0.0010X0.0060*%
%ADD43R,0.0010X0.0230*%
%ADD44R,0.0010X0.0300*%
%ADD45R,0.0010X0.0260*%
%ADD46R,0.0010X0.0050*%
%ADD47R,0.0010X0.0200*%
%ADD48R,0.0010X0.0240*%
%ADD49R,0.0010X0.0310*%
%ADD50R,0.0010X0.0320*%
%ADD51R,0.0010X0.0370*%
%ADD52R,0.0010X0.0640*%
%ADD53R,0.0010X0.0650*%
%ADD54R,0.0010X0.0630*%
%ADD55R,0.0010X0.0620*%
%ADD56R,0.0010X0.0610*%
%ADD57R,0.0010X0.0150*%
%ADD58R,0.0010X0.0160*%
%ADD59R,0.0010X0.0590*%
%ADD60R,0.0010X0.0600*%
%ADD61R,0.0010X0.0570*%
%ADD62R,0.0010X0.0580*%
%ADD63R,0.0010X0.0170*%
%ADD64R,0.0010X0.0360*%
%ADD65R,0.0010X0.0180*%
%ADD66R,0.0010X0.0500*%
%ADD67R,0.0010X0.0190*%
%ADD68R,0.0010X0.0140*%
%ADD69C,0.0050*%
%ADD70C,0.0223*%
D10*
X003131Y001957D02*
X003208Y001881D01*
X003361Y001881D01*
X003438Y001957D01*
X003131Y002264D01*
X003208Y002341D01*
X003361Y002341D01*
X003438Y002264D01*
X003438Y001957D01*
X003131Y001957D02*
X003131Y002264D01*
X003591Y002264D02*
X003668Y002264D01*
X003668Y002341D01*
X003591Y002341D01*
X003591Y002264D01*
X003821Y002264D02*
X003821Y002187D01*
X003898Y002111D01*
X004052Y002111D01*
X004128Y002187D01*
X004128Y002264D01*
X004052Y002341D01*
X003898Y002341D01*
X003821Y002264D01*
X003898Y002111D02*
X003821Y002034D01*
X003821Y001957D01*
X003898Y001881D01*
X004052Y001881D01*
X004128Y001957D01*
X004128Y002034D01*
X004052Y002111D01*
X004282Y002264D02*
X004282Y001957D01*
X004358Y001881D01*
X004512Y001881D01*
X004589Y001957D01*
X004282Y002264D01*
X004358Y002341D01*
X004512Y002341D01*
X004589Y002264D01*
X004589Y001957D01*
X004742Y002034D02*
X004819Y002034D01*
X004896Y002111D01*
X004972Y002034D01*
X005049Y002111D01*
X005049Y002341D01*
X005202Y002341D02*
X005202Y002034D01*
X005279Y002034D01*
X005356Y002111D01*
X005433Y002034D01*
X005509Y002111D01*
X005509Y002341D01*
X005356Y002341D02*
X005356Y002111D01*
X004896Y002111D02*
X004896Y002341D01*
X004742Y002341D02*
X004742Y002034D01*
X009131Y001957D02*
X009131Y002034D01*
X009208Y002111D01*
X009361Y002111D01*
X009438Y002187D01*
X009438Y002264D01*
X009361Y002341D01*
X009208Y002341D01*
X009131Y002264D01*
X009131Y001957D02*
X009208Y001881D01*
X009361Y001881D01*
X009438Y001957D01*
X009591Y002034D02*
X009668Y002034D01*
X009745Y002111D01*
X009821Y002034D01*
X009898Y002111D01*
X009898Y002341D01*
X009745Y002341D02*
X009745Y002111D01*
X009591Y002034D02*
X009591Y002341D01*
X010052Y002264D02*
X010128Y002187D01*
X010358Y002187D01*
X010358Y002111D02*
X010358Y002341D01*
X010128Y002341D01*
X010052Y002264D01*
X010128Y002034D02*
X010282Y002034D01*
X010358Y002111D01*
X010512Y002341D02*
X010665Y002341D01*
X010589Y002341D02*
X010589Y001881D01*
X010512Y001881D01*
X010819Y001881D02*
X010896Y001881D01*
X010896Y002341D01*
X010972Y002341D02*
X010819Y002341D01*
X011126Y002341D02*
X011126Y001881D01*
X011356Y001881D01*
X011433Y001957D01*
X011433Y002111D01*
X011356Y002187D01*
X011126Y002187D01*
X011279Y002187D02*
X011433Y002341D01*
X011586Y002264D02*
X011586Y002111D01*
X011663Y002034D01*
X011816Y002034D01*
X011893Y002111D01*
X011893Y002264D01*
X011816Y002341D01*
X011663Y002341D01*
X011586Y002264D01*
X012046Y002264D02*
X012046Y002111D01*
X012123Y002034D01*
X012277Y002034D01*
X012353Y002111D01*
X012353Y002264D01*
X012277Y002341D01*
X012123Y002341D01*
X012046Y002264D01*
X012507Y002341D02*
X012507Y002034D01*
X012583Y002034D01*
X012660Y002111D01*
X012737Y002034D01*
X012814Y002111D01*
X012814Y002341D01*
X012967Y002341D02*
X013274Y002341D01*
X013427Y002264D02*
X013504Y002187D01*
X013734Y002187D01*
X013734Y002111D02*
X013734Y002341D01*
X013504Y002341D01*
X013427Y002264D01*
X013504Y002034D02*
X013658Y002034D01*
X013734Y002111D01*
X013888Y002034D02*
X014118Y002034D01*
X014195Y002111D01*
X014195Y002264D01*
X014118Y002341D01*
X013888Y002341D01*
X013888Y001881D01*
X014348Y002111D02*
X014425Y002034D01*
X014655Y002034D01*
X014578Y002187D02*
X014425Y002187D01*
X014348Y002111D01*
X014348Y002341D02*
X014578Y002341D01*
X014655Y002264D01*
X014578Y002187D01*
X014809Y002264D02*
X014885Y002264D01*
X014885Y002341D01*
X014809Y002341D01*
X014809Y002264D01*
X015039Y002264D02*
X015039Y002111D01*
X015115Y002034D01*
X015346Y002034D01*
X015499Y002111D02*
X015499Y002264D01*
X015576Y002341D01*
X015729Y002341D01*
X015806Y002264D01*
X015806Y002111D01*
X015729Y002034D01*
X015576Y002034D01*
X015499Y002111D01*
X015346Y002341D02*
X015115Y002341D01*
X015039Y002264D01*
X015959Y002341D02*
X015959Y002034D01*
X016036Y002034D01*
X016113Y002111D01*
X016190Y002034D01*
X016266Y002111D01*
X016266Y002341D01*
X016113Y002341D02*
X016113Y002111D01*
X012967Y001881D02*
X012967Y002341D01*
X012660Y002341D02*
X012660Y002111D01*
X014212Y007631D02*
X014212Y007861D01*
X014289Y007938D01*
X014366Y007861D01*
X014366Y007631D01*
X014519Y007631D02*
X014519Y007938D01*
X014443Y007938D01*
X014366Y007861D01*
X014673Y007861D02*
X014673Y007631D01*
X014826Y007631D02*
X014826Y007861D01*
X014749Y007938D01*
X014673Y007861D01*
X014826Y007861D02*
X014903Y007938D01*
X014980Y007938D01*
X014980Y007631D01*
X015133Y007708D02*
X015210Y007631D01*
X015363Y007631D01*
X015440Y007708D01*
X015133Y008014D01*
X015133Y007708D01*
X015440Y007708D02*
X015440Y008014D01*
X015363Y008091D01*
X015210Y008091D01*
X015133Y008014D01*
X015593Y008014D02*
X015900Y007708D01*
X015900Y007631D01*
X016054Y007631D02*
X016131Y007631D01*
X016131Y007708D01*
X016054Y007708D01*
X016054Y007631D01*
X016284Y007708D02*
X016361Y007631D01*
X016514Y007631D01*
X016591Y007708D01*
X016284Y008014D01*
X016284Y007708D01*
X016284Y008014D02*
X016361Y008091D01*
X016514Y008091D01*
X016591Y008014D01*
X016591Y007708D01*
X015900Y008091D02*
X015593Y008091D01*
X015593Y008014D01*
X014138Y011881D02*
X014138Y012341D01*
X014368Y012341D01*
X014445Y012264D01*
X014445Y012111D01*
X014368Y012034D01*
X014138Y012034D01*
X013984Y012111D02*
X013984Y012341D01*
X013754Y012341D01*
X013677Y012264D01*
X013754Y012187D01*
X013984Y012187D01*
X013984Y012111D02*
X013908Y012034D01*
X013754Y012034D01*
X013524Y012341D02*
X013217Y012341D01*
X013217Y011881D01*
X013064Y012111D02*
X013064Y012341D01*
X012910Y012341D02*
X012910Y012111D01*
X012987Y012034D01*
X013064Y012111D01*
X012910Y012111D02*
X012833Y012034D01*
X012757Y012034D01*
X012757Y012341D01*
X012603Y012264D02*
X012603Y012111D01*
X012527Y012034D01*
X012373Y012034D01*
X012296Y012111D01*
X012296Y012264D01*
X012373Y012341D01*
X012527Y012341D01*
X012603Y012264D01*
X012143Y012264D02*
X012143Y012111D01*
X012066Y012034D01*
X011913Y012034D01*
X011836Y012111D01*
X011836Y012264D01*
X011913Y012341D01*
X012066Y012341D01*
X012143Y012264D01*
X011683Y012341D02*
X011529Y012187D01*
X011606Y012187D02*
X011376Y012187D01*
X011376Y012341D02*
X011376Y011881D01*
X011606Y011881D01*
X011683Y011957D01*
X011683Y012111D01*
X011606Y012187D01*
X011222Y012341D02*
X011069Y012341D01*
X011146Y012341D02*
X011146Y011881D01*
X011069Y011881D01*
X010839Y011881D02*
X010839Y012341D01*
X010915Y012341D02*
X010762Y012341D01*
X010608Y012341D02*
X010608Y012111D01*
X010532Y012034D01*
X010378Y012034D01*
X010378Y012187D02*
X010302Y012264D01*
X010378Y012341D01*
X010608Y012341D01*
X010608Y012187D02*
X010378Y012187D01*
X010148Y012111D02*
X010148Y012341D01*
X009995Y012341D02*
X009995Y012111D01*
X010071Y012034D01*
X010148Y012111D01*
X009995Y012111D02*
X009918Y012034D01*
X009841Y012034D01*
X009841Y012341D01*
X009688Y012264D02*
X009611Y012341D01*
X009458Y012341D01*
X009381Y012264D01*
X009458Y012111D02*
X009611Y012111D01*
X009688Y012187D01*
X009688Y012264D01*
X009458Y012111D02*
X009381Y012034D01*
X009381Y011957D01*
X009458Y011881D01*
X009611Y011881D01*
X009688Y011957D01*
X010762Y011881D02*
X010839Y011881D01*
X014598Y012111D02*
X014675Y012034D01*
X014905Y012034D01*
X014828Y012187D02*
X014675Y012187D01*
X014598Y012111D01*
X014598Y012341D02*
X014828Y012341D01*
X014905Y012264D01*
X014828Y012187D01*
X015059Y012264D02*
X015135Y012264D01*
X015135Y012341D01*
X015059Y012341D01*
X015059Y012264D01*
X015289Y012264D02*
X015289Y012111D01*
X015365Y012034D01*
X015596Y012034D01*
X015749Y012111D02*
X015749Y012264D01*
X015826Y012341D01*
X015979Y012341D01*
X016056Y012264D01*
X016056Y012111D01*
X015979Y012034D01*
X015826Y012034D01*
X015749Y012111D01*
X015596Y012341D02*
X015365Y012341D01*
X015289Y012264D01*
X016209Y012341D02*
X016209Y012034D01*
X016286Y012034D01*
X016363Y012111D01*
X016440Y012034D01*
X016516Y012111D01*
X016516Y012341D01*
X016363Y012341D02*
X016363Y012111D01*
X016437Y017631D02*
X016437Y018091D01*
X016591Y017938D01*
X016591Y017631D02*
X016284Y017631D01*
X016131Y017631D02*
X016054Y017631D01*
X016054Y017708D01*
X016131Y017708D01*
X016131Y017631D01*
X015900Y017708D02*
X015900Y018014D01*
X015824Y018091D01*
X015670Y018091D01*
X015593Y018014D01*
X015900Y017708D01*
X015824Y017631D01*
X015670Y017631D01*
X015593Y017708D01*
X015593Y018014D01*
X015440Y017938D02*
X015363Y017938D01*
X015287Y017861D01*
X015210Y017938D01*
X015133Y017861D01*
X015133Y017631D01*
X014980Y017631D02*
X014980Y017938D01*
X014903Y017938D01*
X014826Y017861D01*
X014749Y017938D01*
X014673Y017861D01*
X014673Y017631D01*
X014826Y017631D02*
X014826Y017861D01*
X015287Y017861D02*
X015287Y017631D01*
X015440Y017631D02*
X015440Y017938D01*
X010380Y017938D02*
X010304Y017861D01*
X010150Y017861D01*
X010074Y017784D01*
X010074Y017708D01*
X010150Y017631D01*
X010304Y017631D01*
X010380Y017708D01*
X010380Y017938D02*
X010380Y018014D01*
X010304Y018091D01*
X010150Y018091D01*
X010074Y018014D01*
X009920Y017938D02*
X009843Y017938D01*
X009767Y017861D01*
X009690Y017938D01*
X009613Y017861D01*
X009613Y017631D01*
X009767Y017631D02*
X009767Y017861D01*
X009920Y017938D02*
X009920Y017631D01*
X009460Y017708D02*
X009383Y017784D01*
X009153Y017784D01*
X009153Y017861D02*
X009153Y017631D01*
X009383Y017631D01*
X009460Y017708D01*
X009383Y017938D02*
X009230Y017938D01*
X009153Y017861D01*
X008999Y017631D02*
X008846Y017631D01*
X008923Y017631D02*
X008923Y018091D01*
X008999Y018091D01*
X008692Y018091D02*
X008616Y018091D01*
X008616Y017631D01*
X008692Y017631D02*
X008539Y017631D01*
X008386Y017631D02*
X008386Y018091D01*
X008155Y018091D01*
X008079Y018014D01*
X008079Y017861D01*
X008155Y017784D01*
X008386Y017784D01*
X008232Y017784D02*
X008079Y017631D01*
X007925Y017708D02*
X007925Y017861D01*
X007849Y017938D01*
X007695Y017938D01*
X007618Y017861D01*
X007618Y017708D01*
X007695Y017631D01*
X007849Y017631D01*
X007925Y017708D01*
X007465Y017708D02*
X007388Y017631D01*
X007235Y017631D01*
X007158Y017708D01*
X007158Y017861D01*
X007235Y017938D01*
X007388Y017938D01*
X007465Y017861D01*
X007465Y017708D01*
X007004Y017631D02*
X007004Y017938D01*
X006928Y017938D01*
X006851Y017861D01*
X006774Y017938D01*
X006698Y017861D01*
X006698Y017631D01*
X006851Y017631D02*
X006851Y017861D01*
X006544Y017631D02*
X006237Y017631D01*
X006084Y017708D02*
X006007Y017784D01*
X005777Y017784D01*
X005777Y017861D02*
X005777Y017631D01*
X006007Y017631D01*
X006084Y017708D01*
X005854Y017938D02*
X005777Y017861D01*
X005854Y017938D02*
X006007Y017938D01*
X005623Y017938D02*
X005393Y017938D01*
X005317Y017861D01*
X005317Y017708D01*
X005393Y017631D01*
X005623Y017631D01*
X005623Y018091D01*
X005163Y017861D02*
X005086Y017938D01*
X004856Y017938D01*
X004933Y017784D02*
X005086Y017784D01*
X005163Y017861D01*
X005163Y017631D02*
X004933Y017631D01*
X004856Y017708D01*
X004933Y017784D01*
X004703Y017708D02*
X004626Y017708D01*
X004626Y017631D01*
X004703Y017631D01*
X004703Y017708D01*
X004473Y017708D02*
X004473Y017861D01*
X004396Y017938D01*
X004166Y017938D01*
X004012Y017861D02*
X004012Y017708D01*
X003936Y017631D01*
X003782Y017631D01*
X003705Y017708D01*
X003705Y017861D01*
X003782Y017938D01*
X003936Y017938D01*
X004012Y017861D01*
X004166Y017631D02*
X004396Y017631D01*
X004473Y017708D01*
X003552Y017631D02*
X003552Y017938D01*
X003475Y017938D01*
X003398Y017861D01*
X003322Y017938D01*
X003245Y017861D01*
X003245Y017631D01*
X003398Y017631D02*
X003398Y017861D01*
X006544Y018091D02*
X006544Y017631D01*
X005970Y012341D02*
X005970Y012111D01*
X005893Y012034D01*
X005816Y012111D01*
X005816Y012341D01*
X005663Y012341D02*
X005663Y012034D01*
X005739Y012034D01*
X005816Y012111D01*
X005509Y012111D02*
X005509Y012341D01*
X005356Y012341D02*
X005356Y012111D01*
X005433Y012034D01*
X005509Y012111D01*
X005356Y012111D02*
X005279Y012034D01*
X005202Y012034D01*
X005202Y012341D01*
X005049Y012264D02*
X005049Y012111D01*
X004972Y012034D01*
X004896Y012034D01*
X004742Y012111D01*
X004742Y011881D01*
X005049Y011881D01*
X005049Y012264D02*
X004972Y012341D01*
X004819Y012341D01*
X004742Y012264D01*
X004589Y012111D02*
X004282Y012111D01*
X004512Y011881D01*
X004512Y012341D01*
X004128Y012264D02*
X004052Y012341D01*
X003898Y012341D01*
X003821Y012264D01*
X003821Y012187D01*
X003898Y012111D01*
X004052Y012111D01*
X004128Y012187D01*
X004128Y012264D01*
X004052Y012111D02*
X004128Y012034D01*
X004128Y011957D01*
X004052Y011881D01*
X003898Y011881D01*
X003821Y011957D01*
X003821Y012034D01*
X003898Y012111D01*
X003668Y012264D02*
X003668Y012341D01*
X003591Y012341D01*
X003591Y012264D01*
X003668Y012264D01*
X003438Y012264D02*
X003438Y011957D01*
X003131Y012264D01*
X003208Y012341D01*
X003361Y012341D01*
X003438Y012264D01*
X003438Y011957D02*
X003361Y011881D01*
X003208Y011881D01*
X003131Y011957D01*
X003131Y012264D01*
X005623Y008091D02*
X005623Y007631D01*
X005393Y007631D01*
X005317Y007708D01*
X005317Y007861D01*
X005393Y007938D01*
X005623Y007938D01*
X005777Y007861D02*
X005777Y007631D01*
X006007Y007631D01*
X006084Y007708D01*
X006007Y007784D01*
X005777Y007784D01*
X005777Y007861D02*
X005854Y007938D01*
X006007Y007938D01*
X006237Y007631D02*
X006544Y007631D01*
X006544Y008091D01*
X006698Y007861D02*
X006698Y007631D01*
X006851Y007631D02*
X006851Y007861D01*
X006774Y007938D01*
X006698Y007861D01*
X006851Y007861D02*
X006928Y007938D01*
X007004Y007938D01*
X007004Y007631D01*
X007158Y007708D02*
X007158Y007861D01*
X007235Y007938D01*
X007388Y007938D01*
X007465Y007861D01*
X007465Y007708D01*
X007388Y007631D01*
X007235Y007631D01*
X007158Y007708D01*
X007618Y007708D02*
X007618Y007861D01*
X007695Y007938D01*
X007849Y007938D01*
X007925Y007861D01*
X007925Y007708D01*
X007849Y007631D01*
X007695Y007631D01*
X007618Y007708D01*
X008079Y007631D02*
X008232Y007784D01*
X008155Y007784D02*
X008386Y007784D01*
X008386Y007631D02*
X008386Y008091D01*
X008155Y008091D01*
X008079Y008014D01*
X008079Y007861D01*
X008155Y007784D01*
X008539Y007631D02*
X008692Y007631D01*
X008616Y007631D02*
X008616Y008091D01*
X008692Y008091D01*
X008923Y008091D02*
X008923Y007631D01*
X008999Y007631D02*
X008846Y007631D01*
X009153Y007631D02*
X009153Y007861D01*
X009230Y007938D01*
X009383Y007938D01*
X009383Y007784D02*
X009153Y007784D01*
X009153Y007631D02*
X009383Y007631D01*
X009460Y007708D01*
X009383Y007784D01*
X009613Y007861D02*
X009613Y007631D01*
X009767Y007631D02*
X009767Y007861D01*
X009690Y007938D01*
X009613Y007861D01*
X009767Y007861D02*
X009843Y007938D01*
X009920Y007938D01*
X009920Y007631D01*
X010074Y007708D02*
X010074Y007784D01*
X010150Y007861D01*
X010304Y007861D01*
X010380Y007938D01*
X010380Y008014D01*
X010304Y008091D01*
X010150Y008091D01*
X010074Y008014D01*
X010074Y007708D02*
X010150Y007631D01*
X010304Y007631D01*
X010380Y007708D01*
X008999Y008091D02*
X008923Y008091D01*
X005163Y007861D02*
X005086Y007938D01*
X004856Y007938D01*
X004933Y007784D02*
X005086Y007784D01*
X005163Y007861D01*
X005163Y007631D02*
X004933Y007631D01*
X004856Y007708D01*
X004933Y007784D01*
X004703Y007708D02*
X004626Y007708D01*
X004626Y007631D01*
X004703Y007631D01*
X004703Y007708D01*
X004473Y007708D02*
X004473Y007861D01*
X004396Y007938D01*
X004166Y007938D01*
X004012Y007861D02*
X004012Y007708D01*
X003936Y007631D01*
X003782Y007631D01*
X003705Y007708D01*
X003705Y007861D01*
X003782Y007938D01*
X003936Y007938D01*
X004012Y007861D01*
X004166Y007631D02*
X004396Y007631D01*
X004473Y007708D01*
X003552Y007631D02*
X003552Y007938D01*
X003475Y007938D01*
X003398Y007861D01*
X003322Y007938D01*
X003245Y007861D01*
X003245Y007631D01*
X003398Y007631D02*
X003398Y007861D01*
D11*
X001076Y001686D02*
X001078Y001735D01*
X001084Y001784D01*
X001094Y001832D01*
X001107Y001879D01*
X001125Y001925D01*
X001146Y001969D01*
X001170Y002012D01*
X001198Y002052D01*
X001229Y002091D01*
X001263Y002126D01*
X001300Y002159D01*
X001339Y002188D01*
X001381Y002214D01*
X001424Y002237D01*
X001470Y002256D01*
X001516Y002272D01*
X001564Y002284D01*
X001612Y002292D01*
X001661Y002296D01*
X001711Y002296D01*
X001760Y002292D01*
X001808Y002284D01*
X001856Y002272D01*
X001902Y002256D01*
X001948Y002237D01*
X001991Y002214D01*
X002033Y002188D01*
X002072Y002159D01*
X002109Y002126D01*
X002143Y002091D01*
X002174Y002052D01*
X002202Y002012D01*
X002226Y001969D01*
X002247Y001925D01*
X002265Y001879D01*
X002278Y001832D01*
X002288Y001784D01*
X002294Y001735D01*
X002296Y001686D01*
X002294Y001637D01*
X002288Y001588D01*
X002278Y001540D01*
X002265Y001493D01*
X002247Y001447D01*
X002226Y001403D01*
X002202Y001360D01*
X002174Y001320D01*
X002143Y001281D01*
X002109Y001246D01*
X002072Y001213D01*
X002033Y001184D01*
X001991Y001158D01*
X001948Y001135D01*
X001902Y001116D01*
X001856Y001100D01*
X001808Y001088D01*
X001760Y001080D01*
X001711Y001076D01*
X001661Y001076D01*
X001612Y001080D01*
X001564Y001088D01*
X001516Y001100D01*
X001470Y001116D01*
X001424Y001135D01*
X001381Y001158D01*
X001339Y001184D01*
X001300Y001213D01*
X001263Y001246D01*
X001229Y001281D01*
X001198Y001320D01*
X001170Y001360D01*
X001146Y001403D01*
X001125Y001447D01*
X001107Y001493D01*
X001094Y001540D01*
X001084Y001588D01*
X001078Y001637D01*
X001076Y001686D01*
X001076Y008379D02*
X001078Y008428D01*
X001084Y008477D01*
X001094Y008525D01*
X001107Y008572D01*
X001125Y008618D01*
X001146Y008662D01*
X001170Y008705D01*
X001198Y008745D01*
X001229Y008784D01*
X001263Y008819D01*
X001300Y008852D01*
X001339Y008881D01*
X001381Y008907D01*
X001424Y008930D01*
X001470Y008949D01*
X001516Y008965D01*
X001564Y008977D01*
X001612Y008985D01*
X001661Y008989D01*
X001711Y008989D01*
X001760Y008985D01*
X001808Y008977D01*
X001856Y008965D01*
X001902Y008949D01*
X001948Y008930D01*
X001991Y008907D01*
X002033Y008881D01*
X002072Y008852D01*
X002109Y008819D01*
X002143Y008784D01*
X002174Y008745D01*
X002202Y008705D01*
X002226Y008662D01*
X002247Y008618D01*
X002265Y008572D01*
X002278Y008525D01*
X002288Y008477D01*
X002294Y008428D01*
X002296Y008379D01*
X002294Y008330D01*
X002288Y008281D01*
X002278Y008233D01*
X002265Y008186D01*
X002247Y008140D01*
X002226Y008096D01*
X002202Y008053D01*
X002174Y008013D01*
X002143Y007974D01*
X002109Y007939D01*
X002072Y007906D01*
X002033Y007877D01*
X001991Y007851D01*
X001948Y007828D01*
X001902Y007809D01*
X001856Y007793D01*
X001808Y007781D01*
X001760Y007773D01*
X001711Y007769D01*
X001661Y007769D01*
X001612Y007773D01*
X001564Y007781D01*
X001516Y007793D01*
X001470Y007809D01*
X001424Y007828D01*
X001381Y007851D01*
X001339Y007877D01*
X001300Y007906D01*
X001263Y007939D01*
X001229Y007974D01*
X001198Y008013D01*
X001170Y008053D01*
X001146Y008096D01*
X001125Y008140D01*
X001107Y008186D01*
X001094Y008233D01*
X001084Y008281D01*
X001078Y008330D01*
X001076Y008379D01*
X001076Y011528D02*
X001078Y011577D01*
X001084Y011626D01*
X001094Y011674D01*
X001107Y011721D01*
X001125Y011767D01*
X001146Y011811D01*
X001170Y011854D01*
X001198Y011894D01*
X001229Y011933D01*
X001263Y011968D01*
X001300Y012001D01*
X001339Y012030D01*
X001381Y012056D01*
X001424Y012079D01*
X001470Y012098D01*
X001516Y012114D01*
X001564Y012126D01*
X001612Y012134D01*
X001661Y012138D01*
X001711Y012138D01*
X001760Y012134D01*
X001808Y012126D01*
X001856Y012114D01*
X001902Y012098D01*
X001948Y012079D01*
X001991Y012056D01*
X002033Y012030D01*
X002072Y012001D01*
X002109Y011968D01*
X002143Y011933D01*
X002174Y011894D01*
X002202Y011854D01*
X002226Y011811D01*
X002247Y011767D01*
X002265Y011721D01*
X002278Y011674D01*
X002288Y011626D01*
X002294Y011577D01*
X002296Y011528D01*
X002294Y011479D01*
X002288Y011430D01*
X002278Y011382D01*
X002265Y011335D01*
X002247Y011289D01*
X002226Y011245D01*
X002202Y011202D01*
X002174Y011162D01*
X002143Y011123D01*
X002109Y011088D01*
X002072Y011055D01*
X002033Y011026D01*
X001991Y011000D01*
X001948Y010977D01*
X001902Y010958D01*
X001856Y010942D01*
X001808Y010930D01*
X001760Y010922D01*
X001711Y010918D01*
X001661Y010918D01*
X001612Y010922D01*
X001564Y010930D01*
X001516Y010942D01*
X001470Y010958D01*
X001424Y010977D01*
X001381Y011000D01*
X001339Y011026D01*
X001300Y011055D01*
X001263Y011088D01*
X001229Y011123D01*
X001198Y011162D01*
X001170Y011202D01*
X001146Y011245D01*
X001125Y011289D01*
X001107Y011335D01*
X001094Y011382D01*
X001084Y011430D01*
X001078Y011479D01*
X001076Y011528D01*
X001076Y018221D02*
X001078Y018270D01*
X001084Y018319D01*
X001094Y018367D01*
X001107Y018414D01*
X001125Y018460D01*
X001146Y018504D01*
X001170Y018547D01*
X001198Y018587D01*
X001229Y018626D01*
X001263Y018661D01*
X001300Y018694D01*
X001339Y018723D01*
X001381Y018749D01*
X001424Y018772D01*
X001470Y018791D01*
X001516Y018807D01*
X001564Y018819D01*
X001612Y018827D01*
X001661Y018831D01*
X001711Y018831D01*
X001760Y018827D01*
X001808Y018819D01*
X001856Y018807D01*
X001902Y018791D01*
X001948Y018772D01*
X001991Y018749D01*
X002033Y018723D01*
X002072Y018694D01*
X002109Y018661D01*
X002143Y018626D01*
X002174Y018587D01*
X002202Y018547D01*
X002226Y018504D01*
X002247Y018460D01*
X002265Y018414D01*
X002278Y018367D01*
X002288Y018319D01*
X002294Y018270D01*
X002296Y018221D01*
X002294Y018172D01*
X002288Y018123D01*
X002278Y018075D01*
X002265Y018028D01*
X002247Y017982D01*
X002226Y017938D01*
X002202Y017895D01*
X002174Y017855D01*
X002143Y017816D01*
X002109Y017781D01*
X002072Y017748D01*
X002033Y017719D01*
X001991Y017693D01*
X001948Y017670D01*
X001902Y017651D01*
X001856Y017635D01*
X001808Y017623D01*
X001760Y017615D01*
X001711Y017611D01*
X001661Y017611D01*
X001612Y017615D01*
X001564Y017623D01*
X001516Y017635D01*
X001470Y017651D01*
X001424Y017670D01*
X001381Y017693D01*
X001339Y017719D01*
X001300Y017748D01*
X001263Y017781D01*
X001229Y017816D01*
X001198Y017855D01*
X001170Y017895D01*
X001146Y017938D01*
X001125Y017982D01*
X001107Y018028D01*
X001094Y018075D01*
X001084Y018123D01*
X001078Y018172D01*
X001076Y018221D01*
X017611Y018221D02*
X017613Y018270D01*
X017619Y018319D01*
X017629Y018367D01*
X017642Y018414D01*
X017660Y018460D01*
X017681Y018504D01*
X017705Y018547D01*
X017733Y018587D01*
X017764Y018626D01*
X017798Y018661D01*
X017835Y018694D01*
X017874Y018723D01*
X017916Y018749D01*
X017959Y018772D01*
X018005Y018791D01*
X018051Y018807D01*
X018099Y018819D01*
X018147Y018827D01*
X018196Y018831D01*
X018246Y018831D01*
X018295Y018827D01*
X018343Y018819D01*
X018391Y018807D01*
X018437Y018791D01*
X018483Y018772D01*
X018526Y018749D01*
X018568Y018723D01*
X018607Y018694D01*
X018644Y018661D01*
X018678Y018626D01*
X018709Y018587D01*
X018737Y018547D01*
X018761Y018504D01*
X018782Y018460D01*
X018800Y018414D01*
X018813Y018367D01*
X018823Y018319D01*
X018829Y018270D01*
X018831Y018221D01*
X018829Y018172D01*
X018823Y018123D01*
X018813Y018075D01*
X018800Y018028D01*
X018782Y017982D01*
X018761Y017938D01*
X018737Y017895D01*
X018709Y017855D01*
X018678Y017816D01*
X018644Y017781D01*
X018607Y017748D01*
X018568Y017719D01*
X018526Y017693D01*
X018483Y017670D01*
X018437Y017651D01*
X018391Y017635D01*
X018343Y017623D01*
X018295Y017615D01*
X018246Y017611D01*
X018196Y017611D01*
X018147Y017615D01*
X018099Y017623D01*
X018051Y017635D01*
X018005Y017651D01*
X017959Y017670D01*
X017916Y017693D01*
X017874Y017719D01*
X017835Y017748D01*
X017798Y017781D01*
X017764Y017816D01*
X017733Y017855D01*
X017705Y017895D01*
X017681Y017938D01*
X017660Y017982D01*
X017642Y018028D01*
X017629Y018075D01*
X017619Y018123D01*
X017613Y018172D01*
X017611Y018221D01*
X017611Y011528D02*
X017613Y011577D01*
X017619Y011626D01*
X017629Y011674D01*
X017642Y011721D01*
X017660Y011767D01*
X017681Y011811D01*
X017705Y011854D01*
X017733Y011894D01*
X017764Y011933D01*
X017798Y011968D01*
X017835Y012001D01*
X017874Y012030D01*
X017916Y012056D01*
X017959Y012079D01*
X018005Y012098D01*
X018051Y012114D01*
X018099Y012126D01*
X018147Y012134D01*
X018196Y012138D01*
X018246Y012138D01*
X018295Y012134D01*
X018343Y012126D01*
X018391Y012114D01*
X018437Y012098D01*
X018483Y012079D01*
X018526Y012056D01*
X018568Y012030D01*
X018607Y012001D01*
X018644Y011968D01*
X018678Y011933D01*
X018709Y011894D01*
X018737Y011854D01*
X018761Y011811D01*
X018782Y011767D01*
X018800Y011721D01*
X018813Y011674D01*
X018823Y011626D01*
X018829Y011577D01*
X018831Y011528D01*
X018829Y011479D01*
X018823Y011430D01*
X018813Y011382D01*
X018800Y011335D01*
X018782Y011289D01*
X018761Y011245D01*
X018737Y011202D01*
X018709Y011162D01*
X018678Y011123D01*
X018644Y011088D01*
X018607Y011055D01*
X018568Y011026D01*
X018526Y011000D01*
X018483Y010977D01*
X018437Y010958D01*
X018391Y010942D01*
X018343Y010930D01*
X018295Y010922D01*
X018246Y010918D01*
X018196Y010918D01*
X018147Y010922D01*
X018099Y010930D01*
X018051Y010942D01*
X018005Y010958D01*
X017959Y010977D01*
X017916Y011000D01*
X017874Y011026D01*
X017835Y011055D01*
X017798Y011088D01*
X017764Y011123D01*
X017733Y011162D01*
X017705Y011202D01*
X017681Y011245D01*
X017660Y011289D01*
X017642Y011335D01*
X017629Y011382D01*
X017619Y011430D01*
X017613Y011479D01*
X017611Y011528D01*
X017611Y008379D02*
X017613Y008428D01*
X017619Y008477D01*
X017629Y008525D01*
X017642Y008572D01*
X017660Y008618D01*
X017681Y008662D01*
X017705Y008705D01*
X017733Y008745D01*
X017764Y008784D01*
X017798Y008819D01*
X017835Y008852D01*
X017874Y008881D01*
X017916Y008907D01*
X017959Y008930D01*
X018005Y008949D01*
X018051Y008965D01*
X018099Y008977D01*
X018147Y008985D01*
X018196Y008989D01*
X018246Y008989D01*
X018295Y008985D01*
X018343Y008977D01*
X018391Y008965D01*
X018437Y008949D01*
X018483Y008930D01*
X018526Y008907D01*
X018568Y008881D01*
X018607Y008852D01*
X018644Y008819D01*
X018678Y008784D01*
X018709Y008745D01*
X018737Y008705D01*
X018761Y008662D01*
X018782Y008618D01*
X018800Y008572D01*
X018813Y008525D01*
X018823Y008477D01*
X018829Y008428D01*
X018831Y008379D01*
X018829Y008330D01*
X018823Y008281D01*
X018813Y008233D01*
X018800Y008186D01*
X018782Y008140D01*
X018761Y008096D01*
X018737Y008053D01*
X018709Y008013D01*
X018678Y007974D01*
X018644Y007939D01*
X018607Y007906D01*
X018568Y007877D01*
X018526Y007851D01*
X018483Y007828D01*
X018437Y007809D01*
X018391Y007793D01*
X018343Y007781D01*
X018295Y007773D01*
X018246Y007769D01*
X018196Y007769D01*
X018147Y007773D01*
X018099Y007781D01*
X018051Y007793D01*
X018005Y007809D01*
X017959Y007828D01*
X017916Y007851D01*
X017874Y007877D01*
X017835Y007906D01*
X017798Y007939D01*
X017764Y007974D01*
X017733Y008013D01*
X017705Y008053D01*
X017681Y008096D01*
X017660Y008140D01*
X017642Y008186D01*
X017629Y008233D01*
X017619Y008281D01*
X017613Y008330D01*
X017611Y008379D01*
X017611Y001686D02*
X017613Y001735D01*
X017619Y001784D01*
X017629Y001832D01*
X017642Y001879D01*
X017660Y001925D01*
X017681Y001969D01*
X017705Y002012D01*
X017733Y002052D01*
X017764Y002091D01*
X017798Y002126D01*
X017835Y002159D01*
X017874Y002188D01*
X017916Y002214D01*
X017959Y002237D01*
X018005Y002256D01*
X018051Y002272D01*
X018099Y002284D01*
X018147Y002292D01*
X018196Y002296D01*
X018246Y002296D01*
X018295Y002292D01*
X018343Y002284D01*
X018391Y002272D01*
X018437Y002256D01*
X018483Y002237D01*
X018526Y002214D01*
X018568Y002188D01*
X018607Y002159D01*
X018644Y002126D01*
X018678Y002091D01*
X018709Y002052D01*
X018737Y002012D01*
X018761Y001969D01*
X018782Y001925D01*
X018800Y001879D01*
X018813Y001832D01*
X018823Y001784D01*
X018829Y001735D01*
X018831Y001686D01*
X018829Y001637D01*
X018823Y001588D01*
X018813Y001540D01*
X018800Y001493D01*
X018782Y001447D01*
X018761Y001403D01*
X018737Y001360D01*
X018709Y001320D01*
X018678Y001281D01*
X018644Y001246D01*
X018607Y001213D01*
X018568Y001184D01*
X018526Y001158D01*
X018483Y001135D01*
X018437Y001116D01*
X018391Y001100D01*
X018343Y001088D01*
X018295Y001080D01*
X018246Y001076D01*
X018196Y001076D01*
X018147Y001080D01*
X018099Y001088D01*
X018051Y001100D01*
X018005Y001116D01*
X017959Y001135D01*
X017916Y001158D01*
X017874Y001184D01*
X017835Y001213D01*
X017798Y001246D01*
X017764Y001281D01*
X017733Y001320D01*
X017705Y001360D01*
X017681Y001403D01*
X017660Y001447D01*
X017642Y001493D01*
X017629Y001540D01*
X017619Y001588D01*
X017613Y001637D01*
X017611Y001686D01*
D12*
X017827Y000110D02*
X017921Y000112D01*
X018014Y000119D01*
X018107Y000130D01*
X018200Y000146D01*
X018291Y000166D01*
X018382Y000190D01*
X018471Y000218D01*
X018559Y000251D01*
X018645Y000288D01*
X018729Y000329D01*
X018812Y000374D01*
X018892Y000423D01*
X018969Y000475D01*
X019044Y000531D01*
X019116Y000591D01*
X019186Y000654D01*
X019252Y000720D01*
X019315Y000790D01*
X019375Y000862D01*
X019431Y000937D01*
X019483Y001014D01*
X019532Y001095D01*
X019577Y001177D01*
X019618Y001261D01*
X019655Y001347D01*
X019688Y001435D01*
X019716Y001524D01*
X019740Y001615D01*
X019760Y001706D01*
X019776Y001799D01*
X019787Y001892D01*
X019794Y001985D01*
X019796Y002079D01*
X019796Y007936D01*
X019794Y008030D01*
X019787Y008123D01*
X019776Y008216D01*
X019760Y008309D01*
X019740Y008400D01*
X019716Y008491D01*
X019688Y008580D01*
X019655Y008668D01*
X019618Y008754D01*
X019577Y008838D01*
X019532Y008920D01*
X019483Y009001D01*
X019431Y009078D01*
X019375Y009153D01*
X019315Y009225D01*
X019252Y009295D01*
X019186Y009361D01*
X019116Y009424D01*
X019044Y009484D01*
X018969Y009540D01*
X018892Y009592D01*
X018811Y009641D01*
X018729Y009686D01*
X018645Y009727D01*
X018559Y009764D01*
X018471Y009797D01*
X018382Y009825D01*
X018291Y009849D01*
X018200Y009869D01*
X018107Y009885D01*
X018014Y009896D01*
X017921Y009903D01*
X017827Y009905D01*
X017827Y009904D02*
X017827Y010003D01*
X017827Y010002D02*
X017921Y010004D01*
X018014Y010011D01*
X018107Y010022D01*
X018200Y010038D01*
X018291Y010058D01*
X018382Y010082D01*
X018471Y010110D01*
X018559Y010143D01*
X018645Y010180D01*
X018729Y010221D01*
X018812Y010266D01*
X018892Y010315D01*
X018969Y010367D01*
X019044Y010423D01*
X019116Y010483D01*
X019186Y010546D01*
X019252Y010612D01*
X019315Y010682D01*
X019375Y010754D01*
X019431Y010829D01*
X019483Y010906D01*
X019532Y010987D01*
X019577Y011069D01*
X019618Y011153D01*
X019655Y011239D01*
X019688Y011327D01*
X019716Y011416D01*
X019740Y011507D01*
X019760Y011598D01*
X019776Y011691D01*
X019787Y011784D01*
X019794Y011877D01*
X019796Y011971D01*
X019796Y017827D01*
X019794Y017921D01*
X019787Y018014D01*
X019776Y018107D01*
X019760Y018200D01*
X019740Y018291D01*
X019716Y018382D01*
X019688Y018471D01*
X019655Y018559D01*
X019618Y018645D01*
X019577Y018729D01*
X019532Y018811D01*
X019483Y018892D01*
X019431Y018969D01*
X019375Y019044D01*
X019315Y019116D01*
X019252Y019186D01*
X019186Y019252D01*
X019116Y019315D01*
X019044Y019375D01*
X018969Y019431D01*
X018892Y019483D01*
X018811Y019532D01*
X018729Y019577D01*
X018645Y019618D01*
X018559Y019655D01*
X018471Y019688D01*
X018382Y019716D01*
X018291Y019740D01*
X018200Y019760D01*
X018107Y019776D01*
X018014Y019787D01*
X017921Y019794D01*
X017827Y019796D01*
X002079Y019796D01*
X001985Y019794D01*
X001892Y019787D01*
X001799Y019776D01*
X001706Y019760D01*
X001615Y019740D01*
X001524Y019716D01*
X001435Y019688D01*
X001347Y019655D01*
X001261Y019618D01*
X001177Y019577D01*
X001094Y019532D01*
X001014Y019483D01*
X000937Y019431D01*
X000862Y019375D01*
X000790Y019315D01*
X000720Y019252D01*
X000654Y019186D01*
X000591Y019116D01*
X000531Y019044D01*
X000475Y018969D01*
X000423Y018892D01*
X000374Y018812D01*
X000329Y018729D01*
X000288Y018645D01*
X000251Y018559D01*
X000218Y018471D01*
X000190Y018382D01*
X000166Y018291D01*
X000146Y018200D01*
X000130Y018107D01*
X000119Y018014D01*
X000112Y017921D01*
X000110Y017827D01*
X000111Y017827D02*
X000111Y011971D01*
X000110Y011971D02*
X000112Y011877D01*
X000119Y011784D01*
X000130Y011691D01*
X000146Y011598D01*
X000166Y011507D01*
X000190Y011416D01*
X000218Y011327D01*
X000251Y011239D01*
X000288Y011153D01*
X000329Y011069D01*
X000374Y010987D01*
X000423Y010906D01*
X000475Y010829D01*
X000531Y010754D01*
X000591Y010682D01*
X000654Y010612D01*
X000720Y010546D01*
X000790Y010483D01*
X000862Y010423D01*
X000937Y010367D01*
X001014Y010315D01*
X001094Y010266D01*
X001177Y010221D01*
X001261Y010180D01*
X001347Y010143D01*
X001435Y010110D01*
X001524Y010082D01*
X001615Y010058D01*
X001706Y010038D01*
X001799Y010022D01*
X001892Y010011D01*
X001985Y010004D01*
X002079Y010002D01*
X002079Y010003D02*
X002079Y009904D01*
X002079Y009905D02*
X001985Y009903D01*
X001892Y009896D01*
X001799Y009885D01*
X001706Y009869D01*
X001615Y009849D01*
X001524Y009825D01*
X001435Y009797D01*
X001347Y009764D01*
X001261Y009727D01*
X001177Y009686D01*
X001094Y009641D01*
X001014Y009592D01*
X000937Y009540D01*
X000862Y009484D01*
X000790Y009424D01*
X000720Y009361D01*
X000654Y009295D01*
X000591Y009225D01*
X000531Y009153D01*
X000475Y009078D01*
X000423Y009001D01*
X000374Y008921D01*
X000329Y008838D01*
X000288Y008754D01*
X000251Y008668D01*
X000218Y008580D01*
X000190Y008491D01*
X000166Y008400D01*
X000146Y008309D01*
X000130Y008216D01*
X000119Y008123D01*
X000112Y008030D01*
X000110Y007936D01*
X000111Y007936D02*
X000111Y002079D01*
X000110Y002079D02*
X000112Y001985D01*
X000119Y001892D01*
X000130Y001799D01*
X000146Y001706D01*
X000166Y001615D01*
X000190Y001524D01*
X000218Y001435D01*
X000251Y001347D01*
X000288Y001261D01*
X000329Y001177D01*
X000374Y001095D01*
X000423Y001014D01*
X000475Y000937D01*
X000531Y000862D01*
X000591Y000790D01*
X000654Y000720D01*
X000720Y000654D01*
X000790Y000591D01*
X000862Y000531D01*
X000937Y000475D01*
X001014Y000423D01*
X001094Y000374D01*
X001177Y000329D01*
X001261Y000288D01*
X001347Y000251D01*
X001435Y000218D01*
X001524Y000190D01*
X001615Y000166D01*
X001706Y000146D01*
X001799Y000130D01*
X001892Y000119D01*
X001985Y000112D01*
X002079Y000110D01*
X002079Y000111D02*
X017827Y000111D01*
D13*
X017543Y003126D02*
X017543Y003496D01*
X017666Y003496D02*
X017419Y003496D01*
X017298Y003434D02*
X017298Y003372D01*
X017236Y003311D01*
X017174Y003311D01*
X017236Y003311D02*
X017298Y003249D01*
X017298Y003187D01*
X017236Y003126D01*
X017113Y003126D01*
X017051Y003187D01*
X017051Y003434D02*
X017113Y003496D01*
X017236Y003496D01*
X017298Y003434D01*
X017419Y003249D02*
X017543Y003126D01*
X016666Y003187D02*
X016604Y003126D01*
X016481Y003126D01*
X016419Y003187D01*
X016419Y003249D01*
X016481Y003311D01*
X016666Y003311D01*
X016666Y003434D02*
X016666Y003187D01*
X016666Y003434D02*
X016604Y003496D01*
X016481Y003496D01*
X016419Y003434D01*
X016298Y003496D02*
X016051Y003496D01*
X016298Y003249D01*
X016298Y003187D01*
X016236Y003126D01*
X016113Y003126D01*
X016051Y003187D01*
X015666Y003187D02*
X015666Y003126D01*
X015419Y003126D01*
X015298Y003187D02*
X015236Y003126D01*
X015113Y003126D01*
X015051Y003187D01*
X015298Y003187D02*
X015298Y003249D01*
X015051Y003496D01*
X015298Y003496D01*
X015419Y003496D02*
X015419Y003434D01*
X015666Y003187D01*
X014666Y003126D02*
X014419Y003126D01*
X014419Y003311D01*
X014543Y003249D01*
X014604Y003249D01*
X014666Y003311D01*
X014666Y003434D01*
X014604Y003496D01*
X014481Y003496D01*
X014419Y003434D01*
X014298Y003496D02*
X014051Y003496D01*
X014298Y003249D01*
X014298Y003187D01*
X014236Y003126D01*
X014113Y003126D01*
X014051Y003187D01*
X013666Y003187D02*
X013604Y003126D01*
X013481Y003126D01*
X013419Y003187D01*
X013298Y003187D02*
X013236Y003126D01*
X013113Y003126D01*
X013051Y003187D01*
X013298Y003187D02*
X013298Y003249D01*
X013051Y003496D01*
X013298Y003496D01*
X013419Y003434D02*
X013481Y003496D01*
X013604Y003496D01*
X013666Y003434D01*
X013666Y003372D01*
X013604Y003311D01*
X013543Y003311D01*
X013604Y003311D02*
X013666Y003249D01*
X013666Y003187D01*
X012666Y003496D02*
X012419Y003496D01*
X012298Y003496D02*
X012051Y003496D01*
X012298Y003249D01*
X012298Y003187D01*
X012236Y003126D01*
X012113Y003126D01*
X012051Y003187D01*
X012419Y003249D02*
X012543Y003126D01*
X012543Y003496D01*
X011666Y003434D02*
X011666Y003187D01*
X011604Y003126D01*
X011481Y003126D01*
X011419Y003187D01*
X011419Y003249D01*
X011481Y003311D01*
X011666Y003311D01*
X011666Y003434D02*
X011604Y003496D01*
X011481Y003496D01*
X011419Y003434D01*
X011298Y003496D02*
X011051Y003496D01*
X011174Y003496D02*
X011174Y003126D01*
X011051Y003249D01*
X010666Y003187D02*
X010666Y003126D01*
X010419Y003126D01*
X010174Y003126D02*
X010174Y003496D01*
X010051Y003496D02*
X010298Y003496D01*
X010419Y003496D02*
X010419Y003434D01*
X010666Y003187D01*
X010174Y003126D02*
X010051Y003249D01*
X009666Y003311D02*
X009666Y003434D01*
X009604Y003496D01*
X009481Y003496D01*
X009419Y003434D01*
X009419Y003311D02*
X009543Y003249D01*
X009604Y003249D01*
X009666Y003311D01*
X009666Y003126D02*
X009419Y003126D01*
X009419Y003311D01*
X009298Y003496D02*
X009051Y003496D01*
X009174Y003496D02*
X009174Y003126D01*
X009051Y003249D01*
X008666Y003249D02*
X008604Y003311D01*
X008666Y003372D01*
X008666Y003434D01*
X008604Y003496D01*
X008481Y003496D01*
X008419Y003434D01*
X008298Y003496D02*
X008051Y003496D01*
X008174Y003496D02*
X008174Y003126D01*
X008051Y003249D01*
X008419Y003187D02*
X008481Y003126D01*
X008604Y003126D01*
X008666Y003187D01*
X008666Y003249D01*
X008604Y003311D02*
X008543Y003311D01*
X007666Y003496D02*
X007419Y003496D01*
X007298Y003496D02*
X007051Y003496D01*
X007174Y003496D02*
X007174Y003126D01*
X007051Y003249D01*
X007419Y003249D02*
X007543Y003126D01*
X007543Y003496D01*
X006498Y003434D02*
X006498Y003187D01*
X006436Y003126D01*
X006313Y003126D01*
X006251Y003187D01*
X006251Y003249D01*
X006313Y003311D01*
X006498Y003311D01*
X006498Y003434D02*
X006436Y003496D01*
X006313Y003496D01*
X006251Y003434D01*
X005498Y003187D02*
X005498Y003126D01*
X005251Y003126D01*
X005498Y003187D02*
X005251Y003434D01*
X005251Y003496D01*
X004498Y003434D02*
X004498Y003311D01*
X004436Y003249D01*
X004374Y003249D01*
X004251Y003311D01*
X004251Y003126D01*
X004498Y003126D01*
X004498Y003434D02*
X004436Y003496D01*
X004313Y003496D01*
X004251Y003434D01*
X003498Y003434D02*
X003498Y003372D01*
X003436Y003311D01*
X003374Y003311D01*
X003436Y003311D02*
X003498Y003249D01*
X003498Y003187D01*
X003436Y003126D01*
X003313Y003126D01*
X003251Y003187D01*
X003251Y003434D02*
X003313Y003496D01*
X003436Y003496D01*
X003498Y003434D01*
X002498Y003496D02*
X002251Y003496D01*
X002374Y003496D02*
X002374Y003126D01*
X002251Y003249D01*
X002303Y004676D02*
X002056Y004676D01*
X002303Y004676D02*
X002056Y004923D01*
X002056Y004984D01*
X002117Y005046D01*
X002241Y005046D01*
X002303Y004984D01*
X002424Y004984D02*
X002424Y004923D01*
X002486Y004861D01*
X002424Y004799D01*
X002424Y004738D01*
X002486Y004676D01*
X002609Y004676D01*
X002671Y004738D01*
X002547Y004861D02*
X002486Y004861D01*
X002424Y004984D02*
X002486Y005046D01*
X002609Y005046D01*
X002671Y004984D01*
X002436Y005176D02*
X002313Y005176D01*
X002251Y005237D01*
X002436Y005176D02*
X002498Y005237D01*
X002498Y005299D01*
X002251Y005546D01*
X002498Y005546D01*
X003056Y004984D02*
X003303Y004738D01*
X003241Y004676D01*
X003117Y004676D01*
X003056Y004738D01*
X003056Y004984D01*
X003117Y005046D01*
X003241Y005046D01*
X003303Y004984D01*
X003303Y004738D01*
X003424Y004738D02*
X003424Y004799D01*
X003486Y004861D01*
X003547Y004861D01*
X003486Y004861D02*
X003424Y004923D01*
X003424Y004984D01*
X003486Y005046D01*
X003609Y005046D01*
X003671Y004984D01*
X003436Y005176D02*
X003251Y005361D01*
X003498Y005361D01*
X003436Y005546D02*
X003436Y005176D01*
X003424Y004738D02*
X003486Y004676D01*
X003609Y004676D01*
X003671Y004738D01*
X004056Y004738D02*
X004117Y004676D01*
X004241Y004676D01*
X004303Y004738D01*
X004303Y004799D01*
X004241Y004861D01*
X004117Y004861D01*
X004056Y004799D01*
X004056Y004738D01*
X004117Y004861D02*
X004056Y004923D01*
X004056Y004984D01*
X004117Y005046D01*
X004241Y005046D01*
X004303Y004984D01*
X004303Y004923D01*
X004241Y004861D01*
X004424Y004923D02*
X004424Y004984D01*
X004486Y005046D01*
X004609Y005046D01*
X004671Y004984D01*
X004424Y004923D02*
X004671Y004676D01*
X004424Y004676D01*
X004498Y005176D02*
X004374Y005237D01*
X004251Y005361D01*
X004436Y005361D01*
X004498Y005422D01*
X004498Y005484D01*
X004436Y005546D01*
X004313Y005546D01*
X004251Y005484D01*
X004251Y005361D01*
X005056Y005046D02*
X005179Y004984D01*
X005303Y004861D01*
X005117Y004861D01*
X005056Y004799D01*
X005056Y004738D01*
X005117Y004676D01*
X005241Y004676D01*
X005303Y004738D01*
X005303Y004861D01*
X005424Y004923D02*
X005424Y004984D01*
X005486Y005046D01*
X005609Y005046D01*
X005671Y004984D01*
X005424Y004923D02*
X005671Y004676D01*
X005424Y004676D01*
X005436Y005176D02*
X005313Y005176D01*
X005251Y005237D01*
X005251Y005299D01*
X005313Y005361D01*
X005436Y005361D01*
X005498Y005422D01*
X005498Y005484D01*
X005436Y005546D01*
X005313Y005546D01*
X005251Y005484D01*
X005251Y005422D01*
X005313Y005361D01*
X005436Y005361D02*
X005498Y005299D01*
X005498Y005237D01*
X005436Y005176D01*
X006051Y005299D02*
X006174Y005176D01*
X006174Y005546D01*
X006051Y005546D02*
X006298Y005546D01*
X006419Y005484D02*
X006419Y005237D01*
X006481Y005176D01*
X006604Y005176D01*
X006666Y005237D01*
X006419Y005484D01*
X006481Y005546D01*
X006604Y005546D01*
X006666Y005484D01*
X006666Y005237D01*
X006609Y005046D02*
X006486Y005046D01*
X006424Y004984D01*
X006424Y004923D01*
X006671Y004676D01*
X006424Y004676D01*
X006303Y004861D02*
X006056Y004861D01*
X006117Y004676D02*
X006117Y005046D01*
X006303Y004861D01*
X006609Y005046D02*
X006671Y004984D01*
X007056Y004984D02*
X007056Y004923D01*
X007303Y004676D01*
X007056Y004676D01*
X007056Y004984D02*
X007117Y005046D01*
X007241Y005046D01*
X007303Y004984D01*
X007424Y004984D02*
X007424Y004923D01*
X007671Y004676D01*
X007424Y004676D01*
X007424Y004984D02*
X007486Y005046D01*
X007609Y005046D01*
X007671Y004984D01*
X007604Y005176D02*
X007481Y005176D01*
X007419Y005237D01*
X007604Y005176D02*
X007666Y005237D01*
X007666Y005299D01*
X007419Y005546D01*
X007666Y005546D01*
X007298Y005546D02*
X007051Y005546D01*
X007174Y005546D02*
X007174Y005176D01*
X007051Y005299D01*
X008051Y005299D02*
X008174Y005176D01*
X008174Y005546D01*
X008051Y005546D02*
X008298Y005546D01*
X008419Y005361D02*
X008666Y005361D01*
X008604Y005546D02*
X008604Y005176D01*
X008419Y005361D01*
X008486Y005046D02*
X008609Y005046D01*
X008671Y004984D01*
X008486Y005046D02*
X008424Y004984D01*
X008424Y004923D01*
X008671Y004676D01*
X008424Y004676D01*
X008303Y004738D02*
X008056Y004984D01*
X008056Y004738D01*
X008117Y004676D01*
X008241Y004676D01*
X008303Y004738D01*
X008303Y004984D01*
X008241Y005046D01*
X008117Y005046D01*
X008056Y004984D01*
X009056Y004984D02*
X009056Y004923D01*
X009117Y004861D01*
X009241Y004861D01*
X009303Y004923D01*
X009303Y004984D01*
X009241Y005046D01*
X009117Y005046D01*
X009056Y004984D01*
X009117Y004861D02*
X009056Y004799D01*
X009056Y004738D01*
X009117Y004676D01*
X009241Y004676D01*
X009303Y004738D01*
X009303Y004799D01*
X009241Y004861D01*
X009424Y004676D02*
X009671Y004676D01*
X009547Y004676D02*
X009547Y005046D01*
X009671Y004923D01*
X009666Y005176D02*
X009543Y005237D01*
X009419Y005361D01*
X009604Y005361D01*
X009666Y005422D01*
X009666Y005484D01*
X009604Y005546D01*
X009481Y005546D01*
X009419Y005484D01*
X009419Y005361D01*
X009298Y005546D02*
X009051Y005546D01*
X009174Y005546D02*
X009174Y005176D01*
X009051Y005299D01*
X010051Y005299D02*
X010174Y005176D01*
X010174Y005546D01*
X010051Y005546D02*
X010298Y005546D01*
X010419Y005484D02*
X010419Y005422D01*
X010481Y005361D01*
X010604Y005361D01*
X010666Y005422D01*
X010666Y005484D01*
X010604Y005546D01*
X010481Y005546D01*
X010419Y005484D01*
X010481Y005361D02*
X010419Y005299D01*
X010419Y005237D01*
X010481Y005176D01*
X010604Y005176D01*
X010666Y005237D01*
X010666Y005299D01*
X010604Y005361D01*
X010547Y005046D02*
X010547Y004676D01*
X010424Y004676D02*
X010671Y004676D01*
X010671Y004923D02*
X010547Y005046D01*
X010303Y004861D02*
X010117Y004861D01*
X010056Y004799D01*
X010056Y004738D01*
X010117Y004676D01*
X010241Y004676D01*
X010303Y004738D01*
X010303Y004861D01*
X010179Y004984D01*
X010056Y005046D01*
X011051Y005237D02*
X011113Y005176D01*
X011236Y005176D01*
X011298Y005237D01*
X011298Y005299D01*
X011051Y005546D01*
X011298Y005546D01*
X011419Y005484D02*
X011419Y005237D01*
X011481Y005176D01*
X011604Y005176D01*
X011666Y005237D01*
X011419Y005484D01*
X011481Y005546D01*
X011604Y005546D01*
X011666Y005484D01*
X011666Y005237D01*
X011547Y005046D02*
X011547Y004676D01*
X011424Y004676D02*
X011671Y004676D01*
X011671Y004923D02*
X011547Y005046D01*
X011303Y004861D02*
X011056Y004861D01*
X011117Y004676D02*
X011117Y005046D01*
X011303Y004861D01*
X012056Y004923D02*
X012056Y004984D01*
X012117Y005046D01*
X012241Y005046D01*
X012303Y004984D01*
X012236Y005176D02*
X012113Y005176D01*
X012051Y005237D01*
X012236Y005176D02*
X012298Y005237D01*
X012298Y005299D01*
X012051Y005546D01*
X012298Y005546D01*
X012419Y005546D02*
X012666Y005299D01*
X012666Y005237D01*
X012604Y005176D01*
X012481Y005176D01*
X012419Y005237D01*
X012547Y005046D02*
X012547Y004676D01*
X012424Y004676D02*
X012671Y004676D01*
X012671Y004923D02*
X012547Y005046D01*
X012303Y004676D02*
X012056Y004923D01*
X012056Y004676D02*
X012303Y004676D01*
X013056Y004738D02*
X013117Y004676D01*
X013241Y004676D01*
X013303Y004738D01*
X013056Y004984D01*
X013056Y004738D01*
X013303Y004738D02*
X013303Y004984D01*
X013241Y005046D01*
X013117Y005046D01*
X013056Y004984D01*
X013113Y005176D02*
X013051Y005237D01*
X013113Y005176D02*
X013236Y005176D01*
X013298Y005237D01*
X013298Y005299D01*
X013051Y005546D01*
X013298Y005546D01*
X013419Y005361D02*
X013666Y005361D01*
X013604Y005546D02*
X013604Y005176D01*
X013419Y005361D01*
X013547Y005046D02*
X013547Y004676D01*
X013424Y004676D02*
X013671Y004676D01*
X013671Y004923D02*
X013547Y005046D01*
X014051Y005237D02*
X014113Y005176D01*
X014236Y005176D01*
X014298Y005237D01*
X014298Y005299D01*
X014051Y005546D01*
X014298Y005546D01*
X014419Y005484D02*
X014419Y005361D01*
X014604Y005361D01*
X014666Y005422D01*
X014666Y005484D01*
X014604Y005546D01*
X014481Y005546D01*
X014419Y005484D01*
X014419Y005361D02*
X014543Y005237D01*
X014666Y005176D01*
X014471Y004984D02*
X014471Y004923D01*
X014409Y004861D01*
X014286Y004861D01*
X014224Y004799D01*
X014224Y004738D01*
X014286Y004676D01*
X014409Y004676D01*
X014471Y004738D01*
X014471Y004799D01*
X014409Y004861D01*
X014286Y004861D02*
X014224Y004923D01*
X014224Y004984D01*
X014286Y005046D01*
X014409Y005046D01*
X014471Y004984D01*
X015051Y005237D02*
X015113Y005176D01*
X015236Y005176D01*
X015298Y005237D01*
X015298Y005299D01*
X015051Y005546D01*
X015298Y005546D01*
X015419Y005484D02*
X015419Y005422D01*
X015481Y005361D01*
X015604Y005361D01*
X015666Y005422D01*
X015666Y005484D01*
X015604Y005546D01*
X015481Y005546D01*
X015419Y005484D01*
X015481Y005361D02*
X015419Y005299D01*
X015419Y005237D01*
X015481Y005176D01*
X015604Y005176D01*
X015666Y005237D01*
X015666Y005299D01*
X015604Y005361D01*
X015347Y004984D02*
X015471Y004861D01*
X015286Y004861D01*
X015224Y004799D01*
X015224Y004738D01*
X015286Y004676D01*
X015409Y004676D01*
X015471Y004738D01*
X015471Y004861D01*
X015347Y004984D02*
X015224Y005046D01*
X016051Y005237D02*
X016113Y005176D01*
X016236Y005176D01*
X016298Y005237D01*
X016298Y005299D01*
X016236Y005361D01*
X016298Y005422D01*
X016298Y005484D01*
X016236Y005546D01*
X016113Y005546D01*
X016051Y005484D01*
X016174Y005361D02*
X016236Y005361D01*
X016419Y005484D02*
X016666Y005237D01*
X016666Y005484D01*
X016604Y005546D01*
X016481Y005546D01*
X016419Y005484D01*
X016419Y005237D01*
X016481Y005176D01*
X016604Y005176D01*
X016666Y005237D01*
X017051Y005237D02*
X017113Y005176D01*
X017236Y005176D01*
X017298Y005237D01*
X017298Y005299D01*
X017236Y005361D01*
X017298Y005422D01*
X017298Y005484D01*
X017236Y005546D01*
X017113Y005546D01*
X017051Y005484D01*
X017174Y005361D02*
X017236Y005361D01*
X017419Y005237D02*
X017481Y005176D01*
X017604Y005176D01*
X017666Y005237D01*
X017666Y005299D01*
X017419Y005546D01*
X017666Y005546D01*
X017409Y005046D02*
X017286Y005046D01*
X017224Y004984D01*
X017224Y004923D01*
X017471Y004676D01*
X017224Y004676D01*
X017471Y004984D02*
X017409Y005046D01*
X016471Y004861D02*
X016224Y004861D01*
X016286Y004676D02*
X016286Y005046D01*
X016471Y004861D01*
X016409Y006726D02*
X016286Y006726D01*
X016224Y006788D01*
X016224Y006849D01*
X016286Y006911D01*
X016347Y006911D01*
X016286Y006911D02*
X016224Y006973D01*
X016224Y007034D01*
X016286Y007096D01*
X016409Y007096D01*
X016471Y007034D01*
X016471Y006788D02*
X016409Y006726D01*
X017224Y006726D02*
X017471Y006726D01*
X017347Y006726D02*
X017347Y007096D01*
X017471Y006973D01*
X015471Y006911D02*
X015347Y006973D01*
X015286Y006973D01*
X015224Y006911D01*
X015224Y006788D01*
X015286Y006726D01*
X015409Y006726D01*
X015471Y006788D01*
X015471Y006911D02*
X015471Y007096D01*
X015224Y007096D01*
X014471Y007096D02*
X014224Y007096D01*
X014224Y007034D01*
X014471Y006788D01*
X014471Y006726D01*
X013471Y006788D02*
X013409Y006726D01*
X013286Y006726D01*
X013224Y006788D01*
X013224Y007034D01*
X013286Y007096D01*
X013409Y007096D01*
X013471Y007034D01*
X013471Y006973D01*
X013409Y006911D01*
X013224Y006911D01*
X012671Y006973D02*
X012547Y007096D01*
X012547Y006726D01*
X012424Y006726D02*
X012671Y006726D01*
X012303Y006726D02*
X012056Y006726D01*
X012179Y006726D02*
X012179Y007096D01*
X012303Y006973D01*
X011671Y006973D02*
X011547Y007096D01*
X011547Y006726D01*
X011424Y006726D02*
X011671Y006726D01*
X011303Y006788D02*
X011241Y006726D01*
X011117Y006726D01*
X011056Y006788D01*
X011056Y006849D01*
X011117Y006911D01*
X011179Y006911D01*
X011117Y006911D02*
X011056Y006973D01*
X011056Y007034D01*
X011117Y007096D01*
X011241Y007096D01*
X011303Y007034D01*
X010671Y006973D02*
X010547Y007096D01*
X010547Y006726D01*
X010424Y006726D02*
X010671Y006726D01*
X010303Y006788D02*
X010241Y006726D01*
X010117Y006726D01*
X010056Y006788D01*
X010056Y006911D01*
X010117Y006973D01*
X010179Y006973D01*
X010303Y006911D01*
X010303Y007096D01*
X010056Y007096D01*
X009671Y006973D02*
X009547Y007096D01*
X009547Y006726D01*
X009424Y006726D02*
X009671Y006726D01*
X009303Y006726D02*
X009303Y006788D01*
X009056Y007034D01*
X009056Y007096D01*
X009303Y007096D01*
X008671Y006973D02*
X008547Y007096D01*
X008547Y006726D01*
X008424Y006726D02*
X008671Y006726D01*
X008303Y006788D02*
X008241Y006726D01*
X008117Y006726D01*
X008056Y006788D01*
X008056Y007034D01*
X008117Y007096D01*
X008241Y007096D01*
X008303Y007034D01*
X008303Y006973D01*
X008241Y006911D01*
X008056Y006911D01*
X007671Y007034D02*
X007609Y007096D01*
X007486Y007096D01*
X007424Y007034D01*
X007424Y006973D01*
X007671Y006726D01*
X007424Y006726D01*
X007303Y006726D02*
X007056Y006726D01*
X007179Y006726D02*
X007179Y007096D01*
X007303Y006973D01*
X006671Y007034D02*
X006609Y007096D01*
X006486Y007096D01*
X006424Y007034D01*
X006424Y006973D01*
X006671Y006726D01*
X006424Y006726D01*
X006303Y006788D02*
X006241Y006726D01*
X006117Y006726D01*
X006056Y006788D01*
X006056Y006849D01*
X006117Y006911D01*
X006179Y006911D01*
X006117Y006911D02*
X006056Y006973D01*
X006056Y007034D01*
X006117Y007096D01*
X006241Y007096D01*
X006303Y007034D01*
X005671Y007034D02*
X005609Y007096D01*
X005486Y007096D01*
X005424Y007034D01*
X005424Y006973D01*
X005671Y006726D01*
X005424Y006726D01*
X005303Y006788D02*
X005241Y006726D01*
X005117Y006726D01*
X005056Y006788D01*
X005056Y006911D01*
X005117Y006973D01*
X005179Y006973D01*
X005303Y006911D01*
X005303Y007096D01*
X005056Y007096D01*
X004671Y007034D02*
X004609Y007096D01*
X004486Y007096D01*
X004424Y007034D01*
X004424Y006973D01*
X004671Y006726D01*
X004424Y006726D01*
X004303Y006726D02*
X004303Y006788D01*
X004056Y007034D01*
X004056Y007096D01*
X004303Y007096D01*
X003671Y007034D02*
X003609Y007096D01*
X003486Y007096D01*
X003424Y007034D01*
X003424Y006973D01*
X003671Y006726D01*
X003424Y006726D01*
X003303Y006788D02*
X003241Y006726D01*
X003117Y006726D01*
X003056Y006788D01*
X003056Y007034D01*
X003117Y007096D01*
X003241Y007096D01*
X003303Y007034D01*
X003303Y006973D01*
X003241Y006911D01*
X003056Y006911D01*
X002671Y006788D02*
X002609Y006726D01*
X002486Y006726D01*
X002424Y006788D01*
X002424Y006849D01*
X002486Y006911D01*
X002547Y006911D01*
X002486Y006911D02*
X002424Y006973D01*
X002424Y007034D01*
X002486Y007096D01*
X002609Y007096D01*
X002671Y007034D01*
X002303Y006973D02*
X002179Y007096D01*
X002179Y006726D01*
X002056Y006726D02*
X002303Y006726D01*
X002374Y013126D02*
X002374Y013496D01*
X002251Y013496D02*
X002498Y013496D01*
X002251Y013249D02*
X002374Y013126D01*
X003251Y013187D02*
X003313Y013126D01*
X003436Y013126D01*
X003498Y013187D01*
X003498Y013249D01*
X003436Y013311D01*
X003498Y013372D01*
X003498Y013434D01*
X003436Y013496D01*
X003313Y013496D01*
X003251Y013434D01*
X003374Y013311D02*
X003436Y013311D01*
X004251Y013311D02*
X004251Y013126D01*
X004498Y013126D01*
X004436Y013249D02*
X004374Y013249D01*
X004251Y013311D01*
X004251Y013434D02*
X004313Y013496D01*
X004436Y013496D01*
X004498Y013434D01*
X004498Y013311D01*
X004436Y013249D01*
X005251Y013126D02*
X005498Y013126D01*
X005498Y013187D01*
X005251Y013434D01*
X005251Y013496D01*
X006251Y013434D02*
X006313Y013496D01*
X006436Y013496D01*
X006498Y013434D01*
X006498Y013187D01*
X006436Y013126D01*
X006313Y013126D01*
X006251Y013187D01*
X006251Y013249D01*
X006313Y013311D01*
X006498Y013311D01*
X007051Y013249D02*
X007174Y013126D01*
X007174Y013496D01*
X007051Y013496D02*
X007298Y013496D01*
X007419Y013496D02*
X007666Y013496D01*
X007543Y013496D02*
X007543Y013126D01*
X007419Y013249D01*
X008051Y013249D02*
X008174Y013126D01*
X008174Y013496D01*
X008051Y013496D02*
X008298Y013496D01*
X008419Y013434D02*
X008481Y013496D01*
X008604Y013496D01*
X008666Y013434D01*
X008666Y013372D01*
X008604Y013311D01*
X008543Y013311D01*
X008604Y013311D02*
X008666Y013249D01*
X008666Y013187D01*
X008604Y013126D01*
X008481Y013126D01*
X008419Y013187D01*
X009051Y013249D02*
X009174Y013126D01*
X009174Y013496D01*
X009051Y013496D02*
X009298Y013496D01*
X009419Y013434D02*
X009481Y013496D01*
X009604Y013496D01*
X009666Y013434D01*
X009666Y013311D01*
X009604Y013249D01*
X009543Y013249D01*
X009419Y013311D01*
X009419Y013126D01*
X009666Y013126D01*
X010051Y013249D02*
X010174Y013126D01*
X010174Y013496D01*
X010051Y013496D02*
X010298Y013496D01*
X010419Y013496D02*
X010419Y013434D01*
X010666Y013187D01*
X010666Y013126D01*
X010419Y013126D01*
X011051Y013249D02*
X011174Y013126D01*
X011174Y013496D01*
X011051Y013496D02*
X011298Y013496D01*
X011419Y013434D02*
X011481Y013496D01*
X011604Y013496D01*
X011666Y013434D01*
X011666Y013187D01*
X011604Y013126D01*
X011481Y013126D01*
X011419Y013187D01*
X011419Y013249D01*
X011481Y013311D01*
X011666Y013311D01*
X012051Y013187D02*
X012113Y013126D01*
X012236Y013126D01*
X012298Y013187D01*
X012298Y013249D01*
X012051Y013496D01*
X012298Y013496D01*
X012419Y013496D02*
X012666Y013496D01*
X012543Y013496D02*
X012543Y013126D01*
X012419Y013249D01*
X013051Y013187D02*
X013113Y013126D01*
X013236Y013126D01*
X013298Y013187D01*
X013298Y013249D01*
X013051Y013496D01*
X013298Y013496D01*
X013419Y013434D02*
X013481Y013496D01*
X013604Y013496D01*
X013666Y013434D01*
X013666Y013372D01*
X013604Y013311D01*
X013543Y013311D01*
X013604Y013311D02*
X013666Y013249D01*
X013666Y013187D01*
X013604Y013126D01*
X013481Y013126D01*
X013419Y013187D01*
X014051Y013187D02*
X014113Y013126D01*
X014236Y013126D01*
X014298Y013187D01*
X014298Y013249D01*
X014051Y013496D01*
X014298Y013496D01*
X014419Y013434D02*
X014481Y013496D01*
X014604Y013496D01*
X014666Y013434D01*
X014666Y013311D01*
X014604Y013249D01*
X014543Y013249D01*
X014419Y013311D01*
X014419Y013126D01*
X014666Y013126D01*
X015051Y013187D02*
X015113Y013126D01*
X015236Y013126D01*
X015298Y013187D01*
X015298Y013249D01*
X015051Y013496D01*
X015298Y013496D01*
X015419Y013496D02*
X015419Y013434D01*
X015666Y013187D01*
X015666Y013126D01*
X015419Y013126D01*
X016051Y013187D02*
X016113Y013126D01*
X016236Y013126D01*
X016298Y013187D01*
X016298Y013249D01*
X016051Y013496D01*
X016298Y013496D01*
X016419Y013434D02*
X016481Y013496D01*
X016604Y013496D01*
X016666Y013434D01*
X016666Y013187D01*
X016604Y013126D01*
X016481Y013126D01*
X016419Y013187D01*
X016419Y013249D01*
X016481Y013311D01*
X016666Y013311D01*
X017051Y013434D02*
X017113Y013496D01*
X017236Y013496D01*
X017298Y013434D01*
X017298Y013372D01*
X017236Y013311D01*
X017174Y013311D01*
X017236Y013311D02*
X017298Y013249D01*
X017298Y013187D01*
X017236Y013126D01*
X017113Y013126D01*
X017051Y013187D01*
X017419Y013249D02*
X017543Y013126D01*
X017543Y013496D01*
X017666Y013496D02*
X017419Y013496D01*
X017471Y014676D02*
X017224Y014676D01*
X017224Y014923D02*
X017224Y014984D01*
X017286Y015046D01*
X017409Y015046D01*
X017471Y014984D01*
X017481Y015176D02*
X017419Y015237D01*
X017481Y015176D02*
X017604Y015176D01*
X017666Y015237D01*
X017666Y015299D01*
X017419Y015546D01*
X017666Y015546D01*
X017298Y015484D02*
X017236Y015546D01*
X017113Y015546D01*
X017051Y015484D01*
X017174Y015361D02*
X017236Y015361D01*
X017298Y015422D01*
X017298Y015484D01*
X017236Y015361D02*
X017298Y015299D01*
X017298Y015237D01*
X017236Y015176D01*
X017113Y015176D01*
X017051Y015237D01*
X017224Y014923D02*
X017471Y014676D01*
X016666Y015237D02*
X016666Y015484D01*
X016604Y015546D01*
X016481Y015546D01*
X016419Y015484D01*
X016666Y015237D01*
X016604Y015176D01*
X016481Y015176D01*
X016419Y015237D01*
X016419Y015484D01*
X016298Y015484D02*
X016236Y015546D01*
X016113Y015546D01*
X016051Y015484D01*
X016174Y015361D02*
X016236Y015361D01*
X016298Y015422D01*
X016298Y015484D01*
X016236Y015361D02*
X016298Y015299D01*
X016298Y015237D01*
X016236Y015176D01*
X016113Y015176D01*
X016051Y015237D01*
X016286Y015046D02*
X016471Y014861D01*
X016224Y014861D01*
X016286Y014676D02*
X016286Y015046D01*
X015666Y015237D02*
X015666Y015299D01*
X015604Y015361D01*
X015481Y015361D01*
X015419Y015299D01*
X015419Y015237D01*
X015481Y015176D01*
X015604Y015176D01*
X015666Y015237D01*
X015604Y015361D02*
X015666Y015422D01*
X015666Y015484D01*
X015604Y015546D01*
X015481Y015546D01*
X015419Y015484D01*
X015419Y015422D01*
X015481Y015361D01*
X015298Y015299D02*
X015298Y015237D01*
X015236Y015176D01*
X015113Y015176D01*
X015051Y015237D01*
X015298Y015299D02*
X015051Y015546D01*
X015298Y015546D01*
X015224Y015046D02*
X015347Y014984D01*
X015471Y014861D01*
X015286Y014861D01*
X015224Y014799D01*
X015224Y014738D01*
X015286Y014676D01*
X015409Y014676D01*
X015471Y014738D01*
X015471Y014861D01*
X014666Y015176D02*
X014543Y015237D01*
X014419Y015361D01*
X014604Y015361D01*
X014666Y015422D01*
X014666Y015484D01*
X014604Y015546D01*
X014481Y015546D01*
X014419Y015484D01*
X014419Y015361D01*
X014298Y015299D02*
X014298Y015237D01*
X014236Y015176D01*
X014113Y015176D01*
X014051Y015237D01*
X014298Y015299D02*
X014051Y015546D01*
X014298Y015546D01*
X014286Y015046D02*
X014224Y014984D01*
X014224Y014923D01*
X014286Y014861D01*
X014409Y014861D01*
X014471Y014923D01*
X014471Y014984D01*
X014409Y015046D01*
X014286Y015046D01*
X014286Y014861D02*
X014224Y014799D01*
X014224Y014738D01*
X014286Y014676D01*
X014409Y014676D01*
X014471Y014738D01*
X014471Y014799D01*
X014409Y014861D01*
X013671Y014923D02*
X013547Y015046D01*
X013547Y014676D01*
X013424Y014676D02*
X013671Y014676D01*
X013303Y014738D02*
X013303Y014984D01*
X013241Y015046D01*
X013117Y015046D01*
X013056Y014984D01*
X013303Y014738D01*
X013241Y014676D01*
X013117Y014676D01*
X013056Y014738D01*
X013056Y014984D01*
X013113Y015176D02*
X013051Y015237D01*
X013113Y015176D02*
X013236Y015176D01*
X013298Y015237D01*
X013298Y015299D01*
X013051Y015546D01*
X013298Y015546D01*
X013419Y015361D02*
X013666Y015361D01*
X013604Y015546D02*
X013604Y015176D01*
X013419Y015361D01*
X012666Y015299D02*
X012666Y015237D01*
X012604Y015176D01*
X012481Y015176D01*
X012419Y015237D01*
X012298Y015237D02*
X012236Y015176D01*
X012113Y015176D01*
X012051Y015237D01*
X012117Y015046D02*
X012241Y015046D01*
X012303Y014984D01*
X012117Y015046D02*
X012056Y014984D01*
X012056Y014923D01*
X012303Y014676D01*
X012056Y014676D01*
X012424Y014676D02*
X012671Y014676D01*
X012547Y014676D02*
X012547Y015046D01*
X012671Y014923D01*
X012666Y015299D02*
X012419Y015546D01*
X012666Y015546D01*
X012298Y015546D02*
X012051Y015546D01*
X012298Y015299D01*
X012298Y015237D01*
X011666Y015237D02*
X011419Y015484D01*
X011481Y015546D01*
X011604Y015546D01*
X011666Y015484D01*
X011666Y015237D01*
X011604Y015176D01*
X011481Y015176D01*
X011419Y015237D01*
X011419Y015484D01*
X011298Y015546D02*
X011051Y015546D01*
X011298Y015299D01*
X011298Y015237D01*
X011236Y015176D01*
X011113Y015176D01*
X011051Y015237D01*
X011117Y015046D02*
X011303Y014861D01*
X011056Y014861D01*
X011117Y014676D02*
X011117Y015046D01*
X010671Y014923D02*
X010547Y015046D01*
X010547Y014676D01*
X010424Y014676D02*
X010671Y014676D01*
X010303Y014738D02*
X010241Y014676D01*
X010117Y014676D01*
X010056Y014738D01*
X010056Y014799D01*
X010117Y014861D01*
X010303Y014861D01*
X010303Y014738D01*
X010303Y014861D02*
X010179Y014984D01*
X010056Y015046D01*
X010174Y015176D02*
X010051Y015299D01*
X010174Y015176D02*
X010174Y015546D01*
X010051Y015546D02*
X010298Y015546D01*
X010419Y015484D02*
X010419Y015422D01*
X010481Y015361D01*
X010604Y015361D01*
X010666Y015422D01*
X010666Y015484D01*
X010604Y015546D01*
X010481Y015546D01*
X010419Y015484D01*
X010481Y015361D02*
X010419Y015299D01*
X010419Y015237D01*
X010481Y015176D01*
X010604Y015176D01*
X010666Y015237D01*
X010666Y015299D01*
X010604Y015361D01*
X011424Y014676D02*
X011671Y014676D01*
X011547Y014676D02*
X011547Y015046D01*
X011671Y014923D01*
X011671Y016726D02*
X011424Y016726D01*
X011547Y016726D02*
X011547Y017096D01*
X011671Y016973D01*
X011303Y017034D02*
X011241Y017096D01*
X011117Y017096D01*
X011056Y017034D01*
X011056Y016973D01*
X011117Y016911D01*
X011056Y016849D01*
X011056Y016788D01*
X011117Y016726D01*
X011241Y016726D01*
X011303Y016788D01*
X011179Y016911D02*
X011117Y016911D01*
X010671Y016973D02*
X010547Y017096D01*
X010547Y016726D01*
X010424Y016726D02*
X010671Y016726D01*
X010303Y016788D02*
X010241Y016726D01*
X010117Y016726D01*
X010056Y016788D01*
X010056Y016911D01*
X010117Y016973D01*
X010179Y016973D01*
X010303Y016911D01*
X010303Y017096D01*
X010056Y017096D01*
X009671Y016973D02*
X009547Y017096D01*
X009547Y016726D01*
X009424Y016726D02*
X009671Y016726D01*
X009303Y016726D02*
X009303Y016788D01*
X009056Y017034D01*
X009056Y017096D01*
X009303Y017096D01*
X008671Y016973D02*
X008547Y017096D01*
X008547Y016726D01*
X008424Y016726D02*
X008671Y016726D01*
X008303Y016788D02*
X008241Y016726D01*
X008117Y016726D01*
X008056Y016788D01*
X008056Y017034D01*
X008117Y017096D01*
X008241Y017096D01*
X008303Y017034D01*
X008303Y016973D01*
X008241Y016911D01*
X008056Y016911D01*
X007671Y017034D02*
X007609Y017096D01*
X007486Y017096D01*
X007424Y017034D01*
X007424Y016973D01*
X007671Y016726D01*
X007424Y016726D01*
X007303Y016726D02*
X007056Y016726D01*
X007179Y016726D02*
X007179Y017096D01*
X007303Y016973D01*
X006671Y017034D02*
X006609Y017096D01*
X006486Y017096D01*
X006424Y017034D01*
X006424Y016973D01*
X006671Y016726D01*
X006424Y016726D01*
X006303Y016788D02*
X006241Y016726D01*
X006117Y016726D01*
X006056Y016788D01*
X006056Y016849D01*
X006117Y016911D01*
X006179Y016911D01*
X006117Y016911D02*
X006056Y016973D01*
X006056Y017034D01*
X006117Y017096D01*
X006241Y017096D01*
X006303Y017034D01*
X005671Y017034D02*
X005609Y017096D01*
X005486Y017096D01*
X005424Y017034D01*
X005424Y016973D01*
X005671Y016726D01*
X005424Y016726D01*
X005303Y016788D02*
X005241Y016726D01*
X005117Y016726D01*
X005056Y016788D01*
X005056Y016911D01*
X005117Y016973D01*
X005179Y016973D01*
X005303Y016911D01*
X005303Y017096D01*
X005056Y017096D01*
X004671Y017034D02*
X004609Y017096D01*
X004486Y017096D01*
X004424Y017034D01*
X004424Y016973D01*
X004671Y016726D01*
X004424Y016726D01*
X004303Y016726D02*
X004303Y016788D01*
X004056Y017034D01*
X004056Y017096D01*
X004303Y017096D01*
X003671Y017034D02*
X003609Y017096D01*
X003486Y017096D01*
X003424Y017034D01*
X003424Y016973D01*
X003671Y016726D01*
X003424Y016726D01*
X003303Y016788D02*
X003241Y016726D01*
X003117Y016726D01*
X003056Y016788D01*
X003056Y017034D01*
X003117Y017096D01*
X003241Y017096D01*
X003303Y017034D01*
X003303Y016973D01*
X003241Y016911D01*
X003056Y016911D01*
X002671Y016788D02*
X002609Y016726D01*
X002486Y016726D01*
X002424Y016788D01*
X002424Y016849D01*
X002486Y016911D01*
X002547Y016911D01*
X002486Y016911D02*
X002424Y016973D01*
X002424Y017034D01*
X002486Y017096D01*
X002609Y017096D01*
X002671Y017034D01*
X002303Y016973D02*
X002179Y017096D01*
X002179Y016726D01*
X002056Y016726D02*
X002303Y016726D01*
X002251Y015546D02*
X002498Y015299D01*
X002498Y015237D01*
X002436Y015176D01*
X002313Y015176D01*
X002251Y015237D01*
X002241Y015046D02*
X002117Y015046D01*
X002056Y014984D01*
X002056Y014923D01*
X002303Y014676D01*
X002056Y014676D01*
X002424Y014738D02*
X002486Y014676D01*
X002609Y014676D01*
X002671Y014738D01*
X002547Y014861D02*
X002486Y014861D01*
X002424Y014799D01*
X002424Y014738D01*
X002486Y014861D02*
X002424Y014923D01*
X002424Y014984D01*
X002486Y015046D01*
X002609Y015046D01*
X002671Y014984D01*
X002303Y014984D02*
X002241Y015046D01*
X002251Y015546D02*
X002498Y015546D01*
X003056Y014984D02*
X003303Y014738D01*
X003241Y014676D01*
X003117Y014676D01*
X003056Y014738D01*
X003056Y014984D01*
X003117Y015046D01*
X003241Y015046D01*
X003303Y014984D01*
X003303Y014738D01*
X003424Y014738D02*
X003486Y014676D01*
X003609Y014676D01*
X003671Y014738D01*
X003547Y014861D02*
X003486Y014861D01*
X003424Y014799D01*
X003424Y014738D01*
X003486Y014861D02*
X003424Y014923D01*
X003424Y014984D01*
X003486Y015046D01*
X003609Y015046D01*
X003671Y014984D01*
X003436Y015176D02*
X003251Y015361D01*
X003498Y015361D01*
X003436Y015546D02*
X003436Y015176D01*
X004056Y014984D02*
X004056Y014923D01*
X004117Y014861D01*
X004241Y014861D01*
X004303Y014923D01*
X004303Y014984D01*
X004241Y015046D01*
X004117Y015046D01*
X004056Y014984D01*
X004117Y014861D02*
X004056Y014799D01*
X004056Y014738D01*
X004117Y014676D01*
X004241Y014676D01*
X004303Y014738D01*
X004303Y014799D01*
X004241Y014861D01*
X004424Y014923D02*
X004424Y014984D01*
X004486Y015046D01*
X004609Y015046D01*
X004671Y014984D01*
X004424Y014923D02*
X004671Y014676D01*
X004424Y014676D01*
X004498Y015176D02*
X004374Y015237D01*
X004251Y015361D01*
X004436Y015361D01*
X004498Y015422D01*
X004498Y015484D01*
X004436Y015546D01*
X004313Y015546D01*
X004251Y015484D01*
X004251Y015361D01*
X005056Y015046D02*
X005179Y014984D01*
X005303Y014861D01*
X005117Y014861D01*
X005056Y014799D01*
X005056Y014738D01*
X005117Y014676D01*
X005241Y014676D01*
X005303Y014738D01*
X005303Y014861D01*
X005424Y014923D02*
X005424Y014984D01*
X005486Y015046D01*
X005609Y015046D01*
X005671Y014984D01*
X005424Y014923D02*
X005671Y014676D01*
X005424Y014676D01*
X005436Y015176D02*
X005313Y015176D01*
X005251Y015237D01*
X005251Y015299D01*
X005313Y015361D01*
X005436Y015361D01*
X005498Y015422D01*
X005498Y015484D01*
X005436Y015546D01*
X005313Y015546D01*
X005251Y015484D01*
X005251Y015422D01*
X005313Y015361D01*
X005436Y015361D02*
X005498Y015299D01*
X005498Y015237D01*
X005436Y015176D01*
X006051Y015299D02*
X006174Y015176D01*
X006174Y015546D01*
X006051Y015546D02*
X006298Y015546D01*
X006419Y015484D02*
X006666Y015237D01*
X006666Y015484D01*
X006604Y015546D01*
X006481Y015546D01*
X006419Y015484D01*
X006419Y015237D01*
X006481Y015176D01*
X006604Y015176D01*
X006666Y015237D01*
X006609Y015046D02*
X006486Y015046D01*
X006424Y014984D01*
X006424Y014923D01*
X006671Y014676D01*
X006424Y014676D01*
X006303Y014861D02*
X006056Y014861D01*
X006117Y014676D02*
X006117Y015046D01*
X006303Y014861D01*
X006609Y015046D02*
X006671Y014984D01*
X007056Y014984D02*
X007056Y014923D01*
X007303Y014676D01*
X007056Y014676D01*
X007056Y014984D02*
X007117Y015046D01*
X007241Y015046D01*
X007303Y014984D01*
X007424Y014984D02*
X007424Y014923D01*
X007671Y014676D01*
X007424Y014676D01*
X007424Y014984D02*
X007486Y015046D01*
X007609Y015046D01*
X007671Y014984D01*
X007604Y015176D02*
X007481Y015176D01*
X007419Y015237D01*
X007604Y015176D02*
X007666Y015237D01*
X007666Y015299D01*
X007419Y015546D01*
X007666Y015546D01*
X007298Y015546D02*
X007051Y015546D01*
X007174Y015546D02*
X007174Y015176D01*
X007051Y015299D01*
X008051Y015299D02*
X008174Y015176D01*
X008174Y015546D01*
X008051Y015546D02*
X008298Y015546D01*
X008419Y015361D02*
X008666Y015361D01*
X008604Y015546D02*
X008604Y015176D01*
X008419Y015361D01*
X008486Y015046D02*
X008609Y015046D01*
X008671Y014984D01*
X008486Y015046D02*
X008424Y014984D01*
X008424Y014923D01*
X008671Y014676D01*
X008424Y014676D01*
X008303Y014738D02*
X008056Y014984D01*
X008056Y014738D01*
X008117Y014676D01*
X008241Y014676D01*
X008303Y014738D01*
X008303Y014984D01*
X008241Y015046D01*
X008117Y015046D01*
X008056Y014984D01*
X009056Y014984D02*
X009056Y014923D01*
X009117Y014861D01*
X009241Y014861D01*
X009303Y014923D01*
X009303Y014984D01*
X009241Y015046D01*
X009117Y015046D01*
X009056Y014984D01*
X009117Y014861D02*
X009056Y014799D01*
X009056Y014738D01*
X009117Y014676D01*
X009241Y014676D01*
X009303Y014738D01*
X009303Y014799D01*
X009241Y014861D01*
X009424Y014676D02*
X009671Y014676D01*
X009547Y014676D02*
X009547Y015046D01*
X009671Y014923D01*
X009666Y015176D02*
X009543Y015237D01*
X009419Y015361D01*
X009604Y015361D01*
X009666Y015422D01*
X009666Y015484D01*
X009604Y015546D01*
X009481Y015546D01*
X009419Y015484D01*
X009419Y015361D01*
X009298Y015546D02*
X009051Y015546D01*
X009174Y015546D02*
X009174Y015176D01*
X009051Y015299D01*
X012056Y016726D02*
X012303Y016726D01*
X012424Y016726D02*
X012671Y016726D01*
X012547Y016726D02*
X012547Y017096D01*
X012671Y016973D01*
X012303Y016973D02*
X012179Y017096D01*
X012179Y016726D01*
X013224Y016788D02*
X013224Y017034D01*
X013286Y017096D01*
X013409Y017096D01*
X013471Y017034D01*
X013471Y016973D01*
X013409Y016911D01*
X013224Y016911D01*
X013224Y016788D02*
X013286Y016726D01*
X013409Y016726D01*
X013471Y016788D01*
X014224Y017034D02*
X014471Y016788D01*
X014471Y016726D01*
X014471Y017096D02*
X014224Y017096D01*
X014224Y017034D01*
X015224Y017096D02*
X015471Y017096D01*
X015471Y016911D01*
X015347Y016973D01*
X015286Y016973D01*
X015224Y016911D01*
X015224Y016788D01*
X015286Y016726D01*
X015409Y016726D01*
X015471Y016788D01*
X016224Y016788D02*
X016286Y016726D01*
X016409Y016726D01*
X016471Y016788D01*
X016347Y016911D02*
X016286Y016911D01*
X016224Y016849D01*
X016224Y016788D01*
X016286Y016911D02*
X016224Y016973D01*
X016224Y017034D01*
X016286Y017096D01*
X016409Y017096D01*
X016471Y017034D01*
X017224Y016726D02*
X017471Y016726D01*
X017347Y016726D02*
X017347Y017096D01*
X017471Y016973D01*
X012666Y005546D02*
X012419Y005546D01*
D14*
X019391Y006281D03*
X019251Y016361D03*
X000551Y013921D03*
X000521Y003851D03*
D15*
X000521Y005476D03*
X000701Y005766D03*
X000871Y005806D03*
X000881Y005806D03*
X000551Y015546D03*
X000731Y015836D03*
X000901Y015876D03*
X000911Y015876D03*
X018891Y014406D03*
X018901Y014406D03*
X019071Y014446D03*
X019251Y014736D03*
X019391Y004656D03*
X019211Y004366D03*
X019041Y004326D03*
X019031Y004326D03*
D16*
X019051Y004321D03*
X019061Y004321D03*
X019071Y004321D03*
X019081Y004321D03*
X019091Y004321D03*
X019131Y004331D03*
X019141Y004331D03*
X019161Y004341D03*
X019171Y004341D03*
X019181Y004351D03*
X019191Y004351D03*
X019201Y004361D03*
X019381Y006281D03*
X018951Y014401D03*
X018941Y014401D03*
X018931Y014401D03*
X018921Y014401D03*
X018911Y014401D03*
X018991Y014411D03*
X019001Y014411D03*
X019021Y014421D03*
X019031Y014421D03*
X019041Y014431D03*
X019051Y014431D03*
X019061Y014441D03*
X019241Y016361D03*
X000891Y015881D03*
X000881Y015881D03*
X000871Y015881D03*
X000861Y015881D03*
X000851Y015881D03*
X000811Y015871D03*
X000801Y015871D03*
X000781Y015861D03*
X000771Y015861D03*
X000761Y015851D03*
X000751Y015851D03*
X000741Y015841D03*
X000561Y013921D03*
X000821Y005811D03*
X000831Y005811D03*
X000841Y005811D03*
X000851Y005811D03*
X000861Y005811D03*
X000781Y005801D03*
X000771Y005801D03*
X000751Y005791D03*
X000741Y005791D03*
X000731Y005781D03*
X000721Y005781D03*
X000711Y005771D03*
X000531Y003851D03*
D17*
X000531Y005476D03*
X001081Y006196D03*
X001091Y006196D03*
X001101Y006186D03*
X000561Y015546D03*
X001111Y016266D03*
X001121Y016266D03*
X001131Y016256D03*
X018671Y014026D03*
X018681Y014016D03*
X018691Y014016D03*
X019241Y014736D03*
X019381Y004656D03*
X018831Y003936D03*
X018821Y003936D03*
X018811Y003946D03*
D18*
X018991Y004341D03*
X019231Y004391D03*
X019071Y006081D03*
X019061Y006081D03*
X019051Y006081D03*
X019041Y006081D03*
X019031Y006081D03*
X019121Y006091D03*
X019151Y006101D03*
X019161Y006101D03*
X019171Y006111D03*
X019181Y006111D03*
X019191Y006121D03*
X019371Y006281D03*
X019191Y006441D03*
X019181Y006451D03*
X019171Y006451D03*
X019161Y006461D03*
X019151Y006461D03*
X019121Y006471D03*
X019071Y006481D03*
X019061Y006481D03*
X019051Y006481D03*
X019041Y006481D03*
X019031Y006481D03*
X018851Y014421D03*
X019091Y014471D03*
X018931Y016161D03*
X018921Y016161D03*
X018911Y016161D03*
X018901Y016161D03*
X018891Y016161D03*
X018981Y016171D03*
X019011Y016181D03*
X019021Y016181D03*
X019031Y016191D03*
X019041Y016191D03*
X019051Y016201D03*
X019231Y016361D03*
X019051Y016521D03*
X019041Y016531D03*
X019031Y016531D03*
X019021Y016541D03*
X019011Y016541D03*
X018981Y016551D03*
X018931Y016561D03*
X018921Y016561D03*
X018911Y016561D03*
X018901Y016561D03*
X018891Y016561D03*
X000951Y015861D03*
X000711Y015811D03*
X000871Y014121D03*
X000881Y014121D03*
X000891Y014121D03*
X000901Y014121D03*
X000911Y014121D03*
X000821Y014111D03*
X000791Y014101D03*
X000781Y014101D03*
X000771Y014091D03*
X000761Y014091D03*
X000751Y014081D03*
X000571Y013921D03*
X000751Y013761D03*
X000761Y013751D03*
X000771Y013751D03*
X000781Y013741D03*
X000791Y013741D03*
X000821Y013731D03*
X000871Y013721D03*
X000881Y013721D03*
X000891Y013721D03*
X000901Y013721D03*
X000911Y013721D03*
X000921Y005791D03*
X000681Y005741D03*
X000841Y004051D03*
X000851Y004051D03*
X000861Y004051D03*
X000871Y004051D03*
X000881Y004051D03*
X000791Y004041D03*
X000761Y004031D03*
X000751Y004031D03*
X000741Y004021D03*
X000731Y004021D03*
X000721Y004011D03*
X000541Y003851D03*
X000721Y003691D03*
X000731Y003681D03*
X000741Y003681D03*
X000751Y003671D03*
X000761Y003671D03*
X000791Y003661D03*
X000841Y003651D03*
X000851Y003651D03*
X000861Y003651D03*
X000871Y003651D03*
X000881Y003651D03*
D19*
X000621Y003851D03*
X000611Y003851D03*
X001211Y003851D03*
X000561Y004451D03*
X000551Y004451D03*
X000541Y004451D03*
X000611Y004971D03*
X000621Y004971D03*
X000631Y004971D03*
X000641Y004971D03*
X000831Y004961D03*
X000841Y004961D03*
X000851Y004961D03*
X000861Y004961D03*
X001021Y006281D03*
X001031Y006281D03*
X001241Y013921D03*
X000651Y013921D03*
X000641Y013921D03*
X000591Y014521D03*
X000581Y014521D03*
X000571Y014521D03*
X000641Y015041D03*
X000651Y015041D03*
X000661Y015041D03*
X000671Y015041D03*
X000861Y015031D03*
X000871Y015031D03*
X000881Y015031D03*
X000891Y015031D03*
X001051Y016351D03*
X001061Y016351D03*
X018561Y016361D03*
X019151Y016361D03*
X019161Y016361D03*
X019211Y015761D03*
X019221Y015761D03*
X019231Y015761D03*
X019161Y015241D03*
X019151Y015241D03*
X019141Y015241D03*
X019131Y015241D03*
X018941Y015251D03*
X018931Y015251D03*
X018921Y015251D03*
X018911Y015251D03*
X018751Y013931D03*
X018741Y013931D03*
X018701Y006281D03*
X019291Y006281D03*
X019301Y006281D03*
X019351Y005681D03*
X019361Y005681D03*
X019371Y005681D03*
X019301Y005161D03*
X019291Y005161D03*
X019281Y005161D03*
X019271Y005161D03*
X019081Y005171D03*
X019071Y005171D03*
X019061Y005171D03*
X019051Y005171D03*
X018891Y003851D03*
X018881Y003851D03*
D20*
X018901Y003851D03*
X018911Y003851D03*
X019361Y005171D03*
X019371Y005171D03*
X019141Y005181D03*
X019311Y006281D03*
X018691Y006281D03*
X018761Y013931D03*
X018771Y013931D03*
X019001Y015261D03*
X019221Y015251D03*
X019231Y015251D03*
X019171Y016361D03*
X018551Y016361D03*
X001251Y013921D03*
X000631Y013921D03*
X000581Y015031D03*
X000571Y015031D03*
X000801Y015021D03*
X001031Y016351D03*
X001041Y016351D03*
X001011Y006281D03*
X001001Y006281D03*
X000771Y004951D03*
X000551Y004961D03*
X000541Y004961D03*
X000601Y003851D03*
X001221Y003851D03*
D21*
X000541Y005481D03*
X000961Y006281D03*
X000971Y006281D03*
X000571Y015551D03*
X000991Y016351D03*
X001001Y016351D03*
X018801Y013931D03*
X018811Y013931D03*
X019231Y014731D03*
X019371Y004651D03*
X018951Y003851D03*
X018941Y003851D03*
D22*
X019311Y003851D03*
X019321Y003851D03*
X019331Y003851D03*
X019341Y003851D03*
X019351Y003851D03*
X019361Y003851D03*
X019371Y003851D03*
X018981Y004351D03*
X019241Y004411D03*
X019241Y005251D03*
X019241Y005771D03*
X019231Y005771D03*
X019221Y005771D03*
X019211Y005771D03*
X019201Y005771D03*
X019191Y005771D03*
X019211Y006141D03*
X018981Y006091D03*
X018981Y006471D03*
X019211Y006431D03*
X018641Y006281D03*
X019171Y013931D03*
X019181Y013931D03*
X019191Y013931D03*
X019201Y013931D03*
X019211Y013931D03*
X019221Y013931D03*
X019231Y013931D03*
X019101Y014491D03*
X018841Y014431D03*
X019101Y015331D03*
X019101Y015851D03*
X019091Y015851D03*
X019081Y015851D03*
X019071Y015851D03*
X019061Y015851D03*
X019051Y015851D03*
X019071Y016221D03*
X018841Y016171D03*
X019071Y016511D03*
X018841Y016551D03*
X018501Y016361D03*
X001301Y013921D03*
X000961Y014111D03*
X000731Y014061D03*
X000731Y013771D03*
X000961Y013731D03*
X000751Y014431D03*
X000741Y014431D03*
X000731Y014431D03*
X000721Y014431D03*
X000711Y014431D03*
X000701Y014431D03*
X000701Y014951D03*
X000701Y015791D03*
X000961Y015851D03*
X000631Y016351D03*
X000621Y016351D03*
X000611Y016351D03*
X000601Y016351D03*
X000591Y016351D03*
X000581Y016351D03*
X000571Y016351D03*
X000591Y006281D03*
X000601Y006281D03*
X000581Y006281D03*
X000571Y006281D03*
X000561Y006281D03*
X000551Y006281D03*
X000541Y006281D03*
X000931Y005781D03*
X000671Y005721D03*
X000671Y004881D03*
X000671Y004361D03*
X000681Y004361D03*
X000691Y004361D03*
X000701Y004361D03*
X000711Y004361D03*
X000721Y004361D03*
X000701Y003991D03*
X000931Y004041D03*
X000931Y003661D03*
X000701Y003701D03*
X001271Y003851D03*
D23*
X000951Y004031D03*
X000951Y004361D03*
X000941Y004361D03*
X000931Y004361D03*
X000921Y004361D03*
X000911Y004361D03*
X000901Y004361D03*
X000891Y004361D03*
X000881Y004361D03*
X000871Y004361D03*
X000861Y004361D03*
X000851Y004361D03*
X000841Y004361D03*
X000831Y004361D03*
X000821Y004361D03*
X000811Y004361D03*
X000801Y004361D03*
X000791Y004361D03*
X000781Y004361D03*
X000771Y004361D03*
X000761Y004361D03*
X000551Y003851D03*
X000951Y003671D03*
X000951Y004881D03*
X000961Y004881D03*
X000941Y004881D03*
X000931Y004881D03*
X000921Y004881D03*
X000911Y004881D03*
X000901Y004881D03*
X000691Y005431D03*
X000681Y005431D03*
X000671Y005431D03*
X000671Y006281D03*
X000681Y006281D03*
X000691Y006281D03*
X000701Y006281D03*
X000711Y006281D03*
X000721Y006281D03*
X000731Y006281D03*
X000741Y006281D03*
X000751Y006281D03*
X000661Y006281D03*
X000651Y006281D03*
X000641Y006281D03*
X000981Y013741D03*
X000981Y014101D03*
X000981Y014431D03*
X000971Y014431D03*
X000961Y014431D03*
X000951Y014431D03*
X000941Y014431D03*
X000931Y014431D03*
X000921Y014431D03*
X000911Y014431D03*
X000901Y014431D03*
X000891Y014431D03*
X000881Y014431D03*
X000871Y014431D03*
X000861Y014431D03*
X000851Y014431D03*
X000841Y014431D03*
X000831Y014431D03*
X000821Y014431D03*
X000811Y014431D03*
X000801Y014431D03*
X000791Y014431D03*
X000931Y014951D03*
X000941Y014951D03*
X000951Y014951D03*
X000961Y014951D03*
X000971Y014951D03*
X000981Y014951D03*
X000991Y014951D03*
X000721Y015501D03*
X000711Y015501D03*
X000701Y015501D03*
X000701Y016351D03*
X000711Y016351D03*
X000721Y016351D03*
X000731Y016351D03*
X000741Y016351D03*
X000751Y016351D03*
X000761Y016351D03*
X000771Y016351D03*
X000781Y016351D03*
X000691Y016351D03*
X000681Y016351D03*
X000671Y016351D03*
X000581Y013921D03*
X018811Y015331D03*
X018821Y015331D03*
X018831Y015331D03*
X018841Y015331D03*
X018851Y015331D03*
X018861Y015331D03*
X018871Y015331D03*
X018871Y015851D03*
X018881Y015851D03*
X018891Y015851D03*
X018901Y015851D03*
X018911Y015851D03*
X018921Y015851D03*
X018931Y015851D03*
X018941Y015851D03*
X018951Y015851D03*
X018961Y015851D03*
X018971Y015851D03*
X018981Y015851D03*
X018991Y015851D03*
X019001Y015851D03*
X019011Y015851D03*
X018861Y015851D03*
X018851Y015851D03*
X018841Y015851D03*
X018831Y015851D03*
X018821Y015851D03*
X018821Y016181D03*
X018821Y016541D03*
X019221Y016361D03*
X019101Y014781D03*
X019091Y014781D03*
X019081Y014781D03*
X019081Y013931D03*
X019091Y013931D03*
X019101Y013931D03*
X019111Y013931D03*
X019121Y013931D03*
X019131Y013931D03*
X019071Y013931D03*
X019061Y013931D03*
X019051Y013931D03*
X019041Y013931D03*
X019031Y013931D03*
X019021Y013931D03*
X018961Y006461D03*
X018961Y006101D03*
X018961Y005771D03*
X018971Y005771D03*
X018981Y005771D03*
X018991Y005771D03*
X019001Y005771D03*
X019011Y005771D03*
X019021Y005771D03*
X019031Y005771D03*
X019041Y005771D03*
X019051Y005771D03*
X019061Y005771D03*
X019071Y005771D03*
X019081Y005771D03*
X019091Y005771D03*
X019101Y005771D03*
X019111Y005771D03*
X019121Y005771D03*
X019131Y005771D03*
X019141Y005771D03*
X019151Y005771D03*
X019011Y005251D03*
X019001Y005251D03*
X018991Y005251D03*
X018981Y005251D03*
X018971Y005251D03*
X018961Y005251D03*
X018951Y005251D03*
X019221Y004701D03*
X019231Y004701D03*
X019241Y004701D03*
X019241Y003851D03*
X019251Y003851D03*
X019261Y003851D03*
X019271Y003851D03*
X019231Y003851D03*
X019221Y003851D03*
X019211Y003851D03*
X019201Y003851D03*
X019191Y003851D03*
X019181Y003851D03*
X019171Y003851D03*
X019161Y003851D03*
X019361Y006281D03*
D24*
X019361Y004636D03*
X019221Y014716D03*
X000581Y015566D03*
X000551Y005496D03*
D25*
X000871Y006281D03*
X000881Y006281D03*
X000891Y006281D03*
X000901Y006281D03*
X000911Y006281D03*
X001071Y006201D03*
X001181Y004361D03*
X001191Y004361D03*
X001201Y004361D03*
X001211Y004361D03*
X001221Y004361D03*
X001231Y004361D03*
X001241Y004361D03*
X001251Y004361D03*
X001261Y004361D03*
X000561Y003851D03*
X000591Y013921D03*
X001211Y014431D03*
X001221Y014431D03*
X001231Y014431D03*
X001241Y014431D03*
X001251Y014431D03*
X001261Y014431D03*
X001271Y014431D03*
X001281Y014431D03*
X001291Y014431D03*
X001101Y016271D03*
X000941Y016351D03*
X000931Y016351D03*
X000921Y016351D03*
X000911Y016351D03*
X000901Y016351D03*
X018511Y015851D03*
X018521Y015851D03*
X018531Y015851D03*
X018541Y015851D03*
X018551Y015851D03*
X018561Y015851D03*
X018571Y015851D03*
X018581Y015851D03*
X018591Y015851D03*
X019211Y016361D03*
X018701Y014011D03*
X018861Y013931D03*
X018871Y013931D03*
X018881Y013931D03*
X018891Y013931D03*
X018901Y013931D03*
X019351Y006281D03*
X018731Y005771D03*
X018721Y005771D03*
X018711Y005771D03*
X018701Y005771D03*
X018691Y005771D03*
X018681Y005771D03*
X018671Y005771D03*
X018661Y005771D03*
X018651Y005771D03*
X018841Y003931D03*
X019001Y003851D03*
X019011Y003851D03*
X019021Y003851D03*
X019031Y003851D03*
X019041Y003851D03*
D26*
X019351Y004626D03*
X019351Y005166D03*
X019341Y005166D03*
X019331Y005166D03*
X019321Y005166D03*
X019311Y005166D03*
X019131Y005176D03*
X019121Y005176D03*
X019111Y005176D03*
X019101Y005176D03*
X019091Y005176D03*
X018671Y004656D03*
X019211Y014706D03*
X019211Y015246D03*
X019201Y015246D03*
X019191Y015246D03*
X019181Y015246D03*
X019171Y015246D03*
X018991Y015256D03*
X018981Y015256D03*
X018971Y015256D03*
X018961Y015256D03*
X018951Y015256D03*
X018531Y014736D03*
X001271Y015546D03*
X000851Y015026D03*
X000841Y015026D03*
X000831Y015026D03*
X000821Y015026D03*
X000811Y015026D03*
X000631Y015036D03*
X000621Y015036D03*
X000611Y015036D03*
X000601Y015036D03*
X000591Y015036D03*
X000591Y015576D03*
X000561Y005506D03*
X000561Y004966D03*
X000571Y004966D03*
X000581Y004966D03*
X000591Y004966D03*
X000601Y004966D03*
X000781Y004956D03*
X000791Y004956D03*
X000801Y004956D03*
X000811Y004956D03*
X000821Y004956D03*
X001241Y005476D03*
D27*
X001161Y006161D03*
X001141Y006171D03*
X001131Y006171D03*
X001121Y006181D03*
X001111Y006181D03*
X000931Y006281D03*
X000921Y006281D03*
X001251Y003851D03*
X000571Y003851D03*
X000601Y013921D03*
X001281Y013921D03*
X001191Y016231D03*
X001171Y016241D03*
X001161Y016241D03*
X001151Y016251D03*
X001141Y016251D03*
X000961Y016351D03*
X000951Y016351D03*
X018521Y016361D03*
X019201Y016361D03*
X018611Y014051D03*
X018631Y014041D03*
X018641Y014041D03*
X018651Y014031D03*
X018661Y014031D03*
X018841Y013931D03*
X018851Y013931D03*
X018661Y006281D03*
X019341Y006281D03*
X018751Y003971D03*
X018771Y003961D03*
X018781Y003961D03*
X018791Y003951D03*
X018801Y003951D03*
X018981Y003851D03*
X018991Y003851D03*
D28*
X019341Y004616D03*
X019261Y005156D03*
X019251Y005156D03*
X019041Y005166D03*
X019031Y005166D03*
X019021Y005166D03*
X019301Y005676D03*
X019311Y005676D03*
X019321Y005676D03*
X019331Y005676D03*
X019341Y005676D03*
X019201Y014696D03*
X019121Y015236D03*
X019111Y015236D03*
X018901Y015246D03*
X018891Y015246D03*
X018881Y015246D03*
X019161Y015756D03*
X019171Y015756D03*
X019181Y015756D03*
X019191Y015756D03*
X019201Y015756D03*
X000921Y015036D03*
X000911Y015036D03*
X000901Y015036D03*
X000691Y015046D03*
X000681Y015046D03*
X000641Y014526D03*
X000631Y014526D03*
X000621Y014526D03*
X000611Y014526D03*
X000601Y014526D03*
X000601Y015586D03*
X000571Y005516D03*
X000651Y004976D03*
X000661Y004976D03*
X000871Y004966D03*
X000881Y004966D03*
X000891Y004966D03*
X000611Y004456D03*
X000601Y004456D03*
X000591Y004456D03*
X000581Y004456D03*
X000571Y004456D03*
D29*
X000581Y003846D03*
X001261Y005446D03*
X001261Y006116D03*
X001251Y006116D03*
X001241Y006126D03*
X001231Y006126D03*
X000611Y013916D03*
X001291Y015516D03*
X001291Y016186D03*
X001281Y016186D03*
X001271Y016196D03*
X001261Y016196D03*
X018511Y014766D03*
X018511Y014096D03*
X018521Y014096D03*
X018531Y014086D03*
X018541Y014086D03*
X019191Y016366D03*
X019331Y006286D03*
X018651Y004686D03*
X018651Y004016D03*
X018661Y004016D03*
X018671Y004006D03*
X018681Y004006D03*
D30*
X019331Y004606D03*
X018871Y005166D03*
X018861Y005166D03*
X018851Y005166D03*
X018841Y005166D03*
X018831Y005166D03*
X018821Y005166D03*
X018811Y005166D03*
X018801Y005166D03*
X018791Y005166D03*
X018781Y005166D03*
X018771Y005166D03*
X018761Y005166D03*
X018751Y005166D03*
X019251Y005666D03*
X019261Y005666D03*
X019191Y014686D03*
X018731Y015246D03*
X018721Y015246D03*
X018711Y015246D03*
X018701Y015246D03*
X018691Y015246D03*
X018681Y015246D03*
X018671Y015246D03*
X018661Y015246D03*
X018651Y015246D03*
X018641Y015246D03*
X018631Y015246D03*
X018621Y015246D03*
X018611Y015246D03*
X019111Y015746D03*
X019121Y015746D03*
X001191Y015036D03*
X001181Y015036D03*
X001171Y015036D03*
X001161Y015036D03*
X001151Y015036D03*
X001141Y015036D03*
X001131Y015036D03*
X001121Y015036D03*
X001111Y015036D03*
X001101Y015036D03*
X001091Y015036D03*
X001081Y015036D03*
X001071Y015036D03*
X000691Y014536D03*
X000681Y014536D03*
X000611Y015596D03*
X000581Y005526D03*
X001041Y004966D03*
X001051Y004966D03*
X001061Y004966D03*
X001071Y004966D03*
X001081Y004966D03*
X001091Y004966D03*
X001101Y004966D03*
X001111Y004966D03*
X001121Y004966D03*
X001131Y004966D03*
X001141Y004966D03*
X001151Y004966D03*
X001161Y004966D03*
X000661Y004466D03*
X000651Y004466D03*
D31*
X000591Y003851D03*
X001231Y003851D03*
X001251Y005461D03*
X000991Y006281D03*
X000981Y006281D03*
X001261Y013921D03*
X000621Y013921D03*
X001281Y015531D03*
X001021Y016351D03*
X001011Y016351D03*
X018541Y016361D03*
X019181Y016361D03*
X018521Y014751D03*
X018781Y013931D03*
X018791Y013931D03*
X018681Y006281D03*
X019321Y006281D03*
X018661Y004671D03*
X018921Y003851D03*
X018931Y003851D03*
D32*
X018851Y003851D03*
X018691Y004631D03*
X018731Y005171D03*
X018741Y005171D03*
X019321Y004601D03*
X019271Y006281D03*
X018721Y006281D03*
X018711Y013931D03*
X018551Y014711D03*
X018591Y015251D03*
X018601Y015251D03*
X019181Y014681D03*
X019131Y016361D03*
X018581Y016361D03*
X001251Y015571D03*
X001211Y015031D03*
X001201Y015031D03*
X000621Y015601D03*
X001091Y016351D03*
X001221Y013921D03*
X000671Y013921D03*
X001061Y006281D03*
X001221Y005501D03*
X001181Y004961D03*
X001171Y004961D03*
X000591Y005531D03*
X000641Y003851D03*
X001191Y003851D03*
D33*
X001181Y003851D03*
X001171Y003851D03*
X000661Y003851D03*
X000651Y003851D03*
X000601Y005541D03*
X000681Y013921D03*
X000691Y013921D03*
X001201Y013921D03*
X001211Y013921D03*
X000631Y015611D03*
X018591Y016361D03*
X018601Y016361D03*
X019111Y016361D03*
X019121Y016361D03*
X019171Y014671D03*
X019251Y006281D03*
X019261Y006281D03*
X018741Y006281D03*
X018731Y006281D03*
X019311Y004591D03*
D34*
X019301Y004586D03*
X018711Y004616D03*
X019161Y014666D03*
X018571Y014696D03*
X001231Y015586D03*
X000641Y015616D03*
X000611Y005546D03*
X001201Y005516D03*
D35*
X000761Y004876D03*
X000751Y004876D03*
X000741Y004876D03*
X000731Y004876D03*
X000721Y004876D03*
X000711Y004876D03*
X000701Y004876D03*
X000691Y004876D03*
X000681Y004876D03*
X000731Y004356D03*
X000741Y004356D03*
X000751Y004356D03*
X000941Y004036D03*
X000941Y003666D03*
X000631Y006286D03*
X000621Y006286D03*
X000611Y006286D03*
X000971Y013736D03*
X000971Y014106D03*
X000781Y014426D03*
X000771Y014426D03*
X000761Y014426D03*
X000761Y014946D03*
X000771Y014946D03*
X000781Y014946D03*
X000791Y014946D03*
X000751Y014946D03*
X000741Y014946D03*
X000731Y014946D03*
X000721Y014946D03*
X000711Y014946D03*
X000661Y016356D03*
X000651Y016356D03*
X000641Y016356D03*
X018831Y016176D03*
X018831Y016546D03*
X019021Y015856D03*
X019031Y015856D03*
X019041Y015856D03*
X019041Y015336D03*
X019051Y015336D03*
X019061Y015336D03*
X019071Y015336D03*
X019081Y015336D03*
X019091Y015336D03*
X019031Y015336D03*
X019021Y015336D03*
X019011Y015336D03*
X019141Y013926D03*
X019151Y013926D03*
X019161Y013926D03*
X018971Y006466D03*
X018971Y006096D03*
X019161Y005776D03*
X019171Y005776D03*
X019181Y005776D03*
X019181Y005256D03*
X019191Y005256D03*
X019201Y005256D03*
X019211Y005256D03*
X019221Y005256D03*
X019231Y005256D03*
X019171Y005256D03*
X019161Y005256D03*
X019151Y005256D03*
X019281Y003846D03*
X019291Y003846D03*
X019301Y003846D03*
D36*
X018871Y003851D03*
X018861Y003851D03*
X018681Y004641D03*
X018881Y005171D03*
X018891Y005171D03*
X018901Y005171D03*
X018911Y005171D03*
X018921Y005171D03*
X018931Y005171D03*
X019271Y005671D03*
X019281Y005671D03*
X019291Y005671D03*
X019281Y006281D03*
X018711Y006281D03*
X018721Y013931D03*
X018731Y013931D03*
X018541Y014721D03*
X018741Y015251D03*
X018751Y015251D03*
X018761Y015251D03*
X018771Y015251D03*
X018781Y015251D03*
X018791Y015251D03*
X019131Y015751D03*
X019141Y015751D03*
X019151Y015751D03*
X019141Y016361D03*
X018571Y016361D03*
X001261Y015561D03*
X001061Y015031D03*
X001051Y015031D03*
X001041Y015031D03*
X001031Y015031D03*
X001021Y015031D03*
X001011Y015031D03*
X000671Y014531D03*
X000661Y014531D03*
X000651Y014531D03*
X000661Y013921D03*
X001231Y013921D03*
X001081Y016351D03*
X001071Y016351D03*
X001051Y006281D03*
X001041Y006281D03*
X001231Y005491D03*
X001031Y004961D03*
X001021Y004961D03*
X001011Y004961D03*
X001001Y004961D03*
X000991Y004961D03*
X000981Y004961D03*
X000641Y004461D03*
X000631Y004461D03*
X000621Y004461D03*
X000631Y003851D03*
X001201Y003851D03*
D37*
X001161Y003851D03*
X000671Y003851D03*
X000621Y005551D03*
X001191Y005521D03*
X001191Y013921D03*
X000701Y013921D03*
X000651Y015621D03*
X001221Y015591D03*
X018581Y014691D03*
X019151Y014661D03*
X019101Y016361D03*
X018611Y016361D03*
X018751Y006281D03*
X019241Y006281D03*
X019291Y004581D03*
X018721Y004611D03*
D38*
X018731Y004606D03*
X019281Y004576D03*
X019231Y006286D03*
X019141Y014656D03*
X018591Y014686D03*
X019091Y016366D03*
X001211Y015596D03*
X000661Y015626D03*
X000711Y013916D03*
X000631Y005556D03*
X001181Y005526D03*
X000681Y003846D03*
D39*
X000691Y003851D03*
X001141Y003851D03*
X001151Y003851D03*
X000641Y005561D03*
X000721Y013921D03*
X001171Y013921D03*
X001181Y013921D03*
X000671Y015631D03*
X018621Y016361D03*
X018631Y016361D03*
X019081Y016361D03*
X019131Y014651D03*
X019221Y006281D03*
X018771Y006281D03*
X018761Y006281D03*
X019271Y004571D03*
D40*
X019261Y004566D03*
X019251Y004566D03*
X018761Y004586D03*
X018751Y004586D03*
X018741Y004596D03*
X019111Y014646D03*
X019121Y014646D03*
X018621Y014666D03*
X018611Y014666D03*
X018601Y014676D03*
X001201Y015606D03*
X001191Y015616D03*
X001181Y015616D03*
X000691Y015636D03*
X000681Y015636D03*
X000661Y005566D03*
X000651Y005566D03*
X001151Y005546D03*
X001161Y005546D03*
X001171Y005536D03*
D41*
X000971Y005156D03*
X000671Y004666D03*
X000701Y014736D03*
X001001Y015226D03*
X018801Y015056D03*
X019101Y015546D03*
X019241Y005466D03*
X018941Y004976D03*
D42*
X019241Y004956D03*
X019101Y015036D03*
X000701Y015246D03*
X000671Y005176D03*
D43*
X000691Y005751D03*
X000891Y005801D03*
X000901Y005801D03*
X001281Y003851D03*
X001311Y013921D03*
X000931Y015871D03*
X000921Y015871D03*
X000721Y015821D03*
X018491Y016361D03*
X018871Y014411D03*
X018881Y014411D03*
X019081Y014461D03*
X018631Y006281D03*
X019221Y004381D03*
X019021Y004331D03*
X019011Y004331D03*
D44*
X018971Y004366D03*
X019121Y004706D03*
X019131Y004706D03*
X019141Y004706D03*
X019151Y004706D03*
X019161Y004706D03*
X019171Y004706D03*
X019181Y004706D03*
X019191Y004706D03*
X019201Y004706D03*
X019211Y004706D03*
X018941Y005256D03*
X018941Y005766D03*
X018951Y005766D03*
X018931Y005766D03*
X018921Y005766D03*
X018951Y006456D03*
X019141Y003846D03*
X019151Y003846D03*
X019011Y013926D03*
X019001Y013926D03*
X018831Y014446D03*
X018981Y014786D03*
X018991Y014786D03*
X019001Y014786D03*
X019011Y014786D03*
X019021Y014786D03*
X019031Y014786D03*
X019041Y014786D03*
X019051Y014786D03*
X019061Y014786D03*
X019071Y014786D03*
X018801Y015336D03*
X018801Y015846D03*
X018811Y015846D03*
X018791Y015846D03*
X018781Y015846D03*
X018811Y016536D03*
X001001Y014946D03*
X000821Y015496D03*
X000811Y015496D03*
X000801Y015496D03*
X000791Y015496D03*
X000781Y015496D03*
X000771Y015496D03*
X000761Y015496D03*
X000751Y015496D03*
X000741Y015496D03*
X000731Y015496D03*
X000971Y015836D03*
X000801Y016356D03*
X000791Y016356D03*
X000991Y014436D03*
X001001Y014436D03*
X001011Y014436D03*
X001021Y014436D03*
X000991Y013746D03*
X000771Y006286D03*
X000761Y006286D03*
X000941Y005766D03*
X000791Y005426D03*
X000781Y005426D03*
X000771Y005426D03*
X000761Y005426D03*
X000751Y005426D03*
X000741Y005426D03*
X000731Y005426D03*
X000721Y005426D03*
X000711Y005426D03*
X000701Y005426D03*
X000971Y004876D03*
X000971Y004366D03*
X000981Y004366D03*
X000991Y004366D03*
X000961Y004366D03*
X000961Y003676D03*
D45*
X000921Y003656D03*
X000911Y003656D03*
X000901Y003656D03*
X000891Y003656D03*
X000711Y003696D03*
X000711Y004006D03*
X000891Y004046D03*
X000901Y004046D03*
X000911Y004046D03*
X000921Y004046D03*
X001271Y005446D03*
X000951Y013726D03*
X000941Y013726D03*
X000931Y013726D03*
X000921Y013726D03*
X000741Y013766D03*
X000741Y014076D03*
X000921Y014116D03*
X000931Y014116D03*
X000941Y014116D03*
X000951Y014116D03*
X001301Y015516D03*
X018501Y014766D03*
X018851Y016166D03*
X018861Y016166D03*
X018871Y016166D03*
X018881Y016166D03*
X019061Y016206D03*
X019061Y016516D03*
X018881Y016556D03*
X018871Y016556D03*
X018861Y016556D03*
X018851Y016556D03*
X018991Y006476D03*
X019001Y006476D03*
X019011Y006476D03*
X019021Y006476D03*
X019201Y006436D03*
X019201Y006126D03*
X019021Y006086D03*
X019011Y006086D03*
X019001Y006086D03*
X018991Y006086D03*
X018641Y004686D03*
D46*
X019151Y004991D03*
X019011Y015071D03*
X000791Y015211D03*
X000761Y005141D03*
D47*
X000761Y005796D03*
X000791Y005806D03*
X000801Y005806D03*
X000811Y005806D03*
X000791Y015866D03*
X000821Y015876D03*
X000831Y015876D03*
X000841Y015876D03*
X018961Y014406D03*
X018971Y014406D03*
X018981Y014406D03*
X019011Y014416D03*
X019151Y004336D03*
X019121Y004326D03*
X019111Y004326D03*
X019101Y004326D03*
D48*
X019001Y004336D03*
X019081Y006086D03*
X019091Y006086D03*
X019101Y006086D03*
X019111Y006086D03*
X019131Y006096D03*
X019141Y006096D03*
X019141Y006466D03*
X019131Y006466D03*
X019111Y006476D03*
X019101Y006476D03*
X019091Y006476D03*
X019081Y006476D03*
X018861Y014416D03*
X018941Y016166D03*
X018951Y016166D03*
X018961Y016166D03*
X018971Y016166D03*
X018991Y016176D03*
X019001Y016176D03*
X019001Y016546D03*
X018991Y016546D03*
X018971Y016556D03*
X018961Y016556D03*
X018951Y016556D03*
X018941Y016556D03*
X000941Y015866D03*
X000861Y014116D03*
X000851Y014116D03*
X000841Y014116D03*
X000831Y014116D03*
X000811Y014106D03*
X000801Y014106D03*
X000801Y013736D03*
X000811Y013736D03*
X000831Y013726D03*
X000841Y013726D03*
X000851Y013726D03*
X000861Y013726D03*
X000911Y005796D03*
X000831Y004046D03*
X000821Y004046D03*
X000811Y004046D03*
X000801Y004046D03*
X000781Y004036D03*
X000771Y004036D03*
X000771Y003666D03*
X000781Y003666D03*
X000801Y003656D03*
X000811Y003656D03*
X000821Y003656D03*
X000831Y003656D03*
D49*
X000961Y004021D03*
X001001Y004361D03*
X001011Y004361D03*
X001021Y004361D03*
X001031Y004361D03*
X001041Y004361D03*
X001051Y004361D03*
X001061Y004361D03*
X001071Y004361D03*
X001081Y004361D03*
X001091Y004361D03*
X001101Y004361D03*
X001111Y004361D03*
X001121Y004361D03*
X001131Y004361D03*
X001141Y004361D03*
X001151Y004361D03*
X001261Y003851D03*
X000941Y005431D03*
X000931Y005431D03*
X000921Y005431D03*
X000911Y005431D03*
X000901Y005431D03*
X000891Y005431D03*
X000881Y005431D03*
X000871Y005431D03*
X000861Y005431D03*
X000851Y005431D03*
X000841Y005431D03*
X000831Y005431D03*
X000821Y005431D03*
X000811Y005431D03*
X000801Y005431D03*
X000801Y006281D03*
X000811Y006281D03*
X000821Y006281D03*
X000831Y006281D03*
X000841Y006281D03*
X000851Y006281D03*
X000791Y006281D03*
X000781Y006281D03*
X001291Y013921D03*
X000991Y014091D03*
X001031Y014431D03*
X001041Y014431D03*
X001051Y014431D03*
X001061Y014431D03*
X001071Y014431D03*
X001081Y014431D03*
X001091Y014431D03*
X001101Y014431D03*
X001111Y014431D03*
X001121Y014431D03*
X001131Y014431D03*
X001141Y014431D03*
X001151Y014431D03*
X001161Y014431D03*
X001171Y014431D03*
X001181Y014431D03*
X000971Y015501D03*
X000961Y015501D03*
X000951Y015501D03*
X000941Y015501D03*
X000931Y015501D03*
X000921Y015501D03*
X000911Y015501D03*
X000901Y015501D03*
X000891Y015501D03*
X000881Y015501D03*
X000871Y015501D03*
X000861Y015501D03*
X000851Y015501D03*
X000841Y015501D03*
X000831Y015501D03*
X000831Y016351D03*
X000841Y016351D03*
X000851Y016351D03*
X000861Y016351D03*
X000871Y016351D03*
X000881Y016351D03*
X000821Y016351D03*
X000811Y016351D03*
X018511Y016361D03*
X018811Y016191D03*
X018771Y015851D03*
X018761Y015851D03*
X018751Y015851D03*
X018741Y015851D03*
X018731Y015851D03*
X018721Y015851D03*
X018711Y015851D03*
X018701Y015851D03*
X018691Y015851D03*
X018681Y015851D03*
X018671Y015851D03*
X018661Y015851D03*
X018651Y015851D03*
X018641Y015851D03*
X018631Y015851D03*
X018621Y015851D03*
X018831Y014781D03*
X018841Y014781D03*
X018851Y014781D03*
X018861Y014781D03*
X018871Y014781D03*
X018881Y014781D03*
X018891Y014781D03*
X018901Y014781D03*
X018911Y014781D03*
X018921Y014781D03*
X018931Y014781D03*
X018941Y014781D03*
X018951Y014781D03*
X018961Y014781D03*
X018971Y014781D03*
X018971Y013931D03*
X018981Y013931D03*
X018991Y013931D03*
X018961Y013931D03*
X018951Y013931D03*
X018941Y013931D03*
X018931Y013931D03*
X018921Y013931D03*
X018651Y006281D03*
X018951Y006111D03*
X018911Y005771D03*
X018901Y005771D03*
X018891Y005771D03*
X018881Y005771D03*
X018871Y005771D03*
X018861Y005771D03*
X018851Y005771D03*
X018841Y005771D03*
X018831Y005771D03*
X018821Y005771D03*
X018811Y005771D03*
X018801Y005771D03*
X018791Y005771D03*
X018781Y005771D03*
X018771Y005771D03*
X018761Y005771D03*
X018971Y004701D03*
X018981Y004701D03*
X018991Y004701D03*
X019001Y004701D03*
X019011Y004701D03*
X019021Y004701D03*
X019031Y004701D03*
X019041Y004701D03*
X019051Y004701D03*
X019061Y004701D03*
X019071Y004701D03*
X019081Y004701D03*
X019091Y004701D03*
X019101Y004701D03*
X019111Y004701D03*
X019111Y003851D03*
X019121Y003851D03*
X019131Y003851D03*
X019101Y003851D03*
X019091Y003851D03*
X019081Y003851D03*
X019071Y003851D03*
X019061Y003851D03*
D50*
X019051Y003846D03*
X018751Y005766D03*
X018741Y005766D03*
X018911Y013926D03*
X018611Y015846D03*
X018601Y015846D03*
X001201Y014436D03*
X001191Y014436D03*
X000891Y016356D03*
X000861Y006286D03*
X001161Y004366D03*
X001171Y004366D03*
D51*
X001241Y003851D03*
X001221Y006131D03*
X001201Y006141D03*
X000951Y006281D03*
X000941Y006281D03*
X001271Y013921D03*
X001251Y016201D03*
X001231Y016211D03*
X000981Y016351D03*
X000971Y016351D03*
X018531Y016361D03*
X018551Y014081D03*
X018571Y014071D03*
X018821Y013931D03*
X018831Y013931D03*
X018671Y006281D03*
X018691Y004001D03*
X018711Y003991D03*
X018961Y003851D03*
X018971Y003851D03*
D52*
X018961Y004536D03*
X018951Y004536D03*
X018931Y004546D03*
X018921Y004546D03*
X018911Y004546D03*
X018901Y004546D03*
X018821Y014616D03*
X018811Y014616D03*
X018791Y014626D03*
X018781Y014626D03*
X018771Y014626D03*
X018761Y014626D03*
X001041Y015656D03*
X001031Y015656D03*
X001021Y015656D03*
X001011Y015656D03*
X000991Y015666D03*
X000981Y015666D03*
X000961Y005596D03*
X000951Y005596D03*
X000981Y005586D03*
X000991Y005586D03*
X001001Y005586D03*
X001011Y005586D03*
D53*
X001001Y003851D03*
X000991Y003851D03*
X000981Y003851D03*
X000971Y003851D03*
X001001Y013921D03*
X001011Y013921D03*
X001021Y013921D03*
X001031Y013921D03*
X018771Y016361D03*
X018781Y016361D03*
X018791Y016361D03*
X018801Y016361D03*
X018911Y006281D03*
X018921Y006281D03*
X018931Y006281D03*
X018941Y006281D03*
D54*
X018901Y006281D03*
X018891Y006281D03*
X018881Y006281D03*
X018871Y006281D03*
X018861Y006281D03*
X018871Y004551D03*
X018881Y004551D03*
X018891Y004551D03*
X018941Y004541D03*
X018801Y014621D03*
X018751Y014631D03*
X018741Y014631D03*
X018731Y014631D03*
X018721Y016361D03*
X018731Y016361D03*
X018741Y016361D03*
X018751Y016361D03*
X018761Y016361D03*
X001071Y015651D03*
X001061Y015651D03*
X001051Y015651D03*
X001001Y015661D03*
X001041Y013921D03*
X001051Y013921D03*
X001061Y013921D03*
X001071Y013921D03*
X001081Y013921D03*
X000971Y005591D03*
X001021Y005581D03*
X001031Y005581D03*
X001041Y005581D03*
X001051Y003851D03*
X001041Y003851D03*
X001031Y003851D03*
X001021Y003851D03*
X001011Y003851D03*
D55*
X001051Y005576D03*
X001061Y005576D03*
X001071Y005576D03*
X001091Y015646D03*
X001101Y015646D03*
X001081Y015646D03*
X018701Y014636D03*
X018711Y014636D03*
X018721Y014636D03*
X018841Y004556D03*
X018851Y004556D03*
X018861Y004556D03*
D56*
X018831Y004561D03*
X018821Y004561D03*
X018831Y006281D03*
X018841Y006281D03*
X018851Y006281D03*
X018691Y014641D03*
X018681Y014641D03*
X018691Y016361D03*
X018701Y016361D03*
X018711Y016361D03*
X001121Y015641D03*
X001111Y015641D03*
X001111Y013921D03*
X001101Y013921D03*
X001091Y013921D03*
X001091Y005571D03*
X001081Y005571D03*
X001081Y003851D03*
X001071Y003851D03*
X001061Y003851D03*
D57*
X001071Y006451D03*
X001101Y016521D03*
X018701Y013761D03*
X018841Y003681D03*
D58*
X018831Y003676D03*
X018821Y003676D03*
X018811Y003666D03*
X018801Y003666D03*
X018791Y003656D03*
X018781Y003656D03*
X018761Y003646D03*
X018621Y013726D03*
X018641Y013736D03*
X018651Y013736D03*
X018661Y013746D03*
X018671Y013746D03*
X018681Y013756D03*
X018691Y013756D03*
X001181Y016556D03*
X001161Y016546D03*
X001151Y016546D03*
X001141Y016536D03*
X001131Y016536D03*
X001121Y016526D03*
X001111Y016526D03*
X001151Y006486D03*
X001131Y006476D03*
X001121Y006476D03*
X001111Y006466D03*
X001101Y006466D03*
X001091Y006456D03*
X001081Y006456D03*
D59*
X001111Y005561D03*
X001121Y005561D03*
X001111Y003851D03*
X001101Y003851D03*
X001091Y003851D03*
X001121Y013921D03*
X001131Y013921D03*
X001141Y013921D03*
X001151Y015631D03*
X001141Y015631D03*
X018661Y016361D03*
X018671Y016361D03*
X018681Y016361D03*
X018661Y014651D03*
X018651Y014651D03*
X018801Y006281D03*
X018811Y006281D03*
X018821Y006281D03*
X018801Y004571D03*
X018791Y004571D03*
D60*
X018811Y004566D03*
X018671Y014646D03*
X001131Y015636D03*
X001101Y005566D03*
D61*
X001141Y005551D03*
X001131Y003851D03*
X001121Y003851D03*
X001151Y013921D03*
X001161Y013921D03*
X001171Y015621D03*
X018641Y016361D03*
X018651Y016361D03*
X018631Y014661D03*
X018781Y006281D03*
X018791Y006281D03*
X018771Y004581D03*
D62*
X018781Y004576D03*
X018641Y014656D03*
X001161Y015626D03*
X001131Y005556D03*
D63*
X001141Y006481D03*
X001161Y006491D03*
X001181Y006501D03*
X001171Y016551D03*
X001191Y016561D03*
X001211Y016571D03*
X018591Y013711D03*
X018611Y013721D03*
X018631Y013731D03*
X018771Y003651D03*
X018751Y003641D03*
X018731Y003631D03*
D64*
X018761Y003966D03*
X018741Y003976D03*
X018731Y003986D03*
X018721Y003986D03*
X018701Y003996D03*
X018621Y014046D03*
X018601Y014056D03*
X018591Y014066D03*
X018581Y014066D03*
X018561Y014076D03*
X001241Y016206D03*
X001221Y016216D03*
X001211Y016216D03*
X001201Y016226D03*
X001181Y016236D03*
X001151Y006166D03*
X001171Y006156D03*
X001181Y006146D03*
X001191Y006146D03*
X001211Y006136D03*
D65*
X001171Y006496D03*
X001191Y006506D03*
X001201Y006506D03*
X001211Y006516D03*
X001221Y006516D03*
X001201Y016566D03*
X001221Y016576D03*
X001231Y016576D03*
X001241Y016586D03*
X001251Y016586D03*
X018551Y013696D03*
X018561Y013696D03*
X018571Y013706D03*
X018581Y013706D03*
X018601Y013716D03*
X018741Y003636D03*
X018721Y003626D03*
X018711Y003626D03*
X018701Y003616D03*
X018691Y003616D03*
D66*
X018701Y004626D03*
X018701Y005166D03*
X018711Y005166D03*
X018721Y005166D03*
X018691Y005166D03*
X018681Y005166D03*
X018671Y005166D03*
X018661Y005166D03*
X018651Y005166D03*
X018561Y014706D03*
X018561Y015246D03*
X018571Y015246D03*
X018581Y015246D03*
X018551Y015246D03*
X018541Y015246D03*
X018531Y015246D03*
X018521Y015246D03*
X018511Y015246D03*
X001291Y015036D03*
X001281Y015036D03*
X001271Y015036D03*
X001261Y015036D03*
X001251Y015036D03*
X001241Y015036D03*
X001231Y015036D03*
X001221Y015036D03*
X001241Y015576D03*
X001211Y005506D03*
X001211Y004966D03*
X001221Y004966D03*
X001231Y004966D03*
X001241Y004966D03*
X001251Y004966D03*
X001261Y004966D03*
X001201Y004966D03*
X001191Y004966D03*
D67*
X001231Y006521D03*
X001241Y006521D03*
X001251Y006531D03*
X001261Y006531D03*
X001271Y016591D03*
X001261Y016591D03*
X001281Y016601D03*
X001291Y016601D03*
X018511Y013681D03*
X018521Y013681D03*
X018531Y013691D03*
X018541Y013691D03*
X018671Y003611D03*
X018681Y003611D03*
X018661Y003601D03*
X018651Y003601D03*
D68*
X018621Y006276D03*
X018481Y016356D03*
X001321Y013926D03*
X001291Y003856D03*
D69*
X005071Y001705D02*
X005071Y000288D01*
X015150Y000288D01*
X015150Y001705D01*
X010111Y001705D01*
X010111Y001863D01*
X010111Y001705D02*
X005071Y001705D01*
X009871Y008016D02*
X009871Y008174D01*
X005402Y008174D01*
X005402Y009591D01*
X014300Y009591D01*
X014300Y008174D01*
X009871Y008174D01*
X009908Y011609D02*
X009908Y011766D01*
X009908Y011609D02*
X015223Y011609D01*
X015223Y010192D01*
X004593Y010192D01*
X004593Y011609D01*
X009908Y011609D01*
X009939Y018092D02*
X009939Y018249D01*
X003600Y018249D01*
X003600Y019667D01*
X016198Y019667D01*
X016198Y018249D01*
X009939Y018249D01*
D70*
X016198Y018249D03*
X014300Y008174D03*
X005071Y001705D03*
X004593Y011609D03*
M02*
