G75*
G70*
%OFA0B0*%
%FSLAX24Y24*%
%IPPOS*%
%LPD*%
%AMOC8*
5,1,8,0,0,1.08239X$1,22.5*
%
%ADD10C,0.0000*%
%ADD11C,0.0740*%
%ADD12C,0.0100*%
%ADD13C,0.0240*%
%ADD14C,0.0080*%
D10*
X000141Y000141D02*
X000141Y019826D01*
X019531Y019826D01*
X019531Y000240D01*
X000141Y000141D01*
X003586Y018842D02*
X003588Y018886D01*
X003594Y018930D01*
X003604Y018973D01*
X003617Y019015D01*
X003635Y019055D01*
X003656Y019094D01*
X003680Y019131D01*
X003707Y019166D01*
X003738Y019198D01*
X003771Y019227D01*
X003807Y019253D01*
X003845Y019275D01*
X003885Y019294D01*
X003926Y019310D01*
X003969Y019322D01*
X004012Y019330D01*
X004056Y019334D01*
X004100Y019334D01*
X004144Y019330D01*
X004187Y019322D01*
X004230Y019310D01*
X004271Y019294D01*
X004311Y019275D01*
X004349Y019253D01*
X004385Y019227D01*
X004418Y019198D01*
X004449Y019166D01*
X004476Y019131D01*
X004500Y019094D01*
X004521Y019055D01*
X004539Y019015D01*
X004552Y018973D01*
X004562Y018930D01*
X004568Y018886D01*
X004570Y018842D01*
X004568Y018798D01*
X004562Y018754D01*
X004552Y018711D01*
X004539Y018669D01*
X004521Y018629D01*
X004500Y018590D01*
X004476Y018553D01*
X004449Y018518D01*
X004418Y018486D01*
X004385Y018457D01*
X004349Y018431D01*
X004311Y018409D01*
X004271Y018390D01*
X004230Y018374D01*
X004187Y018362D01*
X004144Y018354D01*
X004100Y018350D01*
X004056Y018350D01*
X004012Y018354D01*
X003969Y018362D01*
X003926Y018374D01*
X003885Y018390D01*
X003845Y018409D01*
X003807Y018431D01*
X003771Y018457D01*
X003738Y018486D01*
X003707Y018518D01*
X003680Y018553D01*
X003656Y018590D01*
X003635Y018629D01*
X003617Y018669D01*
X003604Y018711D01*
X003594Y018754D01*
X003588Y018798D01*
X003586Y018842D01*
X015397Y018842D02*
X015399Y018886D01*
X015405Y018930D01*
X015415Y018973D01*
X015428Y019015D01*
X015446Y019055D01*
X015467Y019094D01*
X015491Y019131D01*
X015518Y019166D01*
X015549Y019198D01*
X015582Y019227D01*
X015618Y019253D01*
X015656Y019275D01*
X015696Y019294D01*
X015737Y019310D01*
X015780Y019322D01*
X015823Y019330D01*
X015867Y019334D01*
X015911Y019334D01*
X015955Y019330D01*
X015998Y019322D01*
X016041Y019310D01*
X016082Y019294D01*
X016122Y019275D01*
X016160Y019253D01*
X016196Y019227D01*
X016229Y019198D01*
X016260Y019166D01*
X016287Y019131D01*
X016311Y019094D01*
X016332Y019055D01*
X016350Y019015D01*
X016363Y018973D01*
X016373Y018930D01*
X016379Y018886D01*
X016381Y018842D01*
X016379Y018798D01*
X016373Y018754D01*
X016363Y018711D01*
X016350Y018669D01*
X016332Y018629D01*
X016311Y018590D01*
X016287Y018553D01*
X016260Y018518D01*
X016229Y018486D01*
X016196Y018457D01*
X016160Y018431D01*
X016122Y018409D01*
X016082Y018390D01*
X016041Y018374D01*
X015998Y018362D01*
X015955Y018354D01*
X015911Y018350D01*
X015867Y018350D01*
X015823Y018354D01*
X015780Y018362D01*
X015737Y018374D01*
X015696Y018390D01*
X015656Y018409D01*
X015618Y018431D01*
X015582Y018457D01*
X015549Y018486D01*
X015518Y018518D01*
X015491Y018553D01*
X015467Y018590D01*
X015446Y018629D01*
X015428Y018669D01*
X015415Y018711D01*
X015405Y018754D01*
X015399Y018798D01*
X015397Y018842D01*
D11*
X014443Y017294D03*
X017691Y017294D03*
X017942Y013936D03*
X016942Y013936D03*
X017691Y012865D03*
X018942Y013936D03*
X015694Y013936D03*
X014694Y013936D03*
X013694Y013936D03*
X014443Y012865D03*
X012446Y013936D03*
X011446Y013936D03*
X010446Y013936D03*
X011195Y012865D03*
X009198Y013936D03*
X008198Y013936D03*
X007198Y013936D03*
X007947Y012865D03*
X005950Y013936D03*
X004950Y013936D03*
X003950Y013936D03*
X004699Y012865D03*
X002702Y013936D03*
X001702Y013936D03*
X000702Y013936D03*
X001451Y012865D03*
X001702Y009507D03*
X000702Y009507D03*
X001451Y008435D03*
X002702Y009507D03*
X003950Y009507D03*
X004950Y009507D03*
X005950Y009507D03*
X007198Y009507D03*
X008198Y009507D03*
X009198Y009507D03*
X007947Y008435D03*
X010446Y009507D03*
X011446Y009507D03*
X012446Y009507D03*
X013694Y009507D03*
X014694Y009507D03*
X015694Y009507D03*
X014443Y008435D03*
X016942Y009507D03*
X017942Y009507D03*
X018942Y009507D03*
X017691Y008435D03*
X017942Y005078D03*
X016942Y005078D03*
X017691Y004006D03*
X018942Y005078D03*
X015694Y005078D03*
X014694Y005078D03*
X013694Y005078D03*
X014443Y004006D03*
X012446Y005078D03*
X011446Y005078D03*
X010446Y005078D03*
X011195Y004006D03*
X009198Y005078D03*
X008198Y005078D03*
X007198Y005078D03*
X007947Y004006D03*
X005950Y005078D03*
X004950Y005078D03*
X003950Y005078D03*
X004699Y004006D03*
X002702Y005078D03*
X001702Y005078D03*
X000702Y005078D03*
X001451Y004006D03*
X001702Y000649D03*
X000702Y000649D03*
X002702Y000649D03*
X003950Y000649D03*
X004950Y000649D03*
X005950Y000649D03*
X007198Y000649D03*
X008198Y000649D03*
X009198Y000649D03*
X010446Y000649D03*
X011446Y000649D03*
X012446Y000649D03*
X013694Y000649D03*
X014694Y000649D03*
X015694Y000649D03*
X016942Y000649D03*
X017942Y000649D03*
X018942Y000649D03*
X011195Y008435D03*
X004699Y008435D03*
X004699Y017294D03*
X001451Y017294D03*
X007947Y017294D03*
X011195Y017294D03*
D12*
X012285Y016389D02*
X011446Y015549D01*
X011446Y013936D01*
X012285Y011959D02*
X011446Y011120D01*
X011446Y009507D01*
X012285Y007530D02*
X011446Y006691D01*
X011446Y005078D01*
X012285Y003101D02*
X011446Y002262D01*
X011446Y000649D01*
X009037Y003101D02*
X008198Y002262D01*
X008198Y000649D01*
X005789Y003101D02*
X004950Y002262D01*
X004950Y000649D01*
X002541Y003101D02*
X001702Y002262D01*
X001702Y000649D01*
X001702Y005078D02*
X001702Y006691D01*
X002541Y007530D01*
X001702Y009507D02*
X001702Y011120D01*
X002541Y011959D01*
X001702Y013936D02*
X001702Y015549D01*
X002541Y016389D01*
X004950Y015549D02*
X004950Y013936D01*
X004950Y015549D02*
X005789Y016389D01*
X008198Y015549D02*
X009037Y016389D01*
X008198Y015549D02*
X008198Y013936D01*
X009037Y011959D02*
X008198Y011120D01*
X008198Y009507D01*
X009037Y007530D02*
X008198Y006691D01*
X008198Y005078D01*
X005789Y007530D02*
X004950Y006691D01*
X004950Y005078D01*
X004950Y009507D02*
X004950Y011120D01*
X005789Y011959D01*
X014694Y011120D02*
X014694Y009507D01*
X014694Y011120D02*
X015533Y011959D01*
X014694Y013936D02*
X014694Y015549D01*
X015533Y016389D01*
X017942Y015549D02*
X017942Y013936D01*
X017942Y015549D02*
X018781Y016389D01*
X018781Y011959D02*
X017942Y011120D01*
X017942Y009507D01*
X018781Y007530D02*
X017942Y006691D01*
X017942Y005078D01*
X018781Y003101D02*
X017942Y002262D01*
X017942Y000649D01*
X015533Y003101D02*
X014694Y002262D01*
X014694Y000649D01*
X014694Y005078D02*
X014694Y006691D01*
X015533Y007530D01*
D13*
X015533Y007530D03*
X012285Y007530D03*
X009037Y007530D03*
X005789Y007530D03*
X002541Y007530D03*
X002541Y003101D03*
X005789Y003101D03*
X009037Y003101D03*
X012285Y003101D03*
X015533Y003101D03*
X018781Y003101D03*
X018781Y007530D03*
X018781Y011959D03*
X015533Y011959D03*
X012285Y011959D03*
X009037Y011959D03*
X005789Y011959D03*
X002541Y011959D03*
X002541Y016389D03*
X005789Y016389D03*
X009037Y016389D03*
X012285Y016389D03*
X015533Y016389D03*
X018781Y016389D03*
D14*
X018561Y016381D02*
X017792Y015612D01*
X017792Y015487D01*
X017792Y014383D01*
X017676Y014335D01*
X017544Y014203D01*
X017472Y014030D01*
X017472Y013843D01*
X017544Y013670D01*
X017676Y013538D01*
X017844Y013468D01*
X017147Y013468D01*
X017209Y013500D01*
X017274Y013547D01*
X017331Y013604D01*
X017378Y013669D01*
X017415Y013741D01*
X017440Y013817D01*
X017452Y013896D01*
X017452Y013896D01*
X016982Y013896D01*
X016982Y013976D01*
X017452Y013976D01*
X017452Y013976D01*
X017440Y014056D01*
X017415Y014132D01*
X017378Y014204D01*
X017331Y014269D01*
X017274Y014325D01*
X017209Y014373D01*
X017138Y014409D01*
X017062Y014434D01*
X016982Y014446D01*
X016982Y013977D01*
X016902Y013977D01*
X016902Y014446D01*
X016823Y014434D01*
X016746Y014409D01*
X016675Y014373D01*
X016610Y014325D01*
X016553Y014269D01*
X016506Y014204D01*
X016470Y014132D01*
X016445Y014056D01*
X016432Y013976D01*
X016902Y013976D01*
X016902Y013896D01*
X016432Y013896D01*
X016445Y013817D01*
X016470Y013741D01*
X016506Y013669D01*
X016553Y013604D01*
X016610Y013547D01*
X016675Y013500D01*
X016737Y013468D01*
X016421Y013468D01*
X016421Y017719D01*
X017409Y017719D01*
X017359Y017683D01*
X017302Y017626D01*
X017255Y017561D01*
X017219Y017489D01*
X017194Y017413D01*
X017181Y017334D01*
X017181Y017334D01*
X017651Y017334D01*
X017651Y017254D01*
X017181Y017254D01*
X017181Y017254D01*
X017194Y017174D01*
X017219Y017098D01*
X017255Y017026D01*
X017302Y016961D01*
X017359Y016905D01*
X017424Y016857D01*
X017496Y016821D01*
X017572Y016796D01*
X017651Y016784D01*
X017651Y016784D01*
X017651Y017253D01*
X017731Y017253D01*
X017731Y016784D01*
X017731Y016784D01*
X017811Y016796D01*
X017887Y016821D01*
X017959Y016857D01*
X018024Y016905D01*
X018080Y016961D01*
X018127Y017026D01*
X018164Y017098D01*
X018189Y017174D01*
X018201Y017254D01*
X017731Y017254D01*
X017731Y017334D01*
X018201Y017334D01*
X018189Y017413D01*
X018164Y017489D01*
X018127Y017561D01*
X018080Y017626D01*
X018024Y017683D01*
X017973Y017719D01*
X019391Y017719D01*
X019391Y014081D01*
X019341Y014203D01*
X019208Y014335D01*
X019036Y014406D01*
X018849Y014406D01*
X018676Y014335D01*
X018544Y014203D01*
X018472Y014030D01*
X018472Y013843D01*
X018544Y013670D01*
X018676Y013538D01*
X018844Y013468D01*
X018041Y013468D01*
X018208Y013538D01*
X018341Y013670D01*
X018412Y013843D01*
X018412Y014030D01*
X018341Y014203D01*
X018208Y014335D01*
X018092Y014383D01*
X018092Y015487D01*
X018773Y016169D01*
X018872Y016169D01*
X019001Y016297D01*
X019001Y016480D01*
X018872Y016608D01*
X018690Y016608D01*
X018561Y016480D01*
X018561Y016381D01*
X018561Y016400D02*
X016421Y016400D01*
X016421Y016478D02*
X018561Y016478D01*
X018638Y016557D02*
X016421Y016557D01*
X016421Y016635D02*
X019391Y016635D01*
X019391Y016557D02*
X018924Y016557D01*
X019001Y016478D02*
X019391Y016478D01*
X019391Y016400D02*
X019001Y016400D01*
X019001Y016321D02*
X019391Y016321D01*
X019391Y016242D02*
X018946Y016242D01*
X018769Y016164D02*
X019391Y016164D01*
X019391Y016085D02*
X018690Y016085D01*
X018612Y016007D02*
X019391Y016007D01*
X019391Y015928D02*
X018533Y015928D01*
X018455Y015850D02*
X019391Y015850D01*
X019391Y015771D02*
X018376Y015771D01*
X018298Y015693D02*
X019391Y015693D01*
X019391Y015614D02*
X018219Y015614D01*
X018140Y015536D02*
X019391Y015536D01*
X019391Y015457D02*
X018092Y015457D01*
X018092Y015379D02*
X019391Y015379D01*
X019391Y015300D02*
X018092Y015300D01*
X018092Y015221D02*
X019391Y015221D01*
X019391Y015143D02*
X018092Y015143D01*
X018092Y015064D02*
X019391Y015064D01*
X019391Y014986D02*
X018092Y014986D01*
X018092Y014907D02*
X019391Y014907D01*
X019391Y014829D02*
X018092Y014829D01*
X018092Y014750D02*
X019391Y014750D01*
X019391Y014672D02*
X018092Y014672D01*
X018092Y014593D02*
X019391Y014593D01*
X019391Y014515D02*
X018092Y014515D01*
X018092Y014436D02*
X019391Y014436D01*
X019391Y014357D02*
X019154Y014357D01*
X019264Y014279D02*
X019391Y014279D01*
X019391Y014200D02*
X019342Y014200D01*
X019374Y014122D02*
X019391Y014122D01*
X018731Y014357D02*
X018154Y014357D01*
X018264Y014279D02*
X018620Y014279D01*
X018543Y014200D02*
X018342Y014200D01*
X018374Y014122D02*
X018510Y014122D01*
X018478Y014043D02*
X018407Y014043D01*
X018412Y013965D02*
X018472Y013965D01*
X018472Y013886D02*
X018412Y013886D01*
X018398Y013808D02*
X018487Y013808D01*
X018519Y013729D02*
X018365Y013729D01*
X018321Y013651D02*
X018563Y013651D01*
X018642Y013572D02*
X018243Y013572D01*
X018101Y013493D02*
X018783Y013493D01*
X019391Y013290D02*
X019391Y009652D01*
X019341Y009773D01*
X019208Y009906D01*
X019036Y009977D01*
X018849Y009977D01*
X018676Y009906D01*
X018544Y009773D01*
X018472Y009601D01*
X018472Y009414D01*
X018544Y009241D01*
X018676Y009109D01*
X018844Y009039D01*
X018041Y009039D01*
X018208Y009109D01*
X018341Y009241D01*
X018412Y009414D01*
X018412Y009601D01*
X018341Y009773D01*
X018208Y009906D01*
X018092Y009954D01*
X018092Y011058D01*
X018773Y011739D01*
X018872Y011739D01*
X019001Y011868D01*
X019001Y012050D01*
X018872Y012179D01*
X018690Y012179D01*
X018561Y012050D01*
X018561Y011951D01*
X017792Y011182D01*
X017792Y011058D01*
X017792Y009954D01*
X017676Y009906D01*
X017544Y009773D01*
X017472Y009601D01*
X017472Y009414D01*
X017544Y009241D01*
X017676Y009109D01*
X017844Y009039D01*
X017147Y009039D01*
X017209Y009071D01*
X017274Y009118D01*
X017331Y009175D01*
X017378Y009240D01*
X017415Y009311D01*
X017440Y009388D01*
X017452Y009467D01*
X017452Y009467D01*
X016982Y009467D01*
X016982Y009547D01*
X017452Y009547D01*
X017452Y009547D01*
X017440Y009627D01*
X017415Y009703D01*
X017378Y009775D01*
X017331Y009839D01*
X017274Y009896D01*
X017209Y009943D01*
X017138Y009980D01*
X017062Y010005D01*
X016982Y010017D01*
X016982Y009547D01*
X016902Y009547D01*
X016902Y009467D01*
X016432Y009467D01*
X016445Y009388D01*
X016470Y009311D01*
X016506Y009240D01*
X016553Y009175D01*
X016610Y009118D01*
X016675Y009071D01*
X016737Y009039D01*
X016421Y009039D01*
X016421Y013290D01*
X017409Y013290D01*
X017359Y013254D01*
X017302Y013197D01*
X017255Y013132D01*
X017219Y013060D01*
X017194Y012984D01*
X017181Y012905D01*
X017181Y012904D01*
X017651Y012904D01*
X017651Y012825D01*
X017181Y012825D01*
X017181Y012824D01*
X017194Y012745D01*
X017219Y012669D01*
X017255Y012597D01*
X017302Y012532D01*
X017359Y012476D01*
X017424Y012428D01*
X017496Y012392D01*
X017572Y012367D01*
X017651Y012355D01*
X017651Y012355D01*
X017651Y012824D01*
X017731Y012824D01*
X017731Y012355D01*
X017731Y012355D01*
X017811Y012367D01*
X017887Y012392D01*
X017959Y012428D01*
X018024Y012476D01*
X018080Y012532D01*
X018127Y012597D01*
X018164Y012669D01*
X018189Y012745D01*
X018201Y012824D01*
X018201Y012825D01*
X017731Y012825D01*
X017731Y012904D01*
X018201Y012904D01*
X018201Y012905D01*
X018189Y012984D01*
X018164Y013060D01*
X018127Y013132D01*
X018080Y013197D01*
X018024Y013254D01*
X017973Y013290D01*
X019391Y013290D01*
X019391Y013258D02*
X018018Y013258D01*
X018093Y013179D02*
X019391Y013179D01*
X019391Y013101D02*
X018143Y013101D01*
X018176Y013022D02*
X019391Y013022D01*
X019391Y012944D02*
X018195Y012944D01*
X018195Y012787D02*
X019391Y012787D01*
X019391Y012865D02*
X017731Y012865D01*
X017731Y012787D02*
X017651Y012787D01*
X017651Y012865D02*
X016421Y012865D01*
X016421Y012787D02*
X017187Y012787D01*
X017206Y012708D02*
X016421Y012708D01*
X016421Y012629D02*
X017239Y012629D01*
X017289Y012551D02*
X016421Y012551D01*
X016421Y012472D02*
X017363Y012472D01*
X017492Y012394D02*
X016421Y012394D01*
X016421Y012315D02*
X019391Y012315D01*
X019391Y012237D02*
X016421Y012237D01*
X016421Y012158D02*
X018669Y012158D01*
X018590Y012080D02*
X016421Y012080D01*
X016421Y012001D02*
X018561Y012001D01*
X018532Y011923D02*
X016421Y011923D01*
X016421Y011844D02*
X018454Y011844D01*
X018375Y011766D02*
X016421Y011766D01*
X016421Y011687D02*
X018297Y011687D01*
X018218Y011608D02*
X016421Y011608D01*
X016421Y011530D02*
X018140Y011530D01*
X018061Y011451D02*
X016421Y011451D01*
X016421Y011373D02*
X017983Y011373D01*
X017904Y011294D02*
X016421Y011294D01*
X016421Y011216D02*
X017825Y011216D01*
X017792Y011137D02*
X016421Y011137D01*
X016421Y011059D02*
X017792Y011059D01*
X017792Y010980D02*
X016421Y010980D01*
X016421Y010902D02*
X017792Y010902D01*
X017792Y010823D02*
X016421Y010823D01*
X016421Y010744D02*
X017792Y010744D01*
X017792Y010666D02*
X016421Y010666D01*
X016421Y010587D02*
X017792Y010587D01*
X017792Y010509D02*
X016421Y010509D01*
X016421Y010430D02*
X017792Y010430D01*
X017792Y010352D02*
X016421Y010352D01*
X016421Y010273D02*
X017792Y010273D01*
X017792Y010195D02*
X016421Y010195D01*
X016421Y010116D02*
X017792Y010116D01*
X017792Y010038D02*
X016421Y010038D01*
X016421Y009959D02*
X016706Y009959D01*
X016675Y009943D02*
X016610Y009896D01*
X016553Y009839D01*
X016506Y009775D01*
X016470Y009703D01*
X016445Y009627D01*
X016432Y009547D01*
X016902Y009547D01*
X016902Y010017D01*
X016823Y010005D01*
X016746Y009980D01*
X016675Y009943D01*
X016594Y009880D02*
X016421Y009880D01*
X016421Y009802D02*
X016526Y009802D01*
X016480Y009723D02*
X016421Y009723D01*
X016421Y009645D02*
X016451Y009645D01*
X016435Y009566D02*
X016421Y009566D01*
X016432Y009547D02*
X016432Y009547D01*
X016421Y009488D02*
X016902Y009488D01*
X016902Y009566D02*
X016982Y009566D01*
X016982Y009488D02*
X017472Y009488D01*
X017472Y009566D02*
X017449Y009566D01*
X017434Y009645D02*
X017491Y009645D01*
X017523Y009723D02*
X017404Y009723D01*
X017358Y009802D02*
X017572Y009802D01*
X017651Y009880D02*
X017290Y009880D01*
X017179Y009959D02*
X017792Y009959D01*
X018092Y009959D02*
X018805Y009959D01*
X018651Y009880D02*
X018234Y009880D01*
X018312Y009802D02*
X018572Y009802D01*
X018523Y009723D02*
X018361Y009723D01*
X018394Y009645D02*
X018491Y009645D01*
X018472Y009566D02*
X018412Y009566D01*
X018412Y009488D02*
X018472Y009488D01*
X018474Y009409D02*
X018410Y009409D01*
X018378Y009331D02*
X018507Y009331D01*
X018539Y009252D02*
X018345Y009252D01*
X018273Y009174D02*
X018611Y009174D01*
X018709Y009095D02*
X018175Y009095D01*
X017975Y008859D02*
X019391Y008859D01*
X019391Y008861D02*
X019391Y005223D01*
X019341Y005344D01*
X019208Y005477D01*
X019036Y005548D01*
X018849Y005548D01*
X018676Y005477D01*
X018544Y005344D01*
X018472Y005172D01*
X018472Y004985D01*
X018544Y004812D01*
X018676Y004680D01*
X018844Y004610D01*
X018041Y004610D01*
X018208Y004680D01*
X018341Y004812D01*
X018412Y004985D01*
X018412Y005172D01*
X018341Y005344D01*
X018208Y005477D01*
X018092Y005525D01*
X018092Y006629D01*
X018773Y007310D01*
X018872Y007310D01*
X019001Y007439D01*
X019001Y007621D01*
X018872Y007750D01*
X018690Y007750D01*
X018561Y007621D01*
X018561Y007522D01*
X017792Y006753D01*
X017792Y006629D01*
X017792Y005525D01*
X017676Y005477D01*
X017544Y005344D01*
X017472Y005172D01*
X017472Y004985D01*
X017544Y004812D01*
X017676Y004680D01*
X017844Y004610D01*
X017147Y004610D01*
X017209Y004642D01*
X017274Y004689D01*
X017331Y004746D01*
X017378Y004811D01*
X017415Y004882D01*
X017440Y004959D01*
X017452Y005038D01*
X017452Y005038D01*
X016982Y005038D01*
X016982Y005118D01*
X016902Y005118D01*
X016902Y005038D01*
X016432Y005038D01*
X016445Y004959D01*
X016470Y004882D01*
X016506Y004811D01*
X016553Y004746D01*
X016610Y004689D01*
X016675Y004642D01*
X016737Y004610D01*
X016421Y004610D01*
X016421Y008861D01*
X017409Y008861D01*
X017359Y008824D01*
X017302Y008768D01*
X017255Y008703D01*
X017219Y008631D01*
X017194Y008555D01*
X017181Y008476D01*
X017181Y008475D01*
X017651Y008475D01*
X017651Y008395D01*
X017731Y008395D01*
X017731Y007925D01*
X017731Y007925D01*
X017811Y007938D01*
X017887Y007963D01*
X017959Y007999D01*
X018024Y008046D01*
X018080Y008103D01*
X018127Y008168D01*
X018164Y008240D01*
X018189Y008316D01*
X018201Y008395D01*
X018201Y008395D01*
X017731Y008395D01*
X017731Y008475D01*
X018201Y008475D01*
X018201Y008476D01*
X018189Y008555D01*
X018164Y008631D01*
X018127Y008703D01*
X018080Y008768D01*
X018024Y008824D01*
X017973Y008861D01*
X019391Y008861D01*
X019391Y008781D02*
X018067Y008781D01*
X018128Y008702D02*
X019391Y008702D01*
X019391Y008624D02*
X018166Y008624D01*
X018190Y008545D02*
X019391Y008545D01*
X019391Y008467D02*
X017731Y008467D01*
X017731Y008388D02*
X017651Y008388D01*
X017651Y008395D02*
X017651Y007925D01*
X017651Y007925D01*
X017572Y007938D01*
X017496Y007963D01*
X017424Y007999D01*
X017359Y008046D01*
X017302Y008103D01*
X017255Y008168D01*
X017219Y008240D01*
X017194Y008316D01*
X017181Y008395D01*
X017181Y008395D01*
X017651Y008395D01*
X017651Y008467D02*
X016421Y008467D01*
X016421Y008545D02*
X017192Y008545D01*
X017216Y008624D02*
X016421Y008624D01*
X016421Y008702D02*
X017255Y008702D01*
X017316Y008781D02*
X016421Y008781D01*
X016421Y008859D02*
X017407Y008859D01*
X017242Y009095D02*
X017709Y009095D01*
X017611Y009174D02*
X017330Y009174D01*
X017385Y009252D02*
X017539Y009252D01*
X017507Y009331D02*
X017421Y009331D01*
X017443Y009409D02*
X017474Y009409D01*
X016982Y009645D02*
X016902Y009645D01*
X016902Y009723D02*
X016982Y009723D01*
X016982Y009802D02*
X016902Y009802D01*
X016902Y009880D02*
X016982Y009880D01*
X016982Y009959D02*
X016902Y009959D01*
X016902Y010017D02*
X016902Y010017D01*
X016982Y010017D02*
X016982Y010017D01*
X016432Y009467D02*
X016432Y009467D01*
X016441Y009409D02*
X016421Y009409D01*
X016421Y009331D02*
X016463Y009331D01*
X016500Y009252D02*
X016421Y009252D01*
X016421Y009174D02*
X016555Y009174D01*
X016642Y009095D02*
X016421Y009095D01*
X016243Y009095D02*
X015927Y009095D01*
X015960Y009109D02*
X015793Y009039D01*
X016243Y009039D01*
X016243Y013290D01*
X014725Y013290D01*
X014776Y013254D01*
X014832Y013197D01*
X014879Y013132D01*
X014916Y013060D01*
X014941Y012984D01*
X014953Y012905D01*
X014953Y012904D01*
X014483Y012904D01*
X014483Y012825D01*
X014953Y012825D01*
X014953Y012824D01*
X014941Y012745D01*
X014916Y012669D01*
X014879Y012597D01*
X014832Y012532D01*
X014776Y012476D01*
X014711Y012428D01*
X014639Y012392D01*
X014563Y012367D01*
X014483Y012355D01*
X014483Y012355D01*
X014483Y012824D01*
X014403Y012824D01*
X014403Y012355D01*
X014403Y012355D01*
X014324Y012367D01*
X014248Y012392D01*
X014176Y012428D01*
X014111Y012476D01*
X014054Y012532D01*
X014007Y012597D01*
X013971Y012669D01*
X013946Y012745D01*
X013933Y012824D01*
X013933Y012825D01*
X014403Y012825D01*
X014403Y012904D01*
X013933Y012904D01*
X013933Y012905D01*
X013946Y012984D01*
X013971Y013060D01*
X014007Y013132D01*
X014054Y013197D01*
X014111Y013254D01*
X014161Y013290D01*
X013173Y013290D01*
X013173Y009039D01*
X013489Y009039D01*
X013427Y009071D01*
X013362Y009118D01*
X013305Y009175D01*
X013258Y009240D01*
X013222Y009311D01*
X013197Y009388D01*
X013184Y009467D01*
X013184Y009467D01*
X013654Y009467D01*
X013654Y009547D01*
X013184Y009547D01*
X013184Y009547D01*
X013197Y009627D01*
X013222Y009703D01*
X013258Y009775D01*
X013305Y009839D01*
X013362Y009896D01*
X013427Y009943D01*
X013498Y009980D01*
X013575Y010005D01*
X013654Y010017D01*
X013654Y010017D01*
X013654Y009547D01*
X013734Y009547D01*
X014204Y009547D01*
X014204Y009547D01*
X014192Y009627D01*
X014167Y009703D01*
X014130Y009775D01*
X014083Y009839D01*
X014026Y009896D01*
X013961Y009943D01*
X013890Y009980D01*
X013814Y010005D01*
X013734Y010017D01*
X013734Y009547D01*
X013734Y009467D01*
X014204Y009467D01*
X014204Y009467D01*
X014192Y009388D01*
X014167Y009311D01*
X014130Y009240D01*
X014083Y009175D01*
X014026Y009118D01*
X013961Y009071D01*
X013899Y009039D01*
X014596Y009039D01*
X014428Y009109D01*
X014296Y009241D01*
X014224Y009414D01*
X014224Y009601D01*
X014296Y009773D01*
X014428Y009906D01*
X014544Y009954D01*
X014544Y011058D01*
X014544Y011182D01*
X015313Y011951D01*
X015313Y012050D01*
X015442Y012179D01*
X015624Y012179D01*
X015753Y012050D01*
X015753Y011868D01*
X015624Y011739D01*
X015525Y011739D01*
X014844Y011058D01*
X014844Y009954D01*
X014960Y009906D01*
X015093Y009773D01*
X015164Y009601D01*
X015164Y009414D01*
X015093Y009241D01*
X014960Y009109D01*
X014793Y009039D01*
X015596Y009039D01*
X015428Y009109D01*
X015296Y009241D01*
X015224Y009414D01*
X015224Y009601D01*
X015296Y009773D01*
X015428Y009906D01*
X015601Y009977D01*
X015788Y009977D01*
X015960Y009906D01*
X016093Y009773D01*
X016164Y009601D01*
X016164Y009414D01*
X016093Y009241D01*
X015960Y009109D01*
X016025Y009174D02*
X016243Y009174D01*
X016243Y009252D02*
X016097Y009252D01*
X016130Y009331D02*
X016243Y009331D01*
X016243Y009409D02*
X016162Y009409D01*
X016164Y009488D02*
X016243Y009488D01*
X016243Y009566D02*
X016164Y009566D01*
X016146Y009645D02*
X016243Y009645D01*
X016243Y009723D02*
X016113Y009723D01*
X016064Y009802D02*
X016243Y009802D01*
X016243Y009880D02*
X015986Y009880D01*
X015832Y009959D02*
X016243Y009959D01*
X016243Y010038D02*
X014844Y010038D01*
X014844Y010116D02*
X016243Y010116D01*
X016243Y010195D02*
X014844Y010195D01*
X014844Y010273D02*
X016243Y010273D01*
X016243Y010352D02*
X014844Y010352D01*
X014844Y010430D02*
X016243Y010430D01*
X016243Y010509D02*
X014844Y010509D01*
X014844Y010587D02*
X016243Y010587D01*
X016243Y010666D02*
X014844Y010666D01*
X014844Y010744D02*
X016243Y010744D01*
X016243Y010823D02*
X014844Y010823D01*
X014844Y010902D02*
X016243Y010902D01*
X016243Y010980D02*
X014844Y010980D01*
X014845Y011059D02*
X016243Y011059D01*
X016243Y011137D02*
X014923Y011137D01*
X015002Y011216D02*
X016243Y011216D01*
X016243Y011294D02*
X015080Y011294D01*
X015159Y011373D02*
X016243Y011373D01*
X016243Y011451D02*
X015237Y011451D01*
X015316Y011530D02*
X016243Y011530D01*
X016243Y011608D02*
X015394Y011608D01*
X015473Y011687D02*
X016243Y011687D01*
X016243Y011766D02*
X015650Y011766D01*
X015729Y011844D02*
X016243Y011844D01*
X016243Y011923D02*
X015753Y011923D01*
X015753Y012001D02*
X016243Y012001D01*
X016243Y012080D02*
X015724Y012080D01*
X015645Y012158D02*
X016243Y012158D01*
X016243Y012237D02*
X013173Y012237D01*
X013173Y012315D02*
X016243Y012315D01*
X016243Y012394D02*
X014643Y012394D01*
X014771Y012472D02*
X016243Y012472D01*
X016243Y012551D02*
X014846Y012551D01*
X014896Y012629D02*
X016243Y012629D01*
X016243Y012708D02*
X014929Y012708D01*
X014947Y012787D02*
X016243Y012787D01*
X016243Y012865D02*
X014483Y012865D01*
X014483Y012787D02*
X014403Y012787D01*
X014403Y012865D02*
X013173Y012865D01*
X013173Y012787D02*
X013939Y012787D01*
X013958Y012708D02*
X013173Y012708D01*
X013173Y012629D02*
X013991Y012629D01*
X014041Y012551D02*
X013173Y012551D01*
X013173Y012472D02*
X014115Y012472D01*
X014244Y012394D02*
X013173Y012394D01*
X012995Y012394D02*
X011395Y012394D01*
X011391Y012392D02*
X011463Y012428D01*
X011527Y012476D01*
X011584Y012532D01*
X011631Y012597D01*
X011668Y012669D01*
X011693Y012745D01*
X011705Y012824D01*
X011705Y012825D01*
X011235Y012825D01*
X011235Y012904D01*
X011705Y012904D01*
X011705Y012905D01*
X011693Y012984D01*
X011668Y013060D01*
X011631Y013132D01*
X011584Y013197D01*
X011527Y013254D01*
X011477Y013290D01*
X012995Y013290D01*
X012995Y009039D01*
X012545Y009039D01*
X012712Y009109D01*
X012845Y009241D01*
X012916Y009414D01*
X012916Y009601D01*
X012845Y009773D01*
X012712Y009906D01*
X012540Y009977D01*
X012353Y009977D01*
X012180Y009906D01*
X012048Y009773D01*
X011976Y009601D01*
X011976Y009414D01*
X012048Y009241D01*
X012180Y009109D01*
X012348Y009039D01*
X011545Y009039D01*
X011712Y009109D01*
X011845Y009241D01*
X011916Y009414D01*
X011916Y009601D01*
X011845Y009773D01*
X011712Y009906D01*
X011596Y009954D01*
X011596Y011058D01*
X012277Y011739D01*
X012376Y011739D01*
X012505Y011868D01*
X012505Y012050D01*
X012376Y012179D01*
X012194Y012179D01*
X012065Y012050D01*
X012065Y011951D01*
X011296Y011182D01*
X011296Y011058D01*
X011296Y009954D01*
X011180Y009906D01*
X011048Y009773D01*
X010976Y009601D01*
X010976Y009414D01*
X011048Y009241D01*
X011180Y009109D01*
X011348Y009039D01*
X010651Y009039D01*
X010713Y009071D01*
X010778Y009118D01*
X010835Y009175D01*
X010882Y009240D01*
X010919Y009311D01*
X010944Y009388D01*
X010956Y009467D01*
X010956Y009467D01*
X010486Y009467D01*
X010486Y009547D01*
X010956Y009547D01*
X010956Y009547D01*
X010944Y009627D01*
X010919Y009703D01*
X010882Y009775D01*
X010835Y009839D01*
X010778Y009896D01*
X010713Y009943D01*
X010642Y009980D01*
X010566Y010005D01*
X010486Y010017D01*
X010486Y009547D01*
X010406Y009547D01*
X010406Y009467D01*
X009936Y009467D01*
X009949Y009388D01*
X009974Y009311D01*
X010010Y009240D01*
X010057Y009175D01*
X010114Y009118D01*
X010179Y009071D01*
X010241Y009039D01*
X009925Y009039D01*
X009925Y013290D01*
X010913Y013290D01*
X010863Y013254D01*
X010806Y013197D01*
X010759Y013132D01*
X010723Y013060D01*
X010698Y012984D01*
X010685Y012905D01*
X010685Y012904D01*
X011155Y012904D01*
X011155Y012825D01*
X010685Y012825D01*
X010685Y012824D01*
X010698Y012745D01*
X010723Y012669D01*
X010759Y012597D01*
X010806Y012532D01*
X010863Y012476D01*
X010928Y012428D01*
X010999Y012392D01*
X011076Y012367D01*
X011155Y012355D01*
X011155Y012355D01*
X011155Y012824D01*
X011235Y012824D01*
X011235Y012355D01*
X011235Y012355D01*
X011315Y012367D01*
X011391Y012392D01*
X011523Y012472D02*
X012995Y012472D01*
X012995Y012551D02*
X011598Y012551D01*
X011648Y012629D02*
X012995Y012629D01*
X012995Y012708D02*
X011681Y012708D01*
X011699Y012787D02*
X012995Y012787D01*
X012995Y012865D02*
X011235Y012865D01*
X011235Y012787D02*
X011155Y012787D01*
X011155Y012865D02*
X009925Y012865D01*
X009925Y012787D02*
X010691Y012787D01*
X010710Y012708D02*
X009925Y012708D01*
X009925Y012629D02*
X010743Y012629D01*
X010793Y012551D02*
X009925Y012551D01*
X009925Y012472D02*
X010867Y012472D01*
X010996Y012394D02*
X009925Y012394D01*
X009925Y012315D02*
X012995Y012315D01*
X012995Y012237D02*
X009925Y012237D01*
X009925Y012158D02*
X012173Y012158D01*
X012094Y012080D02*
X009925Y012080D01*
X009925Y012001D02*
X012065Y012001D01*
X012036Y011923D02*
X009925Y011923D01*
X009925Y011844D02*
X011958Y011844D01*
X011879Y011766D02*
X009925Y011766D01*
X009925Y011687D02*
X011801Y011687D01*
X011722Y011608D02*
X009925Y011608D01*
X009925Y011530D02*
X011644Y011530D01*
X011565Y011451D02*
X009925Y011451D01*
X009925Y011373D02*
X011487Y011373D01*
X011408Y011294D02*
X009925Y011294D01*
X009925Y011216D02*
X011329Y011216D01*
X011296Y011137D02*
X009925Y011137D01*
X009925Y011059D02*
X011296Y011059D01*
X011296Y010980D02*
X009925Y010980D01*
X009925Y010902D02*
X011296Y010902D01*
X011296Y010823D02*
X009925Y010823D01*
X009925Y010744D02*
X011296Y010744D01*
X011296Y010666D02*
X009925Y010666D01*
X009925Y010587D02*
X011296Y010587D01*
X011296Y010509D02*
X009925Y010509D01*
X009925Y010430D02*
X011296Y010430D01*
X011296Y010352D02*
X009925Y010352D01*
X009925Y010273D02*
X011296Y010273D01*
X011296Y010195D02*
X009925Y010195D01*
X009925Y010116D02*
X011296Y010116D01*
X011296Y010038D02*
X009925Y010038D01*
X009925Y009959D02*
X010209Y009959D01*
X010179Y009943D02*
X010114Y009896D01*
X010057Y009839D01*
X010010Y009775D01*
X009974Y009703D01*
X009949Y009627D01*
X009936Y009547D01*
X010406Y009547D01*
X010406Y010017D01*
X010327Y010005D01*
X010250Y009980D01*
X010179Y009943D01*
X010098Y009880D02*
X009925Y009880D01*
X009925Y009802D02*
X010030Y009802D01*
X009984Y009723D02*
X009925Y009723D01*
X009925Y009645D02*
X009955Y009645D01*
X009939Y009566D02*
X009925Y009566D01*
X009936Y009547D02*
X009936Y009547D01*
X009925Y009488D02*
X010406Y009488D01*
X010406Y009566D02*
X010486Y009566D01*
X010486Y009488D02*
X010976Y009488D01*
X010976Y009566D02*
X010953Y009566D01*
X010938Y009645D02*
X010994Y009645D01*
X011027Y009723D02*
X010908Y009723D01*
X010862Y009802D02*
X011076Y009802D01*
X011155Y009880D02*
X010794Y009880D01*
X010683Y009959D02*
X011296Y009959D01*
X011596Y009959D02*
X012309Y009959D01*
X012155Y009880D02*
X011738Y009880D01*
X011816Y009802D02*
X012076Y009802D01*
X012027Y009723D02*
X011865Y009723D01*
X011898Y009645D02*
X011994Y009645D01*
X011976Y009566D02*
X011916Y009566D01*
X011916Y009488D02*
X011976Y009488D01*
X011978Y009409D02*
X011914Y009409D01*
X011882Y009331D02*
X012011Y009331D01*
X012043Y009252D02*
X011849Y009252D01*
X011777Y009174D02*
X012115Y009174D01*
X012213Y009095D02*
X011679Y009095D01*
X011479Y008859D02*
X012995Y008859D01*
X012995Y008861D02*
X012995Y004610D01*
X012545Y004610D01*
X012712Y004680D01*
X012845Y004812D01*
X012916Y004985D01*
X012916Y005172D01*
X012845Y005344D01*
X012712Y005477D01*
X012540Y005548D01*
X012353Y005548D01*
X012180Y005477D01*
X012048Y005344D01*
X011976Y005172D01*
X011976Y004985D01*
X012048Y004812D01*
X012180Y004680D01*
X012348Y004610D01*
X011545Y004610D01*
X011712Y004680D01*
X011845Y004812D01*
X011916Y004985D01*
X011916Y005172D01*
X011845Y005344D01*
X011712Y005477D01*
X011596Y005525D01*
X011596Y006629D01*
X012277Y007310D01*
X012376Y007310D01*
X012505Y007439D01*
X012505Y007621D01*
X012376Y007750D01*
X012194Y007750D01*
X012065Y007621D01*
X012065Y007522D01*
X011296Y006753D01*
X011296Y006629D01*
X011296Y005525D01*
X011180Y005477D01*
X011048Y005344D01*
X010976Y005172D01*
X010976Y004985D01*
X011048Y004812D01*
X011180Y004680D01*
X011348Y004610D01*
X010651Y004610D01*
X010713Y004642D01*
X010778Y004689D01*
X010835Y004746D01*
X010882Y004811D01*
X010919Y004882D01*
X010944Y004959D01*
X010956Y005038D01*
X010956Y005038D01*
X010486Y005038D01*
X010486Y005118D01*
X010406Y005118D01*
X010406Y005038D01*
X009936Y005038D01*
X009949Y004959D01*
X009974Y004882D01*
X010010Y004811D01*
X010057Y004746D01*
X010114Y004689D01*
X010179Y004642D01*
X010241Y004610D01*
X009925Y004610D01*
X009925Y008861D01*
X010913Y008861D01*
X010863Y008824D01*
X010806Y008768D01*
X010759Y008703D01*
X010723Y008631D01*
X010698Y008555D01*
X010685Y008476D01*
X010685Y008475D01*
X011155Y008475D01*
X011155Y008395D01*
X011235Y008395D01*
X011235Y007925D01*
X011235Y007925D01*
X011315Y007938D01*
X011391Y007963D01*
X011463Y007999D01*
X011527Y008046D01*
X011584Y008103D01*
X011631Y008168D01*
X011668Y008240D01*
X011693Y008316D01*
X011705Y008395D01*
X011705Y008395D01*
X011235Y008395D01*
X011235Y008475D01*
X011705Y008475D01*
X011705Y008476D01*
X011693Y008555D01*
X011668Y008631D01*
X011631Y008703D01*
X011584Y008768D01*
X011527Y008824D01*
X011477Y008861D01*
X012995Y008861D01*
X012995Y008781D02*
X011571Y008781D01*
X011632Y008702D02*
X012995Y008702D01*
X012995Y008624D02*
X011670Y008624D01*
X011694Y008545D02*
X012995Y008545D01*
X012995Y008467D02*
X011235Y008467D01*
X011235Y008388D02*
X011155Y008388D01*
X011155Y008395D02*
X011155Y007925D01*
X011155Y007925D01*
X011076Y007938D01*
X010999Y007963D01*
X010928Y007999D01*
X010863Y008046D01*
X010806Y008103D01*
X010759Y008168D01*
X010723Y008240D01*
X010698Y008316D01*
X010685Y008395D01*
X010685Y008395D01*
X011155Y008395D01*
X011155Y008467D02*
X009925Y008467D01*
X009925Y008545D02*
X010696Y008545D01*
X010720Y008624D02*
X009925Y008624D01*
X009925Y008702D02*
X010759Y008702D01*
X010820Y008781D02*
X009925Y008781D01*
X009925Y008859D02*
X010911Y008859D01*
X010746Y009095D02*
X011213Y009095D01*
X011115Y009174D02*
X010834Y009174D01*
X010888Y009252D02*
X011043Y009252D01*
X011011Y009331D02*
X010925Y009331D01*
X010947Y009409D02*
X010978Y009409D01*
X010486Y009645D02*
X010406Y009645D01*
X010406Y009723D02*
X010486Y009723D01*
X010486Y009802D02*
X010406Y009802D01*
X010406Y009880D02*
X010486Y009880D01*
X010486Y009959D02*
X010406Y009959D01*
X010406Y010017D02*
X010406Y010017D01*
X010486Y010017D02*
X010486Y010017D01*
X009936Y009467D02*
X009936Y009467D01*
X009945Y009409D02*
X009925Y009409D01*
X009925Y009331D02*
X009967Y009331D01*
X010004Y009252D02*
X009925Y009252D01*
X009925Y009174D02*
X010059Y009174D01*
X010146Y009095D02*
X009925Y009095D01*
X009747Y009095D02*
X009431Y009095D01*
X009464Y009109D02*
X009297Y009039D01*
X009747Y009039D01*
X009747Y013290D01*
X008229Y013290D01*
X008279Y013254D01*
X008336Y013197D01*
X008383Y013132D01*
X008420Y013060D01*
X008445Y012984D01*
X008457Y012905D01*
X008457Y012904D01*
X007987Y012904D01*
X007987Y012825D01*
X008457Y012825D01*
X008457Y012824D01*
X008445Y012745D01*
X008420Y012669D01*
X008383Y012597D01*
X008336Y012532D01*
X008279Y012476D01*
X008215Y012428D01*
X008143Y012392D01*
X008067Y012367D01*
X007987Y012355D01*
X007987Y012355D01*
X007987Y012824D01*
X007907Y012824D01*
X007907Y012355D01*
X007907Y012355D01*
X007828Y012367D01*
X007751Y012392D01*
X007680Y012428D01*
X007615Y012476D01*
X007558Y012532D01*
X007511Y012597D01*
X007475Y012669D01*
X007450Y012745D01*
X007437Y012824D01*
X007437Y012825D01*
X007907Y012825D01*
X007907Y012904D01*
X007437Y012904D01*
X007437Y012905D01*
X007450Y012984D01*
X007475Y013060D01*
X007511Y013132D01*
X007558Y013197D01*
X007615Y013254D01*
X007665Y013290D01*
X006677Y013290D01*
X006677Y009039D01*
X006993Y009039D01*
X006931Y009071D01*
X006866Y009118D01*
X006809Y009175D01*
X006762Y009240D01*
X006725Y009311D01*
X006701Y009388D01*
X006688Y009467D01*
X006688Y009467D01*
X007158Y009467D01*
X007158Y009547D01*
X006688Y009547D01*
X006688Y009547D01*
X006701Y009627D01*
X006725Y009703D01*
X006762Y009775D01*
X006809Y009839D01*
X006866Y009896D01*
X006931Y009943D01*
X007002Y009980D01*
X007079Y010005D01*
X007158Y010017D01*
X007158Y010017D01*
X007158Y009547D01*
X007238Y009547D01*
X007708Y009547D01*
X007708Y009547D01*
X007696Y009627D01*
X007671Y009703D01*
X007634Y009775D01*
X007587Y009839D01*
X007530Y009896D01*
X007465Y009943D01*
X007394Y009980D01*
X007318Y010005D01*
X007238Y010017D01*
X007238Y009547D01*
X007238Y009467D01*
X007708Y009467D01*
X007708Y009467D01*
X007696Y009388D01*
X007671Y009311D01*
X007634Y009240D01*
X007587Y009175D01*
X007530Y009118D01*
X007465Y009071D01*
X007403Y009039D01*
X008100Y009039D01*
X007932Y009109D01*
X007800Y009241D01*
X007728Y009414D01*
X007728Y009601D01*
X007800Y009773D01*
X007932Y009906D01*
X008048Y009954D01*
X008048Y011058D01*
X008048Y011182D01*
X008817Y011951D01*
X008817Y012050D01*
X008946Y012179D01*
X009128Y012179D01*
X009257Y012050D01*
X009257Y011868D01*
X009128Y011739D01*
X009029Y011739D01*
X008348Y011058D01*
X008348Y009954D01*
X008464Y009906D01*
X008597Y009773D01*
X008668Y009601D01*
X008668Y009414D01*
X008597Y009241D01*
X008464Y009109D01*
X008297Y009039D01*
X009100Y009039D01*
X008932Y009109D01*
X008800Y009241D01*
X008728Y009414D01*
X008728Y009601D01*
X008800Y009773D01*
X008932Y009906D01*
X009105Y009977D01*
X009292Y009977D01*
X009464Y009906D01*
X009597Y009773D01*
X009668Y009601D01*
X009668Y009414D01*
X009597Y009241D01*
X009464Y009109D01*
X009529Y009174D02*
X009747Y009174D01*
X009747Y009252D02*
X009601Y009252D01*
X009634Y009331D02*
X009747Y009331D01*
X009747Y009409D02*
X009666Y009409D01*
X009668Y009488D02*
X009747Y009488D01*
X009747Y009566D02*
X009668Y009566D01*
X009650Y009645D02*
X009747Y009645D01*
X009747Y009723D02*
X009617Y009723D01*
X009568Y009802D02*
X009747Y009802D01*
X009747Y009880D02*
X009490Y009880D01*
X009336Y009959D02*
X009747Y009959D01*
X009747Y010038D02*
X008348Y010038D01*
X008348Y010116D02*
X009747Y010116D01*
X009747Y010195D02*
X008348Y010195D01*
X008348Y010273D02*
X009747Y010273D01*
X009747Y010352D02*
X008348Y010352D01*
X008348Y010430D02*
X009747Y010430D01*
X009747Y010509D02*
X008348Y010509D01*
X008348Y010587D02*
X009747Y010587D01*
X009747Y010666D02*
X008348Y010666D01*
X008348Y010744D02*
X009747Y010744D01*
X009747Y010823D02*
X008348Y010823D01*
X008348Y010902D02*
X009747Y010902D01*
X009747Y010980D02*
X008348Y010980D01*
X008349Y011059D02*
X009747Y011059D01*
X009747Y011137D02*
X008427Y011137D01*
X008506Y011216D02*
X009747Y011216D01*
X009747Y011294D02*
X008584Y011294D01*
X008663Y011373D02*
X009747Y011373D01*
X009747Y011451D02*
X008741Y011451D01*
X008820Y011530D02*
X009747Y011530D01*
X009747Y011608D02*
X008898Y011608D01*
X008977Y011687D02*
X009747Y011687D01*
X009747Y011766D02*
X009154Y011766D01*
X009233Y011844D02*
X009747Y011844D01*
X009747Y011923D02*
X009257Y011923D01*
X009257Y012001D02*
X009747Y012001D01*
X009747Y012080D02*
X009228Y012080D01*
X009149Y012158D02*
X009747Y012158D01*
X009747Y012237D02*
X006677Y012237D01*
X006677Y012315D02*
X009747Y012315D01*
X009747Y012394D02*
X008147Y012394D01*
X008275Y012472D02*
X009747Y012472D01*
X009747Y012551D02*
X008350Y012551D01*
X008400Y012629D02*
X009747Y012629D01*
X009747Y012708D02*
X008433Y012708D01*
X008451Y012787D02*
X009747Y012787D01*
X009747Y012865D02*
X007987Y012865D01*
X007987Y012787D02*
X007907Y012787D01*
X007907Y012865D02*
X006677Y012865D01*
X006677Y012787D02*
X007443Y012787D01*
X007462Y012708D02*
X006677Y012708D01*
X006677Y012629D02*
X007495Y012629D01*
X007545Y012551D02*
X006677Y012551D01*
X006677Y012472D02*
X007619Y012472D01*
X007748Y012394D02*
X006677Y012394D01*
X006499Y012394D02*
X004899Y012394D01*
X004895Y012392D02*
X004966Y012428D01*
X005031Y012476D01*
X005088Y012532D01*
X005135Y012597D01*
X005172Y012669D01*
X005197Y012745D01*
X005209Y012824D01*
X005209Y012825D01*
X004739Y012825D01*
X004739Y012904D01*
X005209Y012904D01*
X005209Y012905D01*
X005197Y012984D01*
X005172Y013060D01*
X005135Y013132D01*
X005088Y013197D01*
X005031Y013254D01*
X004981Y013290D01*
X006499Y013290D01*
X006499Y009039D01*
X006049Y009039D01*
X006216Y009109D01*
X006349Y009241D01*
X006420Y009414D01*
X006420Y009601D01*
X006349Y009773D01*
X006216Y009906D01*
X006044Y009977D01*
X005857Y009977D01*
X005684Y009906D01*
X005552Y009773D01*
X005480Y009601D01*
X005480Y009414D01*
X005552Y009241D01*
X005684Y009109D01*
X005852Y009039D01*
X005049Y009039D01*
X005216Y009109D01*
X005349Y009241D01*
X005420Y009414D01*
X005420Y009601D01*
X005349Y009773D01*
X005216Y009906D01*
X005100Y009954D01*
X005100Y011058D01*
X005781Y011739D01*
X005880Y011739D01*
X006009Y011868D01*
X006009Y012050D01*
X005880Y012179D01*
X005698Y012179D01*
X005569Y012050D01*
X005569Y011951D01*
X004800Y011182D01*
X004800Y011058D01*
X004800Y009954D01*
X004684Y009906D01*
X004552Y009773D01*
X004480Y009601D01*
X004480Y009414D01*
X004552Y009241D01*
X004684Y009109D01*
X004852Y009039D01*
X004155Y009039D01*
X004217Y009071D01*
X004282Y009118D01*
X004339Y009175D01*
X004386Y009240D01*
X004423Y009311D01*
X004447Y009388D01*
X004460Y009467D01*
X004460Y009467D01*
X003990Y009467D01*
X003990Y009547D01*
X004460Y009547D01*
X004460Y009547D01*
X004447Y009627D01*
X004423Y009703D01*
X004386Y009775D01*
X004339Y009839D01*
X004282Y009896D01*
X004217Y009943D01*
X004146Y009980D01*
X004069Y010005D01*
X003990Y010017D01*
X003990Y009547D01*
X003910Y009547D01*
X003910Y009467D01*
X003440Y009467D01*
X003453Y009388D01*
X003477Y009311D01*
X003514Y009240D01*
X003561Y009175D01*
X003618Y009118D01*
X003683Y009071D01*
X003745Y009039D01*
X003429Y009039D01*
X003429Y013290D01*
X004417Y013290D01*
X004367Y013254D01*
X004310Y013197D01*
X004263Y013132D01*
X004227Y013060D01*
X004202Y012984D01*
X004189Y012905D01*
X004189Y012904D01*
X004659Y012904D01*
X004659Y012825D01*
X004189Y012825D01*
X004189Y012824D01*
X004202Y012745D01*
X004227Y012669D01*
X004263Y012597D01*
X004310Y012532D01*
X004367Y012476D01*
X004432Y012428D01*
X004503Y012392D01*
X004580Y012367D01*
X004659Y012355D01*
X004659Y012355D01*
X004659Y012824D01*
X004739Y012824D01*
X004739Y012355D01*
X004739Y012355D01*
X004819Y012367D01*
X004895Y012392D01*
X005027Y012472D02*
X006499Y012472D01*
X006499Y012551D02*
X005102Y012551D01*
X005152Y012629D02*
X006499Y012629D01*
X006499Y012708D02*
X005185Y012708D01*
X005203Y012787D02*
X006499Y012787D01*
X006499Y012865D02*
X004739Y012865D01*
X004739Y012787D02*
X004659Y012787D01*
X004659Y012865D02*
X003429Y012865D01*
X003429Y012787D02*
X004195Y012787D01*
X004214Y012708D02*
X003429Y012708D01*
X003429Y012629D02*
X004247Y012629D01*
X004297Y012551D02*
X003429Y012551D01*
X003429Y012472D02*
X004371Y012472D01*
X004500Y012394D02*
X003429Y012394D01*
X003429Y012315D02*
X006499Y012315D01*
X006499Y012237D02*
X003429Y012237D01*
X003429Y012158D02*
X005677Y012158D01*
X005598Y012080D02*
X003429Y012080D01*
X003429Y012001D02*
X005569Y012001D01*
X005540Y011923D02*
X003429Y011923D01*
X003429Y011844D02*
X005462Y011844D01*
X005383Y011766D02*
X003429Y011766D01*
X003429Y011687D02*
X005305Y011687D01*
X005226Y011608D02*
X003429Y011608D01*
X003429Y011530D02*
X005148Y011530D01*
X005069Y011451D02*
X003429Y011451D01*
X003429Y011373D02*
X004990Y011373D01*
X004912Y011294D02*
X003429Y011294D01*
X003429Y011216D02*
X004833Y011216D01*
X004800Y011137D02*
X003429Y011137D01*
X003429Y011059D02*
X004800Y011059D01*
X004800Y010980D02*
X003429Y010980D01*
X003429Y010902D02*
X004800Y010902D01*
X004800Y010823D02*
X003429Y010823D01*
X003429Y010744D02*
X004800Y010744D01*
X004800Y010666D02*
X003429Y010666D01*
X003429Y010587D02*
X004800Y010587D01*
X004800Y010509D02*
X003429Y010509D01*
X003429Y010430D02*
X004800Y010430D01*
X004800Y010352D02*
X003429Y010352D01*
X003429Y010273D02*
X004800Y010273D01*
X004800Y010195D02*
X003429Y010195D01*
X003429Y010116D02*
X004800Y010116D01*
X004800Y010038D02*
X003429Y010038D01*
X003429Y009959D02*
X003713Y009959D01*
X003683Y009943D02*
X003618Y009896D01*
X003561Y009839D01*
X003514Y009775D01*
X003477Y009703D01*
X003453Y009627D01*
X003440Y009547D01*
X003910Y009547D01*
X003910Y010017D01*
X003831Y010005D01*
X003754Y009980D01*
X003683Y009943D01*
X003602Y009880D02*
X003429Y009880D01*
X003429Y009802D02*
X003534Y009802D01*
X003488Y009723D02*
X003429Y009723D01*
X003429Y009645D02*
X003459Y009645D01*
X003443Y009566D02*
X003429Y009566D01*
X003440Y009547D02*
X003440Y009547D01*
X003429Y009488D02*
X003910Y009488D01*
X003910Y009566D02*
X003990Y009566D01*
X003990Y009488D02*
X004480Y009488D01*
X004480Y009566D02*
X004457Y009566D01*
X004442Y009645D02*
X004498Y009645D01*
X004531Y009723D02*
X004412Y009723D01*
X004366Y009802D02*
X004580Y009802D01*
X004659Y009880D02*
X004298Y009880D01*
X004187Y009959D02*
X004800Y009959D01*
X005100Y009959D02*
X005813Y009959D01*
X005659Y009880D02*
X005241Y009880D01*
X005320Y009802D02*
X005580Y009802D01*
X005531Y009723D02*
X005369Y009723D01*
X005402Y009645D02*
X005498Y009645D01*
X005480Y009566D02*
X005420Y009566D01*
X005420Y009488D02*
X005480Y009488D01*
X005482Y009409D02*
X005418Y009409D01*
X005386Y009331D02*
X005514Y009331D01*
X005547Y009252D02*
X005353Y009252D01*
X005281Y009174D02*
X005619Y009174D01*
X005717Y009095D02*
X005183Y009095D01*
X004983Y008859D02*
X006499Y008859D01*
X006499Y008861D02*
X006499Y004610D01*
X006049Y004610D01*
X006216Y004680D01*
X006349Y004812D01*
X006420Y004985D01*
X006420Y005172D01*
X006349Y005344D01*
X006216Y005477D01*
X006044Y005548D01*
X005857Y005548D01*
X005684Y005477D01*
X005552Y005344D01*
X005480Y005172D01*
X005480Y004985D01*
X005552Y004812D01*
X005684Y004680D01*
X005852Y004610D01*
X005049Y004610D01*
X005216Y004680D01*
X005349Y004812D01*
X005420Y004985D01*
X005420Y005172D01*
X005349Y005344D01*
X005216Y005477D01*
X005100Y005525D01*
X005100Y006629D01*
X005781Y007310D01*
X005880Y007310D01*
X006009Y007439D01*
X006009Y007621D01*
X005880Y007750D01*
X005698Y007750D01*
X005569Y007621D01*
X005569Y007522D01*
X004800Y006753D01*
X004800Y006629D01*
X004800Y005525D01*
X004684Y005477D01*
X004552Y005344D01*
X004480Y005172D01*
X004480Y004985D01*
X004552Y004812D01*
X004684Y004680D01*
X004852Y004610D01*
X004155Y004610D01*
X004217Y004642D01*
X004282Y004689D01*
X004339Y004746D01*
X004386Y004811D01*
X004423Y004882D01*
X004447Y004959D01*
X004460Y005038D01*
X004460Y005038D01*
X003990Y005038D01*
X003990Y005118D01*
X004460Y005118D01*
X004460Y005118D01*
X004447Y005198D01*
X004423Y005274D01*
X004386Y005345D01*
X004339Y005410D01*
X004282Y005467D01*
X004217Y005514D01*
X004146Y005551D01*
X004069Y005576D01*
X003990Y005588D01*
X003990Y005118D01*
X003910Y005118D01*
X003910Y005038D01*
X003440Y005038D01*
X003453Y004959D01*
X003477Y004882D01*
X003514Y004811D01*
X003561Y004746D01*
X003618Y004689D01*
X003683Y004642D01*
X003745Y004610D01*
X003429Y004610D01*
X003429Y008861D01*
X004417Y008861D01*
X004367Y008824D01*
X004310Y008768D01*
X004263Y008703D01*
X004227Y008631D01*
X004202Y008555D01*
X004189Y008476D01*
X004189Y008475D01*
X004659Y008475D01*
X004659Y008395D01*
X004739Y008395D01*
X004739Y007925D01*
X004739Y007925D01*
X004819Y007938D01*
X004895Y007963D01*
X004966Y007999D01*
X005031Y008046D01*
X005088Y008103D01*
X005135Y008168D01*
X005172Y008240D01*
X005197Y008316D01*
X005209Y008395D01*
X005209Y008395D01*
X004739Y008395D01*
X004739Y008475D01*
X005209Y008475D01*
X005209Y008476D01*
X005197Y008555D01*
X005172Y008631D01*
X005135Y008703D01*
X005088Y008768D01*
X005031Y008824D01*
X004981Y008861D01*
X006499Y008861D01*
X006499Y008781D02*
X005075Y008781D01*
X005136Y008702D02*
X006499Y008702D01*
X006499Y008624D02*
X005174Y008624D01*
X005198Y008545D02*
X006499Y008545D01*
X006499Y008467D02*
X004739Y008467D01*
X004739Y008388D02*
X004659Y008388D01*
X004659Y008395D02*
X004659Y007925D01*
X004659Y007925D01*
X004580Y007938D01*
X004503Y007963D01*
X004432Y007999D01*
X004367Y008046D01*
X004310Y008103D01*
X004263Y008168D01*
X004227Y008240D01*
X004202Y008316D01*
X004189Y008395D01*
X004189Y008395D01*
X004659Y008395D01*
X004659Y008467D02*
X003429Y008467D01*
X003429Y008545D02*
X004200Y008545D01*
X004224Y008624D02*
X003429Y008624D01*
X003429Y008702D02*
X004263Y008702D01*
X004323Y008781D02*
X003429Y008781D01*
X003429Y008859D02*
X004415Y008859D01*
X004250Y009095D02*
X004717Y009095D01*
X004619Y009174D02*
X004338Y009174D01*
X004392Y009252D02*
X004547Y009252D01*
X004514Y009331D02*
X004429Y009331D01*
X004451Y009409D02*
X004482Y009409D01*
X003990Y009645D02*
X003910Y009645D01*
X003910Y009723D02*
X003990Y009723D01*
X003990Y009802D02*
X003910Y009802D01*
X003910Y009880D02*
X003990Y009880D01*
X003990Y009959D02*
X003910Y009959D01*
X003910Y010017D02*
X003910Y010017D01*
X003990Y010017D02*
X003990Y010017D01*
X003440Y009467D02*
X003440Y009467D01*
X003449Y009409D02*
X003429Y009409D01*
X003429Y009331D02*
X003471Y009331D01*
X003508Y009252D02*
X003429Y009252D01*
X003429Y009174D02*
X003562Y009174D01*
X003650Y009095D02*
X003429Y009095D01*
X003251Y009095D02*
X002935Y009095D01*
X002968Y009109D02*
X002800Y009039D01*
X003251Y009039D01*
X003251Y013290D01*
X001733Y013290D01*
X001783Y013254D01*
X001840Y013197D01*
X001887Y013132D01*
X001924Y013060D01*
X001949Y012984D01*
X001961Y012905D01*
X001961Y012904D01*
X001491Y012904D01*
X001491Y012825D01*
X001961Y012825D01*
X001961Y012824D01*
X001949Y012745D01*
X001924Y012669D01*
X001887Y012597D01*
X001840Y012532D01*
X001783Y012476D01*
X001718Y012428D01*
X001647Y012392D01*
X001571Y012367D01*
X001491Y012355D01*
X001491Y012355D01*
X001491Y012824D01*
X001411Y012824D01*
X001411Y012355D01*
X001411Y012355D01*
X001332Y012367D01*
X001255Y012392D01*
X001184Y012428D01*
X001119Y012476D01*
X001062Y012532D01*
X001015Y012597D01*
X000979Y012669D01*
X000954Y012745D01*
X000941Y012824D01*
X000941Y012825D01*
X001411Y012825D01*
X001411Y012904D01*
X000941Y012904D01*
X000941Y012905D01*
X000954Y012984D01*
X000979Y013060D01*
X001015Y013132D01*
X001062Y013197D01*
X001119Y013254D01*
X001169Y013290D01*
X000281Y013290D01*
X000281Y009795D01*
X000313Y009839D01*
X000370Y009896D01*
X000435Y009943D01*
X000506Y009980D01*
X000583Y010005D01*
X000662Y010017D01*
X000662Y010017D01*
X000662Y009547D01*
X000742Y009547D01*
X001212Y009547D01*
X001212Y009547D01*
X001199Y009627D01*
X001175Y009703D01*
X001138Y009775D01*
X001091Y009839D01*
X001034Y009896D01*
X000969Y009943D01*
X000898Y009980D01*
X000821Y010005D01*
X000742Y010017D01*
X000742Y009547D01*
X000742Y009467D01*
X001212Y009467D01*
X001212Y009467D01*
X001199Y009388D01*
X001175Y009311D01*
X001138Y009240D01*
X001091Y009175D01*
X001034Y009118D01*
X000969Y009071D01*
X000907Y009039D01*
X001604Y009039D01*
X001436Y009109D01*
X001304Y009241D01*
X001232Y009414D01*
X001232Y009601D01*
X001304Y009773D01*
X001436Y009906D01*
X001552Y009954D01*
X001552Y011058D01*
X001552Y011182D01*
X002321Y011951D01*
X002321Y012050D01*
X002450Y012179D01*
X002632Y012179D01*
X002761Y012050D01*
X002761Y011868D01*
X002632Y011739D01*
X002533Y011739D01*
X001852Y011058D01*
X001852Y009954D01*
X001968Y009906D01*
X002100Y009773D01*
X002172Y009601D01*
X002172Y009414D01*
X002100Y009241D01*
X001968Y009109D01*
X001800Y009039D01*
X002604Y009039D01*
X002436Y009109D01*
X002304Y009241D01*
X002232Y009414D01*
X002232Y009601D01*
X002304Y009773D01*
X002436Y009906D01*
X002609Y009977D01*
X002796Y009977D01*
X002968Y009906D01*
X003100Y009773D01*
X003172Y009601D01*
X003172Y009414D01*
X003100Y009241D01*
X002968Y009109D01*
X003033Y009174D02*
X003251Y009174D01*
X003251Y009252D02*
X003105Y009252D01*
X003138Y009331D02*
X003251Y009331D01*
X003251Y009409D02*
X003170Y009409D01*
X003172Y009488D02*
X003251Y009488D01*
X003251Y009566D02*
X003172Y009566D01*
X003154Y009645D02*
X003251Y009645D01*
X003251Y009723D02*
X003121Y009723D01*
X003072Y009802D02*
X003251Y009802D01*
X003251Y009880D02*
X002993Y009880D01*
X002839Y009959D02*
X003251Y009959D01*
X003251Y010038D02*
X001852Y010038D01*
X001852Y010116D02*
X003251Y010116D01*
X003251Y010195D02*
X001852Y010195D01*
X001852Y010273D02*
X003251Y010273D01*
X003251Y010352D02*
X001852Y010352D01*
X001852Y010430D02*
X003251Y010430D01*
X003251Y010509D02*
X001852Y010509D01*
X001852Y010587D02*
X003251Y010587D01*
X003251Y010666D02*
X001852Y010666D01*
X001852Y010744D02*
X003251Y010744D01*
X003251Y010823D02*
X001852Y010823D01*
X001852Y010902D02*
X003251Y010902D01*
X003251Y010980D02*
X001852Y010980D01*
X001852Y011059D02*
X003251Y011059D01*
X003251Y011137D02*
X001931Y011137D01*
X002010Y011216D02*
X003251Y011216D01*
X003251Y011294D02*
X002088Y011294D01*
X002167Y011373D02*
X003251Y011373D01*
X003251Y011451D02*
X002245Y011451D01*
X002324Y011530D02*
X003251Y011530D01*
X003251Y011608D02*
X002402Y011608D01*
X002481Y011687D02*
X003251Y011687D01*
X003251Y011766D02*
X002658Y011766D01*
X002737Y011844D02*
X003251Y011844D01*
X003251Y011923D02*
X002761Y011923D01*
X002761Y012001D02*
X003251Y012001D01*
X003251Y012080D02*
X002732Y012080D01*
X002653Y012158D02*
X003251Y012158D01*
X003251Y012237D02*
X000281Y012237D01*
X000281Y012315D02*
X003251Y012315D01*
X003251Y012394D02*
X001651Y012394D01*
X001779Y012472D02*
X003251Y012472D01*
X003251Y012551D02*
X001854Y012551D01*
X001904Y012629D02*
X003251Y012629D01*
X003251Y012708D02*
X001937Y012708D01*
X001955Y012787D02*
X003251Y012787D01*
X003251Y012865D02*
X001491Y012865D01*
X001491Y012787D02*
X001411Y012787D01*
X001411Y012865D02*
X000281Y012865D01*
X000281Y012787D02*
X000947Y012787D01*
X000966Y012708D02*
X000281Y012708D01*
X000281Y012629D02*
X000999Y012629D01*
X001049Y012551D02*
X000281Y012551D01*
X000281Y012472D02*
X001123Y012472D01*
X001251Y012394D02*
X000281Y012394D01*
X000281Y012158D02*
X002429Y012158D01*
X002350Y012080D02*
X000281Y012080D01*
X000281Y012001D02*
X002321Y012001D01*
X002292Y011923D02*
X000281Y011923D01*
X000281Y011844D02*
X002214Y011844D01*
X002135Y011766D02*
X000281Y011766D01*
X000281Y011687D02*
X002057Y011687D01*
X001978Y011608D02*
X000281Y011608D01*
X000281Y011530D02*
X001899Y011530D01*
X001821Y011451D02*
X000281Y011451D01*
X000281Y011373D02*
X001742Y011373D01*
X001664Y011294D02*
X000281Y011294D01*
X000281Y011216D02*
X001585Y011216D01*
X001552Y011137D02*
X000281Y011137D01*
X000281Y011059D02*
X001552Y011059D01*
X001552Y010980D02*
X000281Y010980D01*
X000281Y010902D02*
X001552Y010902D01*
X001552Y010823D02*
X000281Y010823D01*
X000281Y010744D02*
X001552Y010744D01*
X001552Y010666D02*
X000281Y010666D01*
X000281Y010587D02*
X001552Y010587D01*
X001552Y010509D02*
X000281Y010509D01*
X000281Y010430D02*
X001552Y010430D01*
X001552Y010352D02*
X000281Y010352D01*
X000281Y010273D02*
X001552Y010273D01*
X001552Y010195D02*
X000281Y010195D01*
X000281Y010116D02*
X001552Y010116D01*
X001552Y010038D02*
X000281Y010038D01*
X000281Y009959D02*
X000465Y009959D01*
X000354Y009880D02*
X000281Y009880D01*
X000281Y009802D02*
X000286Y009802D01*
X000662Y009802D02*
X000742Y009802D01*
X000742Y009880D02*
X000662Y009880D01*
X000662Y009959D02*
X000742Y009959D01*
X000742Y010017D02*
X000742Y010017D01*
X000939Y009959D02*
X001552Y009959D01*
X001411Y009880D02*
X001050Y009880D01*
X001118Y009802D02*
X001332Y009802D01*
X001283Y009723D02*
X001164Y009723D01*
X001194Y009645D02*
X001250Y009645D01*
X001232Y009566D02*
X001209Y009566D01*
X001232Y009488D02*
X000742Y009488D01*
X000742Y009566D02*
X000662Y009566D01*
X000662Y009645D02*
X000742Y009645D01*
X000742Y009723D02*
X000662Y009723D01*
X001144Y009252D02*
X001299Y009252D01*
X001266Y009331D02*
X001181Y009331D01*
X001203Y009409D02*
X001234Y009409D01*
X001371Y009174D02*
X001090Y009174D01*
X001002Y009095D02*
X001469Y009095D01*
X001733Y008861D02*
X003251Y008861D01*
X003251Y004610D01*
X002800Y004610D01*
X002968Y004680D01*
X003100Y004812D01*
X003172Y004985D01*
X003172Y005172D01*
X003100Y005344D01*
X002968Y005477D01*
X002796Y005548D01*
X002609Y005548D01*
X002436Y005477D01*
X002304Y005344D01*
X002232Y005172D01*
X002232Y004985D01*
X002304Y004812D01*
X002436Y004680D01*
X002604Y004610D01*
X001800Y004610D01*
X001968Y004680D01*
X002100Y004812D01*
X002172Y004985D01*
X002172Y005172D01*
X002100Y005344D01*
X001968Y005477D01*
X001852Y005525D01*
X001852Y006629D01*
X002533Y007310D01*
X002632Y007310D01*
X002761Y007439D01*
X002761Y007621D01*
X002632Y007750D01*
X002450Y007750D01*
X002321Y007621D01*
X002321Y007522D01*
X001552Y006753D01*
X001552Y006629D01*
X001552Y005525D01*
X001436Y005477D01*
X001304Y005344D01*
X001232Y005172D01*
X001232Y004985D01*
X001304Y004812D01*
X001436Y004680D01*
X001604Y004610D01*
X000907Y004610D01*
X000969Y004642D01*
X001034Y004689D01*
X001091Y004746D01*
X001138Y004811D01*
X001175Y004882D01*
X001199Y004959D01*
X001212Y005038D01*
X001212Y005038D01*
X000742Y005038D01*
X000742Y005118D01*
X001212Y005118D01*
X001212Y005118D01*
X001199Y005198D01*
X001175Y005274D01*
X001138Y005345D01*
X001091Y005410D01*
X001034Y005467D01*
X000969Y005514D01*
X000898Y005551D01*
X000821Y005576D01*
X000742Y005588D01*
X000742Y005118D01*
X000662Y005118D01*
X000662Y005588D01*
X000662Y005588D01*
X000583Y005576D01*
X000506Y005551D01*
X000435Y005514D01*
X000370Y005467D01*
X000313Y005410D01*
X000281Y005366D01*
X000281Y008861D01*
X001169Y008861D01*
X001119Y008824D01*
X001062Y008768D01*
X001015Y008703D01*
X000979Y008631D01*
X000954Y008555D01*
X000941Y008476D01*
X000941Y008475D01*
X001411Y008475D01*
X001411Y008395D01*
X001491Y008395D01*
X001491Y007925D01*
X001491Y007925D01*
X001571Y007938D01*
X001647Y007963D01*
X001718Y007999D01*
X001783Y008046D01*
X001840Y008103D01*
X001887Y008168D01*
X001924Y008240D01*
X001949Y008316D01*
X001961Y008395D01*
X001961Y008395D01*
X001491Y008395D01*
X001491Y008475D01*
X001961Y008475D01*
X001961Y008476D01*
X001949Y008555D01*
X001924Y008631D01*
X001887Y008703D01*
X001840Y008768D01*
X001783Y008824D01*
X001733Y008861D01*
X001735Y008859D02*
X003251Y008859D01*
X003251Y008781D02*
X001827Y008781D01*
X001888Y008702D02*
X003251Y008702D01*
X003251Y008624D02*
X001926Y008624D01*
X001950Y008545D02*
X003251Y008545D01*
X003251Y008467D02*
X001491Y008467D01*
X001491Y008388D02*
X001411Y008388D01*
X001411Y008395D02*
X001411Y007925D01*
X001411Y007925D01*
X001332Y007938D01*
X001255Y007963D01*
X001184Y007999D01*
X001119Y008046D01*
X001062Y008103D01*
X001015Y008168D01*
X000979Y008240D01*
X000954Y008316D01*
X000941Y008395D01*
X000941Y008395D01*
X001411Y008395D01*
X001411Y008467D02*
X000281Y008467D01*
X000281Y008545D02*
X000952Y008545D01*
X000976Y008624D02*
X000281Y008624D01*
X000281Y008702D02*
X001015Y008702D01*
X001075Y008781D02*
X000281Y008781D01*
X000281Y008859D02*
X001167Y008859D01*
X000942Y008388D02*
X000281Y008388D01*
X000281Y008310D02*
X000956Y008310D01*
X000983Y008231D02*
X000281Y008231D01*
X000281Y008153D02*
X001026Y008153D01*
X001091Y008074D02*
X000281Y008074D01*
X000281Y007995D02*
X001191Y007995D01*
X001411Y007995D02*
X001491Y007995D01*
X001491Y008074D02*
X001411Y008074D01*
X001411Y008153D02*
X001491Y008153D01*
X001491Y008231D02*
X001411Y008231D01*
X001411Y008310D02*
X001491Y008310D01*
X001711Y007995D02*
X003251Y007995D01*
X003251Y007917D02*
X000281Y007917D01*
X000281Y007838D02*
X003251Y007838D01*
X003251Y007760D02*
X000281Y007760D01*
X000281Y007681D02*
X002381Y007681D01*
X002321Y007603D02*
X000281Y007603D01*
X000281Y007524D02*
X002321Y007524D01*
X002244Y007446D02*
X000281Y007446D01*
X000281Y007367D02*
X002166Y007367D01*
X002087Y007289D02*
X000281Y007289D01*
X000281Y007210D02*
X002009Y007210D01*
X001930Y007131D02*
X000281Y007131D01*
X000281Y007053D02*
X001852Y007053D01*
X001773Y006974D02*
X000281Y006974D01*
X000281Y006896D02*
X001695Y006896D01*
X001616Y006817D02*
X000281Y006817D01*
X000281Y006739D02*
X001552Y006739D01*
X001552Y006660D02*
X000281Y006660D01*
X000281Y006582D02*
X001552Y006582D01*
X001552Y006503D02*
X000281Y006503D01*
X000281Y006425D02*
X001552Y006425D01*
X001552Y006346D02*
X000281Y006346D01*
X000281Y006267D02*
X001552Y006267D01*
X001552Y006189D02*
X000281Y006189D01*
X000281Y006110D02*
X001552Y006110D01*
X001552Y006032D02*
X000281Y006032D01*
X000281Y005953D02*
X001552Y005953D01*
X001552Y005875D02*
X000281Y005875D01*
X000281Y005796D02*
X001552Y005796D01*
X001552Y005718D02*
X000281Y005718D01*
X000281Y005639D02*
X001552Y005639D01*
X001552Y005561D02*
X000867Y005561D01*
X000742Y005561D02*
X000662Y005561D01*
X000662Y005482D02*
X000742Y005482D01*
X000742Y005404D02*
X000662Y005404D01*
X000662Y005325D02*
X000742Y005325D01*
X000742Y005246D02*
X000662Y005246D01*
X000662Y005168D02*
X000742Y005168D01*
X000742Y005089D02*
X001232Y005089D01*
X001232Y005011D02*
X001208Y005011D01*
X001191Y004932D02*
X001254Y004932D01*
X001286Y004854D02*
X001160Y004854D01*
X001112Y004775D02*
X001340Y004775D01*
X001419Y004697D02*
X001042Y004697D01*
X000922Y004618D02*
X001585Y004618D01*
X001819Y004618D02*
X002585Y004618D01*
X002419Y004697D02*
X001985Y004697D01*
X002064Y004775D02*
X002340Y004775D01*
X002286Y004854D02*
X002118Y004854D01*
X002150Y004932D02*
X002254Y004932D01*
X002232Y005011D02*
X002172Y005011D01*
X002172Y005089D02*
X002232Y005089D01*
X002232Y005168D02*
X002172Y005168D01*
X002141Y005246D02*
X002263Y005246D01*
X002296Y005325D02*
X002109Y005325D01*
X002041Y005404D02*
X002363Y005404D01*
X002449Y005482D02*
X001955Y005482D01*
X001852Y005561D02*
X003251Y005561D01*
X003251Y005639D02*
X001852Y005639D01*
X001852Y005718D02*
X003251Y005718D01*
X003251Y005796D02*
X001852Y005796D01*
X001852Y005875D02*
X003251Y005875D01*
X003251Y005953D02*
X001852Y005953D01*
X001852Y006032D02*
X003251Y006032D01*
X003251Y006110D02*
X001852Y006110D01*
X001852Y006189D02*
X003251Y006189D01*
X003251Y006267D02*
X001852Y006267D01*
X001852Y006346D02*
X003251Y006346D01*
X003251Y006425D02*
X001852Y006425D01*
X001852Y006503D02*
X003251Y006503D01*
X003251Y006582D02*
X001852Y006582D01*
X001883Y006660D02*
X003251Y006660D01*
X003251Y006739D02*
X001962Y006739D01*
X002040Y006817D02*
X003251Y006817D01*
X003251Y006896D02*
X002119Y006896D01*
X002197Y006974D02*
X003251Y006974D01*
X003251Y007053D02*
X002276Y007053D01*
X002354Y007131D02*
X003251Y007131D01*
X003251Y007210D02*
X002433Y007210D01*
X002512Y007289D02*
X003251Y007289D01*
X003251Y007367D02*
X002689Y007367D01*
X002761Y007446D02*
X003251Y007446D01*
X003251Y007524D02*
X002761Y007524D01*
X002761Y007603D02*
X003251Y007603D01*
X003251Y007681D02*
X002701Y007681D01*
X003251Y008074D02*
X001811Y008074D01*
X001876Y008153D02*
X003251Y008153D01*
X003251Y008231D02*
X001919Y008231D01*
X001946Y008310D02*
X003251Y008310D01*
X003251Y008388D02*
X001960Y008388D01*
X001935Y009095D02*
X002469Y009095D01*
X002371Y009174D02*
X002033Y009174D01*
X002105Y009252D02*
X002299Y009252D01*
X002266Y009331D02*
X002138Y009331D01*
X002170Y009409D02*
X002234Y009409D01*
X002232Y009488D02*
X002172Y009488D01*
X002172Y009566D02*
X002232Y009566D01*
X002250Y009645D02*
X002154Y009645D01*
X002121Y009723D02*
X002283Y009723D01*
X002332Y009802D02*
X002072Y009802D01*
X001993Y009880D02*
X002411Y009880D01*
X002565Y009959D02*
X001852Y009959D01*
X003429Y008388D02*
X004190Y008388D01*
X004204Y008310D02*
X003429Y008310D01*
X003429Y008231D02*
X004231Y008231D01*
X004274Y008153D02*
X003429Y008153D01*
X003429Y008074D02*
X004339Y008074D01*
X004439Y007995D02*
X003429Y007995D01*
X003429Y007917D02*
X006499Y007917D01*
X006499Y007995D02*
X004959Y007995D01*
X005059Y008074D02*
X006499Y008074D01*
X006499Y008153D02*
X005124Y008153D01*
X005167Y008231D02*
X006499Y008231D01*
X006499Y008310D02*
X005195Y008310D01*
X005208Y008388D02*
X006499Y008388D01*
X006677Y008388D02*
X007438Y008388D01*
X007437Y008395D02*
X007450Y008316D01*
X007475Y008240D01*
X007511Y008168D01*
X007558Y008103D01*
X007615Y008046D01*
X007680Y007999D01*
X007751Y007963D01*
X007828Y007938D01*
X007907Y007925D01*
X007907Y007925D01*
X007907Y008395D01*
X007987Y008395D01*
X007987Y007925D01*
X007987Y007925D01*
X008067Y007938D01*
X008143Y007963D01*
X008215Y007999D01*
X008279Y008046D01*
X008336Y008103D01*
X008383Y008168D01*
X008420Y008240D01*
X008445Y008316D01*
X008457Y008395D01*
X008457Y008395D01*
X007987Y008395D01*
X007987Y008475D01*
X008457Y008475D01*
X008457Y008476D01*
X008445Y008555D01*
X008420Y008631D01*
X008383Y008703D01*
X008336Y008768D01*
X008279Y008824D01*
X008229Y008861D01*
X009747Y008861D01*
X009747Y004610D01*
X009296Y004610D01*
X009464Y004680D01*
X009597Y004812D01*
X009668Y004985D01*
X009668Y005172D01*
X009597Y005344D01*
X009464Y005477D01*
X009292Y005548D01*
X009105Y005548D01*
X008932Y005477D01*
X008800Y005344D01*
X008728Y005172D01*
X008728Y004985D01*
X008800Y004812D01*
X008932Y004680D01*
X009100Y004610D01*
X008296Y004610D01*
X008464Y004680D01*
X008597Y004812D01*
X008668Y004985D01*
X008668Y005172D01*
X008597Y005344D01*
X008464Y005477D01*
X008348Y005525D01*
X008348Y006629D01*
X009029Y007310D01*
X009128Y007310D01*
X009257Y007439D01*
X009257Y007621D01*
X009128Y007750D01*
X008946Y007750D01*
X008817Y007621D01*
X008817Y007522D01*
X008048Y006753D01*
X008048Y006629D01*
X008048Y005525D01*
X007932Y005477D01*
X007800Y005344D01*
X007728Y005172D01*
X007728Y004985D01*
X007800Y004812D01*
X007932Y004680D01*
X008100Y004610D01*
X007403Y004610D01*
X007465Y004642D01*
X007530Y004689D01*
X007587Y004746D01*
X007634Y004811D01*
X007671Y004882D01*
X007696Y004959D01*
X007708Y005038D01*
X007708Y005038D01*
X007238Y005038D01*
X007238Y005118D01*
X007708Y005118D01*
X007708Y005118D01*
X007696Y005198D01*
X007671Y005274D01*
X007634Y005345D01*
X007587Y005410D01*
X007530Y005467D01*
X007465Y005514D01*
X007394Y005551D01*
X007318Y005576D01*
X007238Y005588D01*
X007238Y005118D01*
X007158Y005118D01*
X007158Y005038D01*
X006688Y005038D01*
X006701Y004959D01*
X006725Y004882D01*
X006762Y004811D01*
X006809Y004746D01*
X006866Y004689D01*
X006931Y004642D01*
X006993Y004610D01*
X006677Y004610D01*
X006677Y008861D01*
X007665Y008861D01*
X007615Y008824D01*
X007558Y008768D01*
X007511Y008703D01*
X007475Y008631D01*
X007450Y008555D01*
X007437Y008476D01*
X007437Y008475D01*
X007907Y008475D01*
X007907Y008395D01*
X007437Y008395D01*
X007437Y008395D01*
X007452Y008310D02*
X006677Y008310D01*
X006677Y008231D02*
X007479Y008231D01*
X007522Y008153D02*
X006677Y008153D01*
X006677Y008074D02*
X007587Y008074D01*
X007687Y007995D02*
X006677Y007995D01*
X006677Y007917D02*
X009747Y007917D01*
X009747Y007995D02*
X008207Y007995D01*
X008307Y008074D02*
X009747Y008074D01*
X009747Y008153D02*
X008372Y008153D01*
X008415Y008231D02*
X009747Y008231D01*
X009747Y008310D02*
X008443Y008310D01*
X008456Y008388D02*
X009747Y008388D01*
X009747Y008467D02*
X007987Y008467D01*
X007987Y008388D02*
X007907Y008388D01*
X007907Y008310D02*
X007987Y008310D01*
X007987Y008231D02*
X007907Y008231D01*
X007907Y008153D02*
X007987Y008153D01*
X007987Y008074D02*
X007907Y008074D01*
X007907Y007995D02*
X007987Y007995D01*
X007907Y008467D02*
X006677Y008467D01*
X006677Y008545D02*
X007448Y008545D01*
X007472Y008624D02*
X006677Y008624D01*
X006677Y008702D02*
X007511Y008702D01*
X007571Y008781D02*
X006677Y008781D01*
X006677Y008859D02*
X007663Y008859D01*
X007498Y009095D02*
X007965Y009095D01*
X007867Y009174D02*
X007586Y009174D01*
X007640Y009252D02*
X007795Y009252D01*
X007762Y009331D02*
X007677Y009331D01*
X007699Y009409D02*
X007730Y009409D01*
X007728Y009488D02*
X007238Y009488D01*
X007238Y009566D02*
X007158Y009566D01*
X007158Y009488D02*
X006677Y009488D01*
X006677Y009566D02*
X006691Y009566D01*
X006677Y009645D02*
X006707Y009645D01*
X006677Y009723D02*
X006736Y009723D01*
X006782Y009802D02*
X006677Y009802D01*
X006677Y009880D02*
X006850Y009880D01*
X006961Y009959D02*
X006677Y009959D01*
X006677Y010038D02*
X008048Y010038D01*
X008048Y010116D02*
X006677Y010116D01*
X006677Y010195D02*
X008048Y010195D01*
X008048Y010273D02*
X006677Y010273D01*
X006677Y010352D02*
X008048Y010352D01*
X008048Y010430D02*
X006677Y010430D01*
X006677Y010509D02*
X008048Y010509D01*
X008048Y010587D02*
X006677Y010587D01*
X006677Y010666D02*
X008048Y010666D01*
X008048Y010744D02*
X006677Y010744D01*
X006677Y010823D02*
X008048Y010823D01*
X008048Y010902D02*
X006677Y010902D01*
X006677Y010980D02*
X008048Y010980D01*
X008048Y011059D02*
X006677Y011059D01*
X006677Y011137D02*
X008048Y011137D01*
X008081Y011216D02*
X006677Y011216D01*
X006677Y011294D02*
X008160Y011294D01*
X008238Y011373D02*
X006677Y011373D01*
X006677Y011451D02*
X008317Y011451D01*
X008396Y011530D02*
X006677Y011530D01*
X006677Y011608D02*
X008474Y011608D01*
X008553Y011687D02*
X006677Y011687D01*
X006677Y011766D02*
X008631Y011766D01*
X008710Y011844D02*
X006677Y011844D01*
X006677Y011923D02*
X008788Y011923D01*
X008817Y012001D02*
X006677Y012001D01*
X006677Y012080D02*
X008846Y012080D01*
X008925Y012158D02*
X006677Y012158D01*
X006499Y012158D02*
X005901Y012158D01*
X005980Y012080D02*
X006499Y012080D01*
X006499Y012001D02*
X006009Y012001D01*
X006009Y011923D02*
X006499Y011923D01*
X006499Y011844D02*
X005985Y011844D01*
X005906Y011766D02*
X006499Y011766D01*
X006499Y011687D02*
X005729Y011687D01*
X005650Y011608D02*
X006499Y011608D01*
X006499Y011530D02*
X005572Y011530D01*
X005493Y011451D02*
X006499Y011451D01*
X006499Y011373D02*
X005415Y011373D01*
X005336Y011294D02*
X006499Y011294D01*
X006499Y011216D02*
X005258Y011216D01*
X005179Y011137D02*
X006499Y011137D01*
X006499Y011059D02*
X005101Y011059D01*
X005100Y010980D02*
X006499Y010980D01*
X006499Y010902D02*
X005100Y010902D01*
X005100Y010823D02*
X006499Y010823D01*
X006499Y010744D02*
X005100Y010744D01*
X005100Y010666D02*
X006499Y010666D01*
X006499Y010587D02*
X005100Y010587D01*
X005100Y010509D02*
X006499Y010509D01*
X006499Y010430D02*
X005100Y010430D01*
X005100Y010352D02*
X006499Y010352D01*
X006499Y010273D02*
X005100Y010273D01*
X005100Y010195D02*
X006499Y010195D01*
X006499Y010116D02*
X005100Y010116D01*
X005100Y010038D02*
X006499Y010038D01*
X006499Y009959D02*
X006087Y009959D01*
X006241Y009880D02*
X006499Y009880D01*
X006499Y009802D02*
X006320Y009802D01*
X006369Y009723D02*
X006499Y009723D01*
X006499Y009645D02*
X006402Y009645D01*
X006420Y009566D02*
X006499Y009566D01*
X006499Y009488D02*
X006420Y009488D01*
X006418Y009409D02*
X006499Y009409D01*
X006499Y009331D02*
X006386Y009331D01*
X006353Y009252D02*
X006499Y009252D01*
X006499Y009174D02*
X006281Y009174D01*
X006183Y009095D02*
X006499Y009095D01*
X006677Y009095D02*
X006898Y009095D01*
X006811Y009174D02*
X006677Y009174D01*
X006677Y009252D02*
X006756Y009252D01*
X006719Y009331D02*
X006677Y009331D01*
X006677Y009409D02*
X006697Y009409D01*
X007158Y009645D02*
X007238Y009645D01*
X007238Y009723D02*
X007158Y009723D01*
X007158Y009802D02*
X007238Y009802D01*
X007238Y009880D02*
X007158Y009880D01*
X007158Y009959D02*
X007238Y009959D01*
X007238Y010017D02*
X007238Y010017D01*
X007435Y009959D02*
X008048Y009959D01*
X007907Y009880D02*
X007546Y009880D01*
X007614Y009802D02*
X007828Y009802D01*
X007779Y009723D02*
X007660Y009723D01*
X007690Y009645D02*
X007746Y009645D01*
X007728Y009566D02*
X007705Y009566D01*
X008348Y009959D02*
X009061Y009959D01*
X008907Y009880D02*
X008490Y009880D01*
X008568Y009802D02*
X008828Y009802D01*
X008779Y009723D02*
X008617Y009723D01*
X008650Y009645D02*
X008746Y009645D01*
X008728Y009566D02*
X008668Y009566D01*
X008668Y009488D02*
X008728Y009488D01*
X008730Y009409D02*
X008666Y009409D01*
X008634Y009331D02*
X008762Y009331D01*
X008795Y009252D02*
X008601Y009252D01*
X008529Y009174D02*
X008867Y009174D01*
X008965Y009095D02*
X008431Y009095D01*
X008231Y008859D02*
X009747Y008859D01*
X009747Y008781D02*
X008323Y008781D01*
X008384Y008702D02*
X009747Y008702D01*
X009747Y008624D02*
X008422Y008624D01*
X008446Y008545D02*
X009747Y008545D01*
X009925Y008388D02*
X010686Y008388D01*
X010700Y008310D02*
X009925Y008310D01*
X009925Y008231D02*
X010727Y008231D01*
X010770Y008153D02*
X009925Y008153D01*
X009925Y008074D02*
X010835Y008074D01*
X010935Y007995D02*
X009925Y007995D01*
X009925Y007917D02*
X012995Y007917D01*
X012995Y007995D02*
X011455Y007995D01*
X011555Y008074D02*
X012995Y008074D01*
X012995Y008153D02*
X011620Y008153D01*
X011664Y008231D02*
X012995Y008231D01*
X012995Y008310D02*
X011691Y008310D01*
X011704Y008388D02*
X012995Y008388D01*
X013173Y008388D02*
X013934Y008388D01*
X013933Y008395D02*
X013946Y008316D01*
X013971Y008240D01*
X014007Y008168D01*
X014054Y008103D01*
X014111Y008046D01*
X014176Y007999D01*
X014248Y007963D01*
X014324Y007938D01*
X014403Y007925D01*
X014403Y007925D01*
X014403Y008395D01*
X014483Y008395D01*
X014483Y007925D01*
X014483Y007925D01*
X014563Y007938D01*
X014639Y007963D01*
X014711Y007999D01*
X014776Y008046D01*
X014832Y008103D01*
X014879Y008168D01*
X014916Y008240D01*
X014941Y008316D01*
X014953Y008395D01*
X014953Y008395D01*
X014483Y008395D01*
X014483Y008475D01*
X014953Y008475D01*
X014953Y008476D01*
X014941Y008555D01*
X014916Y008631D01*
X014879Y008703D01*
X014832Y008768D01*
X014776Y008824D01*
X014725Y008861D01*
X016243Y008861D01*
X016243Y004610D01*
X015793Y004610D01*
X015960Y004680D01*
X016093Y004812D01*
X016164Y004985D01*
X016164Y005172D01*
X016093Y005344D01*
X015960Y005477D01*
X015788Y005548D01*
X015601Y005548D01*
X015428Y005477D01*
X015296Y005344D01*
X015224Y005172D01*
X015224Y004985D01*
X015296Y004812D01*
X015428Y004680D01*
X015596Y004610D01*
X014793Y004610D01*
X014960Y004680D01*
X015093Y004812D01*
X015164Y004985D01*
X015164Y005172D01*
X015093Y005344D01*
X014960Y005477D01*
X014844Y005525D01*
X014844Y006629D01*
X015525Y007310D01*
X015624Y007310D01*
X015753Y007439D01*
X015753Y007621D01*
X015624Y007750D01*
X015442Y007750D01*
X015313Y007621D01*
X015313Y007522D01*
X014544Y006753D01*
X014544Y006629D01*
X014544Y005525D01*
X014428Y005477D01*
X014296Y005344D01*
X014224Y005172D01*
X014224Y004985D01*
X014296Y004812D01*
X014428Y004680D01*
X014596Y004610D01*
X013899Y004610D01*
X013961Y004642D01*
X014026Y004689D01*
X014083Y004746D01*
X014130Y004811D01*
X014167Y004882D01*
X014192Y004959D01*
X014204Y005038D01*
X014204Y005038D01*
X013734Y005038D01*
X013734Y005118D01*
X013654Y005118D01*
X013654Y005038D01*
X013184Y005038D01*
X013197Y004959D01*
X013222Y004882D01*
X013258Y004811D01*
X013305Y004746D01*
X013362Y004689D01*
X013427Y004642D01*
X013489Y004610D01*
X013173Y004610D01*
X013173Y008861D01*
X014161Y008861D01*
X014111Y008824D01*
X014054Y008768D01*
X014007Y008703D01*
X013971Y008631D01*
X013946Y008555D01*
X013933Y008476D01*
X013933Y008475D01*
X014403Y008475D01*
X014403Y008395D01*
X013933Y008395D01*
X013933Y008395D01*
X013948Y008310D02*
X013173Y008310D01*
X013173Y008231D02*
X013975Y008231D01*
X014018Y008153D02*
X013173Y008153D01*
X013173Y008074D02*
X014083Y008074D01*
X014183Y007995D02*
X013173Y007995D01*
X013173Y007917D02*
X016243Y007917D01*
X016243Y007995D02*
X014703Y007995D01*
X014803Y008074D02*
X016243Y008074D01*
X016243Y008153D02*
X014868Y008153D01*
X014912Y008231D02*
X016243Y008231D01*
X016243Y008310D02*
X014939Y008310D01*
X014952Y008388D02*
X016243Y008388D01*
X016243Y008467D02*
X014483Y008467D01*
X014483Y008388D02*
X014403Y008388D01*
X014403Y008310D02*
X014483Y008310D01*
X014483Y008231D02*
X014403Y008231D01*
X014403Y008153D02*
X014483Y008153D01*
X014483Y008074D02*
X014403Y008074D01*
X014403Y007995D02*
X014483Y007995D01*
X014403Y008467D02*
X013173Y008467D01*
X013173Y008545D02*
X013944Y008545D01*
X013968Y008624D02*
X013173Y008624D01*
X013173Y008702D02*
X014007Y008702D01*
X014068Y008781D02*
X013173Y008781D01*
X013173Y008859D02*
X014159Y008859D01*
X013994Y009095D02*
X014461Y009095D01*
X014363Y009174D02*
X014082Y009174D01*
X014136Y009252D02*
X014291Y009252D01*
X014259Y009331D02*
X014173Y009331D01*
X014195Y009409D02*
X014226Y009409D01*
X014224Y009488D02*
X013734Y009488D01*
X013734Y009566D02*
X013654Y009566D01*
X013654Y009488D02*
X013173Y009488D01*
X013173Y009566D02*
X013187Y009566D01*
X013173Y009645D02*
X013203Y009645D01*
X013173Y009723D02*
X013232Y009723D01*
X013278Y009802D02*
X013173Y009802D01*
X013173Y009880D02*
X013346Y009880D01*
X013458Y009959D02*
X013173Y009959D01*
X013173Y010038D02*
X014544Y010038D01*
X014544Y010116D02*
X013173Y010116D01*
X013173Y010195D02*
X014544Y010195D01*
X014544Y010273D02*
X013173Y010273D01*
X013173Y010352D02*
X014544Y010352D01*
X014544Y010430D02*
X013173Y010430D01*
X013173Y010509D02*
X014544Y010509D01*
X014544Y010587D02*
X013173Y010587D01*
X013173Y010666D02*
X014544Y010666D01*
X014544Y010744D02*
X013173Y010744D01*
X013173Y010823D02*
X014544Y010823D01*
X014544Y010902D02*
X013173Y010902D01*
X013173Y010980D02*
X014544Y010980D01*
X014544Y011059D02*
X013173Y011059D01*
X013173Y011137D02*
X014544Y011137D01*
X014577Y011216D02*
X013173Y011216D01*
X013173Y011294D02*
X014656Y011294D01*
X014735Y011373D02*
X013173Y011373D01*
X013173Y011451D02*
X014813Y011451D01*
X014892Y011530D02*
X013173Y011530D01*
X013173Y011608D02*
X014970Y011608D01*
X015049Y011687D02*
X013173Y011687D01*
X013173Y011766D02*
X015127Y011766D01*
X015206Y011844D02*
X013173Y011844D01*
X013173Y011923D02*
X015284Y011923D01*
X015313Y012001D02*
X013173Y012001D01*
X013173Y012080D02*
X015342Y012080D01*
X015421Y012158D02*
X013173Y012158D01*
X012995Y012158D02*
X012397Y012158D01*
X012476Y012080D02*
X012995Y012080D01*
X012995Y012001D02*
X012505Y012001D01*
X012505Y011923D02*
X012995Y011923D01*
X012995Y011844D02*
X012481Y011844D01*
X012402Y011766D02*
X012995Y011766D01*
X012995Y011687D02*
X012225Y011687D01*
X012146Y011608D02*
X012995Y011608D01*
X012995Y011530D02*
X012068Y011530D01*
X011989Y011451D02*
X012995Y011451D01*
X012995Y011373D02*
X011911Y011373D01*
X011832Y011294D02*
X012995Y011294D01*
X012995Y011216D02*
X011754Y011216D01*
X011675Y011137D02*
X012995Y011137D01*
X012995Y011059D02*
X011597Y011059D01*
X011596Y010980D02*
X012995Y010980D01*
X012995Y010902D02*
X011596Y010902D01*
X011596Y010823D02*
X012995Y010823D01*
X012995Y010744D02*
X011596Y010744D01*
X011596Y010666D02*
X012995Y010666D01*
X012995Y010587D02*
X011596Y010587D01*
X011596Y010509D02*
X012995Y010509D01*
X012995Y010430D02*
X011596Y010430D01*
X011596Y010352D02*
X012995Y010352D01*
X012995Y010273D02*
X011596Y010273D01*
X011596Y010195D02*
X012995Y010195D01*
X012995Y010116D02*
X011596Y010116D01*
X011596Y010038D02*
X012995Y010038D01*
X012995Y009959D02*
X012584Y009959D01*
X012738Y009880D02*
X012995Y009880D01*
X012995Y009802D02*
X012816Y009802D01*
X012865Y009723D02*
X012995Y009723D01*
X012995Y009645D02*
X012898Y009645D01*
X012916Y009566D02*
X012995Y009566D01*
X012995Y009488D02*
X012916Y009488D01*
X012914Y009409D02*
X012995Y009409D01*
X012995Y009331D02*
X012882Y009331D01*
X012849Y009252D02*
X012995Y009252D01*
X012995Y009174D02*
X012777Y009174D01*
X012679Y009095D02*
X012995Y009095D01*
X013173Y009095D02*
X013394Y009095D01*
X013307Y009174D02*
X013173Y009174D01*
X013173Y009252D02*
X013252Y009252D01*
X013215Y009331D02*
X013173Y009331D01*
X013173Y009409D02*
X013193Y009409D01*
X013654Y009645D02*
X013734Y009645D01*
X013734Y009723D02*
X013654Y009723D01*
X013654Y009802D02*
X013734Y009802D01*
X013734Y009880D02*
X013654Y009880D01*
X013654Y009959D02*
X013734Y009959D01*
X013734Y010017D02*
X013734Y010017D01*
X013931Y009959D02*
X014544Y009959D01*
X014403Y009880D02*
X014042Y009880D01*
X014110Y009802D02*
X014324Y009802D01*
X014275Y009723D02*
X014156Y009723D01*
X014186Y009645D02*
X014242Y009645D01*
X014224Y009566D02*
X014201Y009566D01*
X014844Y009959D02*
X015557Y009959D01*
X015403Y009880D02*
X014986Y009880D01*
X015064Y009802D02*
X015324Y009802D01*
X015275Y009723D02*
X015113Y009723D01*
X015146Y009645D02*
X015242Y009645D01*
X015224Y009566D02*
X015164Y009566D01*
X015164Y009488D02*
X015224Y009488D01*
X015226Y009409D02*
X015162Y009409D01*
X015130Y009331D02*
X015259Y009331D01*
X015291Y009252D02*
X015097Y009252D01*
X015025Y009174D02*
X015363Y009174D01*
X015461Y009095D02*
X014927Y009095D01*
X014727Y008859D02*
X016243Y008859D01*
X016243Y008781D02*
X014819Y008781D01*
X014880Y008702D02*
X016243Y008702D01*
X016243Y008624D02*
X014918Y008624D01*
X014942Y008545D02*
X016243Y008545D01*
X016421Y008388D02*
X017182Y008388D01*
X017196Y008310D02*
X016421Y008310D01*
X016421Y008231D02*
X017223Y008231D01*
X017266Y008153D02*
X016421Y008153D01*
X016421Y008074D02*
X017331Y008074D01*
X017431Y007995D02*
X016421Y007995D01*
X016421Y007917D02*
X019391Y007917D01*
X019391Y007995D02*
X017951Y007995D01*
X018051Y008074D02*
X019391Y008074D01*
X019391Y008153D02*
X018116Y008153D01*
X018160Y008231D02*
X019391Y008231D01*
X019391Y008310D02*
X018187Y008310D01*
X018200Y008388D02*
X019391Y008388D01*
X019391Y007838D02*
X016421Y007838D01*
X016421Y007760D02*
X019391Y007760D01*
X019391Y007681D02*
X018941Y007681D01*
X019001Y007603D02*
X019391Y007603D01*
X019391Y007524D02*
X019001Y007524D01*
X019001Y007446D02*
X019391Y007446D01*
X019391Y007367D02*
X018929Y007367D01*
X018752Y007289D02*
X019391Y007289D01*
X019391Y007210D02*
X018673Y007210D01*
X018595Y007131D02*
X019391Y007131D01*
X019391Y007053D02*
X018516Y007053D01*
X018438Y006974D02*
X019391Y006974D01*
X019391Y006896D02*
X018359Y006896D01*
X018280Y006817D02*
X019391Y006817D01*
X019391Y006739D02*
X018202Y006739D01*
X018123Y006660D02*
X019391Y006660D01*
X019391Y006582D02*
X018092Y006582D01*
X018092Y006503D02*
X019391Y006503D01*
X019391Y006425D02*
X018092Y006425D01*
X018092Y006346D02*
X019391Y006346D01*
X019391Y006267D02*
X018092Y006267D01*
X018092Y006189D02*
X019391Y006189D01*
X019391Y006110D02*
X018092Y006110D01*
X018092Y006032D02*
X019391Y006032D01*
X019391Y005953D02*
X018092Y005953D01*
X018092Y005875D02*
X019391Y005875D01*
X019391Y005796D02*
X018092Y005796D01*
X018092Y005718D02*
X019391Y005718D01*
X019391Y005639D02*
X018092Y005639D01*
X018092Y005561D02*
X019391Y005561D01*
X019391Y005482D02*
X019195Y005482D01*
X019281Y005404D02*
X019391Y005404D01*
X019391Y005325D02*
X019349Y005325D01*
X019381Y005246D02*
X019391Y005246D01*
X018825Y004618D02*
X018060Y004618D01*
X018225Y004697D02*
X018659Y004697D01*
X018580Y004775D02*
X018304Y004775D01*
X018358Y004854D02*
X018526Y004854D01*
X018494Y004932D02*
X018390Y004932D01*
X018412Y005011D02*
X018472Y005011D01*
X018472Y005089D02*
X018412Y005089D01*
X018412Y005168D02*
X018472Y005168D01*
X018503Y005246D02*
X018381Y005246D01*
X018349Y005325D02*
X018536Y005325D01*
X018603Y005404D02*
X018281Y005404D01*
X018195Y005482D02*
X018689Y005482D01*
X017792Y005561D02*
X017108Y005561D01*
X017138Y005551D02*
X017062Y005576D01*
X016982Y005588D01*
X016982Y005118D01*
X017452Y005118D01*
X017452Y005118D01*
X017440Y005198D01*
X017415Y005274D01*
X017378Y005345D01*
X017331Y005410D01*
X017274Y005467D01*
X017209Y005514D01*
X017138Y005551D01*
X017254Y005482D02*
X017689Y005482D01*
X017603Y005404D02*
X017336Y005404D01*
X017389Y005325D02*
X017536Y005325D01*
X017503Y005246D02*
X017424Y005246D01*
X017444Y005168D02*
X017472Y005168D01*
X017472Y005089D02*
X016982Y005089D01*
X016982Y005168D02*
X016902Y005168D01*
X016902Y005118D02*
X016902Y005588D01*
X016823Y005576D01*
X016746Y005551D01*
X016675Y005514D01*
X016610Y005467D01*
X016553Y005410D01*
X016506Y005345D01*
X016470Y005274D01*
X016445Y005198D01*
X016432Y005118D01*
X016902Y005118D01*
X016902Y005089D02*
X016421Y005089D01*
X016432Y005118D02*
X016432Y005118D01*
X016440Y005168D02*
X016421Y005168D01*
X016421Y005246D02*
X016461Y005246D01*
X016496Y005325D02*
X016421Y005325D01*
X016421Y005404D02*
X016548Y005404D01*
X016631Y005482D02*
X016421Y005482D01*
X016421Y005561D02*
X016777Y005561D01*
X016902Y005561D02*
X016982Y005561D01*
X016982Y005588D02*
X016982Y005588D01*
X016902Y005588D02*
X016902Y005588D01*
X016902Y005482D02*
X016982Y005482D01*
X016982Y005404D02*
X016902Y005404D01*
X016902Y005325D02*
X016982Y005325D01*
X016982Y005246D02*
X016902Y005246D01*
X016432Y005038D02*
X016432Y005038D01*
X016436Y005011D02*
X016421Y005011D01*
X016421Y004932D02*
X016453Y004932D01*
X016484Y004854D02*
X016421Y004854D01*
X016421Y004775D02*
X016532Y004775D01*
X016602Y004697D02*
X016421Y004697D01*
X016421Y004618D02*
X016722Y004618D01*
X016421Y004432D02*
X017409Y004432D01*
X017359Y004395D01*
X017302Y004338D01*
X017255Y004274D01*
X017219Y004202D01*
X017194Y004126D01*
X017181Y004046D01*
X017651Y004046D01*
X017651Y003966D01*
X017181Y003966D01*
X017194Y003887D01*
X017219Y003810D01*
X017255Y003739D01*
X017302Y003674D01*
X017359Y003617D01*
X017424Y003570D01*
X017496Y003534D01*
X017572Y003509D01*
X017651Y003496D01*
X017651Y003496D01*
X017651Y003966D01*
X017731Y003966D01*
X017731Y003496D01*
X017731Y003496D01*
X017811Y003509D01*
X017887Y003534D01*
X017959Y003570D01*
X018024Y003617D01*
X018080Y003674D01*
X018127Y003739D01*
X018164Y003810D01*
X018189Y003887D01*
X018201Y003966D01*
X018201Y003966D01*
X017731Y003966D01*
X017731Y004046D01*
X018201Y004046D01*
X018201Y004046D01*
X018189Y004126D01*
X018164Y004202D01*
X018127Y004274D01*
X018080Y004338D01*
X018024Y004395D01*
X017973Y004432D01*
X019391Y004432D01*
X019391Y000794D01*
X019341Y000915D01*
X019208Y001047D01*
X019036Y001119D01*
X018849Y001119D01*
X018676Y001047D01*
X018544Y000915D01*
X018472Y000742D01*
X018472Y000555D01*
X018544Y000383D01*
X018552Y000374D01*
X018331Y000373D01*
X018341Y000383D01*
X018412Y000555D01*
X018412Y000742D01*
X018341Y000915D01*
X018208Y001047D01*
X018092Y001096D01*
X018092Y002200D01*
X018773Y002881D01*
X018872Y002881D01*
X019001Y003010D01*
X019001Y003192D01*
X018872Y003321D01*
X018690Y003321D01*
X018561Y003192D01*
X018561Y003093D01*
X017792Y002324D01*
X017792Y002200D01*
X017792Y001096D01*
X017676Y001047D01*
X017544Y000915D01*
X017472Y000742D01*
X017472Y000555D01*
X017544Y000383D01*
X017557Y000369D01*
X017369Y000368D01*
X017378Y000382D01*
X017415Y000453D01*
X017440Y000530D01*
X017452Y000609D01*
X016982Y000609D01*
X016982Y000689D01*
X016902Y000689D01*
X016902Y000609D01*
X016432Y000609D01*
X016432Y000609D01*
X016445Y000530D01*
X016470Y000453D01*
X016506Y000382D01*
X016519Y000364D01*
X016421Y000364D01*
X016421Y004432D01*
X016421Y004382D02*
X017346Y004382D01*
X017277Y004304D02*
X016421Y004304D01*
X016421Y004225D02*
X017231Y004225D01*
X017201Y004147D02*
X016421Y004147D01*
X016421Y004068D02*
X017185Y004068D01*
X017181Y004046D02*
X017181Y004046D01*
X017181Y003966D02*
X017181Y003966D01*
X017190Y003911D02*
X016421Y003911D01*
X016421Y003833D02*
X017211Y003833D01*
X017247Y003754D02*
X016421Y003754D01*
X016421Y003676D02*
X017301Y003676D01*
X017387Y003597D02*
X016421Y003597D01*
X016421Y003518D02*
X017542Y003518D01*
X017651Y003518D02*
X017731Y003518D01*
X017731Y003597D02*
X017651Y003597D01*
X017651Y003676D02*
X017731Y003676D01*
X017731Y003754D02*
X017651Y003754D01*
X017651Y003833D02*
X017731Y003833D01*
X017731Y003911D02*
X017651Y003911D01*
X017651Y003990D02*
X016421Y003990D01*
X016243Y003990D02*
X014483Y003990D01*
X014483Y003966D02*
X014483Y004046D01*
X014953Y004046D01*
X014953Y004046D01*
X014941Y004126D01*
X014916Y004202D01*
X014879Y004274D01*
X014832Y004338D01*
X014776Y004395D01*
X014725Y004432D01*
X016243Y004432D01*
X016243Y000363D01*
X016072Y000362D01*
X016093Y000383D01*
X016164Y000555D01*
X016164Y000742D01*
X016093Y000915D01*
X015960Y001047D01*
X015788Y001119D01*
X015601Y001119D01*
X015428Y001047D01*
X015296Y000915D01*
X015224Y000742D01*
X015224Y000555D01*
X015296Y000383D01*
X015320Y000358D01*
X015067Y000357D01*
X015093Y000383D01*
X015164Y000555D01*
X015164Y000742D01*
X015093Y000915D01*
X014960Y001047D01*
X014844Y001096D01*
X014844Y002200D01*
X015525Y002881D01*
X015624Y002881D01*
X015753Y003010D01*
X015753Y003192D01*
X015624Y003321D01*
X015442Y003321D01*
X015313Y003192D01*
X015313Y003093D01*
X014544Y002324D01*
X014544Y002200D01*
X014544Y001096D01*
X014428Y001047D01*
X014296Y000915D01*
X014224Y000742D01*
X014224Y000555D01*
X014296Y000383D01*
X014325Y000353D01*
X014109Y000352D01*
X014130Y000382D01*
X014167Y000453D01*
X014192Y000530D01*
X014204Y000609D01*
X013734Y000609D01*
X013734Y000689D01*
X013654Y000689D01*
X013654Y000609D01*
X013184Y000609D01*
X013184Y000609D01*
X013197Y000530D01*
X013222Y000453D01*
X013258Y000382D01*
X013283Y000348D01*
X013173Y000347D01*
X013173Y004432D01*
X014161Y004432D01*
X014111Y004395D01*
X014054Y004338D01*
X014007Y004274D01*
X013971Y004202D01*
X013946Y004126D01*
X013933Y004046D01*
X014403Y004046D01*
X014403Y003966D01*
X013933Y003966D01*
X013946Y003887D01*
X013971Y003810D01*
X014007Y003739D01*
X014054Y003674D01*
X014111Y003617D01*
X014176Y003570D01*
X014248Y003534D01*
X014324Y003509D01*
X014403Y003496D01*
X014403Y003496D01*
X014403Y003966D01*
X014483Y003966D01*
X014483Y003496D01*
X014483Y003496D01*
X014563Y003509D01*
X014639Y003534D01*
X014711Y003570D01*
X014776Y003617D01*
X014832Y003674D01*
X014879Y003739D01*
X014916Y003810D01*
X014941Y003887D01*
X014953Y003966D01*
X014953Y003966D01*
X014483Y003966D01*
X014483Y003911D02*
X014403Y003911D01*
X014403Y003833D02*
X014483Y003833D01*
X014483Y003754D02*
X014403Y003754D01*
X014403Y003676D02*
X014483Y003676D01*
X014483Y003597D02*
X014403Y003597D01*
X014403Y003518D02*
X014483Y003518D01*
X014592Y003518D02*
X016243Y003518D01*
X016243Y003440D02*
X013173Y003440D01*
X013173Y003518D02*
X014294Y003518D01*
X014139Y003597D02*
X013173Y003597D01*
X013173Y003676D02*
X014053Y003676D01*
X013999Y003754D02*
X013173Y003754D01*
X013173Y003833D02*
X013963Y003833D01*
X013942Y003911D02*
X013173Y003911D01*
X013173Y003990D02*
X014403Y003990D01*
X013983Y004225D02*
X013173Y004225D01*
X013173Y004147D02*
X013953Y004147D01*
X013937Y004068D02*
X013173Y004068D01*
X012995Y004068D02*
X011702Y004068D01*
X011705Y004046D02*
X011693Y004126D01*
X011668Y004202D01*
X011631Y004274D01*
X011584Y004338D01*
X011527Y004395D01*
X011477Y004432D01*
X012995Y004432D01*
X012995Y000346D01*
X012807Y000345D01*
X012845Y000383D01*
X012916Y000555D01*
X012916Y000742D01*
X012845Y000915D01*
X012712Y001047D01*
X012540Y001119D01*
X012353Y001119D01*
X012180Y001047D01*
X012048Y000915D01*
X011976Y000742D01*
X011976Y000555D01*
X012048Y000383D01*
X012089Y000342D01*
X011802Y000340D01*
X011845Y000383D01*
X011916Y000555D01*
X011916Y000742D01*
X011845Y000915D01*
X011712Y001047D01*
X011596Y001096D01*
X011596Y002200D01*
X012277Y002881D01*
X012376Y002881D01*
X012505Y003010D01*
X012505Y003192D01*
X012376Y003321D01*
X012194Y003321D01*
X012065Y003192D01*
X012065Y003093D01*
X011296Y002324D01*
X011296Y002200D01*
X011296Y001096D01*
X011180Y001047D01*
X011048Y000915D01*
X010976Y000742D01*
X010976Y000555D01*
X011048Y000383D01*
X011094Y000337D01*
X010849Y000335D01*
X010882Y000382D01*
X010919Y000453D01*
X010944Y000530D01*
X010956Y000609D01*
X010486Y000609D01*
X010486Y000689D01*
X010406Y000689D01*
X010406Y000609D01*
X009936Y000609D01*
X009936Y000609D01*
X009949Y000530D01*
X009974Y000453D01*
X010010Y000382D01*
X010047Y000331D01*
X009925Y000331D01*
X009925Y004432D01*
X010913Y004432D01*
X010863Y004395D01*
X010806Y004338D01*
X010759Y004274D01*
X010723Y004202D01*
X010698Y004126D01*
X010685Y004046D01*
X011155Y004046D01*
X011155Y003966D01*
X011235Y003966D01*
X011235Y003496D01*
X011235Y003496D01*
X011315Y003509D01*
X011391Y003534D01*
X011463Y003570D01*
X011527Y003617D01*
X011584Y003674D01*
X011631Y003739D01*
X011668Y003810D01*
X011693Y003887D01*
X011705Y003966D01*
X011705Y003966D01*
X011235Y003966D01*
X011235Y004046D01*
X011705Y004046D01*
X011705Y004046D01*
X011686Y004147D02*
X012995Y004147D01*
X012995Y004225D02*
X011656Y004225D01*
X011609Y004304D02*
X012995Y004304D01*
X012995Y004382D02*
X011540Y004382D01*
X011235Y003990D02*
X012995Y003990D01*
X012995Y003911D02*
X011697Y003911D01*
X011675Y003833D02*
X012995Y003833D01*
X012995Y003754D02*
X011639Y003754D01*
X011585Y003676D02*
X012995Y003676D01*
X012995Y003597D02*
X011500Y003597D01*
X011344Y003518D02*
X012995Y003518D01*
X012995Y003440D02*
X009925Y003440D01*
X009925Y003518D02*
X011046Y003518D01*
X011076Y003509D02*
X011155Y003496D01*
X011155Y003496D01*
X011155Y003966D01*
X010685Y003966D01*
X010698Y003887D01*
X010723Y003810D01*
X010759Y003739D01*
X010806Y003674D01*
X010863Y003617D01*
X010928Y003570D01*
X010999Y003534D01*
X011076Y003509D01*
X011155Y003518D02*
X011235Y003518D01*
X011235Y003597D02*
X011155Y003597D01*
X011155Y003676D02*
X011235Y003676D01*
X011235Y003754D02*
X011155Y003754D01*
X011155Y003833D02*
X011235Y003833D01*
X011235Y003911D02*
X011155Y003911D01*
X011155Y003990D02*
X009925Y003990D01*
X009925Y004068D02*
X010689Y004068D01*
X010685Y004046D02*
X010685Y004046D01*
X010685Y003966D02*
X010685Y003966D01*
X010694Y003911D02*
X009925Y003911D01*
X009925Y003833D02*
X010715Y003833D01*
X010751Y003754D02*
X009925Y003754D01*
X009925Y003676D02*
X010805Y003676D01*
X010891Y003597D02*
X009925Y003597D01*
X009747Y003597D02*
X008252Y003597D01*
X008279Y003617D02*
X008215Y003570D01*
X008143Y003534D01*
X008067Y003509D01*
X007987Y003496D01*
X007987Y003496D01*
X007987Y003966D01*
X007907Y003966D01*
X007907Y003496D01*
X007907Y003496D01*
X007828Y003509D01*
X007751Y003534D01*
X007680Y003570D01*
X007615Y003617D01*
X007558Y003674D01*
X007511Y003739D01*
X007475Y003810D01*
X007450Y003887D01*
X007437Y003966D01*
X007437Y003966D01*
X007907Y003966D01*
X007907Y004046D01*
X007437Y004046D01*
X007437Y004046D01*
X007450Y004126D01*
X007475Y004202D01*
X007511Y004274D01*
X007558Y004338D01*
X007615Y004395D01*
X007665Y004432D01*
X006677Y004432D01*
X006677Y000314D01*
X006811Y000315D01*
X006809Y000317D01*
X006762Y000382D01*
X006725Y000453D01*
X006701Y000530D01*
X006688Y000609D01*
X006688Y000609D01*
X007158Y000609D01*
X007158Y000689D01*
X006688Y000689D01*
X006688Y000689D01*
X006701Y000768D01*
X006725Y000845D01*
X006762Y000916D01*
X006809Y000981D01*
X006866Y001038D01*
X006931Y001085D01*
X007002Y001122D01*
X007079Y001146D01*
X007158Y001159D01*
X007158Y001159D01*
X007158Y000689D01*
X007238Y000689D01*
X007238Y001159D01*
X007238Y001159D01*
X007318Y001146D01*
X007394Y001122D01*
X007465Y001085D01*
X007530Y001038D01*
X007587Y000981D01*
X007634Y000916D01*
X007671Y000845D01*
X007696Y000768D01*
X007708Y000689D01*
X007708Y000689D01*
X007238Y000689D01*
X007238Y000609D01*
X007708Y000609D01*
X007708Y000609D01*
X007696Y000530D01*
X007671Y000453D01*
X007634Y000382D01*
X007589Y000319D01*
X007862Y000320D01*
X007800Y000383D01*
X007728Y000555D01*
X007728Y000742D01*
X007800Y000915D01*
X007932Y001047D01*
X008048Y001096D01*
X008048Y002200D01*
X008048Y002324D01*
X008817Y003093D01*
X008817Y003192D01*
X008946Y003321D01*
X009128Y003321D01*
X009257Y003192D01*
X009257Y003010D01*
X009128Y002881D01*
X009029Y002881D01*
X008348Y002200D01*
X008348Y001096D01*
X008464Y001047D01*
X008597Y000915D01*
X008668Y000742D01*
X008668Y000555D01*
X008597Y000383D01*
X008537Y000324D01*
X008857Y000325D01*
X008800Y000383D01*
X008728Y000555D01*
X008728Y000742D01*
X008800Y000915D01*
X008932Y001047D01*
X009105Y001119D01*
X009292Y001119D01*
X009464Y001047D01*
X009597Y000915D01*
X009668Y000742D01*
X009668Y000555D01*
X009597Y000383D01*
X009543Y000329D01*
X009747Y000330D01*
X009747Y004432D01*
X008229Y004432D01*
X008279Y004395D01*
X008336Y004338D01*
X008383Y004274D01*
X008420Y004202D01*
X008445Y004126D01*
X008457Y004046D01*
X008457Y004046D01*
X007987Y004046D01*
X007987Y003966D01*
X008457Y003966D01*
X008457Y003966D01*
X008445Y003887D01*
X008420Y003810D01*
X008383Y003739D01*
X008336Y003674D01*
X008279Y003617D01*
X008337Y003676D02*
X009747Y003676D01*
X009747Y003754D02*
X008391Y003754D01*
X008427Y003833D02*
X009747Y003833D01*
X009747Y003911D02*
X008449Y003911D01*
X008454Y004068D02*
X009747Y004068D01*
X009747Y003990D02*
X007987Y003990D01*
X007987Y003911D02*
X007907Y003911D01*
X007907Y003833D02*
X007987Y003833D01*
X007987Y003754D02*
X007907Y003754D01*
X007907Y003676D02*
X007987Y003676D01*
X007987Y003597D02*
X007907Y003597D01*
X007907Y003518D02*
X007987Y003518D01*
X008096Y003518D02*
X009747Y003518D01*
X009747Y003440D02*
X006677Y003440D01*
X006677Y003518D02*
X007798Y003518D01*
X007643Y003597D02*
X006677Y003597D01*
X006677Y003676D02*
X007557Y003676D01*
X007503Y003754D02*
X006677Y003754D01*
X006677Y003833D02*
X007467Y003833D01*
X007446Y003911D02*
X006677Y003911D01*
X006677Y003990D02*
X007907Y003990D01*
X007487Y004225D02*
X006677Y004225D01*
X006677Y004147D02*
X007457Y004147D01*
X007441Y004068D02*
X006677Y004068D01*
X006499Y004068D02*
X005206Y004068D01*
X005209Y004046D02*
X005197Y004126D01*
X005172Y004202D01*
X005135Y004274D01*
X005088Y004338D01*
X005031Y004395D01*
X004981Y004432D01*
X006499Y004432D01*
X006499Y000313D01*
X006278Y000312D01*
X006349Y000383D01*
X006420Y000555D01*
X006420Y000742D01*
X006349Y000915D01*
X006216Y001047D01*
X006044Y001119D01*
X005857Y001119D01*
X005684Y001047D01*
X005552Y000915D01*
X005480Y000742D01*
X005480Y000555D01*
X005552Y000383D01*
X005626Y000309D01*
X005273Y000307D01*
X005349Y000383D01*
X005420Y000555D01*
X005420Y000742D01*
X005349Y000915D01*
X005216Y001047D01*
X005100Y001096D01*
X005100Y002200D01*
X005781Y002881D01*
X005880Y002881D01*
X006009Y003010D01*
X006009Y003192D01*
X005880Y003321D01*
X005698Y003321D01*
X005569Y003192D01*
X005569Y003093D01*
X004800Y002324D01*
X004800Y002200D01*
X004800Y001096D01*
X004684Y001047D01*
X004552Y000915D01*
X004480Y000742D01*
X004480Y000555D01*
X004552Y000383D01*
X004631Y000304D01*
X004325Y000302D01*
X004339Y000317D01*
X004386Y000382D01*
X004423Y000453D01*
X004447Y000530D01*
X004460Y000609D01*
X003990Y000609D01*
X003990Y000689D01*
X003910Y000689D01*
X003910Y001159D01*
X003831Y001146D01*
X003754Y001122D01*
X003683Y001085D01*
X003618Y001038D01*
X003561Y000981D01*
X003514Y000916D01*
X003477Y000845D01*
X003453Y000768D01*
X003440Y000689D01*
X003440Y000689D01*
X003910Y000689D01*
X003910Y000609D01*
X003440Y000609D01*
X003440Y000609D01*
X003453Y000530D01*
X003477Y000453D01*
X003514Y000382D01*
X003561Y000317D01*
X003579Y000298D01*
X003429Y000298D01*
X003524Y000298D01*
X003517Y000377D02*
X003429Y000377D01*
X003429Y000455D02*
X003477Y000455D01*
X003452Y000534D02*
X003429Y000534D01*
X003429Y000612D02*
X003910Y000612D01*
X003910Y000691D02*
X003990Y000691D01*
X003990Y000689D02*
X003990Y001159D01*
X003990Y001159D01*
X004069Y001146D01*
X004146Y001122D01*
X004217Y001085D01*
X004282Y001038D01*
X004339Y000981D01*
X004386Y000916D01*
X004423Y000845D01*
X004447Y000768D01*
X004460Y000689D01*
X004460Y000689D01*
X003990Y000689D01*
X003990Y000612D02*
X004480Y000612D01*
X004460Y000609D02*
X004460Y000609D01*
X004448Y000534D02*
X004489Y000534D01*
X004522Y000455D02*
X004423Y000455D01*
X004383Y000377D02*
X004558Y000377D01*
X004480Y000691D02*
X004460Y000691D01*
X004447Y000769D02*
X004491Y000769D01*
X004524Y000848D02*
X004421Y000848D01*
X004379Y000927D02*
X004563Y000927D01*
X004641Y001005D02*
X004315Y001005D01*
X004219Y001084D02*
X004771Y001084D01*
X004800Y001162D02*
X003429Y001162D01*
X003429Y001084D02*
X003681Y001084D01*
X003585Y001005D02*
X003429Y001005D01*
X003429Y000927D02*
X003521Y000927D01*
X003479Y000848D02*
X003429Y000848D01*
X003429Y000769D02*
X003453Y000769D01*
X003440Y000691D02*
X003429Y000691D01*
X003251Y000691D02*
X003172Y000691D01*
X003172Y000742D02*
X003100Y000915D01*
X002968Y001047D01*
X002796Y001119D01*
X002609Y001119D01*
X002436Y001047D01*
X002304Y000915D01*
X002232Y000742D01*
X002232Y000555D01*
X002304Y000383D01*
X002394Y000292D01*
X002008Y000291D01*
X002100Y000383D01*
X002172Y000555D01*
X002172Y000742D01*
X002100Y000915D01*
X001968Y001047D01*
X001852Y001096D01*
X001852Y002200D01*
X002533Y002881D01*
X002632Y002881D01*
X002761Y003010D01*
X002761Y003192D01*
X002632Y003321D01*
X002450Y003321D01*
X002321Y003192D01*
X002321Y003093D01*
X001552Y002324D01*
X001552Y002200D01*
X001552Y001096D01*
X001436Y001047D01*
X001304Y000915D01*
X001232Y000742D01*
X001232Y000555D01*
X001304Y000383D01*
X001399Y000287D01*
X001060Y000286D01*
X001091Y000317D01*
X001138Y000382D01*
X001175Y000453D01*
X001199Y000530D01*
X001212Y000609D01*
X000742Y000609D01*
X000742Y000689D01*
X000662Y000689D01*
X000662Y001159D01*
X000662Y001159D01*
X000583Y001146D01*
X000506Y001122D01*
X000435Y001085D01*
X000370Y001038D01*
X000313Y000981D01*
X000281Y000937D01*
X000281Y004432D01*
X001169Y004432D01*
X001119Y004395D01*
X001062Y004338D01*
X001015Y004274D01*
X000979Y004202D01*
X000954Y004126D01*
X000941Y004046D01*
X001411Y004046D01*
X001411Y003966D01*
X001491Y003966D01*
X001491Y003496D01*
X001491Y003496D01*
X001571Y003509D01*
X001647Y003534D01*
X001718Y003570D01*
X001783Y003617D01*
X001840Y003674D01*
X001887Y003739D01*
X001924Y003810D01*
X001949Y003887D01*
X001961Y003966D01*
X001961Y003966D01*
X001491Y003966D01*
X001491Y004046D01*
X001961Y004046D01*
X001961Y004046D01*
X001949Y004126D01*
X001924Y004202D01*
X001887Y004274D01*
X001840Y004338D01*
X001783Y004395D01*
X001733Y004432D01*
X003251Y004432D01*
X003251Y000297D01*
X003013Y000296D01*
X003100Y000383D01*
X003172Y000555D01*
X003172Y000742D01*
X003161Y000769D02*
X003251Y000769D01*
X003251Y000848D02*
X003128Y000848D01*
X003089Y000927D02*
X003251Y000927D01*
X003251Y001005D02*
X003011Y001005D01*
X002881Y001084D02*
X003251Y001084D01*
X003251Y001162D02*
X001852Y001162D01*
X001852Y001241D02*
X003251Y001241D01*
X003251Y001319D02*
X001852Y001319D01*
X001852Y001398D02*
X003251Y001398D01*
X003251Y001476D02*
X001852Y001476D01*
X001852Y001555D02*
X003251Y001555D01*
X003251Y001633D02*
X001852Y001633D01*
X001852Y001712D02*
X003251Y001712D01*
X003251Y001791D02*
X001852Y001791D01*
X001852Y001869D02*
X003251Y001869D01*
X003251Y001948D02*
X001852Y001948D01*
X001852Y002026D02*
X003251Y002026D01*
X003251Y002105D02*
X001852Y002105D01*
X001852Y002183D02*
X003251Y002183D01*
X003251Y002262D02*
X001914Y002262D01*
X001992Y002340D02*
X003251Y002340D01*
X003251Y002419D02*
X002071Y002419D01*
X002150Y002497D02*
X003251Y002497D01*
X003251Y002576D02*
X002228Y002576D01*
X002307Y002654D02*
X003251Y002654D01*
X003251Y002733D02*
X002385Y002733D01*
X002464Y002812D02*
X003251Y002812D01*
X003251Y002890D02*
X002641Y002890D01*
X002720Y002969D02*
X003251Y002969D01*
X003251Y003047D02*
X002761Y003047D01*
X002761Y003126D02*
X003251Y003126D01*
X003251Y003204D02*
X002749Y003204D01*
X002670Y003283D02*
X003251Y003283D01*
X003251Y003361D02*
X000281Y003361D01*
X000281Y003283D02*
X002412Y003283D01*
X002333Y003204D02*
X000281Y003204D01*
X000281Y003126D02*
X002321Y003126D01*
X002275Y003047D02*
X000281Y003047D01*
X000281Y002969D02*
X002197Y002969D01*
X002118Y002890D02*
X000281Y002890D01*
X000281Y002812D02*
X002039Y002812D01*
X001961Y002733D02*
X000281Y002733D01*
X000281Y002654D02*
X001882Y002654D01*
X001804Y002576D02*
X000281Y002576D01*
X000281Y002497D02*
X001725Y002497D01*
X001647Y002419D02*
X000281Y002419D01*
X000281Y002340D02*
X001568Y002340D01*
X001552Y002262D02*
X000281Y002262D01*
X000281Y002183D02*
X001552Y002183D01*
X001552Y002105D02*
X000281Y002105D01*
X000281Y002026D02*
X001552Y002026D01*
X001552Y001948D02*
X000281Y001948D01*
X000281Y001869D02*
X001552Y001869D01*
X001552Y001791D02*
X000281Y001791D01*
X000281Y001712D02*
X001552Y001712D01*
X001552Y001633D02*
X000281Y001633D01*
X000281Y001555D02*
X001552Y001555D01*
X001552Y001476D02*
X000281Y001476D01*
X000281Y001398D02*
X001552Y001398D01*
X001552Y001319D02*
X000281Y001319D01*
X000281Y001241D02*
X001552Y001241D01*
X001552Y001162D02*
X000281Y001162D01*
X000281Y001084D02*
X000433Y001084D01*
X000337Y001005D02*
X000281Y001005D01*
X000662Y001005D02*
X000742Y001005D01*
X000742Y000927D02*
X000662Y000927D01*
X000662Y000848D02*
X000742Y000848D01*
X000742Y000769D02*
X000662Y000769D01*
X000662Y000691D02*
X000742Y000691D01*
X000742Y000689D02*
X000742Y001159D01*
X000742Y001159D01*
X000821Y001146D01*
X000898Y001122D01*
X000969Y001085D01*
X001034Y001038D01*
X001091Y000981D01*
X001138Y000916D01*
X001175Y000845D01*
X001199Y000768D01*
X001212Y000689D01*
X001212Y000689D01*
X000742Y000689D01*
X000742Y000612D02*
X001232Y000612D01*
X001212Y000609D02*
X001212Y000609D01*
X001200Y000534D02*
X001241Y000534D01*
X001274Y000455D02*
X001175Y000455D01*
X001135Y000377D02*
X001310Y000377D01*
X001388Y000298D02*
X001072Y000298D01*
X001212Y000691D02*
X001232Y000691D01*
X001243Y000769D02*
X001199Y000769D01*
X001173Y000848D02*
X001276Y000848D01*
X001315Y000927D02*
X001131Y000927D01*
X001067Y001005D02*
X001393Y001005D01*
X001523Y001084D02*
X000971Y001084D01*
X000742Y001084D02*
X000662Y001084D01*
X001881Y001084D02*
X002523Y001084D01*
X002393Y001005D02*
X002011Y001005D01*
X002089Y000927D02*
X002315Y000927D01*
X002276Y000848D02*
X002128Y000848D01*
X002161Y000769D02*
X002243Y000769D01*
X002232Y000691D02*
X002172Y000691D01*
X002172Y000612D02*
X002232Y000612D01*
X002241Y000534D02*
X002163Y000534D01*
X002131Y000455D02*
X002274Y000455D01*
X002310Y000377D02*
X002094Y000377D01*
X002016Y000298D02*
X002388Y000298D01*
X003016Y000298D02*
X003251Y000298D01*
X003251Y000377D02*
X003094Y000377D01*
X003131Y000455D02*
X003251Y000455D01*
X003251Y000534D02*
X003163Y000534D01*
X003172Y000612D02*
X003251Y000612D01*
X003429Y000298D02*
X003429Y004432D01*
X004417Y004432D01*
X004367Y004395D01*
X004310Y004338D01*
X004263Y004274D01*
X004227Y004202D01*
X004202Y004126D01*
X004189Y004046D01*
X004659Y004046D01*
X004659Y003966D01*
X004739Y003966D01*
X004739Y003496D01*
X004739Y003496D01*
X004819Y003509D01*
X004895Y003534D01*
X004966Y003570D01*
X005031Y003617D01*
X005088Y003674D01*
X005135Y003739D01*
X005172Y003810D01*
X005197Y003887D01*
X005209Y003966D01*
X005209Y003966D01*
X004739Y003966D01*
X004739Y004046D01*
X005209Y004046D01*
X005209Y004046D01*
X005190Y004147D02*
X006499Y004147D01*
X006499Y004225D02*
X005160Y004225D01*
X005113Y004304D02*
X006499Y004304D01*
X006499Y004382D02*
X005044Y004382D01*
X004739Y003990D02*
X006499Y003990D01*
X006499Y003911D02*
X005200Y003911D01*
X005179Y003833D02*
X006499Y003833D01*
X006499Y003754D02*
X005143Y003754D01*
X005089Y003676D02*
X006499Y003676D01*
X006499Y003597D02*
X005004Y003597D01*
X004848Y003518D02*
X006499Y003518D01*
X006499Y003440D02*
X003429Y003440D01*
X003429Y003518D02*
X004550Y003518D01*
X004580Y003509D02*
X004659Y003496D01*
X004659Y003496D01*
X004659Y003966D01*
X004189Y003966D01*
X004202Y003887D01*
X004227Y003810D01*
X004263Y003739D01*
X004310Y003674D01*
X004367Y003617D01*
X004432Y003570D01*
X004503Y003534D01*
X004580Y003509D01*
X004659Y003518D02*
X004739Y003518D01*
X004739Y003597D02*
X004659Y003597D01*
X004659Y003676D02*
X004739Y003676D01*
X004739Y003754D02*
X004659Y003754D01*
X004659Y003833D02*
X004739Y003833D01*
X004739Y003911D02*
X004659Y003911D01*
X004659Y003990D02*
X003429Y003990D01*
X003429Y004068D02*
X004193Y004068D01*
X004189Y004046D02*
X004189Y004046D01*
X004189Y003966D02*
X004189Y003966D01*
X004198Y003911D02*
X003429Y003911D01*
X003429Y003833D02*
X004219Y003833D01*
X004255Y003754D02*
X003429Y003754D01*
X003429Y003676D02*
X004309Y003676D01*
X004395Y003597D02*
X003429Y003597D01*
X003251Y003597D02*
X001756Y003597D01*
X001841Y003676D02*
X003251Y003676D01*
X003251Y003754D02*
X001895Y003754D01*
X001931Y003833D02*
X003251Y003833D01*
X003251Y003911D02*
X001952Y003911D01*
X001958Y004068D02*
X003251Y004068D01*
X003251Y003990D02*
X001491Y003990D01*
X001491Y003911D02*
X001411Y003911D01*
X001411Y003966D02*
X001411Y003496D01*
X001411Y003496D01*
X001332Y003509D01*
X001255Y003534D01*
X001184Y003570D01*
X001119Y003617D01*
X001062Y003674D01*
X001015Y003739D01*
X000979Y003810D01*
X000954Y003887D01*
X000941Y003966D01*
X000941Y003966D01*
X001411Y003966D01*
X001411Y003990D02*
X000281Y003990D01*
X000281Y004068D02*
X000945Y004068D01*
X000941Y004046D02*
X000941Y004046D01*
X000961Y004147D02*
X000281Y004147D01*
X000281Y004225D02*
X000990Y004225D01*
X001037Y004304D02*
X000281Y004304D01*
X000281Y004382D02*
X001106Y004382D01*
X000950Y003911D02*
X000281Y003911D01*
X000281Y003833D02*
X000971Y003833D01*
X001007Y003754D02*
X000281Y003754D01*
X000281Y003676D02*
X001061Y003676D01*
X001147Y003597D02*
X000281Y003597D01*
X000281Y003518D02*
X001302Y003518D01*
X001411Y003518D02*
X001491Y003518D01*
X001491Y003597D02*
X001411Y003597D01*
X001411Y003676D02*
X001491Y003676D01*
X001491Y003754D02*
X001411Y003754D01*
X001411Y003833D02*
X001491Y003833D01*
X001600Y003518D02*
X003251Y003518D01*
X003251Y003440D02*
X000281Y003440D01*
X001796Y004382D02*
X003251Y004382D01*
X003251Y004304D02*
X001865Y004304D01*
X001912Y004225D02*
X003251Y004225D01*
X003251Y004147D02*
X001942Y004147D01*
X002819Y004618D02*
X003251Y004618D01*
X003251Y004697D02*
X002985Y004697D01*
X003064Y004775D02*
X003251Y004775D01*
X003251Y004854D02*
X003118Y004854D01*
X003150Y004932D02*
X003251Y004932D01*
X003251Y005011D02*
X003172Y005011D01*
X003172Y005089D02*
X003251Y005089D01*
X003251Y005168D02*
X003172Y005168D01*
X003141Y005246D02*
X003251Y005246D01*
X003251Y005325D02*
X003109Y005325D01*
X003041Y005404D02*
X003251Y005404D01*
X003251Y005482D02*
X002955Y005482D01*
X003429Y005482D02*
X003638Y005482D01*
X003618Y005467D02*
X003561Y005410D01*
X003514Y005345D01*
X003477Y005274D01*
X003453Y005198D01*
X003440Y005118D01*
X003910Y005118D01*
X003910Y005588D01*
X003831Y005576D01*
X003754Y005551D01*
X003683Y005514D01*
X003618Y005467D01*
X003556Y005404D02*
X003429Y005404D01*
X003429Y005325D02*
X003504Y005325D01*
X003469Y005246D02*
X003429Y005246D01*
X003429Y005168D02*
X003448Y005168D01*
X003440Y005118D02*
X003440Y005118D01*
X003429Y005089D02*
X003910Y005089D01*
X003910Y005168D02*
X003990Y005168D01*
X003990Y005246D02*
X003910Y005246D01*
X003910Y005325D02*
X003990Y005325D01*
X003990Y005404D02*
X003910Y005404D01*
X003910Y005482D02*
X003990Y005482D01*
X003990Y005561D02*
X003910Y005561D01*
X003910Y005588D02*
X003910Y005588D01*
X003990Y005588D02*
X003990Y005588D01*
X004115Y005561D02*
X004800Y005561D01*
X004800Y005639D02*
X003429Y005639D01*
X003429Y005561D02*
X003785Y005561D01*
X003429Y005718D02*
X004800Y005718D01*
X004800Y005796D02*
X003429Y005796D01*
X003429Y005875D02*
X004800Y005875D01*
X004800Y005953D02*
X003429Y005953D01*
X003429Y006032D02*
X004800Y006032D01*
X004800Y006110D02*
X003429Y006110D01*
X003429Y006189D02*
X004800Y006189D01*
X004800Y006267D02*
X003429Y006267D01*
X003429Y006346D02*
X004800Y006346D01*
X004800Y006425D02*
X003429Y006425D01*
X003429Y006503D02*
X004800Y006503D01*
X004800Y006582D02*
X003429Y006582D01*
X003429Y006660D02*
X004800Y006660D01*
X004800Y006739D02*
X003429Y006739D01*
X003429Y006817D02*
X004864Y006817D01*
X004943Y006896D02*
X003429Y006896D01*
X003429Y006974D02*
X005021Y006974D01*
X005100Y007053D02*
X003429Y007053D01*
X003429Y007131D02*
X005178Y007131D01*
X005257Y007210D02*
X003429Y007210D01*
X003429Y007289D02*
X005335Y007289D01*
X005414Y007367D02*
X003429Y007367D01*
X003429Y007446D02*
X005492Y007446D01*
X005569Y007524D02*
X003429Y007524D01*
X003429Y007603D02*
X005569Y007603D01*
X005629Y007681D02*
X003429Y007681D01*
X003429Y007760D02*
X006499Y007760D01*
X006499Y007838D02*
X003429Y007838D01*
X004659Y007995D02*
X004739Y007995D01*
X004739Y008074D02*
X004659Y008074D01*
X004659Y008153D02*
X004739Y008153D01*
X004739Y008231D02*
X004659Y008231D01*
X004659Y008310D02*
X004739Y008310D01*
X005760Y007289D02*
X006499Y007289D01*
X006499Y007367D02*
X005937Y007367D01*
X006009Y007446D02*
X006499Y007446D01*
X006499Y007524D02*
X006009Y007524D01*
X006009Y007603D02*
X006499Y007603D01*
X006499Y007681D02*
X005949Y007681D01*
X005681Y007210D02*
X006499Y007210D01*
X006499Y007131D02*
X005602Y007131D01*
X005524Y007053D02*
X006499Y007053D01*
X006499Y006974D02*
X005445Y006974D01*
X005367Y006896D02*
X006499Y006896D01*
X006499Y006817D02*
X005288Y006817D01*
X005210Y006739D02*
X006499Y006739D01*
X006499Y006660D02*
X005131Y006660D01*
X005100Y006582D02*
X006499Y006582D01*
X006499Y006503D02*
X005100Y006503D01*
X005100Y006425D02*
X006499Y006425D01*
X006499Y006346D02*
X005100Y006346D01*
X005100Y006267D02*
X006499Y006267D01*
X006499Y006189D02*
X005100Y006189D01*
X005100Y006110D02*
X006499Y006110D01*
X006499Y006032D02*
X005100Y006032D01*
X005100Y005953D02*
X006499Y005953D01*
X006499Y005875D02*
X005100Y005875D01*
X005100Y005796D02*
X006499Y005796D01*
X006499Y005718D02*
X005100Y005718D01*
X005100Y005639D02*
X006499Y005639D01*
X006499Y005561D02*
X005100Y005561D01*
X005203Y005482D02*
X005697Y005482D01*
X005611Y005404D02*
X005289Y005404D01*
X005357Y005325D02*
X005544Y005325D01*
X005511Y005246D02*
X005389Y005246D01*
X005420Y005168D02*
X005480Y005168D01*
X005480Y005089D02*
X005420Y005089D01*
X005420Y005011D02*
X005480Y005011D01*
X005502Y004932D02*
X005398Y004932D01*
X005366Y004854D02*
X005534Y004854D01*
X005588Y004775D02*
X005312Y004775D01*
X005233Y004697D02*
X005667Y004697D01*
X005833Y004618D02*
X005068Y004618D01*
X004833Y004618D02*
X004170Y004618D01*
X004290Y004697D02*
X004667Y004697D01*
X004588Y004775D02*
X004360Y004775D01*
X004408Y004854D02*
X004534Y004854D01*
X004502Y004932D02*
X004439Y004932D01*
X004456Y005011D02*
X004480Y005011D01*
X004480Y005089D02*
X003990Y005089D01*
X004432Y005246D02*
X004511Y005246D01*
X004480Y005168D02*
X004452Y005168D01*
X004397Y005325D02*
X004544Y005325D01*
X004611Y005404D02*
X004344Y005404D01*
X004262Y005482D02*
X004697Y005482D01*
X003730Y004618D02*
X003429Y004618D01*
X003429Y004697D02*
X003610Y004697D01*
X003540Y004775D02*
X003429Y004775D01*
X003429Y004854D02*
X003492Y004854D01*
X003461Y004932D02*
X003429Y004932D01*
X003429Y005011D02*
X003444Y005011D01*
X003440Y005038D02*
X003440Y005038D01*
X003429Y004382D02*
X004354Y004382D01*
X004285Y004304D02*
X003429Y004304D01*
X003429Y004225D02*
X004239Y004225D01*
X004209Y004147D02*
X003429Y004147D01*
X003429Y003361D02*
X006499Y003361D01*
X006499Y003283D02*
X005918Y003283D01*
X005997Y003204D02*
X006499Y003204D01*
X006499Y003126D02*
X006009Y003126D01*
X006009Y003047D02*
X006499Y003047D01*
X006499Y002969D02*
X005968Y002969D01*
X005889Y002890D02*
X006499Y002890D01*
X006499Y002812D02*
X005712Y002812D01*
X005633Y002733D02*
X006499Y002733D01*
X006499Y002654D02*
X005555Y002654D01*
X005476Y002576D02*
X006499Y002576D01*
X006499Y002497D02*
X005398Y002497D01*
X005319Y002419D02*
X006499Y002419D01*
X006499Y002340D02*
X005240Y002340D01*
X005162Y002262D02*
X006499Y002262D01*
X006499Y002183D02*
X005100Y002183D01*
X005100Y002105D02*
X006499Y002105D01*
X006499Y002026D02*
X005100Y002026D01*
X005100Y001948D02*
X006499Y001948D01*
X006499Y001869D02*
X005100Y001869D01*
X005100Y001791D02*
X006499Y001791D01*
X006499Y001712D02*
X005100Y001712D01*
X005100Y001633D02*
X006499Y001633D01*
X006499Y001555D02*
X005100Y001555D01*
X005100Y001476D02*
X006499Y001476D01*
X006499Y001398D02*
X005100Y001398D01*
X005100Y001319D02*
X006499Y001319D01*
X006499Y001241D02*
X005100Y001241D01*
X005100Y001162D02*
X006499Y001162D01*
X006499Y001084D02*
X006129Y001084D01*
X006259Y001005D02*
X006499Y001005D01*
X006499Y000927D02*
X006337Y000927D01*
X006376Y000848D02*
X006499Y000848D01*
X006499Y000769D02*
X006409Y000769D01*
X006420Y000691D02*
X006499Y000691D01*
X006499Y000612D02*
X006420Y000612D01*
X006411Y000534D02*
X006499Y000534D01*
X006499Y000455D02*
X006379Y000455D01*
X006343Y000377D02*
X006499Y000377D01*
X006677Y000377D02*
X006765Y000377D01*
X006725Y000455D02*
X006677Y000455D01*
X006677Y000534D02*
X006700Y000534D01*
X006677Y000612D02*
X007158Y000612D01*
X007158Y000691D02*
X007238Y000691D01*
X007238Y000769D02*
X007158Y000769D01*
X007158Y000848D02*
X007238Y000848D01*
X007238Y000927D02*
X007158Y000927D01*
X007158Y001005D02*
X007238Y001005D01*
X007238Y001084D02*
X007158Y001084D01*
X006929Y001084D02*
X006677Y001084D01*
X006677Y001162D02*
X008048Y001162D01*
X008048Y001241D02*
X006677Y001241D01*
X006677Y001319D02*
X008048Y001319D01*
X008048Y001398D02*
X006677Y001398D01*
X006677Y001476D02*
X008048Y001476D01*
X008048Y001555D02*
X006677Y001555D01*
X006677Y001633D02*
X008048Y001633D01*
X008048Y001712D02*
X006677Y001712D01*
X006677Y001791D02*
X008048Y001791D01*
X008048Y001869D02*
X006677Y001869D01*
X006677Y001948D02*
X008048Y001948D01*
X008048Y002026D02*
X006677Y002026D01*
X006677Y002105D02*
X008048Y002105D01*
X008048Y002183D02*
X006677Y002183D01*
X006677Y002262D02*
X008048Y002262D01*
X008064Y002340D02*
X006677Y002340D01*
X006677Y002419D02*
X008143Y002419D01*
X008221Y002497D02*
X006677Y002497D01*
X006677Y002576D02*
X008300Y002576D01*
X008378Y002654D02*
X006677Y002654D01*
X006677Y002733D02*
X008457Y002733D01*
X008536Y002812D02*
X006677Y002812D01*
X006677Y002890D02*
X008614Y002890D01*
X008693Y002969D02*
X006677Y002969D01*
X006677Y003047D02*
X008771Y003047D01*
X008817Y003126D02*
X006677Y003126D01*
X006677Y003204D02*
X008829Y003204D01*
X008908Y003283D02*
X006677Y003283D01*
X006677Y003361D02*
X009747Y003361D01*
X009747Y003283D02*
X009166Y003283D01*
X009245Y003204D02*
X009747Y003204D01*
X009747Y003126D02*
X009257Y003126D01*
X009257Y003047D02*
X009747Y003047D01*
X009747Y002969D02*
X009216Y002969D01*
X009137Y002890D02*
X009747Y002890D01*
X009747Y002812D02*
X008960Y002812D01*
X008881Y002733D02*
X009747Y002733D01*
X009747Y002654D02*
X008803Y002654D01*
X008724Y002576D02*
X009747Y002576D01*
X009747Y002497D02*
X008646Y002497D01*
X008567Y002419D02*
X009747Y002419D01*
X009747Y002340D02*
X008489Y002340D01*
X008410Y002262D02*
X009747Y002262D01*
X009747Y002183D02*
X008348Y002183D01*
X008348Y002105D02*
X009747Y002105D01*
X009747Y002026D02*
X008348Y002026D01*
X008348Y001948D02*
X009747Y001948D01*
X009747Y001869D02*
X008348Y001869D01*
X008348Y001791D02*
X009747Y001791D01*
X009747Y001712D02*
X008348Y001712D01*
X008348Y001633D02*
X009747Y001633D01*
X009747Y001555D02*
X008348Y001555D01*
X008348Y001476D02*
X009747Y001476D01*
X009747Y001398D02*
X008348Y001398D01*
X008348Y001319D02*
X009747Y001319D01*
X009747Y001241D02*
X008348Y001241D01*
X008348Y001162D02*
X009747Y001162D01*
X009747Y001084D02*
X009377Y001084D01*
X009507Y001005D02*
X009747Y001005D01*
X009747Y000927D02*
X009585Y000927D01*
X009624Y000848D02*
X009747Y000848D01*
X009747Y000769D02*
X009657Y000769D01*
X009668Y000691D02*
X009747Y000691D01*
X009747Y000612D02*
X009668Y000612D01*
X009659Y000534D02*
X009747Y000534D01*
X009747Y000455D02*
X009627Y000455D01*
X009591Y000377D02*
X009747Y000377D01*
X009925Y000377D02*
X010014Y000377D01*
X009973Y000455D02*
X009925Y000455D01*
X009925Y000534D02*
X009948Y000534D01*
X009925Y000612D02*
X010406Y000612D01*
X010406Y000689D02*
X009936Y000689D01*
X009936Y000689D01*
X009949Y000768D01*
X009974Y000845D01*
X010010Y000916D01*
X010057Y000981D01*
X010114Y001038D01*
X010179Y001085D01*
X010250Y001122D01*
X010327Y001146D01*
X010406Y001159D01*
X010406Y001159D01*
X010406Y000689D01*
X010406Y000691D02*
X010486Y000691D01*
X010486Y000689D02*
X010486Y001159D01*
X010486Y001159D01*
X010566Y001146D01*
X010642Y001122D01*
X010713Y001085D01*
X010778Y001038D01*
X010835Y000981D01*
X010882Y000916D01*
X010919Y000845D01*
X010944Y000768D01*
X010956Y000689D01*
X010956Y000689D01*
X010486Y000689D01*
X010486Y000612D02*
X010976Y000612D01*
X010956Y000609D02*
X010956Y000609D01*
X010944Y000534D02*
X010985Y000534D01*
X011018Y000455D02*
X010919Y000455D01*
X010879Y000377D02*
X011054Y000377D01*
X010976Y000691D02*
X010956Y000691D01*
X010943Y000769D02*
X010987Y000769D01*
X011020Y000848D02*
X010917Y000848D01*
X010875Y000927D02*
X011059Y000927D01*
X011138Y001005D02*
X010811Y001005D01*
X010716Y001084D02*
X011267Y001084D01*
X011296Y001162D02*
X009925Y001162D01*
X009925Y001084D02*
X010177Y001084D01*
X010081Y001005D02*
X009925Y001005D01*
X009925Y000927D02*
X010017Y000927D01*
X009975Y000848D02*
X009925Y000848D01*
X009925Y000769D02*
X009949Y000769D01*
X009936Y000691D02*
X009925Y000691D01*
X010406Y000769D02*
X010486Y000769D01*
X010486Y000848D02*
X010406Y000848D01*
X010406Y000927D02*
X010486Y000927D01*
X010486Y001005D02*
X010406Y001005D01*
X010406Y001084D02*
X010486Y001084D01*
X009925Y001241D02*
X011296Y001241D01*
X011296Y001319D02*
X009925Y001319D01*
X009925Y001398D02*
X011296Y001398D01*
X011296Y001476D02*
X009925Y001476D01*
X009925Y001555D02*
X011296Y001555D01*
X011296Y001633D02*
X009925Y001633D01*
X009925Y001712D02*
X011296Y001712D01*
X011296Y001791D02*
X009925Y001791D01*
X009925Y001869D02*
X011296Y001869D01*
X011296Y001948D02*
X009925Y001948D01*
X009925Y002026D02*
X011296Y002026D01*
X011296Y002105D02*
X009925Y002105D01*
X009925Y002183D02*
X011296Y002183D01*
X011296Y002262D02*
X009925Y002262D01*
X009925Y002340D02*
X011312Y002340D01*
X011391Y002419D02*
X009925Y002419D01*
X009925Y002497D02*
X011469Y002497D01*
X011548Y002576D02*
X009925Y002576D01*
X009925Y002654D02*
X011626Y002654D01*
X011705Y002733D02*
X009925Y002733D01*
X009925Y002812D02*
X011784Y002812D01*
X011862Y002890D02*
X009925Y002890D01*
X009925Y002969D02*
X011941Y002969D01*
X012019Y003047D02*
X009925Y003047D01*
X009925Y003126D02*
X012065Y003126D01*
X012077Y003204D02*
X009925Y003204D01*
X009925Y003283D02*
X012156Y003283D01*
X012415Y003283D02*
X012995Y003283D01*
X012995Y003361D02*
X009925Y003361D01*
X009925Y004147D02*
X010705Y004147D01*
X010735Y004225D02*
X009925Y004225D01*
X009925Y004304D02*
X010781Y004304D01*
X010850Y004382D02*
X009925Y004382D01*
X009747Y004382D02*
X008292Y004382D01*
X008361Y004304D02*
X009747Y004304D01*
X009747Y004225D02*
X008408Y004225D01*
X008438Y004147D02*
X009747Y004147D01*
X009747Y004618D02*
X009316Y004618D01*
X009481Y004697D02*
X009747Y004697D01*
X009747Y004775D02*
X009560Y004775D01*
X009614Y004854D02*
X009747Y004854D01*
X009747Y004932D02*
X009646Y004932D01*
X009668Y005011D02*
X009747Y005011D01*
X009747Y005089D02*
X009668Y005089D01*
X009668Y005168D02*
X009747Y005168D01*
X009747Y005246D02*
X009637Y005246D01*
X009605Y005325D02*
X009747Y005325D01*
X009747Y005404D02*
X009537Y005404D01*
X009451Y005482D02*
X009747Y005482D01*
X009747Y005561D02*
X008348Y005561D01*
X008348Y005639D02*
X009747Y005639D01*
X009747Y005718D02*
X008348Y005718D01*
X008348Y005796D02*
X009747Y005796D01*
X009747Y005875D02*
X008348Y005875D01*
X008348Y005953D02*
X009747Y005953D01*
X009747Y006032D02*
X008348Y006032D01*
X008348Y006110D02*
X009747Y006110D01*
X009747Y006189D02*
X008348Y006189D01*
X008348Y006267D02*
X009747Y006267D01*
X009747Y006346D02*
X008348Y006346D01*
X008348Y006425D02*
X009747Y006425D01*
X009747Y006503D02*
X008348Y006503D01*
X008348Y006582D02*
X009747Y006582D01*
X009747Y006660D02*
X008379Y006660D01*
X008458Y006739D02*
X009747Y006739D01*
X009747Y006817D02*
X008536Y006817D01*
X008615Y006896D02*
X009747Y006896D01*
X009747Y006974D02*
X008693Y006974D01*
X008772Y007053D02*
X009747Y007053D01*
X009747Y007131D02*
X008851Y007131D01*
X008929Y007210D02*
X009747Y007210D01*
X009747Y007289D02*
X009008Y007289D01*
X009185Y007367D02*
X009747Y007367D01*
X009747Y007446D02*
X009257Y007446D01*
X009257Y007524D02*
X009747Y007524D01*
X009747Y007603D02*
X009257Y007603D01*
X009197Y007681D02*
X009747Y007681D01*
X009747Y007760D02*
X006677Y007760D01*
X006677Y007838D02*
X009747Y007838D01*
X009925Y007838D02*
X012995Y007838D01*
X012995Y007760D02*
X009925Y007760D01*
X009925Y007681D02*
X012125Y007681D01*
X012065Y007603D02*
X009925Y007603D01*
X009925Y007524D02*
X012065Y007524D01*
X011988Y007446D02*
X009925Y007446D01*
X009925Y007367D02*
X011910Y007367D01*
X011831Y007289D02*
X009925Y007289D01*
X009925Y007210D02*
X011753Y007210D01*
X011674Y007131D02*
X009925Y007131D01*
X009925Y007053D02*
X011596Y007053D01*
X011517Y006974D02*
X009925Y006974D01*
X009925Y006896D02*
X011439Y006896D01*
X011360Y006817D02*
X009925Y006817D01*
X009925Y006739D02*
X011296Y006739D01*
X011296Y006660D02*
X009925Y006660D01*
X009925Y006582D02*
X011296Y006582D01*
X011296Y006503D02*
X009925Y006503D01*
X009925Y006425D02*
X011296Y006425D01*
X011296Y006346D02*
X009925Y006346D01*
X009925Y006267D02*
X011296Y006267D01*
X011296Y006189D02*
X009925Y006189D01*
X009925Y006110D02*
X011296Y006110D01*
X011296Y006032D02*
X009925Y006032D01*
X009925Y005953D02*
X011296Y005953D01*
X011296Y005875D02*
X009925Y005875D01*
X009925Y005796D02*
X011296Y005796D01*
X011296Y005718D02*
X009925Y005718D01*
X009925Y005639D02*
X011296Y005639D01*
X011296Y005561D02*
X010611Y005561D01*
X010642Y005551D02*
X010566Y005576D01*
X010486Y005588D01*
X010486Y005118D01*
X010956Y005118D01*
X010956Y005118D01*
X010944Y005198D01*
X010919Y005274D01*
X010882Y005345D01*
X010835Y005410D01*
X010778Y005467D01*
X010713Y005514D01*
X010642Y005551D01*
X010758Y005482D02*
X011193Y005482D01*
X011107Y005404D02*
X010840Y005404D01*
X010893Y005325D02*
X011040Y005325D01*
X011007Y005246D02*
X010928Y005246D01*
X010948Y005168D02*
X010976Y005168D01*
X010976Y005089D02*
X010486Y005089D01*
X010486Y005168D02*
X010406Y005168D01*
X010406Y005118D02*
X010406Y005588D01*
X010327Y005576D01*
X010250Y005551D01*
X010179Y005514D01*
X010114Y005467D01*
X010057Y005410D01*
X010010Y005345D01*
X009974Y005274D01*
X009949Y005198D01*
X009936Y005118D01*
X010406Y005118D01*
X010406Y005089D02*
X009925Y005089D01*
X009936Y005118D02*
X009936Y005118D01*
X009944Y005168D02*
X009925Y005168D01*
X009925Y005246D02*
X009965Y005246D01*
X010000Y005325D02*
X009925Y005325D01*
X009925Y005404D02*
X010052Y005404D01*
X010135Y005482D02*
X009925Y005482D01*
X009925Y005561D02*
X010281Y005561D01*
X010406Y005561D02*
X010486Y005561D01*
X010486Y005588D02*
X010486Y005588D01*
X010406Y005588D02*
X010406Y005588D01*
X010406Y005482D02*
X010486Y005482D01*
X010486Y005404D02*
X010406Y005404D01*
X010406Y005325D02*
X010486Y005325D01*
X010486Y005246D02*
X010406Y005246D01*
X009936Y005038D02*
X009936Y005038D01*
X009940Y005011D02*
X009925Y005011D01*
X009925Y004932D02*
X009957Y004932D01*
X009988Y004854D02*
X009925Y004854D01*
X009925Y004775D02*
X010036Y004775D01*
X010106Y004697D02*
X009925Y004697D01*
X009925Y004618D02*
X010226Y004618D01*
X010667Y004618D02*
X011329Y004618D01*
X011163Y004697D02*
X010786Y004697D01*
X010856Y004775D02*
X011084Y004775D01*
X011030Y004854D02*
X010904Y004854D01*
X010935Y004932D02*
X010998Y004932D01*
X010976Y005011D02*
X010952Y005011D01*
X011564Y004618D02*
X012329Y004618D01*
X012163Y004697D02*
X011729Y004697D01*
X011808Y004775D02*
X012084Y004775D01*
X012030Y004854D02*
X011862Y004854D01*
X011894Y004932D02*
X011998Y004932D01*
X011976Y005011D02*
X011916Y005011D01*
X011916Y005089D02*
X011976Y005089D01*
X011976Y005168D02*
X011916Y005168D01*
X011885Y005246D02*
X012007Y005246D01*
X012040Y005325D02*
X011853Y005325D01*
X011785Y005404D02*
X012107Y005404D01*
X012193Y005482D02*
X011699Y005482D01*
X011596Y005561D02*
X012995Y005561D01*
X012995Y005639D02*
X011596Y005639D01*
X011596Y005718D02*
X012995Y005718D01*
X012995Y005796D02*
X011596Y005796D01*
X011596Y005875D02*
X012995Y005875D01*
X012995Y005953D02*
X011596Y005953D01*
X011596Y006032D02*
X012995Y006032D01*
X012995Y006110D02*
X011596Y006110D01*
X011596Y006189D02*
X012995Y006189D01*
X012995Y006267D02*
X011596Y006267D01*
X011596Y006346D02*
X012995Y006346D01*
X012995Y006425D02*
X011596Y006425D01*
X011596Y006503D02*
X012995Y006503D01*
X012995Y006582D02*
X011596Y006582D01*
X011627Y006660D02*
X012995Y006660D01*
X012995Y006739D02*
X011706Y006739D01*
X011784Y006817D02*
X012995Y006817D01*
X012995Y006896D02*
X011863Y006896D01*
X011941Y006974D02*
X012995Y006974D01*
X012995Y007053D02*
X012020Y007053D01*
X012099Y007131D02*
X012995Y007131D01*
X012995Y007210D02*
X012177Y007210D01*
X012256Y007289D02*
X012995Y007289D01*
X012995Y007367D02*
X012433Y007367D01*
X012505Y007446D02*
X012995Y007446D01*
X012995Y007524D02*
X012505Y007524D01*
X012505Y007603D02*
X012995Y007603D01*
X012995Y007681D02*
X012445Y007681D01*
X013173Y007681D02*
X015373Y007681D01*
X015313Y007603D02*
X013173Y007603D01*
X013173Y007524D02*
X015313Y007524D01*
X015236Y007446D02*
X013173Y007446D01*
X013173Y007367D02*
X015158Y007367D01*
X015079Y007289D02*
X013173Y007289D01*
X013173Y007210D02*
X015001Y007210D01*
X014922Y007131D02*
X013173Y007131D01*
X013173Y007053D02*
X014844Y007053D01*
X014765Y006974D02*
X013173Y006974D01*
X013173Y006896D02*
X014687Y006896D01*
X014608Y006817D02*
X013173Y006817D01*
X013173Y006739D02*
X014544Y006739D01*
X014544Y006660D02*
X013173Y006660D01*
X013173Y006582D02*
X014544Y006582D01*
X014544Y006503D02*
X013173Y006503D01*
X013173Y006425D02*
X014544Y006425D01*
X014544Y006346D02*
X013173Y006346D01*
X013173Y006267D02*
X014544Y006267D01*
X014544Y006189D02*
X013173Y006189D01*
X013173Y006110D02*
X014544Y006110D01*
X014544Y006032D02*
X013173Y006032D01*
X013173Y005953D02*
X014544Y005953D01*
X014544Y005875D02*
X013173Y005875D01*
X013173Y005796D02*
X014544Y005796D01*
X014544Y005718D02*
X013173Y005718D01*
X013173Y005639D02*
X014544Y005639D01*
X014544Y005561D02*
X013860Y005561D01*
X013890Y005551D02*
X013814Y005576D01*
X013734Y005588D01*
X013734Y005118D01*
X014204Y005118D01*
X014204Y005118D01*
X014192Y005198D01*
X014167Y005274D01*
X014130Y005345D01*
X014083Y005410D01*
X014026Y005467D01*
X013961Y005514D01*
X013890Y005551D01*
X014006Y005482D02*
X014441Y005482D01*
X014355Y005404D02*
X014088Y005404D01*
X014141Y005325D02*
X014288Y005325D01*
X014255Y005246D02*
X014176Y005246D01*
X014196Y005168D02*
X014224Y005168D01*
X014224Y005089D02*
X013734Y005089D01*
X013734Y005168D02*
X013654Y005168D01*
X013654Y005118D02*
X013654Y005588D01*
X013575Y005576D01*
X013498Y005551D01*
X013427Y005514D01*
X013362Y005467D01*
X013305Y005410D01*
X013258Y005345D01*
X013222Y005274D01*
X013197Y005198D01*
X013184Y005118D01*
X013654Y005118D01*
X013654Y005089D02*
X013173Y005089D01*
X013184Y005118D02*
X013184Y005118D01*
X013192Y005168D02*
X013173Y005168D01*
X013173Y005246D02*
X013213Y005246D01*
X013248Y005325D02*
X013173Y005325D01*
X013173Y005404D02*
X013300Y005404D01*
X013383Y005482D02*
X013173Y005482D01*
X013173Y005561D02*
X013529Y005561D01*
X013654Y005561D02*
X013734Y005561D01*
X013734Y005588D02*
X013734Y005588D01*
X013654Y005588D02*
X013654Y005588D01*
X013654Y005482D02*
X013734Y005482D01*
X013734Y005404D02*
X013654Y005404D01*
X013654Y005325D02*
X013734Y005325D01*
X013734Y005246D02*
X013654Y005246D01*
X013184Y005038D02*
X013184Y005038D01*
X013188Y005011D02*
X013173Y005011D01*
X013173Y004932D02*
X013205Y004932D01*
X013236Y004854D02*
X013173Y004854D01*
X013173Y004775D02*
X013284Y004775D01*
X013354Y004697D02*
X013173Y004697D01*
X013173Y004618D02*
X013474Y004618D01*
X013173Y004382D02*
X014098Y004382D01*
X014029Y004304D02*
X013173Y004304D01*
X012995Y004618D02*
X012564Y004618D01*
X012729Y004697D02*
X012995Y004697D01*
X012995Y004775D02*
X012808Y004775D01*
X012862Y004854D02*
X012995Y004854D01*
X012995Y004932D02*
X012894Y004932D01*
X012916Y005011D02*
X012995Y005011D01*
X012995Y005089D02*
X012916Y005089D01*
X012916Y005168D02*
X012995Y005168D01*
X012995Y005246D02*
X012885Y005246D01*
X012853Y005325D02*
X012995Y005325D01*
X012995Y005404D02*
X012785Y005404D01*
X012699Y005482D02*
X012995Y005482D01*
X013915Y004618D02*
X014577Y004618D01*
X014411Y004697D02*
X014034Y004697D01*
X014104Y004775D02*
X014332Y004775D01*
X014278Y004854D02*
X014152Y004854D01*
X014183Y004932D02*
X014246Y004932D01*
X014224Y005011D02*
X014200Y005011D01*
X014812Y004618D02*
X015577Y004618D01*
X015411Y004697D02*
X014977Y004697D01*
X015056Y004775D02*
X015332Y004775D01*
X015278Y004854D02*
X015110Y004854D01*
X015142Y004932D02*
X015246Y004932D01*
X015224Y005011D02*
X015164Y005011D01*
X015164Y005089D02*
X015224Y005089D01*
X015224Y005168D02*
X015164Y005168D01*
X015133Y005246D02*
X015255Y005246D01*
X015288Y005325D02*
X015101Y005325D01*
X015033Y005404D02*
X015355Y005404D01*
X015441Y005482D02*
X014947Y005482D01*
X014844Y005561D02*
X016243Y005561D01*
X016243Y005639D02*
X014844Y005639D01*
X014844Y005718D02*
X016243Y005718D01*
X016243Y005796D02*
X014844Y005796D01*
X014844Y005875D02*
X016243Y005875D01*
X016243Y005953D02*
X014844Y005953D01*
X014844Y006032D02*
X016243Y006032D01*
X016243Y006110D02*
X014844Y006110D01*
X014844Y006189D02*
X016243Y006189D01*
X016243Y006267D02*
X014844Y006267D01*
X014844Y006346D02*
X016243Y006346D01*
X016243Y006425D02*
X014844Y006425D01*
X014844Y006503D02*
X016243Y006503D01*
X016243Y006582D02*
X014844Y006582D01*
X014875Y006660D02*
X016243Y006660D01*
X016243Y006739D02*
X014954Y006739D01*
X015032Y006817D02*
X016243Y006817D01*
X016243Y006896D02*
X015111Y006896D01*
X015189Y006974D02*
X016243Y006974D01*
X016243Y007053D02*
X015268Y007053D01*
X015347Y007131D02*
X016243Y007131D01*
X016243Y007210D02*
X015425Y007210D01*
X015504Y007289D02*
X016243Y007289D01*
X016243Y007367D02*
X015681Y007367D01*
X015753Y007446D02*
X016243Y007446D01*
X016243Y007524D02*
X015753Y007524D01*
X015753Y007603D02*
X016243Y007603D01*
X016243Y007681D02*
X015693Y007681D01*
X016243Y007760D02*
X013173Y007760D01*
X013173Y007838D02*
X016243Y007838D01*
X016421Y007681D02*
X018621Y007681D01*
X018561Y007603D02*
X016421Y007603D01*
X016421Y007524D02*
X018561Y007524D01*
X018485Y007446D02*
X016421Y007446D01*
X016421Y007367D02*
X018406Y007367D01*
X018327Y007289D02*
X016421Y007289D01*
X016421Y007210D02*
X018249Y007210D01*
X018170Y007131D02*
X016421Y007131D01*
X016421Y007053D02*
X018092Y007053D01*
X018013Y006974D02*
X016421Y006974D01*
X016421Y006896D02*
X017935Y006896D01*
X017856Y006817D02*
X016421Y006817D01*
X016421Y006739D02*
X017792Y006739D01*
X017792Y006660D02*
X016421Y006660D01*
X016421Y006582D02*
X017792Y006582D01*
X017792Y006503D02*
X016421Y006503D01*
X016421Y006425D02*
X017792Y006425D01*
X017792Y006346D02*
X016421Y006346D01*
X016421Y006267D02*
X017792Y006267D01*
X017792Y006189D02*
X016421Y006189D01*
X016421Y006110D02*
X017792Y006110D01*
X017792Y006032D02*
X016421Y006032D01*
X016421Y005953D02*
X017792Y005953D01*
X017792Y005875D02*
X016421Y005875D01*
X016421Y005796D02*
X017792Y005796D01*
X017792Y005718D02*
X016421Y005718D01*
X016421Y005639D02*
X017792Y005639D01*
X017472Y005011D02*
X017448Y005011D01*
X017431Y004932D02*
X017494Y004932D01*
X017526Y004854D02*
X017400Y004854D01*
X017352Y004775D02*
X017580Y004775D01*
X017659Y004697D02*
X017282Y004697D01*
X017163Y004618D02*
X017825Y004618D01*
X018036Y004382D02*
X019391Y004382D01*
X019391Y004304D02*
X018105Y004304D01*
X018152Y004225D02*
X019391Y004225D01*
X019391Y004147D02*
X018182Y004147D01*
X018198Y004068D02*
X019391Y004068D01*
X019391Y003990D02*
X017731Y003990D01*
X018171Y003833D02*
X019391Y003833D01*
X019391Y003911D02*
X018193Y003911D01*
X018135Y003754D02*
X019391Y003754D01*
X019391Y003676D02*
X018081Y003676D01*
X017996Y003597D02*
X019391Y003597D01*
X019391Y003518D02*
X017840Y003518D01*
X018437Y002969D02*
X016421Y002969D01*
X016421Y003047D02*
X018515Y003047D01*
X018561Y003126D02*
X016421Y003126D01*
X016421Y003204D02*
X018573Y003204D01*
X018652Y003283D02*
X016421Y003283D01*
X016421Y003361D02*
X019391Y003361D01*
X019391Y003283D02*
X018911Y003283D01*
X018989Y003204D02*
X019391Y003204D01*
X019391Y003126D02*
X019001Y003126D01*
X019001Y003047D02*
X019391Y003047D01*
X019391Y002969D02*
X018960Y002969D01*
X018881Y002890D02*
X019391Y002890D01*
X019391Y002812D02*
X018704Y002812D01*
X018625Y002733D02*
X019391Y002733D01*
X019391Y002654D02*
X018547Y002654D01*
X018468Y002576D02*
X019391Y002576D01*
X019391Y002497D02*
X018390Y002497D01*
X018311Y002419D02*
X019391Y002419D01*
X019391Y002340D02*
X018233Y002340D01*
X018154Y002262D02*
X019391Y002262D01*
X019391Y002183D02*
X018092Y002183D01*
X018092Y002105D02*
X019391Y002105D01*
X019391Y002026D02*
X018092Y002026D01*
X018092Y001948D02*
X019391Y001948D01*
X019391Y001869D02*
X018092Y001869D01*
X018092Y001791D02*
X019391Y001791D01*
X019391Y001712D02*
X018092Y001712D01*
X018092Y001633D02*
X019391Y001633D01*
X019391Y001555D02*
X018092Y001555D01*
X018092Y001476D02*
X019391Y001476D01*
X019391Y001398D02*
X018092Y001398D01*
X018092Y001319D02*
X019391Y001319D01*
X019391Y001241D02*
X018092Y001241D01*
X018092Y001162D02*
X019391Y001162D01*
X019391Y001084D02*
X019121Y001084D01*
X019251Y001005D02*
X019391Y001005D01*
X019391Y000927D02*
X019329Y000927D01*
X019368Y000848D02*
X019391Y000848D01*
X018763Y001084D02*
X018121Y001084D01*
X018251Y001005D02*
X018634Y001005D01*
X018555Y000927D02*
X018329Y000927D01*
X018368Y000848D02*
X018516Y000848D01*
X018483Y000769D02*
X018401Y000769D01*
X018412Y000691D02*
X018472Y000691D01*
X018472Y000612D02*
X018412Y000612D01*
X018403Y000534D02*
X018481Y000534D01*
X018514Y000455D02*
X018371Y000455D01*
X018335Y000377D02*
X018550Y000377D01*
X017763Y001084D02*
X017212Y001084D01*
X017209Y001085D02*
X017138Y001122D01*
X017062Y001146D01*
X016982Y001159D01*
X016982Y000689D01*
X017452Y000689D01*
X017440Y000768D01*
X017415Y000845D01*
X017378Y000916D01*
X017331Y000981D01*
X017274Y001038D01*
X017209Y001085D01*
X017307Y001005D02*
X017634Y001005D01*
X017555Y000927D02*
X017371Y000927D01*
X017413Y000848D02*
X017516Y000848D01*
X017483Y000769D02*
X017439Y000769D01*
X017452Y000691D02*
X017472Y000691D01*
X017452Y000689D02*
X017452Y000689D01*
X017472Y000612D02*
X016982Y000612D01*
X016982Y000691D02*
X016902Y000691D01*
X016902Y000689D02*
X016902Y001159D01*
X016823Y001146D01*
X016746Y001122D01*
X016675Y001085D01*
X016610Y001038D01*
X016553Y000981D01*
X016506Y000916D01*
X016470Y000845D01*
X016445Y000768D01*
X016432Y000689D01*
X016902Y000689D01*
X016902Y000612D02*
X016421Y000612D01*
X016432Y000689D02*
X016432Y000689D01*
X016433Y000691D02*
X016421Y000691D01*
X016421Y000769D02*
X016445Y000769D01*
X016421Y000848D02*
X016471Y000848D01*
X016514Y000927D02*
X016421Y000927D01*
X016421Y001005D02*
X016577Y001005D01*
X016673Y001084D02*
X016421Y001084D01*
X016421Y001162D02*
X017792Y001162D01*
X017792Y001241D02*
X016421Y001241D01*
X016421Y001319D02*
X017792Y001319D01*
X017792Y001398D02*
X016421Y001398D01*
X016421Y001476D02*
X017792Y001476D01*
X017792Y001555D02*
X016421Y001555D01*
X016421Y001633D02*
X017792Y001633D01*
X017792Y001712D02*
X016421Y001712D01*
X016421Y001791D02*
X017792Y001791D01*
X017792Y001869D02*
X016421Y001869D01*
X016421Y001948D02*
X017792Y001948D01*
X017792Y002026D02*
X016421Y002026D01*
X016421Y002105D02*
X017792Y002105D01*
X017792Y002183D02*
X016421Y002183D01*
X016421Y002262D02*
X017792Y002262D01*
X017808Y002340D02*
X016421Y002340D01*
X016421Y002419D02*
X017887Y002419D01*
X017965Y002497D02*
X016421Y002497D01*
X016421Y002576D02*
X018044Y002576D01*
X018123Y002654D02*
X016421Y002654D01*
X016421Y002733D02*
X018201Y002733D01*
X018280Y002812D02*
X016421Y002812D01*
X016421Y002890D02*
X018358Y002890D01*
X019391Y003440D02*
X016421Y003440D01*
X016243Y003361D02*
X013173Y003361D01*
X013173Y003283D02*
X015404Y003283D01*
X015325Y003204D02*
X013173Y003204D01*
X013173Y003126D02*
X015313Y003126D01*
X015267Y003047D02*
X013173Y003047D01*
X013173Y002969D02*
X015189Y002969D01*
X015110Y002890D02*
X013173Y002890D01*
X013173Y002812D02*
X015032Y002812D01*
X014953Y002733D02*
X013173Y002733D01*
X013173Y002654D02*
X014874Y002654D01*
X014796Y002576D02*
X013173Y002576D01*
X013173Y002497D02*
X014717Y002497D01*
X014639Y002419D02*
X013173Y002419D01*
X013173Y002340D02*
X014560Y002340D01*
X014544Y002262D02*
X013173Y002262D01*
X013173Y002183D02*
X014544Y002183D01*
X014544Y002105D02*
X013173Y002105D01*
X013173Y002026D02*
X014544Y002026D01*
X014544Y001948D02*
X013173Y001948D01*
X013173Y001869D02*
X014544Y001869D01*
X014544Y001791D02*
X013173Y001791D01*
X013173Y001712D02*
X014544Y001712D01*
X014544Y001633D02*
X013173Y001633D01*
X013173Y001555D02*
X014544Y001555D01*
X014544Y001476D02*
X013173Y001476D01*
X013173Y001398D02*
X014544Y001398D01*
X014544Y001319D02*
X013173Y001319D01*
X013173Y001241D02*
X014544Y001241D01*
X014544Y001162D02*
X013173Y001162D01*
X013173Y001084D02*
X013425Y001084D01*
X013427Y001085D02*
X013362Y001038D01*
X013305Y000981D01*
X013258Y000916D01*
X013222Y000845D01*
X013197Y000768D01*
X013184Y000689D01*
X013184Y000689D01*
X013654Y000689D01*
X013654Y001159D01*
X013575Y001146D01*
X013498Y001122D01*
X013427Y001085D01*
X013329Y001005D02*
X013173Y001005D01*
X013173Y000927D02*
X013265Y000927D01*
X013223Y000848D02*
X013173Y000848D01*
X013173Y000769D02*
X013197Y000769D01*
X013184Y000691D02*
X013173Y000691D01*
X013173Y000612D02*
X013654Y000612D01*
X013654Y000691D02*
X013734Y000691D01*
X013734Y000689D02*
X013734Y001159D01*
X013734Y001159D01*
X013814Y001146D01*
X013890Y001122D01*
X013961Y001085D01*
X014026Y001038D01*
X014083Y000981D01*
X014130Y000916D01*
X014167Y000845D01*
X014192Y000768D01*
X014204Y000689D01*
X014204Y000689D01*
X013734Y000689D01*
X013734Y000612D02*
X014224Y000612D01*
X014204Y000609D02*
X014204Y000609D01*
X014192Y000534D02*
X014233Y000534D01*
X014266Y000455D02*
X014167Y000455D01*
X014127Y000377D02*
X014302Y000377D01*
X014224Y000691D02*
X014204Y000691D01*
X014191Y000769D02*
X014235Y000769D01*
X014268Y000848D02*
X014165Y000848D01*
X014123Y000927D02*
X014307Y000927D01*
X014386Y001005D02*
X014059Y001005D01*
X013964Y001084D02*
X014515Y001084D01*
X014844Y001162D02*
X016243Y001162D01*
X016243Y001084D02*
X015873Y001084D01*
X016003Y001005D02*
X016243Y001005D01*
X016243Y000927D02*
X016081Y000927D01*
X016120Y000848D02*
X016243Y000848D01*
X016243Y000769D02*
X016153Y000769D01*
X016164Y000691D02*
X016243Y000691D01*
X016243Y000612D02*
X016164Y000612D01*
X016155Y000534D02*
X016243Y000534D01*
X016243Y000455D02*
X016123Y000455D01*
X016087Y000377D02*
X016243Y000377D01*
X016421Y000377D02*
X016510Y000377D01*
X016469Y000455D02*
X016421Y000455D01*
X016421Y000534D02*
X016444Y000534D01*
X016902Y000769D02*
X016982Y000769D01*
X016982Y000848D02*
X016902Y000848D01*
X016902Y000927D02*
X016982Y000927D01*
X016982Y001005D02*
X016902Y001005D01*
X016902Y001084D02*
X016982Y001084D01*
X016982Y001159D02*
X016982Y001159D01*
X016902Y001159D02*
X016902Y001159D01*
X016243Y001241D02*
X014844Y001241D01*
X014844Y001319D02*
X016243Y001319D01*
X016243Y001398D02*
X014844Y001398D01*
X014844Y001476D02*
X016243Y001476D01*
X016243Y001555D02*
X014844Y001555D01*
X014844Y001633D02*
X016243Y001633D01*
X016243Y001712D02*
X014844Y001712D01*
X014844Y001791D02*
X016243Y001791D01*
X016243Y001869D02*
X014844Y001869D01*
X014844Y001948D02*
X016243Y001948D01*
X016243Y002026D02*
X014844Y002026D01*
X014844Y002105D02*
X016243Y002105D01*
X016243Y002183D02*
X014844Y002183D01*
X014906Y002262D02*
X016243Y002262D01*
X016243Y002340D02*
X014985Y002340D01*
X015063Y002419D02*
X016243Y002419D01*
X016243Y002497D02*
X015142Y002497D01*
X015220Y002576D02*
X016243Y002576D01*
X016243Y002654D02*
X015299Y002654D01*
X015377Y002733D02*
X016243Y002733D01*
X016243Y002812D02*
X015456Y002812D01*
X015633Y002890D02*
X016243Y002890D01*
X016243Y002969D02*
X015712Y002969D01*
X015753Y003047D02*
X016243Y003047D01*
X016243Y003126D02*
X015753Y003126D01*
X015741Y003204D02*
X016243Y003204D01*
X016243Y003283D02*
X015663Y003283D01*
X016243Y003597D02*
X014748Y003597D01*
X014833Y003676D02*
X016243Y003676D01*
X016243Y003754D02*
X014887Y003754D01*
X014923Y003833D02*
X016243Y003833D01*
X016243Y003911D02*
X014945Y003911D01*
X014950Y004068D02*
X016243Y004068D01*
X016243Y004147D02*
X014934Y004147D01*
X014904Y004225D02*
X016243Y004225D01*
X016243Y004304D02*
X014857Y004304D01*
X014788Y004382D02*
X016243Y004382D01*
X016243Y004618D02*
X015812Y004618D01*
X015977Y004697D02*
X016243Y004697D01*
X016243Y004775D02*
X016056Y004775D01*
X016110Y004854D02*
X016243Y004854D01*
X016243Y004932D02*
X016142Y004932D01*
X016164Y005011D02*
X016243Y005011D01*
X016243Y005089D02*
X016164Y005089D01*
X016164Y005168D02*
X016243Y005168D01*
X016243Y005246D02*
X016133Y005246D01*
X016101Y005325D02*
X016243Y005325D01*
X016243Y005404D02*
X016033Y005404D01*
X015947Y005482D02*
X016243Y005482D01*
X013933Y004046D02*
X013933Y004046D01*
X013933Y003966D02*
X013933Y003966D01*
X012995Y003204D02*
X012493Y003204D01*
X012505Y003126D02*
X012995Y003126D01*
X012995Y003047D02*
X012505Y003047D01*
X012464Y002969D02*
X012995Y002969D01*
X012995Y002890D02*
X012385Y002890D01*
X012208Y002812D02*
X012995Y002812D01*
X012995Y002733D02*
X012129Y002733D01*
X012051Y002654D02*
X012995Y002654D01*
X012995Y002576D02*
X011972Y002576D01*
X011894Y002497D02*
X012995Y002497D01*
X012995Y002419D02*
X011815Y002419D01*
X011736Y002340D02*
X012995Y002340D01*
X012995Y002262D02*
X011658Y002262D01*
X011596Y002183D02*
X012995Y002183D01*
X012995Y002105D02*
X011596Y002105D01*
X011596Y002026D02*
X012995Y002026D01*
X012995Y001948D02*
X011596Y001948D01*
X011596Y001869D02*
X012995Y001869D01*
X012995Y001791D02*
X011596Y001791D01*
X011596Y001712D02*
X012995Y001712D01*
X012995Y001633D02*
X011596Y001633D01*
X011596Y001555D02*
X012995Y001555D01*
X012995Y001476D02*
X011596Y001476D01*
X011596Y001398D02*
X012995Y001398D01*
X012995Y001319D02*
X011596Y001319D01*
X011596Y001241D02*
X012995Y001241D01*
X012995Y001162D02*
X011596Y001162D01*
X011625Y001084D02*
X012267Y001084D01*
X012138Y001005D02*
X011755Y001005D01*
X011833Y000927D02*
X012059Y000927D01*
X012020Y000848D02*
X011872Y000848D01*
X011905Y000769D02*
X011987Y000769D01*
X011976Y000691D02*
X011916Y000691D01*
X011916Y000612D02*
X011976Y000612D01*
X011985Y000534D02*
X011907Y000534D01*
X011875Y000455D02*
X012018Y000455D01*
X012054Y000377D02*
X011839Y000377D01*
X012625Y001084D02*
X012995Y001084D01*
X012995Y001005D02*
X012755Y001005D01*
X012833Y000927D02*
X012995Y000927D01*
X012995Y000848D02*
X012872Y000848D01*
X012905Y000769D02*
X012995Y000769D01*
X012995Y000691D02*
X012916Y000691D01*
X012916Y000612D02*
X012995Y000612D01*
X012995Y000534D02*
X012907Y000534D01*
X012875Y000455D02*
X012995Y000455D01*
X012995Y000377D02*
X012839Y000377D01*
X013173Y000377D02*
X013262Y000377D01*
X013221Y000455D02*
X013173Y000455D01*
X013173Y000534D02*
X013196Y000534D01*
X013654Y000769D02*
X013734Y000769D01*
X013734Y000848D02*
X013654Y000848D01*
X013654Y000927D02*
X013734Y000927D01*
X013734Y001005D02*
X013654Y001005D01*
X013654Y001084D02*
X013734Y001084D01*
X013654Y001159D02*
X013654Y001159D01*
X014873Y001084D02*
X015515Y001084D01*
X015386Y001005D02*
X015003Y001005D01*
X015081Y000927D02*
X015307Y000927D01*
X015268Y000848D02*
X015120Y000848D01*
X015153Y000769D02*
X015235Y000769D01*
X015224Y000691D02*
X015164Y000691D01*
X015164Y000612D02*
X015224Y000612D01*
X015233Y000534D02*
X015155Y000534D01*
X015123Y000455D02*
X015266Y000455D01*
X015302Y000377D02*
X015087Y000377D01*
X017375Y000377D02*
X017550Y000377D01*
X017514Y000455D02*
X017415Y000455D01*
X017440Y000534D02*
X017481Y000534D01*
X017452Y000609D02*
X017452Y000609D01*
X017651Y007995D02*
X017731Y007995D01*
X017731Y008074D02*
X017651Y008074D01*
X017651Y008153D02*
X017731Y008153D01*
X017731Y008231D02*
X017651Y008231D01*
X017651Y008310D02*
X017731Y008310D01*
X019080Y009959D02*
X019391Y009959D01*
X019391Y009880D02*
X019234Y009880D01*
X019312Y009802D02*
X019391Y009802D01*
X019391Y009723D02*
X019361Y009723D01*
X019391Y010038D02*
X018092Y010038D01*
X018092Y010116D02*
X019391Y010116D01*
X019391Y010195D02*
X018092Y010195D01*
X018092Y010273D02*
X019391Y010273D01*
X019391Y010352D02*
X018092Y010352D01*
X018092Y010430D02*
X019391Y010430D01*
X019391Y010509D02*
X018092Y010509D01*
X018092Y010587D02*
X019391Y010587D01*
X019391Y010666D02*
X018092Y010666D01*
X018092Y010744D02*
X019391Y010744D01*
X019391Y010823D02*
X018092Y010823D01*
X018092Y010902D02*
X019391Y010902D01*
X019391Y010980D02*
X018092Y010980D01*
X018093Y011059D02*
X019391Y011059D01*
X019391Y011137D02*
X018171Y011137D01*
X018250Y011216D02*
X019391Y011216D01*
X019391Y011294D02*
X018328Y011294D01*
X018407Y011373D02*
X019391Y011373D01*
X019391Y011451D02*
X018485Y011451D01*
X018564Y011530D02*
X019391Y011530D01*
X019391Y011608D02*
X018642Y011608D01*
X018721Y011687D02*
X019391Y011687D01*
X019391Y011766D02*
X018899Y011766D01*
X018977Y011844D02*
X019391Y011844D01*
X019391Y011923D02*
X019001Y011923D01*
X019001Y012001D02*
X019391Y012001D01*
X019391Y012080D02*
X018972Y012080D01*
X018893Y012158D02*
X019391Y012158D01*
X019391Y012394D02*
X017891Y012394D01*
X018019Y012472D02*
X019391Y012472D01*
X019391Y012551D02*
X018094Y012551D01*
X018144Y012629D02*
X019391Y012629D01*
X019391Y012708D02*
X018177Y012708D01*
X017731Y012708D02*
X017651Y012708D01*
X017651Y012629D02*
X017731Y012629D01*
X017731Y012551D02*
X017651Y012551D01*
X017651Y012472D02*
X017731Y012472D01*
X017731Y012394D02*
X017651Y012394D01*
X017188Y012944D02*
X016421Y012944D01*
X016421Y013022D02*
X017206Y013022D01*
X017239Y013101D02*
X016421Y013101D01*
X016421Y013179D02*
X017290Y013179D01*
X017365Y013258D02*
X016421Y013258D01*
X016243Y013258D02*
X014770Y013258D01*
X014845Y013179D02*
X016243Y013179D01*
X016243Y013101D02*
X014895Y013101D01*
X014928Y013022D02*
X016243Y013022D01*
X016243Y012944D02*
X014947Y012944D01*
X014483Y012708D02*
X014403Y012708D01*
X014403Y012629D02*
X014483Y012629D01*
X014483Y012551D02*
X014403Y012551D01*
X014403Y012472D02*
X014483Y012472D01*
X014483Y012394D02*
X014403Y012394D01*
X013939Y012944D02*
X013173Y012944D01*
X013173Y013022D02*
X013958Y013022D01*
X013991Y013101D02*
X013173Y013101D01*
X013173Y013179D02*
X014042Y013179D01*
X014117Y013258D02*
X013173Y013258D01*
X012995Y013258D02*
X011522Y013258D01*
X011597Y013179D02*
X012995Y013179D01*
X012995Y013101D02*
X011647Y013101D01*
X011680Y013022D02*
X012995Y013022D01*
X012995Y012944D02*
X011699Y012944D01*
X011235Y012708D02*
X011155Y012708D01*
X011155Y012629D02*
X011235Y012629D01*
X011235Y012551D02*
X011155Y012551D01*
X011155Y012472D02*
X011235Y012472D01*
X011235Y012394D02*
X011155Y012394D01*
X010691Y012944D02*
X009925Y012944D01*
X009925Y013022D02*
X010710Y013022D01*
X010743Y013101D02*
X009925Y013101D01*
X009925Y013179D02*
X010794Y013179D01*
X010869Y013258D02*
X009925Y013258D01*
X009747Y013258D02*
X008274Y013258D01*
X008349Y013179D02*
X009747Y013179D01*
X009747Y013101D02*
X008399Y013101D01*
X008432Y013022D02*
X009747Y013022D01*
X009747Y012944D02*
X008451Y012944D01*
X007987Y012708D02*
X007907Y012708D01*
X007907Y012629D02*
X007987Y012629D01*
X007987Y012551D02*
X007907Y012551D01*
X007907Y012472D02*
X007987Y012472D01*
X007987Y012394D02*
X007907Y012394D01*
X007443Y012944D02*
X006677Y012944D01*
X006677Y013022D02*
X007462Y013022D01*
X007495Y013101D02*
X006677Y013101D01*
X006677Y013179D02*
X007546Y013179D01*
X007621Y013258D02*
X006677Y013258D01*
X006499Y013258D02*
X005025Y013258D01*
X005101Y013179D02*
X006499Y013179D01*
X006499Y013101D02*
X005151Y013101D01*
X005184Y013022D02*
X006499Y013022D01*
X006499Y012944D02*
X005203Y012944D01*
X004739Y012708D02*
X004659Y012708D01*
X004659Y012629D02*
X004739Y012629D01*
X004739Y012551D02*
X004659Y012551D01*
X004659Y012472D02*
X004739Y012472D01*
X004739Y012394D02*
X004659Y012394D01*
X004195Y012944D02*
X003429Y012944D01*
X003429Y013022D02*
X004214Y013022D01*
X004247Y013101D02*
X003429Y013101D01*
X003429Y013179D02*
X004298Y013179D01*
X004373Y013258D02*
X003429Y013258D01*
X003251Y013258D02*
X001777Y013258D01*
X001853Y013179D02*
X003251Y013179D01*
X003251Y013101D02*
X001903Y013101D01*
X001936Y013022D02*
X003251Y013022D01*
X003251Y012944D02*
X001955Y012944D01*
X001491Y012708D02*
X001411Y012708D01*
X001411Y012629D02*
X001491Y012629D01*
X001491Y012551D02*
X001411Y012551D01*
X001411Y012472D02*
X001491Y012472D01*
X001491Y012394D02*
X001411Y012394D01*
X000947Y012944D02*
X000281Y012944D01*
X000281Y013022D02*
X000966Y013022D01*
X000999Y013101D02*
X000281Y013101D01*
X000281Y013179D02*
X001050Y013179D01*
X001125Y013258D02*
X000281Y013258D01*
X000907Y013468D02*
X000969Y013500D01*
X001034Y013547D01*
X001091Y013604D01*
X001138Y013669D01*
X001175Y013741D01*
X001199Y013817D01*
X001212Y013896D01*
X001212Y013896D01*
X000742Y013896D01*
X000742Y013976D01*
X001212Y013976D01*
X001212Y013976D01*
X001199Y014056D01*
X001175Y014132D01*
X001138Y014204D01*
X001091Y014269D01*
X001034Y014325D01*
X000969Y014373D01*
X000898Y014409D01*
X000821Y014434D01*
X000742Y014446D01*
X000742Y013977D01*
X000662Y013977D01*
X000662Y014446D01*
X000583Y014434D01*
X000506Y014409D01*
X000435Y014373D01*
X000370Y014325D01*
X000313Y014269D01*
X000281Y014224D01*
X000281Y017719D01*
X001169Y017719D01*
X001119Y017683D01*
X001062Y017626D01*
X001015Y017561D01*
X000979Y017489D01*
X000954Y017413D01*
X000941Y017334D01*
X000941Y017334D01*
X001411Y017334D01*
X001411Y017254D01*
X000941Y017254D01*
X000941Y017254D01*
X000954Y017174D01*
X000979Y017098D01*
X001015Y017026D01*
X001062Y016961D01*
X001119Y016905D01*
X001184Y016857D01*
X001255Y016821D01*
X001332Y016796D01*
X001411Y016784D01*
X001411Y016784D01*
X001411Y017253D01*
X001491Y017253D01*
X001491Y016784D01*
X001491Y016784D01*
X001571Y016796D01*
X001647Y016821D01*
X001718Y016857D01*
X001783Y016905D01*
X001840Y016961D01*
X001887Y017026D01*
X001924Y017098D01*
X001949Y017174D01*
X001961Y017254D01*
X001491Y017254D01*
X001491Y017334D01*
X001961Y017334D01*
X001949Y017413D01*
X001924Y017489D01*
X001887Y017561D01*
X001840Y017626D01*
X001783Y017683D01*
X001733Y017719D01*
X003251Y017719D01*
X003251Y013468D01*
X002800Y013468D01*
X002968Y013538D01*
X003100Y013670D01*
X003172Y013843D01*
X003172Y014030D01*
X003100Y014203D01*
X002968Y014335D01*
X002796Y014406D01*
X002609Y014406D01*
X002436Y014335D01*
X002304Y014203D01*
X002232Y014030D01*
X002232Y013843D01*
X002304Y013670D01*
X002436Y013538D01*
X002604Y013468D01*
X001800Y013468D01*
X001968Y013538D01*
X002100Y013670D01*
X002172Y013843D01*
X002172Y014030D01*
X002100Y014203D01*
X001968Y014335D01*
X001852Y014383D01*
X001852Y015487D01*
X002533Y016169D01*
X002632Y016169D01*
X002761Y016297D01*
X002761Y016480D01*
X002632Y016608D01*
X002450Y016608D01*
X002321Y016480D01*
X002321Y016381D01*
X001552Y015612D01*
X001552Y015487D01*
X001552Y014383D01*
X001436Y014335D01*
X001304Y014203D01*
X001232Y014030D01*
X001232Y013843D01*
X001304Y013670D01*
X001436Y013538D01*
X001604Y013468D01*
X000907Y013468D01*
X000956Y013493D02*
X001543Y013493D01*
X001402Y013572D02*
X001059Y013572D01*
X001125Y013651D02*
X001323Y013651D01*
X001279Y013729D02*
X001169Y013729D01*
X001196Y013808D02*
X001247Y013808D01*
X001232Y013886D02*
X001210Y013886D01*
X001232Y013965D02*
X000742Y013965D01*
X000742Y014043D02*
X000662Y014043D01*
X000662Y014122D02*
X000742Y014122D01*
X000742Y014200D02*
X000662Y014200D01*
X000662Y014279D02*
X000742Y014279D01*
X000742Y014357D02*
X000662Y014357D01*
X000662Y014436D02*
X000742Y014436D01*
X000742Y014446D02*
X000742Y014446D01*
X000808Y014436D02*
X001552Y014436D01*
X001552Y014515D02*
X000281Y014515D01*
X000281Y014593D02*
X001552Y014593D01*
X001552Y014672D02*
X000281Y014672D01*
X000281Y014750D02*
X001552Y014750D01*
X001552Y014829D02*
X000281Y014829D01*
X000281Y014907D02*
X001552Y014907D01*
X001552Y014986D02*
X000281Y014986D01*
X000281Y015064D02*
X001552Y015064D01*
X001552Y015143D02*
X000281Y015143D01*
X000281Y015221D02*
X001552Y015221D01*
X001552Y015300D02*
X000281Y015300D01*
X000281Y015379D02*
X001552Y015379D01*
X001552Y015457D02*
X000281Y015457D01*
X000281Y015536D02*
X001552Y015536D01*
X001555Y015614D02*
X000281Y015614D01*
X000281Y015693D02*
X001633Y015693D01*
X001712Y015771D02*
X000281Y015771D01*
X000281Y015850D02*
X001790Y015850D01*
X001869Y015928D02*
X000281Y015928D01*
X000281Y016007D02*
X001947Y016007D01*
X002026Y016085D02*
X000281Y016085D01*
X000281Y016164D02*
X002104Y016164D01*
X002183Y016242D02*
X000281Y016242D01*
X000281Y016321D02*
X002261Y016321D01*
X002321Y016400D02*
X000281Y016400D01*
X000281Y016478D02*
X002321Y016478D01*
X002398Y016557D02*
X000281Y016557D01*
X000281Y016635D02*
X003251Y016635D01*
X003251Y016557D02*
X002684Y016557D01*
X002761Y016478D02*
X003251Y016478D01*
X003251Y016400D02*
X002761Y016400D01*
X002761Y016321D02*
X003251Y016321D01*
X003251Y016242D02*
X002706Y016242D01*
X002529Y016164D02*
X003251Y016164D01*
X003251Y016085D02*
X002450Y016085D01*
X002372Y016007D02*
X003251Y016007D01*
X003251Y015928D02*
X002293Y015928D01*
X002214Y015850D02*
X003251Y015850D01*
X003251Y015771D02*
X002136Y015771D01*
X002057Y015693D02*
X003251Y015693D01*
X003251Y015614D02*
X001979Y015614D01*
X001900Y015536D02*
X003251Y015536D01*
X003251Y015457D02*
X001852Y015457D01*
X001852Y015379D02*
X003251Y015379D01*
X003251Y015300D02*
X001852Y015300D01*
X001852Y015221D02*
X003251Y015221D01*
X003251Y015143D02*
X001852Y015143D01*
X001852Y015064D02*
X003251Y015064D01*
X003251Y014986D02*
X001852Y014986D01*
X001852Y014907D02*
X003251Y014907D01*
X003251Y014829D02*
X001852Y014829D01*
X001852Y014750D02*
X003251Y014750D01*
X003251Y014672D02*
X001852Y014672D01*
X001852Y014593D02*
X003251Y014593D01*
X003251Y014515D02*
X001852Y014515D01*
X001852Y014436D02*
X003251Y014436D01*
X003251Y014357D02*
X002914Y014357D01*
X003024Y014279D02*
X003251Y014279D01*
X003251Y014200D02*
X003101Y014200D01*
X003134Y014122D02*
X003251Y014122D01*
X003251Y014043D02*
X003166Y014043D01*
X003172Y013965D02*
X003251Y013965D01*
X003251Y013886D02*
X003172Y013886D01*
X003157Y013808D02*
X003251Y013808D01*
X003251Y013729D02*
X003125Y013729D01*
X003081Y013651D02*
X003251Y013651D01*
X003251Y013572D02*
X003002Y013572D01*
X002861Y013493D02*
X003251Y013493D01*
X003429Y013493D02*
X003696Y013493D01*
X003683Y013500D02*
X003745Y013468D01*
X003429Y013468D01*
X003429Y017719D01*
X004417Y017719D01*
X004367Y017683D01*
X004310Y017626D01*
X004263Y017561D01*
X004227Y017489D01*
X004202Y017413D01*
X004189Y017334D01*
X004189Y017334D01*
X004659Y017334D01*
X004659Y017254D01*
X004189Y017254D01*
X004189Y017254D01*
X004202Y017174D01*
X004227Y017098D01*
X004263Y017026D01*
X004310Y016961D01*
X004367Y016905D01*
X004432Y016857D01*
X004503Y016821D01*
X004580Y016796D01*
X004659Y016784D01*
X004659Y016784D01*
X004659Y017253D01*
X004739Y017253D01*
X004739Y016784D01*
X004739Y016784D01*
X004819Y016796D01*
X004895Y016821D01*
X004966Y016857D01*
X005031Y016905D01*
X005088Y016961D01*
X005135Y017026D01*
X005172Y017098D01*
X005197Y017174D01*
X005209Y017254D01*
X004739Y017254D01*
X004739Y017334D01*
X005209Y017334D01*
X005197Y017413D01*
X005172Y017489D01*
X005135Y017561D01*
X005088Y017626D01*
X005031Y017683D01*
X004981Y017719D01*
X006499Y017719D01*
X006499Y013468D01*
X006049Y013468D01*
X006216Y013538D01*
X006349Y013670D01*
X006420Y013843D01*
X006420Y014030D01*
X006349Y014203D01*
X006216Y014335D01*
X006044Y014406D01*
X005857Y014406D01*
X005684Y014335D01*
X005552Y014203D01*
X005480Y014030D01*
X005480Y013843D01*
X005552Y013670D01*
X005684Y013538D01*
X005852Y013468D01*
X005049Y013468D01*
X005216Y013538D01*
X005349Y013670D01*
X005420Y013843D01*
X005420Y014030D01*
X005349Y014203D01*
X005216Y014335D01*
X005100Y014383D01*
X005100Y015487D01*
X005781Y016169D01*
X005880Y016169D01*
X006009Y016297D01*
X006009Y016480D01*
X005880Y016608D01*
X005698Y016608D01*
X005569Y016480D01*
X005569Y016381D01*
X004800Y015612D01*
X004800Y015487D01*
X004800Y014383D01*
X004684Y014335D01*
X004552Y014203D01*
X004480Y014030D01*
X004480Y013843D01*
X004552Y013670D01*
X004684Y013538D01*
X004852Y013468D01*
X004155Y013468D01*
X004217Y013500D01*
X004282Y013547D01*
X004339Y013604D01*
X004386Y013669D01*
X004423Y013741D01*
X004447Y013817D01*
X004460Y013896D01*
X004460Y013896D01*
X003990Y013896D01*
X003990Y013976D01*
X004460Y013976D01*
X004460Y013976D01*
X004447Y014056D01*
X004423Y014132D01*
X004386Y014204D01*
X004339Y014269D01*
X004282Y014325D01*
X004217Y014373D01*
X004146Y014409D01*
X004069Y014434D01*
X003990Y014446D01*
X003990Y013977D01*
X003910Y013977D01*
X003910Y014446D01*
X003831Y014434D01*
X003754Y014409D01*
X003683Y014373D01*
X003618Y014325D01*
X003561Y014269D01*
X003514Y014204D01*
X003477Y014132D01*
X003453Y014056D01*
X003440Y013976D01*
X003910Y013976D01*
X003910Y013896D01*
X003440Y013896D01*
X003453Y013817D01*
X003477Y013741D01*
X003514Y013669D01*
X003561Y013604D01*
X003618Y013547D01*
X003683Y013500D01*
X003593Y013572D02*
X003429Y013572D01*
X003429Y013651D02*
X003527Y013651D01*
X003483Y013729D02*
X003429Y013729D01*
X003429Y013808D02*
X003456Y013808D01*
X003442Y013886D02*
X003429Y013886D01*
X003440Y013896D02*
X003440Y013896D01*
X003429Y013965D02*
X003910Y013965D01*
X003910Y014043D02*
X003990Y014043D01*
X003990Y013965D02*
X004480Y013965D01*
X004486Y014043D02*
X004449Y014043D01*
X004426Y014122D02*
X004518Y014122D01*
X004551Y014200D02*
X004388Y014200D01*
X004329Y014279D02*
X004628Y014279D01*
X004739Y014357D02*
X004238Y014357D01*
X004056Y014436D02*
X004800Y014436D01*
X004800Y014515D02*
X003429Y014515D01*
X003429Y014593D02*
X004800Y014593D01*
X004800Y014672D02*
X003429Y014672D01*
X003429Y014750D02*
X004800Y014750D01*
X004800Y014829D02*
X003429Y014829D01*
X003429Y014907D02*
X004800Y014907D01*
X004800Y014986D02*
X003429Y014986D01*
X003429Y015064D02*
X004800Y015064D01*
X004800Y015143D02*
X003429Y015143D01*
X003429Y015221D02*
X004800Y015221D01*
X004800Y015300D02*
X003429Y015300D01*
X003429Y015379D02*
X004800Y015379D01*
X004800Y015457D02*
X003429Y015457D01*
X003429Y015536D02*
X004800Y015536D01*
X004803Y015614D02*
X003429Y015614D01*
X003429Y015693D02*
X004881Y015693D01*
X004960Y015771D02*
X003429Y015771D01*
X003429Y015850D02*
X005038Y015850D01*
X005117Y015928D02*
X003429Y015928D01*
X003429Y016007D02*
X005195Y016007D01*
X005274Y016085D02*
X003429Y016085D01*
X003429Y016164D02*
X005352Y016164D01*
X005431Y016242D02*
X003429Y016242D01*
X003429Y016321D02*
X005510Y016321D01*
X005569Y016400D02*
X003429Y016400D01*
X003429Y016478D02*
X005569Y016478D01*
X005646Y016557D02*
X003429Y016557D01*
X003429Y016635D02*
X006499Y016635D01*
X006499Y016557D02*
X005932Y016557D01*
X006009Y016478D02*
X006499Y016478D01*
X006499Y016400D02*
X006009Y016400D01*
X006009Y016321D02*
X006499Y016321D01*
X006499Y016242D02*
X005954Y016242D01*
X005777Y016164D02*
X006499Y016164D01*
X006499Y016085D02*
X005698Y016085D01*
X005620Y016007D02*
X006499Y016007D01*
X006499Y015928D02*
X005541Y015928D01*
X005463Y015850D02*
X006499Y015850D01*
X006499Y015771D02*
X005384Y015771D01*
X005305Y015693D02*
X006499Y015693D01*
X006499Y015614D02*
X005227Y015614D01*
X005148Y015536D02*
X006499Y015536D01*
X006499Y015457D02*
X005100Y015457D01*
X005100Y015379D02*
X006499Y015379D01*
X006499Y015300D02*
X005100Y015300D01*
X005100Y015221D02*
X006499Y015221D01*
X006499Y015143D02*
X005100Y015143D01*
X005100Y015064D02*
X006499Y015064D01*
X006499Y014986D02*
X005100Y014986D01*
X005100Y014907D02*
X006499Y014907D01*
X006499Y014829D02*
X005100Y014829D01*
X005100Y014750D02*
X006499Y014750D01*
X006499Y014672D02*
X005100Y014672D01*
X005100Y014593D02*
X006499Y014593D01*
X006499Y014515D02*
X005100Y014515D01*
X005100Y014436D02*
X006499Y014436D01*
X006499Y014357D02*
X006162Y014357D01*
X006272Y014279D02*
X006499Y014279D01*
X006499Y014200D02*
X006349Y014200D01*
X006382Y014122D02*
X006499Y014122D01*
X006499Y014043D02*
X006414Y014043D01*
X006420Y013965D02*
X006499Y013965D01*
X006499Y013886D02*
X006420Y013886D01*
X006405Y013808D02*
X006499Y013808D01*
X006499Y013729D02*
X006373Y013729D01*
X006329Y013651D02*
X006499Y013651D01*
X006499Y013572D02*
X006250Y013572D01*
X006109Y013493D02*
X006499Y013493D01*
X006677Y013493D02*
X006944Y013493D01*
X006931Y013500D02*
X006993Y013468D01*
X006677Y013468D01*
X006677Y017719D01*
X007665Y017719D01*
X007615Y017683D01*
X007558Y017626D01*
X007511Y017561D01*
X007475Y017489D01*
X007450Y017413D01*
X007437Y017334D01*
X007437Y017334D01*
X007907Y017334D01*
X007907Y017254D01*
X007437Y017254D01*
X007437Y017254D01*
X007450Y017174D01*
X007475Y017098D01*
X007511Y017026D01*
X007558Y016961D01*
X007615Y016905D01*
X007680Y016857D01*
X007751Y016821D01*
X007828Y016796D01*
X007907Y016784D01*
X007907Y016784D01*
X007907Y017253D01*
X007987Y017253D01*
X007987Y016784D01*
X007987Y016784D01*
X008067Y016796D01*
X008143Y016821D01*
X008215Y016857D01*
X008279Y016905D01*
X008336Y016961D01*
X008383Y017026D01*
X008420Y017098D01*
X008445Y017174D01*
X008457Y017254D01*
X007987Y017254D01*
X007987Y017334D01*
X008457Y017334D01*
X008445Y017413D01*
X008420Y017489D01*
X008383Y017561D01*
X008336Y017626D01*
X008279Y017683D01*
X008229Y017719D01*
X009747Y017719D01*
X009747Y013468D01*
X009297Y013468D01*
X009464Y013538D01*
X009597Y013670D01*
X009668Y013843D01*
X009668Y014030D01*
X009597Y014203D01*
X009464Y014335D01*
X009292Y014406D01*
X009105Y014406D01*
X008932Y014335D01*
X008800Y014203D01*
X008728Y014030D01*
X008728Y013843D01*
X008800Y013670D01*
X008932Y013538D01*
X009100Y013468D01*
X008297Y013468D01*
X008464Y013538D01*
X008597Y013670D01*
X008668Y013843D01*
X008668Y014030D01*
X008597Y014203D01*
X008464Y014335D01*
X008348Y014383D01*
X008348Y015487D01*
X009029Y016169D01*
X009128Y016169D01*
X009257Y016297D01*
X009257Y016480D01*
X009128Y016608D01*
X008946Y016608D01*
X008817Y016480D01*
X008817Y016381D01*
X008048Y015612D01*
X008048Y015487D01*
X008048Y014383D01*
X007932Y014335D01*
X007800Y014203D01*
X007728Y014030D01*
X007728Y013843D01*
X007800Y013670D01*
X007932Y013538D01*
X008100Y013468D01*
X007403Y013468D01*
X007465Y013500D01*
X007530Y013547D01*
X007587Y013604D01*
X007634Y013669D01*
X007671Y013741D01*
X007696Y013817D01*
X007708Y013896D01*
X007708Y013896D01*
X007238Y013896D01*
X007238Y013976D01*
X007708Y013976D01*
X007708Y013976D01*
X007696Y014056D01*
X007671Y014132D01*
X007634Y014204D01*
X007587Y014269D01*
X007530Y014325D01*
X007465Y014373D01*
X007394Y014409D01*
X007318Y014434D01*
X007238Y014446D01*
X007238Y013977D01*
X007158Y013977D01*
X007158Y014446D01*
X007079Y014434D01*
X007002Y014409D01*
X006931Y014373D01*
X006866Y014325D01*
X006809Y014269D01*
X006762Y014204D01*
X006725Y014132D01*
X006701Y014056D01*
X006688Y013976D01*
X007158Y013976D01*
X007158Y013896D01*
X006688Y013896D01*
X006701Y013817D01*
X006725Y013741D01*
X006762Y013669D01*
X006809Y013604D01*
X006866Y013547D01*
X006931Y013500D01*
X006841Y013572D02*
X006677Y013572D01*
X006677Y013651D02*
X006775Y013651D01*
X006731Y013729D02*
X006677Y013729D01*
X006677Y013808D02*
X006704Y013808D01*
X006690Y013886D02*
X006677Y013886D01*
X006688Y013896D02*
X006688Y013896D01*
X006677Y013965D02*
X007158Y013965D01*
X007158Y014043D02*
X007238Y014043D01*
X007238Y013965D02*
X007728Y013965D01*
X007734Y014043D02*
X007698Y014043D01*
X007674Y014122D02*
X007766Y014122D01*
X007799Y014200D02*
X007636Y014200D01*
X007577Y014279D02*
X007876Y014279D01*
X007987Y014357D02*
X007486Y014357D01*
X007304Y014436D02*
X008048Y014436D01*
X008048Y014515D02*
X006677Y014515D01*
X006677Y014593D02*
X008048Y014593D01*
X008048Y014672D02*
X006677Y014672D01*
X006677Y014750D02*
X008048Y014750D01*
X008048Y014829D02*
X006677Y014829D01*
X006677Y014907D02*
X008048Y014907D01*
X008048Y014986D02*
X006677Y014986D01*
X006677Y015064D02*
X008048Y015064D01*
X008048Y015143D02*
X006677Y015143D01*
X006677Y015221D02*
X008048Y015221D01*
X008048Y015300D02*
X006677Y015300D01*
X006677Y015379D02*
X008048Y015379D01*
X008048Y015457D02*
X006677Y015457D01*
X006677Y015536D02*
X008048Y015536D01*
X008051Y015614D02*
X006677Y015614D01*
X006677Y015693D02*
X008129Y015693D01*
X008208Y015771D02*
X006677Y015771D01*
X006677Y015850D02*
X008286Y015850D01*
X008365Y015928D02*
X006677Y015928D01*
X006677Y016007D02*
X008443Y016007D01*
X008522Y016085D02*
X006677Y016085D01*
X006677Y016164D02*
X008600Y016164D01*
X008679Y016242D02*
X006677Y016242D01*
X006677Y016321D02*
X008758Y016321D01*
X008817Y016400D02*
X006677Y016400D01*
X006677Y016478D02*
X008817Y016478D01*
X008894Y016557D02*
X006677Y016557D01*
X006677Y016635D02*
X009747Y016635D01*
X009747Y016557D02*
X009180Y016557D01*
X009257Y016478D02*
X009747Y016478D01*
X009747Y016400D02*
X009257Y016400D01*
X009257Y016321D02*
X009747Y016321D01*
X009747Y016242D02*
X009202Y016242D01*
X009025Y016164D02*
X009747Y016164D01*
X009747Y016085D02*
X008946Y016085D01*
X008868Y016007D02*
X009747Y016007D01*
X009747Y015928D02*
X008789Y015928D01*
X008711Y015850D02*
X009747Y015850D01*
X009747Y015771D02*
X008632Y015771D01*
X008553Y015693D02*
X009747Y015693D01*
X009747Y015614D02*
X008475Y015614D01*
X008396Y015536D02*
X009747Y015536D01*
X009747Y015457D02*
X008348Y015457D01*
X008348Y015379D02*
X009747Y015379D01*
X009747Y015300D02*
X008348Y015300D01*
X008348Y015221D02*
X009747Y015221D01*
X009747Y015143D02*
X008348Y015143D01*
X008348Y015064D02*
X009747Y015064D01*
X009747Y014986D02*
X008348Y014986D01*
X008348Y014907D02*
X009747Y014907D01*
X009747Y014829D02*
X008348Y014829D01*
X008348Y014750D02*
X009747Y014750D01*
X009747Y014672D02*
X008348Y014672D01*
X008348Y014593D02*
X009747Y014593D01*
X009747Y014515D02*
X008348Y014515D01*
X008348Y014436D02*
X009747Y014436D01*
X009747Y014357D02*
X009410Y014357D01*
X009520Y014279D02*
X009747Y014279D01*
X009747Y014200D02*
X009597Y014200D01*
X009630Y014122D02*
X009747Y014122D01*
X009747Y014043D02*
X009663Y014043D01*
X009668Y013965D02*
X009747Y013965D01*
X009747Y013886D02*
X009668Y013886D01*
X009653Y013808D02*
X009747Y013808D01*
X009747Y013729D02*
X009621Y013729D01*
X009577Y013651D02*
X009747Y013651D01*
X009747Y013572D02*
X009498Y013572D01*
X009357Y013493D02*
X009747Y013493D01*
X009925Y013493D02*
X010192Y013493D01*
X010179Y013500D02*
X010241Y013468D01*
X009925Y013468D01*
X009925Y017719D01*
X010913Y017719D01*
X010863Y017683D01*
X010806Y017626D01*
X010759Y017561D01*
X010723Y017489D01*
X010698Y017413D01*
X010685Y017334D01*
X010685Y017334D01*
X011155Y017334D01*
X011155Y017254D01*
X010685Y017254D01*
X010685Y017254D01*
X010698Y017174D01*
X010723Y017098D01*
X010759Y017026D01*
X010806Y016961D01*
X010863Y016905D01*
X010928Y016857D01*
X010999Y016821D01*
X011076Y016796D01*
X011155Y016784D01*
X011155Y016784D01*
X011155Y017253D01*
X011235Y017253D01*
X011235Y016784D01*
X011235Y016784D01*
X011315Y016796D01*
X011391Y016821D01*
X011463Y016857D01*
X011527Y016905D01*
X011584Y016961D01*
X011631Y017026D01*
X011668Y017098D01*
X011693Y017174D01*
X011705Y017254D01*
X011235Y017254D01*
X011235Y017334D01*
X011705Y017334D01*
X011693Y017413D01*
X011668Y017489D01*
X011631Y017561D01*
X011584Y017626D01*
X011527Y017683D01*
X011477Y017719D01*
X012995Y017719D01*
X012995Y013468D01*
X012545Y013468D01*
X012712Y013538D01*
X012845Y013670D01*
X012916Y013843D01*
X012916Y014030D01*
X012845Y014203D01*
X012712Y014335D01*
X012540Y014406D01*
X012353Y014406D01*
X012180Y014335D01*
X012048Y014203D01*
X011976Y014030D01*
X011976Y013843D01*
X012048Y013670D01*
X012180Y013538D01*
X012348Y013468D01*
X011545Y013468D01*
X011712Y013538D01*
X011845Y013670D01*
X011916Y013843D01*
X011916Y014030D01*
X011845Y014203D01*
X011712Y014335D01*
X011596Y014383D01*
X011596Y015487D01*
X012277Y016169D01*
X012376Y016169D01*
X012505Y016297D01*
X012505Y016480D01*
X012376Y016608D01*
X012194Y016608D01*
X012065Y016480D01*
X012065Y016381D01*
X011296Y015612D01*
X011296Y015487D01*
X011296Y014383D01*
X011180Y014335D01*
X011048Y014203D01*
X010976Y014030D01*
X010976Y013843D01*
X011048Y013670D01*
X011180Y013538D01*
X011348Y013468D01*
X010651Y013468D01*
X010713Y013500D01*
X010778Y013547D01*
X010835Y013604D01*
X010882Y013669D01*
X010919Y013741D01*
X010944Y013817D01*
X010956Y013896D01*
X010956Y013896D01*
X010486Y013896D01*
X010486Y013976D01*
X010956Y013976D01*
X010956Y013976D01*
X010944Y014056D01*
X010919Y014132D01*
X010882Y014204D01*
X010835Y014269D01*
X010778Y014325D01*
X010713Y014373D01*
X010642Y014409D01*
X010566Y014434D01*
X010486Y014446D01*
X010486Y013977D01*
X010406Y013977D01*
X010406Y014446D01*
X010327Y014434D01*
X010250Y014409D01*
X010179Y014373D01*
X010114Y014325D01*
X010057Y014269D01*
X010010Y014204D01*
X009974Y014132D01*
X009949Y014056D01*
X009936Y013976D01*
X010406Y013976D01*
X010406Y013896D01*
X009936Y013896D01*
X009949Y013817D01*
X009974Y013741D01*
X010010Y013669D01*
X010057Y013604D01*
X010114Y013547D01*
X010179Y013500D01*
X010089Y013572D02*
X009925Y013572D01*
X009925Y013651D02*
X010023Y013651D01*
X009979Y013729D02*
X009925Y013729D01*
X009925Y013808D02*
X009952Y013808D01*
X009938Y013886D02*
X009925Y013886D01*
X009936Y013896D02*
X009936Y013896D01*
X009925Y013965D02*
X010406Y013965D01*
X010406Y014043D02*
X010486Y014043D01*
X010486Y013965D02*
X010976Y013965D01*
X010982Y014043D02*
X010946Y014043D01*
X010922Y014122D02*
X011014Y014122D01*
X011047Y014200D02*
X010884Y014200D01*
X010825Y014279D02*
X011124Y014279D01*
X011235Y014357D02*
X010734Y014357D01*
X010552Y014436D02*
X011296Y014436D01*
X011296Y014515D02*
X009925Y014515D01*
X009925Y014593D02*
X011296Y014593D01*
X011296Y014672D02*
X009925Y014672D01*
X009925Y014750D02*
X011296Y014750D01*
X011296Y014829D02*
X009925Y014829D01*
X009925Y014907D02*
X011296Y014907D01*
X011296Y014986D02*
X009925Y014986D01*
X009925Y015064D02*
X011296Y015064D01*
X011296Y015143D02*
X009925Y015143D01*
X009925Y015221D02*
X011296Y015221D01*
X011296Y015300D02*
X009925Y015300D01*
X009925Y015379D02*
X011296Y015379D01*
X011296Y015457D02*
X009925Y015457D01*
X009925Y015536D02*
X011296Y015536D01*
X011299Y015614D02*
X009925Y015614D01*
X009925Y015693D02*
X011377Y015693D01*
X011456Y015771D02*
X009925Y015771D01*
X009925Y015850D02*
X011534Y015850D01*
X011613Y015928D02*
X009925Y015928D01*
X009925Y016007D02*
X011691Y016007D01*
X011770Y016085D02*
X009925Y016085D01*
X009925Y016164D02*
X011849Y016164D01*
X011927Y016242D02*
X009925Y016242D01*
X009925Y016321D02*
X012006Y016321D01*
X012065Y016400D02*
X009925Y016400D01*
X009925Y016478D02*
X012065Y016478D01*
X012142Y016557D02*
X009925Y016557D01*
X009925Y016635D02*
X012995Y016635D01*
X012995Y016557D02*
X012428Y016557D01*
X012505Y016478D02*
X012995Y016478D01*
X012995Y016400D02*
X012505Y016400D01*
X012505Y016321D02*
X012995Y016321D01*
X012995Y016242D02*
X012450Y016242D01*
X012273Y016164D02*
X012995Y016164D01*
X012995Y016085D02*
X012194Y016085D01*
X012116Y016007D02*
X012995Y016007D01*
X012995Y015928D02*
X012037Y015928D01*
X011959Y015850D02*
X012995Y015850D01*
X012995Y015771D02*
X011880Y015771D01*
X011801Y015693D02*
X012995Y015693D01*
X012995Y015614D02*
X011723Y015614D01*
X011644Y015536D02*
X012995Y015536D01*
X012995Y015457D02*
X011596Y015457D01*
X011596Y015379D02*
X012995Y015379D01*
X012995Y015300D02*
X011596Y015300D01*
X011596Y015221D02*
X012995Y015221D01*
X012995Y015143D02*
X011596Y015143D01*
X011596Y015064D02*
X012995Y015064D01*
X012995Y014986D02*
X011596Y014986D01*
X011596Y014907D02*
X012995Y014907D01*
X012995Y014829D02*
X011596Y014829D01*
X011596Y014750D02*
X012995Y014750D01*
X012995Y014672D02*
X011596Y014672D01*
X011596Y014593D02*
X012995Y014593D01*
X012995Y014515D02*
X011596Y014515D01*
X011596Y014436D02*
X012995Y014436D01*
X012995Y014357D02*
X012658Y014357D01*
X012768Y014279D02*
X012995Y014279D01*
X012995Y014200D02*
X012846Y014200D01*
X012878Y014122D02*
X012995Y014122D01*
X012995Y014043D02*
X012911Y014043D01*
X012916Y013965D02*
X012995Y013965D01*
X012995Y013886D02*
X012916Y013886D01*
X012901Y013808D02*
X012995Y013808D01*
X012995Y013729D02*
X012869Y013729D01*
X012825Y013651D02*
X012995Y013651D01*
X012995Y013572D02*
X012746Y013572D01*
X012605Y013493D02*
X012995Y013493D01*
X013173Y013493D02*
X013440Y013493D01*
X013427Y013500D02*
X013489Y013468D01*
X013173Y013468D01*
X013173Y017719D01*
X014161Y017719D01*
X014111Y017683D01*
X014054Y017626D01*
X014007Y017561D01*
X013971Y017489D01*
X013946Y017413D01*
X013933Y017334D01*
X013933Y017334D01*
X014403Y017334D01*
X014403Y017254D01*
X013933Y017254D01*
X013933Y017254D01*
X013946Y017174D01*
X013971Y017098D01*
X014007Y017026D01*
X014054Y016961D01*
X014111Y016905D01*
X014176Y016857D01*
X014248Y016821D01*
X014324Y016796D01*
X014403Y016784D01*
X014403Y016784D01*
X014403Y017253D01*
X014483Y017253D01*
X014483Y016784D01*
X014483Y016784D01*
X014563Y016796D01*
X014639Y016821D01*
X014711Y016857D01*
X014776Y016905D01*
X014832Y016961D01*
X014879Y017026D01*
X014916Y017098D01*
X014941Y017174D01*
X014953Y017254D01*
X014483Y017254D01*
X014483Y017334D01*
X014953Y017334D01*
X014941Y017413D01*
X014916Y017489D01*
X014879Y017561D01*
X014832Y017626D01*
X014776Y017683D01*
X014725Y017719D01*
X016243Y017719D01*
X016243Y013468D01*
X015793Y013468D01*
X015960Y013538D01*
X016093Y013670D01*
X016164Y013843D01*
X016164Y014030D01*
X016093Y014203D01*
X015960Y014335D01*
X015788Y014406D01*
X015601Y014406D01*
X015428Y014335D01*
X015296Y014203D01*
X015224Y014030D01*
X015224Y013843D01*
X015296Y013670D01*
X015428Y013538D01*
X015596Y013468D01*
X014793Y013468D01*
X014960Y013538D01*
X015093Y013670D01*
X015164Y013843D01*
X015164Y014030D01*
X015093Y014203D01*
X014960Y014335D01*
X014844Y014383D01*
X014844Y015487D01*
X015525Y016169D01*
X015624Y016169D01*
X015753Y016297D01*
X015753Y016480D01*
X015624Y016608D01*
X015442Y016608D01*
X015313Y016480D01*
X015313Y016381D01*
X014544Y015612D01*
X014544Y015487D01*
X014544Y014383D01*
X014428Y014335D01*
X014296Y014203D01*
X014224Y014030D01*
X014224Y013843D01*
X014296Y013670D01*
X014428Y013538D01*
X014596Y013468D01*
X013899Y013468D01*
X013961Y013500D01*
X014026Y013547D01*
X014083Y013604D01*
X014130Y013669D01*
X014167Y013741D01*
X014192Y013817D01*
X014204Y013896D01*
X014204Y013896D01*
X013734Y013896D01*
X013734Y013976D01*
X014204Y013976D01*
X014204Y013976D01*
X014192Y014056D01*
X014167Y014132D01*
X014130Y014204D01*
X014083Y014269D01*
X014026Y014325D01*
X013961Y014373D01*
X013890Y014409D01*
X013814Y014434D01*
X013734Y014446D01*
X013734Y013977D01*
X013654Y013977D01*
X013654Y014446D01*
X013575Y014434D01*
X013498Y014409D01*
X013427Y014373D01*
X013362Y014325D01*
X013305Y014269D01*
X013258Y014204D01*
X013222Y014132D01*
X013197Y014056D01*
X013184Y013976D01*
X013654Y013976D01*
X013654Y013896D01*
X013184Y013896D01*
X013197Y013817D01*
X013222Y013741D01*
X013258Y013669D01*
X013305Y013604D01*
X013362Y013547D01*
X013427Y013500D01*
X013337Y013572D02*
X013173Y013572D01*
X013173Y013651D02*
X013271Y013651D01*
X013227Y013729D02*
X013173Y013729D01*
X013173Y013808D02*
X013200Y013808D01*
X013186Y013886D02*
X013173Y013886D01*
X013184Y013896D02*
X013184Y013896D01*
X013173Y013965D02*
X013654Y013965D01*
X013654Y014043D02*
X013734Y014043D01*
X013734Y013965D02*
X014224Y013965D01*
X014230Y014043D02*
X014194Y014043D01*
X014170Y014122D02*
X014262Y014122D01*
X014295Y014200D02*
X014132Y014200D01*
X014073Y014279D02*
X014372Y014279D01*
X014483Y014357D02*
X013982Y014357D01*
X013800Y014436D02*
X014544Y014436D01*
X014544Y014515D02*
X013173Y014515D01*
X013173Y014593D02*
X014544Y014593D01*
X014544Y014672D02*
X013173Y014672D01*
X013173Y014750D02*
X014544Y014750D01*
X014544Y014829D02*
X013173Y014829D01*
X013173Y014907D02*
X014544Y014907D01*
X014544Y014986D02*
X013173Y014986D01*
X013173Y015064D02*
X014544Y015064D01*
X014544Y015143D02*
X013173Y015143D01*
X013173Y015221D02*
X014544Y015221D01*
X014544Y015300D02*
X013173Y015300D01*
X013173Y015379D02*
X014544Y015379D01*
X014544Y015457D02*
X013173Y015457D01*
X013173Y015536D02*
X014544Y015536D01*
X014547Y015614D02*
X013173Y015614D01*
X013173Y015693D02*
X014625Y015693D01*
X014704Y015771D02*
X013173Y015771D01*
X013173Y015850D02*
X014782Y015850D01*
X014861Y015928D02*
X013173Y015928D01*
X013173Y016007D02*
X014939Y016007D01*
X015018Y016085D02*
X013173Y016085D01*
X013173Y016164D02*
X015097Y016164D01*
X015175Y016242D02*
X013173Y016242D01*
X013173Y016321D02*
X015254Y016321D01*
X015313Y016400D02*
X013173Y016400D01*
X013173Y016478D02*
X015313Y016478D01*
X015390Y016557D02*
X013173Y016557D01*
X013173Y016635D02*
X016243Y016635D01*
X016243Y016557D02*
X015676Y016557D01*
X015753Y016478D02*
X016243Y016478D01*
X016243Y016400D02*
X015753Y016400D01*
X015753Y016321D02*
X016243Y016321D01*
X016243Y016242D02*
X015698Y016242D01*
X015521Y016164D02*
X016243Y016164D01*
X016243Y016085D02*
X015442Y016085D01*
X015364Y016007D02*
X016243Y016007D01*
X016243Y015928D02*
X015285Y015928D01*
X015207Y015850D02*
X016243Y015850D01*
X016243Y015771D02*
X015128Y015771D01*
X015050Y015693D02*
X016243Y015693D01*
X016243Y015614D02*
X014971Y015614D01*
X014892Y015536D02*
X016243Y015536D01*
X016243Y015457D02*
X014844Y015457D01*
X014844Y015379D02*
X016243Y015379D01*
X016243Y015300D02*
X014844Y015300D01*
X014844Y015221D02*
X016243Y015221D01*
X016243Y015143D02*
X014844Y015143D01*
X014844Y015064D02*
X016243Y015064D01*
X016243Y014986D02*
X014844Y014986D01*
X014844Y014907D02*
X016243Y014907D01*
X016243Y014829D02*
X014844Y014829D01*
X014844Y014750D02*
X016243Y014750D01*
X016243Y014672D02*
X014844Y014672D01*
X014844Y014593D02*
X016243Y014593D01*
X016243Y014515D02*
X014844Y014515D01*
X014844Y014436D02*
X016243Y014436D01*
X016243Y014357D02*
X015906Y014357D01*
X016016Y014279D02*
X016243Y014279D01*
X016243Y014200D02*
X016094Y014200D01*
X016126Y014122D02*
X016243Y014122D01*
X016243Y014043D02*
X016159Y014043D01*
X016164Y013965D02*
X016243Y013965D01*
X016243Y013886D02*
X016164Y013886D01*
X016150Y013808D02*
X016243Y013808D01*
X016243Y013729D02*
X016117Y013729D01*
X016073Y013651D02*
X016243Y013651D01*
X016243Y013572D02*
X015994Y013572D01*
X015853Y013493D02*
X016243Y013493D01*
X016421Y013493D02*
X016688Y013493D01*
X016585Y013572D02*
X016421Y013572D01*
X016421Y013651D02*
X016519Y013651D01*
X016475Y013729D02*
X016421Y013729D01*
X016421Y013808D02*
X016448Y013808D01*
X016434Y013886D02*
X016421Y013886D01*
X016432Y013896D02*
X016432Y013896D01*
X016421Y013965D02*
X016902Y013965D01*
X016902Y014043D02*
X016982Y014043D01*
X016982Y013965D02*
X017472Y013965D01*
X017478Y014043D02*
X017442Y014043D01*
X017418Y014122D02*
X017510Y014122D01*
X017543Y014200D02*
X017380Y014200D01*
X017321Y014279D02*
X017620Y014279D01*
X017731Y014357D02*
X017230Y014357D01*
X017048Y014436D02*
X017792Y014436D01*
X017792Y014515D02*
X016421Y014515D01*
X016421Y014593D02*
X017792Y014593D01*
X017792Y014672D02*
X016421Y014672D01*
X016421Y014750D02*
X017792Y014750D01*
X017792Y014829D02*
X016421Y014829D01*
X016421Y014907D02*
X017792Y014907D01*
X017792Y014986D02*
X016421Y014986D01*
X016421Y015064D02*
X017792Y015064D01*
X017792Y015143D02*
X016421Y015143D01*
X016421Y015221D02*
X017792Y015221D01*
X017792Y015300D02*
X016421Y015300D01*
X016421Y015379D02*
X017792Y015379D01*
X017792Y015457D02*
X016421Y015457D01*
X016421Y015536D02*
X017792Y015536D01*
X017795Y015614D02*
X016421Y015614D01*
X016421Y015693D02*
X017873Y015693D01*
X017952Y015771D02*
X016421Y015771D01*
X016421Y015850D02*
X018030Y015850D01*
X018109Y015928D02*
X016421Y015928D01*
X016421Y016007D02*
X018187Y016007D01*
X018266Y016085D02*
X016421Y016085D01*
X016421Y016164D02*
X018345Y016164D01*
X018423Y016242D02*
X016421Y016242D01*
X016421Y016321D02*
X018502Y016321D01*
X017977Y016871D02*
X019391Y016871D01*
X019391Y016949D02*
X018068Y016949D01*
X018128Y017028D02*
X019391Y017028D01*
X019391Y017106D02*
X018167Y017106D01*
X018190Y017185D02*
X019391Y017185D01*
X019391Y017264D02*
X017731Y017264D01*
X017731Y017185D02*
X017651Y017185D01*
X017651Y017264D02*
X016421Y017264D01*
X016421Y017342D02*
X017183Y017342D01*
X017196Y017421D02*
X016421Y017421D01*
X016421Y017499D02*
X017224Y017499D01*
X017267Y017578D02*
X016421Y017578D01*
X016421Y017656D02*
X017333Y017656D01*
X017192Y017185D02*
X016421Y017185D01*
X016421Y017106D02*
X017216Y017106D01*
X017254Y017028D02*
X016421Y017028D01*
X016421Y016949D02*
X017314Y016949D01*
X017406Y016871D02*
X016421Y016871D01*
X016421Y016792D02*
X017597Y016792D01*
X017651Y016792D02*
X017731Y016792D01*
X017786Y016792D02*
X019391Y016792D01*
X019391Y016714D02*
X016421Y016714D01*
X016243Y016714D02*
X013173Y016714D01*
X013173Y016792D02*
X014349Y016792D01*
X014403Y016792D02*
X014483Y016792D01*
X014538Y016792D02*
X016243Y016792D01*
X016243Y016871D02*
X014729Y016871D01*
X014820Y016949D02*
X016243Y016949D01*
X016243Y017028D02*
X014880Y017028D01*
X014919Y017106D02*
X016243Y017106D01*
X016243Y017185D02*
X014942Y017185D01*
X014953Y017254D02*
X014953Y017254D01*
X014953Y017334D02*
X014953Y017334D01*
X014952Y017342D02*
X016243Y017342D01*
X016243Y017264D02*
X014483Y017264D01*
X014483Y017185D02*
X014403Y017185D01*
X014403Y017264D02*
X013173Y017264D01*
X013173Y017342D02*
X013935Y017342D01*
X013948Y017421D02*
X013173Y017421D01*
X013173Y017499D02*
X013976Y017499D01*
X014019Y017578D02*
X013173Y017578D01*
X013173Y017656D02*
X014085Y017656D01*
X013944Y017185D02*
X013173Y017185D01*
X013173Y017106D02*
X013968Y017106D01*
X014006Y017028D02*
X013173Y017028D01*
X013173Y016949D02*
X014066Y016949D01*
X014158Y016871D02*
X013173Y016871D01*
X012995Y016871D02*
X011481Y016871D01*
X011572Y016949D02*
X012995Y016949D01*
X012995Y017028D02*
X011632Y017028D01*
X011671Y017106D02*
X012995Y017106D01*
X012995Y017185D02*
X011694Y017185D01*
X011705Y017254D02*
X011705Y017254D01*
X011705Y017334D02*
X011705Y017334D01*
X011704Y017342D02*
X012995Y017342D01*
X012995Y017264D02*
X011235Y017264D01*
X011235Y017185D02*
X011155Y017185D01*
X011155Y017264D02*
X009925Y017264D01*
X009925Y017342D02*
X010687Y017342D01*
X010700Y017421D02*
X009925Y017421D01*
X009925Y017499D02*
X010728Y017499D01*
X010771Y017578D02*
X009925Y017578D01*
X009925Y017656D02*
X010837Y017656D01*
X010696Y017185D02*
X009925Y017185D01*
X009925Y017106D02*
X010720Y017106D01*
X010758Y017028D02*
X009925Y017028D01*
X009925Y016949D02*
X010818Y016949D01*
X010910Y016871D02*
X009925Y016871D01*
X009925Y016792D02*
X011101Y016792D01*
X011155Y016792D02*
X011235Y016792D01*
X011290Y016792D02*
X012995Y016792D01*
X012995Y016714D02*
X009925Y016714D01*
X009747Y016714D02*
X006677Y016714D01*
X006677Y016792D02*
X007853Y016792D01*
X007907Y016792D02*
X007987Y016792D01*
X008042Y016792D02*
X009747Y016792D01*
X009747Y016871D02*
X008233Y016871D01*
X008324Y016949D02*
X009747Y016949D01*
X009747Y017028D02*
X008384Y017028D01*
X008423Y017106D02*
X009747Y017106D01*
X009747Y017185D02*
X008446Y017185D01*
X008457Y017254D02*
X008457Y017254D01*
X008457Y017334D02*
X008457Y017334D01*
X008456Y017342D02*
X009747Y017342D01*
X009747Y017264D02*
X007987Y017264D01*
X007987Y017185D02*
X007907Y017185D01*
X007907Y017264D02*
X006677Y017264D01*
X006677Y017342D02*
X007439Y017342D01*
X007452Y017421D02*
X006677Y017421D01*
X006677Y017499D02*
X007480Y017499D01*
X007523Y017578D02*
X006677Y017578D01*
X006677Y017656D02*
X007589Y017656D01*
X007448Y017185D02*
X006677Y017185D01*
X006677Y017106D02*
X007472Y017106D01*
X007510Y017028D02*
X006677Y017028D01*
X006677Y016949D02*
X007570Y016949D01*
X007662Y016871D02*
X006677Y016871D01*
X006499Y016871D02*
X004985Y016871D01*
X005076Y016949D02*
X006499Y016949D01*
X006499Y017028D02*
X005136Y017028D01*
X005175Y017106D02*
X006499Y017106D01*
X006499Y017185D02*
X005198Y017185D01*
X005209Y017254D02*
X005209Y017254D01*
X005209Y017334D02*
X005209Y017334D01*
X005208Y017342D02*
X006499Y017342D01*
X006499Y017264D02*
X004739Y017264D01*
X004739Y017185D02*
X004659Y017185D01*
X004659Y017264D02*
X003429Y017264D01*
X003429Y017342D02*
X004191Y017342D01*
X004204Y017421D02*
X003429Y017421D01*
X003429Y017499D02*
X004232Y017499D01*
X004275Y017578D02*
X003429Y017578D01*
X003429Y017656D02*
X004341Y017656D01*
X004200Y017185D02*
X003429Y017185D01*
X003429Y017106D02*
X004224Y017106D01*
X004262Y017028D02*
X003429Y017028D01*
X003429Y016949D02*
X004322Y016949D01*
X004414Y016871D02*
X003429Y016871D01*
X003429Y016792D02*
X004605Y016792D01*
X004659Y016792D02*
X004739Y016792D01*
X004794Y016792D02*
X006499Y016792D01*
X006499Y016714D02*
X003429Y016714D01*
X003251Y016714D02*
X000281Y016714D01*
X000281Y016792D02*
X001357Y016792D01*
X001411Y016792D02*
X001491Y016792D01*
X001546Y016792D02*
X003251Y016792D01*
X003251Y016871D02*
X001737Y016871D01*
X001828Y016949D02*
X003251Y016949D01*
X003251Y017028D02*
X001888Y017028D01*
X001927Y017106D02*
X003251Y017106D01*
X003251Y017185D02*
X001950Y017185D01*
X001961Y017254D02*
X001961Y017254D01*
X001961Y017334D02*
X001961Y017334D01*
X001960Y017342D02*
X003251Y017342D01*
X003251Y017264D02*
X001491Y017264D01*
X001491Y017185D02*
X001411Y017185D01*
X001411Y017264D02*
X000281Y017264D01*
X000281Y017342D02*
X000943Y017342D01*
X000956Y017421D02*
X000281Y017421D01*
X000281Y017499D02*
X000984Y017499D01*
X001027Y017578D02*
X000281Y017578D01*
X000281Y017656D02*
X001093Y017656D01*
X000952Y017185D02*
X000281Y017185D01*
X000281Y017106D02*
X000976Y017106D01*
X001014Y017028D02*
X000281Y017028D01*
X000281Y016949D02*
X001074Y016949D01*
X001165Y016871D02*
X000281Y016871D01*
X001411Y016871D02*
X001491Y016871D01*
X001491Y016949D02*
X001411Y016949D01*
X001411Y017028D02*
X001491Y017028D01*
X001491Y017106D02*
X001411Y017106D01*
X001946Y017421D02*
X003251Y017421D01*
X003251Y017499D02*
X001919Y017499D01*
X001875Y017578D02*
X003251Y017578D01*
X003251Y017656D02*
X001810Y017656D01*
X004659Y017106D02*
X004739Y017106D01*
X004739Y017028D02*
X004659Y017028D01*
X004659Y016949D02*
X004739Y016949D01*
X004739Y016871D02*
X004659Y016871D01*
X005194Y017421D02*
X006499Y017421D01*
X006499Y017499D02*
X005167Y017499D01*
X005123Y017578D02*
X006499Y017578D01*
X006499Y017656D02*
X005058Y017656D01*
X007907Y017106D02*
X007987Y017106D01*
X007987Y017028D02*
X007907Y017028D01*
X007907Y016949D02*
X007987Y016949D01*
X007987Y016871D02*
X007907Y016871D01*
X008442Y017421D02*
X009747Y017421D01*
X009747Y017499D02*
X008415Y017499D01*
X008371Y017578D02*
X009747Y017578D01*
X009747Y017656D02*
X008306Y017656D01*
X011155Y017106D02*
X011235Y017106D01*
X011235Y017028D02*
X011155Y017028D01*
X011155Y016949D02*
X011235Y016949D01*
X011235Y016871D02*
X011155Y016871D01*
X011690Y017421D02*
X012995Y017421D01*
X012995Y017499D02*
X011663Y017499D01*
X011619Y017578D02*
X012995Y017578D01*
X012995Y017656D02*
X011554Y017656D01*
X014403Y017106D02*
X014483Y017106D01*
X014483Y017028D02*
X014403Y017028D01*
X014403Y016949D02*
X014483Y016949D01*
X014483Y016871D02*
X014403Y016871D01*
X014938Y017421D02*
X016243Y017421D01*
X016243Y017499D02*
X014911Y017499D01*
X014867Y017578D02*
X016243Y017578D01*
X016243Y017656D02*
X014802Y017656D01*
X017651Y017106D02*
X017731Y017106D01*
X017731Y017028D02*
X017651Y017028D01*
X017651Y016949D02*
X017731Y016949D01*
X017731Y016871D02*
X017651Y016871D01*
X018201Y017254D02*
X018201Y017254D01*
X018201Y017334D02*
X018201Y017334D01*
X018200Y017342D02*
X019391Y017342D01*
X019391Y017421D02*
X018186Y017421D01*
X018159Y017499D02*
X019391Y017499D01*
X019391Y017578D02*
X018115Y017578D01*
X018050Y017656D02*
X019391Y017656D01*
X016982Y014446D02*
X016982Y014446D01*
X016982Y014436D02*
X016902Y014436D01*
X016902Y014446D02*
X016902Y014446D01*
X016837Y014436D02*
X016421Y014436D01*
X016421Y014357D02*
X016654Y014357D01*
X016564Y014279D02*
X016421Y014279D01*
X016421Y014200D02*
X016504Y014200D01*
X016466Y014122D02*
X016421Y014122D01*
X016421Y014043D02*
X016443Y014043D01*
X016432Y013976D02*
X016432Y013976D01*
X016902Y014122D02*
X016982Y014122D01*
X016982Y014200D02*
X016902Y014200D01*
X016902Y014279D02*
X016982Y014279D01*
X016982Y014357D02*
X016902Y014357D01*
X017451Y013886D02*
X017472Y013886D01*
X017487Y013808D02*
X017437Y013808D01*
X017409Y013729D02*
X017519Y013729D01*
X017563Y013651D02*
X017365Y013651D01*
X017299Y013572D02*
X017642Y013572D01*
X017783Y013493D02*
X017196Y013493D01*
X015535Y013493D02*
X014853Y013493D01*
X014994Y013572D02*
X015394Y013572D01*
X015315Y013651D02*
X015073Y013651D01*
X015117Y013729D02*
X015271Y013729D01*
X015239Y013808D02*
X015150Y013808D01*
X015164Y013886D02*
X015224Y013886D01*
X015224Y013965D02*
X015164Y013965D01*
X015159Y014043D02*
X015230Y014043D01*
X015262Y014122D02*
X015126Y014122D01*
X015094Y014200D02*
X015295Y014200D01*
X015372Y014279D02*
X015016Y014279D01*
X014906Y014357D02*
X015483Y014357D01*
X014535Y013493D02*
X013948Y013493D01*
X014051Y013572D02*
X014394Y013572D01*
X014315Y013651D02*
X014117Y013651D01*
X014161Y013729D02*
X014271Y013729D01*
X014239Y013808D02*
X014189Y013808D01*
X014203Y013886D02*
X014224Y013886D01*
X013734Y014122D02*
X013654Y014122D01*
X013654Y014200D02*
X013734Y014200D01*
X013734Y014279D02*
X013654Y014279D01*
X013654Y014357D02*
X013734Y014357D01*
X013734Y014436D02*
X013654Y014436D01*
X013654Y014446D02*
X013654Y014446D01*
X013589Y014436D02*
X013173Y014436D01*
X013173Y014357D02*
X013406Y014357D01*
X013315Y014279D02*
X013173Y014279D01*
X013173Y014200D02*
X013256Y014200D01*
X013218Y014122D02*
X013173Y014122D01*
X013173Y014043D02*
X013195Y014043D01*
X013184Y013976D02*
X013184Y013976D01*
X013734Y014446D02*
X013734Y014446D01*
X012235Y014357D02*
X011658Y014357D01*
X011768Y014279D02*
X012124Y014279D01*
X012047Y014200D02*
X011846Y014200D01*
X011878Y014122D02*
X012014Y014122D01*
X011982Y014043D02*
X011911Y014043D01*
X011916Y013965D02*
X011976Y013965D01*
X011976Y013886D02*
X011916Y013886D01*
X011901Y013808D02*
X011991Y013808D01*
X012023Y013729D02*
X011869Y013729D01*
X011825Y013651D02*
X012067Y013651D01*
X012146Y013572D02*
X011746Y013572D01*
X011605Y013493D02*
X012287Y013493D01*
X011287Y013493D02*
X010700Y013493D01*
X010803Y013572D02*
X011146Y013572D01*
X011067Y013651D02*
X010869Y013651D01*
X010913Y013729D02*
X011023Y013729D01*
X010991Y013808D02*
X010941Y013808D01*
X010954Y013886D02*
X010976Y013886D01*
X010486Y014122D02*
X010406Y014122D01*
X010406Y014200D02*
X010486Y014200D01*
X010486Y014279D02*
X010406Y014279D01*
X010406Y014357D02*
X010486Y014357D01*
X010486Y014436D02*
X010406Y014436D01*
X010406Y014446D02*
X010406Y014446D01*
X010341Y014436D02*
X009925Y014436D01*
X009925Y014357D02*
X010158Y014357D01*
X010067Y014279D02*
X009925Y014279D01*
X009925Y014200D02*
X010008Y014200D01*
X009970Y014122D02*
X009925Y014122D01*
X009925Y014043D02*
X009947Y014043D01*
X009936Y013976D02*
X009936Y013976D01*
X010486Y014446D02*
X010486Y014446D01*
X008987Y014357D02*
X008410Y014357D01*
X008520Y014279D02*
X008876Y014279D01*
X008799Y014200D02*
X008597Y014200D01*
X008630Y014122D02*
X008766Y014122D01*
X008734Y014043D02*
X008663Y014043D01*
X008668Y013965D02*
X008728Y013965D01*
X008728Y013886D02*
X008668Y013886D01*
X008653Y013808D02*
X008743Y013808D01*
X008775Y013729D02*
X008621Y013729D01*
X008577Y013651D02*
X008819Y013651D01*
X008898Y013572D02*
X008498Y013572D01*
X008357Y013493D02*
X009039Y013493D01*
X008039Y013493D02*
X007452Y013493D01*
X007555Y013572D02*
X007898Y013572D01*
X007819Y013651D02*
X007621Y013651D01*
X007665Y013729D02*
X007775Y013729D01*
X007743Y013808D02*
X007692Y013808D01*
X007706Y013886D02*
X007728Y013886D01*
X007238Y014122D02*
X007158Y014122D01*
X007158Y014200D02*
X007238Y014200D01*
X007238Y014279D02*
X007158Y014279D01*
X007158Y014357D02*
X007238Y014357D01*
X007238Y014436D02*
X007158Y014436D01*
X007158Y014446D02*
X007158Y014446D01*
X007093Y014436D02*
X006677Y014436D01*
X006677Y014357D02*
X006910Y014357D01*
X006819Y014279D02*
X006677Y014279D01*
X006677Y014200D02*
X006760Y014200D01*
X006722Y014122D02*
X006677Y014122D01*
X006677Y014043D02*
X006699Y014043D01*
X006688Y013976D02*
X006688Y013976D01*
X007238Y014446D02*
X007238Y014446D01*
X005739Y014357D02*
X005162Y014357D01*
X005272Y014279D02*
X005628Y014279D01*
X005551Y014200D02*
X005349Y014200D01*
X005382Y014122D02*
X005518Y014122D01*
X005486Y014043D02*
X005414Y014043D01*
X005420Y013965D02*
X005480Y013965D01*
X005480Y013886D02*
X005420Y013886D01*
X005405Y013808D02*
X005495Y013808D01*
X005527Y013729D02*
X005373Y013729D01*
X005329Y013651D02*
X005571Y013651D01*
X005650Y013572D02*
X005250Y013572D01*
X005109Y013493D02*
X005791Y013493D01*
X004791Y013493D02*
X004204Y013493D01*
X004307Y013572D02*
X004650Y013572D01*
X004571Y013651D02*
X004373Y013651D01*
X004417Y013729D02*
X004527Y013729D01*
X004495Y013808D02*
X004444Y013808D01*
X004458Y013886D02*
X004480Y013886D01*
X003990Y014122D02*
X003910Y014122D01*
X003910Y014200D02*
X003990Y014200D01*
X003990Y014279D02*
X003910Y014279D01*
X003910Y014357D02*
X003990Y014357D01*
X003990Y014436D02*
X003910Y014436D01*
X003910Y014446D02*
X003910Y014446D01*
X003845Y014436D02*
X003429Y014436D01*
X003429Y014357D02*
X003662Y014357D01*
X003571Y014279D02*
X003429Y014279D01*
X003429Y014200D02*
X003512Y014200D01*
X003474Y014122D02*
X003429Y014122D01*
X003429Y014043D02*
X003451Y014043D01*
X003440Y013976D02*
X003440Y013976D01*
X003990Y014446D02*
X003990Y014446D01*
X002490Y014357D02*
X001914Y014357D01*
X002024Y014279D02*
X002380Y014279D01*
X002303Y014200D02*
X002101Y014200D01*
X002134Y014122D02*
X002270Y014122D01*
X002238Y014043D02*
X002166Y014043D01*
X002172Y013965D02*
X002232Y013965D01*
X002232Y013886D02*
X002172Y013886D01*
X002157Y013808D02*
X002247Y013808D01*
X002279Y013729D02*
X002125Y013729D01*
X002081Y013651D02*
X002323Y013651D01*
X002402Y013572D02*
X002002Y013572D01*
X001861Y013493D02*
X002543Y013493D01*
X001491Y014357D02*
X000990Y014357D01*
X001081Y014279D02*
X001380Y014279D01*
X001303Y014200D02*
X001140Y014200D01*
X001178Y014122D02*
X001270Y014122D01*
X001238Y014043D02*
X001201Y014043D01*
X000662Y014446D02*
X000662Y014446D01*
X000597Y014436D02*
X000281Y014436D01*
X000281Y014357D02*
X000414Y014357D01*
X000323Y014279D02*
X000281Y014279D01*
X006677Y007681D02*
X008877Y007681D01*
X008817Y007603D02*
X006677Y007603D01*
X006677Y007524D02*
X008817Y007524D01*
X008740Y007446D02*
X006677Y007446D01*
X006677Y007367D02*
X008662Y007367D01*
X008583Y007289D02*
X006677Y007289D01*
X006677Y007210D02*
X008505Y007210D01*
X008426Y007131D02*
X006677Y007131D01*
X006677Y007053D02*
X008348Y007053D01*
X008269Y006974D02*
X006677Y006974D01*
X006677Y006896D02*
X008191Y006896D01*
X008112Y006817D02*
X006677Y006817D01*
X006677Y006739D02*
X008048Y006739D01*
X008048Y006660D02*
X006677Y006660D01*
X006677Y006582D02*
X008048Y006582D01*
X008048Y006503D02*
X006677Y006503D01*
X006677Y006425D02*
X008048Y006425D01*
X008048Y006346D02*
X006677Y006346D01*
X006677Y006267D02*
X008048Y006267D01*
X008048Y006189D02*
X006677Y006189D01*
X006677Y006110D02*
X008048Y006110D01*
X008048Y006032D02*
X006677Y006032D01*
X006677Y005953D02*
X008048Y005953D01*
X008048Y005875D02*
X006677Y005875D01*
X006677Y005796D02*
X008048Y005796D01*
X008048Y005718D02*
X006677Y005718D01*
X006677Y005639D02*
X008048Y005639D01*
X008048Y005561D02*
X007363Y005561D01*
X007238Y005561D02*
X007158Y005561D01*
X007158Y005588D02*
X007079Y005576D01*
X007002Y005551D01*
X006931Y005514D01*
X006866Y005467D01*
X006809Y005410D01*
X006762Y005345D01*
X006725Y005274D01*
X006701Y005198D01*
X006688Y005118D01*
X007158Y005118D01*
X007158Y005588D01*
X007158Y005588D01*
X007238Y005588D02*
X007238Y005588D01*
X007238Y005482D02*
X007158Y005482D01*
X007158Y005404D02*
X007238Y005404D01*
X007238Y005325D02*
X007158Y005325D01*
X007158Y005246D02*
X007238Y005246D01*
X007238Y005168D02*
X007158Y005168D01*
X007158Y005089D02*
X006677Y005089D01*
X006688Y005118D02*
X006688Y005118D01*
X006696Y005168D02*
X006677Y005168D01*
X006677Y005246D02*
X006717Y005246D01*
X006752Y005325D02*
X006677Y005325D01*
X006677Y005404D02*
X006804Y005404D01*
X006886Y005482D02*
X006677Y005482D01*
X006677Y005561D02*
X007033Y005561D01*
X007238Y005089D02*
X007728Y005089D01*
X007728Y005011D02*
X007704Y005011D01*
X007687Y004932D02*
X007750Y004932D01*
X007782Y004854D02*
X007656Y004854D01*
X007608Y004775D02*
X007836Y004775D01*
X007915Y004697D02*
X007538Y004697D01*
X007419Y004618D02*
X008081Y004618D01*
X008316Y004618D02*
X009081Y004618D01*
X008915Y004697D02*
X008481Y004697D01*
X008560Y004775D02*
X008836Y004775D01*
X008782Y004854D02*
X008614Y004854D01*
X008646Y004932D02*
X008750Y004932D01*
X008728Y005011D02*
X008668Y005011D01*
X008668Y005089D02*
X008728Y005089D01*
X008728Y005168D02*
X008668Y005168D01*
X008637Y005246D02*
X008759Y005246D01*
X008792Y005325D02*
X008605Y005325D01*
X008537Y005404D02*
X008859Y005404D01*
X008945Y005482D02*
X008451Y005482D01*
X007945Y005482D02*
X007510Y005482D01*
X007592Y005404D02*
X007859Y005404D01*
X007792Y005325D02*
X007645Y005325D01*
X007680Y005246D02*
X007759Y005246D01*
X007728Y005168D02*
X007700Y005168D01*
X007602Y004382D02*
X006677Y004382D01*
X006677Y004304D02*
X007533Y004304D01*
X006978Y004618D02*
X006677Y004618D01*
X006677Y004697D02*
X006858Y004697D01*
X006788Y004775D02*
X006677Y004775D01*
X006677Y004854D02*
X006740Y004854D01*
X006709Y004932D02*
X006677Y004932D01*
X006677Y005011D02*
X006692Y005011D01*
X006688Y005038D02*
X006688Y005038D01*
X006499Y005011D02*
X006420Y005011D01*
X006420Y005089D02*
X006499Y005089D01*
X006499Y005168D02*
X006420Y005168D01*
X006389Y005246D02*
X006499Y005246D01*
X006499Y005325D02*
X006357Y005325D01*
X006289Y005404D02*
X006499Y005404D01*
X006499Y005482D02*
X006203Y005482D01*
X006398Y004932D02*
X006499Y004932D01*
X006499Y004854D02*
X006366Y004854D01*
X006312Y004775D02*
X006499Y004775D01*
X006499Y004697D02*
X006233Y004697D01*
X006068Y004618D02*
X006499Y004618D01*
X005660Y003283D02*
X003429Y003283D01*
X003429Y003204D02*
X005581Y003204D01*
X005569Y003126D02*
X003429Y003126D01*
X003429Y003047D02*
X005523Y003047D01*
X005445Y002969D02*
X003429Y002969D01*
X003429Y002890D02*
X005366Y002890D01*
X005287Y002812D02*
X003429Y002812D01*
X003429Y002733D02*
X005209Y002733D01*
X005130Y002654D02*
X003429Y002654D01*
X003429Y002576D02*
X005052Y002576D01*
X004973Y002497D02*
X003429Y002497D01*
X003429Y002419D02*
X004895Y002419D01*
X004816Y002340D02*
X003429Y002340D01*
X003429Y002262D02*
X004800Y002262D01*
X004800Y002183D02*
X003429Y002183D01*
X003429Y002105D02*
X004800Y002105D01*
X004800Y002026D02*
X003429Y002026D01*
X003429Y001948D02*
X004800Y001948D01*
X004800Y001869D02*
X003429Y001869D01*
X003429Y001791D02*
X004800Y001791D01*
X004800Y001712D02*
X003429Y001712D01*
X003429Y001633D02*
X004800Y001633D01*
X004800Y001555D02*
X003429Y001555D01*
X003429Y001476D02*
X004800Y001476D01*
X004800Y001398D02*
X003429Y001398D01*
X003429Y001319D02*
X004800Y001319D01*
X004800Y001241D02*
X003429Y001241D01*
X003910Y001159D02*
X003910Y001159D01*
X003910Y001084D02*
X003990Y001084D01*
X003990Y001005D02*
X003910Y001005D01*
X003910Y000927D02*
X003990Y000927D01*
X003990Y000848D02*
X003910Y000848D01*
X003910Y000769D02*
X003990Y000769D01*
X005129Y001084D02*
X005771Y001084D01*
X005641Y001005D02*
X005259Y001005D01*
X005337Y000927D02*
X005563Y000927D01*
X005524Y000848D02*
X005376Y000848D01*
X005409Y000769D02*
X005491Y000769D01*
X005480Y000691D02*
X005420Y000691D01*
X005420Y000612D02*
X005480Y000612D01*
X005489Y000534D02*
X005411Y000534D01*
X005379Y000455D02*
X005522Y000455D01*
X005558Y000377D02*
X005342Y000377D01*
X006677Y000691D02*
X006688Y000691D01*
X006677Y000769D02*
X006701Y000769D01*
X006677Y000848D02*
X006727Y000848D01*
X006769Y000927D02*
X006677Y000927D01*
X006677Y001005D02*
X006833Y001005D01*
X007238Y000612D02*
X007728Y000612D01*
X007737Y000534D02*
X007696Y000534D01*
X007671Y000455D02*
X007770Y000455D01*
X007806Y000377D02*
X007631Y000377D01*
X007708Y000691D02*
X007728Y000691D01*
X007739Y000769D02*
X007695Y000769D01*
X007669Y000848D02*
X007772Y000848D01*
X007811Y000927D02*
X007627Y000927D01*
X007563Y001005D02*
X007890Y001005D01*
X008019Y001084D02*
X007467Y001084D01*
X008377Y001084D02*
X009019Y001084D01*
X008890Y001005D02*
X008507Y001005D01*
X008585Y000927D02*
X008811Y000927D01*
X008772Y000848D02*
X008624Y000848D01*
X008657Y000769D02*
X008739Y000769D01*
X008728Y000691D02*
X008668Y000691D01*
X008668Y000612D02*
X008728Y000612D01*
X008737Y000534D02*
X008659Y000534D01*
X008627Y000455D02*
X008770Y000455D01*
X008806Y000377D02*
X008591Y000377D01*
X001449Y005482D02*
X001014Y005482D01*
X001096Y005404D02*
X001363Y005404D01*
X001296Y005325D02*
X001149Y005325D01*
X001184Y005246D02*
X001263Y005246D01*
X001232Y005168D02*
X001204Y005168D01*
X000742Y005588D02*
X000742Y005588D01*
X000537Y005561D02*
X000281Y005561D01*
X000281Y005482D02*
X000390Y005482D01*
X000308Y005404D02*
X000281Y005404D01*
X011155Y007995D02*
X011235Y007995D01*
X011235Y008074D02*
X011155Y008074D01*
X011155Y008153D02*
X011235Y008153D01*
X011235Y008231D02*
X011155Y008231D01*
X011155Y008310D02*
X011235Y008310D01*
M02*
