G75*
G70*
%OFA0B0*%
%FSLAX24Y24*%
%IPPOS*%
%LPD*%
%AMOC8*
5,1,8,0,0,1.08239X$1,22.5*
%
%ADD10C,0.0090*%
%ADD11C,0.0070*%
%ADD12C,0.0000*%
%ADD13C,0.0050*%
D10*
X000466Y001185D02*
X000931Y001185D01*
X001221Y003510D02*
X001686Y003510D01*
X000931Y005614D02*
X000466Y005614D01*
X001221Y007939D02*
X001686Y007939D01*
X000931Y010043D02*
X000466Y010043D01*
X001221Y012368D02*
X001686Y012368D01*
X000931Y014472D02*
X000466Y014472D01*
X001221Y016797D02*
X001686Y016797D01*
X003714Y014472D02*
X004179Y014472D01*
X004469Y012368D02*
X004934Y012368D01*
X006962Y014472D02*
X007427Y014472D01*
X007717Y012368D02*
X008182Y012368D01*
X010210Y014472D02*
X010676Y014472D01*
X010965Y012368D02*
X011431Y012368D01*
X013458Y014472D02*
X013924Y014472D01*
X014213Y012368D02*
X014679Y012368D01*
X016706Y014472D02*
X017172Y014472D01*
X017461Y012368D02*
X017927Y012368D01*
X017172Y010043D02*
X016706Y010043D01*
X017461Y007939D02*
X017927Y007939D01*
X017172Y005614D02*
X016706Y005614D01*
X017461Y003510D02*
X017927Y003510D01*
X017172Y001185D02*
X016706Y001185D01*
X014679Y003510D02*
X014213Y003510D01*
X013924Y005614D02*
X013458Y005614D01*
X014213Y007939D02*
X014679Y007939D01*
X013924Y010043D02*
X013458Y010043D01*
X011431Y007939D02*
X010965Y007939D01*
X010676Y010043D02*
X010210Y010043D01*
X008182Y007939D02*
X007717Y007939D01*
X007427Y010043D02*
X006962Y010043D01*
X004934Y007939D02*
X004469Y007939D01*
X004179Y010043D02*
X003714Y010043D01*
X003714Y005614D02*
X004179Y005614D01*
X004469Y003510D02*
X004934Y003510D01*
X006962Y005614D02*
X007427Y005614D01*
X007717Y003510D02*
X008182Y003510D01*
X010210Y005614D02*
X010676Y005614D01*
X010965Y003510D02*
X011431Y003510D01*
X010676Y001185D02*
X010210Y001185D01*
X007427Y001185D02*
X006962Y001185D01*
X004179Y001185D02*
X003714Y001185D01*
X013458Y001185D02*
X013924Y001185D01*
X014213Y016797D02*
X014679Y016797D01*
X017461Y016797D02*
X017927Y016797D01*
X011431Y016797D02*
X010965Y016797D01*
X008182Y016797D02*
X007717Y016797D01*
X004934Y016797D02*
X004469Y016797D01*
D11*
X005269Y014789D02*
X005269Y014389D01*
X005429Y014469D02*
X005429Y014709D01*
X005509Y014709D01*
X005509Y014469D01*
X005429Y014469D01*
X005229Y014589D02*
X004709Y014589D01*
X004709Y014269D01*
X005669Y014389D02*
X005669Y014789D01*
X005709Y014589D02*
X006189Y014589D01*
X006189Y014269D01*
X007957Y014269D02*
X007957Y014589D01*
X008477Y014589D01*
X008517Y014789D02*
X008517Y014389D01*
X008677Y014469D02*
X008677Y014709D01*
X008757Y014709D01*
X008757Y014469D01*
X008677Y014469D01*
X008917Y014389D02*
X008917Y014789D01*
X008957Y014589D02*
X009437Y014589D01*
X009437Y014269D01*
X011205Y014269D02*
X011205Y014589D01*
X011725Y014589D01*
X011765Y014789D02*
X011765Y014389D01*
X011925Y014469D02*
X011925Y014709D01*
X012005Y014709D01*
X012005Y014469D01*
X011925Y014469D01*
X012165Y014389D02*
X012165Y014789D01*
X012205Y014589D02*
X012685Y014589D01*
X012685Y014269D01*
X014453Y014269D02*
X014453Y014589D01*
X014973Y014589D01*
X015013Y014789D02*
X015013Y014389D01*
X015173Y014469D02*
X015173Y014709D01*
X015253Y014709D01*
X015253Y014469D01*
X015173Y014469D01*
X015413Y014389D02*
X015413Y014789D01*
X015453Y014589D02*
X015933Y014589D01*
X015933Y014269D01*
X017701Y014269D02*
X017701Y014589D01*
X018221Y014589D01*
X018261Y014789D02*
X018261Y014389D01*
X018421Y014469D02*
X018421Y014709D01*
X018501Y014709D01*
X018501Y014469D01*
X018421Y014469D01*
X018661Y014389D02*
X018661Y014789D01*
X018701Y014589D02*
X019181Y014589D01*
X019181Y014269D01*
X018661Y010359D02*
X018661Y009959D01*
X018501Y010039D02*
X018421Y010039D01*
X018421Y010279D01*
X018501Y010279D01*
X018501Y010039D01*
X018701Y010159D02*
X019181Y010159D01*
X019181Y009839D01*
X018261Y009959D02*
X018261Y010359D01*
X018221Y010159D02*
X017701Y010159D01*
X017701Y009839D01*
X015933Y009839D02*
X015933Y010159D01*
X015453Y010159D01*
X015413Y010359D02*
X015413Y009959D01*
X015253Y010039D02*
X015173Y010039D01*
X015173Y010279D01*
X015253Y010279D01*
X015253Y010039D01*
X015013Y009959D02*
X015013Y010359D01*
X014973Y010159D02*
X014453Y010159D01*
X014453Y009839D01*
X012685Y009839D02*
X012685Y010159D01*
X012205Y010159D01*
X012165Y010359D02*
X012165Y009959D01*
X012005Y010039D02*
X011925Y010039D01*
X011925Y010279D01*
X012005Y010279D01*
X012005Y010039D01*
X011765Y009959D02*
X011765Y010359D01*
X011725Y010159D02*
X011205Y010159D01*
X011205Y009839D01*
X009437Y009839D02*
X009437Y010159D01*
X008957Y010159D01*
X008917Y010359D02*
X008917Y009959D01*
X008757Y010039D02*
X008677Y010039D01*
X008677Y010279D01*
X008757Y010279D01*
X008757Y010039D01*
X008517Y009959D02*
X008517Y010359D01*
X008477Y010159D02*
X007957Y010159D01*
X007957Y009839D01*
X006189Y009839D02*
X006189Y010159D01*
X005709Y010159D01*
X005669Y010359D02*
X005669Y009959D01*
X005509Y010039D02*
X005429Y010039D01*
X005429Y010279D01*
X005509Y010279D01*
X005509Y010039D01*
X005269Y009959D02*
X005269Y010359D01*
X005229Y010159D02*
X004709Y010159D01*
X004709Y009839D01*
X002941Y009839D02*
X002941Y010159D01*
X002461Y010159D01*
X002421Y010359D02*
X002421Y009959D01*
X002261Y010039D02*
X002181Y010039D01*
X002181Y010279D01*
X002261Y010279D01*
X002261Y010039D01*
X002021Y009959D02*
X002021Y010359D01*
X001981Y010159D02*
X001461Y010159D01*
X001461Y009839D01*
X002021Y005930D02*
X002021Y005530D01*
X002181Y005610D02*
X002181Y005850D01*
X002261Y005850D01*
X002261Y005610D01*
X002181Y005610D01*
X001981Y005730D02*
X001461Y005730D01*
X001461Y005410D01*
X002421Y005530D02*
X002421Y005930D01*
X002461Y005730D02*
X002941Y005730D01*
X002941Y005410D01*
X004709Y005410D02*
X004709Y005730D01*
X005229Y005730D01*
X005269Y005930D02*
X005269Y005530D01*
X005429Y005610D02*
X005429Y005850D01*
X005509Y005850D01*
X005509Y005610D01*
X005429Y005610D01*
X005669Y005530D02*
X005669Y005930D01*
X005709Y005730D02*
X006189Y005730D01*
X006189Y005410D01*
X007957Y005410D02*
X007957Y005730D01*
X008477Y005730D01*
X008517Y005930D02*
X008517Y005530D01*
X008677Y005610D02*
X008677Y005850D01*
X008757Y005850D01*
X008757Y005610D01*
X008677Y005610D01*
X008917Y005530D02*
X008917Y005930D01*
X008957Y005730D02*
X009437Y005730D01*
X009437Y005410D01*
X011205Y005410D02*
X011205Y005730D01*
X011725Y005730D01*
X011765Y005930D02*
X011765Y005530D01*
X011925Y005610D02*
X011925Y005850D01*
X012005Y005850D01*
X012005Y005610D01*
X011925Y005610D01*
X012165Y005530D02*
X012165Y005930D01*
X012205Y005730D02*
X012685Y005730D01*
X012685Y005410D01*
X014453Y005410D02*
X014453Y005730D01*
X014973Y005730D01*
X015013Y005930D02*
X015013Y005530D01*
X015173Y005610D02*
X015173Y005850D01*
X015253Y005850D01*
X015253Y005610D01*
X015173Y005610D01*
X015413Y005530D02*
X015413Y005930D01*
X015453Y005730D02*
X015933Y005730D01*
X015933Y005410D01*
X017701Y005410D02*
X017701Y005730D01*
X018221Y005730D01*
X018261Y005930D02*
X018261Y005530D01*
X018421Y005610D02*
X018421Y005850D01*
X018501Y005850D01*
X018501Y005610D01*
X018421Y005610D01*
X018661Y005530D02*
X018661Y005930D01*
X018701Y005730D02*
X019181Y005730D01*
X019181Y005410D01*
X018661Y001501D02*
X018661Y001101D01*
X018501Y001181D02*
X018421Y001181D01*
X018421Y001421D01*
X018501Y001421D01*
X018501Y001181D01*
X018701Y001301D02*
X019181Y001301D01*
X019181Y000981D01*
X018261Y001101D02*
X018261Y001501D01*
X018221Y001301D02*
X017701Y001301D01*
X017701Y000981D01*
X015933Y000981D02*
X015933Y001301D01*
X015453Y001301D01*
X015413Y001501D02*
X015413Y001101D01*
X015253Y001181D02*
X015173Y001181D01*
X015173Y001421D01*
X015253Y001421D01*
X015253Y001181D01*
X015013Y001101D02*
X015013Y001501D01*
X014973Y001301D02*
X014453Y001301D01*
X014453Y000981D01*
X012685Y000981D02*
X012685Y001301D01*
X012205Y001301D01*
X012165Y001501D02*
X012165Y001101D01*
X012005Y001181D02*
X011925Y001181D01*
X011925Y001421D01*
X012005Y001421D01*
X012005Y001181D01*
X011765Y001101D02*
X011765Y001501D01*
X011725Y001301D02*
X011205Y001301D01*
X011205Y000981D01*
X009437Y000981D02*
X009437Y001301D01*
X008957Y001301D01*
X008917Y001501D02*
X008917Y001101D01*
X008757Y001181D02*
X008677Y001181D01*
X008677Y001421D01*
X008757Y001421D01*
X008757Y001181D01*
X008517Y001101D02*
X008517Y001501D01*
X008477Y001301D02*
X007957Y001301D01*
X007957Y000981D01*
X006189Y000981D02*
X006189Y001301D01*
X005709Y001301D01*
X005669Y001501D02*
X005669Y001101D01*
X005509Y001181D02*
X005429Y001181D01*
X005429Y001421D01*
X005509Y001421D01*
X005509Y001181D01*
X005269Y001101D02*
X005269Y001501D01*
X005229Y001301D02*
X004709Y001301D01*
X004709Y000981D01*
X002941Y000981D02*
X002941Y001301D01*
X002461Y001301D01*
X002421Y001501D02*
X002421Y001101D01*
X002261Y001181D02*
X002181Y001181D01*
X002181Y001421D01*
X002261Y001421D01*
X002261Y001181D01*
X002021Y001101D02*
X002021Y001501D01*
X001981Y001301D02*
X001461Y001301D01*
X001461Y000981D01*
X001461Y014269D02*
X001461Y014589D01*
X001981Y014589D01*
X002021Y014789D02*
X002021Y014389D01*
X002181Y014469D02*
X002181Y014709D01*
X002261Y014709D01*
X002261Y014469D01*
X002181Y014469D01*
X002421Y014389D02*
X002421Y014789D01*
X002461Y014589D02*
X002941Y014589D01*
X002941Y014269D01*
D12*
X000141Y019826D02*
X000141Y000141D01*
X019531Y000240D01*
X019531Y019826D01*
X000141Y019826D01*
X003586Y018842D02*
X003588Y018886D01*
X003594Y018930D01*
X003604Y018973D01*
X003617Y019015D01*
X003635Y019055D01*
X003656Y019094D01*
X003680Y019131D01*
X003707Y019166D01*
X003738Y019198D01*
X003771Y019227D01*
X003807Y019253D01*
X003845Y019275D01*
X003885Y019294D01*
X003926Y019310D01*
X003969Y019322D01*
X004012Y019330D01*
X004056Y019334D01*
X004100Y019334D01*
X004144Y019330D01*
X004187Y019322D01*
X004230Y019310D01*
X004271Y019294D01*
X004311Y019275D01*
X004349Y019253D01*
X004385Y019227D01*
X004418Y019198D01*
X004449Y019166D01*
X004476Y019131D01*
X004500Y019094D01*
X004521Y019055D01*
X004539Y019015D01*
X004552Y018973D01*
X004562Y018930D01*
X004568Y018886D01*
X004570Y018842D01*
X004568Y018798D01*
X004562Y018754D01*
X004552Y018711D01*
X004539Y018669D01*
X004521Y018629D01*
X004500Y018590D01*
X004476Y018553D01*
X004449Y018518D01*
X004418Y018486D01*
X004385Y018457D01*
X004349Y018431D01*
X004311Y018409D01*
X004271Y018390D01*
X004230Y018374D01*
X004187Y018362D01*
X004144Y018354D01*
X004100Y018350D01*
X004056Y018350D01*
X004012Y018354D01*
X003969Y018362D01*
X003926Y018374D01*
X003885Y018390D01*
X003845Y018409D01*
X003807Y018431D01*
X003771Y018457D01*
X003738Y018486D01*
X003707Y018518D01*
X003680Y018553D01*
X003656Y018590D01*
X003635Y018629D01*
X003617Y018669D01*
X003604Y018711D01*
X003594Y018754D01*
X003588Y018798D01*
X003586Y018842D01*
X015397Y018842D02*
X015399Y018886D01*
X015405Y018930D01*
X015415Y018973D01*
X015428Y019015D01*
X015446Y019055D01*
X015467Y019094D01*
X015491Y019131D01*
X015518Y019166D01*
X015549Y019198D01*
X015582Y019227D01*
X015618Y019253D01*
X015656Y019275D01*
X015696Y019294D01*
X015737Y019310D01*
X015780Y019322D01*
X015823Y019330D01*
X015867Y019334D01*
X015911Y019334D01*
X015955Y019330D01*
X015998Y019322D01*
X016041Y019310D01*
X016082Y019294D01*
X016122Y019275D01*
X016160Y019253D01*
X016196Y019227D01*
X016229Y019198D01*
X016260Y019166D01*
X016287Y019131D01*
X016311Y019094D01*
X016332Y019055D01*
X016350Y019015D01*
X016363Y018973D01*
X016373Y018930D01*
X016379Y018886D01*
X016381Y018842D01*
X016379Y018798D01*
X016373Y018754D01*
X016363Y018711D01*
X016350Y018669D01*
X016332Y018629D01*
X016311Y018590D01*
X016287Y018553D01*
X016260Y018518D01*
X016229Y018486D01*
X016196Y018457D01*
X016160Y018431D01*
X016122Y018409D01*
X016082Y018390D01*
X016041Y018374D01*
X015998Y018362D01*
X015955Y018354D01*
X015911Y018350D01*
X015867Y018350D01*
X015823Y018354D01*
X015780Y018362D01*
X015737Y018374D01*
X015696Y018390D01*
X015656Y018409D01*
X015618Y018431D01*
X015582Y018457D01*
X015549Y018486D01*
X015518Y018518D01*
X015491Y018553D01*
X015467Y018590D01*
X015446Y018629D01*
X015428Y018669D01*
X015415Y018711D01*
X015405Y018754D01*
X015399Y018798D01*
X015397Y018842D01*
D13*
X015028Y017133D02*
X016012Y017133D01*
X016033Y017134D01*
X016054Y017132D01*
X016074Y017127D01*
X016093Y017119D01*
X016110Y017108D01*
X016126Y017095D01*
X016139Y017079D01*
X016150Y017061D01*
X016158Y017042D01*
X016163Y017022D01*
X016163Y017021D02*
X016163Y015276D01*
X016163Y015275D02*
X016158Y015255D01*
X016150Y015236D01*
X016139Y015218D01*
X016126Y015202D01*
X016110Y015189D01*
X016093Y015178D01*
X016074Y015170D01*
X016054Y015165D01*
X016033Y015163D01*
X016012Y015164D01*
X014991Y015164D01*
X014974Y015166D01*
X014957Y015171D01*
X014942Y015179D01*
X014929Y015190D01*
X014918Y015203D01*
X014910Y015218D01*
X014905Y015235D01*
X014903Y015252D01*
X014903Y017008D01*
X014904Y017008D02*
X014906Y017027D01*
X014910Y017046D01*
X014918Y017064D01*
X014928Y017081D01*
X014940Y017096D01*
X014955Y017108D01*
X014972Y017118D01*
X014990Y017126D01*
X015009Y017130D01*
X015028Y017132D01*
X015297Y016936D02*
X015848Y016936D01*
X015849Y016935D02*
X015877Y016931D01*
X015904Y016923D01*
X015930Y016911D01*
X015954Y016896D01*
X015976Y016878D01*
X015996Y016858D01*
X016012Y016835D01*
X016026Y016810D01*
X016036Y016784D01*
X016043Y016756D01*
X016046Y016728D01*
X016045Y016699D01*
X016045Y016700D02*
X016045Y015637D01*
X016046Y015606D01*
X016043Y015575D01*
X016036Y015545D01*
X016025Y015515D01*
X016011Y015488D01*
X015994Y015462D01*
X015974Y015438D01*
X015951Y015417D01*
X015926Y015399D01*
X015898Y015384D01*
X015869Y015373D01*
X015839Y015365D01*
X015809Y015361D01*
X015258Y015361D01*
X015230Y015363D01*
X015202Y015368D01*
X015174Y015376D01*
X015148Y015388D01*
X015124Y015403D01*
X015102Y015420D01*
X015081Y015441D01*
X015064Y015463D01*
X015049Y015487D01*
X015037Y015513D01*
X015029Y015541D01*
X015024Y015569D01*
X015022Y015597D01*
X015021Y015597D02*
X015021Y016700D01*
X015025Y016731D01*
X015033Y016761D01*
X015044Y016789D01*
X015059Y016817D01*
X015077Y016842D01*
X015098Y016865D01*
X015122Y016885D01*
X015148Y016902D01*
X015175Y016916D01*
X015205Y016927D01*
X015235Y016934D01*
X015266Y016937D01*
X015297Y016936D01*
X012915Y017021D02*
X012915Y015276D01*
X012915Y015275D02*
X012910Y015255D01*
X012902Y015236D01*
X012891Y015218D01*
X012878Y015202D01*
X012862Y015189D01*
X012845Y015178D01*
X012826Y015170D01*
X012806Y015165D01*
X012785Y015163D01*
X012764Y015164D01*
X011743Y015164D01*
X011726Y015166D01*
X011709Y015171D01*
X011694Y015179D01*
X011681Y015190D01*
X011670Y015203D01*
X011662Y015218D01*
X011657Y015235D01*
X011655Y015252D01*
X011655Y017008D01*
X011656Y017008D02*
X011658Y017027D01*
X011662Y017046D01*
X011670Y017064D01*
X011680Y017081D01*
X011692Y017096D01*
X011707Y017108D01*
X011724Y017118D01*
X011742Y017126D01*
X011761Y017130D01*
X011780Y017132D01*
X011780Y017133D02*
X012764Y017133D01*
X012785Y017134D01*
X012806Y017132D01*
X012826Y017127D01*
X012845Y017119D01*
X012862Y017108D01*
X012878Y017095D01*
X012891Y017079D01*
X012902Y017061D01*
X012910Y017042D01*
X012915Y017022D01*
X012600Y016936D02*
X012049Y016936D01*
X012018Y016937D01*
X011987Y016934D01*
X011957Y016927D01*
X011927Y016916D01*
X011900Y016902D01*
X011874Y016885D01*
X011850Y016865D01*
X011829Y016842D01*
X011811Y016817D01*
X011796Y016789D01*
X011785Y016761D01*
X011777Y016731D01*
X011773Y016700D01*
X011773Y015597D01*
X011774Y015597D02*
X011776Y015569D01*
X011781Y015541D01*
X011789Y015513D01*
X011801Y015487D01*
X011816Y015463D01*
X011833Y015441D01*
X011854Y015420D01*
X011876Y015403D01*
X011900Y015388D01*
X011926Y015376D01*
X011954Y015368D01*
X011982Y015363D01*
X012010Y015361D01*
X012561Y015361D01*
X012591Y015365D01*
X012621Y015373D01*
X012650Y015384D01*
X012678Y015399D01*
X012703Y015417D01*
X012726Y015438D01*
X012746Y015462D01*
X012763Y015488D01*
X012777Y015515D01*
X012788Y015545D01*
X012795Y015575D01*
X012798Y015606D01*
X012797Y015637D01*
X012797Y016700D01*
X012796Y016699D02*
X012797Y016728D01*
X012794Y016756D01*
X012787Y016784D01*
X012777Y016810D01*
X012763Y016835D01*
X012747Y016858D01*
X012727Y016878D01*
X012705Y016896D01*
X012681Y016911D01*
X012655Y016923D01*
X012628Y016931D01*
X012600Y016935D01*
X009667Y017021D02*
X009667Y015276D01*
X009667Y015275D02*
X009662Y015255D01*
X009654Y015236D01*
X009643Y015218D01*
X009630Y015202D01*
X009614Y015189D01*
X009597Y015178D01*
X009578Y015170D01*
X009558Y015165D01*
X009537Y015163D01*
X009516Y015164D01*
X008495Y015164D01*
X008478Y015166D01*
X008461Y015171D01*
X008446Y015179D01*
X008433Y015190D01*
X008422Y015203D01*
X008414Y015218D01*
X008409Y015235D01*
X008407Y015252D01*
X008407Y017008D01*
X008408Y017008D02*
X008410Y017027D01*
X008414Y017046D01*
X008422Y017064D01*
X008432Y017081D01*
X008444Y017096D01*
X008459Y017108D01*
X008476Y017118D01*
X008494Y017126D01*
X008513Y017130D01*
X008532Y017132D01*
X008532Y017133D02*
X009516Y017133D01*
X009537Y017134D01*
X009558Y017132D01*
X009578Y017127D01*
X009597Y017119D01*
X009614Y017108D01*
X009630Y017095D01*
X009643Y017079D01*
X009654Y017061D01*
X009662Y017042D01*
X009667Y017022D01*
X009352Y016936D02*
X008801Y016936D01*
X008770Y016937D01*
X008739Y016934D01*
X008709Y016927D01*
X008679Y016916D01*
X008652Y016902D01*
X008626Y016885D01*
X008602Y016865D01*
X008581Y016842D01*
X008563Y016817D01*
X008548Y016789D01*
X008537Y016761D01*
X008529Y016731D01*
X008525Y016700D01*
X008525Y015597D01*
X008526Y015597D02*
X008528Y015569D01*
X008533Y015541D01*
X008541Y015513D01*
X008553Y015487D01*
X008568Y015463D01*
X008585Y015441D01*
X008606Y015420D01*
X008628Y015403D01*
X008652Y015388D01*
X008678Y015376D01*
X008706Y015368D01*
X008734Y015363D01*
X008762Y015361D01*
X009313Y015361D01*
X009343Y015365D01*
X009373Y015373D01*
X009402Y015384D01*
X009430Y015399D01*
X009455Y015417D01*
X009478Y015438D01*
X009498Y015462D01*
X009515Y015488D01*
X009529Y015515D01*
X009540Y015545D01*
X009547Y015575D01*
X009550Y015606D01*
X009549Y015637D01*
X009549Y016700D01*
X009548Y016699D02*
X009549Y016728D01*
X009546Y016756D01*
X009539Y016784D01*
X009529Y016810D01*
X009515Y016835D01*
X009499Y016858D01*
X009479Y016878D01*
X009457Y016896D01*
X009433Y016911D01*
X009407Y016923D01*
X009380Y016931D01*
X009352Y016935D01*
X006419Y017021D02*
X006419Y015276D01*
X006419Y015275D02*
X006414Y015255D01*
X006406Y015236D01*
X006395Y015218D01*
X006382Y015202D01*
X006366Y015189D01*
X006349Y015178D01*
X006330Y015170D01*
X006310Y015165D01*
X006289Y015163D01*
X006268Y015164D01*
X005247Y015164D01*
X005230Y015166D01*
X005213Y015171D01*
X005198Y015179D01*
X005185Y015190D01*
X005174Y015203D01*
X005166Y015218D01*
X005161Y015235D01*
X005159Y015252D01*
X005159Y017008D01*
X005160Y017008D02*
X005162Y017027D01*
X005166Y017046D01*
X005174Y017064D01*
X005184Y017081D01*
X005196Y017096D01*
X005211Y017108D01*
X005228Y017118D01*
X005246Y017126D01*
X005265Y017130D01*
X005284Y017132D01*
X005284Y017133D02*
X006268Y017133D01*
X006289Y017134D01*
X006310Y017132D01*
X006330Y017127D01*
X006349Y017119D01*
X006366Y017108D01*
X006382Y017095D01*
X006395Y017079D01*
X006406Y017061D01*
X006414Y017042D01*
X006419Y017022D01*
X006104Y016936D02*
X005553Y016936D01*
X005522Y016937D01*
X005491Y016934D01*
X005461Y016927D01*
X005431Y016916D01*
X005404Y016902D01*
X005378Y016885D01*
X005354Y016865D01*
X005333Y016842D01*
X005315Y016817D01*
X005300Y016789D01*
X005289Y016761D01*
X005281Y016731D01*
X005277Y016700D01*
X005277Y015597D01*
X005278Y015597D02*
X005280Y015569D01*
X005285Y015541D01*
X005293Y015513D01*
X005305Y015487D01*
X005320Y015463D01*
X005337Y015441D01*
X005358Y015420D01*
X005380Y015403D01*
X005404Y015388D01*
X005430Y015376D01*
X005458Y015368D01*
X005486Y015363D01*
X005514Y015361D01*
X006065Y015361D01*
X006095Y015365D01*
X006125Y015373D01*
X006154Y015384D01*
X006182Y015399D01*
X006207Y015417D01*
X006230Y015438D01*
X006250Y015462D01*
X006267Y015488D01*
X006281Y015515D01*
X006292Y015545D01*
X006299Y015575D01*
X006302Y015606D01*
X006301Y015637D01*
X006301Y016700D01*
X006300Y016699D02*
X006301Y016728D01*
X006298Y016756D01*
X006291Y016784D01*
X006281Y016810D01*
X006267Y016835D01*
X006251Y016858D01*
X006231Y016878D01*
X006209Y016896D01*
X006185Y016911D01*
X006159Y016923D01*
X006132Y016931D01*
X006104Y016935D01*
X003171Y017021D02*
X003171Y015276D01*
X003171Y015275D02*
X003166Y015255D01*
X003158Y015236D01*
X003147Y015218D01*
X003134Y015202D01*
X003118Y015189D01*
X003101Y015178D01*
X003082Y015170D01*
X003062Y015165D01*
X003041Y015163D01*
X003020Y015164D01*
X001999Y015164D01*
X001982Y015166D01*
X001965Y015171D01*
X001950Y015179D01*
X001937Y015190D01*
X001926Y015203D01*
X001918Y015218D01*
X001913Y015235D01*
X001911Y015252D01*
X001911Y017008D01*
X001912Y017008D02*
X001914Y017027D01*
X001918Y017046D01*
X001926Y017064D01*
X001936Y017081D01*
X001948Y017096D01*
X001963Y017108D01*
X001980Y017118D01*
X001998Y017126D01*
X002017Y017130D01*
X002036Y017132D01*
X002036Y017133D02*
X003020Y017133D01*
X003041Y017134D01*
X003062Y017132D01*
X003082Y017127D01*
X003101Y017119D01*
X003118Y017108D01*
X003134Y017095D01*
X003147Y017079D01*
X003158Y017061D01*
X003166Y017042D01*
X003171Y017022D01*
X002856Y016936D02*
X002305Y016936D01*
X002274Y016937D01*
X002243Y016934D01*
X002213Y016927D01*
X002183Y016916D01*
X002156Y016902D01*
X002130Y016885D01*
X002106Y016865D01*
X002085Y016842D01*
X002067Y016817D01*
X002052Y016789D01*
X002041Y016761D01*
X002033Y016731D01*
X002029Y016700D01*
X002029Y015597D01*
X002030Y015597D02*
X002032Y015569D01*
X002037Y015541D01*
X002045Y015513D01*
X002057Y015487D01*
X002072Y015463D01*
X002089Y015441D01*
X002110Y015420D01*
X002132Y015403D01*
X002156Y015388D01*
X002182Y015376D01*
X002210Y015368D01*
X002238Y015363D01*
X002266Y015361D01*
X002817Y015361D01*
X002847Y015365D01*
X002877Y015373D01*
X002906Y015384D01*
X002934Y015399D01*
X002959Y015417D01*
X002982Y015438D01*
X003002Y015462D01*
X003019Y015488D01*
X003033Y015515D01*
X003044Y015545D01*
X003051Y015575D01*
X003054Y015606D01*
X003053Y015637D01*
X003053Y016700D01*
X003052Y016699D02*
X003053Y016728D01*
X003050Y016756D01*
X003043Y016784D01*
X003033Y016810D01*
X003019Y016835D01*
X003003Y016858D01*
X002983Y016878D01*
X002961Y016896D01*
X002937Y016911D01*
X002911Y016923D01*
X002884Y016931D01*
X002856Y016935D01*
X003020Y012704D02*
X002036Y012704D01*
X002036Y012703D02*
X002017Y012701D01*
X001998Y012697D01*
X001980Y012689D01*
X001963Y012679D01*
X001948Y012667D01*
X001936Y012652D01*
X001926Y012635D01*
X001918Y012617D01*
X001914Y012598D01*
X001912Y012579D01*
X001911Y012579D02*
X001911Y010823D01*
X001913Y010806D01*
X001918Y010789D01*
X001926Y010774D01*
X001937Y010761D01*
X001950Y010750D01*
X001965Y010742D01*
X001982Y010737D01*
X001999Y010735D01*
X003020Y010735D01*
X003041Y010734D01*
X003062Y010736D01*
X003082Y010741D01*
X003101Y010749D01*
X003118Y010760D01*
X003134Y010773D01*
X003147Y010789D01*
X003158Y010807D01*
X003166Y010826D01*
X003171Y010846D01*
X003171Y012592D01*
X003171Y012593D02*
X003166Y012613D01*
X003158Y012632D01*
X003147Y012650D01*
X003134Y012666D01*
X003118Y012679D01*
X003101Y012690D01*
X003082Y012698D01*
X003062Y012703D01*
X003041Y012705D01*
X003020Y012704D01*
X002856Y012507D02*
X002305Y012507D01*
X002274Y012508D01*
X002243Y012505D01*
X002213Y012498D01*
X002183Y012487D01*
X002156Y012473D01*
X002130Y012456D01*
X002106Y012436D01*
X002085Y012413D01*
X002067Y012388D01*
X002052Y012360D01*
X002041Y012332D01*
X002033Y012302D01*
X002029Y012271D01*
X002029Y011168D01*
X002030Y011168D02*
X002032Y011140D01*
X002037Y011112D01*
X002045Y011084D01*
X002057Y011058D01*
X002072Y011034D01*
X002089Y011012D01*
X002110Y010991D01*
X002132Y010974D01*
X002156Y010959D01*
X002182Y010947D01*
X002210Y010939D01*
X002238Y010934D01*
X002266Y010932D01*
X002817Y010932D01*
X002847Y010936D01*
X002877Y010944D01*
X002906Y010955D01*
X002934Y010970D01*
X002959Y010988D01*
X002982Y011009D01*
X003002Y011033D01*
X003019Y011059D01*
X003033Y011086D01*
X003044Y011116D01*
X003051Y011146D01*
X003054Y011177D01*
X003053Y011208D01*
X003053Y012271D01*
X003052Y012270D02*
X003053Y012299D01*
X003050Y012327D01*
X003043Y012355D01*
X003033Y012381D01*
X003019Y012406D01*
X003003Y012429D01*
X002983Y012449D01*
X002961Y012467D01*
X002937Y012482D01*
X002911Y012494D01*
X002884Y012502D01*
X002856Y012506D01*
X005159Y012579D02*
X005159Y010823D01*
X005161Y010806D01*
X005166Y010789D01*
X005174Y010774D01*
X005185Y010761D01*
X005198Y010750D01*
X005213Y010742D01*
X005230Y010737D01*
X005247Y010735D01*
X006268Y010735D01*
X006289Y010734D01*
X006310Y010736D01*
X006330Y010741D01*
X006349Y010749D01*
X006366Y010760D01*
X006382Y010773D01*
X006395Y010789D01*
X006406Y010807D01*
X006414Y010826D01*
X006419Y010846D01*
X006419Y012592D01*
X006419Y012593D02*
X006414Y012613D01*
X006406Y012632D01*
X006395Y012650D01*
X006382Y012666D01*
X006366Y012679D01*
X006349Y012690D01*
X006330Y012698D01*
X006310Y012703D01*
X006289Y012705D01*
X006268Y012704D01*
X005284Y012704D01*
X005284Y012703D02*
X005265Y012701D01*
X005246Y012697D01*
X005228Y012689D01*
X005211Y012679D01*
X005196Y012667D01*
X005184Y012652D01*
X005174Y012635D01*
X005166Y012617D01*
X005162Y012598D01*
X005160Y012579D01*
X005277Y012271D02*
X005277Y011168D01*
X005278Y011168D02*
X005280Y011140D01*
X005285Y011112D01*
X005293Y011084D01*
X005305Y011058D01*
X005320Y011034D01*
X005337Y011012D01*
X005358Y010991D01*
X005380Y010974D01*
X005404Y010959D01*
X005430Y010947D01*
X005458Y010939D01*
X005486Y010934D01*
X005514Y010932D01*
X006065Y010932D01*
X006095Y010936D01*
X006125Y010944D01*
X006154Y010955D01*
X006182Y010970D01*
X006207Y010988D01*
X006230Y011009D01*
X006250Y011033D01*
X006267Y011059D01*
X006281Y011086D01*
X006292Y011116D01*
X006299Y011146D01*
X006302Y011177D01*
X006301Y011208D01*
X006301Y012271D01*
X006104Y012507D02*
X005553Y012507D01*
X005522Y012508D01*
X005491Y012505D01*
X005461Y012498D01*
X005431Y012487D01*
X005404Y012473D01*
X005378Y012456D01*
X005354Y012436D01*
X005333Y012413D01*
X005315Y012388D01*
X005300Y012360D01*
X005289Y012332D01*
X005281Y012302D01*
X005277Y012271D01*
X006104Y012506D02*
X006132Y012502D01*
X006159Y012494D01*
X006185Y012482D01*
X006209Y012467D01*
X006231Y012449D01*
X006251Y012429D01*
X006267Y012406D01*
X006281Y012381D01*
X006291Y012355D01*
X006298Y012327D01*
X006301Y012299D01*
X006300Y012270D01*
X008407Y012579D02*
X008407Y010823D01*
X008409Y010806D01*
X008414Y010789D01*
X008422Y010774D01*
X008433Y010761D01*
X008446Y010750D01*
X008461Y010742D01*
X008478Y010737D01*
X008495Y010735D01*
X009516Y010735D01*
X009537Y010734D01*
X009558Y010736D01*
X009578Y010741D01*
X009597Y010749D01*
X009614Y010760D01*
X009630Y010773D01*
X009643Y010789D01*
X009654Y010807D01*
X009662Y010826D01*
X009667Y010846D01*
X009667Y012592D01*
X009667Y012593D02*
X009662Y012613D01*
X009654Y012632D01*
X009643Y012650D01*
X009630Y012666D01*
X009614Y012679D01*
X009597Y012690D01*
X009578Y012698D01*
X009558Y012703D01*
X009537Y012705D01*
X009516Y012704D01*
X008532Y012704D01*
X008532Y012703D02*
X008513Y012701D01*
X008494Y012697D01*
X008476Y012689D01*
X008459Y012679D01*
X008444Y012667D01*
X008432Y012652D01*
X008422Y012635D01*
X008414Y012617D01*
X008410Y012598D01*
X008408Y012579D01*
X008525Y012271D02*
X008525Y011168D01*
X008526Y011168D02*
X008528Y011140D01*
X008533Y011112D01*
X008541Y011084D01*
X008553Y011058D01*
X008568Y011034D01*
X008585Y011012D01*
X008606Y010991D01*
X008628Y010974D01*
X008652Y010959D01*
X008678Y010947D01*
X008706Y010939D01*
X008734Y010934D01*
X008762Y010932D01*
X009313Y010932D01*
X009343Y010936D01*
X009373Y010944D01*
X009402Y010955D01*
X009430Y010970D01*
X009455Y010988D01*
X009478Y011009D01*
X009498Y011033D01*
X009515Y011059D01*
X009529Y011086D01*
X009540Y011116D01*
X009547Y011146D01*
X009550Y011177D01*
X009549Y011208D01*
X009549Y012271D01*
X009548Y012270D02*
X009549Y012299D01*
X009546Y012327D01*
X009539Y012355D01*
X009529Y012381D01*
X009515Y012406D01*
X009499Y012429D01*
X009479Y012449D01*
X009457Y012467D01*
X009433Y012482D01*
X009407Y012494D01*
X009380Y012502D01*
X009352Y012506D01*
X009352Y012507D02*
X008801Y012507D01*
X008770Y012508D01*
X008739Y012505D01*
X008709Y012498D01*
X008679Y012487D01*
X008652Y012473D01*
X008626Y012456D01*
X008602Y012436D01*
X008581Y012413D01*
X008563Y012388D01*
X008548Y012360D01*
X008537Y012332D01*
X008529Y012302D01*
X008525Y012271D01*
X011655Y012579D02*
X011655Y010823D01*
X011657Y010806D01*
X011662Y010789D01*
X011670Y010774D01*
X011681Y010761D01*
X011694Y010750D01*
X011709Y010742D01*
X011726Y010737D01*
X011743Y010735D01*
X012764Y010735D01*
X012785Y010734D01*
X012806Y010736D01*
X012826Y010741D01*
X012845Y010749D01*
X012862Y010760D01*
X012878Y010773D01*
X012891Y010789D01*
X012902Y010807D01*
X012910Y010826D01*
X012915Y010846D01*
X012915Y012592D01*
X012915Y012593D02*
X012910Y012613D01*
X012902Y012632D01*
X012891Y012650D01*
X012878Y012666D01*
X012862Y012679D01*
X012845Y012690D01*
X012826Y012698D01*
X012806Y012703D01*
X012785Y012705D01*
X012764Y012704D01*
X011780Y012704D01*
X011780Y012703D02*
X011761Y012701D01*
X011742Y012697D01*
X011724Y012689D01*
X011707Y012679D01*
X011692Y012667D01*
X011680Y012652D01*
X011670Y012635D01*
X011662Y012617D01*
X011658Y012598D01*
X011656Y012579D01*
X011773Y012271D02*
X011773Y011168D01*
X011774Y011168D02*
X011776Y011140D01*
X011781Y011112D01*
X011789Y011084D01*
X011801Y011058D01*
X011816Y011034D01*
X011833Y011012D01*
X011854Y010991D01*
X011876Y010974D01*
X011900Y010959D01*
X011926Y010947D01*
X011954Y010939D01*
X011982Y010934D01*
X012010Y010932D01*
X012561Y010932D01*
X012591Y010936D01*
X012621Y010944D01*
X012650Y010955D01*
X012678Y010970D01*
X012703Y010988D01*
X012726Y011009D01*
X012746Y011033D01*
X012763Y011059D01*
X012777Y011086D01*
X012788Y011116D01*
X012795Y011146D01*
X012798Y011177D01*
X012797Y011208D01*
X012797Y012271D01*
X012600Y012507D02*
X012049Y012507D01*
X012018Y012508D01*
X011987Y012505D01*
X011957Y012498D01*
X011927Y012487D01*
X011900Y012473D01*
X011874Y012456D01*
X011850Y012436D01*
X011829Y012413D01*
X011811Y012388D01*
X011796Y012360D01*
X011785Y012332D01*
X011777Y012302D01*
X011773Y012271D01*
X012600Y012506D02*
X012628Y012502D01*
X012655Y012494D01*
X012681Y012482D01*
X012705Y012467D01*
X012727Y012449D01*
X012747Y012429D01*
X012763Y012406D01*
X012777Y012381D01*
X012787Y012355D01*
X012794Y012327D01*
X012797Y012299D01*
X012796Y012270D01*
X014903Y012579D02*
X014903Y010823D01*
X014905Y010806D01*
X014910Y010789D01*
X014918Y010774D01*
X014929Y010761D01*
X014942Y010750D01*
X014957Y010742D01*
X014974Y010737D01*
X014991Y010735D01*
X016012Y010735D01*
X016033Y010734D01*
X016054Y010736D01*
X016074Y010741D01*
X016093Y010749D01*
X016110Y010760D01*
X016126Y010773D01*
X016139Y010789D01*
X016150Y010807D01*
X016158Y010826D01*
X016163Y010846D01*
X016163Y012592D01*
X016163Y012593D02*
X016158Y012613D01*
X016150Y012632D01*
X016139Y012650D01*
X016126Y012666D01*
X016110Y012679D01*
X016093Y012690D01*
X016074Y012698D01*
X016054Y012703D01*
X016033Y012705D01*
X016012Y012704D01*
X015028Y012704D01*
X015028Y012703D02*
X015009Y012701D01*
X014990Y012697D01*
X014972Y012689D01*
X014955Y012679D01*
X014940Y012667D01*
X014928Y012652D01*
X014918Y012635D01*
X014910Y012617D01*
X014906Y012598D01*
X014904Y012579D01*
X015021Y012271D02*
X015021Y011168D01*
X015022Y011168D02*
X015024Y011140D01*
X015029Y011112D01*
X015037Y011084D01*
X015049Y011058D01*
X015064Y011034D01*
X015081Y011012D01*
X015102Y010991D01*
X015124Y010974D01*
X015148Y010959D01*
X015174Y010947D01*
X015202Y010939D01*
X015230Y010934D01*
X015258Y010932D01*
X015809Y010932D01*
X015839Y010936D01*
X015869Y010944D01*
X015898Y010955D01*
X015926Y010970D01*
X015951Y010988D01*
X015974Y011009D01*
X015994Y011033D01*
X016011Y011059D01*
X016025Y011086D01*
X016036Y011116D01*
X016043Y011146D01*
X016046Y011177D01*
X016045Y011208D01*
X016045Y012271D01*
X016045Y012270D02*
X016046Y012299D01*
X016043Y012327D01*
X016036Y012355D01*
X016026Y012381D01*
X016012Y012406D01*
X015996Y012429D01*
X015976Y012449D01*
X015954Y012467D01*
X015930Y012482D01*
X015904Y012494D01*
X015877Y012502D01*
X015849Y012506D01*
X015848Y012507D02*
X015297Y012507D01*
X015266Y012508D01*
X015235Y012505D01*
X015205Y012498D01*
X015175Y012487D01*
X015148Y012473D01*
X015122Y012456D01*
X015098Y012436D01*
X015077Y012413D01*
X015059Y012388D01*
X015044Y012360D01*
X015033Y012332D01*
X015025Y012302D01*
X015021Y012271D01*
X018151Y012579D02*
X018151Y010823D01*
X018153Y010806D01*
X018158Y010789D01*
X018166Y010774D01*
X018177Y010761D01*
X018190Y010750D01*
X018205Y010742D01*
X018222Y010737D01*
X018239Y010735D01*
X019260Y010735D01*
X019281Y010734D01*
X019302Y010736D01*
X019322Y010741D01*
X019341Y010749D01*
X019358Y010760D01*
X019374Y010773D01*
X019387Y010789D01*
X019398Y010807D01*
X019406Y010826D01*
X019411Y010846D01*
X019411Y012592D01*
X019411Y012593D02*
X019406Y012613D01*
X019398Y012632D01*
X019387Y012650D01*
X019374Y012666D01*
X019358Y012679D01*
X019341Y012690D01*
X019322Y012698D01*
X019302Y012703D01*
X019281Y012705D01*
X019260Y012704D01*
X018276Y012704D01*
X018276Y012703D02*
X018257Y012701D01*
X018238Y012697D01*
X018220Y012689D01*
X018203Y012679D01*
X018188Y012667D01*
X018176Y012652D01*
X018166Y012635D01*
X018158Y012617D01*
X018154Y012598D01*
X018152Y012579D01*
X018269Y012271D02*
X018269Y011168D01*
X018270Y011168D02*
X018272Y011140D01*
X018277Y011112D01*
X018285Y011084D01*
X018297Y011058D01*
X018312Y011034D01*
X018329Y011012D01*
X018350Y010991D01*
X018372Y010974D01*
X018396Y010959D01*
X018422Y010947D01*
X018450Y010939D01*
X018478Y010934D01*
X018506Y010932D01*
X019057Y010932D01*
X019087Y010936D01*
X019117Y010944D01*
X019146Y010955D01*
X019174Y010970D01*
X019199Y010988D01*
X019222Y011009D01*
X019242Y011033D01*
X019259Y011059D01*
X019273Y011086D01*
X019284Y011116D01*
X019291Y011146D01*
X019294Y011177D01*
X019293Y011208D01*
X019293Y012271D01*
X019096Y012507D02*
X018545Y012507D01*
X018514Y012508D01*
X018483Y012505D01*
X018453Y012498D01*
X018423Y012487D01*
X018396Y012473D01*
X018370Y012456D01*
X018346Y012436D01*
X018325Y012413D01*
X018307Y012388D01*
X018292Y012360D01*
X018281Y012332D01*
X018273Y012302D01*
X018269Y012271D01*
X019097Y012506D02*
X019125Y012502D01*
X019152Y012494D01*
X019178Y012482D01*
X019202Y012467D01*
X019224Y012449D01*
X019244Y012429D01*
X019260Y012406D01*
X019274Y012381D01*
X019284Y012355D01*
X019291Y012327D01*
X019294Y012299D01*
X019293Y012270D01*
X019260Y015164D02*
X018239Y015164D01*
X018222Y015166D01*
X018205Y015171D01*
X018190Y015179D01*
X018177Y015190D01*
X018166Y015203D01*
X018158Y015218D01*
X018153Y015235D01*
X018151Y015252D01*
X018151Y017008D01*
X018152Y017008D02*
X018154Y017027D01*
X018158Y017046D01*
X018166Y017064D01*
X018176Y017081D01*
X018188Y017096D01*
X018203Y017108D01*
X018220Y017118D01*
X018238Y017126D01*
X018257Y017130D01*
X018276Y017132D01*
X018276Y017133D02*
X019260Y017133D01*
X019281Y017134D01*
X019302Y017132D01*
X019322Y017127D01*
X019341Y017119D01*
X019358Y017108D01*
X019374Y017095D01*
X019387Y017079D01*
X019398Y017061D01*
X019406Y017042D01*
X019411Y017022D01*
X019411Y017021D02*
X019411Y015276D01*
X019411Y015275D02*
X019406Y015255D01*
X019398Y015236D01*
X019387Y015218D01*
X019374Y015202D01*
X019358Y015189D01*
X019341Y015178D01*
X019322Y015170D01*
X019302Y015165D01*
X019281Y015163D01*
X019260Y015164D01*
X019057Y015361D02*
X018506Y015361D01*
X018478Y015363D01*
X018450Y015368D01*
X018422Y015376D01*
X018396Y015388D01*
X018372Y015403D01*
X018350Y015420D01*
X018329Y015441D01*
X018312Y015463D01*
X018297Y015487D01*
X018285Y015513D01*
X018277Y015541D01*
X018272Y015569D01*
X018270Y015597D01*
X018269Y015597D02*
X018269Y016700D01*
X018273Y016731D01*
X018281Y016761D01*
X018292Y016789D01*
X018307Y016817D01*
X018325Y016842D01*
X018346Y016865D01*
X018370Y016885D01*
X018396Y016902D01*
X018423Y016916D01*
X018453Y016927D01*
X018483Y016934D01*
X018514Y016937D01*
X018545Y016936D01*
X019096Y016936D01*
X019097Y016935D02*
X019125Y016931D01*
X019152Y016923D01*
X019178Y016911D01*
X019202Y016896D01*
X019224Y016878D01*
X019244Y016858D01*
X019260Y016835D01*
X019274Y016810D01*
X019284Y016784D01*
X019291Y016756D01*
X019294Y016728D01*
X019293Y016699D01*
X019293Y016700D02*
X019293Y015637D01*
X019294Y015606D01*
X019291Y015575D01*
X019284Y015545D01*
X019273Y015515D01*
X019259Y015488D01*
X019242Y015462D01*
X019222Y015438D01*
X019199Y015417D01*
X019174Y015399D01*
X019146Y015384D01*
X019117Y015373D01*
X019087Y015365D01*
X019057Y015361D01*
X019260Y008274D02*
X018276Y008274D01*
X018257Y008272D01*
X018238Y008268D01*
X018220Y008260D01*
X018203Y008250D01*
X018188Y008238D01*
X018176Y008223D01*
X018166Y008206D01*
X018158Y008188D01*
X018154Y008169D01*
X018152Y008150D01*
X018151Y008150D02*
X018151Y006394D01*
X018153Y006377D01*
X018158Y006360D01*
X018166Y006345D01*
X018177Y006332D01*
X018190Y006321D01*
X018205Y006313D01*
X018222Y006308D01*
X018239Y006306D01*
X019260Y006306D01*
X019281Y006305D01*
X019302Y006307D01*
X019322Y006312D01*
X019341Y006320D01*
X019358Y006331D01*
X019374Y006344D01*
X019387Y006360D01*
X019398Y006378D01*
X019406Y006397D01*
X019411Y006417D01*
X019411Y008163D01*
X019406Y008183D01*
X019398Y008202D01*
X019387Y008220D01*
X019374Y008236D01*
X019358Y008249D01*
X019341Y008260D01*
X019322Y008268D01*
X019302Y008273D01*
X019281Y008275D01*
X019260Y008274D01*
X019096Y008078D02*
X018545Y008078D01*
X018514Y008079D01*
X018483Y008076D01*
X018453Y008069D01*
X018423Y008058D01*
X018396Y008044D01*
X018370Y008027D01*
X018346Y008007D01*
X018325Y007984D01*
X018307Y007959D01*
X018292Y007931D01*
X018281Y007903D01*
X018273Y007873D01*
X018269Y007842D01*
X018269Y007841D02*
X018269Y006739D01*
X018270Y006739D02*
X018272Y006711D01*
X018277Y006683D01*
X018285Y006655D01*
X018297Y006629D01*
X018312Y006605D01*
X018329Y006583D01*
X018350Y006562D01*
X018372Y006545D01*
X018396Y006530D01*
X018422Y006518D01*
X018450Y006510D01*
X018478Y006505D01*
X018506Y006503D01*
X019057Y006503D01*
X019087Y006507D01*
X019117Y006515D01*
X019146Y006526D01*
X019174Y006541D01*
X019199Y006559D01*
X019222Y006580D01*
X019242Y006604D01*
X019259Y006630D01*
X019273Y006657D01*
X019284Y006687D01*
X019291Y006717D01*
X019294Y006748D01*
X019293Y006779D01*
X019293Y006778D02*
X019293Y007841D01*
X019294Y007870D01*
X019291Y007898D01*
X019284Y007926D01*
X019274Y007952D01*
X019260Y007977D01*
X019244Y008000D01*
X019224Y008020D01*
X019202Y008038D01*
X019178Y008053D01*
X019152Y008065D01*
X019125Y008073D01*
X019097Y008077D01*
X016163Y008163D02*
X016163Y006417D01*
X016158Y006397D01*
X016150Y006378D01*
X016139Y006360D01*
X016126Y006344D01*
X016110Y006331D01*
X016093Y006320D01*
X016074Y006312D01*
X016054Y006307D01*
X016033Y006305D01*
X016012Y006306D01*
X014991Y006306D01*
X014974Y006308D01*
X014957Y006313D01*
X014942Y006321D01*
X014929Y006332D01*
X014918Y006345D01*
X014910Y006360D01*
X014905Y006377D01*
X014903Y006394D01*
X014903Y008150D01*
X014904Y008150D02*
X014906Y008169D01*
X014910Y008188D01*
X014918Y008206D01*
X014928Y008223D01*
X014940Y008238D01*
X014955Y008250D01*
X014972Y008260D01*
X014990Y008268D01*
X015009Y008272D01*
X015028Y008274D01*
X016012Y008274D01*
X016033Y008275D01*
X016054Y008273D01*
X016074Y008268D01*
X016093Y008260D01*
X016110Y008249D01*
X016126Y008236D01*
X016139Y008220D01*
X016150Y008202D01*
X016158Y008183D01*
X016163Y008163D01*
X016045Y007841D02*
X016045Y006778D01*
X016045Y006779D02*
X016046Y006748D01*
X016043Y006717D01*
X016036Y006687D01*
X016025Y006657D01*
X016011Y006630D01*
X015994Y006604D01*
X015974Y006580D01*
X015951Y006559D01*
X015926Y006541D01*
X015898Y006526D01*
X015869Y006515D01*
X015839Y006507D01*
X015809Y006503D01*
X015258Y006503D01*
X015230Y006505D01*
X015202Y006510D01*
X015174Y006518D01*
X015148Y006530D01*
X015124Y006545D01*
X015102Y006562D01*
X015081Y006583D01*
X015064Y006605D01*
X015049Y006629D01*
X015037Y006655D01*
X015029Y006683D01*
X015024Y006711D01*
X015022Y006739D01*
X015021Y006739D02*
X015021Y007841D01*
X015021Y007842D02*
X015025Y007873D01*
X015033Y007903D01*
X015044Y007931D01*
X015059Y007959D01*
X015077Y007984D01*
X015098Y008007D01*
X015122Y008027D01*
X015148Y008044D01*
X015175Y008058D01*
X015205Y008069D01*
X015235Y008076D01*
X015266Y008079D01*
X015297Y008078D01*
X015848Y008078D01*
X015849Y008077D02*
X015877Y008073D01*
X015904Y008065D01*
X015930Y008053D01*
X015954Y008038D01*
X015976Y008020D01*
X015996Y008000D01*
X016012Y007977D01*
X016026Y007952D01*
X016036Y007926D01*
X016043Y007898D01*
X016046Y007870D01*
X016045Y007841D01*
X012915Y008163D02*
X012915Y006417D01*
X012910Y006397D01*
X012902Y006378D01*
X012891Y006360D01*
X012878Y006344D01*
X012862Y006331D01*
X012845Y006320D01*
X012826Y006312D01*
X012806Y006307D01*
X012785Y006305D01*
X012764Y006306D01*
X011743Y006306D01*
X011726Y006308D01*
X011709Y006313D01*
X011694Y006321D01*
X011681Y006332D01*
X011670Y006345D01*
X011662Y006360D01*
X011657Y006377D01*
X011655Y006394D01*
X011655Y008150D01*
X011656Y008150D02*
X011658Y008169D01*
X011662Y008188D01*
X011670Y008206D01*
X011680Y008223D01*
X011692Y008238D01*
X011707Y008250D01*
X011724Y008260D01*
X011742Y008268D01*
X011761Y008272D01*
X011780Y008274D01*
X012764Y008274D01*
X012785Y008275D01*
X012806Y008273D01*
X012826Y008268D01*
X012845Y008260D01*
X012862Y008249D01*
X012878Y008236D01*
X012891Y008220D01*
X012902Y008202D01*
X012910Y008183D01*
X012915Y008163D01*
X012600Y008078D02*
X012049Y008078D01*
X012018Y008079D01*
X011987Y008076D01*
X011957Y008069D01*
X011927Y008058D01*
X011900Y008044D01*
X011874Y008027D01*
X011850Y008007D01*
X011829Y007984D01*
X011811Y007959D01*
X011796Y007931D01*
X011785Y007903D01*
X011777Y007873D01*
X011773Y007842D01*
X011773Y007841D02*
X011773Y006739D01*
X011774Y006739D02*
X011776Y006711D01*
X011781Y006683D01*
X011789Y006655D01*
X011801Y006629D01*
X011816Y006605D01*
X011833Y006583D01*
X011854Y006562D01*
X011876Y006545D01*
X011900Y006530D01*
X011926Y006518D01*
X011954Y006510D01*
X011982Y006505D01*
X012010Y006503D01*
X012561Y006503D01*
X012591Y006507D01*
X012621Y006515D01*
X012650Y006526D01*
X012678Y006541D01*
X012703Y006559D01*
X012726Y006580D01*
X012746Y006604D01*
X012763Y006630D01*
X012777Y006657D01*
X012788Y006687D01*
X012795Y006717D01*
X012798Y006748D01*
X012797Y006779D01*
X012797Y006778D02*
X012797Y007841D01*
X012796Y007841D02*
X012797Y007870D01*
X012794Y007898D01*
X012787Y007926D01*
X012777Y007952D01*
X012763Y007977D01*
X012747Y008000D01*
X012727Y008020D01*
X012705Y008038D01*
X012681Y008053D01*
X012655Y008065D01*
X012628Y008073D01*
X012600Y008077D01*
X009667Y008163D02*
X009667Y006417D01*
X009662Y006397D01*
X009654Y006378D01*
X009643Y006360D01*
X009630Y006344D01*
X009614Y006331D01*
X009597Y006320D01*
X009578Y006312D01*
X009558Y006307D01*
X009537Y006305D01*
X009516Y006306D01*
X008495Y006306D01*
X008478Y006308D01*
X008461Y006313D01*
X008446Y006321D01*
X008433Y006332D01*
X008422Y006345D01*
X008414Y006360D01*
X008409Y006377D01*
X008407Y006394D01*
X008407Y008150D01*
X008408Y008150D02*
X008410Y008169D01*
X008414Y008188D01*
X008422Y008206D01*
X008432Y008223D01*
X008444Y008238D01*
X008459Y008250D01*
X008476Y008260D01*
X008494Y008268D01*
X008513Y008272D01*
X008532Y008274D01*
X009516Y008274D01*
X009537Y008275D01*
X009558Y008273D01*
X009578Y008268D01*
X009597Y008260D01*
X009614Y008249D01*
X009630Y008236D01*
X009643Y008220D01*
X009654Y008202D01*
X009662Y008183D01*
X009667Y008163D01*
X009549Y007841D02*
X009549Y006778D01*
X009549Y006779D02*
X009550Y006748D01*
X009547Y006717D01*
X009540Y006687D01*
X009529Y006657D01*
X009515Y006630D01*
X009498Y006604D01*
X009478Y006580D01*
X009455Y006559D01*
X009430Y006541D01*
X009402Y006526D01*
X009373Y006515D01*
X009343Y006507D01*
X009313Y006503D01*
X008762Y006503D01*
X008734Y006505D01*
X008706Y006510D01*
X008678Y006518D01*
X008652Y006530D01*
X008628Y006545D01*
X008606Y006562D01*
X008585Y006583D01*
X008568Y006605D01*
X008553Y006629D01*
X008541Y006655D01*
X008533Y006683D01*
X008528Y006711D01*
X008526Y006739D01*
X008525Y006739D02*
X008525Y007841D01*
X008525Y007842D02*
X008529Y007873D01*
X008537Y007903D01*
X008548Y007931D01*
X008563Y007959D01*
X008581Y007984D01*
X008602Y008007D01*
X008626Y008027D01*
X008652Y008044D01*
X008679Y008058D01*
X008709Y008069D01*
X008739Y008076D01*
X008770Y008079D01*
X008801Y008078D01*
X009352Y008078D01*
X009352Y008077D02*
X009380Y008073D01*
X009407Y008065D01*
X009433Y008053D01*
X009457Y008038D01*
X009479Y008020D01*
X009499Y008000D01*
X009515Y007977D01*
X009529Y007952D01*
X009539Y007926D01*
X009546Y007898D01*
X009549Y007870D01*
X009548Y007841D01*
X006419Y008163D02*
X006419Y006417D01*
X006414Y006397D01*
X006406Y006378D01*
X006395Y006360D01*
X006382Y006344D01*
X006366Y006331D01*
X006349Y006320D01*
X006330Y006312D01*
X006310Y006307D01*
X006289Y006305D01*
X006268Y006306D01*
X005247Y006306D01*
X005230Y006308D01*
X005213Y006313D01*
X005198Y006321D01*
X005185Y006332D01*
X005174Y006345D01*
X005166Y006360D01*
X005161Y006377D01*
X005159Y006394D01*
X005159Y008150D01*
X005160Y008150D02*
X005162Y008169D01*
X005166Y008188D01*
X005174Y008206D01*
X005184Y008223D01*
X005196Y008238D01*
X005211Y008250D01*
X005228Y008260D01*
X005246Y008268D01*
X005265Y008272D01*
X005284Y008274D01*
X006268Y008274D01*
X006289Y008275D01*
X006310Y008273D01*
X006330Y008268D01*
X006349Y008260D01*
X006366Y008249D01*
X006382Y008236D01*
X006395Y008220D01*
X006406Y008202D01*
X006414Y008183D01*
X006419Y008163D01*
X006104Y008078D02*
X005553Y008078D01*
X005522Y008079D01*
X005491Y008076D01*
X005461Y008069D01*
X005431Y008058D01*
X005404Y008044D01*
X005378Y008027D01*
X005354Y008007D01*
X005333Y007984D01*
X005315Y007959D01*
X005300Y007931D01*
X005289Y007903D01*
X005281Y007873D01*
X005277Y007842D01*
X005277Y007841D02*
X005277Y006739D01*
X005278Y006739D02*
X005280Y006711D01*
X005285Y006683D01*
X005293Y006655D01*
X005305Y006629D01*
X005320Y006605D01*
X005337Y006583D01*
X005358Y006562D01*
X005380Y006545D01*
X005404Y006530D01*
X005430Y006518D01*
X005458Y006510D01*
X005486Y006505D01*
X005514Y006503D01*
X006065Y006503D01*
X006095Y006507D01*
X006125Y006515D01*
X006154Y006526D01*
X006182Y006541D01*
X006207Y006559D01*
X006230Y006580D01*
X006250Y006604D01*
X006267Y006630D01*
X006281Y006657D01*
X006292Y006687D01*
X006299Y006717D01*
X006302Y006748D01*
X006301Y006779D01*
X006301Y006778D02*
X006301Y007841D01*
X006300Y007841D02*
X006301Y007870D01*
X006298Y007898D01*
X006291Y007926D01*
X006281Y007952D01*
X006267Y007977D01*
X006251Y008000D01*
X006231Y008020D01*
X006209Y008038D01*
X006185Y008053D01*
X006159Y008065D01*
X006132Y008073D01*
X006104Y008077D01*
X003171Y008163D02*
X003171Y006417D01*
X003166Y006397D01*
X003158Y006378D01*
X003147Y006360D01*
X003134Y006344D01*
X003118Y006331D01*
X003101Y006320D01*
X003082Y006312D01*
X003062Y006307D01*
X003041Y006305D01*
X003020Y006306D01*
X001999Y006306D01*
X001982Y006308D01*
X001965Y006313D01*
X001950Y006321D01*
X001937Y006332D01*
X001926Y006345D01*
X001918Y006360D01*
X001913Y006377D01*
X001911Y006394D01*
X001911Y008150D01*
X001912Y008150D02*
X001914Y008169D01*
X001918Y008188D01*
X001926Y008206D01*
X001936Y008223D01*
X001948Y008238D01*
X001963Y008250D01*
X001980Y008260D01*
X001998Y008268D01*
X002017Y008272D01*
X002036Y008274D01*
X003020Y008274D01*
X003041Y008275D01*
X003062Y008273D01*
X003082Y008268D01*
X003101Y008260D01*
X003118Y008249D01*
X003134Y008236D01*
X003147Y008220D01*
X003158Y008202D01*
X003166Y008183D01*
X003171Y008163D01*
X003053Y007841D02*
X003053Y006778D01*
X003053Y006779D02*
X003054Y006748D01*
X003051Y006717D01*
X003044Y006687D01*
X003033Y006657D01*
X003019Y006630D01*
X003002Y006604D01*
X002982Y006580D01*
X002959Y006559D01*
X002934Y006541D01*
X002906Y006526D01*
X002877Y006515D01*
X002847Y006507D01*
X002817Y006503D01*
X002266Y006503D01*
X002238Y006505D01*
X002210Y006510D01*
X002182Y006518D01*
X002156Y006530D01*
X002132Y006545D01*
X002110Y006562D01*
X002089Y006583D01*
X002072Y006605D01*
X002057Y006629D01*
X002045Y006655D01*
X002037Y006683D01*
X002032Y006711D01*
X002030Y006739D01*
X002029Y006739D02*
X002029Y007841D01*
X002029Y007842D02*
X002033Y007873D01*
X002041Y007903D01*
X002052Y007931D01*
X002067Y007959D01*
X002085Y007984D01*
X002106Y008007D01*
X002130Y008027D01*
X002156Y008044D01*
X002183Y008058D01*
X002213Y008069D01*
X002243Y008076D01*
X002274Y008079D01*
X002305Y008078D01*
X002856Y008078D01*
X002856Y008077D02*
X002884Y008073D01*
X002911Y008065D01*
X002937Y008053D01*
X002961Y008038D01*
X002983Y008020D01*
X003003Y008000D01*
X003019Y007977D01*
X003033Y007952D01*
X003043Y007926D01*
X003050Y007898D01*
X003053Y007870D01*
X003052Y007841D01*
X003020Y003845D02*
X002036Y003845D01*
X002017Y003843D01*
X001998Y003839D01*
X001980Y003831D01*
X001963Y003821D01*
X001948Y003809D01*
X001936Y003794D01*
X001926Y003777D01*
X001918Y003759D01*
X001914Y003740D01*
X001912Y003721D01*
X001911Y003721D02*
X001911Y001965D01*
X001913Y001948D01*
X001918Y001931D01*
X001926Y001916D01*
X001937Y001903D01*
X001950Y001892D01*
X001965Y001884D01*
X001982Y001879D01*
X001999Y001877D01*
X003020Y001877D01*
X003041Y001876D01*
X003062Y001878D01*
X003082Y001883D01*
X003101Y001891D01*
X003118Y001902D01*
X003134Y001915D01*
X003147Y001931D01*
X003158Y001949D01*
X003166Y001968D01*
X003171Y001988D01*
X003171Y003734D01*
X003166Y003754D01*
X003158Y003773D01*
X003147Y003791D01*
X003134Y003807D01*
X003118Y003820D01*
X003101Y003831D01*
X003082Y003839D01*
X003062Y003844D01*
X003041Y003846D01*
X003020Y003845D01*
X002856Y003649D02*
X002305Y003649D01*
X002274Y003650D01*
X002243Y003647D01*
X002213Y003640D01*
X002183Y003629D01*
X002156Y003615D01*
X002130Y003598D01*
X002106Y003578D01*
X002085Y003555D01*
X002067Y003530D01*
X002052Y003502D01*
X002041Y003474D01*
X002033Y003444D01*
X002029Y003413D01*
X002029Y003412D02*
X002029Y002310D01*
X002030Y002310D02*
X002032Y002282D01*
X002037Y002254D01*
X002045Y002226D01*
X002057Y002200D01*
X002072Y002176D01*
X002089Y002154D01*
X002110Y002133D01*
X002132Y002116D01*
X002156Y002101D01*
X002182Y002089D01*
X002210Y002081D01*
X002238Y002076D01*
X002266Y002074D01*
X002817Y002074D01*
X002847Y002078D01*
X002877Y002086D01*
X002906Y002097D01*
X002934Y002112D01*
X002959Y002130D01*
X002982Y002151D01*
X003002Y002175D01*
X003019Y002201D01*
X003033Y002228D01*
X003044Y002258D01*
X003051Y002288D01*
X003054Y002319D01*
X003053Y002350D01*
X003053Y002349D02*
X003053Y003412D01*
X003052Y003412D02*
X003053Y003441D01*
X003050Y003469D01*
X003043Y003497D01*
X003033Y003523D01*
X003019Y003548D01*
X003003Y003571D01*
X002983Y003591D01*
X002961Y003609D01*
X002937Y003624D01*
X002911Y003636D01*
X002884Y003644D01*
X002856Y003648D01*
X005159Y003721D02*
X005159Y001965D01*
X005161Y001948D01*
X005166Y001931D01*
X005174Y001916D01*
X005185Y001903D01*
X005198Y001892D01*
X005213Y001884D01*
X005230Y001879D01*
X005247Y001877D01*
X006268Y001877D01*
X006289Y001876D01*
X006310Y001878D01*
X006330Y001883D01*
X006349Y001891D01*
X006366Y001902D01*
X006382Y001915D01*
X006395Y001931D01*
X006406Y001949D01*
X006414Y001968D01*
X006419Y001988D01*
X006419Y003734D01*
X006414Y003754D01*
X006406Y003773D01*
X006395Y003791D01*
X006382Y003807D01*
X006366Y003820D01*
X006349Y003831D01*
X006330Y003839D01*
X006310Y003844D01*
X006289Y003846D01*
X006268Y003845D01*
X005284Y003845D01*
X005265Y003843D01*
X005246Y003839D01*
X005228Y003831D01*
X005211Y003821D01*
X005196Y003809D01*
X005184Y003794D01*
X005174Y003777D01*
X005166Y003759D01*
X005162Y003740D01*
X005160Y003721D01*
X005277Y003412D02*
X005277Y002310D01*
X005278Y002310D02*
X005280Y002282D01*
X005285Y002254D01*
X005293Y002226D01*
X005305Y002200D01*
X005320Y002176D01*
X005337Y002154D01*
X005358Y002133D01*
X005380Y002116D01*
X005404Y002101D01*
X005430Y002089D01*
X005458Y002081D01*
X005486Y002076D01*
X005514Y002074D01*
X006065Y002074D01*
X006095Y002078D01*
X006125Y002086D01*
X006154Y002097D01*
X006182Y002112D01*
X006207Y002130D01*
X006230Y002151D01*
X006250Y002175D01*
X006267Y002201D01*
X006281Y002228D01*
X006292Y002258D01*
X006299Y002288D01*
X006302Y002319D01*
X006301Y002350D01*
X006301Y002349D02*
X006301Y003412D01*
X006104Y003649D02*
X005553Y003649D01*
X005522Y003650D01*
X005491Y003647D01*
X005461Y003640D01*
X005431Y003629D01*
X005404Y003615D01*
X005378Y003598D01*
X005354Y003578D01*
X005333Y003555D01*
X005315Y003530D01*
X005300Y003502D01*
X005289Y003474D01*
X005281Y003444D01*
X005277Y003413D01*
X006104Y003648D02*
X006132Y003644D01*
X006159Y003636D01*
X006185Y003624D01*
X006209Y003609D01*
X006231Y003591D01*
X006251Y003571D01*
X006267Y003548D01*
X006281Y003523D01*
X006291Y003497D01*
X006298Y003469D01*
X006301Y003441D01*
X006300Y003412D01*
X008407Y003721D02*
X008407Y001965D01*
X008409Y001948D01*
X008414Y001931D01*
X008422Y001916D01*
X008433Y001903D01*
X008446Y001892D01*
X008461Y001884D01*
X008478Y001879D01*
X008495Y001877D01*
X009516Y001877D01*
X009537Y001876D01*
X009558Y001878D01*
X009578Y001883D01*
X009597Y001891D01*
X009614Y001902D01*
X009630Y001915D01*
X009643Y001931D01*
X009654Y001949D01*
X009662Y001968D01*
X009667Y001988D01*
X009667Y003734D01*
X009662Y003754D01*
X009654Y003773D01*
X009643Y003791D01*
X009630Y003807D01*
X009614Y003820D01*
X009597Y003831D01*
X009578Y003839D01*
X009558Y003844D01*
X009537Y003846D01*
X009516Y003845D01*
X008532Y003845D01*
X008513Y003843D01*
X008494Y003839D01*
X008476Y003831D01*
X008459Y003821D01*
X008444Y003809D01*
X008432Y003794D01*
X008422Y003777D01*
X008414Y003759D01*
X008410Y003740D01*
X008408Y003721D01*
X008525Y003412D02*
X008525Y002310D01*
X008526Y002310D02*
X008528Y002282D01*
X008533Y002254D01*
X008541Y002226D01*
X008553Y002200D01*
X008568Y002176D01*
X008585Y002154D01*
X008606Y002133D01*
X008628Y002116D01*
X008652Y002101D01*
X008678Y002089D01*
X008706Y002081D01*
X008734Y002076D01*
X008762Y002074D01*
X009313Y002074D01*
X009343Y002078D01*
X009373Y002086D01*
X009402Y002097D01*
X009430Y002112D01*
X009455Y002130D01*
X009478Y002151D01*
X009498Y002175D01*
X009515Y002201D01*
X009529Y002228D01*
X009540Y002258D01*
X009547Y002288D01*
X009550Y002319D01*
X009549Y002350D01*
X009549Y002349D02*
X009549Y003412D01*
X009548Y003412D02*
X009549Y003441D01*
X009546Y003469D01*
X009539Y003497D01*
X009529Y003523D01*
X009515Y003548D01*
X009499Y003571D01*
X009479Y003591D01*
X009457Y003609D01*
X009433Y003624D01*
X009407Y003636D01*
X009380Y003644D01*
X009352Y003648D01*
X009352Y003649D02*
X008801Y003649D01*
X008770Y003650D01*
X008739Y003647D01*
X008709Y003640D01*
X008679Y003629D01*
X008652Y003615D01*
X008626Y003598D01*
X008602Y003578D01*
X008581Y003555D01*
X008563Y003530D01*
X008548Y003502D01*
X008537Y003474D01*
X008529Y003444D01*
X008525Y003413D01*
X011655Y003721D02*
X011655Y001965D01*
X011657Y001948D01*
X011662Y001931D01*
X011670Y001916D01*
X011681Y001903D01*
X011694Y001892D01*
X011709Y001884D01*
X011726Y001879D01*
X011743Y001877D01*
X012764Y001877D01*
X012785Y001876D01*
X012806Y001878D01*
X012826Y001883D01*
X012845Y001891D01*
X012862Y001902D01*
X012878Y001915D01*
X012891Y001931D01*
X012902Y001949D01*
X012910Y001968D01*
X012915Y001988D01*
X012915Y003734D01*
X012910Y003754D01*
X012902Y003773D01*
X012891Y003791D01*
X012878Y003807D01*
X012862Y003820D01*
X012845Y003831D01*
X012826Y003839D01*
X012806Y003844D01*
X012785Y003846D01*
X012764Y003845D01*
X011780Y003845D01*
X011761Y003843D01*
X011742Y003839D01*
X011724Y003831D01*
X011707Y003821D01*
X011692Y003809D01*
X011680Y003794D01*
X011670Y003777D01*
X011662Y003759D01*
X011658Y003740D01*
X011656Y003721D01*
X011773Y003412D02*
X011773Y002310D01*
X011774Y002310D02*
X011776Y002282D01*
X011781Y002254D01*
X011789Y002226D01*
X011801Y002200D01*
X011816Y002176D01*
X011833Y002154D01*
X011854Y002133D01*
X011876Y002116D01*
X011900Y002101D01*
X011926Y002089D01*
X011954Y002081D01*
X011982Y002076D01*
X012010Y002074D01*
X012561Y002074D01*
X012591Y002078D01*
X012621Y002086D01*
X012650Y002097D01*
X012678Y002112D01*
X012703Y002130D01*
X012726Y002151D01*
X012746Y002175D01*
X012763Y002201D01*
X012777Y002228D01*
X012788Y002258D01*
X012795Y002288D01*
X012798Y002319D01*
X012797Y002350D01*
X012797Y002349D02*
X012797Y003412D01*
X012600Y003649D02*
X012049Y003649D01*
X012018Y003650D01*
X011987Y003647D01*
X011957Y003640D01*
X011927Y003629D01*
X011900Y003615D01*
X011874Y003598D01*
X011850Y003578D01*
X011829Y003555D01*
X011811Y003530D01*
X011796Y003502D01*
X011785Y003474D01*
X011777Y003444D01*
X011773Y003413D01*
X012600Y003648D02*
X012628Y003644D01*
X012655Y003636D01*
X012681Y003624D01*
X012705Y003609D01*
X012727Y003591D01*
X012747Y003571D01*
X012763Y003548D01*
X012777Y003523D01*
X012787Y003497D01*
X012794Y003469D01*
X012797Y003441D01*
X012796Y003412D01*
X014903Y003721D02*
X014903Y001965D01*
X014905Y001948D01*
X014910Y001931D01*
X014918Y001916D01*
X014929Y001903D01*
X014942Y001892D01*
X014957Y001884D01*
X014974Y001879D01*
X014991Y001877D01*
X016012Y001877D01*
X016033Y001876D01*
X016054Y001878D01*
X016074Y001883D01*
X016093Y001891D01*
X016110Y001902D01*
X016126Y001915D01*
X016139Y001931D01*
X016150Y001949D01*
X016158Y001968D01*
X016163Y001988D01*
X016163Y003734D01*
X016158Y003754D01*
X016150Y003773D01*
X016139Y003791D01*
X016126Y003807D01*
X016110Y003820D01*
X016093Y003831D01*
X016074Y003839D01*
X016054Y003844D01*
X016033Y003846D01*
X016012Y003845D01*
X015028Y003845D01*
X015009Y003843D01*
X014990Y003839D01*
X014972Y003831D01*
X014955Y003821D01*
X014940Y003809D01*
X014928Y003794D01*
X014918Y003777D01*
X014910Y003759D01*
X014906Y003740D01*
X014904Y003721D01*
X015021Y003412D02*
X015021Y002310D01*
X015022Y002310D02*
X015024Y002282D01*
X015029Y002254D01*
X015037Y002226D01*
X015049Y002200D01*
X015064Y002176D01*
X015081Y002154D01*
X015102Y002133D01*
X015124Y002116D01*
X015148Y002101D01*
X015174Y002089D01*
X015202Y002081D01*
X015230Y002076D01*
X015258Y002074D01*
X015809Y002074D01*
X015839Y002078D01*
X015869Y002086D01*
X015898Y002097D01*
X015926Y002112D01*
X015951Y002130D01*
X015974Y002151D01*
X015994Y002175D01*
X016011Y002201D01*
X016025Y002228D01*
X016036Y002258D01*
X016043Y002288D01*
X016046Y002319D01*
X016045Y002350D01*
X016045Y002349D02*
X016045Y003412D01*
X016046Y003441D01*
X016043Y003469D01*
X016036Y003497D01*
X016026Y003523D01*
X016012Y003548D01*
X015996Y003571D01*
X015976Y003591D01*
X015954Y003609D01*
X015930Y003624D01*
X015904Y003636D01*
X015877Y003644D01*
X015849Y003648D01*
X015848Y003649D02*
X015297Y003649D01*
X015266Y003650D01*
X015235Y003647D01*
X015205Y003640D01*
X015175Y003629D01*
X015148Y003615D01*
X015122Y003598D01*
X015098Y003578D01*
X015077Y003555D01*
X015059Y003530D01*
X015044Y003502D01*
X015033Y003474D01*
X015025Y003444D01*
X015021Y003413D01*
X018151Y003721D02*
X018151Y001965D01*
X018153Y001948D01*
X018158Y001931D01*
X018166Y001916D01*
X018177Y001903D01*
X018190Y001892D01*
X018205Y001884D01*
X018222Y001879D01*
X018239Y001877D01*
X019260Y001877D01*
X019281Y001876D01*
X019302Y001878D01*
X019322Y001883D01*
X019341Y001891D01*
X019358Y001902D01*
X019374Y001915D01*
X019387Y001931D01*
X019398Y001949D01*
X019406Y001968D01*
X019411Y001988D01*
X019411Y003734D01*
X019406Y003754D01*
X019398Y003773D01*
X019387Y003791D01*
X019374Y003807D01*
X019358Y003820D01*
X019341Y003831D01*
X019322Y003839D01*
X019302Y003844D01*
X019281Y003846D01*
X019260Y003845D01*
X018276Y003845D01*
X018257Y003843D01*
X018238Y003839D01*
X018220Y003831D01*
X018203Y003821D01*
X018188Y003809D01*
X018176Y003794D01*
X018166Y003777D01*
X018158Y003759D01*
X018154Y003740D01*
X018152Y003721D01*
X018269Y003412D02*
X018269Y002310D01*
X018270Y002310D02*
X018272Y002282D01*
X018277Y002254D01*
X018285Y002226D01*
X018297Y002200D01*
X018312Y002176D01*
X018329Y002154D01*
X018350Y002133D01*
X018372Y002116D01*
X018396Y002101D01*
X018422Y002089D01*
X018450Y002081D01*
X018478Y002076D01*
X018506Y002074D01*
X019057Y002074D01*
X019087Y002078D01*
X019117Y002086D01*
X019146Y002097D01*
X019174Y002112D01*
X019199Y002130D01*
X019222Y002151D01*
X019242Y002175D01*
X019259Y002201D01*
X019273Y002228D01*
X019284Y002258D01*
X019291Y002288D01*
X019294Y002319D01*
X019293Y002350D01*
X019293Y002349D02*
X019293Y003412D01*
X019096Y003649D02*
X018545Y003649D01*
X018514Y003650D01*
X018483Y003647D01*
X018453Y003640D01*
X018423Y003629D01*
X018396Y003615D01*
X018370Y003598D01*
X018346Y003578D01*
X018325Y003555D01*
X018307Y003530D01*
X018292Y003502D01*
X018281Y003474D01*
X018273Y003444D01*
X018269Y003413D01*
X019097Y003648D02*
X019125Y003644D01*
X019152Y003636D01*
X019178Y003624D01*
X019202Y003609D01*
X019224Y003591D01*
X019244Y003571D01*
X019260Y003548D01*
X019274Y003523D01*
X019284Y003497D01*
X019291Y003469D01*
X019294Y003441D01*
X019293Y003412D01*
M02*
