G75*
G70*
%OFA0B0*%
%FSLAX24Y24*%
%IPPOS*%
%LPD*%
%AMOC8*
5,1,8,0,0,1.08239X$1,22.5*
%
%ADD10C,0.0000*%
%ADD11R,0.0945X0.0787*%
%ADD12R,0.0591X0.0512*%
%ADD13R,0.0630X0.0512*%
D10*
X000141Y000141D02*
X000141Y019826D01*
X019531Y019826D01*
X019531Y000240D01*
X000141Y000141D01*
X003586Y018842D02*
X003588Y018886D01*
X003594Y018930D01*
X003604Y018973D01*
X003617Y019015D01*
X003635Y019055D01*
X003656Y019094D01*
X003680Y019131D01*
X003707Y019166D01*
X003738Y019198D01*
X003771Y019227D01*
X003807Y019253D01*
X003845Y019275D01*
X003885Y019294D01*
X003926Y019310D01*
X003969Y019322D01*
X004012Y019330D01*
X004056Y019334D01*
X004100Y019334D01*
X004144Y019330D01*
X004187Y019322D01*
X004230Y019310D01*
X004271Y019294D01*
X004311Y019275D01*
X004349Y019253D01*
X004385Y019227D01*
X004418Y019198D01*
X004449Y019166D01*
X004476Y019131D01*
X004500Y019094D01*
X004521Y019055D01*
X004539Y019015D01*
X004552Y018973D01*
X004562Y018930D01*
X004568Y018886D01*
X004570Y018842D01*
X004568Y018798D01*
X004562Y018754D01*
X004552Y018711D01*
X004539Y018669D01*
X004521Y018629D01*
X004500Y018590D01*
X004476Y018553D01*
X004449Y018518D01*
X004418Y018486D01*
X004385Y018457D01*
X004349Y018431D01*
X004311Y018409D01*
X004271Y018390D01*
X004230Y018374D01*
X004187Y018362D01*
X004144Y018354D01*
X004100Y018350D01*
X004056Y018350D01*
X004012Y018354D01*
X003969Y018362D01*
X003926Y018374D01*
X003885Y018390D01*
X003845Y018409D01*
X003807Y018431D01*
X003771Y018457D01*
X003738Y018486D01*
X003707Y018518D01*
X003680Y018553D01*
X003656Y018590D01*
X003635Y018629D01*
X003617Y018669D01*
X003604Y018711D01*
X003594Y018754D01*
X003588Y018798D01*
X003586Y018842D01*
X015397Y018842D02*
X015399Y018886D01*
X015405Y018930D01*
X015415Y018973D01*
X015428Y019015D01*
X015446Y019055D01*
X015467Y019094D01*
X015491Y019131D01*
X015518Y019166D01*
X015549Y019198D01*
X015582Y019227D01*
X015618Y019253D01*
X015656Y019275D01*
X015696Y019294D01*
X015737Y019310D01*
X015780Y019322D01*
X015823Y019330D01*
X015867Y019334D01*
X015911Y019334D01*
X015955Y019330D01*
X015998Y019322D01*
X016041Y019310D01*
X016082Y019294D01*
X016122Y019275D01*
X016160Y019253D01*
X016196Y019227D01*
X016229Y019198D01*
X016260Y019166D01*
X016287Y019131D01*
X016311Y019094D01*
X016332Y019055D01*
X016350Y019015D01*
X016363Y018973D01*
X016373Y018930D01*
X016379Y018886D01*
X016381Y018842D01*
X016379Y018798D01*
X016373Y018754D01*
X016363Y018711D01*
X016350Y018669D01*
X016332Y018629D01*
X016311Y018590D01*
X016287Y018553D01*
X016260Y018518D01*
X016229Y018486D01*
X016196Y018457D01*
X016160Y018431D01*
X016122Y018409D01*
X016082Y018390D01*
X016041Y018374D01*
X015998Y018362D01*
X015955Y018354D01*
X015911Y018350D01*
X015867Y018350D01*
X015823Y018354D01*
X015780Y018362D01*
X015737Y018374D01*
X015696Y018390D01*
X015656Y018409D01*
X015618Y018431D01*
X015582Y018457D01*
X015549Y018486D01*
X015518Y018518D01*
X015491Y018553D01*
X015467Y018590D01*
X015446Y018629D01*
X015428Y018669D01*
X015415Y018711D01*
X015405Y018754D01*
X015399Y018798D01*
X015397Y018842D01*
D11*
X015533Y016936D03*
X015533Y015361D03*
X015533Y012507D03*
X015533Y010932D03*
X015533Y008078D03*
X015533Y006503D03*
X015533Y003649D03*
X015533Y002074D03*
X012285Y002074D03*
X012285Y003649D03*
X012285Y006503D03*
X012285Y008078D03*
X012285Y010932D03*
X012285Y012507D03*
X012285Y015361D03*
X012285Y016936D03*
X009037Y016936D03*
X009037Y015361D03*
X009037Y012507D03*
X009037Y010932D03*
X009037Y008078D03*
X009037Y006503D03*
X009037Y003649D03*
X009037Y002074D03*
X005789Y002074D03*
X005789Y003649D03*
X005789Y006503D03*
X005789Y008078D03*
X005789Y010932D03*
X005789Y012507D03*
X005789Y015361D03*
X005789Y016936D03*
X002541Y016936D03*
X002541Y015361D03*
X002541Y012507D03*
X002541Y010932D03*
X002541Y008078D03*
X002541Y006503D03*
X002541Y003649D03*
X002541Y002074D03*
X018781Y002074D03*
X018781Y003649D03*
X018781Y006503D03*
X018781Y008078D03*
X018781Y010932D03*
X018781Y012507D03*
X018781Y015361D03*
X018781Y016936D03*
D12*
X016861Y016614D03*
X016861Y017283D03*
X016861Y015763D03*
X016861Y015094D03*
X016861Y012854D03*
X016861Y012185D03*
X016861Y011334D03*
X016861Y010665D03*
X016861Y008425D03*
X016861Y007756D03*
X016861Y006905D03*
X016861Y006236D03*
X016861Y003996D03*
X016861Y003326D03*
X016861Y002476D03*
X016861Y001806D03*
X013613Y001806D03*
X013613Y002476D03*
X013613Y003326D03*
X013613Y003996D03*
X013613Y006236D03*
X013613Y006905D03*
X013613Y007756D03*
X013613Y008425D03*
X013613Y010665D03*
X013613Y011334D03*
X013613Y012185D03*
X013613Y012854D03*
X013613Y015094D03*
X013613Y015763D03*
X013613Y016614D03*
X013613Y017283D03*
X010365Y017283D03*
X010365Y016614D03*
X010365Y015763D03*
X010365Y015094D03*
X010365Y012854D03*
X010365Y012185D03*
X010365Y011334D03*
X010365Y010665D03*
X010365Y008425D03*
X010365Y007756D03*
X010365Y006905D03*
X010365Y006236D03*
X010365Y003996D03*
X010365Y003326D03*
X010365Y002476D03*
X010365Y001806D03*
X007117Y001806D03*
X007117Y002476D03*
X007117Y003326D03*
X007117Y003996D03*
X007117Y006236D03*
X007117Y006905D03*
X007117Y007756D03*
X007117Y008425D03*
X007117Y010665D03*
X007117Y011334D03*
X007117Y012185D03*
X007117Y012854D03*
X007117Y015094D03*
X007117Y015763D03*
X007117Y016614D03*
X007117Y017283D03*
X003869Y017283D03*
X003869Y016614D03*
X003869Y015763D03*
X003869Y015094D03*
X003869Y012854D03*
X003869Y012185D03*
X003869Y011334D03*
X003869Y010665D03*
X003869Y008425D03*
X003869Y007756D03*
X003869Y006905D03*
X003869Y006236D03*
X003869Y003996D03*
X003869Y003326D03*
X003869Y002476D03*
X003869Y001806D03*
X000621Y001806D03*
X000621Y002476D03*
X000621Y003326D03*
X000621Y003996D03*
X000621Y006236D03*
X000621Y006905D03*
X000621Y007756D03*
X000621Y008425D03*
X000621Y010665D03*
X000621Y011334D03*
X000621Y012185D03*
X000621Y012854D03*
X000621Y015094D03*
X000621Y015763D03*
X000621Y016614D03*
X000621Y017283D03*
D13*
X001421Y016243D03*
X001421Y015494D03*
X004669Y015494D03*
X004669Y016243D03*
X007917Y016243D03*
X007917Y015494D03*
X011165Y015494D03*
X011165Y016243D03*
X014413Y016243D03*
X014413Y015494D03*
X017661Y015494D03*
X017661Y016243D03*
X017661Y011813D03*
X017661Y011065D03*
X014413Y011065D03*
X014413Y011813D03*
X011165Y011813D03*
X011165Y011065D03*
X007917Y011065D03*
X007917Y011813D03*
X004669Y011813D03*
X004669Y011065D03*
X001421Y011065D03*
X001421Y011813D03*
X001421Y007384D03*
X001421Y006636D03*
X004669Y006636D03*
X004669Y007384D03*
X007917Y007384D03*
X007917Y006636D03*
X011165Y006636D03*
X011165Y007384D03*
X014413Y007384D03*
X014413Y006636D03*
X017661Y006636D03*
X017661Y007384D03*
X017661Y002955D03*
X017661Y002207D03*
X014413Y002207D03*
X014413Y002955D03*
X011165Y002955D03*
X011165Y002207D03*
X007917Y002207D03*
X007917Y002955D03*
X004669Y002955D03*
X004669Y002207D03*
X001421Y002207D03*
X001421Y002955D03*
M02*
