G75*
G70*
%OFA0B0*%
%FSLAX24Y24*%
%IPPOS*%
%LPD*%
%AMOC8*
5,1,8,0,0,1.08239X$1,22.5*
%
%ADD10C,0.0000*%
%ADD11C,0.0090*%
%ADD12C,0.0070*%
%ADD13C,0.0050*%
D10*
X000141Y000141D02*
X000141Y004472D01*
X003291Y004472D01*
X003291Y000141D01*
X000141Y000141D01*
D11*
X000466Y001185D02*
X000931Y001185D01*
X001221Y003510D02*
X001686Y003510D01*
D12*
X002021Y001501D02*
X002021Y001101D01*
X002181Y001181D02*
X002181Y001421D01*
X002261Y001421D01*
X002261Y001181D01*
X002181Y001181D01*
X001981Y001301D02*
X001461Y001301D01*
X001461Y000981D01*
X002421Y001101D02*
X002421Y001501D01*
X002461Y001301D02*
X002941Y001301D01*
X002941Y000981D01*
D13*
X003020Y001877D02*
X001999Y001877D01*
X001982Y001879D01*
X001965Y001884D01*
X001950Y001892D01*
X001937Y001903D01*
X001926Y001916D01*
X001918Y001931D01*
X001913Y001948D01*
X001911Y001965D01*
X001911Y003721D01*
X001912Y003721D02*
X001914Y003740D01*
X001918Y003759D01*
X001926Y003777D01*
X001936Y003794D01*
X001948Y003809D01*
X001963Y003821D01*
X001980Y003831D01*
X001998Y003839D01*
X002017Y003843D01*
X002036Y003845D01*
X003020Y003845D01*
X003041Y003846D01*
X003062Y003844D01*
X003082Y003839D01*
X003101Y003831D01*
X003118Y003820D01*
X003134Y003807D01*
X003147Y003791D01*
X003158Y003773D01*
X003166Y003754D01*
X003171Y003734D01*
X003171Y001988D01*
X003166Y001968D01*
X003158Y001949D01*
X003147Y001931D01*
X003134Y001915D01*
X003118Y001902D01*
X003101Y001891D01*
X003082Y001883D01*
X003062Y001878D01*
X003041Y001876D01*
X003020Y001877D01*
X002817Y002074D02*
X002266Y002074D01*
X002238Y002076D01*
X002210Y002081D01*
X002182Y002089D01*
X002156Y002101D01*
X002132Y002116D01*
X002110Y002133D01*
X002089Y002154D01*
X002072Y002176D01*
X002057Y002200D01*
X002045Y002226D01*
X002037Y002254D01*
X002032Y002282D01*
X002030Y002310D01*
X002029Y002310D02*
X002029Y003412D01*
X002029Y003413D02*
X002033Y003444D01*
X002041Y003474D01*
X002052Y003502D01*
X002067Y003530D01*
X002085Y003555D01*
X002106Y003578D01*
X002130Y003598D01*
X002156Y003615D01*
X002183Y003629D01*
X002213Y003640D01*
X002243Y003647D01*
X002274Y003650D01*
X002305Y003649D01*
X002856Y003649D01*
X002856Y003648D02*
X002884Y003644D01*
X002911Y003636D01*
X002937Y003624D01*
X002961Y003609D01*
X002983Y003591D01*
X003003Y003571D01*
X003019Y003548D01*
X003033Y003523D01*
X003043Y003497D01*
X003050Y003469D01*
X003053Y003441D01*
X003052Y003412D01*
X003053Y003412D02*
X003053Y002349D01*
X003053Y002350D02*
X003054Y002319D01*
X003051Y002288D01*
X003044Y002258D01*
X003033Y002228D01*
X003019Y002201D01*
X003002Y002175D01*
X002982Y002151D01*
X002959Y002130D01*
X002934Y002112D01*
X002906Y002097D01*
X002877Y002086D01*
X002847Y002078D01*
X002817Y002074D01*
M02*
