G75*
G70*
%OFA0B0*%
%FSLAX24Y24*%
%IPPOS*%
%LPD*%
%AMOC8*
5,1,8,0,0,1.08239X$1,22.5*
%
%ADD10C,0.0000*%
%ADD11C,0.0740*%
%ADD12C,0.0100*%
%ADD13C,0.0240*%
%ADD14C,0.0080*%
D10*
X000141Y000141D02*
X000141Y004472D01*
X003291Y004472D01*
X003291Y000141D01*
X000141Y000141D01*
D11*
X000702Y000649D03*
X001702Y000649D03*
X002702Y000649D03*
X001451Y004006D03*
D12*
X002541Y003101D02*
X001702Y002262D01*
X001702Y000649D01*
D13*
X002541Y003101D03*
D14*
X002412Y003283D02*
X000281Y003283D01*
X000281Y003361D02*
X003151Y003361D01*
X003151Y003283D02*
X002670Y003283D01*
X002632Y003321D02*
X002450Y003321D01*
X002321Y003192D01*
X002321Y003093D01*
X001552Y002324D01*
X001552Y002200D01*
X001552Y001096D01*
X001436Y001047D01*
X001304Y000915D01*
X001232Y000742D01*
X001232Y000555D01*
X001304Y000383D01*
X001405Y000281D01*
X001055Y000281D01*
X001091Y000317D01*
X001138Y000382D01*
X001175Y000453D01*
X001199Y000530D01*
X001212Y000609D01*
X000742Y000609D01*
X000742Y000689D01*
X000662Y000689D01*
X000662Y001159D01*
X000662Y001159D01*
X000583Y001146D01*
X000506Y001122D01*
X000435Y001085D01*
X000370Y001038D01*
X000313Y000981D01*
X000281Y000937D01*
X000281Y004332D01*
X001057Y004332D01*
X001015Y004274D01*
X000979Y004202D01*
X000954Y004126D01*
X000941Y004046D01*
X001411Y004046D01*
X001411Y003966D01*
X001491Y003966D01*
X001491Y003496D01*
X001491Y003496D01*
X001571Y003509D01*
X001647Y003534D01*
X001718Y003570D01*
X001783Y003617D01*
X001840Y003674D01*
X001887Y003739D01*
X001924Y003810D01*
X001949Y003887D01*
X001961Y003966D01*
X001961Y003966D01*
X001491Y003966D01*
X001491Y004046D01*
X001961Y004046D01*
X001961Y004046D01*
X001949Y004126D01*
X001924Y004202D01*
X001887Y004274D01*
X001845Y004332D01*
X003151Y004332D01*
X003151Y000794D01*
X003100Y000915D01*
X002968Y001047D01*
X002796Y001119D01*
X002609Y001119D01*
X002436Y001047D01*
X002304Y000915D01*
X002232Y000742D01*
X002232Y000555D01*
X002304Y000383D01*
X002405Y000281D01*
X001999Y000281D01*
X002100Y000383D01*
X002172Y000555D01*
X002172Y000742D01*
X002100Y000915D01*
X001968Y001047D01*
X001852Y001096D01*
X001852Y002200D01*
X002533Y002881D01*
X002632Y002881D01*
X002761Y003010D01*
X002761Y003192D01*
X002632Y003321D01*
X002749Y003204D02*
X003151Y003204D01*
X003151Y003126D02*
X002761Y003126D01*
X002761Y003047D02*
X003151Y003047D01*
X003151Y002969D02*
X002720Y002969D01*
X002641Y002890D02*
X003151Y002890D01*
X003151Y002812D02*
X002464Y002812D01*
X002385Y002733D02*
X003151Y002733D01*
X003151Y002654D02*
X002307Y002654D01*
X002228Y002576D02*
X003151Y002576D01*
X003151Y002497D02*
X002150Y002497D01*
X002071Y002419D02*
X003151Y002419D01*
X003151Y002340D02*
X001992Y002340D01*
X001914Y002262D02*
X003151Y002262D01*
X003151Y002183D02*
X001852Y002183D01*
X001852Y002105D02*
X003151Y002105D01*
X003151Y002026D02*
X001852Y002026D01*
X001852Y001948D02*
X003151Y001948D01*
X003151Y001869D02*
X001852Y001869D01*
X001852Y001791D02*
X003151Y001791D01*
X003151Y001712D02*
X001852Y001712D01*
X001852Y001633D02*
X003151Y001633D01*
X003151Y001555D02*
X001852Y001555D01*
X001852Y001476D02*
X003151Y001476D01*
X003151Y001398D02*
X001852Y001398D01*
X001852Y001319D02*
X003151Y001319D01*
X003151Y001241D02*
X001852Y001241D01*
X001852Y001162D02*
X003151Y001162D01*
X003151Y001084D02*
X002881Y001084D01*
X003011Y001005D02*
X003151Y001005D01*
X003151Y000927D02*
X003089Y000927D01*
X003128Y000848D02*
X003151Y000848D01*
X002523Y001084D02*
X001881Y001084D01*
X002011Y001005D02*
X002393Y001005D01*
X002315Y000927D02*
X002089Y000927D01*
X002128Y000848D02*
X002276Y000848D01*
X002243Y000769D02*
X002161Y000769D01*
X002172Y000691D02*
X002232Y000691D01*
X002232Y000612D02*
X002172Y000612D01*
X002163Y000534D02*
X002241Y000534D01*
X002274Y000455D02*
X002131Y000455D01*
X002094Y000377D02*
X002310Y000377D01*
X002388Y000298D02*
X002016Y000298D01*
X001523Y001084D02*
X000971Y001084D01*
X000969Y001085D02*
X000898Y001122D01*
X000821Y001146D01*
X000742Y001159D01*
X000742Y000689D01*
X001212Y000689D01*
X001199Y000768D01*
X001175Y000845D01*
X001138Y000916D01*
X001091Y000981D01*
X001034Y001038D01*
X000969Y001085D01*
X001067Y001005D02*
X001393Y001005D01*
X001315Y000927D02*
X001131Y000927D01*
X001173Y000848D02*
X001276Y000848D01*
X001243Y000769D02*
X001199Y000769D01*
X001212Y000691D02*
X001232Y000691D01*
X001212Y000689D02*
X001212Y000689D01*
X001232Y000612D02*
X000742Y000612D01*
X000742Y000691D02*
X000662Y000691D01*
X000662Y000769D02*
X000742Y000769D01*
X000742Y000848D02*
X000662Y000848D01*
X000662Y000927D02*
X000742Y000927D01*
X000742Y001005D02*
X000662Y001005D01*
X000662Y001084D02*
X000742Y001084D01*
X000742Y001159D02*
X000742Y001159D01*
X000433Y001084D02*
X000281Y001084D01*
X000281Y001162D02*
X001552Y001162D01*
X001552Y001241D02*
X000281Y001241D01*
X000281Y001319D02*
X001552Y001319D01*
X001552Y001398D02*
X000281Y001398D01*
X000281Y001476D02*
X001552Y001476D01*
X001552Y001555D02*
X000281Y001555D01*
X000281Y001633D02*
X001552Y001633D01*
X001552Y001712D02*
X000281Y001712D01*
X000281Y001791D02*
X001552Y001791D01*
X001552Y001869D02*
X000281Y001869D01*
X000281Y001948D02*
X001552Y001948D01*
X001552Y002026D02*
X000281Y002026D01*
X000281Y002105D02*
X001552Y002105D01*
X001552Y002183D02*
X000281Y002183D01*
X000281Y002262D02*
X001552Y002262D01*
X001568Y002340D02*
X000281Y002340D01*
X000281Y002419D02*
X001647Y002419D01*
X001725Y002497D02*
X000281Y002497D01*
X000281Y002576D02*
X001804Y002576D01*
X001882Y002654D02*
X000281Y002654D01*
X000281Y002733D02*
X001961Y002733D01*
X002039Y002812D02*
X000281Y002812D01*
X000281Y002890D02*
X002118Y002890D01*
X002197Y002969D02*
X000281Y002969D01*
X000281Y003047D02*
X002275Y003047D01*
X002321Y003126D02*
X000281Y003126D01*
X000281Y003204D02*
X002333Y003204D01*
X001895Y003754D02*
X003151Y003754D01*
X003151Y003676D02*
X001841Y003676D01*
X001756Y003597D02*
X003151Y003597D01*
X003151Y003518D02*
X001600Y003518D01*
X001491Y003518D02*
X001411Y003518D01*
X001411Y003496D02*
X001411Y003966D01*
X000941Y003966D01*
X000954Y003887D01*
X000979Y003810D01*
X001015Y003739D01*
X001062Y003674D01*
X001119Y003617D01*
X001184Y003570D01*
X001255Y003534D01*
X001332Y003509D01*
X001411Y003496D01*
X001411Y003496D01*
X001411Y003597D02*
X001491Y003597D01*
X001491Y003676D02*
X001411Y003676D01*
X001411Y003754D02*
X001491Y003754D01*
X001491Y003833D02*
X001411Y003833D01*
X001411Y003911D02*
X001491Y003911D01*
X001491Y003990D02*
X003151Y003990D01*
X003151Y004068D02*
X001958Y004068D01*
X001942Y004147D02*
X003151Y004147D01*
X003151Y004225D02*
X001912Y004225D01*
X001865Y004304D02*
X003151Y004304D01*
X003151Y003911D02*
X001952Y003911D01*
X001931Y003833D02*
X003151Y003833D01*
X003151Y003440D02*
X000281Y003440D01*
X000281Y003518D02*
X001302Y003518D01*
X001147Y003597D02*
X000281Y003597D01*
X000281Y003676D02*
X001061Y003676D01*
X001007Y003754D02*
X000281Y003754D01*
X000281Y003833D02*
X000971Y003833D01*
X000950Y003911D02*
X000281Y003911D01*
X000281Y003990D02*
X001411Y003990D01*
X001037Y004304D02*
X000281Y004304D01*
X000281Y004225D02*
X000990Y004225D01*
X000961Y004147D02*
X000281Y004147D01*
X000281Y004068D02*
X000945Y004068D01*
X000941Y004046D02*
X000941Y004046D01*
X000941Y003966D02*
X000941Y003966D01*
X000337Y001005D02*
X000281Y001005D01*
X001072Y000298D02*
X001388Y000298D01*
X001310Y000377D02*
X001135Y000377D01*
X001175Y000455D02*
X001274Y000455D01*
X001241Y000534D02*
X001200Y000534D01*
X001212Y000609D02*
X001212Y000609D01*
M02*
