G75*
G70*
%OFA0B0*%
%FSLAX24Y24*%
%IPPOS*%
%LPD*%
%AMOC8*
5,1,8,0,0,1.08239X$1,22.5*
%
%ADD10R,1.9390X0.0098*%
%ADD11R,0.0098X0.4331*%
%ADD12C,0.0000*%
%ADD13C,0.1024*%
%ADD14C,0.0780*%
D10*
X009836Y004521D03*
X009836Y008950D03*
X009836Y013379D03*
X009836Y017808D03*
D11*
X009836Y015594D03*
X006588Y015594D03*
X003340Y015594D03*
X003340Y011165D03*
X006588Y011165D03*
X009836Y011165D03*
X013084Y011165D03*
X016332Y011165D03*
X016332Y015594D03*
X013084Y015594D03*
X013084Y006736D03*
X009836Y006736D03*
X006588Y006736D03*
X003340Y006736D03*
X003340Y002306D03*
X006588Y002306D03*
X009836Y002306D03*
X013084Y002306D03*
X016332Y002306D03*
X016332Y006736D03*
D12*
X000141Y000141D02*
X000141Y019826D01*
X019531Y019826D01*
X019531Y000240D01*
X000141Y000141D01*
X003586Y018842D02*
X003588Y018886D01*
X003594Y018930D01*
X003604Y018973D01*
X003617Y019015D01*
X003635Y019055D01*
X003656Y019094D01*
X003680Y019131D01*
X003707Y019166D01*
X003738Y019198D01*
X003771Y019227D01*
X003807Y019253D01*
X003845Y019275D01*
X003885Y019294D01*
X003926Y019310D01*
X003969Y019322D01*
X004012Y019330D01*
X004056Y019334D01*
X004100Y019334D01*
X004144Y019330D01*
X004187Y019322D01*
X004230Y019310D01*
X004271Y019294D01*
X004311Y019275D01*
X004349Y019253D01*
X004385Y019227D01*
X004418Y019198D01*
X004449Y019166D01*
X004476Y019131D01*
X004500Y019094D01*
X004521Y019055D01*
X004539Y019015D01*
X004552Y018973D01*
X004562Y018930D01*
X004568Y018886D01*
X004570Y018842D01*
X004568Y018798D01*
X004562Y018754D01*
X004552Y018711D01*
X004539Y018669D01*
X004521Y018629D01*
X004500Y018590D01*
X004476Y018553D01*
X004449Y018518D01*
X004418Y018486D01*
X004385Y018457D01*
X004349Y018431D01*
X004311Y018409D01*
X004271Y018390D01*
X004230Y018374D01*
X004187Y018362D01*
X004144Y018354D01*
X004100Y018350D01*
X004056Y018350D01*
X004012Y018354D01*
X003969Y018362D01*
X003926Y018374D01*
X003885Y018390D01*
X003845Y018409D01*
X003807Y018431D01*
X003771Y018457D01*
X003738Y018486D01*
X003707Y018518D01*
X003680Y018553D01*
X003656Y018590D01*
X003635Y018629D01*
X003617Y018669D01*
X003604Y018711D01*
X003594Y018754D01*
X003588Y018798D01*
X003586Y018842D01*
X015397Y018842D02*
X015399Y018886D01*
X015405Y018930D01*
X015415Y018973D01*
X015428Y019015D01*
X015446Y019055D01*
X015467Y019094D01*
X015491Y019131D01*
X015518Y019166D01*
X015549Y019198D01*
X015582Y019227D01*
X015618Y019253D01*
X015656Y019275D01*
X015696Y019294D01*
X015737Y019310D01*
X015780Y019322D01*
X015823Y019330D01*
X015867Y019334D01*
X015911Y019334D01*
X015955Y019330D01*
X015998Y019322D01*
X016041Y019310D01*
X016082Y019294D01*
X016122Y019275D01*
X016160Y019253D01*
X016196Y019227D01*
X016229Y019198D01*
X016260Y019166D01*
X016287Y019131D01*
X016311Y019094D01*
X016332Y019055D01*
X016350Y019015D01*
X016363Y018973D01*
X016373Y018930D01*
X016379Y018886D01*
X016381Y018842D01*
X016379Y018798D01*
X016373Y018754D01*
X016363Y018711D01*
X016350Y018669D01*
X016332Y018629D01*
X016311Y018590D01*
X016287Y018553D01*
X016260Y018518D01*
X016229Y018486D01*
X016196Y018457D01*
X016160Y018431D01*
X016122Y018409D01*
X016082Y018390D01*
X016041Y018374D01*
X015998Y018362D01*
X015955Y018354D01*
X015911Y018350D01*
X015867Y018350D01*
X015823Y018354D01*
X015780Y018362D01*
X015737Y018374D01*
X015696Y018390D01*
X015656Y018409D01*
X015618Y018431D01*
X015582Y018457D01*
X015549Y018486D01*
X015518Y018518D01*
X015491Y018553D01*
X015467Y018590D01*
X015446Y018629D01*
X015428Y018669D01*
X015415Y018711D01*
X015405Y018754D01*
X015399Y018798D01*
X015397Y018842D01*
D13*
X015889Y018842D03*
X004078Y018842D03*
D14*
X004699Y017294D03*
X001451Y017294D03*
X001702Y013936D03*
X000702Y013936D03*
X001451Y012865D03*
X002702Y013936D03*
X003950Y013936D03*
X004950Y013936D03*
X005950Y013936D03*
X007198Y013936D03*
X008198Y013936D03*
X009198Y013936D03*
X007947Y012865D03*
X010446Y013936D03*
X011446Y013936D03*
X012446Y013936D03*
X013694Y013936D03*
X014694Y013936D03*
X015694Y013936D03*
X014443Y012865D03*
X016942Y013936D03*
X017942Y013936D03*
X018942Y013936D03*
X017691Y012865D03*
X017942Y009507D03*
X016942Y009507D03*
X017691Y008435D03*
X018942Y009507D03*
X015694Y009507D03*
X014694Y009507D03*
X013694Y009507D03*
X014443Y008435D03*
X012446Y009507D03*
X011446Y009507D03*
X010446Y009507D03*
X011195Y008435D03*
X009198Y009507D03*
X008198Y009507D03*
X007198Y009507D03*
X007947Y008435D03*
X005950Y009507D03*
X004950Y009507D03*
X003950Y009507D03*
X004699Y008435D03*
X002702Y009507D03*
X001702Y009507D03*
X000702Y009507D03*
X001451Y008435D03*
X001702Y005078D03*
X000702Y005078D03*
X001451Y004006D03*
X002702Y005078D03*
X003950Y005078D03*
X004950Y005078D03*
X005950Y005078D03*
X007198Y005078D03*
X008198Y005078D03*
X009198Y005078D03*
X007947Y004006D03*
X010446Y005078D03*
X011446Y005078D03*
X012446Y005078D03*
X013694Y005078D03*
X014694Y005078D03*
X015694Y005078D03*
X014443Y004006D03*
X016942Y005078D03*
X017942Y005078D03*
X018942Y005078D03*
X017691Y004006D03*
X017942Y000649D03*
X016942Y000649D03*
X015694Y000649D03*
X014694Y000649D03*
X013694Y000649D03*
X012446Y000649D03*
X011446Y000649D03*
X010446Y000649D03*
X009198Y000649D03*
X008198Y000649D03*
X007198Y000649D03*
X005950Y000649D03*
X004950Y000649D03*
X003950Y000649D03*
X002702Y000649D03*
X001702Y000649D03*
X000702Y000649D03*
X004699Y004006D03*
X011195Y004006D03*
X018942Y000649D03*
X011195Y012865D03*
X011195Y017294D03*
X007947Y017294D03*
X004699Y012865D03*
X014443Y017294D03*
X017691Y017294D03*
M02*
