G75*
G70*
%OFA0B0*%
%FSLAX24Y24*%
%IPPOS*%
%LPD*%
%AMOC8*
5,1,8,0,0,1.08239X$1,22.5*
%
%ADD10C,0.0000*%
%ADD11R,0.0945X0.0787*%
%ADD12R,0.0591X0.0512*%
%ADD13R,0.0630X0.0512*%
%ADD14C,0.0740*%
%ADD15C,0.0100*%
%ADD16C,0.0240*%
D10*
X000141Y000141D02*
X000141Y019826D01*
X019531Y019826D01*
X019531Y000240D01*
X000141Y000141D01*
X003586Y018842D02*
X003588Y018886D01*
X003594Y018930D01*
X003604Y018973D01*
X003617Y019015D01*
X003635Y019055D01*
X003656Y019094D01*
X003680Y019131D01*
X003707Y019166D01*
X003738Y019198D01*
X003771Y019227D01*
X003807Y019253D01*
X003845Y019275D01*
X003885Y019294D01*
X003926Y019310D01*
X003969Y019322D01*
X004012Y019330D01*
X004056Y019334D01*
X004100Y019334D01*
X004144Y019330D01*
X004187Y019322D01*
X004230Y019310D01*
X004271Y019294D01*
X004311Y019275D01*
X004349Y019253D01*
X004385Y019227D01*
X004418Y019198D01*
X004449Y019166D01*
X004476Y019131D01*
X004500Y019094D01*
X004521Y019055D01*
X004539Y019015D01*
X004552Y018973D01*
X004562Y018930D01*
X004568Y018886D01*
X004570Y018842D01*
X004568Y018798D01*
X004562Y018754D01*
X004552Y018711D01*
X004539Y018669D01*
X004521Y018629D01*
X004500Y018590D01*
X004476Y018553D01*
X004449Y018518D01*
X004418Y018486D01*
X004385Y018457D01*
X004349Y018431D01*
X004311Y018409D01*
X004271Y018390D01*
X004230Y018374D01*
X004187Y018362D01*
X004144Y018354D01*
X004100Y018350D01*
X004056Y018350D01*
X004012Y018354D01*
X003969Y018362D01*
X003926Y018374D01*
X003885Y018390D01*
X003845Y018409D01*
X003807Y018431D01*
X003771Y018457D01*
X003738Y018486D01*
X003707Y018518D01*
X003680Y018553D01*
X003656Y018590D01*
X003635Y018629D01*
X003617Y018669D01*
X003604Y018711D01*
X003594Y018754D01*
X003588Y018798D01*
X003586Y018842D01*
X015397Y018842D02*
X015399Y018886D01*
X015405Y018930D01*
X015415Y018973D01*
X015428Y019015D01*
X015446Y019055D01*
X015467Y019094D01*
X015491Y019131D01*
X015518Y019166D01*
X015549Y019198D01*
X015582Y019227D01*
X015618Y019253D01*
X015656Y019275D01*
X015696Y019294D01*
X015737Y019310D01*
X015780Y019322D01*
X015823Y019330D01*
X015867Y019334D01*
X015911Y019334D01*
X015955Y019330D01*
X015998Y019322D01*
X016041Y019310D01*
X016082Y019294D01*
X016122Y019275D01*
X016160Y019253D01*
X016196Y019227D01*
X016229Y019198D01*
X016260Y019166D01*
X016287Y019131D01*
X016311Y019094D01*
X016332Y019055D01*
X016350Y019015D01*
X016363Y018973D01*
X016373Y018930D01*
X016379Y018886D01*
X016381Y018842D01*
X016379Y018798D01*
X016373Y018754D01*
X016363Y018711D01*
X016350Y018669D01*
X016332Y018629D01*
X016311Y018590D01*
X016287Y018553D01*
X016260Y018518D01*
X016229Y018486D01*
X016196Y018457D01*
X016160Y018431D01*
X016122Y018409D01*
X016082Y018390D01*
X016041Y018374D01*
X015998Y018362D01*
X015955Y018354D01*
X015911Y018350D01*
X015867Y018350D01*
X015823Y018354D01*
X015780Y018362D01*
X015737Y018374D01*
X015696Y018390D01*
X015656Y018409D01*
X015618Y018431D01*
X015582Y018457D01*
X015549Y018486D01*
X015518Y018518D01*
X015491Y018553D01*
X015467Y018590D01*
X015446Y018629D01*
X015428Y018669D01*
X015415Y018711D01*
X015405Y018754D01*
X015399Y018798D01*
X015397Y018842D01*
D11*
X015533Y016936D03*
X015533Y015361D03*
X015533Y012507D03*
X015533Y010932D03*
X015533Y008078D03*
X015533Y006503D03*
X015533Y003649D03*
X015533Y002074D03*
X012285Y002074D03*
X012285Y003649D03*
X012285Y006503D03*
X012285Y008078D03*
X012285Y010932D03*
X012285Y012507D03*
X012285Y015361D03*
X012285Y016936D03*
X009037Y016936D03*
X009037Y015361D03*
X009037Y012507D03*
X009037Y010932D03*
X009037Y008078D03*
X009037Y006503D03*
X009037Y003649D03*
X009037Y002074D03*
X005789Y002074D03*
X005789Y003649D03*
X005789Y006503D03*
X005789Y008078D03*
X005789Y010932D03*
X005789Y012507D03*
X005789Y015361D03*
X005789Y016936D03*
X002541Y016936D03*
X002541Y015361D03*
X002541Y012507D03*
X002541Y010932D03*
X002541Y008078D03*
X002541Y006503D03*
X002541Y003649D03*
X002541Y002074D03*
X018781Y002074D03*
X018781Y003649D03*
X018781Y006503D03*
X018781Y008078D03*
X018781Y010932D03*
X018781Y012507D03*
X018781Y015361D03*
X018781Y016936D03*
D12*
X016861Y016614D03*
X016861Y017283D03*
X016861Y015763D03*
X016861Y015094D03*
X016861Y012854D03*
X016861Y012185D03*
X016861Y011334D03*
X016861Y010665D03*
X016861Y008425D03*
X016861Y007756D03*
X016861Y006905D03*
X016861Y006236D03*
X016861Y003996D03*
X016861Y003326D03*
X016861Y002476D03*
X016861Y001806D03*
X013613Y001806D03*
X013613Y002476D03*
X013613Y003326D03*
X013613Y003996D03*
X013613Y006236D03*
X013613Y006905D03*
X013613Y007756D03*
X013613Y008425D03*
X013613Y010665D03*
X013613Y011334D03*
X013613Y012185D03*
X013613Y012854D03*
X013613Y015094D03*
X013613Y015763D03*
X013613Y016614D03*
X013613Y017283D03*
X010365Y017283D03*
X010365Y016614D03*
X010365Y015763D03*
X010365Y015094D03*
X010365Y012854D03*
X010365Y012185D03*
X010365Y011334D03*
X010365Y010665D03*
X010365Y008425D03*
X010365Y007756D03*
X010365Y006905D03*
X010365Y006236D03*
X010365Y003996D03*
X010365Y003326D03*
X010365Y002476D03*
X010365Y001806D03*
X007117Y001806D03*
X007117Y002476D03*
X007117Y003326D03*
X007117Y003996D03*
X007117Y006236D03*
X007117Y006905D03*
X007117Y007756D03*
X007117Y008425D03*
X007117Y010665D03*
X007117Y011334D03*
X007117Y012185D03*
X007117Y012854D03*
X007117Y015094D03*
X007117Y015763D03*
X007117Y016614D03*
X007117Y017283D03*
X003869Y017283D03*
X003869Y016614D03*
X003869Y015763D03*
X003869Y015094D03*
X003869Y012854D03*
X003869Y012185D03*
X003869Y011334D03*
X003869Y010665D03*
X003869Y008425D03*
X003869Y007756D03*
X003869Y006905D03*
X003869Y006236D03*
X003869Y003996D03*
X003869Y003326D03*
X003869Y002476D03*
X003869Y001806D03*
X000621Y001806D03*
X000621Y002476D03*
X000621Y003326D03*
X000621Y003996D03*
X000621Y006236D03*
X000621Y006905D03*
X000621Y007756D03*
X000621Y008425D03*
X000621Y010665D03*
X000621Y011334D03*
X000621Y012185D03*
X000621Y012854D03*
X000621Y015094D03*
X000621Y015763D03*
X000621Y016614D03*
X000621Y017283D03*
D13*
X001421Y016243D03*
X001421Y015494D03*
X004669Y015494D03*
X004669Y016243D03*
X007917Y016243D03*
X007917Y015494D03*
X011165Y015494D03*
X011165Y016243D03*
X014413Y016243D03*
X014413Y015494D03*
X017661Y015494D03*
X017661Y016243D03*
X017661Y011813D03*
X017661Y011065D03*
X014413Y011065D03*
X014413Y011813D03*
X011165Y011813D03*
X011165Y011065D03*
X007917Y011065D03*
X007917Y011813D03*
X004669Y011813D03*
X004669Y011065D03*
X001421Y011065D03*
X001421Y011813D03*
X001421Y007384D03*
X001421Y006636D03*
X004669Y006636D03*
X004669Y007384D03*
X007917Y007384D03*
X007917Y006636D03*
X011165Y006636D03*
X011165Y007384D03*
X014413Y007384D03*
X014413Y006636D03*
X017661Y006636D03*
X017661Y007384D03*
X017661Y002955D03*
X017661Y002207D03*
X014413Y002207D03*
X014413Y002955D03*
X011165Y002955D03*
X011165Y002207D03*
X007917Y002207D03*
X007917Y002955D03*
X004669Y002955D03*
X004669Y002207D03*
X001421Y002207D03*
X001421Y002955D03*
D14*
X001451Y004006D03*
X001702Y005078D03*
X000702Y005078D03*
X002702Y005078D03*
X003950Y005078D03*
X004950Y005078D03*
X005950Y005078D03*
X007198Y005078D03*
X008198Y005078D03*
X009198Y005078D03*
X007947Y004006D03*
X010446Y005078D03*
X011446Y005078D03*
X012446Y005078D03*
X013694Y005078D03*
X014694Y005078D03*
X015694Y005078D03*
X014443Y004006D03*
X016942Y005078D03*
X017942Y005078D03*
X018942Y005078D03*
X017691Y004006D03*
X017942Y000649D03*
X016942Y000649D03*
X015694Y000649D03*
X014694Y000649D03*
X013694Y000649D03*
X012446Y000649D03*
X011446Y000649D03*
X010446Y000649D03*
X009198Y000649D03*
X008198Y000649D03*
X007198Y000649D03*
X005950Y000649D03*
X004950Y000649D03*
X003950Y000649D03*
X002702Y000649D03*
X001702Y000649D03*
X000702Y000649D03*
X004699Y004006D03*
X004699Y008435D03*
X004950Y009507D03*
X003950Y009507D03*
X002702Y009507D03*
X001702Y009507D03*
X000702Y009507D03*
X001451Y008435D03*
X001451Y012865D03*
X001702Y013936D03*
X000702Y013936D03*
X002702Y013936D03*
X003950Y013936D03*
X004950Y013936D03*
X005950Y013936D03*
X007198Y013936D03*
X008198Y013936D03*
X009198Y013936D03*
X007947Y012865D03*
X010446Y013936D03*
X011446Y013936D03*
X012446Y013936D03*
X013694Y013936D03*
X014694Y013936D03*
X015694Y013936D03*
X014443Y012865D03*
X016942Y013936D03*
X017942Y013936D03*
X018942Y013936D03*
X017691Y012865D03*
X017942Y009507D03*
X016942Y009507D03*
X017691Y008435D03*
X018942Y009507D03*
X015694Y009507D03*
X014694Y009507D03*
X013694Y009507D03*
X014443Y008435D03*
X012446Y009507D03*
X011446Y009507D03*
X010446Y009507D03*
X011195Y008435D03*
X009198Y009507D03*
X008198Y009507D03*
X007198Y009507D03*
X007947Y008435D03*
X005950Y009507D03*
X004699Y012865D03*
X004699Y017294D03*
X001451Y017294D03*
X007947Y017294D03*
X011195Y017294D03*
X014443Y017294D03*
X017691Y017294D03*
X011195Y012865D03*
X011195Y004006D03*
X018942Y000649D03*
D15*
X018942Y001913D01*
X018781Y002074D01*
X017795Y002074D01*
X017661Y002207D01*
X017567Y002301D01*
X017421Y002301D01*
X017247Y002476D01*
X016861Y002476D01*
X016861Y001806D02*
X016942Y001726D01*
X016942Y000649D01*
X015694Y000649D02*
X015694Y001913D01*
X015533Y002074D01*
X014547Y002074D01*
X014413Y002207D01*
X014319Y002301D01*
X014173Y002301D01*
X013999Y002476D01*
X013613Y002476D01*
X013613Y001806D02*
X013694Y001726D01*
X013694Y000649D01*
X012446Y000649D02*
X012446Y001913D01*
X012285Y002074D01*
X011299Y002074D01*
X011165Y002207D01*
X011071Y002301D01*
X010925Y002301D01*
X010751Y002476D01*
X010365Y002476D01*
X010365Y001806D02*
X010446Y001726D01*
X010446Y000649D01*
X009198Y000649D02*
X009198Y001913D01*
X009037Y002074D01*
X008051Y002074D01*
X007917Y002207D01*
X007823Y002301D01*
X007677Y002301D01*
X007503Y002476D01*
X007117Y002476D01*
X007117Y001806D02*
X007198Y001726D01*
X007198Y000649D01*
X005950Y000649D02*
X005950Y001913D01*
X005789Y002074D01*
X004803Y002074D01*
X004669Y002207D01*
X004575Y002301D01*
X004429Y002301D01*
X004254Y002476D01*
X003869Y002476D01*
X003869Y001806D02*
X003950Y001726D01*
X003950Y000649D01*
X002702Y000649D02*
X002702Y001913D01*
X002541Y002074D01*
X001554Y002074D01*
X001421Y002207D01*
X001327Y002301D01*
X001181Y002301D01*
X001006Y002476D01*
X000621Y002476D01*
X000621Y001806D02*
X000702Y001726D01*
X000702Y000649D01*
X001421Y002955D02*
X001421Y003326D01*
X001646Y003326D01*
X001969Y003649D01*
X002541Y003649D01*
X002541Y003101D01*
X001421Y003326D02*
X000621Y003326D01*
X000621Y003996D02*
X001441Y003996D01*
X001451Y004006D01*
X000702Y005078D02*
X000702Y006155D01*
X000621Y006236D01*
X000621Y006905D02*
X001006Y006905D01*
X001181Y006730D01*
X001327Y006730D01*
X001421Y006636D01*
X001554Y006503D01*
X002541Y006503D01*
X002702Y006342D01*
X002702Y005078D01*
X003869Y003996D02*
X004689Y003996D01*
X004699Y004006D01*
X005217Y003649D02*
X004894Y003326D01*
X004669Y003326D01*
X004669Y002955D01*
X004669Y003326D02*
X003869Y003326D01*
X005217Y003649D02*
X005789Y003649D01*
X005789Y003101D01*
X007117Y003326D02*
X007917Y003326D01*
X007917Y002955D01*
X007917Y003326D02*
X008143Y003326D01*
X008465Y003649D01*
X009037Y003649D01*
X009037Y003101D01*
X007947Y004006D02*
X007937Y003996D01*
X007117Y003996D01*
X007198Y005078D02*
X007198Y006155D01*
X007117Y006236D01*
X007117Y006905D02*
X007503Y006905D01*
X007677Y006730D01*
X007823Y006730D01*
X007917Y006636D01*
X008051Y006503D01*
X009037Y006503D01*
X009198Y006342D01*
X009198Y005078D01*
X010365Y003996D02*
X011185Y003996D01*
X011195Y004006D01*
X011713Y003649D02*
X011391Y003326D01*
X011165Y003326D01*
X011165Y002955D01*
X011165Y003326D02*
X010365Y003326D01*
X011713Y003649D02*
X012285Y003649D01*
X012285Y003101D01*
X013613Y003326D02*
X014413Y003326D01*
X014413Y002955D01*
X014413Y003326D02*
X014639Y003326D01*
X014961Y003649D01*
X015533Y003649D01*
X015533Y003101D01*
X014443Y004006D02*
X014433Y003996D01*
X013613Y003996D01*
X013694Y005078D02*
X013694Y006155D01*
X013613Y006236D01*
X013613Y006905D02*
X013999Y006905D01*
X014173Y006730D01*
X014319Y006730D01*
X014413Y006636D01*
X014547Y006503D01*
X015533Y006503D01*
X015694Y006342D01*
X015694Y005078D01*
X016861Y003996D02*
X017681Y003996D01*
X017691Y004006D01*
X018209Y003649D02*
X017887Y003326D01*
X017661Y003326D01*
X017661Y002955D01*
X017661Y003326D02*
X016861Y003326D01*
X018209Y003649D02*
X018781Y003649D01*
X018781Y003101D01*
X018942Y005078D02*
X018942Y006342D01*
X018781Y006503D01*
X017795Y006503D01*
X017661Y006636D01*
X017567Y006730D01*
X017421Y006730D01*
X017247Y006905D01*
X016861Y006905D01*
X016861Y006236D02*
X016942Y006155D01*
X016942Y005078D01*
X017661Y007384D02*
X017661Y007756D01*
X017887Y007756D01*
X018209Y008078D01*
X018781Y008078D01*
X018781Y007530D01*
X017661Y007756D02*
X016861Y007756D01*
X016861Y008425D02*
X017681Y008425D01*
X017691Y008435D01*
X016942Y009507D02*
X016942Y010584D01*
X016861Y010665D01*
X016861Y011334D02*
X017247Y011334D01*
X017421Y011159D01*
X017567Y011159D01*
X017661Y011065D01*
X017795Y010932D01*
X018781Y010932D01*
X018942Y010771D01*
X018942Y009507D01*
X018781Y011959D02*
X018781Y012507D01*
X018209Y012507D01*
X017887Y012185D01*
X017661Y012185D01*
X017661Y011813D01*
X017661Y012185D02*
X016861Y012185D01*
X016861Y012854D02*
X017681Y012854D01*
X017691Y012865D01*
X016942Y013936D02*
X016942Y015013D01*
X016861Y015094D01*
X017421Y015589D02*
X017567Y015589D01*
X017661Y015494D01*
X017795Y015361D01*
X018781Y015361D01*
X018942Y015200D01*
X018942Y013936D01*
X017421Y015589D02*
X017247Y015763D01*
X016861Y015763D01*
X016861Y016614D02*
X017661Y016614D01*
X017661Y016243D01*
X017661Y016614D02*
X017887Y016614D01*
X018209Y016936D01*
X018781Y016936D01*
X018781Y016389D01*
X017691Y017294D02*
X017681Y017283D01*
X016861Y017283D01*
X015533Y016936D02*
X015533Y016389D01*
X015533Y016936D02*
X014961Y016936D01*
X014639Y016614D01*
X014413Y016614D01*
X014413Y016243D01*
X014413Y016614D02*
X013613Y016614D01*
X013613Y017283D02*
X014433Y017283D01*
X014443Y017294D01*
X013999Y015763D02*
X013613Y015763D01*
X013999Y015763D02*
X014173Y015589D01*
X014319Y015589D01*
X014413Y015494D01*
X014547Y015361D01*
X015533Y015361D01*
X015694Y015200D01*
X015694Y013936D01*
X014443Y012865D02*
X014433Y012854D01*
X013613Y012854D01*
X013613Y012185D02*
X014413Y012185D01*
X014413Y011813D01*
X014413Y012185D02*
X014639Y012185D01*
X014961Y012507D01*
X015533Y012507D01*
X015533Y011959D01*
X015533Y010932D02*
X014547Y010932D01*
X014413Y011065D01*
X014319Y011159D01*
X014173Y011159D01*
X013999Y011334D01*
X013613Y011334D01*
X013613Y010665D02*
X013694Y010584D01*
X013694Y009507D01*
X013613Y008425D02*
X014433Y008425D01*
X014443Y008435D01*
X014961Y008078D02*
X014639Y007756D01*
X014413Y007756D01*
X014413Y007384D01*
X014413Y007756D02*
X013613Y007756D01*
X012285Y007530D02*
X012285Y008078D01*
X011713Y008078D01*
X011391Y007756D01*
X011165Y007756D01*
X011165Y007384D01*
X011165Y007756D02*
X010365Y007756D01*
X010365Y008425D02*
X011185Y008425D01*
X011195Y008435D01*
X010446Y009507D02*
X010446Y010584D01*
X010365Y010665D01*
X010365Y011334D02*
X010751Y011334D01*
X010925Y011159D01*
X011071Y011159D01*
X011165Y011065D01*
X011299Y010932D01*
X012285Y010932D01*
X012446Y010771D01*
X012446Y009507D01*
X012285Y011959D02*
X012285Y012507D01*
X011713Y012507D01*
X011391Y012185D01*
X011165Y012185D01*
X011165Y011813D01*
X011165Y012185D02*
X010365Y012185D01*
X010365Y012854D02*
X011185Y012854D01*
X011195Y012865D01*
X010446Y013936D02*
X010446Y015013D01*
X010365Y015094D01*
X010925Y015589D02*
X011071Y015589D01*
X011165Y015494D01*
X011299Y015361D01*
X012285Y015361D01*
X012446Y015200D01*
X012446Y013936D01*
X013694Y013936D02*
X013694Y015013D01*
X013613Y015094D01*
X012285Y016389D02*
X012285Y016936D01*
X011713Y016936D01*
X011391Y016614D01*
X011165Y016614D01*
X011165Y016243D01*
X011165Y016614D02*
X010365Y016614D01*
X010365Y017283D02*
X011185Y017283D01*
X011195Y017294D01*
X010751Y015763D02*
X010365Y015763D01*
X010751Y015763D02*
X010925Y015589D01*
X009198Y015200D02*
X009198Y013936D01*
X007947Y012865D02*
X007937Y012854D01*
X007117Y012854D01*
X007117Y012185D02*
X007917Y012185D01*
X007917Y011813D01*
X007917Y012185D02*
X008143Y012185D01*
X008465Y012507D01*
X009037Y012507D01*
X009037Y011959D01*
X009037Y010932D02*
X008051Y010932D01*
X007917Y011065D01*
X007823Y011159D01*
X007677Y011159D01*
X007503Y011334D01*
X007117Y011334D01*
X007117Y010665D02*
X007198Y010584D01*
X007198Y009507D01*
X007117Y008425D02*
X007937Y008425D01*
X007947Y008435D01*
X008465Y008078D02*
X008143Y007756D01*
X007917Y007756D01*
X007917Y007384D01*
X007917Y007756D02*
X007117Y007756D01*
X005789Y007530D02*
X005789Y008078D01*
X005217Y008078D01*
X004894Y007756D01*
X004669Y007756D01*
X004669Y007384D01*
X004669Y007756D02*
X003869Y007756D01*
X003869Y008425D02*
X004689Y008425D01*
X004699Y008435D01*
X003950Y009507D02*
X003950Y010584D01*
X003869Y010665D01*
X003869Y011334D02*
X004254Y011334D01*
X004429Y011159D01*
X004575Y011159D01*
X004669Y011065D01*
X004803Y010932D01*
X005789Y010932D01*
X005950Y010771D01*
X005950Y009507D01*
X005789Y011959D02*
X005789Y012507D01*
X005217Y012507D01*
X004894Y012185D01*
X004669Y012185D01*
X004669Y011813D01*
X004669Y012185D02*
X003869Y012185D01*
X003869Y012854D02*
X004689Y012854D01*
X004699Y012865D01*
X003950Y013936D02*
X003950Y015013D01*
X003869Y015094D01*
X004429Y015589D02*
X004575Y015589D01*
X004669Y015494D01*
X004803Y015361D01*
X005789Y015361D01*
X005950Y015200D01*
X005950Y013936D01*
X007198Y013936D02*
X007198Y015013D01*
X007117Y015094D01*
X007677Y015589D02*
X007823Y015589D01*
X007917Y015494D01*
X008051Y015361D01*
X009037Y015361D01*
X009198Y015200D01*
X009037Y016389D02*
X009037Y016936D01*
X008465Y016936D01*
X008143Y016614D01*
X007917Y016614D01*
X007917Y016243D01*
X007917Y016614D02*
X007117Y016614D01*
X007117Y017283D02*
X007937Y017283D01*
X007947Y017294D01*
X007503Y015763D02*
X007117Y015763D01*
X007503Y015763D02*
X007677Y015589D01*
X005789Y016389D02*
X005789Y016936D01*
X005217Y016936D01*
X004894Y016614D01*
X004669Y016614D01*
X004669Y016243D01*
X004669Y016614D02*
X003869Y016614D01*
X003869Y017283D02*
X004689Y017283D01*
X004699Y017294D01*
X004254Y015763D02*
X003869Y015763D01*
X004254Y015763D02*
X004429Y015589D01*
X002702Y015200D02*
X002702Y013936D01*
X001451Y012865D02*
X001441Y012854D01*
X000621Y012854D01*
X000621Y012185D02*
X001421Y012185D01*
X001421Y011813D01*
X001421Y012185D02*
X001646Y012185D01*
X001969Y012507D01*
X002541Y012507D01*
X002541Y011959D01*
X002541Y010932D02*
X001554Y010932D01*
X001421Y011065D01*
X001327Y011159D01*
X001181Y011159D01*
X001006Y011334D01*
X000621Y011334D01*
X000621Y010665D02*
X000702Y010584D01*
X000702Y009507D01*
X000621Y008425D02*
X001441Y008425D01*
X001451Y008435D01*
X001969Y008078D02*
X001646Y007756D01*
X001421Y007756D01*
X001421Y007384D01*
X001421Y007756D02*
X000621Y007756D01*
X001969Y008078D02*
X002541Y008078D01*
X002541Y007530D01*
X003869Y006905D02*
X004254Y006905D01*
X004429Y006730D01*
X004575Y006730D01*
X004669Y006636D01*
X004803Y006503D01*
X005789Y006503D01*
X005950Y006342D01*
X005950Y005078D01*
X003950Y005078D02*
X003950Y006155D01*
X003869Y006236D01*
X002702Y009507D02*
X002702Y010771D01*
X002541Y010932D01*
X000702Y013936D02*
X000702Y015013D01*
X000621Y015094D01*
X001181Y015589D02*
X001327Y015589D01*
X001421Y015494D01*
X001554Y015361D01*
X002541Y015361D01*
X002702Y015200D01*
X002541Y016389D02*
X002541Y016936D01*
X001969Y016936D01*
X001646Y016614D01*
X001421Y016614D01*
X001421Y016243D01*
X001421Y016614D02*
X000621Y016614D01*
X000621Y017283D02*
X001441Y017283D01*
X001451Y017294D01*
X001006Y015763D02*
X000621Y015763D01*
X001006Y015763D02*
X001181Y015589D01*
X008465Y008078D02*
X009037Y008078D01*
X009037Y007530D01*
X010365Y006905D02*
X010751Y006905D01*
X010925Y006730D01*
X011071Y006730D01*
X011165Y006636D01*
X011299Y006503D01*
X012285Y006503D01*
X012446Y006342D01*
X012446Y005078D01*
X010446Y005078D02*
X010446Y006155D01*
X010365Y006236D01*
X009198Y009507D02*
X009198Y010771D01*
X009037Y010932D01*
X014961Y008078D02*
X015533Y008078D01*
X015533Y007530D01*
X015694Y009507D02*
X015694Y010771D01*
X015533Y010932D01*
D16*
X015533Y011959D03*
X012285Y011959D03*
X009037Y011959D03*
X005789Y011959D03*
X002541Y011959D03*
X002541Y007530D03*
X005789Y007530D03*
X009037Y007530D03*
X012285Y007530D03*
X015533Y007530D03*
X018781Y007530D03*
X018781Y003101D03*
X015533Y003101D03*
X012285Y003101D03*
X009037Y003101D03*
X005789Y003101D03*
X002541Y003101D03*
X002541Y016389D03*
X005789Y016389D03*
X009037Y016389D03*
X012285Y016389D03*
X015533Y016389D03*
X018781Y016389D03*
X018781Y011959D03*
M02*
