%
M48
M72
T01C0.0120
T02C0.0400
T03C0.0984
%
T01
X2541Y3101
X5789Y3101
X9037Y3101
X12285Y3101
X15533Y3101
X18781Y3101
X18781Y7530
X15533Y7530
X12285Y7530
X9037Y7530
X5789Y7530
X2541Y7530
X2541Y11959
X5789Y11959
X9037Y11959
X12285Y11959
X15533Y11959
X18781Y11959
X18781Y16389
X15533Y16389
X12285Y16389
X9037Y16389
X5789Y16389
X2541Y16389
T02
X702Y649
X1702Y649
X2702Y649
X3950Y649
X4950Y649
X5950Y649
X7198Y649
X8198Y649
X9198Y649
X10446Y649
X11446Y649
X12446Y649
X13694Y649
X14694Y649
X15694Y649
X16942Y649
X17942Y649
X18942Y649
X17691Y4006
X17942Y5078
X16942Y5078
X15694Y5078
X14694Y5078
X13694Y5078
X14443Y4006
X12446Y5078
X11446Y5078
X10446Y5078
X11195Y4006
X9198Y5078
X8198Y5078
X7198Y5078
X7947Y4006
X5950Y5078
X4950Y5078
X3950Y5078
X4699Y4006
X2702Y5078
X1702Y5078
X702Y5078
X1451Y4006
X1451Y8435
X1702Y9507
X702Y9507
X2702Y9507
X3950Y9507
X4950Y9507
X5950Y9507
X7198Y9507
X8198Y9507
X9198Y9507
X7947Y8435
X10446Y9507
X11446Y9507
X12446Y9507
X13694Y9507
X14694Y9507
X15694Y9507
X14443Y8435
X16942Y9507
X17942Y9507
X18942Y9507
X17691Y8435
X18942Y5078
X17691Y12865
X17942Y13936
X16942Y13936
X15694Y13936
X14694Y13936
X13694Y13936
X14443Y12865
X12446Y13936
X11446Y13936
X10446Y13936
X11195Y12865
X9198Y13936
X8198Y13936
X7198Y13936
X7947Y12865
X5950Y13936
X4950Y13936
X3950Y13936
X4699Y12865
X2702Y13936
X1702Y13936
X702Y13936
X1451Y12865
X1451Y17294
X4699Y17294
X7947Y17294
X11195Y17294
X14443Y17294
X17691Y17294
X18942Y13936
X11195Y8435
X4699Y8435
T03
X4078Y18842
X15889Y18842
M30
